
<svg
   version="1.1"
   id="svg2"
   xml:space="preserve"
   width="1333.3333"
   height="1333.3333"
   viewBox="0 0 1333.3333 1333.3333"
   sodipodi:docname="dinner.ai"
   xmlns:inkscape="http://www.inkscape.org/namespaces/inkscape"
   xmlns:sodipodi="http://sodipodi.sourceforge.net/DTD/sodipodi-0.dtd"
   xmlns="http://www.w3.org/2000/svg"
   xmlns:svg="http://www.w3.org/2000/svg"><defs
     id="defs6"><clipPath
       clipPathUnits="userSpaceOnUse"
       id="clipPath16"><path
         d="M 0,1000 H 1000 V 0 H 0 Z"
         id="path14" /></clipPath><clipPath
       clipPathUnits="userSpaceOnUse"
       id="clipPath36"><path
         d="M 392.218,738.252 H 574.427 V 452.825 H 392.218 Z"
         id="path34" /></clipPath><clipPath
       clipPathUnits="userSpaceOnUse"
       id="clipPath56"><path
         d="M 290.352,694.9 H 540.295 V 485.097 H 290.352 Z"
         id="path54" /></clipPath><clipPath
       clipPathUnits="userSpaceOnUse"
       id="clipPath84"><path
         d="M 320.757,703.795 H 444.68 V 604.907 H 320.757 Z"
         id="path82" /></clipPath><clipPath
       clipPathUnits="userSpaceOnUse"
       id="clipPath100"><path
         d="m 459.884,581.379 h 40.534 V 531.66 h -40.534 z"
         id="path98" /></clipPath><clipPath
       clipPathUnits="userSpaceOnUse"
       id="clipPath116"><path
         d="m 413.89,533.069 h 24.238 V 514.961 H 413.89 Z"
         id="path114" /></clipPath><clipPath
       clipPathUnits="userSpaceOnUse"
       id="clipPath136"><path
         d="m 526.807,639.06 h 68.018 v -86.176 h -68.018 z"
         id="path134" /></clipPath><clipPath
       clipPathUnits="userSpaceOnUse"
       id="clipPath164"><path
         d="M 313.248,851.315 H 570.959 V 656.912 H 313.248 Z"
         id="path162" /></clipPath><clipPath
       clipPathUnits="userSpaceOnUse"
       id="clipPath196"><path
         d="m 452.826,883.368 h 40.933 v -34.777 h -40.933 z"
         id="path194" /></clipPath><clipPath
       clipPathUnits="userSpaceOnUse"
       id="clipPath212"><path
         d="m 487.789,865.856 h 46.705 v -28.09 h -46.705 z"
         id="path210" /></clipPath><clipPath
       clipPathUnits="userSpaceOnUse"
       id="clipPath240"><path
         d="M 539.229,953.071 H 642.025 V 782.677 H 539.229 Z"
         id="path238" /></clipPath><clipPath
       clipPathUnits="userSpaceOnUse"
       id="clipPath288"><path
         d="m 363.142,828.451 h 21.043 v -29.974 h -21.043 z"
         id="path286" /></clipPath><clipPath
       clipPathUnits="userSpaceOnUse"
       id="clipPath320"><path
         d="m 420.132,830.531 h 22.092 v -42.093 h -22.092 z"
         id="path318" /></clipPath><clipPath
       clipPathUnits="userSpaceOnUse"
       id="clipPath356"><path
         d="m 501.923,835.843 h 30.293 v -54.787 h -30.293 z"
         id="path354" /></clipPath><clipPath
       clipPathUnits="userSpaceOnUse"
       id="clipPath400"><path
         d="M 599.618,940.39 H 752.277 V 829.79 H 599.618 Z"
         id="path398" /></clipPath><clipPath
       clipPathUnits="userSpaceOnUse"
       id="clipPath440"><path
         d="m 539.798,900.766 h 8.98 v -6.27 h -8.98 z"
         id="path438" /></clipPath><clipPath
       clipPathUnits="userSpaceOnUse"
       id="clipPath464"><path
         d="M 463.271,814.334 H 635.845 V 656.915 H 463.271 Z"
         id="path462" /></clipPath><clipPath
       clipPathUnits="userSpaceOnUse"
       id="clipPath480"><path
         d="m 331.477,840.26 h 20.378 v -26.628 h -20.378 z"
         id="path478" /></clipPath><clipPath
       clipPathUnits="userSpaceOnUse"
       id="clipPath496"><path
         d="m 536.224,831.274 h 51.567 v -48.311 h -51.567 z"
         id="path494" /></clipPath><clipPath
       clipPathUnits="userSpaceOnUse"
       id="clipPath512"><path
         d="m 448.613,829.81 h 28.453 v -44.573 h -28.453 z"
         id="path510" /></clipPath><clipPath
       clipPathUnits="userSpaceOnUse"
       id="clipPath528"><path
         d="m 393.02,874.216 h 70.252 V 816.86 H 393.02 Z"
         id="path526" /></clipPath><clipPath
       clipPathUnits="userSpaceOnUse"
       id="clipPath544"><path
         d="m 348.436,836.368 h 2.663 v -0.208 h -2.663 z"
         id="path542" /></clipPath><clipPath
       clipPathUnits="userSpaceOnUse"
       id="clipPath560"><path
         d="m 350.392,868.246 h 33.776 v -45.241 h -33.776 z"
         id="path558" /></clipPath><clipPath
       clipPathUnits="userSpaceOnUse"
       id="clipPath588"><path
         d="m 555.949,477.583 h 72.997 v -168 h -72.997 z"
         id="path586" /></clipPath><clipPath
       clipPathUnits="userSpaceOnUse"
       id="clipPath716"><path
         d="M 520.934,717.165 H 641.356 V 238.905 H 520.934 Z"
         id="path714" /></clipPath><clipPath
       clipPathUnits="userSpaceOnUse"
       id="clipPath732"><path
         d="M 379.721,475.416 H 510.384 V 432.751 H 379.721 Z"
         id="path730" /></clipPath><clipPath
       clipPathUnits="userSpaceOnUse"
       id="clipPath748"><path
         d="M 230.568,412.351 H 541.037 V 195.035 H 230.568 Z"
         id="path746" /></clipPath><clipPath
       clipPathUnits="userSpaceOnUse"
       id="clipPath764"><path
         d="M 276.628,144.833 H 673.292 V 88.6913 H 276.628 Z"
         id="path762" /></clipPath><clipPath
       clipPathUnits="userSpaceOnUse"
       id="clipPath780"><path
         d="m 329.509,495.896 h 34.578 v -64.551 h -34.578 z"
         id="path778" /></clipPath></defs><sodipodi:namedview
     id="namedview4"
     pagecolor="#ffffff"
     bordercolor="#666666"
     borderopacity="1.0"
     inkscape:pageshadow="2"
     inkscape:pageopacity="0.0"
     inkscape:pagecheckerboard="0" /><g
     id="g8"
     inkscape:groupmode="layer"
     inkscape:label="dinner"
     transform="matrix(1.3333333,0,0,-1.3333333,0,1333.3333)"><g
       id="g10"><g
         id="g12"
         clip-path="url(#clipPath16)"><g
           id="g18"
           transform="translate(333.5488,776.7417)"><path
             d="m 0,0 c 0,0 -33.663,-47.237 -9.426,-112.542 24.238,-65.306 -16.831,-115.127 -16.831,-115.127 0,0 -18.227,-79.861 48.113,-122.404 66.34,-42.544 62.749,119.487 58.486,144.845 -4.264,25.36 -50.576,166.744 -50.576,166.744"
             style="fill:#ffffff;fill-opacity:1;fill-rule:nonzero;stroke:none"
             id="path20" /></g><g
           id="g22"
           transform="translate(375.6509,414.8418)"><path
             d="m 0,0 c -7.004,0 -14.622,2.622 -22.79,7.86 -28.306,18.153 -45.96,45.966 -51.052,80.434 -3.822,25.861 0.694,46.135 0.888,46.985 0.163,0.716 0.492,1.384 0.958,1.95 0.389,0.474 39.01,48.623 16.05,110.488 -24.821,66.878 8.572,114.906 10.006,116.918 l 7.676,-5.47 -3.838,2.735 3.842,-2.729 c -0.321,-0.454 -31.872,-46.141 -8.849,-108.174 13.009,-35.053 7.562,-65.709 0.701,-85.254 -6.372,-18.152 -14.962,-30.159 -17.556,-33.547 -0.812,-4.254 -3.677,-21.761 -0.506,-42.845 C -59.66,57.358 -43.924,32.61 -17.702,15.794 -6.605,8.678 2.345,7.568 9.667,12.401 38.502,31.44 37.282,133.945 33.592,155.892 29.435,180.614 -16.353,320.538 -16.815,321.948 l 8.958,2.935 C -5.962,319.096 38.613,182.87 42.887,157.454 46.338,136.93 50.056,27.774 14.86,4.535 10.28,1.511 5.317,0 0,0"
             style="fill:#371a45;fill-opacity:1;fill-rule:nonzero;stroke:none"
             id="path24" /></g><g
           id="g26"
           transform="translate(574.4258,595.5273)"><path
             d="m 0,0 c 0,-78.825 -63.905,-142.73 -142.73,-142.73 -49.175,0 -92.532,24.87 -118.197,62.72 -15.485,22.81 -24.533,50.36 -24.533,80.01 0,53.349 29.273,99.857 72.631,124.35 20.709,11.701 44.623,18.38 70.099,18.38 C -63.905,142.73 0,78.825 0,0"
             style="fill:#ffffff;fill-opacity:1;fill-rule:nonzero;stroke:none"
             id="path28" /></g><g
           id="g30"><g
             id="g32" /><g
             id="g44"><g
               clip-path="url(#clipPath36)"
               opacity="0.25"
               id="g42"><g
                 transform="translate(574.4268,595.5264)"
                 id="g40"><path
                   d="m 0,0 c 0,-78.125 -62.779,-141.599 -140.645,-142.701 59.56,17.166 103.143,72.081 103.143,137.177 0,78.819 -63.907,142.726 -142.726,142.726 -0.656,0 -1.325,0 -1.981,-0.025 12.534,3.616 25.786,5.549 39.483,5.549 C -63.906,142.726 0,78.831 0,0"
                   style="fill:#371a45;fill-opacity:1;fill-rule:nonzero;stroke:none"
                   id="path38" /></g></g></g></g><g
           id="g46"
           transform="translate(535.7539,571.519)"><path
             d="m 0,0 c -17.505,-106.145 -171.514,-112.623 -222.255,-56.001 -15.485,22.81 -24.533,50.359 -24.533,80.009 0,53.349 29.273,99.857 72.631,124.35 C -84.668,168.987 28.722,124.552 0,0"
             style="fill:#371a45;fill-opacity:1;fill-rule:nonzero;stroke:none"
             id="path48" /></g><g
           id="g50"><g
             id="g52" /><g
             id="g64"><g
               clip-path="url(#clipPath56)"
               opacity="0.699997"
               id="g62"><g
                 transform="translate(535.7539,571.519)"
                 id="g60"><path
                   d="m 0,0 c -17.505,-106.145 -176.124,-101.217 -222.255,-56.001 -11.957,17.598 -20.063,38.025 -23.146,60.067 22.904,-23.254 55.813,-37.837 92.37,-37.837 69.184,0 125.266,52.205 125.266,116.608 0,14.26 -2.747,27.913 -7.782,40.544 C -4.066,98.618 13.371,57.994 0,0"
                   style="fill:#111a28;fill-opacity:1;fill-rule:nonzero;stroke:none"
                   id="path58" /></g></g></g></g><g
           id="g66"
           transform="translate(406.5615,475.0391)"><path
             d="m 0,0 c -12.379,-0.001 -24.673,1.309 -36.375,3.937 -26.093,5.859 -47.371,17.969 -59.914,34.1 l 6.377,4.959 c 23.34,-30.016 79.4,-42.88 130.404,-29.925 46.995,11.939 77.871,42.578 84.71,84.062 0.015,0.084 0.03,0.167 0.05,0.25 10.576,45.857 2.028,84.235 -24.719,110.986 -32.009,32.012 -90.117,45.084 -144.596,32.528 l -1.814,7.873 c 27.183,6.265 55.624,6.625 82.246,1.042 28.269,-5.928 52.432,-18.283 69.877,-35.731 20.082,-20.084 41.043,-56.923 26.907,-118.389 C 125.727,50.957 92.686,17.995 42.48,5.241 28.743,1.752 14.315,0 0,0"
             style="fill:#371a45;fill-opacity:1;fill-rule:nonzero;stroke:none"
             id="path68" /></g><g
           id="g70"
           transform="translate(431.6958,733.5444)"><path
             d="m 0,0 c -23.768,0 -47.206,-6.145 -67.781,-17.77 -43.324,-24.474 -70.237,-70.55 -70.237,-120.248 0,-27.752 8.203,-54.503 23.721,-77.362 25.752,-37.981 68.48,-60.655 114.297,-60.655 76.103,0 138.017,61.914 138.017,138.017 C 138.017,-61.915 76.103,0 0,0 m 0,-285.459 c -48.946,0 -94.59,24.219 -122.097,64.788 -16.581,24.424 -25.346,53.006 -25.346,82.653 0,53.091 28.748,102.312 75.026,128.454 C -50.431,2.859 -25.389,9.426 0,9.426 81.3,9.426 147.443,-56.717 147.443,-138.018 147.443,-219.317 81.3,-285.459 0,-285.459"
             style="fill:#371a45;fill-opacity:1;fill-rule:nonzero;stroke:none"
             id="path72" /></g><g
           id="g74"
           transform="translate(415.0283,462.4873)"><path
             d="m 0,0 c -22.857,0 -45.922,4.282 -67.461,12.897 l 3.001,7.501 C -20.151,2.676 30.89,4.132 72.075,24.292 c 25.613,12.54 44.046,30.958 49.308,49.27 l 7.764,-2.23 C 123.267,50.861 103.259,30.563 75.627,17.036 52.481,5.705 26.379,0 0,0"
             style="fill:#371a45;fill-opacity:1;fill-rule:nonzero;stroke:none"
             id="path76" /></g><g
           id="g78"><g
             id="g80" /><g
             id="g92"><g
               clip-path="url(#clipPath84)"
               opacity="0.5"
               id="g90"><g
                 transform="translate(320.7568,604.9072)"
                 id="g88"><path
                   d="M 0,0 C 9.024,65.808 29.794,118.783 123.923,91.608 70.6,87.699 32.034,51.086 0,0"
                   style="fill:#f8f8f8;fill-opacity:1;fill-rule:nonzero;stroke:none"
                   id="path86" /></g></g></g></g><g
           id="g94"><g
             id="g96" /><g
             id="g108"><g
               clip-path="url(#clipPath100)"
               opacity="0.5"
               id="g106"><g
                 transform="translate(483.501,576.9717)"
                 id="g104"><path
                   d="m 0,0 c -4.706,-7.95 -12.095,-19.381 -21.51,-30.536 -3.054,-3.619 -2.752,-8.996 0.669,-12.271 3.417,-3.272 8.801,-3.352 12.289,-0.157 10.817,9.906 19.258,21.422 24.818,34.893 1.338,3.24 0.564,6.972 -1.854,9.51 L 14.247,1.613 C 10.133,5.931 3.038,5.132 0,0"
                   style="fill:#f8f8f8;fill-opacity:1;fill-rule:nonzero;stroke:none"
                   id="path102" /></g></g></g></g><g
           id="g110"><g
             id="g112" /><g
             id="g124"><g
               clip-path="url(#clipPath116)"
               opacity="0.5"
               id="g122"><g
                 transform="translate(438.1274,524.0151)"
                 id="g120"><path
                   d="m 0,0 c 0,-5 -5.425,-9.054 -12.118,-9.054 -6.694,0 -12.119,4.054 -12.119,9.054 0,5 5.425,9.054 12.119,9.054 C -5.425,9.054 0,5 0,0"
                   style="fill:#f8f8f8;fill-opacity:1;fill-rule:nonzero;stroke:none"
                   id="path118" /></g></g></g></g><g
           id="g126"
           transform="translate(594.8281,595.9761)"><path
             d="m 0,0 c 0,-23.797 -18.023,-43.088 -40.255,-43.088 -22.232,0 -40.256,19.291 -40.256,43.088 0,23.797 18.024,43.088 40.256,43.088 C -18.023,43.088 0,23.797 0,0"
             style="fill:#ffffff;fill-opacity:1;fill-rule:nonzero;stroke:none"
             id="path128" /></g><g
           id="g130"><g
             id="g132" /><g
             id="g144"><g
               clip-path="url(#clipPath136)"
               opacity="0.25"
               id="g142"><g
                 transform="translate(594.8252,595.9722)"
                 id="g140"><path
                   d="m 0,0 c 0,-23.792 -18.021,-43.088 -40.251,-43.088 -10.775,0 -20.547,4.533 -27.768,11.902 17.736,4.496 30.938,21.563 30.938,41.924 0,12.274 -4.793,23.345 -12.484,31.185 2.985,0.768 6.106,1.165 9.314,1.165 C -18.021,43.088 0,23.804 0,0"
                   style="fill:#371a45;fill-opacity:1;fill-rule:nonzero;stroke:none"
                   id="path138" /></g></g></g></g><g
           id="g146"
           transform="translate(554.5732,635.0244)"><path
             d="m 0,0 c -19.97,0 -36.216,-17.517 -36.216,-39.049 0,-21.531 16.246,-39.048 36.216,-39.048 19.969,0 36.215,17.517 36.215,39.048 C 36.215,-17.517 19.969,0 0,0 m 0,-86.176 c -24.425,0 -44.295,21.141 -44.295,47.127 0,25.986 19.87,47.128 44.295,47.128 24.424,0 44.294,-21.142 44.294,-47.128 0,-25.986 -19.87,-47.127 -44.294,-47.127"
             style="fill:#371a45;fill-opacity:1;fill-rule:nonzero;stroke:none"
             id="path148" /></g><g
           id="g150"
           transform="translate(557.7422,619.6396)"><path
             d="m 0,0 c -10.944,0 -19.848,-9.961 -19.848,-22.205 0,-12.243 8.904,-22.205 19.848,-22.205 10.945,0 19.849,9.962 19.849,22.205 C 19.849,-9.961 10.945,0 0,0 m 0,-51.841 c -15.041,0 -27.279,13.295 -27.279,29.636 0,16.342 12.238,29.636 27.279,29.636 15.043,0 27.28,-13.294 27.28,-29.636 0,-16.341 -12.237,-29.636 -27.28,-29.636"
             style="fill:#371a45;fill-opacity:1;fill-rule:nonzero;stroke:none"
             id="path152" /></g><g
           id="g154"
           transform="translate(635.8447,804.0786)"><path
             d="m 0,0 c -2.898,-109.137 -89.729,-154.355 -172.574,-146.243 h -0.05 c -79.214,7.765 -154.763,64.304 -149.735,160.362 0.78,14.9 10.255,28.003 24.163,33.402 70.744,27.471 267.32,13.612 295.025,-37.266 C -1.387,6.985 -0.31,3.567 0,0"
             style="fill:#ea2a2a;fill-opacity:1;fill-rule:nonzero;stroke:none"
             id="path156" /></g><g
           id="g158"><g
             id="g160" /><g
             id="g172"><g
               clip-path="url(#clipPath164)"
               opacity="0.600006"
               id="g170"><g
                 transform="translate(570.959,681.1567)"
                 id="g168"><path
                   d="m 0,0 c -96.294,-60.588 -264.904,-4.941 -257.473,137.041 0.767,14.652 9.932,27.557 23.47,33.118 -8.534,-6.663 -13.983,-16.807 -14.565,-27.953 C -255.776,4.508 -97.396,-51.98 0,0"
                   style="fill:#ffffff;fill-opacity:1;fill-rule:nonzero;stroke:none"
                   id="path166" /></g></g></g></g><g
           id="g174"
           transform="translate(313.2739,807.1182)"><path
             d="M 0,0 C 34.467,-65.822 269.718,-82.495 319.79,-28.465 L 312.458,-58.31 C 264.486,-100.08 75.227,-101.177 3.331,-30.376"
             style="fill:#ffffff;fill-opacity:1;fill-rule:nonzero;stroke:none"
             id="path176" /></g><g
           id="g178"
           transform="translate(610.7051,794.3618)"><path
             d="m 0,0 c 0,0 -2.699,11.348 -34.339,19.7 6.666,-8.332 11.677,-17.012 13.153,-26.432 z"
             style="fill:#c99335;fill-opacity:1;fill-rule:nonzero;stroke:none"
             id="path180" /></g><g
           id="g182"
           transform="translate(441.4126,861.5913)"><path
             d="m 0,0 c -41.252,0 -79.333,-4.49 -102.425,-13.454 -12.536,-4.866 -21.091,-16.692 -21.793,-30.129 -2.845,-54.369 20.714,-100.32 66.337,-129.39 52.876,-33.691 123.833,-37.496 176.568,-9.471 44.884,23.852 70.455,68.172 72.021,124.808 -0.861,8.923 -7.542,17.337 -19.865,25.012 C 135.895,-10.854 64.123,0 0,0 m 40.803,-208.4 c -3.734,0 -7.488,0.107 -11.265,0.321 -33.146,1.883 -64.756,11.855 -91.413,28.839 -47.979,30.571 -72.755,78.886 -69.765,136.046 0.856,16.352 11.268,30.745 26.526,36.668 29.781,11.56 83.931,16.53 141.322,12.968 59.792,-3.71 111.59,-15.955 138.565,-32.758 14.507,-9.037 22.365,-19.427 23.356,-30.88 0.013,-0.139 0.017,-0.28 0.013,-0.419 -1.581,-59.534 -28.559,-106.197 -75.968,-131.391 C 98.159,-201.769 70.226,-208.4 40.803,-208.4"
             style="fill:#371a45;fill-opacity:1;fill-rule:nonzero;stroke:none"
             id="path184" /></g><g
           id="g186"
           transform="translate(453.8584,848.8418)"><path
             d="M 0,0 3.813,34.522 40.935,26.948 33.912,-8.061 50.023,17.018 81.667,8.028 65.846,-19.741"
             style="fill:#73c61a;fill-opacity:1;fill-rule:nonzero;stroke:none"
             id="path188" /></g><g
           id="g190"><g
             id="g192" /><g
             id="g204"><g
               clip-path="url(#clipPath196)"
               opacity="0.600006"
               id="g202"><g
                 transform="translate(492.2852,868.4067)"
                 id="g200"><path
                   d="m 0,0 -35.645,7.283 -2.997,-27.099 -0.817,0.248 3.814,34.529 37.119,-7.579 z"
                   style="fill:#ffffff;fill-opacity:1;fill-rule:nonzero;stroke:none"
                   id="path198" /></g></g></g></g><g
           id="g206"><g
             id="g208" /><g
             id="g220"><g
               clip-path="url(#clipPath212)"
               opacity="0.600006"
               id="g218"><g
                 transform="translate(534.4932,856.8765)"
                 id="g216"><path
                   d="m 0,0 -3.765,-6.626 -27.879,7.926 -13.103,-20.41 -1.957,0.594 1.189,5.895 13.871,21.6 z"
                   style="fill:#ffffff;fill-opacity:1;fill-rule:nonzero;stroke:none"
                   id="path214" /></g></g></g></g><g
           id="g222"
           transform="translate(519.7002,826.0034)"><path
             d="M 0,0 C -0.519,0 -1.046,0.131 -1.529,0.406 -3.015,1.253 -3.533,3.144 -2.687,4.63 L 11.18,28.968 -14.454,36.25 -29.325,13.104 c -0.804,-1.253 -2.384,-1.755 -3.766,-1.197 -1.38,0.558 -2.167,2.02 -1.875,3.479 l 6.416,31.985 -30.773,6.278 -3.441,-31.15 c -0.188,-1.7 -1.719,-2.923 -3.418,-2.738 -1.7,0.188 -2.925,1.718 -2.737,3.417 l 3.813,34.523 c 0.096,0.865 0.551,1.65 1.254,2.162 0.703,0.512 1.59,0.705 2.443,0.532 l 37.121,-7.574 c 1.672,-0.341 2.752,-1.97 2.417,-3.643 l -3.796,-18.925 7.244,11.277 c 0.737,1.148 2.142,1.679 3.451,1.305 l 31.643,-8.99 c 0.915,-0.26 1.66,-0.926 2.02,-1.806 0.361,-0.881 0.295,-1.878 -0.175,-2.705 L 2.694,1.564 C 2.123,0.562 1.077,0 0,0"
             style="fill:#371a45;fill-opacity:1;fill-rule:nonzero;stroke:none"
             id="path224" /></g><g
           id="g226"
           transform="translate(464.6719,823.0874)"><path
             d="M 0,0 C -30.803,-12.603 -61.57,-25.069 -81.02,5.373 -84.507,35.414 -81.168,58.52 -62.68,63.959 -43.829,68.753 -9.035,40.625 0,0"
             style="fill:#ffffff;fill-opacity:1;fill-rule:nonzero;stroke:none"
             id="path228" /></g><g
           id="g230"
           transform="translate(639.0303,951.0298)"><path
             d="m 0,0 v 0 c 6.23,-3.916 8.101,-12.144 4.177,-18.368 l -94.554,-149.983 -9.425,6.073 80.884,157.102 C -15.347,1.759 -6.604,4.152 0,0"
             style="fill:#fbb987;fill-opacity:1;fill-rule:nonzero;stroke:none"
             id="path232" /></g><g
           id="g234"><g
             id="g236" /><g
             id="g248"><g
               clip-path="url(#clipPath240)"
               opacity="0.600006"
               id="g246"><g
                 transform="translate(642.0254,948.4517)"
                 id="g244"><path
                   d="m 0,0 c -5.673,1.189 -11.717,-1.461 -14.54,-6.936 l -80.888,-157.105 2.242,-1.436 -0.185,-0.297 -9.426,6.068 80.888,157.105 c 3.566,6.936 12.31,9.326 18.911,5.177 C -1.846,1.858 -0.843,0.979 0,0"
                   style="fill:#ffffff;fill-opacity:1;fill-rule:nonzero;stroke:none"
                   id="path242" /></g></g></g></g><g
           id="g250"
           transform="translate(543.2676,789.832)"><path
             d="M 0,0 4.435,-2.857 97.32,144.48 c 1.457,2.311 1.926,5.05 1.32,7.713 -0.606,2.663 -2.212,4.93 -4.525,6.383 -2.452,1.542 -5.338,1.967 -8.132,1.205 -2.792,-0.764 -5.06,-2.603 -6.385,-5.177 z m 4.624,-9.305 c -1.052,0 -2.083,0.302 -2.989,0.885 l -7.351,4.736 c -1.341,0.864 -1.805,2.603 -1.076,4.021 l 80.884,157.102 c 2.097,4.075 5.837,7.105 10.258,8.315 4.421,1.207 9.18,0.503 13.061,-1.935 3.714,-2.334 6.295,-5.976 7.268,-10.253 0.972,-4.277 0.219,-8.677 -2.12,-12.388 L 9.321,-6.717 C 8.526,-7.979 7.287,-8.85 5.833,-9.171 5.431,-9.261 5.025,-9.305 4.624,-9.305"
             style="fill:#371a45;fill-opacity:1;fill-rule:nonzero;stroke:none"
             id="path252" /></g><g
           id="g254"
           transform="translate(624.248,907.4609)"><path
             d="m 0,0 c -9.807,0 -16.379,8.692 -18.775,14.258 -0.676,1.57 0.048,3.392 1.62,4.069 1.567,0.675 3.386,-0.048 4.065,-1.614 C -12.834,16.126 -6.796,2.672 4.627,7.136 6.221,7.754 8.016,6.969 8.637,5.378 9.259,3.785 8.472,1.989 6.879,1.367 4.437,0.415 2.141,0 0,0"
             style="fill:#371a45;fill-opacity:1;fill-rule:nonzero;stroke:none"
             id="path256" /></g><g
           id="g258"
           transform="translate(615.7764,893.915)"><path
             d="m 0,0 c -3.579,0 -6.765,0.899 -9.519,2.693 -6.49,4.228 -7.924,11.881 -7.983,12.204 -0.301,1.684 0.819,3.292 2.503,3.594 1.682,0.302 3.283,-0.813 3.591,-2.49 0.026,-0.137 1.102,-5.436 5.311,-8.147 C -3.351,6.087 0.27,5.733 4.663,6.803 6.325,7.212 8,6.188 8.404,4.528 8.81,2.867 7.79,1.191 6.129,0.787 3.977,0.262 1.931,0 0,0"
             style="fill:#371a45;fill-opacity:1;fill-rule:nonzero;stroke:none"
             id="path260" /></g><g
           id="g262"
           transform="translate(505.5283,831.8613)"><path
             d="m 0,0 c 6.77,12.35 -4.044,20.031 -13.007,13.275 -3.03,10.688 -13.213,9.51 -18.178,1.179 -5.891,5.89 -13.886,1.851 -14.82,-7.07 0,0 -0.598,-24.237 0,-24.91 0.597,-0.673 11.506,-18.084 19.854,-15.774 8.347,2.309 24.169,16.784 25.851,18.299"
             style="fill:#ffffff;fill-opacity:1;fill-rule:nonzero;stroke:none"
             id="path264" /></g><g
           id="g266"
           transform="translate(470.4741,814.166)"><path
             d="m 0,0 c -0.942,0 -1.856,0.496 -2.351,1.375 -2.869,5.113 -1.592,13.085 0.372,18.359 0.356,0.956 0.962,2.36 2.1,3.495 1.512,1.508 3.484,2.094 4.925,2.521 2.289,0.681 5.752,1.71 9.025,0.445 1.438,-0.555 2.798,-1.547 4.043,-2.948 1.804,-2.031 3.012,-4.45 3.494,-6.995 C 22.125,13.523 21.772,10.691 20.616,8.28 19.724,6.423 18.431,5.109 16.878,4.479 15.306,3.842 13.709,4 12.646,4.17 10.147,4.577 8.276,5.556 7.085,7.081 c -2.024,2.592 -1.632,6.598 0.853,8.75 1.124,0.974 2.824,0.851 3.798,-0.274 0.974,-1.124 0.851,-2.825 -0.274,-3.798 -0.326,-0.283 -0.398,-1.022 -0.132,-1.363 0.32,-0.409 1.094,-0.733 2.181,-0.909 0.817,-0.132 1.182,-0.082 1.342,-0.017 0.216,0.088 0.567,0.433 0.907,1.141 0.663,1.382 0.861,3.03 0.556,4.639 -0.3,1.589 -1.071,3.117 -2.228,4.418 -0.67,0.754 -1.329,1.26 -1.958,1.503 C 10.689,21.727 8.763,21.237 6.58,20.587 5.591,20.294 4.472,19.961 3.925,19.416 3.534,19.024 3.249,18.337 3.068,17.854 1.385,13.334 0.596,7.129 2.346,4.012 3.074,2.715 2.613,1.073 1.316,0.345 0.899,0.111 0.446,0 0,0"
             style="fill:#f244a8;fill-opacity:1;fill-rule:nonzero;stroke:none"
             id="path268" /></g><g
           id="g270"
           transform="translate(393.0229,855.3408)"><path
             d="m 0,0 c 0,0 -2.7,-25.997 -3.146,-26.876 -0.235,-0.471 -3.084,-1.994 -5.697,-3.307 -2.291,-1.164 -4.397,-2.154 -4.397,-2.154 l -18.417,1.473 c -11.134,-5.734 -13.053,6.762 -9.065,11.58 0.123,0.174 0.272,0.347 0.433,0.496 -0.582,-0.161 -1.127,-0.273 -1.635,-0.335 -0.991,-0.111 -1.87,-0.062 -2.662,0.149 -7.753,1.994 -6.044,17.983 1.102,17.686 -5.487,8.545 1.176,14.664 8.409,12.793 -1.35,6.974 5.735,12.287 12.794,8.918 0.706,8.979 13.636,10.948 17.76,0.755 z"
             style="fill:#ffffff;fill-opacity:1;fill-rule:nonzero;stroke:none"
             id="path272" /></g><g
           id="g274"
           transform="translate(370.6182,835.0488)"><path
             d="m 0,0 c -1.62,0 -3.248,0.272 -4.774,0.886 -2.678,1.078 -7.169,4.152 -7.169,12.617 0,5.939 1.893,10.412 5.627,13.294 7.163,5.525 18.337,2.682 18.809,2.559 1.439,-0.377 2.299,-1.849 1.922,-3.288 -0.376,-1.436 -1.845,-2.298 -3.283,-1.923 -0.09,0.022 -9.117,2.292 -14.169,-1.622 -2.369,-1.835 -3.521,-4.786 -3.521,-9.02 0,-4.042 1.277,-6.607 3.796,-7.621 3.006,-1.21 7.41,0.009 9.196,1.865 1.419,1.475 1.796,4.163 0.792,5.639 -1.179,1.73 -4.066,0.875 -5.681,0.211 -1.378,-0.562 -2.949,0.091 -3.515,1.466 -0.566,1.376 0.091,2.949 1.466,3.516 C 7.264,21.771 10.784,17.73 11.678,16.417 14.092,12.869 13.481,7.305 10.316,4.013 8.119,1.728 4.087,0 0,0"
             style="fill:#f244a8;fill-opacity:1;fill-rule:nonzero;stroke:none"
             id="path276" /></g><g
           id="g278"
           transform="translate(408.2124,790.7983)"><path
             d="m 0,0 c 0.714,2.478 1.091,5.076 1.091,7.756 0,16.521 -14.327,29.906 -31.98,29.906 C -44.26,37.662 -55.705,30 -60.472,19.107 -42.897,10.156 -22.675,3.852 0,0"
             style="fill:#ffb839;fill-opacity:1;fill-rule:nonzero;stroke:none"
             id="path280" /></g><g
           id="g282"><g
             id="g284" /><g
             id="g296"><g
               clip-path="url(#clipPath288)"
               opacity="0.600006"
               id="g294"><g
                 transform="translate(363.7754,826.9458)"
                 id="g292"><path
                   d="m 0,0 c 0,0 -3.1,-9.388 4.411,-13.957 l 6.581,-12.462 c 0,0 7.12,-2.536 7.662,-1.966 0.543,0.57 4.759,8.993 -2.226,15.541 0,0 2.911,10.539 -3.43,14.349"
                   style="fill:#ffffff;fill-opacity:1;fill-rule:nonzero;stroke:none"
                   id="path290" /></g></g></g></g><g
           id="g298"
           transform="translate(439.2544,850.9956)"><path
             d="m 0,0 c 6.015,-11.321 5.918,-23.142 -0.217,-26.401 -6.136,-3.26 -15.985,3.276 -22,14.597 C -28.232,-0.483 -28.135,11.337 -22,14.597 -15.865,17.856 -6.015,11.321 0,0"
             style="fill:#ffa64d;fill-opacity:1;fill-rule:nonzero;stroke:none"
             id="path300" /></g><g
           id="g302"
           transform="translate(351.9067,811.291)"><path
             d="m 0,0 c 15.646,-7.594 33.765,-13.282 53.947,-16.936 0.235,1.383 0.353,2.787 0.353,4.199 C 54.3,2.046 41.343,14.072 25.417,14.072 14.662,14.072 4.994,8.635 0,0 m 56.308,-23.589 c -0.172,0 -0.346,0.014 -0.52,0.044 -23.167,3.935 -43.811,10.462 -61.359,19.4 -1.461,0.744 -2.089,2.499 -1.432,4 5.426,12.399 18.151,20.41 32.42,20.41 19.341,0 35.076,-14.805 35.076,-33.002 0,-2.923 -0.408,-5.821 -1.212,-8.613 -0.387,-1.343 -1.615,-2.239 -2.973,-2.239"
             style="fill:#371a45;fill-opacity:1;fill-rule:nonzero;stroke:none"
             id="path304" /></g><g
           id="g306"
           transform="translate(393.4146,791.3364)"><path
             d="m 0,0 c -0.266,0 -0.537,0.043 -0.802,0.134 -1.295,0.443 -1.985,1.851 -1.541,3.146 0.429,1.255 0.647,2.579 0.647,3.938 0,7.336 -6.458,13.304 -14.395,13.304 -6.172,0 -11.65,-3.623 -13.631,-9.015 -0.472,-1.285 -1.898,-1.942 -3.179,-1.471 -1.285,0.471 -1.943,1.895 -1.471,3.179 2.694,7.334 10.041,12.261 18.281,12.261 10.669,0 19.349,-8.19 19.349,-18.258 C 3.258,5.313 2.95,3.448 2.343,1.676 1.991,0.647 1.03,0 0,0"
             style="fill:#371a45;fill-opacity:1;fill-rule:nonzero;stroke:none"
             id="path308" /></g><g
           id="g310"
           transform="translate(481.4761,782.9883)"><path
             d="m 0,0 c 0.35,2.127 0.525,4.322 0.525,6.544 0,23.052 -19.133,41.742 -42.752,41.742 -22.392,0 -40.745,-16.791 -42.603,-38.174 C -56.536,3.042 -28.259,-0.36 0,0"
             style="fill:#ffb839;fill-opacity:1;fill-rule:nonzero;stroke:none"
             id="path312" /></g><g
           id="g314"><g
             id="g316" /><g
             id="g328"><g
               clip-path="url(#clipPath320)"
               opacity="0.600006"
               id="g326"><g
                 transform="translate(420.7983,825.604)"
                 id="g324"><path
                   d="m 0,0 c 0,0 -3.767,-8.906 6.605,-16.374 0,0 -5.263,-4.385 4.025,-10.88 0,0 3.012,-5.566 5.574,-8.818 2.562,-3.251 8.205,1.028 3.251,9.029 l -1.004,3.666 c 0,0 3.326,4.645 -4.105,9.908 0,0 7.548,11.866 -3.967,18.396"
                   style="fill:#ffffff;fill-opacity:1;fill-rule:nonzero;stroke:none"
                   id="path322" /></g></g></g></g><g
           id="g330"
           transform="translate(400.7583,795.9185)"><path
             d="m 0,0 c 25.822,-6.192 51.834,-9.284 77.42,-9.24 0.072,0.942 0.107,1.895 0.107,2.854 0,20.968 -17.511,38.026 -39.036,38.026 C 19.464,31.64 3.149,17.979 0,0 m 80.718,-12.93 h 0.012 z m -3.992,-3.741 c -27.031,0 -54.508,3.444 -81.739,10.248 -1.771,0.443 -2.959,2.108 -2.8,3.927 2.024,23.308 22.364,41.567 46.304,41.567 25.623,0 46.467,-20.391 46.467,-45.457 0,-2.427 -0.192,-4.832 -0.574,-7.147 -0.292,-1.778 -1.818,-3.09 -3.619,-3.112 -1.345,-0.018 -2.692,-0.026 -4.039,-0.026"
             style="fill:#371a45;fill-opacity:1;fill-rule:nonzero;stroke:none"
             id="path332" /></g><g
           id="g334"
           transform="translate(462.6274,781.0361)"><path
             d="m 0,0 c -0.247,0 -0.497,0.029 -0.747,0.091 -1.66,0.412 -2.672,2.091 -2.261,3.751 0.369,1.487 0.556,3.053 0.556,4.655 0,11.226 -9.387,20.359 -20.926,20.359 -11.503,0 -20.89,-9.107 -20.925,-20.302 -0.006,-1.71 -1.423,-3.049 -3.106,-3.087 -1.71,0.006 -3.092,1.396 -3.087,3.106 0.046,14.599 12.211,26.476 27.118,26.476 C -8.424,35.049 3.741,23.137 3.741,8.497 3.741,6.393 3.493,4.326 3.003,2.352 2.654,0.942 1.39,0 0,0"
             style="fill:#371a45;fill-opacity:1;fill-rule:nonzero;stroke:none"
             id="path336" /></g><g
           id="g338"
           transform="translate(449.6025,782.1401)"><path
             d="m 0,0 c -0.415,0 -0.837,0.084 -1.241,0.261 -1.567,0.687 -2.28,2.514 -1.592,4.079 0.425,0.971 0.641,1.998 0.641,3.053 0,4.358 -3.661,7.904 -8.161,7.904 -4.5,0 -8.16,-3.546 -8.16,-7.904 0,-0.447 0.037,-0.873 0.114,-1.304 0.299,-1.684 -0.824,-3.291 -2.507,-3.59 -1.688,-0.296 -3.292,0.824 -3.591,2.506 -0.141,0.793 -0.209,1.574 -0.209,2.388 0,7.773 6.439,14.097 14.353,14.097 C -2.438,21.49 4,15.166 4,7.393 4,5.477 3.609,3.613 2.838,1.854 2.329,0.692 1.192,0 0,0"
             style="fill:#371a45;fill-opacity:1;fill-rule:nonzero;stroke:none"
             id="path340" /></g><g
           id="g342"
           transform="translate(515.2119,778.4536)"><path
             d="m 0,0 c -52.056,-0.001 -111.576,5.996 -147.01,18.694 -27.589,9.887 -41.088,19.703 -41.271,30.01 -0.179,10.128 12.554,15.322 13.096,15.539 1.905,0.761 4.067,-0.169 4.828,-2.075 0.758,-1.903 -0.167,-4.062 -2.067,-4.825 -2.214,-0.896 -8.511,-4.384 -8.427,-8.518 0.063,-3.062 3.729,-11.446 36.348,-23.136 C -77.428,1.653 67.88,3.592 93.575,19.09 c 5.061,3.053 7.796,6.109 7.908,8.836 0.142,3.43 -3.892,6.87 -6.308,8.615 -1.664,1.201 -2.039,3.523 -0.839,5.187 1.202,1.665 3.523,2.039 5.187,0.838 6.445,-4.652 9.602,-9.681 9.384,-14.946 C 108.685,22.203 104.816,17.193 97.412,12.727 83.591,4.39 44.522,0.001 0,0"
             style="fill:#371a45;fill-opacity:1;fill-rule:nonzero;stroke:none"
             id="path344" /></g><g
           id="g346"
           transform="translate(469.7349,783.6348)"><path
             d="m 0,0 c 2.451,29.623 28.102,52.918 59.394,52.918 29.96,0 54.763,-21.369 58.951,-49.188 C 80.532,-2.053 41.027,-3.14 0,0"
             style="fill:#ffb839;fill-opacity:1;fill-rule:nonzero;stroke:none"
             id="path348" /></g><g
           id="g350"><g
             id="g352" /><g
             id="g364"><g
               clip-path="url(#clipPath356)"
               opacity="0.600006"
               id="g362"><g
                 transform="translate(504.1758,831.2744)"
                 id="g360"><path
                   d="m 0,0 c 0,0 -7.622,-12.73 5.176,-16.941 0,0 -2.89,-8.559 7.637,-15.983 0,0 -3.508,-11.585 6.4,-15.388 9.907,-3.802 8.789,-0.742 8.789,-0.742 l -4.894,17.36 c 0,0 4.245,10.667 -3.541,18.448 0,0 3.751,13.191 -3.978,17.814"
                   style="fill:#ffffff;fill-opacity:1;fill-rule:nonzero;stroke:none"
                   id="path358" /></g></g></g></g><g
           id="g366"
           transform="translate(473.8833,787.0562)"><path
             d="M 0,0 C 38.458,-2.695 75.367,-1.545 109.834,3.417 104.328,27.814 81.511,45.781 55.246,45.781 27.623,45.781 4.073,25.956 0,0 m 39.882,-8.849 c -14.516,0 -29.3,0.574 -44.314,1.723 -0.986,0.075 -1.902,0.541 -2.545,1.294 -0.641,0.753 -0.956,1.731 -0.875,2.717 2.614,31.585 30.33,56.327 63.098,56.327 31.21,0 58.131,-22.506 62.625,-52.351 0.304,-2.025 -1.088,-3.916 -3.114,-4.225 C 90.873,-7.018 65.813,-8.849 39.882,-8.849"
             style="fill:#371a45;fill-opacity:1;fill-rule:nonzero;stroke:none"
             id="path368" /></g><g
           id="g370"
           transform="translate(488.5493,779.582)"><path
             d="M 0,0 C -0.099,0 -0.198,0.004 -0.298,0.014 -2,0.177 -3.249,1.688 -3.086,3.391 -0.991,25.338 17.782,41.889 40.58,41.889 62.199,41.889 80.853,26.296 83.97,5.618 84.225,3.927 83.06,2.35 81.37,2.095 79.675,1.835 78.102,3.004 77.846,4.695 75.182,22.369 59.161,35.696 40.58,35.696 20.991,35.696 4.869,21.555 3.079,2.802 2.926,1.2 1.577,0 0,0"
             style="fill:#371a45;fill-opacity:1;fill-rule:nonzero;stroke:none"
             id="path372" /></g><g
           id="g374"
           transform="translate(507.9932,779.124)"><path
             d="M 0,0 C -0.166,0 -0.334,0.013 -0.503,0.041 -2.191,0.317 -3.335,1.908 -3.06,3.596 -1.161,15.205 9.014,23.631 21.136,23.631 32.685,23.631 42.774,15.67 45.129,4.702 45.487,3.031 44.423,1.384 42.751,1.025 41.076,0.665 39.433,1.731 39.074,3.403 37.328,11.536 29.784,17.438 21.136,17.438 12.063,17.438 4.458,11.197 3.052,2.597 2.804,1.079 1.49,0 0,0"
             style="fill:#371a45;fill-opacity:1;fill-rule:nonzero;stroke:none"
             id="path376" /></g><g
           id="g378"
           transform="translate(464.6733,819.9946)"><path
             d="m 0,0 c -1.418,0 -2.698,0.981 -3.02,2.424 -6.245,28.049 -24.414,47.811 -38.074,56.211 -7.947,4.887 -15.342,6.811 -20.82,5.416 -14.566,-4.289 -19.848,-22.364 -16.035,-55.229 0.197,-1.699 -1.02,-3.236 -2.719,-3.432 -1.709,-0.191 -3.236,1.02 -3.433,2.718 -4.217,36.351 2.505,56.603 20.55,61.914 7.225,1.842 16.316,-0.341 25.7,-6.112 C -23.161,54.877 -3.641,33.707 3.026,3.77 3.397,2.101 2.345,0.446 0.676,0.074 0.45,0.024 0.223,0 0,0"
             style="fill:#371a45;fill-opacity:1;fill-rule:nonzero;stroke:none"
             id="path380" /></g><g
           id="g382"
           transform="translate(356.2534,819.9155)"><path
             d="m 0,0 c -4.051,0 -6.247,2.475 -6.981,3.502 -1.935,2.704 -2.431,6.54 -1.624,9.941 -2.283,0.596 -3.783,1.948 -4.638,2.974 -3.495,4.198 -3.353,11.224 -1.197,15.591 0.859,1.74 2.01,3.086 3.361,3.977 -1.308,3.655 -0.951,7.175 1.098,10.012 1.932,2.675 5.067,4.22 8.539,4.361 0.417,2.814 1.881,5.35 4.231,7.17 2.678,2.076 6.116,2.851 9.519,2.251 1.503,3.491 4.694,6.002 8.723,6.623 4.962,0.771 11.244,-1.61 14.087,-8.64 0.641,-1.585 -0.124,-3.39 -1.71,-4.032 -1.585,-0.641 -3.39,0.125 -4.031,1.711 -1.68,4.157 -5.04,5.208 -7.402,4.841 -1.972,-0.304 -4.162,-1.691 -4.396,-4.67 -0.08,-1.016 -0.654,-1.928 -1.537,-2.439 -0.884,-0.51 -1.961,-0.552 -2.881,-0.114 C 10.822,54.173 8.362,54.013 6.583,52.633 5.016,51.42 4.345,49.558 4.74,47.525 4.943,46.482 4.597,45.409 3.824,44.68 3.051,43.952 1.958,43.67 0.93,43.935 c -2.404,0.619 -4.769,-0.012 -5.891,-1.564 -1.131,-1.566 -0.821,-3.955 0.85,-6.555 0.625,-0.972 0.656,-2.21 0.083,-3.213 -0.575,-1.003 -1.668,-1.616 -2.814,-1.555 -0.953,0.04 -1.634,-0.947 -2.046,-1.782 -1.362,-2.76 -1.17,-6.996 0.404,-8.886 0.559,-0.672 1.598,-1.478 4.122,-0.765 1.366,0.39 2.821,-0.203 3.529,-1.435 0.709,-1.232 0.487,-2.788 -0.536,-3.773 C -2.942,12.893 -3.253,8.934 -1.944,7.104 -0.78,5.477 1.766,6.321 3.697,7.315 5.219,8.097 7.084,7.5 7.868,5.979 8.649,4.458 8.051,2.591 6.531,1.809 3.964,0.488 1.799,0 0,0"
             style="fill:#371a45;fill-opacity:1;fill-rule:nonzero;stroke:none"
             id="path384" /></g><g
           id="g386"
           transform="translate(505.5254,828.7646)"><path
             d="m 0,0 c -0.504,0 -1.014,0.123 -1.485,0.381 -1.5,0.823 -2.049,2.705 -1.228,4.204 2.305,4.204 2.319,8.04 0.038,10.014 -1.745,1.511 -5.041,1.881 -8.465,-0.7 -0.816,-0.615 -1.883,-0.787 -2.851,-0.462 -0.968,0.326 -1.713,1.108 -1.992,2.091 -0.912,3.217 -2.611,5.145 -4.784,5.43 -2.647,0.351 -5.768,-1.658 -7.755,-4.993 -0.489,-0.82 -1.33,-1.369 -2.277,-1.487 -0.95,-0.119 -1.897,0.207 -2.572,0.882 -1.66,1.661 -3.524,2.237 -5.255,1.623 -2.295,-0.813 -3.941,-3.428 -4.297,-6.825 -0.178,-1.701 -1.701,-2.937 -3.402,-2.757 -1.701,0.178 -2.935,1.702 -2.757,3.402 0.607,5.794 3.821,10.399 8.388,12.017 2.934,1.039 6.077,0.689 8.865,-0.899 3.263,3.747 7.669,5.729 11.869,5.177 3.609,-0.474 6.579,-2.701 8.493,-6.264 4.532,1.953 9.374,1.45 12.844,-1.552 C 4.994,16.153 7.245,9.868 2.718,1.608 2.154,0.581 1.094,0 0,0"
             style="fill:#371a45;fill-opacity:1;fill-rule:nonzero;stroke:none"
             id="path388" /></g><g
           id="g390"
           transform="translate(601.9941,840.2393)"><path
             d="m 0,0 128.433,97.308 c 5.942,4.503 14.371,3.556 19.167,-2.152 h 0.001 c 5.505,-6.554 3.89,-16.473 -3.412,-20.941 L 6.749,-9.892 C 4.157,-11.479 0.787,-10.874 -1.092,-8.485 -3.165,-5.849 -2.673,-2.025 0,0"
             style="fill:#fbb987;fill-opacity:1;fill-rule:nonzero;stroke:none"
             id="path392" /></g><g
           id="g394"><g
             id="g396" /><g
             id="g408"><g
               clip-path="url(#clipPath400)"
               opacity="0.600006"
               id="g406"><g
                 transform="translate(752.2773,930.4189)"
                 id="g404"><path
                   d="m 0,0 c -4.905,4.458 -12.397,4.892 -17.822,0.78 l -128.434,-97.309 c -1.362,-1.028 -2.167,-2.539 -2.341,-4.1 -1.065,0.359 -2.044,1.028 -2.774,1.969 -0.867,1.091 -1.288,2.403 -1.288,3.691 0,1.821 0.817,3.604 2.378,4.793 L -21.848,7.134 C -15.902,11.63 -7.48,10.688 -2.688,4.979 -1.412,3.468 -0.521,1.771 0,0"
                   style="fill:#ffffff;fill-opacity:1;fill-rule:nonzero;stroke:none"
                   id="path402" /></g></g></g></g><g
           id="g410"
           transform="translate(601.9941,840.2388)"><path
             d="m 0,0 h 0.012 z m 136.881,97.056 c -2.298,0 -4.611,-0.725 -6.578,-2.216 L 1.869,-2.468 C 1.244,-2.941 0.845,-3.63 0.745,-4.407 0.645,-5.186 0.857,-5.954 1.342,-6.57 2.249,-7.724 3.879,-8.018 5.133,-7.25 l 137.441,84.106 c 2.71,1.659 4.557,4.409 5.069,7.545 0.509,3.137 -0.37,6.331 -2.414,8.763 -2.151,2.561 -5.235,3.892 -8.348,3.892 M 3.626,-13.87 c -2.707,0 -5.372,1.207 -7.152,3.472 -1.52,1.934 -2.185,4.342 -1.87,6.781 0.313,2.439 1.566,4.6 3.526,6.085 l 128.433,97.308 c 7.262,5.503 17.545,4.351 23.408,-2.629 3.205,-3.814 4.584,-8.823 3.783,-13.741 -0.801,-4.918 -3.697,-9.231 -7.947,-11.832 L 8.365,-12.533 C 6.892,-13.435 5.251,-13.87 3.626,-13.87"
             style="fill:#371a45;fill-opacity:1;fill-rule:nonzero;stroke:none"
             id="path412" /></g><g
           id="g414"
           transform="translate(727.834,900.127)"><path
             d="m 0,0 c -0.073,0 -0.146,0.002 -0.221,0.008 -5.381,0.38 -9.675,2.438 -12.768,6.116 -6.034,7.177 -5.013,17.922 -4.967,18.376 0.175,1.701 1.69,2.949 3.395,2.766 1.7,-0.174 2.937,-1.691 2.766,-3.391 -0.018,-0.181 -0.761,-8.669 3.563,-13.786 C -6.233,7.723 -3.47,6.445 0.216,6.185 1.922,6.064 3.207,4.583 3.086,2.878 2.97,1.247 1.61,0 0,0"
             style="fill:#371a45;fill-opacity:1;fill-rule:nonzero;stroke:none"
             id="path416" /></g><g
           id="g418"
           transform="translate(710.1943,890.3037)"><path
             d="m 0,0 c -0.336,0 -0.679,0.055 -1.014,0.171 -14.166,4.905 -14.845,17.72 -13.225,23.81 0.439,1.653 2.132,2.635 3.788,2.197 1.648,-0.439 2.631,-2.127 2.2,-3.776 C -8.569,21.157 -10.991,10.18 1.013,6.022 2.629,5.463 3.484,3.7 2.926,2.084 2.482,0.803 1.283,0 0,0"
             style="fill:#371a45;fill-opacity:1;fill-rule:nonzero;stroke:none"
             id="path420" /></g><g
           id="g422"
           transform="translate(610.7031,791.2651)"><path
             d="m 0,0 c -1.369,0 -2.614,0.915 -2.985,2.285 -0.135,0.38 -3.871,10.055 -32.143,17.519 -1.653,0.436 -2.64,2.13 -2.202,3.783 0.435,1.653 2.126,2.643 3.783,2.204 C -1.052,17.213 2.694,5.16 3.015,3.813 3.41,2.15 2.383,0.48 0.719,0.085 0.479,0.027 0.237,0 0,0"
             style="fill:#371a45;fill-opacity:1;fill-rule:nonzero;stroke:none"
             id="path424" /></g><g
           id="g426"
           transform="translate(553.8799,935.6084)"><path
             d="m 0,0 c -0.829,-10.403 -9.734,-16.782 -23.123,-20.931 -2.093,-0.644 -4.21,1.016 -4.087,3.196 0.273,4.594 0.979,8.657 2.106,12.174 1.784,5.574 4.644,9.809 8.508,12.608 1.153,0.842 2.403,1.548 3.741,2.13 C -6.378,12.014 0.558,7.047 0,0"
             style="fill:#c99335;fill-opacity:1;fill-rule:nonzero;stroke:none"
             id="path428" /></g><g
           id="g430"
           transform="translate(555.1553,899.1953)"><path
             d="m 0,0 c -2.852,3.777 -8.279,4.326 -15.606,2.494 -2.34,-0.585 -3.774,-3.006 -3.092,-5.32 2.146,-7.292 6.532,-11.842 12.642,-10.833 C 0.365,-12.599 3.921,-5.193 0,0"
             style="fill:#c99335;fill-opacity:1;fill-rule:nonzero;stroke:none"
             id="path432" /></g><g
           id="g434"><g
             id="g436" /><g
             id="g448"><g
               clip-path="url(#clipPath440)"
               opacity="0.600006"
               id="g446"><g
                 transform="translate(548.7773,897.6309)"
                 id="g444"><path
                   d="m 0,0 c 0,-1.731 -2.01,-3.135 -4.489,-3.135 -2.48,0 -4.49,1.404 -4.49,3.135 0,1.731 2.01,3.135 4.49,3.135 C -2.01,3.135 0,1.731 0,0"
                   style="fill:#ffffff;fill-opacity:1;fill-rule:nonzero;stroke:none"
                   id="path442" /></g></g></g></g><g
           id="g450"
           transform="translate(544.8369,942.5034)"><path
             d="m 0,0 c -0.854,0 -1.727,-0.183 -2.575,-0.554 -7.54,-3.29 -11.745,-11.451 -12.498,-24.257 l 0.988,-3.012 -0.914,2.958 c 13.457,4.159 20.312,10.118 20.957,18.214 0.18,2.254 -0.733,4.27 -2.505,5.533 C 2.413,-0.376 1.224,0 0,0 m -15.002,-31.058 c -1.381,0 -2.746,0.46 -3.865,1.338 -1.614,1.265 -2.507,3.237 -2.388,5.273 1.122,19.085 9.431,26.614 16.203,29.57 4.05,1.765 8.573,1.317 12.101,-1.199 3.533,-2.52 5.433,-6.656 5.082,-11.067 -0.869,-10.912 -9.145,-18.644 -25.301,-23.639 h -10e-4 c -0.6,-0.185 -1.218,-0.276 -1.831,-0.276"
             style="fill:#371a45;fill-opacity:1;fill-rule:nonzero;stroke:none"
             id="path452" /></g><g
           id="g454"
           transform="translate(546.7021,899.6094)"><path
             d="M 0,0 C -1.802,0 -3.938,-0.307 -6.402,-0.923 -6.84,-1.033 -7.067,-1.334 -7.165,-1.504 -7.274,-1.696 -7.383,-2 -7.275,-2.365 c 1.066,-3.622 3.671,-9.57 9.169,-8.653 2.112,0.349 3.915,1.793 4.704,3.77 C 7.003,-6.234 7.462,-4.24 5.982,-2.28 4.835,-0.761 2.832,0 0,0 m 0.721,-17.311 c -6.341,-0.001 -11.46,4.781 -13.937,13.196 -0.564,1.918 -0.325,3.937 0.676,5.686 0.999,1.746 2.689,3.026 4.637,3.513 8.976,2.246 15.312,1.021 18.827,-3.633 2.383,-3.155 2.915,-7.265 1.425,-10.997 -1.59,-3.976 -5.209,-6.882 -9.446,-7.582 -0.742,-0.122 -1.47,-0.183 -2.182,-0.183"
             style="fill:#371a45;fill-opacity:1;fill-rule:nonzero;stroke:none"
             id="path456" /></g><g
           id="g458"><g
             id="g460" /><g
             id="g472"><g
               clip-path="url(#clipPath464)"
               opacity="0.25"
               id="g470"><g
                 transform="translate(635.8447,804.0786)"
                 id="g468"><path
                   d="m 0,0 c -2.898,-109.137 -89.729,-154.355 -172.574,-146.243 63.156,-2.286 75.842,61.937 78.239,94.146 0.747,10.038 8.709,18.007 18.748,18.731 89.685,6.473 72.404,43.621 72.404,43.621 h 0.012 C -1.387,6.985 -0.31,3.567 0,0"
                   style="fill:#371a45;fill-opacity:1;fill-rule:nonzero;stroke:none"
                   id="path466" /></g></g></g></g><g
           id="g474"><g
             id="g476" /><g
             id="g488"><g
               clip-path="url(#clipPath480)"
               opacity="0.25"
               id="g486"><g
                 transform="translate(343.3521,840.2598)"
                 id="g484"><path
                   d="m 0,0 c 0,0 -18.022,-8.225 -9.662,-17.168 8.36,-8.944 14.656,-9.46 14.656,-9.46 l 3.509,11.499 -2.787,10.381 z"
                   style="fill:#371a45;fill-opacity:1;fill-rule:nonzero;stroke:none"
                   id="path482" /></g></g></g></g><g
           id="g490"><g
             id="g492" /><g
             id="g504"><g
               clip-path="url(#clipPath496)"
               opacity="0.25"
               id="g502"><g
                 transform="translate(551.874,831.2744)"
                 id="g500"><path
                   d="M 0,0 C 0,0 10.321,-4.042 4.954,-24.156 L 0,-21.749 c 0,0 3.103,-12.14 -8.46,-15.164 0,0 -0.996,-5.43 -6.402,-7.771 -5.407,-2.339 18.784,-3.628 18.784,-3.628 l 31.995,6.135 c 0,0 -8.533,25.18 -18.334,32.256"
                   style="fill:#371a45;fill-opacity:1;fill-rule:nonzero;stroke:none"
                   id="path498" /></g></g></g></g><g
           id="g506"><g
             id="g508" /><g
             id="g520"><g
               clip-path="url(#clipPath512)"
               opacity="0.25"
               id="g518"><g
                 transform="translate(450.5063,829.8096)"
                 id="g516"><path
                   d="m 0,0 c 0,0 12.034,-8.19 6.696,-24.698 l -6.125,4.833 c 0,0 5.586,-11.372 -2.464,-15.583 l 3.715,-7.771 15.791,-1.353 c 0,0 6.668,17.837 8.83,23.993 C 28.605,-14.423 0,0 0,0"
                   style="fill:#371a45;fill-opacity:1;fill-rule:nonzero;stroke:none"
                   id="path514" /></g></g></g></g><g
           id="g522"><g
             id="g524" /><g
             id="g536"><g
               clip-path="url(#clipPath528)"
               opacity="0.25"
               id="g534"><g
                 transform="translate(433.2866,874.2153)"
                 id="g532"><path
                   d="m 0,0 c 0,0 20.782,-30.395 -7.349,-34.825 -7.443,-1.172 -14.188,-5.038 -18.708,-11.067 -2.499,-3.332 -6.802,-5.472 -14.21,-2.719 l 10.44,-8.744 c 0,0 21.019,25.907 59.812,8.744 C 24.666,-29.414 15.047,-12.969 0,0"
                   style="fill:#371a45;fill-opacity:1;fill-rule:nonzero;stroke:none"
                   id="path530" /></g></g></g></g><g
           id="g538"><g
             id="g540" /><g
             id="g552"><g
               clip-path="url(#clipPath544)"
               opacity="0.25"
               id="g550"><g
                 transform="translate(351.0991,836.2183)"
                 id="g548"><path
                   d="M 0,0 C -0.991,-0.112 -1.87,-0.062 -2.663,0.148 -1.833,0.161 -0.941,0.111 0,0"
                   style="fill:#371a45;fill-opacity:1;fill-rule:nonzero;stroke:none"
                   id="path546" /></g></g></g></g><g
           id="g554"><g
             id="g556" /><g
             id="g568"><g
               clip-path="url(#clipPath560)"
               opacity="0.25"
               id="g566"><g
                 transform="translate(382.4336,847.5752)"
                 id="g564"><path
                   d="m 0,0 c 0,0 0.619,-13.748 1.251,-19.705 -2.056,0.397 -4.186,0.595 -6.366,0.595 -5.821,0 -11.258,-1.449 -15.952,-3.988 -0.05,-0.025 -0.087,-0.049 -0.136,-0.062 -11.011,-5.573 -12.905,6.849 -8.93,11.642 0.384,-0.062 0.793,-0.124 1.201,-0.211 C -5.487,-16.423 1.35,18.615 1.734,20.67 Z"
                   style="fill:#371a45;fill-opacity:1;fill-rule:nonzero;stroke:none"
                   id="path562" /></g></g></g></g><g
           id="g570"
           transform="translate(633.2314,448.9609)"><path
             d="m 0,0 -4.186,-26.999 -10.725,-69.134 -2.031,-13.128 -1.251,-8.026 c -2.143,-13.834 -14.85,-23.606 -28.746,-21.897 -0.173,0.013 -0.36,0.038 -0.533,0.063 -18.144,2.476 -29.811,8.385 -29.811,8.385 l 16.534,159.358 2.316,22.343 27.544,-5.97 C -10.316,40.537 3.232,20.807 0,0"
             style="fill:#ffffff;fill-opacity:1;fill-rule:nonzero;stroke:none"
             id="path572" /></g><g
           id="g574"
           transform="translate(589.5205,304.8613)"><path
             d="m 0,0 c -1.254,0 -2.521,0.077 -3.798,0.233 l -0.605,0.079 c -18.708,2.546 -30.796,8.597 -31.301,8.854 l 4.263,8.405 c 0.104,-0.051 11.278,-5.602 28.311,-7.92 L -2.656,9.59 C 8.754,8.192 19.08,16.073 20.858,27.539 l 18.198,117.28 c 2.841,18.317 -9.122,35.742 -27.238,39.668 l -27.539,5.971 1.997,9.211 27.539,-5.97 c 22.982,-4.982 38.16,-27.088 34.554,-50.325 L 30.173,26.094 C 27.808,10.85 14.924,0.002 0,0"
             style="fill:#371a45;fill-opacity:1;fill-rule:nonzero;stroke:none"
             id="path576" /></g><g
           id="g578"
           transform="translate(635.7578,409.0312)"><path
             d="M 0,0 -6.812,-49.813 -8,-58.457 c -0.83,-5.97 -5.697,-10.392 -11.469,-10.874 -0.805,-0.063 -1.635,-0.05 -2.477,0.049 l -30.43,3.48 c -6.898,0.793 -11.865,6.998 -11.109,13.908 l 6.316,58.273 c 0.755,6.898 6.936,11.902 13.847,11.196 l 14.861,-1.536 17.24,-1.771 c 1.622,-0.161 3.146,-0.631 4.509,-1.337 C -2.117,10.553 0.743,5.45 0,0"
             style="fill:#ffffff;fill-opacity:1;fill-rule:nonzero;stroke:none"
             id="path580" /></g><g
           id="g582"><g
             id="g584" /><g
             id="g596"><g
               clip-path="url(#clipPath588)"
               opacity="0.25"
               id="g594"><g
                 transform="translate(628.9463,359.2187)"
                 id="g592"><path
                   d="m 0,0 -1.188,-8.645 c -0.831,-5.969 -5.698,-10.391 -11.469,-10.874 l -1.251,-8.026 c -2.143,-13.834 -14.85,-23.605 -28.746,-21.896 -0.173,0.012 -0.36,0.037 -0.533,0.062 -18.144,2.477 -29.811,8.385 -29.811,8.385 l 16.534,159.358 22.343,-7.678 c 0,0 -3.728,-35.534 14.429,-43.237 l -1.957,-1.597 -5.413,-4.397 -8.421,-44.934 -2.44,-21.748 c 0,0 15.927,-3.195 27.297,-1.164 4.979,0.892 9.103,2.799 10.613,6.404 z"
                   style="fill:#371a45;fill-opacity:1;fill-rule:nonzero;stroke:none"
                   id="path590" /></g></g></g></g><g
           id="g598"
           transform="translate(591.1377,421.9551)"><path
             d="m 0,0 c -3.98,0 -7.423,-3.018 -7.861,-7.058 l -6.324,-58.272 c -0.467,-4.312 2.657,-8.219 6.965,-8.712 l 30.429,-3.482 c 4.239,-0.492 8.158,2.558 8.737,6.785 l 8,58.451 c 0.294,2.143 -0.281,4.261 -1.618,5.961 -1.336,1.701 -3.258,2.76 -5.409,2.981 L 0.812,-0.042 C 0.54,-0.014 0.269,0 0,0 m 24.086,-87.001 c -0.646,0 -1.295,0.037 -1.949,0.111 l -30.429,3.483 c -9.441,1.081 -16.289,9.646 -15.264,19.094 l 6.324,58.273 c 1.025,9.45 9.538,16.349 19.009,15.374 L 33.884,6.029 C 38.6,5.545 42.81,3.225 45.738,-0.502 c 2.93,-3.727 4.19,-8.367 3.547,-13.063 L 41.284,-72.018 C 40.105,-80.629 32.6,-87.001 24.086,-87.001"
             style="fill:#371a45;fill-opacity:1;fill-rule:nonzero;stroke:none"
             id="path600" /></g><g
           id="g602"
           transform="translate(604.6357,336.7314)"><path
             d="m 0,0 -1.979,0.228 c -4.712,0.538 -8.927,2.885 -11.868,6.607 -2.94,3.722 -4.249,8.365 -3.683,13.075 l 6.769,56.391 c 1.143,9.521 9.826,16.463 19.374,15.487 l 7.875,-0.809 -0.827,-8.038 -7.875,0.811 C 2.61,84.283 -2.118,80.512 -2.739,75.338 L -9.51,18.947 C -9.816,16.389 -9.105,13.865 -7.508,11.844 -5.91,9.821 -3.62,8.547 -1.06,8.253 L 0.919,8.026 Z"
             style="fill:#371a45;fill-opacity:1;fill-rule:nonzero;stroke:none"
             id="path604" /></g><g
           id="g606"
           transform="translate(682.5244,229.5098)"><path
             d="m 0,0 c -4.273,-21.104 -37.936,-41.639 -73.951,-11.679 -82.572,-43.534 -132.93,-16.671 -156.536,68.675 0,0 -0.037,0 -0.086,0.013 -2.403,0.173 -51.002,3.591 -70.434,-13.476 0,0 -24.746,-22.565 -51.002,-64.637 0,0 -10.762,-19.916 -37.7,-11.134 -17.823,5.808 -47.274,25.017 -62.248,48.166 -7.654,11.851 -11.53,24.719 -8.112,37.365 10.106,37.365 48.822,31.978 65.306,11.778 0,0 9.661,42.419 34.345,52.748 0,0 17.945,6.168 29.179,8.856 0,0 -8.051,58.804 12.806,113.621 20.113,-10.85 43.137,-17.005 67.61,-17.005 30.789,0 59.3,9.747 82.621,26.33 60.439,85.545 28.424,204.751 27.903,206.683 0,0.012 0,0.012 -0.012,0.025 -21.501,52.413 33.291,68.96 49.863,22.8 1.386,4.162 3.158,6.639 5.028,7.778 7.468,4.533 16.472,-12.36 8.211,-28.882 21.674,-86.113 9.586,-177.428 -30.889,-273.116 0.942,-7.356 1.45,-14.677 1.524,-21.983 0.149,-11.369 -0.718,-22.702 -2.477,-33.985 -3.022,-19.593 -8.694,-39.087 -16.41,-58.482 0,0 -2.018,-12.46 4.211,-25.254 l 39.174,25.91 c 2.737,1.821 6.168,2.291 9.263,1.201 5.599,-1.994 15.272,-7.295 28.821,-21.377 0.941,-0.977 1.883,-1.918 2.824,-2.835 C -19.259,26.826 4.087,20.213 0,0"
             style="fill:#ffffff;fill-opacity:1;fill-rule:nonzero;stroke:none"
             id="path608" /></g><g
           id="g610"
           transform="translate(254.7969,305.6152)"><path
             d="m 0,0 c -2.07,0 -4.105,-0.202 -6.066,-0.621 -10.684,-2.282 -18.195,-10.382 -21.72,-23.424 -9.34,-34.56 43.571,-72.096 67.266,-79.82 22.675,-7.391 31.738,8.257 32.112,8.926 0.037,0.065 0.093,0.16 0.132,0.223 26.298,42.145 50.786,64.682 51.815,65.621 21.247,18.664 71.933,14.853 74.081,14.68 1.974,-0.157 3.639,-1.532 4.167,-3.441 11.778,-42.585 30.293,-69.597 55.03,-80.287 24.508,-10.59 56.392,-5.703 94.762,14.528 1.686,0.889 3.744,0.674 5.211,-0.546 20.684,-17.203 37.796,-14.832 46.152,-11.887 10.268,3.617 18.371,12.005 20.165,20.872 2.104,10.428 -4.704,16.026 -19.059,26.707 -7.326,5.451 -15.63,11.63 -23.708,20.031 -13.476,14.011 -22.702,18.676 -27.002,20.21 -1.649,0.58 -3.552,0.328 -5.07,-0.684 l -39.195,-25.913 c -1.134,-0.749 -2.532,-0.974 -3.843,-0.614 -1.309,0.357 -2.401,1.263 -2.995,2.484 -6.795,13.974 -4.707,27.493 -4.615,28.061 0.055,0.338 0.147,0.668 0.273,0.986 16.005,40.302 21.586,76.973 17.062,112.113 -0.106,0.827 0.009,1.669 0.334,2.438 41.043,97.024 51.358,187.907 30.659,270.126 -0.275,1.094 -0.149,2.249 0.355,3.258 3.877,7.753 3.237,15.71 0.884,20.157 -1.094,2.067 -2.149,2.626 -2.352,2.652 -0.266,-0.079 -1.728,-1.22 -3.08,-5.3 -0.632,-1.908 -2.405,-3.204 -4.415,-3.23 -2.024,0.028 -3.815,1.228 -4.493,3.12 -4.72,13.142 -13.491,21.974 -23.462,23.623 -6.806,1.128 -13.093,-1.22 -17.251,-6.438 -6.436,-8.079 -6.574,-21.39 -0.383,-36.528 0.096,-0.22 0.175,-0.447 0.236,-0.678 h 0.002 c 1.349,-5.065 32.192,-124.542 -28.619,-210.605 -0.307,-0.434 -0.684,-0.813 -1.117,-1.12 -25.026,-17.801 -54.541,-27.21 -85.354,-27.21 -22.559,0 -44.917,5.199 -65.008,15.077 C 93.992,105.975 101.078,51.767 101.155,51.207 101.482,48.81 99.938,46.552 97.585,45.987 87.239,43.506 70.731,37.898 68.987,37.303 46.899,27.913 37.657,-11.68 37.566,-12.079 37.167,-13.835 35.801,-15.21 34.048,-15.621 32.293,-16.034 30.46,-15.41 29.32,-14.014 22.251,-5.357 10.665,0 0,0 m 50.956,-115.261 c -4.346,0 -9.147,0.724 -14.397,2.435 -13.253,4.32 -34.146,16.263 -50.949,33.207 -13.687,13.802 -28.701,35.073 -22.495,58.033 4.443,16.439 14.688,27.157 28.849,30.183 12.956,2.767 27.844,-1.508 38.656,-10.582 4.266,13.421 14.927,39.698 34.868,48.042 0.094,0.04 0.19,0.076 0.287,0.109 0.658,0.227 14.538,4.984 25.565,7.952 -1.442,14.595 -4.533,64.233 13.546,111.745 0.483,1.27 1.489,2.269 2.761,2.742 1.27,0.473 2.686,0.375 3.881,-0.269 19.937,-10.756 42.542,-16.441 65.371,-16.441 28.576,0 55.955,8.641 79.236,25.002 56.838,81.269 28.879,193.912 26.824,201.785 -7.45,18.324 -6.797,35.008 1.804,45.802 6.256,7.853 16.034,11.538 26.161,9.865 10.878,-1.8 20.517,-9.475 26.909,-21.087 1.931,1.859 3.919,2.626 5.584,2.887 3.893,0.612 7.767,-1.274 10.619,-5.175 4.452,-6.089 6.663,-17.754 1.46,-29.541 10.439,-42.335 12.984,-87.085 7.566,-133.033 -5.277,-44.739 -18.262,-91.923 -38.6,-140.261 4.422,-36.215 -1.339,-73.846 -17.592,-114.977 -0.199,-1.796 -0.75,-8.9 1.821,-16.939 l 34.367,22.72 c 3.962,2.635 8.986,3.278 13.428,1.713 6.224,-2.219 16.576,-7.929 30.648,-22.56 7.537,-7.838 15.508,-13.77 22.541,-19.003 13.978,-10.402 26.052,-19.385 22.672,-36.135 0,-0.001 0,-0.002 -10e-4,-0.002 -2.466,-12.191 -12.779,-23.14 -26.272,-27.894 -9.895,-3.488 -29.648,-6.444 -52.851,11.553 -39.817,-20.409 -73.497,-24.923 -100.144,-13.41 -26.824,11.591 -46.817,39.566 -59.454,83.169 -11.201,0.507 -48.364,1.067 -63.8,-12.492 -0.176,-0.162 -24.502,-22.587 -50.033,-63.472 -3.492,-6.333 -13.219,-15.67 -28.836,-15.671"
             style="fill:#371a45;fill-opacity:1;fill-rule:nonzero;stroke:none"
             id="path612" /></g><g
           id="g614"
           transform="translate(374.5454,389.5166)"><path
             d="m 0,0 -24.62,4.925 c -9.644,-6.726 -8.052,-26.068 0.809,-33.165 0,0 13.038,-5.664 24.969,-5.209"
             style="fill:#ffffff;fill-opacity:1;fill-rule:nonzero;stroke:none"
             id="path616" /></g><g
           id="g618"
           transform="translate(374.3296,351.3281)"><path
             d="m 0,0 c -12.375,0 -24.923,5.388 -25.472,5.626 -0.384,0.166 -0.743,0.383 -1.069,0.644 -5.844,4.681 -9.425,13.6 -9.123,22.723 0.26,7.816 3.381,14.371 8.564,17.986 1.054,0.735 2.361,1.005 3.62,0.755 L 1.141,42.81 -0.709,33.566 -23.07,38.04 c -1.907,-2.107 -3.042,-5.408 -3.174,-9.359 -0.192,-5.794 1.9,-11.702 5.135,-14.66 2.59,-1.036 13.003,-4.928 22.303,-4.574 L 1.552,0.029 C 1.037,0.01 0.518,0 0,0"
             style="fill:#371a45;fill-opacity:1;fill-rule:nonzero;stroke:none"
             id="path620" /></g><g
           id="g622"
           transform="translate(375.8877,402.1904)"><path
             d="m 0,0 c -1.969,-13.802 -4.872,-46.675 7.389,-70.322 1.773,-3.422 4.892,-5.96 8.582,-7.071 20.01,-6.022 42.091,-7.903 66.242,-5.641 0,0 18.1,2.088 31.373,7.421 4.541,1.824 7.888,5.811 8.794,10.62 4.043,21.438 4.019,43.995 -2.246,68.267 -1.418,5.491 -5.903,9.665 -11.49,10.632 C 93.464,16.534 61.25,21.151 30.555,19.373 29.761,19.326 28.967,19.222 28.19,19.048 20.346,17.289 13.24,14.266 6.701,10.271 3.04,8.033 0.606,4.248 0,0"
             style="fill:#ffffff;fill-opacity:1;fill-rule:nonzero;stroke:none"
             id="path624" /></g><g
           id="g626"
           transform="translate(454.2427,380.2861)"><path
             d="m 0,0 c 0.405,-5.591 -3.316,-10.416 -8.312,-10.778 -4.995,-0.362 -9.373,3.878 -9.777,9.468 -0.405,5.591 3.316,10.416 8.311,10.779 C -4.783,9.83 -0.405,5.591 0,0"
             style="fill:#10afff;fill-opacity:1;fill-rule:nonzero;stroke:none"
             id="path628" /></g><g
           id="g630"
           transform="translate(420.8403,417.251)"><path
             d="m 0,0 c -4.701,0 -9.428,-0.121 -14.125,-0.393 -0.565,-0.033 -1.105,-0.106 -1.605,-0.218 -7.062,-1.583 -13.625,-4.265 -20.063,-8.201 -2.442,-1.492 -4.08,-4.011 -4.494,-6.914 v -10e-4 c -1.822,-12.77 -4.798,-44.912 6.906,-67.487 1.169,-2.254 3.268,-3.976 5.758,-4.726 19.331,-5.818 41.013,-7.657 64.444,-5.463 0.073,0.009 17.544,2.075 30.056,7.102 3.101,1.246 5.313,3.907 5.919,7.12 4.237,22.467 3.524,44.127 -2.178,66.217 -0.957,3.706 -3.991,6.519 -7.731,7.166 C 49.447,-3.472 25.163,0 0,0 m 18.061,-103.721 c -17.266,0 -33.467,2.26 -48.401,6.755 -4.916,1.48 -9.074,4.911 -11.409,9.413 -12.959,24.995 -9.82,59.489 -7.869,73.158 0.813,5.697 4.059,10.664 8.91,13.626 7.232,4.42 14.942,7.568 22.915,9.355 0.998,0.224 2.049,0.369 3.123,0.431 30.782,1.787 62.814,-2.697 79.166,-5.528 7.382,-1.278 13.367,-6.812 15.249,-14.097 6.056,-23.459 6.813,-46.461 2.314,-70.319 -1.205,-6.39 -5.567,-11.669 -11.668,-14.119 -13.703,-5.507 -31.826,-7.642 -32.591,-7.731 -6.719,-0.629 -13.304,-0.944 -19.739,-0.944"
             style="fill:#371a45;fill-opacity:1;fill-rule:nonzero;stroke:none"
             id="path632" /></g><g
           id="g634"
           transform="translate(468.2095,318.7363)"><path
             d="m 0,0 -7.621,2.681 c 6.927,19.695 4.401,54.301 2.993,68.265 -0.302,2.988 -2.693,5.413 -5.686,5.765 l -67.032,7.881 c -5.378,0.63 -10.341,-2.695 -11.8,-7.91 l -7.78,2.175 c 2.536,9.072 11.176,14.859 20.524,13.758 L -9.371,84.734 C -2.644,83.943 2.731,78.485 3.41,71.757 5.226,53.742 7.198,20.465 0,0"
             style="fill:#371a45;fill-opacity:1;fill-rule:nonzero;stroke:none"
             id="path636" /></g><g
           id="g638"
           transform="translate(433.5449,318.0693)"><path
             d="m 0,0 -1.263,31.647 c -0.182,4.567 -3.434,8.405 -7.908,9.334 l -7.951,1.652 c -7.995,1.66 -13.887,8.514 -14.327,16.67 l -1.44,26.733 8.067,0.435 1.441,-26.734 c 0.242,-4.498 3.492,-8.279 7.902,-9.194 l 7.951,-1.652 C 0.583,47.206 6.479,40.248 6.81,31.97 L 8.072,0.321 Z"
             style="fill:#371a45;fill-opacity:1;fill-rule:nonzero;stroke:none"
             id="path640" /></g><g
           id="g642"
           transform="translate(445.0562,387.2988)"><path
             d="m 0,0 c -0.137,0 -0.274,-0.005 -0.412,-0.015 -1.703,-0.123 -3.265,-1 -4.399,-2.469 -1.197,-1.554 -1.773,-3.563 -1.622,-5.66 0.152,-2.095 1.012,-4.002 2.421,-5.365 1.333,-1.291 2.998,-1.928 4.708,-1.811 1.702,0.123 3.264,1.001 4.398,2.47 1.198,1.553 1.774,3.563 1.622,5.659 -0.152,2.095 -1.011,4.002 -2.42,5.366 C 3.07,-0.639 1.559,0 0,0 m 0.27,-20.289 c -2.848,-10e-4 -5.566,1.127 -7.728,3.221 -2.285,2.213 -3.676,5.255 -3.915,8.567 -0.24,3.312 0.697,6.523 2.64,9.041 2.006,2.603 4.834,4.16 7.963,4.387 3.128,0.229 6.151,-0.907 8.512,-3.194 2.285,-2.212 3.675,-5.254 3.915,-8.566 0.239,-3.313 -0.698,-6.523 -2.64,-9.042 C 7.01,-18.477 4.183,-20.035 1.054,-20.261 0.791,-20.28 0.53,-20.289 0.27,-20.289"
             style="fill:#371a45;fill-opacity:1;fill-rule:nonzero;stroke:none"
             id="path644" /></g><g
           id="g646"
           transform="translate(573.4863,358.4512)"><path
             d="m 0,0 h -0.013 c -7.208,-1.598 -14.428,-2.762 -21.662,-3.493 -16.929,-1.721 -33.959,-1.114 -51.075,1.759 -14.702,1.82 -15.234,29.971 -1.573,33.687 6.737,-1.053 27.371,-3.307 51.484,-1.461 4.793,0.359 9.723,0.892 14.714,1.635 l 0.136,0.012 c 3.468,0.507 6.961,1.115 10.453,1.845 H 2.477 C 13.958,33.563 17.921,8.843 0,0"
             style="fill:#ffffff;fill-opacity:1;fill-rule:nonzero;stroke:none"
             id="path648" /></g><g
           id="g650"
           transform="translate(499.6001,385.5801)"><path
             d="m 0,0 c -4.091,-1.774 -5.912,-8.011 -5.532,-13.326 0.331,-4.636 2.43,-10.262 7.254,-10.86 0.067,-0.008 0.134,-0.018 0.2,-0.029 23.703,-3.979 47.37,-3.457 70.359,1.558 7.925,4.182 10.151,12.268 8.809,18.532 -0.615,2.873 -2.217,5.808 -4.471,6.222 C 41.174,-5.099 6.823,-0.951 0,0 m 33.286,-36.28 c -10.902,0 -21.864,0.917 -32.833,2.754 -8.583,1.122 -14.618,8.774 -15.386,19.528 -0.667,9.335 3.196,20.631 13.253,23.372 0.64,0.173 1.31,0.211 1.966,0.109 1.526,-0.239 37.773,-5.748 75.115,1.986 0.371,0.077 0.748,0.106 1.128,0.094 6.638,-0.243 12.047,-5.626 13.778,-13.715 2.064,-9.64 -1.544,-22.891 -14.34,-29.204 -0.339,-0.167 -0.697,-0.293 -1.065,-0.375 -13.687,-3.033 -27.6,-4.549 -41.616,-4.549"
             style="fill:#371a45;fill-opacity:1;fill-rule:nonzero;stroke:none"
             id="path652" /></g><g
           id="g654"
           transform="translate(355.835,357.3867)"><path
             d="M 0,0 3.697,-32.508 -9.114,-2.403 Z"
             style="fill:#371a45;fill-opacity:1;fill-rule:nonzero;stroke:none"
             id="path656" /></g><g
           id="g658"
           transform="translate(291.1719,297.8408)"><path
             d="m 0,0 c 4.276,-5.578 9.363,-10.988 14.154,-16.663 4.679,-5.665 9.745,-11.659 11.896,-18.8 -3.592,6.443 -9.471,10.909 -15.153,15.394 -5.776,4.452 -11.821,8.583 -17.706,13.551 z"
             style="fill:#371a45;fill-opacity:1;fill-rule:nonzero;stroke:none"
             id="path660" /></g><g
           id="g662"
           transform="translate(565.5693,276.668)"><path
             d="m 0,0 c 2.267,-8.434 5.02,-16.895 9.51,-24.501 -3.518,2.806 -6.677,6.156 -9.656,9.623 -3.009,3.558 -5.771,7.098 -8.438,10.984 z"
             style="fill:#371a45;fill-opacity:1;fill-rule:nonzero;stroke:none"
             id="path664" /></g><g
           id="g666"
           transform="translate(505.3066,201.2539)"><path
             d="M 0,0 -0.125,8.078 C 15.086,8.314 28.148,13.95 37.651,24.379 48.278,36.042 53.574,53.043 52.18,71.022 l 8.055,0.625 C 61.8,51.453 55.745,32.241 43.623,18.937 32.581,6.82 17.497,0.271 0,0"
             style="fill:#371a45;fill-opacity:1;fill-rule:nonzero;stroke:none"
             id="path668" /></g><g
           id="g670"
           transform="translate(605.2549,221.1768)"><path
             d="M 0,0 23.685,16.852 6.637,-6.692 Z"
             style="fill:#371a45;fill-opacity:1;fill-rule:nonzero;stroke:none"
             id="path672" /></g><g
           id="g674"
           transform="translate(295.6636,194.2539)"><path
             d="m 0,0 c -3.55,0 -7.594,0.777 -12.112,2.334 l 2.631,7.639 C -4.658,8.311 1.838,6.888 5.392,9.538 c 3.5,2.611 3.983,9.073 3.771,14.035 -0.492,11.542 -34.653,54.563 -62.04,59.482 -4.768,0.858 -11.08,1.17 -14.088,-2.203 -3.414,-3.827 -2.104,-11.518 -1.312,-14.159 l -7.728,-2.353 c -0.172,0.561 -4.128,13.845 2.985,21.861 4.409,4.968 11.669,6.585 21.571,4.806 C -32.627,87.626 -13.568,69.392 -6.248,61.709 5.148,49.748 16.83,33.424 17.235,23.917 17.663,13.869 15.304,6.853 10.223,3.063 7.486,1.021 4.067,0 0,0"
             style="fill:#371a45;fill-opacity:1;fill-rule:nonzero;stroke:none"
             id="path676" /></g><g
           id="g678"
           transform="translate(229.7183,249.709)"><path
             d="m 0,0 -3.742,7.16 34.785,18.178 3.743,-7.16 z"
             style="fill:#371a45;fill-opacity:1;fill-rule:nonzero;stroke:none"
             id="path680" /></g><g
           id="g682"
           transform="translate(244.4038,231.5312)"><path
             d="m 0,0 -3.742,7.16 39.515,20.65 3.742,-7.161 z"
             style="fill:#371a45;fill-opacity:1;fill-rule:nonzero;stroke:none"
             id="path684" /></g><g
           id="g686"
           transform="translate(277.9375,201.2568)"><path
             d="m 0,0 -3.742,7.16 29.196,15.258 3.742,-7.16 z"
             style="fill:#371a45;fill-opacity:1;fill-rule:nonzero;stroke:none"
             id="path688" /></g><g
           id="g690"
           transform="translate(258.1802,215.2393)"><path
             d="m 0,0 -3.742,7.16 39.514,20.65 3.743,-7.161 z"
             style="fill:#371a45;fill-opacity:1;fill-rule:nonzero;stroke:none"
             id="path692" /></g><g
           id="g694"
           transform="translate(367.1514,253.1143)"><path
             d="m 0,0 -8.072,0.35 c 1.447,33.446 -4.992,57.176 -19.141,70.531 -13.286,12.541 -28.62,11.148 -29.266,11.082 l -0.861,8.033 c 0.792,0.084 19.473,1.933 35.528,-13.103 C -5.78,61.878 1.558,36.008 0,0"
             style="fill:#371a45;fill-opacity:1;fill-rule:nonzero;stroke:none"
             id="path696" /></g><g
           id="g698"
           transform="translate(518.7969,477.6709)"><path
             d="m 0,0 c -6.979,-14.865 -16.648,-28.719 -29.493,-39.012 7.737,9.07 13.225,19.769 17.234,30.912 1.251,3.558 2.488,7.433 3.3,11.029 z"
             style="fill:#371a45;fill-opacity:1;fill-rule:nonzero;stroke:none"
             id="path700" /></g><g
           id="g702"
           transform="translate(580.2803,522.0137)"><path
             d="m 0,0 c -21.747,0 -40.124,14.778 -40.4,15.005 l 5.126,6.244 -2.563,-3.122 2.559,3.126 C -33.811,20.054 0.974,-7.763 28,20.898 l 5.878,-5.543 C 23.01,3.83 11.067,0 0,0"
             style="fill:#371a45;fill-opacity:1;fill-rule:nonzero;stroke:none"
             id="path704" /></g><g
           id="g706"
           transform="translate(447.3286,286.5166)"><path
             d="M 0,0 4.772,20.521 9.426,-0.027 Z"
             style="fill:#371a45;fill-opacity:1;fill-rule:nonzero;stroke:none"
             id="path708" /></g><g
           id="g710"><g
             id="g712" /><g
             id="g724"><g
               clip-path="url(#clipPath716)"
               opacity="0.25"
               id="g722"><g
                 transform="translate(641.3564,277.6133)"
                 id="g720"><path
                   d="m 0,0 c -26.604,8.67 -39.942,-9.338 -39.942,-9.338 0,0 -22.603,-30.653 -43.038,-29.328 -20.436,1.312 -31.892,28.089 -36.846,56.266 -4.954,28.175 22.602,56.97 22.602,56.97 2.899,0.744 5.451,1.685 7.679,2.775 21.836,10.651 13.686,35.632 13.686,35.632 l -0.136,-0.012 -14.714,-1.635 c 1.239,16.001 -10.354,37.725 -10.354,37.725 77.667,106.883 46.568,259.913 46.568,259.913 17.34,7.741 10.243,29.836 10.243,29.836 7.468,4.533 16.472,-12.361 8.211,-28.882 21.674,-86.114 9.586,-177.429 -30.889,-273.116 0.942,-7.357 1.45,-14.677 1.524,-21.984 h 0.012 c 11.482,-0.421 15.445,-25.141 -2.476,-33.984 h -0.013 c -3.022,-19.594 -8.694,-39.088 -16.41,-58.483 0,0 -2.019,-12.459 4.211,-25.253 l 39.174,25.91 c 2.737,1.82 6.168,2.291 9.263,1.201 5.599,-1.994 15.272,-7.295 28.821,-21.377 C -1.883,1.858 -0.941,0.917 0,0"
                   style="fill:#371a45;fill-opacity:1;fill-rule:nonzero;stroke:none"
                   id="path718" /></g></g></g></g><g
           id="g726"><g
             id="g728" /><g
             id="g740"><g
               clip-path="url(#clipPath732)"
               opacity="0.25"
               id="g738"><g
                 transform="translate(379.7212,460.6562)"
                 id="g736"><path
                   d="M 0,0 C 0,0 48.941,-48.057 113.437,-18.042 122.389,-8.92 128.112,2.025 130.663,14.76 97.44,-12.362 51.651,-12.48 0,0"
                   style="fill:#371a45;fill-opacity:1;fill-rule:nonzero;stroke:none"
                   id="path734" /></g></g></g></g><g
           id="g742"><g
             id="g744" /><g
             id="g756"><g
               clip-path="url(#clipPath748)"
               opacity="0.25"
               id="g754"><g
                 transform="translate(541.0371,351.5645)"
                 id="g752"><path
                   d="m 0,0 -30.653,-9.598 c 0,0 -1.548,-15.481 -11.766,-25.699 -5.573,-5.573 -25.477,-9.128 -46.556,-10.069 -0.049,-5.438 -0.111,-13.513 -0.111,-19.68 -2.403,0.173 -51.002,3.591 -70.434,-13.475 0,0 -24.746,-22.566 -51.002,-64.638 0,0 -10.762,-19.915 -37.7,-11.134 -17.822,5.809 -47.274,25.018 -62.247,48.166 48.598,-42.246 91.723,-7.406 91.723,-7.406 0,0 25.229,35.198 34.728,58.742 9.487,23.544 38.369,16.533 38.369,16.533 -17.091,9.413 -19.68,27.434 -19.68,27.434 79.785,-12.98 88.058,56.427 88.058,56.427 l 25.538,15.183 6.713,-6.886 5.041,-13.029 9.326,-3.307 c -11.456,-13.214 0,-35.124 0,-35.124 z"
                   style="fill:#371a45;fill-opacity:1;fill-rule:nonzero;stroke:none"
                   id="path750" /></g></g></g></g><g
           id="g758"><g
             id="g760" /><g
             id="g772"><g
               clip-path="url(#clipPath764)"
               opacity="0.25"
               id="g770"><g
                 transform="translate(673.292,116.7617)"
                 id="g768"><path
                   d="m 0,0 c 0,-15.503 -88.797,-28.07 -198.332,-28.07 -109.536,0 -198.332,12.567 -198.332,28.07 0,15.504 88.796,28.071 198.332,28.071 C -88.797,28.071 0,15.504 0,0"
                   style="fill:#371a45;fill-opacity:1;fill-rule:nonzero;stroke:none"
                   id="path766" /></g></g></g></g><g
           id="g774"><g
             id="g776" /><g
             id="g788"><g
               clip-path="url(#clipPath780)"
               opacity="0.25"
               id="g786"><g
                 transform="translate(329.5093,495.8965)"
                 id="g784"><path
                   d="m 0,0 c 0,0 23.791,-38.542 3.148,-45.974 l 18.372,-18.577 2.89,7.313 10.168,31.145"
                   style="fill:#371a45;fill-opacity:1;fill-rule:nonzero;stroke:none"
                   id="path782" /></g></g></g></g></g></g></g>
                   
                   
</svg>
