<?xml version="1.0" encoding="utf-8"?>
<!-- Generator: Adobe Illustrator 25.0.0, SVG Export Plug-In . SVG Version: 6.00 Build 0)  -->
<svg version="1.1" id="Layer_1" xmlns="http://www.w3.org/2000/svg" xmlns:xlink="http://www.w3.org/1999/xlink" x="0px" y="0px"
	 viewBox="0 0 1000 1000" style="enable-background:new 0 0 1000 1000;" xml:space="preserve">
<style type="text/css">
	.st0{fill:#371A45;}
	.st1{fill:#FEFFFF;}
	.st2{fill:#FFFFFF;}
	.st3{opacity:0.2;}
	.st4{fill:#A8A8A8;}
	.st5{fill:#FEDA24;}
	.st6{fill:#FF0068;}
	.st7{fill:#028BFE;}
	.st8{opacity:0.6;}
	.st9{fill:none;}
</style>
<g>
	<g>
		<g>
			<path class="st0" d="M730,349.42c-8.46,20.01-27.12,55.45-65.42,81.19c-10.98,7.38-21.75,12.73-31.55,16.67
				c-9.47,3.82-17.98,6.3-24.84,7.93c2.41,0.31,4.79,0.62,7.2,0.92c-2.62-0.25-5.26-0.5-7.88-0.74c0.22-0.05,0.45-0.11,0.68-0.17
				c-4.27-0.53-8.55-1.07-12.82-1.61c-17.16-3.15-70.9-15.25-114.45-63.87c-4.36-4.89-51.42-58.86-51.42-134.46
				c0-41.07,12.29-79.28,33.41-111.13c15.66-0.96,37.55-1.19,63.31,2.25c23.1,3.09,59.94,8.28,100.09,30.26
				c41.84,22.9,68.41,53.68,83.62,75.18c-2.44,3.04-18.43,23.71-13.28,52.06C702.11,333.98,726.88,347.75,730,349.42z"/>
		</g>
	</g>
	<g>
		<g>
			<ellipse class="st1" cx="750.44" cy="291.2" rx="51.72" ry="63.36"/>
		</g>
	</g>
	<g>
		<g>
			<g>
				<path class="st2" d="M294.9,434.37c0.12,0.7,0.29,1.33,0.56,1.91c-0.23-0.09-0.48-0.17-0.71-0.25
					C294.79,435.51,294.84,434.95,294.9,434.37z"/>
			</g>
		</g>
		<g>
			<g>
				<path class="st2" d="M301.28,438.28c2.27-0.85,5.09-2.64,8.08-4.89c-0.28,0.51-1.78,3.46-1.68,7.09
					C305.55,439.74,303.42,439.01,301.28,438.28z"/>
			</g>
		</g>
		<g>
			<g>
				<path class="st2" d="M312.16,463.27c-1.54-4.53-1.97-9.23-2.14-10.94c-0.19-1.94-0.2-3.76-0.12-5.38
					c0.93,1.27,1.99,2.13,2.73,2.67C311.48,454.53,311.38,459.31,312.16,463.27z"/>
			</g>
		</g>
		<g>
			<g>
				<path class="st2" d="M852.37,506.64c-7.88,90.88-42.63,153.95-83.26,210.91c-2.86,4-6.94,7-11.64,8.41
					c-50.63,15.22-98.52-18.92-96.36-36.74l-1.94-1.61c24.81-13.28,45.64-33.44,59.9-58.44c22.75-39.91,41.71-94.41,31.38-149.09
					c-3.94-18.45-12.79-33.59-27.42-44.81l-14.99,3.54c16.29-6.86,32.79-15.8,49.52-26.81h15.3c5.63,0,11.13,1.88,15.53,5.4
					c33.05,26.39,55.13,51.78,62.61,75.8C852.34,497.53,852.77,502.1,852.37,506.64z"/>
			</g>
		</g>
		<g>
			<g>
				<path class="st2" d="M300.12,413.52c-3.31,8.08-4.64,15.41-5.21,20.86C294.07,429.33,296.52,421.07,300.12,413.52z"/>
			</g>
		</g>
		<g>
			<g>
				<path class="st2" d="M301.28,438.28c-1.61,0.62-2.95,0.76-3.86,0.25c-0.88-0.5-1.52-1.26-1.96-2.25
					C297.4,436.95,299.34,437.6,301.28,438.28z"/>
			</g>
		</g>
		<g>
			<g>
				<path class="st2" d="M307.69,440.49c0.95,0.33,1.89,0.65,2.84,0.98c-0.26,1.44-0.54,3.31-0.64,5.48
					c-0.4-0.53-0.78-1.13-1.1-1.82C308.03,443.54,307.72,441.96,307.69,440.49z"/>
			</g>
		</g>
		<g>
			<g>
				<path class="st2" d="M331.51,470.71c-5.26,3.07-10.51,3.6-13.84,1.77c-2.73-1.51-4.64-4.86-5.49-9.19
					c1.33,3.99,3.52,7.82,7.12,9.29C322.63,473.97,327.07,473.27,331.51,470.71z"/>
			</g>
		</g>
		<g>
			<g>
				<path class="st2" d="M339.98,463.22c0.59-0.76,1.18-1.55,1.74-2.39C341.18,461.67,340.59,462.47,339.98,463.22z"/>
			</g>
		</g>
		<g>
			<g>
				<path class="st2" d="M719.06,629.16c-14.26,25-35.08,45.15-59.9,58.44c-0.43,0.23-0.87,0.45-1.3,0.68
					c-12.4,6.47-25.76,11.25-39.77,14.06c-13.14,2.65-26.66,4.17-40.48,4.75l-0.12,0.02c-24.95,1.04-50.93-1.02-77.63-5.23
					c-2.93-0.47-5.9,0.51-7.98,2.62c-5.68,5.76-11.36,11.39-17.05,16.85h-0.02c-17.97,17.24-36,32.71-54.11,45.02
					c-4.55,3.09-9.78,5.06-15.22,5.73c-22.83,2.79-43.14,2-60.69-2.73l-19.52-7.48c-9.85-5.06-18.53-11.82-25.96-20.34
					c-13.83-15.86-15.89-39.15-4.45-56.82c0.22-0.33,0.45-0.67,0.67-1.01c3.21-4.78,7.67-8.6,12.85-11.13
					c6.81-3.35,14.76-6.69,23.74-9.53c20.02-6.35,34.65-4.52,41.65-7.71c17.01-7.77,44.95-30.8,65.17-66.34
					c-2.87-28.32,3.72-50.1,23.42-62.84c0.11-0.93,0.2-1.86,0.31-2.79c0.98-9.06,1.96-18.14,2.93-27.2
					c-8.04,2.11-18.5,4.02-30.66,4.03c-5.01,0.02-10.3-0.29-15.84-1.04c-42.08-5.63-68.04-32.35-75.75-40.95
					c-0.34,0.61-0.7,1.19-1.06,1.77c-0.17,0.29-0.36,0.57-0.56,0.85c-0.56,0.84-1.15,1.63-1.74,2.39c-0.2,0.25-0.4,0.5-0.61,0.74
					c-0.42,0.48-0.82,0.95-1.24,1.4c-0.22,0.23-0.43,0.45-0.64,0.67c-0.22,0.22-0.43,0.43-0.65,0.64l-0.65,0.61
					c-0.22,0.2-0.43,0.4-0.65,0.57c-0.23,0.19-0.45,0.37-0.67,0.54c-0.67,0.54-1.33,1.04-2.02,1.47c-0.22,0.16-0.45,0.29-0.67,0.43
					c-0.23,0.16-0.45,0.29-0.68,0.42c-4.44,2.56-8.88,3.26-12.21,1.88c-3.6-1.47-5.79-5.31-7.12-9.29c0,0-0.02-0.02-0.02-0.03
					c-0.78-3.96-0.68-8.74,0.47-13.66c-0.74-0.54-1.8-1.4-2.73-2.67c0.09-2.17,0.37-4.03,0.64-5.48c-0.95-0.33-1.89-0.65-2.84-0.98
					c-0.11-3.63,1.4-6.58,1.68-7.09c-2.99,2.25-5.82,4.03-8.08,4.89c-1.94-0.68-3.88-1.33-5.82-2c-0.26-0.57-0.43-1.21-0.56-1.91
					c0.57-5.45,1.91-12.77,5.21-20.86c0.02-0.03,0.03-0.06,0.03-0.08c3.55-8.67,8.05-15.11,11.54-19.38
					c-1.63,0-7.76-0.23-13.25-4.93c-5.29-4.56-6.52-10.33-6.81-11.98c-0.02-13.53,46.41-5.9,88.73,14.01
					c24.69,11.61,45.68,20.06,58.97,28.32c5.37-3.63,14.77-8.98,27.64-11.51c15.05-2.96,27.42-0.59,33.97,1.15
					c43.09,33.05,88,48.94,134.77,46.82c23.63-1.07,47.73-6.75,72.34-17.13l14.99-3.54c14.63,11.22,23.48,26.36,27.42,44.81
					C760.77,534.75,741.81,589.25,719.06,629.16z"/>
			</g>
		</g>
		<g>
			<g>
				<path class="st2" d="M708.03,438.8c-24.61,10.38-48.71,16.06-72.34,17.13L708.03,438.8z"/>
			</g>
		</g>
		<g>
			<g>
				<path class="st2" d="M541.92,854.1c-4,4.24-9.29,7-15.04,8.01c-18.31,3.24-34.37-0.36-48.17-10.74
					c-12.1-9.11-17.33-24.9-13.39-39.54c4.56-16.94,12.37-33.36,23.91-49.16c-3.71-6.07-7.84-14.21-10.86-24.32
					c-1.88-6.24-2.95-12.01-3.57-17.01h0.02c5.69-5.46,11.37-11.09,17.05-16.85c2.08-2.11,5.04-3.09,7.98-2.62
					c26.7,4.21,52.68,6.27,77.63,5.23l0.12-0.02C600.84,772.46,577.67,816.2,541.92,854.1z"/>
			</g>
		</g>
	</g>
	<g class="st3">
		<g>
			<path class="st0" d="M791.17,422.19c-1.09-0.57-12.98-6.56-23.98-0.4c-5.06,2.83-7.76,7.02-8.99,9.32
				c13.27,28.56,27.35,38.64,38.11,42.39c3.48,1.21,8.84,2.54,23.96,7.27c10.3,3.22,18.7,6.01,24.27,7.88
				c-2.65,31.85-9.94,74.56-26.88,122.76c-13.72,39.05-32.53,76.05-57.39,110.39c-49.99,13.01-83.33,2.55-99.16-32.59
				c89.22-64.2,124.37-171.31,66.44-253.95l33.02-23.28C770.77,415.38,780.97,418.79,791.17,422.19z"/>
		</g>
	</g>
	<g>
		<g>
			<path class="st1" d="M734.21,231.04c-16.87-25.65-40.53-49.02-69.42-67.96c-51.53-33.77-114.84-50.18-179.64-46.83
				c37.13-38.93,89.66-63.01,147.83-62.45c110.63,1.08,200.3,92.43,199.44,203.06c-0.74,95.49-67.91,175.15-157.57,195.07
				c27.11-14.54,48.34-32.49,63.4-53.66c9.87-13.86,16.84-28.85,20.84-44.58"/>
		</g>
	</g>
	<g>
		<g>
			<path class="st1" d="M730,227.84c-62.53-86.21-152.98-117.78-264.16-108.8c-3.89,5.25-6.39,11.93-4.86,22.77
				c101.89,0.22,188.24,28.36,246.64,106.71L730,227.84z"/>
		</g>
	</g>
	<g class="st3">
		<g>
			<path class="st0" d="M346.99,454.39c6.36,9.66,18.12,24.49,37.45,34.52c30.29,15.71,62.96,11.23,73.11,9.71
				c27.65-4.14,44.07-17.38,69.44-9.7c5.33,1.62,9.47,3.65,12.03,5.04c6.91,1.96,20.46,6.82,32.97,19.01
				c15.54,15.14,20.23,32.57,21.72,39.57c4.87-15.29,1.32-25.6-0.26-29.35c-4.58-10.88-13.78-16.91-26.64-25.34
				c-7.46-4.89-14.12-8.21-18.88-10.34c0.08-1.88,0.54-6.75,4.14-11.12c2.69-3.28,5.84-4.69,7.24-5.3
				c4.18-1.82,7.99-1.84,11.38-1.68c10.77,0.51,14.92,2.74,26.12,4.4c4.07,0.6,8.73,1.29,14.97,1.25c8.03-0.06,11.77-1.28,22.8-2.82
				c5.02-0.7,9.51-1.11,18.48-1.92c25.35-2.3,38.02-3.45,49.46-0.58c4.84,1.22,15.64,3.93,24.25,11.44
				c24.09,21.04,13.59,64.53,12.8,67.63c4.15-7.52,18.51-35.63,10.46-70.53c-4.92-21.33-16.06-35.82-22.48-43
				c-15.02,6.67-33.92,13.18-56.25,16.81c-59.21,9.61-107.79-6.72-132.15-17.07c-4.65-2.1-9.5-4.5-14.48-7.24
				c-10.63-5.85-19.74-12.11-27.41-18.1c-10.65,0.5-21.29,0.99-31.94,1.49c15.22-1.45,23.98,2.34,29.22,6.24
				c4.55,3.38,6.14,6.62,13.32,14.78c6.74,7.67,12.87,13.39,17.07,17.07c-17.83,8-46.15,17.82-81.72,18.36
				c-17.17,0.26-32.25-1.7-44.61-4.27c-1.68,0.75-9.48,4.01-18.62,0.78c-8.15-2.89-12.14-9.09-13.19-10.86
				C360.18,453.61,353.59,454,346.99,454.39z"/>
		</g>
	</g>
	<g>
		<g>
			<path class="st1" d="M626.3,456.11c53.02-29.1,87.59-64.66,103.7-106.7c8.35,5.1,17.72,7.07,27.68,7.22
				c-15.78,40.09-39.32,73.87-78.1,95.29L626.3,456.11z"/>
		</g>
	</g>
	<g>
		<g>
			
				<ellipse transform="matrix(0.7071 -0.7071 0.7071 0.7071 -186.8787 487.627)" class="st4" cx="495.18" cy="469.4" rx="34.14" ry="34.14"/>
		</g>
	</g>
	<g>
		<g>
			
				<ellipse transform="matrix(0.866 -0.5 0.5 0.866 -197.1362 147.8024)" class="st5" cx="177.23" cy="441.75" rx="84.13" ry="111.24"/>
		</g>
	</g>
	<g>
		<g>
			<path class="st6" d="M223.7,481c-6.86,15.5-27.93,9.58-39.03-10.97l-13.16-24.35l-13.16-24.35
				c-11.1-20.55-4.51-41.42,12.22-38.66l26.87,4.43l21.81,3.59c20.96,3.45,33.02,25.77,24.42,45.2l-8.95,20.21L223.7,481z"/>
		</g>
	</g>
	<g>
		<g>
			<path class="st7" d="M468.03,495.77c-1.12,8.1-2.24,16.21-3.36,24.31c3.71-1.64,8.41-3.3,13.97-4.4
				c9.28-1.83,17.25-1.33,22.76-0.52c0.95-3.62,1.9-7.24,2.84-10.86c-5.23,0.34-12.92,0.2-21.72-2.33
				C476.51,500.25,471.66,497.89,468.03,495.77z"/>
		</g>
	</g>
	<g>
		<g>
			<path class="st7" d="M454.84,616.8c-2.4,5.35-2.32,9.62-2.07,11.9c0.23,2.08,0.49,4.17,2.07,5.17c2.19,1.39,5.55-0.21,7.24-1.55
				c3.67-2.9,3.64-7.76,3.62-8.53C462.08,621.46,458.46,619.13,454.84,616.8z"/>
		</g>
	</g>
	<g class="st3">
		<g>
			<path class="st0" d="M293.07,696.84c1.65,5.63,5.42,15.58,14.35,24.44c13.45,13.34,29.75,15.42,37.52,16.41
				c21,2.68,37.54-4.33,44.73-7.93c35.29-12.36,69.66-44.4,103.83-80.63c5.4,17.08,6.86,33.46,2.98,48.88l-75.78,68.35
				c-12.14,2.65-68.27,13.93-105.88-11.1c-7.99-5.32-21.01-13.98-24.87-30.09C287,712.87,290.79,702.07,293.07,696.84z"/>
		</g>
	</g>
	<g>
		<g>
			<g>
				<path class="st2" d="M811.31,740.01c-5.51,14.96-15.36,23.29-21.26,28.29c-17.5,14.8-36.57,18.78-43.76,20.27
					c-10.41,2.17-16.36,1.86-23.23,1.49c-5.63-0.29-12.66-0.68-25.15,0.25c-17.81,1.32-30.75,3.68-36.43,6.64
					c-9.95,5.2-15.98,12.68-20.85,19.29c-15.05,20.4-21.83,35.32-27.82,48.46c-5.45,11.96-10.6,23.28-20.54,35.63
					c-7.03,8.71-33.18,37.78-74.68,46.02c-7.76,1.55-15.21,2.2-22.3,2.2c-27.11,0-49.03-9.56-63.34-15.78
					c-15.35-6.67-44.83-22.59-69.8-54.14c-13.61-17.21-22.5-33.9-28.21-49.11c-6.73-18.02-9.02-33.98-9.43-46.35
					c-0.26-8.44-0.92-28.21,8.58-50.34c2.31-5.38,7.71-18,19.71-30.04c13.25-13.31,27.23-18.64,35.58-21.82
					c0.92-0.36,0.74-0.28,2.13-0.82c19.8-7.68,37.18-14.42,49.34-28.43c3.04-3.49,7.34-9.26,10.82-17.92
					c3.46,1.23,6.94,2.47,10.4,3.69c0.02,0.45,0.03,0.88,0.05,1.32c0.36,12.17-2.93,20.03-5.48,24.55
					c-9.93,17.52-32.43,26.01-57.75,35.57c-0.67,0.26-1.3,0.51-2.31,0.9c-7.28,2.76-18.28,6.97-28.47,17.19
					c-9.26,9.31-13.61,19.44-15.47,23.76c-7.71,18.02-7.2,34.03-6.94,41.73c0.36,10.75,2.37,24.7,8.39,40.53
					c5.03,13.28,12.86,27.92,24.89,43.09c22.25,28.09,48.41,42.22,62.04,48.15c16.91,7.37,42.47,18.48,73.66,12.29
					c34.85-6.92,56.95-31.53,62.89-38.9c8.36-10.37,12.57-19.61,17.91-31.33c6.39-14.04,13.64-29.96,29.95-52.08
					c6.67-9.05,14.65-18.36,27.76-25.18c5.37-2.81,15.78-6.77,44.27-8.88c13.78-1.02,21.51-0.62,27.71-0.28
					c6.36,0.34,10.19,0.54,18.03-1.09c6.36-1.33,21.27-4.44,34.85-15.94c4.93-4.17,11.7-9.88,15.36-19.85
					c0.99-2.72,3.77-10.27,2.16-19.46c-0.23-1.38-0.57-2.81-1.04-4.25c-1.44-4.55-3.85-8.69-7.17-12.35
					c-0.11-0.14-0.22-0.26-0.34-0.39c4-5.73,8.02-11.47,12.04-17.21c2.06,2.06,4.66,4.95,7.23,8.69c1.35,1.97,2.68,4.17,3.93,6.63
					c0.33,0.62,0.64,1.24,0.93,1.89c0.16,0.33,1.58,3.4,2.61,6.61c0.5,1.57,0.93,3.15,1.27,4.73
					C816.26,718.23,815.36,729,811.31,740.01z"/>
			</g>
		</g>
	</g>
	<g class="st3">
		<g>
			<g>
				<path class="st0" d="M811.31,740.01c-5.51,14.96-15.36,23.29-21.26,28.29c-17.5,14.8-36.57,18.78-43.76,20.27
					c-10.41,2.17-16.36,1.86-23.23,1.49c-5.63-0.29-12.66-0.68-25.15,0.25c-17.81,1.32-30.75,3.68-36.43,6.64
					c-9.95,5.2-15.98,12.68-20.85,19.29c-15.05,20.4-21.83,35.32-27.82,48.46c-5.45,11.96-10.6,23.28-20.54,35.63
					c-7.03,8.71-33.18,37.78-74.68,46.02c-7.76,1.55-15.21,2.2-22.3,2.2c-27.11,0-49.03-9.56-63.34-15.78
					c-15.35-6.67-44.83-22.59-69.8-54.14c-13.61-17.21-22.5-33.9-28.21-49.11c-4.02-13.64-5.52-25.79-5.85-35.64
					c-0.28-8.44-0.93-28.21,8.57-50.35c2.31-5.38,7.73-17.98,19.71-30.03c13.25-13.31,27.25-18.64,35.6-21.83
					c0.92-0.34,0.73-0.26,2.13-0.81c36.7-14.23,49.34-28.44,49.34-28.44c3.93-4.36,9.43-11.78,13.36-23.37
					c1.43-0.08,2.87-0.16,4.31-0.23c0.36,12.17-2.93,20.03-5.48,24.55c-9.93,17.52-32.43,26.01-57.75,35.57
					c-0.67,0.26-1.3,0.51-2.31,0.9c-7.28,2.76-18.28,6.97-28.47,17.19c-9.26,9.31-13.61,19.44-15.47,23.76
					c-7.71,18.02-7.2,34.03-6.94,41.73c0.36,10.75,2.37,24.7,8.39,40.53c4.59,15.95,13.13,34.4,28.47,53.78
					c22.24,28.1,48.41,42.24,62.02,48.17c16.91,7.36,42.47,18.48,73.68,12.29c34.84-6.92,56.95-31.53,62.89-38.9
					c8.36-10.37,12.57-19.61,17.91-31.33c6.39-14.04,13.64-29.98,29.95-52.08c6.67-9.05,14.65-18.36,27.76-25.2
					c5.35-2.79,15.78-6.75,44.25-8.88c13.78-1.01,21.52-0.61,27.73-0.26c6.36,0.34,10.19,0.54,18.03-1.1
					c6.36-1.32,21.26-4.42,34.85-15.92c4.93-4.17,11.68-9.9,15.35-19.85c1.16-3.13,4.39-12.41,1.13-23.71
					c-0.68-2.37-1.55-4.53-2.54-6.46c-3.62-7.11-8.67-11.3-10.74-12.86c0.84-1.24,1.68-2.5,2.53-3.74
					c3.41-5.09,6.84-10.18,10.27-15.27c4,2.23,6.75,4.39,8.66,6.36c2.2,2.28,3.26,4.33,3.76,6.05c0.06,0.2,0.11,0.39,0.17,0.57
					c2.28,7.81,3.03,9.43,4.5,12.6c0.02,0,0.02,0.02,0.03,0.05c0.05,0.11,0.14,0.31,0.28,0.59
					C816.26,718.23,815.36,729,811.31,740.01z"/>
			</g>
		</g>
	</g>
	<g class="st3">
		<g>
			<path class="st0" d="M445.92,551.37c0.15,10.34,12.02,46.07,52.06,45.66c14.97-0.16,27.11,3.1,35.23,1.67
				c117.62,84.49,223.22-36.98,173.96-130.28c6.2-13,92.21,74.36-27.33,191.54c-53-0.03-104.44-11.67-154.4-34.23
				c-27.15,10.72-57.1,2.65-72.62-18.36C432.16,589.42,443.66,556.89,445.92,551.37z"/>
		</g>
	</g>
	<g class="st3">
		<g>
			<path class="st0" d="M496.59,702.29c8.99,17.76,14.91,35.03,16.81,51.63c0.55,4.87-0.27,9.79-2.36,14.22l-17.14,36.35
				c-7.37,15.63-7.52,33.71-0.41,49.47c8.69,7.85,19.67,10.86,33.38,8.15l37.92-36.22c25.51-28.58,24.42-70.93,12.69-118.78
				L496.59,702.29z"/>
		</g>
	</g>
	<g class="st3">
		<g>
			<path class="st0" d="M461.04,469.39c27.12,19.26,49.89,16.74,68.28-7.63c5.03,24.33-7.28,36.5-31.73,40.15
				c-20.17,1.84-32.59-9.05-38.42-30.78"/>
		</g>
	</g>
	<g class="st3">
		<g>
			<path class="st0" d="M491.69,640.6c6.92,2.14,90.11,44.26,183.44,13.2c21.47-7.15,35.51-23.87,46.98-36.99
				c-13.29,97.73-208.1,101.62-225.53,85.49C496.59,702.29,499.66,660.63,491.69,640.6z"/>
		</g>
	</g>
	<g class="st3">
		<g>
			<path class="st0" d="M311.24,455.1c4.76,23.16,16.37,20.8,32.1,3.1"/>
		</g>
	</g>
	<g class="st3">
		<g>
			<polygon class="st0" points="479.92,501.91 476.69,519.04 502.81,515.55 506.09,504.04 			"/>
		</g>
	</g>
	<g class="st3">
		<g>
			<polygon class="st0" points="469.19,625.61 461.95,636.92 451.86,633.1 451.86,616.8 			"/>
		</g>
	</g>
	<g class="st3">
		<g>
			<path d="M517.55,519.04c4.57-13.12,15-19.19,33.75-15.52l-26.38-12.8l-15.13,12.8l-3.1,11.38L517.55,519.04z"/>
		</g>
	</g>
	<g class="st3">
		<g>
			<path d="M558.73,544.78c6.63-9.36,15.24-14.74,28.89-10.04v13.53L558.73,544.78z"/>
		</g>
	</g>
	<g class="st3">
		<g>
			<path class="st0" d="M593.52,545.75c27.06,2.26,41.73-11.16,50.43-32l-9.5,34.53C617.76,552.09,603.86,551.63,593.52,545.75z"/>
		</g>
	</g>
	<g class="st3">
		<g>
			<path class="st0" d="M317.9,396.01c5.03,4.06,11.61,8.66,19.79,12.81c6.74,3.41,13.03,5.75,18.42,7.37
				c-18.28,7.63-36.55,15.26-54.83,22.89c-1.37-2.4-5.54-10.38-3.6-20.37C300.81,402.52,316.95,396.35,317.9,396.01z"/>
		</g>
	</g>
	<g>
		<g>
			<path class="st2" d="M726.93,619.78l47.56-17.2c15.53,4.02,21.8,11.27,14.84,23.15c-20.73,17.65-48.22,23.2-79.26,22.4
				L726.93,619.78z"/>
		</g>
	</g>
	<g class="st3">
		<g>
			<path class="st0" d="M720.63,631.11c22.89-0.82,44.22-8.38,63.81-23.47c27.58,19.23-32.39,44.05-75.87,41.28L720.63,631.11z"/>
		</g>
	</g>
	<g class="st3">
		<g>
			<path class="st0" d="M724.84,303.62c0.74,1.53,4.73,9.46,13.97,12.41c2.44,0.78,7.99,2.55,12.76,0.24
				c9.62-4.66,4.25-20.89,13.88-34.38c6.68-9.37,16.52-14.04,24.31-16.55c18.91,42.52,4.14,74.19-25.26,74.91
				c-13.16,0.32-27.31-7.85-36.3-28.1L724.84,303.62z"/>
		</g>
	</g>
	<g class="st3">
		<g>
			<path class="st0" d="M730.65,265.08c-4.98,5.4-10.93,9.16-14.55,7.56c-4.49-1.98-6.18-12.56-1.16-25.8
				c-2.89,3.6-19.94,25.51-15.36,55.94c3.89,25.89,20.87,40.89,25.25,44.54c24.64,14.26,40.69,10.65,51.98-2.84
				c-23.2,0.97-44.1-12.16-51.95-32.11C715.54,288.66,729.29,267.15,730.65,265.08z"/>
		</g>
	</g>
	<g class="st3">
		<g>
			<path class="st0" d="M629.41,451.92c46.75-24.83,82.82-55.82,100.6-97.36l30.57,4.78c-17.47,41.93-47.99,74.68-93.92,96.58
				L629.41,451.92z"/>
		</g>
	</g>
	<g class="st3">
		<g>
			<path class="st0" d="M727.68,82.5c12.38,7.66,31.48,22.43,40.6,46.81c3.27,8.74,6.82,18.22,2.33,24.83
				c-6.75,9.92-23.86,1.91-43.45,15.13c-7.2,4.86-7.61,7.77-13.58,9.7c-11.66,3.76-24.22-2.81-32.97-8.92
				c18.1,19.27,36.21,38.53,54.31,57.8c30.28-0.11,58.53,18.82,65.2,46.73c7.21,30.14-2.76,65.89-37.81,80.36
				c-20.69,36.4-39.8,74.02-92.38,99.4c87.9-30.91,159.2-81.69,165.33-210.45C823.1,171.76,788.69,116.85,727.68,82.5z"/>
		</g>
	</g>
	<g class="st3">
		<g>
			<path d="M477.65,118.24c-3.37,2.94-6.19,5.93-6.44,9.13c-0.12,1.52,1.11,2.81,2.63,2.81c74.45,0.14,140.38,12.59,189.43,49.41
				c1.56,1.17,3.8,1.07,5.09-0.39c2.62-2.98,2.25-7.57,0.08-13.15c25.88,17.18,47.78,36.9,61.57,61.77l-18.07,23.08
				c-70.5-82.51-155.64-117.75-253.74-111.14l5.95-22.21L477.65,118.24z"/>
		</g>
	</g>
	<g class="st3">
		<g>
			<path class="st0" d="M165.88,382.53c-16.02,6.7-18.31,24.12,4.56,61.18c9.32,27.96,26.27,45.31,40.78,43.78
				c2.87-0.3,16-2.14,11.12-5.17c-11.34-7.05-24.57-19.66-33.71-42.96C173.16,418.33,165.89,398.24,165.88,382.53z"/>
		</g>
	</g>
	<g class="st3">
		<g>
			<path class="st0" d="M128.2,344.22c-45.12,24.82-54.82,69.49-25.98,135.74c3.71,7.66,28.06,56.05,77.19,64.7
				c11.88,2.09,22.79,1.43,32-0.27c-66.63-28.02-108.69-83.53-105.97-138.55C106.04,393.63,109.4,370.43,128.2,344.22z"/>
		</g>
	</g>
	<g class="st8">
		<g>
			<path class="st2" d="M170.49,395.04c3.86,0.49,12.43,1.56,23.47,2.91c25.19,3.07,31.42,3.67,37.82,8.53
				c3.73,2.83,9.5,8.6,12.78,20.66c0.77-2.81,1.92-8.56,0.21-15.42c-2.4-9.64-8.87-15.12-11.06-16.81l-63.23-10.34
				C170.49,388.05,170.49,391.55,170.49,395.04z"/>
		</g>
	</g>
	<g class="st8">
		<g>
			<path class="st2" d="M111.65,433.4c-1.85-106.42,86.72-127.45,155.6,13.62c-7.61-42.99-30.47-79.81-82.32-104.89
				C128.2,321.33,99.29,373.25,111.65,433.4z"/>
		</g>
	</g>
	<g class="st8">
		<g>
			<path class="st2" d="M573.54,170.43c-14.43-6.7-35.8-14.47-62.56-16.88c-11.6-1.05-22.19-0.9-31.46-0.17
				c-4.92,0.39-9.42,2.94-12.28,6.96c-8.84,12.43-19.43,30.93-25.35,55.13c-12.35,50.43,3.76,92.06,10.23,106.65
				c-8.81-49.44,6.73-106.75,35.74-138.31C517.09,151.98,564.97,168.37,573.54,170.43z"/>
		</g>
	</g>
	<g class="st8">
		<g>
			
				<ellipse transform="matrix(0.9035 -0.4286 0.4286 0.9035 -45.4986 300.8877)" class="st2" cx="645.4" cy="251.48" rx="24.53" ry="32.2"/>
		</g>
	</g>
	<g class="st8">
		<g>
			<ellipse transform="matrix(0.5 -0.866 0.866 0.5 50.9209 709.9074)" class="st2" cx="640.27" cy="310.85" rx="8.04" ry="10.86"/>
		</g>
	</g>
	<g class="st8">
		<g>
			<path class="st2" d="M463.18,461.76c14.3-12.35,31.59-20.18,59.7-11.64l-31.49-14.66C472.25,439.57,464.94,449.34,463.18,461.76z
				"/>
		</g>
	</g>
	<g>
		<g>
			<ellipse class="st2" cx="199.68" cy="65.87" rx="11.75" ry="11.75"/>
		</g>
	</g>
	<g>
		<g>
			<circle class="st2" cx="303.22" cy="116.24" r="8.31"/>
		</g>
	</g>
	<g>
		<g>
			<circle class="st2" cx="927.01" cy="192.55" r="8.31"/>
		</g>
	</g>
	<g>
		<g>
			<circle class="st2" cx="883.56" cy="649.13" r="8.31"/>
		</g>
	</g>
	<g>
		<g>
			<circle class="st2" cx="261.17" cy="836.83" r="8.31"/>
		</g>
	</g>
	<g>
		<g>
			<ellipse class="st2" cx="70.55" cy="256.98" rx="5.87" ry="5.87"/>
		</g>
	</g>
	<g>
		<g>
			<ellipse class="st2" cx="174.82" cy="237.46" rx="4.34" ry="4.34"/>
		</g>
	</g>
	<g>
		<g>
			<circle class="st2" cx="309.06" cy="256.97" r="2.55"/>
		</g>
	</g>
	<g>
		<g>
			<circle class="st2" cx="357.94" cy="550.89" r="4.34"/>
		</g>
	</g>
	<g>
		<g>
			<g>
				<line class="st9" x1="765.59" y1="861.88" x2="786.82" y2="861.88"/>
			</g>
		</g>
		<g>
			<g>
				<path class="st2" d="M765.59,861.88c6.67-3.17,14.57-3.2,21.24,0C780.16,865.08,772.26,865.06,765.59,861.88L765.59,861.88z"/>
			</g>
		</g>
	</g>
	<g>
		<g>
			<g>
				<line class="st9" x1="777.82" y1="850.85" x2="775.29" y2="871.93"/>
			</g>
		</g>
		<g>
			<g>
				<path class="st2" d="M777.82,850.85c2.36,7,1.44,14.84-2.52,21.08C772.91,864.93,773.87,857.09,777.82,850.85L777.82,850.85z"/>
			</g>
		</g>
	</g>
	<g>
		<g>
			<g>
				<line class="st9" x1="664.86" y1="826.02" x2="686.1" y2="826.02"/>
			</g>
		</g>
		<g>
			<g>
				<path class="st2" d="M664.86,826.02c6.67-3.17,14.57-3.2,21.24,0C679.43,829.22,671.54,829.2,664.86,826.02L664.86,826.02z"/>
			</g>
		</g>
	</g>
	<g>
		<g>
			<g>
				<line class="st9" x1="677.09" y1="814.99" x2="674.57" y2="836.07"/>
			</g>
		</g>
		<g>
			<g>
				<path class="st2" d="M677.09,814.99c2.36,7,1.44,14.84-2.53,21.08C672.19,829.07,673.15,821.24,677.09,814.99L677.09,814.99z"/>
			</g>
		</g>
	</g>
	<g>
		<g>
			<g>
				<line class="st9" x1="891.87" y1="581.91" x2="913.1" y2="581.91"/>
			</g>
		</g>
		<g>
			<g>
				<path class="st2" d="M891.87,581.91c6.67-3.17,14.57-3.2,21.24,0C906.43,585.1,898.54,585.08,891.87,581.91L891.87,581.91z"/>
			</g>
		</g>
	</g>
	<g>
		<g>
			<g>
				<line class="st9" x1="904.1" y1="570.87" x2="901.57" y2="591.95"/>
			</g>
		</g>
		<g>
			<g>
				<path class="st2" d="M904.1,570.87c2.36,7,1.44,14.84-2.52,21.08C899.19,584.95,900.15,577.12,904.1,570.87L904.1,570.87z"/>
			</g>
		</g>
	</g>
	<g>
		<g>
			<g>
				<line class="st9" x1="891.87" y1="228.33" x2="913.1" y2="228.33"/>
			</g>
		</g>
		<g>
			<g>
				<path class="st2" d="M891.87,228.33c6.67-3.17,14.57-3.2,21.24,0C906.43,231.53,898.54,231.51,891.87,228.33L891.87,228.33z"/>
			</g>
		</g>
	</g>
	<g>
		<g>
			<g>
				<line class="st9" x1="904.1" y1="217.3" x2="901.57" y2="238.38"/>
			</g>
		</g>
		<g>
			<g>
				<path class="st2" d="M904.1,217.3c2.36,7,1.44,14.84-2.52,21.08C899.19,231.38,900.15,223.54,904.1,217.3L904.1,217.3z"/>
			</g>
		</g>
	</g>
	<g>
		<g>
			<g>
				<line class="st9" x1="212.8" y1="702.25" x2="234.03" y2="702.25"/>
			</g>
		</g>
		<g>
			<g>
				<path class="st2" d="M212.8,702.25c6.67-3.17,14.57-3.2,21.24,0C227.36,705.45,219.47,705.43,212.8,702.25L212.8,702.25z"/>
			</g>
		</g>
	</g>
	<g>
		<g>
			<g>
				<line class="st9" x1="225.03" y1="691.22" x2="222.5" y2="712.3"/>
			</g>
		</g>
		<g>
			<g>
				<path class="st2" d="M225.03,691.22c2.36,7,1.44,14.84-2.52,21.08C220.12,705.3,221.08,697.46,225.03,691.22L225.03,691.22z"/>
			</g>
		</g>
	</g>
	<g>
		<g>
			<g>
				<line class="st9" x1="242.25" y1="291.7" x2="263.48" y2="291.7"/>
			</g>
		</g>
		<g>
			<g>
				<path class="st2" d="M242.25,291.7c6.67-3.17,14.57-3.2,21.24,0C256.81,294.89,248.92,294.87,242.25,291.7L242.25,291.7z"/>
			</g>
		</g>
	</g>
	<g>
		<g>
			<g>
				<line class="st9" x1="254.48" y1="280.66" x2="251.95" y2="301.74"/>
			</g>
		</g>
		<g>
			<g>
				<path class="st2" d="M254.48,280.66c2.36,7,1.44,14.84-2.52,21.08C249.57,294.74,250.53,286.91,254.48,280.66L254.48,280.66z"/>
			</g>
		</g>
	</g>
	<g>
		<g>
			<path class="st0" d="M614.88,461.52l-7.88-0.74l-0.02-0.26c-4.09-0.51-8.2-1.03-12.29-1.55l-0.29-0.05
				c-26.26-4.82-76.45-19.75-117.52-65.59c-5.41-6.07-52.81-61.42-52.81-138.08c0-40.81,11.87-80.27,34.31-114.13l4.19-2.42
				c21.49-1.32,43.15-0.55,64.36,2.29c15.03,2.01,60.78,8.12,101.99,30.89c25.6,14.15,61.5,41.77,85.48,76.87l-8.97,6.13
				c-22.91-33.53-57.26-59.95-81.76-73.49c-39.42-21.78-83.64-27.69-98.18-29.63c-19.63-2.63-39.65-3.42-59.54-2.37
				c-20.31,31.56-31.03,68.11-31.03,105.87c0,72.63,44.92,125.1,50.05,130.84c38.83,43.33,86.3,57.52,111.24,62.11
				c3.89,0.49,7.78,0.99,11.67,1.47c7.78-1.9,15.56-4.4,23.12-7.46c0.16-0.06,16.29-6.63,30.56-16.15
				c40.84-27.25,57.19-60.85,63.3-78.45l10.26,3.56c-6.56,18.89-24.06,54.9-67.54,83.92c-15.23,10.16-31.83,16.9-32.53,17.18
				c-6.53,2.63-13.2,4.88-19.92,6.72L614.88,461.52z"/>
		</g>
	</g>
	<g>
		<g>
			<path class="st0" d="M674.84,457.35c-2.23,0-4.28-1.38-5.09-3.54c-0.94-2.54,0.13-5.39,2.52-6.68
				c26.31-14.11,47.02-31.61,61.54-52.02c9.41-13.22,16.14-27.61,20-42.77l10.53,2.68c-4.19,16.47-11.49,32.08-21.68,46.39
				c-8.42,11.83-18.74,22.72-30.87,32.59c68.83-30.84,114.58-99.02,115.18-177.2c0.84-107.9-86.22-196.53-194.06-197.58
				c-50.22-0.5-97.38,17.58-134.06,51.17c60.92-0.44,120.45,16.39,168.9,48.13c29.06,19.06,53.61,43.1,70.98,69.52l-9.08,5.97
				c-16.57-25.2-40.04-48.16-67.86-66.41c-50.24-32.92-112.88-49.23-176.38-45.95c-2.23,0.12-4.29-1.14-5.22-3.16
				c-0.93-2.02-0.53-4.4,1-6.01C521.17,70.56,575.04,47.84,633,48.35c113.82,1.11,205.7,94.66,204.82,208.53
				c-0.36,47.02-16.94,92.92-46.67,129.27c-29.32,35.84-70.21,61.08-115.15,71.06C675.62,457.31,675.23,457.35,674.84,457.35z"/>
		</g>
	</g>
	<g>
		<g>
			<g>
				<path class="st0" d="M459.1,148c-3.6-3.53-5.82-8.31-6.26-13.45c-0.96-11.5,7.2-21.7,18.18-22.74c4.63-0.44,9.29-0.78,13.86-1
					l0.52,10.85c-4.4,0.21-8.89,0.53-13.35,0.96c-5.09,0.48-8.85,5.42-8.39,11.01c0.22,2.55,1.3,4.9,3.05,6.61L459.1,148z"/>
			</g>
		</g>
		<g>
			<g>
				<path class="st0" d="M630.96,462.15c-7.97,0-16.06-0.47-24.07-1.39l1.24-10.79c22.04,2.53,44.23,1.37,65.53-3.35l2.35,10.6
					C661.28,460.49,646.12,462.15,630.96,462.15z"/>
			</g>
		</g>
	</g>
	<g>
		<g>
			<path class="st0" d="M750.44,359.22c-31.09,0-56.38-30.51-56.38-68.02s25.29-68.02,56.38-68.02s56.38,30.51,56.38,68.02
				S781.53,359.22,750.44,359.22z M750.44,232.49c-25.95,0-47.07,26.34-47.07,58.71s21.11,58.71,47.07,58.71
				s47.07-26.34,47.07-58.71S776.39,232.49,750.44,232.49z"/>
		</g>
	</g>
	<g>
		<g>
			<path class="st0" d="M760.57,345.77c-23.27,0-42.2-22.85-42.2-50.95s18.93-50.95,42.2-50.95s42.2,22.86,42.2,50.95
				S783.84,345.77,760.57,345.77z M760.57,253.18c-18.14,0-32.89,18.68-32.89,41.64s14.75,41.64,32.89,41.64
				s32.89-18.68,32.89-41.64S778.71,253.18,760.57,253.18z"/>
		</g>
	</g>
	<g>
		<g>
			<path class="st0" d="M499.73,413.61c-19.52-5.25-41.03-1.51-57.7,9.87l-5.25,0.1c-12.26-7.62-32.98-16.25-46.4-22.53
				c-15.34-7.27-31.48-14.59-47.77-19.3c-9.83-2.95-38.17-10.39-46.31-4.71c0.26,9.91,20.02,16.35,27.77,20.86
				c1.86,1.19,3.62,2.72,5.09,5.3c-5,2.37-9.12,0.99-13.83-0.39c-9.09-2.87-17.73-6.62-24.23-14.45c-3.86-4.66-6.31-13.3-1.21-18.12
				c11.04-9.98,42.27-1.19,55.43,2.48c24.39,6.98,49.58,20.26,72.84,30.45c7.95,3.7,15.93,7.45,23.72,12.22l-5.25,0.1
				c18.89-12.92,43.48-16.92,65.51-10.86C502.13,404.61,499.73,413.61,499.73,413.61L499.73,413.61z"/>
		</g>
	</g>
	<g>
		<g>
			<path class="st0" d="M328.76,415.98c1.23,4.71-1.41,8-4.09,11.21c-2.49,3-5.2,5.81-8.21,8.4c-4.92,4.04-10.76,8.4-18.05,7.82
				c-7.32-0.77-9.14-8.01-8.47-13.77c0.59-6.16,2.64-11.93,5-17.45c3.47-7.48,7-14.22,13.34-20.09l6.27,6.88
				c-4.29,4.57-7.84,11.3-10.54,17.22c-2.07,4.66-3.88,9.51-4.62,14.42c-0.21,1.48-0.16,2.93,0.03,3.58
				c0.16,0.47,0.03,0.22-0.16,0.14c0.7,0.46,2.21,0.3,3.8-0.2c6.01-2.08,11.92-6.89,16.6-11.49
				C322.49,419.73,324.34,417.29,328.76,415.98L328.76,415.98z"/>
		</g>
	</g>
	<g>
		<g>
			<path class="st0" d="M358.24,415.6c-4.02,4.01-8.48,6.02-13.04,7.79c-4.52,1.85-8.95,3.88-13.17,6.17
				c-4.93,2.81-17.13,9.75-16.85,15.62c3.14,4.95,16.42,5.02,22.24,5.02c9.53-0.14,19.22-1.4,28.89-2.85
				c2.59-0.7,5.01,1.16,5.42,3.73c1.09,3.76,2.56,6.12,5.67,7.96c6.93,3.85,14.35,1.25,21.95,4.67c-2.69,2.99-5.96,4.27-9.36,4.87
				c-12.33,2.63-25.68-1.97-27.41-15.8l5.42,3.73c-9.92,2.11-20.06,3.52-30.46,3.67c-9.53-0.17-20.69-0.31-28.38-7.33
				c-7.43-7.57-1.16-17.27,5.73-22.24c8.5-6.48,18.11-10.18,27.97-13.56C347.66,415.39,352.7,414.34,358.24,415.6L358.24,415.6z"/>
		</g>
	</g>
	<g>
		<g>
			<path class="st0" d="M322.2,478.19c-2.5,0-4.81-0.54-6.79-1.63c-7.24-3.98-10.25-15.5-7.33-28.01l9.07,2.12
				c-2.19,9.39,0.18,16.33,2.74,17.74c0.99,0.54,3.08,0.78,5.96-0.19c6-2.02,11.56-7.72,14.89-15.23l8.51,3.77
				c-4.37,9.86-12,17.44-20.42,20.29C326.55,477.81,324.31,478.19,322.2,478.19z"/>
		</g>
	</g>
	<g>
		<g>
			<path class="st0" d="M545.61,454.31c-0.77,4.14-3.22,6.41-5.9,9.09c-2.47,2.37-5.06,4.61-8.03,6.25l-5.1-7.79
				c2.52-2.17,5.43-3.75,8.45-5.2C538.5,455.1,541.4,453.68,545.61,454.31L545.61,454.31z"/>
		</g>
	</g>
	<g>
		<g>
			<path class="st0" d="M435.11,505.36c-5.89,0-11.54-0.54-16.94-1.64c-24.6-4.97-50.94-19.07-76.19-40.76l6.07-7.06
				c24.04,20.65,48.93,34.03,71.97,38.69c14.67,2.97,31.64,1.39,50.43-4.69l2.87,8.86C459.73,503.15,446.94,505.36,435.11,505.36z"
				/>
		</g>
	</g>
	<g>
		<g>
			<path class="st0" d="M420.77,503.5l-3.35-8.69c17.1-6.6,22.76-31.06,17.28-74.76l9.24-1.16
				C450.11,468.14,442.74,495.02,420.77,503.5z"/>
		</g>
	</g>
	<g>
		<g>
			<path class="st0" d="M495.18,508.18c-21.39,0-38.79-17.4-38.79-38.79s17.4-38.79,38.79-38.79c21.39,0,38.79,17.4,38.79,38.79
				S516.57,508.18,495.18,508.18z M495.18,439.91c-16.26,0-29.48,13.23-29.48,29.48s13.23,29.48,29.48,29.48
				c16.26,0,29.48-13.23,29.48-29.48S511.44,439.91,495.18,439.91z"/>
		</g>
	</g>
	<g>
		<g>
			<path class="st0" d="M323.14,766.02c-10.4-5.34-19.6-12.55-27.34-21.42c-15.29-17.54-17.28-43.2-4.85-62.41l0.19-0.29
				c0.15-0.23,0.31-0.46,0.46-0.69c3.7-5.5,8.77-9.9,14.73-12.81c7.83-3.85,16.04-7.15,24.38-9.78c11.84-3.75,22.02-4.77,29.46-5.52
				c5.01-0.5,9.35-0.93,11.66-1.99c17.77-8.12,44.16-31.19,63.06-64.4l8.09,4.6c-19.93,35.02-48.15,59.52-67.28,68.27
				c-3.72,1.7-8.52,2.18-14.6,2.79c-7.42,0.74-16.65,1.66-27.57,5.13c-7.9,2.5-15.67,5.62-23.09,9.27c-4.51,2.2-8.32,5.5-11.04,9.55
				c-0.13,0.2-0.32,0.5-0.52,0.78l-0.14,0.21c-10.15,15.69-8.48,36.76,4.09,51.18c6.97,7.98,15.23,14.46,24.58,19.26L323.14,766.02z
				"/>
		</g>
	</g>
	<g>
		<g>
			<path class="st0" d="M380.5,778.34c-13.48,0-25.83-1.5-36.92-4.49l2.42-8.99c16.61,4.48,36.43,5.35,58.91,2.6
				c4.69-0.57,9.24-2.29,13.17-4.96c20.73-14.08,43.13-33.56,70.48-61.28c3.13-3.17,7.62-4.65,12.02-3.95
				c44.92,7.08,83.06,7.24,116.59,0.5c13.43-2.7,26.4-7.28,38.53-13.62c24.82-12.97,45.33-32.79,59.31-57.3
				c16.39-28.75,42.18-85.93,30.85-145.92c-3.83-17.91-12.23-31.68-25.68-41.98l5.67-7.39c15.06,11.55,24.87,27.54,29.14,47.54
				c11.91,63.02-14.86,122.51-31.88,152.37c-14.86,26.07-36.68,47.14-63.09,60.94c-12.92,6.75-26.71,11.63-41.01,14.5
				c-34.64,6.96-73.85,6.82-119.88-0.43c-1.44-0.23-2.91,0.25-3.94,1.29c-27.79,28.17-50.63,48.02-71.88,62.45
				c-5.15,3.5-11.12,5.74-17.27,6.49C397.14,777.8,388.62,778.34,380.5,778.34z"/>
		</g>
	</g>
	<g>
		<g>
			<path class="st0" d="M698.72,469.39c7.34-9.74,23.56-2.18,30.74,4.13c4.3,3.71,7.51,8.34,10.02,13.13
				c21.88,46.12-4.14,120.96-37.72,156.26c-7.36,7.71-15.51,15.18-24.99,20.47c-13.58,4.47-27.83,4.86-41.31,3.33
				c-39.8-5.02-75.96-22.68-112.69-37.27c-0.06-0.02,2.43,0.24,2.42,0.24c-11.35,1.85-22.97,2.85-34.7,2.04
				c-17.86-1.16-36.75-7.57-47.87-22.47c-30.07-41.31,11.81-110.83,63.34-96.35c17.4,4.63,31.76,16.89,43.19,30.02l-2.79-1.56
				c29.54,4.77,59.61,6.12,89.54,4.6l-4.41,4.96c-1.71-10.63,0.73-21.76,5.8-31.17c1.61-3.14,3.94-6.04,8.15-7.41
				c0.78,4.34,0.08,7.4-0.84,10.43c-2.58,9.02-3.44,18.21-3.82,27.54c-0.01,0-4.4,4.97-4.42,4.96c-30.51,1.54-61.24,0.17-91.48-4.71
				l-2.79-1.56c-7.14-8.19-15.13-15.62-24.21-21.01c-13.48-8.11-29.84-10.44-44-3.48c-27.19,13.19-42.45,53.44-23.82,79.16
				c17.07,21.62,48.51,20.77,73.58,16.84l2.44,0.24c41.71,14.25,103.83,45.31,146.85,31.22l-1.28,0.6c7.8-4.9,14.91-11,21.3-17.84
				c6.38-6.86,12.02-14.47,17.01-22.51c19.62-31.36,36.14-85.72,20.41-121c-3.74-7.76-9.92-14.02-18.28-16.27
				C707.21,474,702.66,473.1,698.72,469.39L698.72,469.39z"/>
		</g>
	</g>
	<g>
		<g>
			<path class="st0" d="M669.28,663.42l-6.22-6.92c0.83-0.75,2.54-2.36,4.64-4.75c15.74-17.9,18.24-43.86,6.21-64.6
				c-9.42-16.24-21.88-26.45-39.23-32.13l2.9-8.85c19.38,6.34,33.9,18.22,44.39,36.31c14.04,24.2,11.11,54.51-7.27,75.42
				C672.4,660.5,670.49,662.34,669.28,663.42z"/>
		</g>
	</g>
	<g>
		<g>
			<path class="st0" d="M457.96,641.57c-1.08,0-2.14-0.13-3.16-0.39c-6.29-1.57-10.44-7.62-9.64-14.07l1.89-15.31l9.24,1.14
				l-1.89,15.32c-0.22,1.79,0.93,3.46,2.69,3.9c1.81,0.46,3.68-0.59,4.26-2.34l2.87-8.73l8.84,2.91l-2.87,8.74
				C468.44,638.02,463.52,641.57,457.96,641.57z"/>
		</g>
	</g>
	<g>
		<g>
			
				<rect x="497.51" y="504.23" transform="matrix(0.3128 -0.9498 0.9498 0.3128 -135.5594 830.3945)" class="st0" width="17.17" height="9.31"/>
		</g>
	</g>
	<g>
		<g>
			
				<rect x="445.75" y="502.77" transform="matrix(0.1227 -0.9924 0.9924 0.1227 -95.9608 906.3026)" class="st0" width="37.79" height="9.31"/>
		</g>
	</g>
	<g>
		<g>
			<path class="st0" d="M499.7,703.94l-8.71-3.29c11.62-30.7,4.11-54.76-22.94-73.57l5.31-7.65
				C504,640.73,512.86,669.16,499.7,703.94z"/>
		</g>
	</g>
	<g>
		<g>
			<path class="st0" d="M514.29,867.91c-14.17,0-27.02-4.29-38.36-12.82c-13.46-10.13-19.53-28-15.09-44.48
				c4.55-16.89,12.23-33.09,22.85-48.19c-4.12-7.2-7.4-14.83-9.77-22.73c-1.73-5.79-2.99-11.77-3.72-17.78l9.24-1.14
				c0.67,5.49,1.82,10.95,3.4,16.24c2.43,8.12,5.92,15.93,10.37,23.22L493,765.4c-10.87,14.89-18.67,30.91-23.17,47.62
				c-3.46,12.84,1.24,26.75,11.7,34.62c12.85,9.67,27.43,12.9,44.55,9.87c4.8-0.85,9.22-3.2,12.45-6.62
				c30.62-32.46,58.69-74.74,34.69-142.26l8.77-3.12c25.83,72.67-6.04,119.28-36.69,151.77c-4.59,4.87-10.84,8.2-17.6,9.4
				C523.11,867.5,518.64,867.91,514.29,867.91z"/>
		</g>
	</g>
	<g>
		<g>
			<g>
				<path class="st0" d="M495.27,951.65c-27.75,0-49.91-9.65-64.58-16.03c-15.62-6.8-45.61-22.99-70.99-55.06
					c-30.27-38.24-37.54-74.02-38.31-97.29c-0.28-8.65-0.95-28.9,8.82-51.67c2.38-5.55,7.96-18.54,20.36-31
					c13.72-13.78,28.09-19.26,36.68-22.53l2.11-0.81c19.57-7.59,36.46-14.14,48.13-27.58c4.22-4.87,7.68-10.6,10.28-17.04l1.11-2.76
					l15.16,5.39l0.1,2.08c0.52,10.53-1.44,19.79-5.83,27.54c-10.48,18.5-33.13,27.05-59.35,36.95l-2.31,0.89
					c-7.03,2.68-17.66,6.73-27.38,16.49c-8.85,8.89-13.03,18.63-14.81,22.79c-7.45,17.36-6.94,32.92-6.7,40.39
					c0.64,19.32,6.81,49.18,32.63,81.79c21.82,27.56,47.48,41.43,60.83,47.24c16.56,7.2,41.58,18.09,71.82,12.09
					c33.82-6.71,55.3-30.63,61.08-37.81c8.11-10.06,12.25-19.15,17.49-30.66c6.47-14.2,13.79-30.28,30.27-52.63
					c6.9-9.35,15.16-18.98,28.83-26.11c5.61-2.92,16.42-7.06,45.47-9.22c14-1.04,21.83-0.62,28.12-0.28
					c6.31,0.34,9.78,0.53,17.23-1.03c6.14-1.28,20.49-4.27,33.48-15.26c4.93-4.17,11.06-9.36,14.44-18.54
					c1.06-2.89,4.29-11.67,1.09-21.7c-1.36-4.26-3.66-8.15-6.84-11.57l-1.71-1.84l15.6-22.3l2.62,2.61
					c5.31,5.3,9.59,11.39,12.71,18.09c0.39,0.83,1.74,3.8,2.75,6.97c3.96,12.38,3.47,25.45-1.45,38.83
					c-5.78,15.72-16.03,24.39-22.16,29.57c-18.1,15.31-37.74,19.41-45.14,20.95c-10.81,2.25-16.93,1.93-24.02,1.55
					c-5.58-0.3-12.48-0.66-24.77,0.25c-17.15,1.27-29.98,3.57-35.22,6.3c-9.36,4.88-15.13,12.04-19.8,18.38
					c-14.85,20.13-21.56,34.88-27.49,47.89c-5.54,12.17-10.77,23.65-20.97,36.3c-7.19,8.92-33.96,38.69-76.49,47.13
					C510.65,950.89,502.94,951.65,495.27,951.65z M452.36,637.7c-2.7,5.98-6.11,11.37-10.18,16.05
					c-12.68,14.6-30.24,21.41-50.57,29.3l-2.13,0.82c-8.13,3.1-21.72,8.28-34.5,21.11c-11.56,11.62-16.81,23.85-19.05,29.07
					c-9.23,21.5-8.59,40.78-8.32,49.02c0.73,22.34,7.74,56.72,36.97,93.64c24.55,31.01,53.52,46.65,68.6,53.22
					c14.19,6.18,35.64,15.51,62.1,15.51c7.26,0,14.56-0.72,21.7-2.13c40.48-8.03,66-36.42,72.86-44.94
					c9.71-12.04,14.77-23.17,20.14-34.95c6.06-13.31,12.92-28.37,28.15-49.02c5.08-6.89,11.39-14.7,21.92-20.2
					c7.75-4.04,24.74-6.03,37.63-6.99c12.68-0.94,19.8-0.56,25.53-0.26c6.68,0.36,12.43,0.66,22.45-1.42
					c6.98-1.45,25.5-5.32,42.4-19.61c5.66-4.79,15.13-12.8,20.34-26.98c4.43-12.05,4.89-23.76,1.37-34.8
					c-0.92-2.89-2.21-5.71-2.46-6.24c-2.3-4.93-5.29-9.5-8.92-13.61l-8.46,12.1c2.95,3.62,5.15,7.64,6.54,12
					c3.85,12.06,0.07,22.35-1.17,25.73c-3.94,10.72-11.06,16.74-16.25,21.14c-14.19,12.01-29.63,15.23-36.22,16.6
					c-8.25,1.72-12.46,1.49-18.83,1.15c-6.11-0.33-13.73-0.73-27.33,0.27c-27.9,2.07-37.94,5.86-43.06,8.53
					c-12.55,6.54-20.25,15.54-26.7,24.29c-16.1,21.83-23.28,37.59-29.61,51.5c-5.43,11.92-9.71,21.33-18.32,32
					c-6.11,7.58-28.84,32.88-64.71,40c-32.15,6.38-58.24-4.97-75.51-12.48c-13.89-6.05-40.57-20.46-63.22-49.08
					c-26.86-33.93-33.3-65.19-33.96-85.43c-0.26-7.93-0.8-24.42,7.2-43.05c1.92-4.49,6.43-14.99,16.12-24.72
					c10.66-10.71,22.04-15.05,29.57-17.91l2.32-0.89c25.1-9.48,46.77-17.66,56.14-34.2c3.52-6.21,5.23-13.64,5.1-22.12L452.36,637.7
					z"/>
			</g>
		</g>
	</g>
	<g>
		<g>
			<path class="st0" d="M731.61,735.15c-24.88,0-47.56-9.45-61.71-21.36c-10.08-8.49-15.11-17.45-14.17-25.23l10.78,1.31
				c-0.38,3.11,2.69,9.14,10.38,15.61c17,14.31,48.03,24.58,79.01,15.27c3.48-1.05,6.6-3.31,8.78-6.37
				c37.97-53.22,74.22-115.28,82.29-208.22c0.34-3.95-0.05-7.77-1.17-11.36c-6.75-21.72-27.21-46.34-60.81-73.17
				c-3.41-2.72-7.72-4.22-12.14-4.22h-15.3v-10.86h15.3c6.88,0,13.6,2.34,18.92,6.6c35.82,28.61,56.89,54.27,64.41,78.44
				c1.54,4.95,2.08,10.17,1.62,15.53c-8.29,95.54-45.4,159.12-84.27,213.59c-3.57,5.01-8.72,8.72-14.49,10.46
				C749.8,733.93,740.56,735.15,731.61,735.15z"/>
		</g>
	</g>
	<g>
		<g>
			<path class="st0" d="M769.06,486.98c5.53-5.74,12.32-8.71,19.77-10.57c14.65-3.75,30.83-5,45.52,0.35
				c7.49,2.62,14.4,6.86,20.03,12.18l-6.77,8.49c-5.58-3.56-11.33-6.42-17.4-8.36c-12.61-3.96-26.05-3.63-39.29-1.91
				C783.75,488.19,776.29,488.81,769.06,486.98L769.06,486.98z"/>
		</g>
	</g>
	<g>
		<g>
			<g>
				<path class="st0" d="M721.28,652.23c-2.27,0-4.57-0.07-7.05-0.22c-3.05-0.2-5.89-0.96-8.48-2.27l2.81-5.54
					c1.8,0.91,3.9,1.47,6.06,1.61c2.33,0.14,4.52,0.21,6.66,0.21c21.32,0,41.96-6.6,63.11-20.16c2.96-1.9,4.83-4.63,5.27-7.7
					c0.4-2.83-0.5-5.67-2.53-7.99c-4.65-5.3-13.51-6.35-19.76-2.33c-14.96,9.59-29.06,14.57-43.13,15.23l-0.29-6.2
					c12.95-0.61,26.06-5.27,40.07-14.25c8.72-5.61,21.19-4.05,27.78,3.47c3.24,3.71,4.66,8.31,4,12.95
					c-0.68,4.81-3.62,9.2-8.06,12.05C765.56,645.32,743.82,652.23,721.28,652.23z"/>
			</g>
		</g>
	</g>
	<g>
		<g>
			<path class="st0" d="M593.7,550.5l-8.17-4.46c2.04-3.75,2.38-7.42,1.03-11.24c-4.34-12.29-25.5-26.37-62.9-41.85l3.56-8.6
				c41.06,17,62.71,32.04,68.11,47.35C597.58,538.06,597.03,544.39,593.7,550.5z"/>
		</g>
	</g>
	<g>
		<g>
			<path class="st0" d="M553.29,546.71l-8.46-3.88c9.14-19.97,24.46-26.98,44.28-20.28l-2.98,8.82
				C570.88,526.23,560.45,531.1,553.29,546.71z"/>
		</g>
	</g>
	<g>
		<g>
			<path class="st0" d="M495.35,502.2l-3.05-0.58c3.86-20.23,13.2-37.92,27.77-52.59l2.2,2.19
				C508.15,465.44,499.09,482.59,495.35,502.2z"/>
		</g>
	</g>
	<g>
		<g>
			<path class="st0" d="M481.63,498.89c-1.21-6.62-2.86-23.77,7.8-39.89c6.43-9.72,14.85-15.28,20.77-18.22l1.38,2.78
				c-5.59,2.78-13.51,8.01-19.57,17.16c-10.04,15.18-8.47,31.37-7.34,37.62L481.63,498.89z"/>
		</g>
	</g>
	<g>
		<g>
			<path class="st0" d="M469.02,490.17c-1.17-6.35-2.76-22.76,7.87-37.95c6.54-9.35,15.02-14.35,20.98-16.9l1.22,2.85
				c-5.59,2.39-13.54,7.08-19.66,15.83c-9.95,14.23-8.46,29.64-7.36,35.61L469.02,490.17z"/>
		</g>
	</g>
	<g>
		<g>
			<path class="st0" d="M525.19,476.18c-8.6-18.76-24.81-29.09-48.16-30.72l0.21-3.1c24.57,1.71,41.65,12.65,50.76,32.52
				L525.19,476.18z"/>
		</g>
	</g>
	<g>
		<g>
			<path class="st0" d="M521.97,485.25c-10.59-17.82-30.39-32.23-50.44-36.71l0.68-3.03c20.84,4.66,41.42,19.63,52.43,38.16
				L521.97,485.25z"/>
		</g>
	</g>
	<g>
		<g>
			<path class="st0" d="M518.83,489.66c-11.7-13.72-36.61-30.19-52.26-34.55l0.83-2.99c16.42,4.58,41.55,21.18,53.79,35.53
				L518.83,489.66z"/>
		</g>
	</g>
	<g>
		<g>
			<path class="st0" d="M512.84,496.55c-13.72-15.31-30.4-26.2-51-33.32l1.01-2.93c21.11,7.29,38.22,18.47,52.3,34.18L512.84,496.55
				z"/>
		</g>
	</g>
	<g>
		<g>
			<path class="st0" d="M498.22,502.53c-5.92-13.49-22.74-21.21-35.35-23.74l0.61-3.04c13.34,2.67,31.18,10.95,37.58,25.53
				L498.22,502.53z"/>
		</g>
	</g>
	<g>
		<g>
			<path class="st0" d="M199.25,550.74c-35.73,0-74.73-24.26-98.23-64.97c-31.74-54.97-23.37-119.44,18.65-143.7
				c20.54-11.86,45.84-12.48,71.26-1.74c25.04,10.58,47.24,30.98,62.52,57.44c31.74,54.97,23.37,119.44-18.65,143.7
				C223.89,547.76,211.77,550.74,199.25,550.74z M155.38,340.47c-11.43,0-22.24,2.77-31.83,8.31
				c-38.32,22.12-45.41,81.83-15.81,133.1c22.07,38.23,58.42,61.14,91.37,61.14c11.23,0,22.07-2.66,31.81-8.29
				c38.32-22.12,45.41-81.83,15.81-133.1l0,0c-14.44-25.01-35.33-44.24-58.82-54.17C176.85,342.8,165.85,340.47,155.38,340.47z"/>
		</g>
	</g>
	<g>
		<g>
			<path class="st0" d="M219.52,544.31c-36.5,0-74.71-24.99-97.85-65.04c-31.73-54.97-23.36-119.44,18.66-143.71
				c1.13-0.66,2.15-1.21,3.13-1.69l3.42,6.96c-0.81,0.4-1.68,0.87-2.66,1.44c-38.32,22.14-45.42,81.85-15.83,133.12
				c21.47,37.17,57.95,61.14,91.47,61.14c3.19,0,6.35-0.22,9.47-0.66l1.09,7.68C226.83,544.06,223.18,544.31,219.52,544.31z"/>
		</g>
	</g>
	<g>
		<g>
			<path class="st0" d="M210.78,493.65c-10.83,0-22.34-8.45-29.53-21.77l-26.32-48.71c-7.38-13.65-7.99-28.29-1.57-37.3
				c4.04-5.67,10.54-8.23,17.83-7.03l48.68,8.02c11.18,1.84,20.69,8.62,26.08,18.59s5.85,21.64,1.26,32l-19.97,45.12
				c-2.99,6.76-8.7,10.79-15.65,11.06C211.32,493.64,211.05,493.65,210.78,493.65z M167.63,386.3c-3.35,0-6.01,1.37-7.95,4.08
				c-3.74,5.25-4.69,16.59,2.07,29.11l26.32,48.71c6.76,12.52,16.8,17.95,23.21,17.69c4.06-0.16,7.04-2.33,8.86-6.45l19.97-45.12
				c3.61-8.15,3.25-17.33-0.99-25.17c-4.24-7.84-11.71-13.18-20.51-14.62l-48.68-8.02C169.14,386.36,168.37,386.3,167.63,386.3z"/>
		</g>
	</g>
	<g>
		<g>
			<path class="st0" d="M223.74,483.82c-10.23-1.12-20.68-9.41-27.29-21.64l-26.32-48.71c-6.01-11.14-7.58-23.21-4.19-32.29
				l7.27,2.71c-2.58,6.91-1.14,16.84,3.75,25.9l26.32,48.71c5.33,9.87,13.7,16.78,21.31,17.62L223.74,483.82z"/>
		</g>
	</g>
</g>
</svg>
