<?xml version="1.0" encoding="utf-8"?>
<!-- Generator: Adobe Illustrator 25.0.0, SVG Export Plug-In . SVG Version: 6.00 Build 0)  -->
<svg version="1.1" id="Layer_1" xmlns="http://www.w3.org/2000/svg" xmlns:xlink="http://www.w3.org/1999/xlink" x="0px" y="0px"
	 viewBox="0 0 1000 1000" style="enable-background:new 0 0 1000 1000;" xml:space="preserve">
<style type="text/css">
	.st0{fill:#FFD243;}
	.st1{fill:#FCAC38;}
	.st2{fill:#371A45;}
	.st3{opacity:0.25;}
	.st4{fill:#6B184E;}
	.st5{fill:#FFFFFF;}
	.st6{fill:#22A7F0;}
	.st7{clip-path:url(#SVGID_2_);}
	.st8{opacity:0.3;}
	.st9{opacity:0.3;clip-path:url(#SVGID_4_);}
	.st10{fill:#220F2D;}
	.st11{opacity:0.5;}
</style>
<g>
	<g>
		<g>
			<g>
				<path class="st0" d="M818.79,642.16c-1.37,12.47-3.5,24.95-6.38,37.34c-6.61,28.48-17.23,56.52-32.15,83.36
					c-86.02,154.77-281.2,210.52-435.97,124.52C221.04,818.9,160.6,681.17,184.5,549.78c6.12-33.64,17.75-66.85,35.27-98.38
					c11.94-21.47,25.97-41.03,41.7-58.59c20.34-22.66,43.53-41.97,68.69-57.64c7.17-4.48,14.51-8.67,22-12.55
					c40.3-20.9,84.68-33.08,130.06-35.63c0.4-0.01,0.81-0.05,1.19-0.07c2.78-0.15,5.56-0.27,8.35-0.34
					c5.55-0.15,11.09-0.15,16.62-0.01c37.65,0.95,75.53,8.57,111.88,23.36c12.02,4.86,23.87,10.51,35.48,16.96
					c2.5,1.41,4.98,2.81,7.42,4.27c1.48,0.86,2.94,1.76,4.39,2.66c27.2,16.63,51.08,36.75,71.4,59.45
					C799.74,461.14,828.63,552.13,818.79,642.16z"/>
			</g>
		</g>
		<g>
			<g>
				<path class="st1" d="M344.29,887.37c154.78,86,349.96,30.26,435.98-124.52c14.91-26.83,25.55-54.87,32.15-83.34
					c2.89-12.39,5.01-24.87,6.37-37.35c2.43-22.23,2.5-44.52,0.32-66.52c-0.11,1.02-0.21,2.03-0.32,3.05
					c-1.37,12.48-3.48,24.96-6.37,37.35c-6.6,28.47-17.24,56.51-32.15,83.34C694.25,854.16,499.07,909.9,344.29,823.9
					c-95.49-53.06-153.28-147.68-163.34-248.73C168.63,698.6,228.97,823.28,344.29,887.37z"/>
			</g>
		</g>
		<g>
			<g>
				<path class="st1" d="M695.05,642.28c-8.75,39.07,3.23,70.69,26.77,70.63c23.54-0.06,51.84-30.77,60.6-69.84
					s-5.36-71.69-28.9-71.63C729.98,571.5,703.8,603.21,695.05,642.28z"/>
			</g>
		</g>
		<g>
			<g>
				<path class="st2" d="M677.14,616.08c-13.77,28.89-12.13,64.64,4.74,91.7c5.64,8.79,13.56,16.09,23.95,19.31
					c0.93,0.29,1.45,1.28,1.16,2.21c-0.24,0.76-0.94,1.24-1.69,1.24c-6.01-0.04-12.06-1.98-17.39-5.01
					c-35.23-21.82-41.68-81.62-14.34-111.89C675.23,611.78,678.27,613.85,677.14,616.08L677.14,616.08z"/>
			</g>
		</g>
		<g>
			<g>
				
					<ellipse transform="matrix(0.998 -0.064 0.064 0.998 -25.8636 23.5383)" class="st1" cx="354.5" cy="415.49" rx="31.86" ry="27.18"/>
			</g>
		</g>
		<g>
			<g>
				
					<ellipse transform="matrix(0.9378 -0.3471 0.3471 0.9378 -124.9204 151.8824)" class="st0" cx="361.5" cy="424.64" rx="23.94" ry="19.32"/>
			</g>
		</g>
		<g>
			<g>
				<path class="st2" d="M355.5,446.92c-11.38,2.32-23.7-0.99-32.22-9.13c-21.35-21.43-5.23-52.7,22-57.7
					c19.59-4.23,43.64,6.98,46.77,28.15c1.28,8.05-1.41,16.27-6.33,21.72c-1.79,2.02-5.1-0.04-4.16-2.5
					c4.64-10.63,0.52-23.1-9.65-28.56c-9.13-5.42-21.51-5.25-30.6-0.35c-8.77,4.6-14.66,14.02-11.75,23.73
					c3.2,10.53,14.58,17.04,25.7,18.6C358.67,441.29,358.83,446.24,355.5,446.92L355.5,446.92z"/>
			</g>
		</g>
		<g>
			<g>
				<path class="st2" d="M396.9,395.33c17.38,17.88,10.48,46.44-8.93,60.03c-24.14,18.16-64.14,13.35-79.3-14.02
					c-3.53-6.59-5.14-14.17-4.23-21.24c0.17-1.35,1.41-2.31,2.76-2.14c1.09,0.14,1.91,0.96,2.11,1.98
					c1.41,6.07,4.14,11.37,7.85,15.72c18.55,21.37,57.48,18.92,72.9-4.78c6.22-9.39,6.66-21.82,1.86-32.1
					C390.48,395.71,394.54,392.91,396.9,395.33L396.9,395.33z"/>
			</g>
		</g>
		<g>
			<g>
				<path class="st2" d="M268.2,488.41c19.53,1.84,37.32,14.42,46.75,31.5c19.73,34.83,6.98,81.46-23.21,105.97
					c-14.65,12.29-34.07,19.63-53.18,18.09c-2.09-0.22-2.1-3.24,0-3.43c17.9-1.66,34.33-9.84,46.91-21.77
					c31.32-28.93,39.65-84.64,4.92-114.09c-6.56-5.54-14.44-9.65-22.97-12.1C264.95,491.91,265.64,488.16,268.2,488.41L268.2,488.41
					z"/>
			</g>
		</g>
		<g>
			<g>
				
					<ellipse transform="matrix(0.1745 -0.9847 0.9847 0.1745 -352.6748 710.6893)" class="st1" cx="247.51" cy="565.68" rx="55.28" ry="45.82"/>
			</g>
		</g>
		<g>
			<g>
				<path class="st0" d="M245.87,612.9c16.3,0.19,32.87-10.9,41.39-29.54c11.33-24.83,4.07-53.66-16.21-64.4
					c-2.86-1.52-5.83-2.59-8.86-3.24c-11.97,4.88-22.69,15.11-29.19,29.34C221.49,570.28,227.38,599.25,245.87,612.9z"/>
			</g>
		</g>
		<g>
			<g>
				<path class="st2" d="M202.94,545.45c8.18-20.34,29.98-36.02,52.56-33.77c24.81,1.99,41.43,24.8,40.72,48.7
					c-0.27,10.66-3.39,21.18-8.87,30.29c-11.79,19.83-36.58,33.2-59.49,26.07c-5.36-1.7-10.38-4.41-14.57-8.05
					c-4.22-3.59-7.55-8.08-9.92-12.9c-0.42-0.85-0.06-1.88,0.79-2.3c0.77-0.38,1.69-0.12,2.17,0.56
					c7.47,11.01,20.6,17.6,33.82,16.44c24.91-1.78,44.61-26.12,44.62-50.25c0.49-24.62-19.52-43.35-44.1-37.99
					c-14.27,2.97-26.14,12.64-33.94,25.12C205.39,549.6,201.95,547.85,202.94,545.45L202.94,545.45z"/>
			</g>
		</g>
		<g>
			<g>
				<path class="st2" d="M627.05,550.84c4.48,24.94-2.47,51.99-18.46,71.81c-43.5,54.1-128.42,43.95-165.62-11.96
					c-6.98-10.51-12.09-22.21-14.77-34.36c-0.2-0.93,0.38-1.84,1.31-2.05c0.86-0.19,1.71,0.3,1.99,1.11
					c8.06,22.42,23.37,41.75,43.18,54.67c45.32,29.57,108.21,20.5,136.11-28c8.81-15.32,12.67-32.97,12.03-50.77
					C622.7,548.72,626.57,548.23,627.05,550.84L627.05,550.84z"/>
			</g>
		</g>
		<g>
			<g>
				
					<ellipse transform="matrix(0.9626 -0.2709 0.2709 0.9626 -130.8244 163.2772)" class="st1" cx="526.04" cy="555.53" rx="70.49" ry="64.27"/>
			</g>
		</g>
		<g>
			<g>
				<path class="st0" d="M468.22,573.29c5.98,21.97,25.74,39.55,51.58,43.11c34.41,4.73,66.58-17.19,71.87-48.96
					c0.75-4.49,0.92-8.93,0.55-13.27c-10.47-14.01-26.97-24.09-46.68-26.82C510.59,522.55,477.73,542.69,468.22,573.29z"/>
			</g>
		</g>
		<g>
			<g>
				<path class="st2" d="M533.72,487.14c29.79,2.71,56.42,27.32,61.73,57.01c6.61,31.7-12.59,64.52-43.4,74.43
					c-46.09,15.58-96.97-20.51-95.93-69.38c0.26-7.49,1.68-14.92,4.51-21.78c2.77-6.87,6.84-13.14,11.87-18.34
					c0.94-0.97,2.49-1,3.46-0.06c0.87,0.84,0.98,2.18,0.31,3.15c-27.79,40.82,5.21,94.38,52.76,94
					c32.1-0.04,56.81-27.78,52.14-59.67c-3.29-25.36-23.63-46.69-48.54-53.4C529.08,492.1,530.05,486.81,533.72,487.14
					L533.72,487.14z"/>
			</g>
		</g>
		<g>
			<g>
				<g>
					<path class="st0" d="M344.42,735.58c-15.09,7.94-26.86,19.53-33.45,34.32c-11.93,26.81-3.48,56.43,18.34,82.51
						c14.31,17.11,34.64,32.01,59.33,42.02c62.32,25.25,128.86,9.74,148.61-34.66c7.35-16.52,7.19-34.71,0.88-52.34
						c-10.65-29.75-47.36-38.71-86.49-54.57"/>
				</g>
			</g>
			<g>
				<g>
					<path class="st2" d="M312.92,770.77c-9.99,25.32-0.23,53.04,16.19,73.38c33.18,41.14,89.77,62.85,142.01,55.78
						c26.01-3.76,52.1-16.63,64.58-40.85c0.91-1.86,3.9-0.66,3.13,1.4c-5,13.39-14.78,24.78-26.53,32.86
						c-65.1,42.71-169.5,7.17-202.13-61.65c-6.09-13.03-9.4-27.78-7.49-42.17c0.91-7.14,3.1-14.09,6.36-20.47
						c0.53-1.05,1.82-1.47,2.87-0.94C312.88,768.6,313.31,769.76,312.92,770.77L312.92,770.77z"/>
				</g>
			</g>
			<g>
				<g>
					
						<ellipse transform="matrix(0.2558 -0.9667 0.9667 0.2558 -471.6062 1016.0418)" class="st1" cx="424.13" cy="814.34" rx="67.22" ry="92.49"/>
				</g>
			</g>
			<g>
				<g>
					
						<ellipse transform="matrix(0.1763 -0.9843 0.9843 0.1763 -467.0076 1107.974)" class="st0" cx="428.53" cy="833.03" rx="49.44" ry="78.4"/>
				</g>
			</g>
			<g>
				<g>
					<path class="st2" d="M483.86,873.09c22.6-12.92,32.55-37.83,22.85-62.25c-15.53-38.32-59.24-60.28-99.13-61.46
						c-31.43-1.28-68.18,15.18-68.53,50.49c0.69,34.1,29.55,60.1,58.78,73.76c1.96,0.9,0.74,3.89-1.29,3.18
						c-32.79-11.55-65.41-39.67-66.97-76.84c-1.08-30.28,23.16-52.62,51.08-59.01c26.52-6.57,55.02-2.01,79.45,9.45
						c16.28,7.76,31.25,18.88,42.28,33.28c17.39,21.91,23.53,53.68,4.77,76.76c-5.7,7.09-13.16,12.57-21.31,16.4
						C483.35,877.97,481.56,874.46,483.86,873.09L483.86,873.09z"/>
				</g>
			</g>
		</g>
		<g>
			<g>
				<g>
					<path class="st0" d="M622.17,431.18c11.25-7.4,19.63-17.42,23.67-29.56c7.32-22-1.6-44.64-20.76-63.48
						c-12.57-12.36-29.7-22.51-49.89-28.48c-50.95-15.07-102.09,2.24-114.21,38.67c-4.51,13.56-2.99,27.85,3.33,41.23
						c10.66,22.58,35.32,41.27,67.32,50.73c0,0,23.86,5.84,48.89,3.03C605.55,440.51,622.17,431.18,622.17,431.18z"/>
				</g>
			</g>
			<g>
				<g>
					<path class="st2" d="M643.78,400.94c5.45-20.71-4.35-40.97-18.74-55.54c-21.85-22.24-53.07-34.2-83.97-35.57
						c-30.17-1.3-65.53,9.23-78.44,39.07c-0.8,1.93-3.83,0.97-3.31-1.12c2.75-10.98,9.52-20.94,18.21-28.41
						c44.07-36.09,118.85-22.21,154.98,19.16c15.18,16.65,24.81,41.92,15.39,63.77C646.81,404.76,643.16,403.53,643.78,400.94
						L643.78,400.94z"/>
				</g>
			</g>
			<g>
				<g>
					
						<ellipse transform="matrix(0.1606 -0.987 0.987 0.1606 93.9913 861.4094)" class="st1" cx="553.45" cy="375.44" rx="53.11" ry="73.08"/>
				</g>
			</g>
			<g>
				<g>
					
						<ellipse transform="matrix(0.0798 -0.9968 0.9968 0.0798 144.887 878.9635)" class="st0" cx="548.51" cy="361.01" rx="39.06" ry="61.95"/>
				</g>
			</g>
			<g>
				<g>
					<path class="st2" d="M502.22,334.16c-23.54,17.51-21.39,45.57-1.36,64.96c18.2,17.82,45.24,26.56,70.49,24.76
						c24.11-1.3,51.31-16.6,49.04-43.55c-3-26.41-27.27-44.49-50.94-53.24c-2.03-0.75-1.1-3.83,1-3.35
						c27.06,6.27,55.32,26.08,59.53,55.55c3.4,24.19-14.38,44.36-36.29,51.66c-20.62,7.35-43.72,5.92-64.06-1.33
						c-20.36-7.42-39.37-21.39-48.44-41.62c-7.98-17.29-4.58-38.47,9.95-51.16c2.69-2.43,5.64-4.49,8.7-6.29
						c1.03-0.61,2.36-0.26,2.97,0.77C503.38,332.28,503.1,333.51,502.22,334.16L502.22,334.16z"/>
				</g>
			</g>
		</g>
		<g>
			<g>
				
					<ellipse transform="matrix(0.3213 -0.947 0.947 0.3213 -110.8675 1125.0569)" class="st0" cx="729.45" cy="639.87" rx="62.22" ry="32.44"/>
			</g>
		</g>
		<g>
			<g>
				<path class="st2" d="M778.84,592.16c-10.24-16.89-28.44-18.68-44.07-7.99c-24.06,16.6-37.52,48.17-38.62,76.88
					c-1.06,21.28,8.8,49.51,34.89,44.12c23.4-5.94,39.09-28.46,48.53-49.67c0.85-1.99,3.88-0.91,3.29,1.16
					c-7.17,24.47-23.62,50.32-49.57,57.88c-24.02,6.48-42.08-11.25-46.8-33.61c-4.47-19.73-1.11-40.47,6.24-58.91
					c7.62-18.38,19.7-35.57,37.12-45.88c19.59-11.62,42.92-8.04,52.8,13.98C783.76,592.62,780.26,594.43,778.84,592.16
					L778.84,592.16z"/>
			</g>
		</g>
		<g>
			<g>
				<path class="st2" d="M499.54,933.64c-54.74,0-108.88-13.91-158.05-41.23c-122.32-67.97-187.68-206.08-162.65-343.67
					c6.38-35.04,18.45-68.74,35.9-100.14c26.88-48.36,65.74-89.27,112.37-118.31c7.23-4.53,14.77-8.83,22.4-12.78
					c40.78-21.16,86.56-33.7,132.39-36.27l0.56-0.03c0.24-0.01,0.48-0.03,0.72-0.04c2.97-0.16,5.76-0.27,8.45-0.34
					c5.49-0.15,11.18-0.16,16.89-0.02c39.24,0.99,77.57,8.99,113.91,23.78c12.28,4.97,24.43,10.78,36.11,17.27
					c2.56,1.44,5.06,2.84,7.58,4.35c1.47,0.86,2.98,1.78,4.47,2.71c53.52,32.73,96.21,79.91,123.4,136.41
					c26.62,55.29,37.17,116.66,30.52,177.45c-1.38,12.66-3.57,25.45-6.49,38.02c-6.86,29.59-17.87,58.13-32.73,84.85
					C742.94,841.85,673.46,897,589.64,920.94C559.91,929.44,529.63,933.64,499.54,933.64z M500.32,292.23
					c-2.83,0-5.64,0.04-8.4,0.11c-2.59,0.06-5.26,0.17-8.19,0.33l-0.55,0.03c-0.24,0.01-0.49,0.03-0.73,0.04
					c-44.13,2.47-88.3,14.58-127.65,34.99c-7.36,3.81-14.63,7.96-21.6,12.33c-44.99,28.02-82.47,67.49-108.41,114.14
					c-16.83,30.3-28.48,62.8-34.63,96.61c-24.14,132.74,38.92,265.97,156.92,331.55c48.3,26.84,100.7,39.58,152.4,39.58
					c110.72,0,218.27-58.42,275.76-161.87c14.33-25.78,24.96-53.32,31.58-81.86c2.82-12.13,4.92-24.47,6.26-36.67l0,0
					c13.2-120.7-45.09-239.56-148.52-302.81c-1.44-0.89-2.86-1.76-4.29-2.6c-2.44-1.46-4.86-2.82-7.33-4.21
					c-11.25-6.26-22.97-11.86-34.83-16.65c-35.07-14.27-72.03-21.98-109.87-22.94C505.58,292.26,502.94,292.23,500.32,292.23z"/>
			</g>
		</g>
	</g>
	<g class="st3">
		<g>
			<path class="st4" d="M284.08,452.8c0,0,22.15,47.87,63.14,56.41c40.99,8.54,67.71,9.13,67.71,9.13l35.05,20.79v43.77
				c0,0,9.87,35.77,30.59,47.71c20.72,11.94,49.52,10.07,49.52,10.07l-7.94,35.08c0,0,7.72,61.18,68.02,68.6
				c27.92,3.27,42.77-3.56,42.77-3.56s20.78,13.26,38.02,11.29c17.24-1.97,3.52-68.02,3.52-68.02s-33.29-98.92-59.1-115.99
				S509.54,504,509.54,504s-136.91-74.05-141.9-69.36C362.67,439.34,284.08,452.8,284.08,452.8z"/>
		</g>
	</g>
	<g>
		<g>
			<g>
				<path class="st5" d="M600.08,258.59c18.39,9.46,56.83,24.32,55.48,54.59c-1.35,30.27-38.62,83.01-38.62,83.01l9.46,15.2
					c0,0,6.42-0.68,8.78,0.68c2.36,1.35,12.5,20.94,11.82,24.32s-6.42,7.17-6.42,7.17c43.92,65.54,76.68,154.64,82.09,184.37
					s-8.78,76.35-8.78,76.35s9.46,19.59-4.39,36.82c-13.85,17.23-63.17,8.45-73.31-18.24c-10.13-26.69,3.04-79.05,3.04-79.05
					l-10.13-2.03c-2.7,18.24-8.11,31.75-8.11,31.75s11.49,9.12,11.15,27.36c-0.34,18.24-11.26,32.43-40.09,30.18
					s-59.91-26.12-64.86-43.69s4.95-68.46,4.95-68.46s-34.68,5.86-59-10.81s-45.55-76.46-45.55-76.46s-6.75,2.34-8.61,1.69
					c-13.51-4.73-10.47-21.28-10.47-22.8c0-1.52,6.42-8.28,6.42-8.28l-3.38-6.08c-37.5,0.68-103.03-7.77-119.51-35.13
					c-16.47-27.36,3.97-93.24,3.97-93.24c1.46-5.18,13.54-45.63,50.11-54.64c51.57-12.7,30.4,51.03,27.66,79.77
					c-1.12,11.75-6.02,23.51-6.02,23.51c11.28-14.19,23.68-18.62,23.68-18.62s148.36-28.45,161.43-64.71
					c13.06-36.26-33.33-44.36-22.07-72.29S600.08,258.59,600.08,258.59z"/>
			</g>
		</g>
		<g>
			<g>
				<circle class="st6" cx="576.73" cy="438.92" r="13.51"/>
			</g>
		</g>
		<g>
			<g>
				<defs>
					<path id="SVGID_1_" d="M600.08,258.59c18.39,9.46,56.83,24.32,55.48,54.59c-1.35,30.27-38.62,83.01-38.62,83.01l9.46,15.2
						c0,0,6.42-0.68,8.78,0.68c2.36,1.35,12.5,20.94,11.82,24.32s-6.42,7.17-6.42,7.17c43.92,65.54,76.68,154.64,82.09,184.37
						s-8.78,76.35-8.78,76.35s9.46,19.59-4.39,36.82c-13.85,17.23-63.17,8.45-73.31-18.24c-10.13-26.69,3.04-79.05,3.04-79.05
						l-10.13-2.03c-2.7,18.24-8.11,31.75-8.11,31.75s11.49,9.12,11.15,27.36c-0.34,18.24-11.26,32.43-40.09,30.18
						s-59.91-26.12-64.86-43.69s4.95-68.46,4.95-68.46s-34.68,5.86-59-10.81s-45.55-76.46-45.55-76.46s-6.75,2.34-8.61,1.69
						c-13.51-4.73-10.47-21.28-10.47-22.8c0-1.52,6.42-8.28,6.42-8.28l-3.38-6.08c-37.5,0.68-103.03-7.77-119.51-35.13
						c-16.47-27.36,3.97-93.24,3.97-93.24c1.46-5.18,13.54-45.63,50.11-54.64c51.57-12.7,30.4,51.03,27.66,79.77
						c-1.12,11.75-6.02,23.51-6.02,23.51c11.28-14.19,23.68-18.62,23.68-18.62s148.36-28.45,161.43-64.71
						c13.06-36.26-33.33-44.36-22.07-72.29S600.08,258.59,600.08,258.59z"/>
				</defs>
				<clipPath id="SVGID_2_">
					<use xlink:href="#SVGID_1_"  style="overflow:visible;"/>
				</clipPath>
				<g class="st7">
					<g class="st8">
						<g>
							<path class="st2" d="M321.46,326.15c0,0-20.39,64.64-16,109.23c4.39,44.59,98.64,39.74,98.64,39.74l5.68,16.19l-5,3.52
								c0,0-75.87,2.23-102.37-22.78c-26.5-25.02-17.22-62.51-10.38-92.07C298.88,350.41,321.46,326.15,321.46,326.15z"/>
						</g>
					</g>
					<g class="st8">
						<g>
							<path class="st2" d="M412.38,512.06c0,0,2.03,5.07,13.51,5.91s49.22-15.43,49.22-15.43s1.96,8.16,2.13,9.18
								c0.17,1.01-4.22,4.05-4.22,4.05s-50.5,19.26-54.05,17.57s-7.43-18.75-7.43-18.75L412.38,512.06z"/>
						</g>
					</g>
					<g class="st8">
						<g>
							<path class="st2" d="M453.77,470.17c0,0,19.59,14.45,32.77,17.53l2.83,1.59c0,0,20.92,8.98,60.05,0s73.93-28.4,73.93-28.4
								l-10.2-21.97c0,0,12.23-4.45,20.11-8.73s8.37-7.9,8.37-7.9s4.11,8.97,4.33,9.58c0.22,0.61,0,3.5,0,3.5l-5.38,5.75
								l-17.32,9.75l0.93,4.6l4.64,9.8l-1.07,13.03c0,0-1.48,10.7-10.49,20.59c-9.01,9.9-55.4,31.65-55.4,31.65l-33.11,2.9
								c0,0-10.97,5.89-20.8,16.69c-9.83,10.79-9.6,39.28,10.66,43.56c20.27,4.28,35.13,3.38,37.84,18.02s-13.29,47.52-5.18,72.74
								s54.5,45.49,74.99,28.15c0,0,4.09,20.95-38.94,17.91c-43.03-3.04-58.8-34.57-62.4-51.01s10.54-59.26,5.72-60.37
								s-46.64,7.97-70.32-23.71s-31.13-59.43-31.13-59.43l-2.38-3.58c0,0,43.49-17.31,44.17-17.65s5.9-3.2,5.48-6.5
								c-0.43-3.29-9.42-21.88-9.42-21.88l-8.9,0.56c0,0-4.28-8.84-5.18-12.64C452.08,470.51,453.77,470.17,453.77,470.17z"/>
						</g>
					</g>
					<g class="st8">
						<g>
							<path class="st2" d="M587.54,533.44c1.01-0.1,37.67,17.29,43.75,25.23s21.7-6.06,21.7-6.06s-5.8,12.37-9.87,19.35
								s-4.07,6.98-4.07,6.98s17.86,35.94,17.06,56.75s-10.13,68.58-1.69,85.47c8.45,16.89,45.19,28.02,61.78,6.07
								c0,0-4.52,25.51-37.46,21.21s-44-21.03-46.53-40.79c-2.53-19.76,5.06-49.18,3.46-56.72c-1.6-7.54-4.6-11.69-4.6-11.69
								s4.2-20.62,0.98-35.64s-4.8-34.21-20.07-47.09C596.72,543.64,587.54,533.44,587.54,533.44z"/>
						</g>
					</g>
					<g class="st8">
						<g>
							<path class="st2" d="M600.33,375.31c0,0,58.76-44.21,45.73-85.2c0,0,14.68,7.33,7.02,36.88s-33.52,62.44-33.52,62.44
								s-8.49-1.1-8.83-1.54C610.39,387.46,600.33,375.31,600.33,375.31z"/>
						</g>
					</g>
				</g>
			</g>
			<g>
				<defs>
					<path id="SVGID_3_" d="M600.08,258.59c18.39,9.46,56.83,24.32,55.48,54.59c-1.35,30.27-38.62,83.01-38.62,83.01l9.46,15.2
						c0,0,6.42-0.68,8.78,0.68c2.36,1.35,12.5,20.94,11.82,24.32s-6.42,7.17-6.42,7.17c43.92,65.54,76.68,154.64,82.09,184.37
						s-8.78,76.35-8.78,76.35s9.46,19.59-4.39,36.82c-13.85,17.23-63.17,8.45-73.31-18.24c-10.13-26.69,3.04-79.05,3.04-79.05
						l-10.13-2.03c-2.7,18.24-8.11,31.75-8.11,31.75s11.49,9.12,11.15,27.36c-0.34,18.24-11.26,32.43-40.09,30.18
						s-59.91-26.12-64.86-43.69s4.95-68.46,4.95-68.46s-34.68,5.86-59-10.81s-45.55-76.46-45.55-76.46s-6.75,2.34-8.61,1.69
						c-13.51-4.73-10.47-21.28-10.47-22.8c0-1.52,6.42-8.28,6.42-8.28l-3.38-6.08c-37.5,0.68-103.03-7.77-119.51-35.13
						c-16.47-27.36,3.97-93.24,3.97-93.24c1.46-5.18,13.54-45.63,50.11-54.64c51.57-12.7,30.4,51.03,27.66,79.77
						c-1.12,11.75-6.02,23.51-6.02,23.51c11.28-14.19,23.68-18.62,23.68-18.62s148.36-28.45,161.43-64.71
						c13.06-36.26-33.33-44.36-22.07-72.29S600.08,258.59,600.08,258.59z"/>
				</defs>
				<clipPath id="SVGID_4_">
					<use xlink:href="#SVGID_3_"  style="overflow:visible;"/>
				</clipPath>
				<g class="st9">
					<g>
						<path class="st2" d="M564.33,433.55c0,0,4.62,9.88,15.48,8.98c10.86-0.89,11.76-6.68,11.76-6.68s0.74,12.47-12.47,15
							C565.87,453.38,562.94,437.64,564.33,433.55z"/>
					</g>
				</g>
			</g>
		</g>
		<g>
			<g>
				<path class="st2" d="M685.01,754.29c-3.31,0-6.76-0.27-10.3-0.83c-15.47-2.45-35.9-11.54-42.56-29.07
					c-0.44-1.17-0.85-2.38-1.21-3.63c-1.38,2.13-3,4.05-4.87,5.75c-7.77,7.05-19.33,10.04-34.36,8.86
					c-30.55-2.39-63.3-27.74-68.68-46.82c-4.2-14.88,1.35-50.59,3.81-64.68c-11.4,0.95-36.63,1.16-56.15-12.21
					c-21.84-14.97-40.61-61.17-45.79-74.82c-2.52,0.6-5.03,1-6.6,0.76c-4.35-0.68-8-3.14-10.55-7.12
					c-4.24-6.61-4.71-16.51-3.41-21.11c0.94-3.33,3.21-6.15,5.11-8.06l-0.44-0.78c-0.58,0-1.17,0.01-1.76,0.01
					c-40.37,0-102.29-9.64-118.92-37.26c-17.27-28.69,2.69-93.98,3.55-96.74c2.23-7.89,15.41-48.24,53.2-57.55
					c13.67-3.36,24-1.9,30.72,4.36c13.41,12.47,8.65,40.43,4.82,62.89c-1.08,6.33-2.1,12.32-2.56,17.12
					c-0.06,0.62-0.04,1.41,0.22,1.61c1.53,1.18,7.42,0.35,11.67-1.19c0.21-0.08,0.44-0.14,0.66-0.18
					c40.6-7.79,148.15-34.1,158.18-61.93c6.05-16.79-2.24-26.46-11.03-36.69c-8.1-9.44-17.28-20.14-10.99-35.75
					c2.47-6.12,6.93-10.52,13.28-13.1c21.93-8.9,60.15,7.8,61.76,8.51c0.08,0.03,0.15,0.07,0.23,0.11c2.03,1.04,4.3,2.15,6.74,3.34
					c19.6,9.56,52.4,25.56,51.07,55.28c-1.24,27.81-30.39,72.14-37.77,82.95l6.44,10.35c2.13-0.14,5.06,0.07,8.3,1.42
					c6.19,2.58,16.02,18.84,14.43,28.97c-0.56,3.54-2.63,6.09-4.65,7.79c42.87,65.44,74.96,152.93,80.31,182.31
					c5.04,27.71-6.01,68.39-8.45,76.86c2.12,5.44,7.54,23.43-5.6,39.78C707.42,750.56,697.21,754.29,685.01,754.29z M629.09,637.46
					c0.28,0,0.56,0.03,0.84,0.08l2.12,0.42c3.24,0.65,6.03,2.52,7.86,5.27c1.82,2.75,2.46,6.04,1.8,9.26
					c-2.91,14.2-8.89,49.33-1.49,68.82c5.35,14.08,22.65,21.52,35.84,23.61c13.37,2.12,25.17-0.45,30.07-6.54
					c12-14.93,3.95-32.07,3.87-32.24c-0.47-0.98-0.56-2.09-0.24-3.13c0.14-0.46,13.82-45.98,8.67-74.32
					c-5.33-29.32-37.99-117.92-81.43-182.74c-0.72-1.08-0.92-2.42-0.54-3.66s1.29-2.24,2.5-2.74c0.86-0.37,3.48-1.9,3.78-3.85
					c1-6.37-6.5-18.21-9.28-19.7c-3.13-1.3-5.61-0.57-5.71-0.54c-1.9,0.67-3.95-0.1-5.02-1.82l-9.46-15.2
					c-0.92-1.47-0.86-3.35,0.14-4.77c0.37-0.52,36.56-52.07,37.84-80.72c1.07-24.06-27.4-37.94-46.23-47.13
					c-2.45-1.19-4.73-2.31-6.78-3.36c-2.18-0.94-36.88-15.69-54.93-8.36c-4.15,1.68-6.93,4.41-8.51,8.32
					c-4.12,10.22,0.94,16.88,9.53,26.9c9.07,10.57,20.35,23.72,12.6,45.24c-5.99,16.62-34.91,32.53-88.43,48.62
					c-36.55,10.99-72.11,18.06-75.91,18.8c-2.88,1.01-13.67,4.34-19.57-0.21c-1.88-1.45-4.01-4.24-3.53-9.26
					c0.49-5.12,1.54-11.25,2.64-17.75c3.3-19.34,7.81-45.83-2.19-55.12c-4.46-4.15-12.13-4.92-22.78-2.3
					c-33.15,8.16-44.96,44.43-46.99,51.62c-0.23,0.75-19.71,64.45-4.43,89.84c15.24,25.32,79.08,33.7,115.73,33.04
					c0.03,0,0.05,0,0.08,0c1.56,0,3.01,0.85,3.77,2.22l3.38,6.08c1.06,1.91,0.53,4.31-1.24,5.59c-1.01,0.74-4.09,3.45-4.79,5.95
					c-0.69,2.46-0.49,9.67,2.36,14.11c1.19,1.86,2.66,2.92,4.5,3.24c0.96-0.02,4.1-0.72,6.83-1.54c2.21-0.67,4.53,0.53,5.3,2.69
					c0.21,0.58,21.04,58.66,43.92,74.34c22.55,15.45,55.52,10.17,55.85,10.12c1.39-0.23,2.82,0.23,3.8,1.25
					c0.99,1.01,1.42,2.45,1.15,3.83c-2.7,13.88-8.87,52.87-5.04,66.47c4.55,16.13,34.2,38.46,61.04,40.56
					c12.56,0.99,21.95-1.26,27.89-6.65c4.85-4.41,7.39-10.9,7.55-19.3c0.29-15.73-9.14-23.59-9.54-23.92c-1.46-1.19-2-3.21-1.3-4.96
					c0.05-0.13,5.26-13.31,7.85-30.79c0.17-1.17,0.82-2.22,1.78-2.9C627.34,637.73,628.21,637.46,629.09,637.46z M626.01,672.39
					c0.92,0.99,2.03,2.3,3.18,3.95c1.06-9.69,2.66-18.7,4.06-25.56c0.2-0.96,0.01-1.94-0.54-2.76c-0.07-0.11-0.15-0.21-0.23-0.31
					C630.41,659.1,627.52,668.09,626.01,672.39z"/>
			</g>
		</g>
		<g>
			<g>
				<path class="st2" d="M427.58,535.97c-1.77,0-3.43-1.1-4.06-2.86c-0.81-2.24,0.36-4.71,2.6-5.52
					c18.83-6.76,39.74-14.53,47.15-17.7c-1.76-4.99-5.51-14.34-7.61-18.17c-7.73,2.03-33.25,9.71-49.49,14.67
					c-2.28,0.7-4.69-0.59-5.39-2.87s0.59-4.69,2.87-5.39c50.73-15.5,52.83-15.5,53.62-15.5c3.28,0,5.24,2.13,10.41,14.73
					c0.84,2.06,5.05,12.43,5.05,14.7c0,3.8,0,4.39-53.7,23.66C428.56,535.88,428.07,535.97,427.58,535.97z M474.17,512.73
					L474.17,512.73L474.17,512.73z"/>
			</g>
		</g>
		<g>
			<g>
				<path class="st2" d="M458.35,493.6c-1.54,0-3.02-0.82-3.8-2.26c-2.29-4.24-13.46-25.95-8.44-37.12
					c0.93-2.06,3.74-8.33,70.08-35.58c16.19-6.65,32.91-13.14,45.89-17.82c22.39-8.07,24.36-7.53,25.94-7.09
					c6.08,1.69,13.71,13.83,18.07,21.62l18.61-7.92c2.19-0.93,4.73,0.09,5.66,2.28s-0.09,4.73-2.28,5.66l-22.22,9.46
					c-2.07,0.88-4.46,0.03-5.51-1.96c-5.12-9.7-11.62-19.03-14.34-20.67c-13.21,1.7-124.24,46.34-132.12,55.75
					c-2.21,5.58,3.45,20.41,8.25,29.28c1.13,2.1,0.35,4.72-1.74,5.85C459.74,493.43,459.04,493.6,458.35,493.6z"/>
			</g>
		</g>
		<g>
			<g>
				<path class="st2" d="M489.28,545.11c-0.4,0-0.75-0.03-1.07-0.08c-14.8-2.4-21.63-25.55-22.36-28.19c-0.64-2.3,0.71-4.68,3-5.31
					c2.3-0.64,4.67,0.71,5.31,3c1.48,5.29,7.48,20.69,15.42,21.97c0.09,0.01,0.19,0.01,0.29,0.01c12.45,0,120.93-51.25,134.45-61.01
					c-1.59-6.75-13.02-31.23-24-52.7c-1.09-2.12-0.24-4.72,1.88-5.81c2.12-1.08,4.72-0.25,5.81,1.88
					c27.1,52.96,25.46,57.89,24.84,59.75c-0.63,1.88-1.17,3.51-22.91,14.81c-12.37,6.43-28.85,14.5-45.23,22.15
					C535.51,529.22,499.33,545.11,489.28,545.11z M624.51,476.67h0.01H624.51z"/>
			</g>
		</g>
		<g>
			<g>
				<path class="st2" d="M511.09,537.87c-1.33,0-2.61-0.74-3.23-2.02c-1.3-2.65-31.78-65.08-34.2-72.32
					c-2.55-7.64-1.9-21.98-1.87-22.59c0.09-1.99,1.76-3.51,3.76-3.42c1.98,0.09,3.51,1.78,3.42,3.76
					c-0.18,3.76-0.25,14.68,1.51,19.97c1.88,5.63,25.06,53.48,33.84,71.44c0.87,1.78,0.13,3.94-1.65,4.81
					C512.16,537.76,511.62,537.87,511.09,537.87z"/>
			</g>
		</g>
		<g>
			<g>
				<path class="st2" d="M579.81,507.24c-1.37,0-2.67-0.78-3.28-2.11l-15.71-34.57l-36.95-2.71l-16.13-41.12
					c-0.73-1.85,0.19-3.94,2.04-4.66c1.85-0.73,3.94,0.18,4.66,2.04l14.48,36.91l36.69,2.69l17.48,38.45
					c0.82,1.81,0.02,3.94-1.79,4.76C580.82,507.13,580.31,507.24,579.81,507.24z"/>
			</g>
		</g>
		<g>
			<g>
				<path class="st2" d="M576.73,456.03c-9.43,0-17.11-7.67-17.11-17.11s7.67-17.11,17.11-17.11s17.11,7.68,17.11,17.11
					S586.16,456.03,576.73,456.03z M576.73,429c-5.47,0-9.92,4.45-9.92,9.92s4.45,9.92,9.92,9.92s9.92-4.45,9.92-9.92
					S582.2,429,576.73,429z"/>
			</g>
		</g>
		<g>
			<g>
				<path class="st2" d="M619.56,456.75c-1.68,0-3.28-0.99-3.98-2.64c-0.93-2.2,0.1-4.73,2.3-5.65l21.02-8.87
					c2.19-0.92,4.73,0.1,5.65,2.3c0.93,2.2-0.1,4.73-2.3,5.65l-21.02,8.87C620.69,456.64,620.12,456.75,619.56,456.75z"/>
			</g>
		</g>
		<g>
			<g>
				<path class="st2" d="M613.4,398.67c-10.77-12.68-19.73-26.78-30.08-39.85c-0.43-0.52,0.26-1.29,0.82-0.92
					c7.33,4.46,13.95,10.02,20.09,15.98c6.16,6.02,11.88,12.32,16.23,19.84C622.97,398.29,616.81,402.57,613.4,398.67L613.4,398.67z
					"/>
			</g>
		</g>
		<g>
			<g>
				<path class="st2" d="M407.48,497.66c-3.43-7-5.48-14.46-7.31-22.01c-1.79-7.55-3.35-15.19-4.09-23.04
					c-0.08-0.66,0.88-0.95,1.18-0.36c1.92,3.43,3.65,6.91,5.36,10.38c4.91,10.44,10.14,20.84,12.97,32.06
					c0.56,2.34-0.89,4.69-3.23,5.24C410.36,500.41,408.36,499.42,407.48,497.66L407.48,497.66z"/>
			</g>
		</g>
		<g>
			<g>
				<path class="st2" d="M351.28,403.67c-36.75,0-60.95-12.61-62.15-13.25c-2.1-1.12-2.9-3.73-1.78-5.84
					c1.12-2.1,3.73-2.9,5.83-1.78c0.43,0.23,33.25,17.18,79.32,10.76c2.33-0.33,4.54,1.32,4.87,3.68s-1.32,4.54-3.68,4.87
					C365.81,403.21,358.32,403.67,351.28,403.67z"/>
			</g>
		</g>
		<g>
			<g>
				<path class="st2" d="M622.03,677.72c-14.11,3.44-35.92,2.57-47.55-6.86c-0.46-0.54-3.41-2.8-1.99-3.05
					c4.52,0.35,8.27,1.39,12.2,2.14c5.84,1.16,11.79,1.52,17.73,1.32c5.87-0.19,12.03-0.88,17.74-1.98
					C625.6,668.39,627.34,676.23,622.03,677.72L622.03,677.72z"/>
			</g>
		</g>
		<g>
			<g>
				<path class="st2" d="M714.93,708.46c-14.11,3.44-35.92,2.57-47.55-6.86c-0.46-0.54-3.41-2.8-1.99-3.05
					c4.52,0.35,8.27,1.39,12.2,2.14c5.84,1.16,11.79,1.52,17.73,1.32c5.87-0.19,12.03-0.88,17.74-1.98
					C718.5,699.13,720.24,706.97,714.93,708.46L714.93,708.46z"/>
			</g>
		</g>
		<g>
			<g>
				<path class="st2" d="M629.09,646.1c-0.36,0-0.73-0.05-1.1-0.14c-2.3-0.61-3.68-2.96-3.08-5.27l0,0
					c0.1-0.39,10.01-39.47-8.2-70.43c-9.98-16.96-26.64-28.54-49.51-34.42c-2.31-0.59-3.7-2.95-3.11-5.25
					c0.59-2.31,2.95-3.7,5.25-3.11c25.21,6.48,43.65,19.42,54.84,38.47c20.02,34.1,9.53,75.21,9.07,76.94
					C632.75,644.81,631.01,646.1,629.09,646.1z"/>
			</g>
		</g>
		<g>
			<g>
				<path class="st2" d="M625.94,585.38c10.4-11.97,21.96-23.54,27.88-38.64c2.96-3.14-0.29,12.03-0.78,12.97
					c-4.04,12.32-11.08,23.93-21.32,32.08C627.47,594.89,622.44,589.26,625.94,585.38L625.94,585.38z"/>
			</g>
		</g>
		<g>
			<g>
				<path class="st2" d="M567.39,535.87c-11.71-1.75-24.16-1.2-35.47,2.46c-12.07,3.64-20.77,11.8-29.87,20.53
					c-0.25,0.26-0.74-0.02-0.62-0.37c3.82-13.12,15.64-22.25,27.85-27.31c12.59-5.05,26.57-6.27,39.9-3.75
					C574.74,528.74,573.01,536.93,567.39,535.87L567.39,535.87z"/>
			</g>
		</g>
		<g>
			<g>
				<path class="st2" d="M690.79,665.09c-25.01,0-50.05-9.1-54.31-10.72c-0.08-0.03-0.16-0.06-0.24-0.09
					c-1.82-0.75-2.75-2.85-2.03-4.68c0.73-1.83,2.91-2.68,4.75-1.98c5.62,2.15,55.7,20.46,82.56,2.71c1.66-1.1,3.89-0.64,4.98,1.02
					c1.1,1.66,0.64,3.89-1.02,4.98C715.63,662.84,703.21,665.09,690.79,665.09z"/>
			</g>
		</g>
		<g>
			<g>
				<path class="st2" d="M583.41,644c-32.17,0-53.4-12.92-54.66-13.72c-1.68-1.05-2.2-3.27-1.14-4.96c1.05-1.68,3.27-2.19,4.95-1.15
					c0.45,0.28,42.54,25.72,97.15,3.13c1.84-0.76,3.94,0.11,4.7,1.95c0.76,1.83-0.11,3.94-1.95,4.7
					C614.45,641.4,597.83,644,583.41,644z"/>
			</g>
		</g>
		<g>
			<g>
				<path class="st2" d="M384.26,400.92c-0.97,5.16-3.43,9.49-6.37,13.69c-2.89,4.13-6.24,8.01-10.31,11.15
					c-0.47,0.39-1.21-0.12-1.02-0.7c0.66-2.46,1.46-4.76,2.17-7.09c2.24-6.5,4.02-14.16,7.49-20.06
					C378.71,393.82,385.09,396.27,384.26,400.92L384.26,400.92z"/>
			</g>
		</g>
	</g>
	<g>
		<g>
			<g>
				<path class="st5" d="M596.64,235.54c-0.38,27.39-7.68,54.86-22.18,79.71c-2.96,5.07-6.2,10.02-9.75,14.83
					c-1.72,2.35-3.53,4.67-5.4,6.97c-5.67,6.91-11.78,13.24-18.27,19.01c-5.58,4.98-11.46,9.52-17.55,13.63
					c-7.35,4.97-15.04,9.3-22.97,12.99c-2.9,1.34-5.82,2.59-8.77,3.77c-54.01,21.45-117.62,14.33-165.8-24.12
					c-70.98-56.62-81.57-159.75-23.69-230.34c11.16-13.59,24.04-25.01,38.09-34.13c1.63-1.08,3.3-2.12,4.99-3.12
					c4.5-2.71,9.1-5.2,13.79-7.46c10.85-5.21,22.19-9.21,33.77-11.97c11.57-2.77,23.42-4.31,35.29-4.59
					c3.77-0.09,7.55-0.06,11.33,0.11c5.67,0.25,11.32,0.78,16.97,1.61c28.12,4.09,55.48,15.4,79.12,34.27
					C576.47,139.29,597.31,187.24,596.64,235.54z"/>
			</g>
			<g>
				<path class="st2" d="M429.56,398.8c-37.3,0-74.09-12.35-103.87-36.12c-34.28-27.35-55.69-66.33-60.28-109.77
					c-4.63-43.78,8.35-86.82,36.53-121.19c11-13.4,23.85-24.91,38.19-34.22c1.56-1.03,3.24-2.09,5.01-3.13
					c4.48-2.7,9.13-5.22,13.83-7.47c10.78-5.18,22.17-9.22,33.86-12c11.58-2.78,23.48-4.33,35.38-4.61
					c3.81-0.09,7.64-0.06,11.36,0.11c5.79,0.26,11.51,0.8,17.01,1.62c29.02,4.22,56.45,16.1,79.33,34.36
					c39.57,31.57,61.87,78.65,61.17,129.17l-0.44-0.01l0.44,0.01c-0.38,28.01-8.07,55.65-22.24,79.93c-3,5.14-6.29,10.15-9.77,14.87
					c-1.61,2.19-3.38,4.48-5.41,6.99c-5.61,6.83-11.77,13.24-18.32,19.06c-5.48,4.89-11.4,9.48-17.6,13.67
					c-7.25,4.9-14.99,9.28-23.03,13.02c-2.87,1.32-5.82,2.6-8.79,3.78C471.75,394.88,450.57,398.8,429.56,398.8z M432.31,71.11
					c-1.36,0-2.73,0.02-4.09,0.05c-11.83,0.28-23.68,1.82-35.2,4.58c-11.63,2.77-22.96,6.79-33.69,11.94
					c-4.67,2.24-9.3,4.75-13.76,7.44c-1.75,1.04-3.42,2.09-4.97,3.11c-14.27,9.26-27.05,20.71-37.99,34.04
					c-28.03,34.18-40.94,76.99-36.34,120.54c4.56,43.2,25.86,81.97,59.96,109.18c46.31,36.96,109.67,46.17,165.36,24.05
					c2.95-1.18,5.89-2.45,8.74-3.76c7.99-3.72,15.7-8.08,22.91-12.95c6.17-4.17,12.05-8.74,17.5-13.6
					c6.52-5.78,12.65-12.16,18.23-18.95c2.02-2.49,3.78-4.77,5.39-6.95c3.46-4.7,6.73-9.68,9.72-14.8
					c14.09-24.15,21.73-51.63,22.12-79.49c0.69-50.25-21.49-97.08-60.84-128.47c-22.76-18.17-50.05-29.99-78.91-34.18
					c-5.47-0.81-11.17-1.35-16.92-1.61C437.15,71.17,434.74,71.11,432.31,71.11z"/>
			</g>
		</g>
		<g class="st8">
			<g>
				<path class="st2" d="M325.96,362.33c48.17,38.46,111.79,45.58,165.8,24.12c2.95-1.17,5.87-2.43,8.76-3.77
					c7.93-3.69,15.62-8.02,22.97-12.98c6.09-4.12,11.97-8.66,17.55-13.63c6.5-5.76,12.61-12.1,18.28-19.01
					c1.86-2.31,3.67-4.62,5.4-6.97c3.55-4.82,6.78-9.78,9.74-14.84c14.5-24.85,21.81-52.32,22.18-79.71
					c0.21-15.05-1.67-30.07-5.6-44.6c-0.96,26.14-8.25,52.22-22.08,75.93c-2.95,5.07-6.19,10.02-9.74,14.84
					c-1.72,2.35-3.53,4.66-5.4,6.97c-5.67,6.91-11.78,13.25-18.27,19.01c-5.59,4.98-11.46,9.51-17.55,13.63
					c-7.35,4.96-15.05,9.3-22.97,12.98c-2.9,1.34-5.82,2.59-8.77,3.77c-54.01,21.46-117.61,14.34-165.8-24.12
					c-28.12-22.43-46.74-52.15-55.4-84.25C263.21,279.28,284.07,328.91,325.96,362.33z"/>
			</g>
		</g>
		<g>
			<g>
				<path class="st2" d="M429.56,401.75c-37.96,0-75.4-12.57-105.71-36.76c-34.9-27.85-56.7-67.54-61.38-111.77
					c-4.71-44.57,8.5-88.39,37.19-123.37c11.19-13.63,24.27-25.35,38.86-34.82c1.58-1.04,3.3-2.13,5.11-3.19
					c4.54-2.74,9.28-5.3,14.05-7.6c10.97-5.27,22.56-9.38,34.46-12.21c11.78-2.82,23.89-4.4,35.99-4.69
					c3.88-0.09,7.77-0.06,11.56,0.11c5.89,0.26,11.71,0.81,17.32,1.64c29.53,4.29,57.45,16.39,80.74,34.98
					c40.29,32.14,62.99,80.08,62.29,131.52l-3.39-0.05l3.39,0.05c-0.39,28.52-8.22,56.66-22.64,81.37
					c-3.06,5.24-6.4,10.33-9.95,15.14c-1.63,2.23-3.43,4.55-5.5,7.1c-5.71,6.96-11.99,13.49-18.66,19.4
					c-5.57,4.97-11.59,9.65-17.9,13.91c-7.37,4.99-15.26,9.44-23.44,13.25c-2.92,1.35-5.93,2.64-8.94,3.85
					C472.49,397.76,450.94,401.75,429.56,401.75z M432.31,74.06c-1.34,0-2.68,0.02-4.02,0.05c-11.63,0.27-23.26,1.79-34.58,4.5
					c-11.43,2.73-22.56,6.67-33.1,11.73c-4.58,2.2-9.13,4.66-13.51,7.3c-1.73,1.02-3.36,2.04-4.87,3.04
					c-14.04,9.11-26.59,20.36-37.34,33.45c-27.53,33.57-40.2,75.6-35.68,118.36c4.48,42.41,25.39,80.47,58.86,107.18
					c45.48,36.3,107.72,45.35,162.43,23.62c2.9-1.16,5.79-2.4,8.6-3.7c7.84-3.65,15.41-7.93,22.49-12.72
					c6.06-4.09,11.84-8.59,17.19-13.36c6.41-5.68,12.43-11.95,17.91-18.62c1.98-2.44,3.71-4.68,5.28-6.82
					c3.41-4.62,6.62-9.51,9.55-14.54c13.83-23.71,21.34-50.7,21.72-78.05l0,0c0.68-49.33-21.09-95.3-59.73-126.13
					c-22.35-17.84-49.15-29.45-77.5-33.57c-5.38-0.8-10.98-1.33-16.63-1.58C437.06,74.11,434.7,74.06,432.31,74.06z"/>
			</g>
		</g>
		<g>
			<g>
				<path class="st2" d="M429.56,402.67c-38.17,0-75.81-12.64-106.29-36.96c-35.1-28-57.02-67.92-61.72-112.39
					c-4.74-44.82,8.54-88.88,37.39-124.06c11.26-13.71,24.4-25.49,39.08-35.01c1.58-1.05,3.32-2.14,5.14-3.22
					c4.56-2.75,9.32-5.32,14.12-7.63c11.03-5.3,22.68-9.43,34.64-12.28c11.84-2.84,24.02-4.42,36.19-4.71
					c3.9-0.09,7.81-0.06,11.62,0.11c5.92,0.26,11.78,0.82,17.41,1.65c29.69,4.31,57.76,16.48,81.18,35.17
					c40.52,32.32,63.34,80.52,62.63,132.26c-0.39,28.68-8.27,56.97-22.77,81.83c-3.07,5.26-6.44,10.38-10,15.22
					c-1.64,2.24-3.45,4.58-5.52,7.13c-5.75,7.01-12.05,13.57-18.76,19.51c-5.6,4.99-11.66,9.7-18,13.98
					c-7.41,5.01-15.34,9.49-23.56,13.32c-2.94,1.36-5.96,2.66-8.99,3.87C472.73,398.66,451.06,402.67,429.56,402.67z M432.31,74.99
					c-1.33,0-2.66,0.02-4,0.05c-11.57,0.27-23.13,1.78-34.39,4.48c-11.37,2.71-22.44,6.63-32.91,11.67
					c-4.56,2.19-9.08,4.64-13.43,7.26c-1.72,1.02-3.34,2.03-4.83,3.02c-13.96,9.06-26.45,20.25-37.14,33.27
					c-27.37,33.37-39.97,75.17-35.48,117.67c4.46,42.16,25.24,80,58.52,106.55c45.22,36.09,107.11,45.09,161.51,23.48
					c2.88-1.15,5.76-2.39,8.55-3.68c7.8-3.63,15.32-7.89,22.36-12.64c6.03-4.07,11.78-8.54,17.1-13.28
					c6.37-5.65,12.36-11.88,17.81-18.52c1.97-2.43,3.69-4.65,5.25-6.78c3.39-4.6,6.58-9.46,9.5-14.46
					c13.75-23.57,21.22-50.4,21.59-77.59l0,0c0.67-49.05-20.97-94.75-59.39-125.39c-22.22-17.74-48.87-29.28-77.05-33.38
					c-5.35-0.79-10.91-1.32-16.54-1.57C437.04,75.04,434.68,74.99,432.31,74.99z"/>
			</g>
		</g>
		<g>
			<g>
				<path class="st2" d="M590.62,277.15c-54.53,104.42-194.07,123.82-254.66,24.96c-41.22-67.26-6.06-159.6,62.18-195.11
					c49.67-25.84,109.43-29.7,170.47,35.17c0,0,22.5,32.88,25.27,61.19s0.62,56.35,0.62,56.35L590.62,277.15z"/>
			</g>
		</g>
		<g>
			<g>
				<path class="st10" d="M335.97,302.11c60.58,98.85,200.13,79.45,254.66-24.96l0.78-3.54c-85.83,66.43-209.91,60.29-273.06-38.52
					C317.79,258.22,323.25,281.36,335.97,302.11z"/>
			</g>
		</g>
		<g>
			<g>
				<path class="st2" d="M448.56,387.37c-11.75,0-23.42-1.28-34.76-3.89c-40.08-9.2-73.22-33.57-95.85-70.47
					c-20.77-33.88-25.87-75.38-14.37-116.84c12.78-46.07,44.8-86.27,85.67-107.53c22.71-11.82,45.27-18.48,67.05-19.79l0.37-0.02
					l0.37,0.05c29.57,4.3,57.53,16.41,80.85,35.02c40.34,32.18,63.07,80.18,62.36,131.69c-0.39,28.55-8.23,56.73-22.67,81.47
					c-3.06,5.24-6.41,10.34-9.96,15.15c-1.63,2.23-3.44,4.56-5.5,7.1c-5.72,6.97-12,13.5-18.68,19.43l-0.45,0.34
					C514.01,377.64,480.94,387.37,448.56,387.37z M456.36,76.05c-20.65,1.31-42.11,7.69-63.79,18.97
					c-39.13,20.36-69.81,58.89-82.06,103.08c-10.96,39.52-6.14,79,13.58,111.16c21.59,35.21,53.17,58.46,91.32,67.21
					c40.67,9.34,85.65,0.84,123.47-23.29c6.32-5.62,12.26-11.82,17.67-18.41c1.98-2.44,3.71-4.67,5.28-6.81
					c3.4-4.62,6.61-9.5,9.54-14.52c13.81-23.68,21.31-50.63,21.69-77.95l0,0c0.68-49.27-21.07-95.18-59.66-125.96
					C511.16,91.79,484.53,80.22,456.36,76.05z M541.05,356.06h0.01H541.05z"/>
			</g>
		</g>
		<g>
			<g>
				<path class="st2" d="M449.49,369.03c-47.86,0-89.73-23.76-115.46-65.73c-18.34-29.92-22.84-66.58-12.68-103.21
					c11.3-40.74,39.62-76.29,75.75-95.09c62.2-32.36,120.46-20.38,173.16,35.63l0.22,0.27c0.93,1.36,22.86,33.68,25.65,62.25
					c2.75,28.18,0.64,56.46,0.62,56.74l-0.05,0.32l-3.94,17.74l-0.14,0.27c-28.21,54.02-81.15,88.79-138.14,90.74
					C452.81,369,451.15,369.03,449.49,369.03z M463.47,91.9c-20.88,0-42.33,5.7-64.28,17.12c-35.04,18.23-62.51,52.73-73.48,92.28
					c-9.82,35.41-5.5,70.79,12.18,99.63c25.74,42,68.15,65.16,116.44,63.49c55.28-1.89,106.65-35.62,134.14-88.05l3.77-16.99
					c0.17-2.3,1.99-29.1-0.62-55.8c-2.59-26.47-23.2-57.62-24.78-59.99C534.38,109.15,499.79,91.9,463.47,91.9z M590.62,277.15h0.01
					H590.62z"/>
			</g>
		</g>
		<g>
			<g>
				<path class="st5" d="M267.43,330.02c13.39,29.38,42.24,46.06,64.44,37.25s29.34-39.78,15.95-69.16
					c-0.08-0.19-0.17-0.38-0.27-0.56c-13.49-29.03-42.13-45.44-64.17-36.69c-17.15,6.81-25.31,26.84-21.97,49.14
					C262.4,316.56,264.39,323.34,267.43,330.02z"/>
			</g>
		</g>
		<g class="st8">
			<g>
				<path class="st2" d="M267.43,330.02c13.39,29.38,42.24,46.06,64.44,37.25s29.34-39.78,15.95-69.16
					c-0.08-0.19-0.17-0.38-0.27-0.56c-1.07,3.98-3.51,8.46-9.11,9.5c-9.81,1.82-34.6-10.65-34.6-10.65s-18.44,5.78-42.42,13.6
					C262.4,316.56,264.39,323.34,267.43,330.02z"/>
			</g>
		</g>
		<g>
			<g>
				<path class="st2" d="M319.44,373.9c-21.26,0-44.27-16.49-55.93-42.09c-8.26-18.12-9.45-37.32-3.27-52.68
					c4.3-10.69,11.75-18.39,21.55-22.28c24.27-9.64,55.65,8.07,69.96,39.46c8.26,18.12,9.45,37.32,3.27,52.68
					c-4.3,10.69-11.75,18.39-21.55,22.28C328.98,373.05,324.25,373.9,319.44,373.9z M296.05,262.8c-3.82,0-7.55,0.67-11.08,2.07
					c-7.55,3-13.33,9.04-16.73,17.48c-5.23,12.98-4.06,30.13,3.11,45.88c12.43,27.27,38.86,42.99,58.92,35.02
					c7.55-3,13.33-9.04,16.73-17.48c5.23-12.98,4.06-30.13-3.11-45.88C333.65,277.42,313.91,262.8,296.05,262.8z"/>
			</g>
		</g>
		<g>
			<g>
				
					<ellipse transform="matrix(0.866 -0.5 0.5 0.866 -122.3158 191.9237)" class="st5" cx="296.97" cy="324.2" rx="35.14" ry="46.48"/>
			</g>
			<g>
				<path class="st2" d="M306.1,368.6c-11.08,0-22.64-5.65-31.9-15.65c-17.25-18.62-21.11-46.66-8.6-62.5
					c5.2-6.59,12.46-10.25,20.98-10.58c11.51-0.48,23.56,5.24,33.17,15.62c17.25,18.62,21.11,46.66,8.6,62.5
					c-5.2,6.59-12.46,10.25-20.98,10.58C306.94,368.59,306.52,368.6,306.1,368.6z M287.85,280.76c-0.41,0-0.83,0.01-1.24,0.02
					c-8.25,0.32-15.27,3.86-20.3,10.24c-12.24,15.5-8.4,43,8.55,61.31l0,0c9.43,10.18,21.28,15.76,32.46,15.33
					c8.25-0.32,15.27-3.86,20.3-10.24c12.24-15.5,8.41-43-8.55-61.31C309.99,286.3,298.68,280.76,287.85,280.76z"/>
			</g>
		</g>
		<g class="st8">
			<g>
				<path class="st2" d="M335.4,328.47c-1.56-8.66-5.53-16.92-11-23.88c1.86,20.06-10.94,34.36-29.96,32.53
					c-12.3-1.18-24.37-8.83-32.83-19.61c0.11,1.27,0.29,2.57,0.53,3.88c3.97,22.06,23.6,41.52,43.83,43.47
					C326.2,366.82,339.37,350.52,335.4,328.47z"/>
			</g>
		</g>
		<g>
			<g>
				<path class="st2" d="M307.69,372.36c-16.94,0-35.86-14.06-45.76-35.55l0,0c-7.07-15.35-8.3-31.92-3.28-44.31
					c3.26-8.04,8.84-13.79,16.15-16.63c18.87-7.33,43.94,7.8,55.87,33.7c7.07,15.35,8.3,31.92,3.28,44.31
					c-3.26,8.04-8.84,13.79-16.15,16.63C314.58,371.77,311.18,372.36,307.69,372.36z M269.77,333.21
					c10.06,21.84,30.21,34.97,44.91,29.26c5.04-1.95,8.93-6.04,11.27-11.82c4.14-10.23,2.97-24.23-3.12-37.46
					c-10.06-21.84-30.19-34.97-44.91-29.26c-5.04,1.95-8.93,6.04-11.27,11.82C262.52,305.97,263.68,319.98,269.77,333.21
					L269.77,333.21z"/>
			</g>
		</g>
		<g class="st11">
			<g>
				<path class="st5" d="M376.78,153.32c0,0,67.22-29.77,122.44-11.55c0.06,0.02,0.12,0.04,0.17,0.06
					c11.62,3.85,21.95,10.74,29.95,19.88c10.59,12.08,16.08,21.96,20.58,30.84c13.66,27.01,14.92,42.23,14.92,42.23
					c8.4-22.07,9-42.67-2.15-65.28c-1.11-2.23-2.33-4.48-3.66-6.75c-0.3-0.53-0.62-1.04-0.94-1.55c0.01-0.01,0-0.02-0.02-0.03
					c-3.02-4.42-7.22-10.07-12.49-16.05c-15.9-18.05-41.56-39.14-74.37-38.48C409.87,107.85,373.09,151.63,376.78,153.32z"/>
			</g>
		</g>
		<g class="st11">
			<g>
				
					<ellipse transform="matrix(0.9812 -0.1932 0.1932 0.9812 -39.4893 74.3427)" class="st5" cx="361.44" cy="239.65" rx="22.19" ry="25.49"/>
			</g>
		</g>
		<g class="st11">
			<g>
				
					<ellipse transform="matrix(0.9949 -0.1012 0.1012 0.9949 -26.9391 38.985)" class="st5" cx="370.78" cy="285.01" rx="9.16" ry="10.53"/>
			</g>
		</g>
	</g>
	<g class="st8">
		<g>
			<path class="st2" d="M374.62,412.47c0,0,33.25,15.14,95.38,2.98s89.31-78.39,89.31-78.39s-72.79,53.72-122.11,55.92
				c-49.32,2.2-54.29,2.75-54.29,2.75L374.62,412.47z"/>
		</g>
	</g>
</g>
</svg>
