<?xml version="1.0" encoding="utf-8"?>
<!-- Generator: Adobe Illustrator 25.0.0, SVG Export Plug-In . SVG Version: 6.00 Build 0)  -->
<svg version="1.1" id="Layer_1" xmlns="http://www.w3.org/2000/svg" xmlns:xlink="http://www.w3.org/1999/xlink" x="0px" y="0px"
	 viewBox="0 0 1000 1000" style="enable-background:new 0 0 1000 1000;" xml:space="preserve">
<style type="text/css">
	.st0{fill:#371A45;}
	.st1{fill:#FFFFFF;}
	.st2{opacity:0.25;}
	.st3{opacity:0.35;}
	.st4{fill:none;stroke:#371A45;stroke-width:32.6718;stroke-linecap:round;stroke-miterlimit:10;}
	.st5{fill:#22A7F0;}
	.st6{fill:#2577EF;}
	.st7{fill:#111A28;}
	.st8{opacity:0.5;}
	.st9{fill:#E5354B;}
	.st10{fill:#4DA2FF;}
	.st11{fill:#BFC0C1;}
	.st12{fill:#606060;}
	.st13{opacity:0.7;}
	.st14{fill:#EDEDED;}
	.st15{fill:#D83D3D;}
	.st16{opacity:0.3;}
	.st17{fill:#CCCCCC;}
	.st18{fill:#2580EF;}
	.st19{opacity:0.6;}
</style>
<g>
	<g>
		<g>
			<ellipse class="st0" cx="469.6" cy="939.5" rx="307.5" ry="10"/>
		</g>
	</g>
	<g>
		<g>
			<path class="st0" d="M540.6,664c-1,0-2,0-3-0.1l-151.2-9.5c-12.4-0.8-23.9-6.4-32.2-15.8c-8.3-9.4-12.4-21.4-11.7-33.9l9.4-149.6
				c0.8-12.4,6.4-23.9,15.8-32.2c9.4-8.3,21.4-12.5,33.9-11.7l151.2,9.5c12.4,0.8,23.9,6.4,32.2,15.8c8.3,9.4,12.4,21.4,11.7,33.9
				l-9.4,149.6c-0.8,12.4-6.4,23.9-15.8,32.2C562.8,659.9,551.9,664,540.6,664z M398.7,420.2c-9.2,0-18,3.3-25,9.5
				c-7.6,6.7-12.1,15.9-12.8,26l-9.4,149.6c-0.6,10,2.7,19.8,9.4,27.4s15.9,12.1,26,12.8l151.2,9.5c10,0.6,19.8-2.7,27.4-9.4
				s12.1-15.9,12.8-26l9.4-149.6c0.6-10-2.7-19.8-9.4-27.4s-15.9-12.1-26-12.8l-151.2-9.5C400.3,420.2,399.5,420.2,398.7,420.2z"/>
		</g>
	</g>
	<g>
		<g>
			<path class="st1" d="M668.8,651.2c-11.5,8.7-34.3-3.3-34.3-3.3s-22.8,8.5-52.8,7.3c-2.6-0.1-5.3-0.3-8.1-0.5
				c-38.7-3.7-48.1-114-48.1-114l7.8-35.2l7.6-34.2l8.2-37.1l1.3-6.1c7,6.8,13.9,17.8,20.4,31c26,52.9,45.8,141.8,45.8,141.8
				s15.3-0.2,29.5,3.9c11.6,3.3,23,19.2,25.8,31.9C673.3,642.9,672.5,648.3,668.8,651.2z"/>
		</g>
	</g>
	<g class="st2">
		<g>
			<path class="st0" d="M668.8,651.2c-11.5,8.7-34.3-3.3-34.3-3.3s-22.8,8.5-52.8,7.3c-2.6-0.1-5.3-0.3-8.1-0.5
				c-38.7-3.7-48.1-114-48.1-114l7.8-35.2l24.7-27.1c1.9,2.3,39.3,148.8,39.3,148.8s27.5-6.5,42.7,3.8c12.2,8.2,24.7,10.3,32,5.7
				C673.3,642.9,672.5,648.3,668.8,651.2z"/>
		</g>
	</g>
	<g>
		<g>
			<path class="st0" d="M587.4,659.8c-4.6,0-9.3-0.2-14.2-0.7c-18.1-1.7-32.4-22.5-42.5-61.8c-7.2-28.1-9.6-55.2-9.7-56.3
				c-0.2-2.5,1.6-4.7,4.1-4.9c2.5-0.2,4.7,1.6,4.9,4.1c2.5,29.6,15.4,107.2,44,109.9c32.3,3.1,58.6-6.4,58.9-6.5l1.9-0.7l1.8,0.9
				c5.6,3,21.9,9.4,29.5,3.7c2.5-1.9,2.1-6.6,1.6-9.2c-2.1-11.1-12.5-26.3-22.8-29.3c-13.4-3.8-28.1-3.7-28.2-3.7l-3.7,0l-0.8-3.6
				c-0.3-1.4-31.2-137.9-65-170.5c-1.8-1.7-1.8-4.6-0.1-6.4c1.7-1.8,4.6-1.8,6.4-0.1c33,31.8,61.5,149.3,66.7,171.5
				c5.5,0.2,16.6,1,27.2,4c13.9,4,26.5,22.3,29.1,36.3c1.5,8-0.3,14.4-5,18c-11.8,9-31.1,1-37.3-2
				C628.4,654.6,610.5,659.8,587.4,659.8z"/>
		</g>
	</g>
	<g>
		<g>
			<path class="st0" d="M534.4,569.1c-1.4,0-2.8-0.6-3.6-1.8c-1.5-2-1-4.8,1-6.3c1.6-1.2,39.6-28.7,65.5-33.6
				c2.4-0.5,4.8,1.1,5.3,3.6c0.5,2.4-1.1,4.8-3.6,5.3c-23.9,4.6-61.5,31.8-61.9,32C536.3,568.8,535.3,569.1,534.4,569.1z"/>
		</g>
	</g>
	<g>
		<g>
			<path class="st1" d="M426.6,456.9c-1.1,2.4-2.2,4.7-3.2,6.9c-7.2,14.8-14.5,27-14.5,27s-13.8,10.7-35.3,16.6
				c-14,3.9-31.2,5.7-49.9,1.2C249.5,491,245,391.6,245,391.6l72.5-23.5c0.8,6.1,1.9,11.4,3.4,16c9.5,29.8,32.9,31,58.2,28.5
				c13.4-1.3,27.4-3.6,40-3.1c4,0.1,7.8,0.5,11.5,1.3C443.1,413.5,436,436.3,426.6,456.9z"/>
		</g>
	</g>
	<g class="st2">
		<g>
			<path class="st0" d="M423.4,463.9c-7.2,14.8-14.5,27-14.5,27s-37.7,29.2-85.1,17.9C249.5,491,245,391.6,245,391.6l72.5-23.5
				c0.8,6.1,1.9,11.4,3.4,16c-10,15.7-31.5,57.1-4.6,88.1c28.7,33,77.2-18.9,77.2-18.9L423.4,463.9z"/>
		</g>
	</g>
	<g>
		<g>
			<path class="st0" d="M346.2,515.8c-7.5,0-15.3-0.8-23.5-2.8c-31.9-7.6-56.2-31.1-70.4-68c-10.5-27.4-11.8-52.3-11.8-53.3
				l-0.1-3.4l81-26.3l0.7,5.4c5.7,46.6,34.3,43.3,67.5,39.5c14.3-1.6,29.1-3.3,42-0.5l0,0c4.1,0.9,7.1,3.4,8.8,7.2
				c8,18.5-21.6,69.5-27.6,79.5l-0.4,0.7l-0.7,0.5C410.3,495.4,383.5,515.8,346.2,515.8z M249.8,394.8c1.6,17.2,12.5,94.6,75,109.5
				c41.4,9.9,75.6-13,80.7-16.6c13-21.8,31.3-59.6,26.6-70.5c-0.5-1.1-1.2-1.7-2.4-2l0,0c-11.5-2.5-25.5-0.9-39.1,0.7
				c-32,3.7-68.1,7.8-76.7-42L249.8,394.8z M408.9,490.8L408.9,490.8L408.9,490.8z"/>
		</g>
	</g>
	<g>
		<g>
			<g>
				<path class="st1" d="M330.8,362.9c-11.6,48.1-60.1,43.6-73.5,40.4c-27.9-6.8-37.4-33.1-37.4-33.1l22.5-29.7l10-16.1l11.9-3.6
					c9.4-17.1,29.4-36.5,40.9-29.6C305.1,291.2,340.8,321.4,330.8,362.9z"/>
			</g>
		</g>
		<g class="st2">
			<g>
				<path class="st0" d="M215.7,354.7c0,15,19.6,28.6,61.9,23.7c14.9-1.7,27.1-12.2,27.1-27.1S292.7,324,277.7,324
					C262.7,324,215.7,339.7,215.7,354.7z"/>
			</g>
		</g>
		<g>
			<g>
				<path class="st1" d="M290.2,306l-21,51.4L238,325.5c0,0-9.5-8-20.5-19c-18.3-18.3-40.6-44.8-29.3-55.6
					c19.3-18.2,67.5,46,67.5,46s-20-79.5,10.2-81.4c16.6-1,21.9,38.4,23.5,65.5C290.4,295.2,290.2,306,290.2,306z"/>
			</g>
		</g>
		<g class="st2">
			<g>
				<path class="st0" d="M290.2,306l-21,51.4L238,325.5c0,0-9.5-8-20.5-19c14.1,2.9,32.8,5.3,43.5,0.7c9.9-4.2,16.1-22,28.4-26.1
					C290.4,295.2,290.2,306,290.2,306z"/>
			</g>
		</g>
		<g>
			<g>
				<path class="st0" d="M269.2,361.9c-1.2,0-2.4-0.5-3.2-1.4l-31-31.7c-6.2-5.3-53.6-46.2-54.2-69.7c-0.1-4.6,1.4-8.5,4.5-11.4
					c3.5-3.3,8.1-4.9,13.2-4.4c15.9,1.4,36.5,21.9,49.3,36.6c-3.2-19-5.8-47.6,4-61c3.5-4.7,8.3-7.4,14.1-7.8
					c4.2-0.3,8.1,1.3,11.4,4.4c17.9,17,17.6,83.1,17.6,90.6c0,0.6-0.1,1.1-0.3,1.6l-21,51.4c-0.6,1.4-1.8,2.4-3.3,2.7
					C269.8,361.8,269.5,361.9,269.2,361.9z M196.7,252.2c-2.1,0-3.8,0.7-5.3,2c-0.8,0.7-1.8,2-1.7,4.6c0.5,16.8,37.1,51.3,51.2,63.2
					c0.1,0.1,0.2,0.2,0.3,0.3l26.4,27l18.1-44.2c0.1-19.9-2.2-71.2-14.8-83.1c-2-1.9-3.6-2-4.7-2c-3.1,0.2-5.5,1.5-7.4,4.1
					c-10.2,14-2.6,56.5,1.2,71.7c0.5,2.1-0.5,4.2-2.4,5.2c-1.9,0.9-4.2,0.4-5.5-1.4c-9.5-12.7-37.9-46-54.5-47.4
					C197.3,252.2,197,252.2,196.7,252.2z M290.2,306L290.2,306L290.2,306z"/>
			</g>
		</g>
		<g>
			<g>
				<path class="st1" d="M214.2,364.6c7.4,12,38.8,17.6,50.4,8.6c9.9-7.7,0-17.5-2.8-20c-0.4-0.4-0.7-0.6-0.7-0.6
					s12.1-3.7,14.2-13.9c0.1-0.7,0.2-1.3,0.3-2.1c0.7-11.7-30.5-21.8-44.8-19.5c-10.6,1.7-14.7,6-15.7,10.7
					c-1.1,4.9,1.3,10.2,2.9,13c0.7,1.3,1.3,2,1.3,2S208.2,355,214.2,364.6z"/>
			</g>
		</g>
		<g class="st3">
			<g>
				<path class="st0" d="M218,340.9c8.4,4.3,25.2,11.6,43.8,12.4c-0.4-0.4-0.7-0.6-0.7-0.6s12.1-3.7,14.2-13.9
					c-11.1,2.4-41.9,7.1-60.2-11C214,332.8,216.4,338,218,340.9z"/>
			</g>
		</g>
		<g class="st3">
			<g>
				<path class="st0" d="M214.2,364.6c7.4,12,38.8,17.6,50.4,8.6c4.9-3.8,5-8.1,3.5-11.7c-0.5,0.6-1.2,1.2-1.9,1.8
					c-11.6,9-43,3.4-50.4-8.6c-0.8-1.2-1.3-2.5-1.5-3.8C212.4,354.9,211.4,360.1,214.2,364.6z"/>
			</g>
		</g>
		<g>
			<g>
				<path class="st0" d="M247.6,382.2c-3.5,0-7.2-0.3-11-1c-12.3-2.2-22.1-7.5-26.2-14.2c-5.7-9.3,0-19.6,3.5-24.4
					c-2.2-4-5.2-11.4-2.4-18.3c2.5-6.1,8.8-10,18.6-11.6l0,0c11.6-1.9,34.1,3.5,44.5,12.9c4.9,4.4,5.7,8.6,5.5,11.4
					c-0.6,8.7-6.5,14.1-11.3,17c2.4,3,4.7,7,4.7,11.5c0,3-1.1,7.4-6.1,11.2C262.8,380.3,255.7,382.2,247.6,382.2z M235.3,321.3
					c-1.4,0-2.7,0.1-3.8,0.3l0,0c-4.5,0.7-10.1,2.4-11.7,6.1c-1.8,4.2,1.7,10.5,3.1,12.5c1.2,1.7,1.1,4.1-0.3,5.7
					c-0.1,0.1-8.6,9.8-4.6,16.3c2.7,4.4,10.6,8.3,20.1,10c10,1.8,19.3,0.8,23.7-2.6c2.3-1.8,2.6-3.2,2.6-4.1c0-3.7-4.5-8.1-6.1-9.4
					c-1.3-1-1.9-2.7-1.6-4.4c0.3-1.6,1.5-3,3.1-3.5c0.1,0,10.7-3.5,11.3-11.9c0.1-1.1-0.8-2.6-2.5-4.1
					C261.4,325.9,245.4,321.3,235.3,321.3z M230.8,317.2L230.8,317.2L230.8,317.2z"/>
			</g>
		</g>
		<g>
			<g>
				<path class="st0" d="M257.1,357.3c-22.1,0-39.3-10-40.1-10.5c-2.1-1.3-2.9-4-1.6-6.2c1.3-2.1,4-2.9,6.1-1.6l0,0
					c0.2,0.1,18,10.4,39.2,9.1c2.5-0.2,4.6,1.8,4.8,4.2c0.1,2.5-1.8,4.6-4.2,4.8C259.9,357.2,258.5,357.3,257.1,357.3z"/>
			</g>
		</g>
		<g>
			<g>
				<path class="st1" d="M305.1,291.2c-15.2-9.1-45.4,28-46,44.7c-0.4,12.7,14.6,23.3,32.6,7.1C310,326.5,329.1,305.4,305.1,291.2z"
					/>
			</g>
		</g>
		<g>
			<g>
				<path class="st1" d="M219.9,370.2c0,0,9.6,26.3,37.4,33c13.4,3.3,61.9,7.7,73.5-40.4c10-41.5-25.7-71.7-25.7-71.7
					c-15.2-9.1-45.4,28-46,44.7c-0.4,12.7,18.5,19.9,34.3-2.5c0,0-8.3,20.3,9.5,34.2L261,391.7l-31.7-6.2L219.9,370.2z"/>
			</g>
		</g>
		<g>
			<g>
				<path class="st1" d="M294.6,357.8l0.8-0.5c-0.6-0.5-1.2-1-1.8-1.5C294,356.5,294.3,357.2,294.6,357.8z"/>
			</g>
		</g>
		<g class="st3">
			<g>
				<path class="st0" d="M292.8,329.6c2.2-8.2-21.4,12.7-33.6,7.3c0.6,10.3,14.2,16.3,27.8,4C287.7,334.3,292.8,329.6,292.8,329.6z"
					/>
			</g>
		</g>
		<g class="st2">
			<g>
				<path class="st0" d="M234.6,386.6l-5.4-1c5.9,7,15,14.5,28.1,17.7c13.4,3.3,61.9,7.7,73.5-40.4c6.8-28.2-7.6-51.2-17.4-63.1
					c8,12.8,15.2,31.3,10,52.9c-11.6,48.1-60.1,43.6-73.5,40.4C244,391.6,238.9,389.3,234.6,386.6z"/>
			</g>
		</g>
		<g>
			<g>
				<path class="st1" d="M219.9,370.2c0.1,0.3,0.9,2.3,2.5,5.2l0.8,0.2L219.9,370.2z"/>
			</g>
		</g>
		<g>
			<g>
				<path class="st1" d="M221.8,375.3c0.4,0.5,0.9,1,1.4,1.6c-0.3-0.5-0.6-1-0.8-1.5L221.8,375.3z"/>
			</g>
		</g>
		<g>
			<g>
				<path class="st0" d="M309.1,393c3.4-3.4,6.4-6.9,8.9-10.8c2.5-3.9,4.5-8,6-12.3c3.1-8.7,4.5-18,3.6-27.1
					c-0.8-9.1-3.8-18-8.2-26.3c-2.2-4.1-4.8-8.1-7.7-11.8c-1.5-1.9-3-3.7-4.5-5.4c-0.8-0.9-1.6-1.7-2.4-2.5
					c-0.8-0.8-1.7-1.7-2.4-2.3l0.6,0.4c-1.1-0.7-2.5-0.9-4.2-0.7c-1.7,0.2-3.6,0.9-5.4,1.8c-1.9,0.9-3.7,2.2-5.5,3.5
					c-1.8,1.3-3.5,2.9-5.1,4.4c-6.5,6.4-12.3,14.1-16.1,22.2c-0.9,2-1.7,4.1-2.3,6.1c-0.3,1-0.5,2-0.5,2.9c-0.1,0.9,0,1.6,0.1,2.4
					c0.2,1.5,1,2.7,2.1,3.7c1.1,1,2.6,1.6,4.2,1.8c3.3,0.5,7.2-0.8,10.6-3.1c3.4-2.3,6.4-5.6,9-9.3l0,0c1.5-2,4.3-2.4,6.3-0.9
					c1.6,1.2,2.2,3.4,1.5,5.2l0,0c-0.1,0.4-0.4,1.1-0.6,1.8c-0.2,0.6-0.3,1.3-0.5,2c-0.3,1.4-0.4,2.7-0.5,4.1
					c-0.2,2.7,0.1,5.5,0.8,8c0.3,1.3,0.8,2.5,1.3,3.8c0.6,1.2,1.2,2.4,2,3.4c0.7,1.1,1.6,2.1,2.5,3.1c0.4,0.5,1,0.9,1.5,1.4l1.5,1.4
					l0.4,0.4c1.9,1.6,2,4.5,0.4,6.3c-1.6,1.9-4.5,2-6.3,0.4l-2-1.8c-0.7-0.6-1.4-1.1-2-1.9c-1.2-1.4-2.5-2.7-3.5-4.2
					c-1.1-1.5-1.9-3.1-2.8-4.8c-0.7-1.7-1.4-3.4-1.8-5.2c-0.9-3.6-1.3-7.2-1-10.8c0.1-1.8,0.3-3.6,0.7-5.3c0.2-0.9,0.4-1.8,0.6-2.6
					c0.2-0.9,0.5-1.7,0.9-2.8l7.8,4.3l0,0c-3.1,4.3-6.7,8.3-11.3,11.5c-2.3,1.6-4.9,2.9-7.7,3.8c-2.9,0.9-6,1.3-9.2,0.8
					c-3.2-0.4-6.4-1.8-8.9-4c-2.5-2.2-4.4-5.4-5-8.8c-0.3-1.6-0.4-3.4-0.2-4.9c0.1-1.5,0.4-3,0.8-4.3c0.7-2.7,1.7-5.2,2.8-7.6
					c2.2-4.8,5-9.1,8-13.3c3-4.1,6.4-8,10.1-11.6c1.9-1.8,3.8-3.5,5.9-5.1c2.1-1.6,4.3-3.1,6.8-4.4c2.5-1.3,5.2-2.3,8.4-2.8
					c3.1-0.4,6.9,0,9.9,1.9l0,0c0.2,0.1,0.4,0.3,0.6,0.4c1.1,1,2,1.8,3,2.8c0.9,0.9,1.8,1.9,2.7,2.8c1.8,1.9,3.5,3.9,5,5.9
					c3.2,4.1,6.1,8.4,8.7,12.9c2.5,4.6,4.7,9.4,6.4,14.4c1.6,5,2.7,10.2,3.2,15.5c0.5,5.3,0.3,10.7-0.5,15.9
					c-0.9,5.3-2.2,10.3-4.3,15.2c-2,4.9-4.7,9.6-8.2,13.6c-3.5,4.1-7.7,7.5-12.3,9.9c-1.1,0.6-2.5,0.1-3.1-1
					C308.2,394.8,308.4,393.7,309.1,393L309.1,393z"/>
			</g>
		</g>
		<g>
			<g>
				<path class="st0" d="M224.1,368.7c0.2,0.4,0.5,1,0.8,1.5l0.9,1.6c0.3,0.5,0.6,1.1,0.9,1.6c0.3,0.5,0.6,1.1,1,1.6
					c1.3,2.1,2.8,4.1,4.3,6.1l2.4,2.8c0.9,0.9,1.7,1.8,2.6,2.7c0.9,0.8,1.8,1.7,2.7,2.5l2.9,2.3c3.9,3,8.3,5.2,12.9,7l3.6,1.4
					c1.1,0.4,2.4,0.8,3.6,1.2c2.4,0.8,4.9,1.4,7.4,1.9l0.1,0c1.2,0.3,2,1.5,1.8,2.7c-0.2,0.9-1,1.6-1.8,1.8
					c-2.9,0.5-5.8,0.5-8.6,0.3c-1.4-0.1-2.8-0.3-4.3-0.5c-1.4-0.2-2.8-0.6-4.2-0.9c-5.6-1.4-11-3.9-15.9-7.2
					c-4.8-3.3-9.1-7.4-12.7-12c-1.7-2.3-3.4-4.7-4.8-7.2c-0.7-1.2-1.4-2.5-2-3.9c-0.3-0.7-0.6-1.3-0.9-2c-0.3-0.7-0.5-1.3-0.8-2.2
					c-0.8-2.4,0.4-4.9,2.8-5.7c2.2-0.8,4.5,0.3,5.5,2.3L224.1,368.7z"/>
			</g>
		</g>
	</g>
	<g>
		<g>
			<path class="st4" d="M365.1,536.7"/>
		</g>
	</g>
	<g>
		<g>
			<path class="st4" d="M332.4,478.5"/>
		</g>
	</g>
	<g>
		<g>
			<path class="st1" d="M586.4,675.5h-232c0,0-6.1-46.6,6.3-114.3c3.1-16.7,7.3-34.8,13-53.7c5.8-19.3,13.2-39.5,22.6-60.3
				c0,0,1.3-3.9,4.2-9.7c3.6-7.4,9.7-18,18.7-27.9c15-16.5,37.9-31,70.8-25.7c33.5,5.4,50.5,28.4,59.1,50.4
				c4.6,11.7,6.8,23.2,7.9,31.5c1,7.8,1,12.8,1,12.8c1,28.2,3.7,56.3,7.1,82.1c5.2,39.9,12.1,74.2,16.6,94.7
				C584.5,668,586.4,675.5,586.4,675.5z"/>
		</g>
	</g>
	<g class="st2">
		<g>
			<path class="st0" d="M586.4,675.5h-232c0,0-6.1-46.6,6.3-114.3c81.7,1.2,71.8,15.3,111.9,16.9c48.4,1.8,55-21.6,92.5-17.5
				c5.2,39.9,12.1,74.2,16.6,94.7C584.5,668,586.4,675.5,586.4,675.5z"/>
		</g>
	</g>
	<g>
		<g>
			<path class="st0" d="M560.2,478.4c0.7,4.1,1.3,8.2,1.7,12.4c0.2,2.1,0.5,4.1,0.7,6.2c0.2,2.1,0.5,4.1,0.7,6.2l0.7,6.2l0.6,6.2
				c0.5,4.1,0.9,8.2,1.3,12.3c1.8,16.4,3.9,32.8,6.4,49.2c2.5,16.3,5.2,32.7,8.3,48.9c1.6,8.1,3.1,16.2,4.8,24.3
				c1.7,8.1,3.4,16.2,5.2,24.2l1.3,5.6h-5.6h-232h-4l-0.5-3.9l0,0c-0.7-5.1-1.1-10-1.3-15c-0.3-5-0.4-9.9-0.5-14.8
				c-0.1-9.9,0.1-19.8,0.8-29.6c0.6-9.9,1.6-19.7,2.8-29.5c1.2-9.8,2.7-19.6,4.7-29.2c3.7-19.4,8.7-38.5,14.7-57.3
				c6.1-18.8,13.5-37.1,23.1-54.3c0.6-1.1,2-1.5,3.1-0.9c1,0.5,1.4,1.7,1,2.7v0c-6.3,18.5-12.8,36.7-18.5,55.2
				c-2.8,9.3-5.4,18.6-7.7,28c-1.2,4.7-2.2,9.4-3.3,14.1c-1,4.7-2,9.5-2.8,14.2c-3.5,19-6,38.2-7.3,57.5c-0.6,9.7-1,19.3-1,29
				c0,4.8,0,9.7,0.3,14.5c0.2,4.8,0.4,9.7,0.9,14.2l0,0l-4.5-3.9h232l-4.4,5.6c-2.2-8.2-4.1-16.2-5.9-24.4l-2.7-12.2
				c-0.9-4.1-1.7-8.2-2.5-12.3c-3.2-16.4-6-32.8-8.4-49.3c-1.2-8.2-2.2-16.5-3.3-24.8c-0.5-4.1-0.9-8.3-1.3-12.5
				c-0.4-4.2-0.9-8.3-1.2-12.5c-0.3-4.2-0.7-8.3-1-12.5l-0.3-6.3l-0.2-6.3c-0.1-2.1-0.1-4.2-0.2-6.3c0-2.1,0-4.2,0.1-6.3
				c0.1-4.2,0.2-8.4,0.6-12.5c0.1-1.2,1.2-2.2,2.4-2.1C559.2,476.5,560.1,477.3,560.2,478.4L560.2,478.4z"/>
		</g>
	</g>
	<g>
		<g class="st3">
			<g>
				<path class="st0" d="M469.7,568.6c1,1.5,1.9,3,2.8,4.4C471.6,571.5,470.7,570,469.7,568.6z"/>
			</g>
		</g>
		<g>
			<g>
				<path class="st1" d="M415,569.4c-14.4,5.8-36.6,4.6-51.8,2.8c-9.1-1.1-15.5-9.5-14.1-18.6l0,0c1.2-8.3,8.5-14.3,16.9-13.9
					c14.2,0.7,35.5,1,48.9-2"/>
			</g>
		</g>
		<g class="st3">
			<g>
				<path class="st0" d="M415,569.4c-14.4,5.8-36.6,4.6-51.8,2.8c-9.1-1.1-15.5-9.5-14.1-18.6c0.3-1.8,0.9-3.6,1.7-5.2
					c2.4,4.6,6.9,7.9,12.5,8.6c15.1,1.8,37.4,3,51.7-2.7L415,569.4z"/>
			</g>
		</g>
		<g>
			<g>
				<path class="st0" d="M386.4,578.2c-8.4,0-16.6-0.7-23.7-1.5c-5.6-0.7-10.6-3.5-14-8c-3.4-4.5-4.9-10.1-4-15.7
					c1.6-10.6,10.8-18.2,21.5-17.7c20.8,1,37.8,0.3,47.8-1.9c2.2-0.5,7.6-0.5,10.8,9.5c3.1,9.9,2.7,26.5-8,30.8l0,0
					C408.1,577,397.2,578.2,386.4,578.2z M415,569.4L415,569.4L415,569.4z M365.1,544.2c-5.8,0-10.8,4.2-11.6,10.1
					c-0.5,3.2,0.3,6.3,2.3,8.9c1.9,2.5,4.8,4.2,7.9,4.5c21.6,2.6,39.2,1.7,49.6-2.5l0,0c2.5-1,3.4-5.2,3.7-6.9
					c1-6.5-0.8-13.8-2.3-16c-13.7,2.8-34.1,2.6-49,1.9C365.5,544.2,365.3,544.2,365.1,544.2z"/>
			</g>
		</g>
		<g>
			<g>
				<path class="st1" d="M576.7,572.2c-7.1,0.9-15.8,1.6-24.5,1.5c-0.6,0-1.2,0-1.8,0c-0.6,0-1.3,0-1.9,0c-0.4,0-0.8,0-1.2,0
					c-0.5,0-1,0-1.5-0.1c-0.6,0-1.2-0.1-1.9-0.1h0c-0.6,0-1.2-0.1-1.9-0.2c-0.4,0-0.8-0.1-1.2-0.1c-0.3,0-0.7-0.1-1-0.1
					c-0.5-0.1-1.1-0.1-1.6-0.2c-0.5-0.1-1-0.2-1.5-0.2c-0.1,0-0.2,0-0.3,0c-0.6-0.1-1.1-0.2-1.7-0.3c-0.6-0.1-1.1-0.2-1.7-0.3
					c0,0-0.1,0-0.1,0c-0.3-0.1-0.6-0.1-0.9-0.2c-0.3-0.1-0.7-0.2-1-0.2h0c-1-0.2-2-0.5-3-0.8c-0.5-0.2-1-0.3-1.6-0.5
					c-0.5-0.2-1-0.4-1.5-0.6l0.1-15.2l0.1-16.5c3.5,0.8,7.4,1.3,11.6,1.7c12.3,1.1,26.8,0.8,37.3,0.3c0.2,0,0.5,0,0.8,0
					c8,0,14.9,5.9,16.1,13.9C592.2,562.7,585.8,571.1,576.7,572.2z"/>
			</g>
		</g>
		<g class="st2">
			<g>
				<path class="st0" d="M576.7,572.2c-7.1,0.9-15.8,1.6-24.5,1.5c-0.6,0-1.2,0-1.8,0c-0.6,0-1.3,0-1.9,0c-0.4,0-0.8,0-1.2,0
					c-0.5,0-1,0-1.5-0.1c-0.6,0-1.2-0.1-1.9-0.1h0c-0.6,0-1.2-0.1-1.9-0.2c-0.4,0-0.8-0.1-1.2-0.1c-0.3,0-0.7-0.1-1-0.1
					c-0.5-0.1-1.1-0.1-1.6-0.2c-0.5-0.1-1-0.2-1.5-0.2c-0.1,0-0.2,0-0.3,0c-0.6-0.1-1.1-0.2-1.7-0.3c-0.6-0.1-1.1-0.2-1.7-0.3
					c0,0-0.1,0-0.1,0c-0.3-0.1-0.6-0.1-0.9-0.2c-0.3-0.1-0.7-0.2-1-0.2h0c-1-0.2-2-0.5-3-0.8c-0.5-0.2-1-0.3-1.6-0.5
					c-0.5-0.2-1-0.4-1.5-0.6l0.1-15.2l0-1.1c0.5,0.2,1,0.4,1.4,0.5c0.5,0.2,1,0.4,1.6,0.5c1,0.3,2,0.6,3,0.8h0
					c0.3,0.1,0.7,0.2,1,0.2c0.3,0.1,0.6,0.1,0.9,0.2l0.1,0c0.5,0.1,1.1,0.2,1.7,0.3c0.5,0.1,1.1,0.2,1.7,0.3c0.1,0,0.2,0,0.3,0
					c0.5,0.1,1,0.2,1.5,0.2c0.5,0.1,1,0.2,1.6,0.2c0.3,0,0.7,0.1,1,0.1c0.4,0,0.8,0.1,1.2,0.1c0.6,0.1,1.2,0.1,1.9,0.2h0
					c0.6,0,1.2,0.1,1.9,0.1c0.5,0,1,0,1.5,0.1c0.4,0,0.8,0,1.2,0c0.6,0,1.3,0,1.9,0c0.6,0,1.2,0,1.8,0c8.7,0.1,17.4-0.6,24.5-1.5
					c5.3-0.6,9.7-3.7,12.1-8c1,1.7,1.7,3.7,2,5.8C592.2,562.7,585.8,571.1,576.7,572.2z"/>
			</g>
		</g>
		<g>
			<g>
				<path class="st0" d="M553.5,578.2c-10.8,0-21.8-1.2-30.3-4.6l0,0c-10.6-4.3-11-20.9-8-30.8c3.1-10,8.6-10,10.8-9.5
					c10,2.2,26.9,2.9,47.8,1.9c10.7-0.5,20,7.1,21.5,17.7c0.8,5.6-0.6,11.2-4,15.7c-3.4,4.5-8.4,7.3-14,8
					C570.2,577.5,561.9,578.2,553.5,578.2z M525.2,542.3c-1.5,2.2-3.3,9.5-2.3,16c0.3,1.7,1.2,5.9,3.7,6.9l0,0
					c10.4,4.2,28,5.1,49.6,2.5c3.2-0.4,6-2,7.9-4.5c2-2.5,2.8-5.7,2.3-8.9c-0.9-6-6.2-10.3-12.2-10.1
					C559.3,544.9,538.9,545.1,525.2,542.3z"/>
			</g>
		</g>
		<g>
			<g>
				<path class="st1" d="M530.5,527.2V578c0,9.4-7.7,17.1-17.1,17.1h-93.6c-9.4,0-17.1-7.7-17.1-17.1v-50.8
					c0-9.4,7.7-17.1,17.1-17.1h93.6c5.5,0,10.5,2.7,13.6,6.8C529.2,519.7,530.5,523.3,530.5,527.2z"/>
			</g>
		</g>
		<g class="st2">
			<g>
				<path class="st0" d="M530.5,527.2V578c0,9.4-7.7,17.1-17.1,17.1h-93.6c-9.4,0-17.1-7.7-17.1-17.1v-19
					c10,19.5,44.1,27.2,72.1,24.3c6.3-0.6,10.7-6.6,9.2-12.7c-0.5-1.8-0.7-3.8-0.7-5.8c0-11.1,7.3-20.1,16.4-20.1
					c8.8,0,15.9,8.4,16.4,19c11.2-14.7,11.8-34.3,10.9-46.9C529.2,519.7,530.5,523.3,530.5,527.2z"/>
			</g>
		</g>
		<g>
			<g>
				<path class="st0" d="M511.6,599.6h-90c-12.9,0-23.4-10.5-23.4-23.4V529c0-12.9,10.5-23.4,23.4-23.4h90
					c12.9,0,23.4,10.5,23.4,23.4v47.2C535,589.1,524.5,599.6,511.6,599.6z M421.6,514.6c-8,0-14.4,6.5-14.4,14.4v47.2
					c0,8,6.5,14.4,14.4,14.4h90c8,0,14.4-6.5,14.4-14.4V529c0-8-6.5-14.4-14.4-14.4H421.6z"/>
			</g>
		</g>
		<g>
			<g>
				
					<ellipse transform="matrix(0.9239 -0.3827 0.3827 0.9239 -173.4394 233.3)" class="st5" cx="499.7" cy="552.6" rx="14.8" ry="14.8"/>
			</g>
		</g>
		<g>
			<g>
				<path class="st1" d="M514.5,552.6c0,0.8-0.1,1.6-0.2,2.3c-1.1-7-7.2-12.4-14.6-12.4c-7.4,0-13.5,5.4-14.6,12.4
					c-0.1-0.8-0.2-1.5-0.2-2.3c0-8.2,6.6-14.8,14.8-14.8C507.9,537.8,514.5,544.5,514.5,552.6z"/>
			</g>
		</g>
		<g>
			<g>
				<path class="st6" d="M514.5,552.6c0,8.2-6.6,14.8-14.8,14.8c-8.2,0-14.8-6.6-14.8-14.8c0-1.9,0.4-3.7,1-5.3
					c2.1,5.5,7.5,9.4,13.8,9.4s11.6-3.9,13.8-9.4C514.1,548.9,514.5,550.7,514.5,552.6z"/>
			</g>
		</g>
		<g>
			<g>
				<path class="st0" d="M499.7,570.8c-10,0-18.1-8.1-18.1-18.2s8.1-18.2,18.1-18.2s18.2,8.1,18.2,18.2
					C517.9,562.6,509.7,570.8,499.7,570.8z M499.7,541.2c-6.3,0-11.4,5.1-11.4,11.4c0,6.3,5.1,11.4,11.4,11.4
					c6.3,0,11.4-5.1,11.4-11.4C511.1,546.3,506,541.2,499.7,541.2z"/>
			</g>
		</g>
		<g>
			<g>
				<path class="st0" d="M457.8,599.6c-2.5,0-4.5-2-4.5-4.5v-24.5c0-5.9-2.8-11.6-7.6-15.2c-7-5.3-11.1-13.6-11.1-22.3v-23
					c0-2.5,2-4.5,4.5-4.5s4.5,2,4.5,4.5v23c0,5.9,2.8,11.6,7.6,15.2c7,5.2,11.1,13.6,11.1,22.3v24.5
					C462.3,597.6,460.3,599.6,457.8,599.6z"/>
			</g>
		</g>
	</g>
	<g>
		<g>
			<g>
				<path class="st1" d="M637,383L637,383c-1.6-0.4-2.6-2-2.2-3.6l19.3-84.1c0.4-1.6,2-2.6,3.6-2.2l0,0
					c16.9,3.9,27.5,20.8,23.6,37.7l-6.6,28.7C670.8,376.3,653.9,386.9,637,383z"/>
			</g>
			<g>
				<path class="st0" d="M644,384.6c-2.4,0-4.8-0.3-7.2-0.8c-2-0.5-3.3-2.5-2.9-4.6l19.3-84.1c0.2-1,0.8-1.8,1.7-2.4
					s1.9-0.7,2.9-0.5c8.4,1.9,15.5,7,20.1,14.3c4.6,7.3,6,15.9,4.1,24.3l-6.6,28.7C672,374.5,658.7,384.6,644,384.6z M657,293.8
					c-0.4,0-0.8,0.1-1.2,0.3c-0.5,0.3-0.8,0.8-1,1.4l-19.3,84.1c-0.3,1.2,0.5,2.4,1.6,2.6l0,0c8,1.8,16.2,0.5,23.1-3.9
					c6.9-4.3,11.8-11.1,13.6-19.1l6.6-28.7c1.8-8,0.5-16.2-3.9-23.1c-4.3-6.9-11.1-11.8-19.1-13.6
					C657.3,293.8,657.1,293.8,657,293.8z"/>
			</g>
		</g>
		<g class="st2">
			<g>
				<path class="st0" d="M677.8,346l-3.1,13.5c-3.9,16.9-20.8,27.5-37.7,23.6c-1.6-0.4-2.6-2-2.2-3.6l5.1-22.4
					c0.2,1.1,1.1,2.1,2.3,2.3l2,0.5C657.5,362.9,670.8,357,677.8,346z"/>
			</g>
		</g>
		<g>
			<g>
				<path class="st0" d="M644.1,388.3c-2.7,0-5.4-0.3-8.1-0.9c-4-0.9-6.5-5-5.6-9l19.3-84.1c0.5-2,1.6-3.6,3.3-4.7
					c1.7-1.1,3.7-1.4,5.7-1c9.3,2.1,17.3,7.8,22.4,15.9s6.7,17.8,4.6,27.1l-6.6,28.7c-2.2,9.4-7.8,17.3-15.9,22.4
					C657.3,386.5,650.8,388.3,644.1,388.3z M639.5,378.9c6.5,1.1,13.2-0.2,18.8-3.7c6.1-3.8,10.3-9.8,12-16.8l6.6-28.7
					c1.6-7,0.4-14.2-3.4-20.3c-3.5-5.7-9-9.7-15.3-11.6L639.5,378.9z M638,378.6L638,378.6L638,378.6L638,378.6z"/>
			</g>
		</g>
		<g>
			<g>
				<path class="st1" d="M380,229.3L380,229.3c1.6,0.4,2.6,2,2.2,3.6L362.9,317c-0.4,1.6-2,2.6-3.6,2.2l0,0
					c-16.9-3.9-27.5-20.8-23.6-37.7l6.6-28.7C346.2,236,363.1,225.4,380,229.3z"/>
			</g>
			<g>
				<path class="st0" d="M360,320.2c-0.3,0-0.6,0-0.9-0.1c-17.3-4-28.2-21.3-24.2-38.6l6.6-28.7c4-17.3,21.3-28.2,38.6-24.2l0,0
					c2,0.5,3.3,2.5,2.9,4.6l-19.3,84.1C363.3,319,361.8,320.2,360,320.2z M373,229.3c-14,0-26.6,9.6-29.9,23.8l-6.6,28.7
					c-3.8,16.5,6.5,32.9,23,36.7c1.2,0.3,2.4-0.5,2.6-1.6l19.3-84.1c0.3-1.2-0.5-2.4-1.6-2.6C377.5,229.6,375.2,229.3,373,229.3z"/>
			</g>
		</g>
		<g class="st2">
			<g>
				<path class="st0" d="M368.3,293.7l-5.4,23.3c-0.4,1.6-2,2.6-3.6,2.2c-8.9-2-16-7.7-20.2-15c-3.8-6.6-5.2-14.6-3.4-22.7l2.8-12.1
					c2.4,11.7,11.4,21.5,23.8,24.4l3.1,0.7C366.5,294.9,367.6,294.5,368.3,293.7z"/>
			</g>
		</g>
		<g>
			<g>
				<path class="st0" d="M360,323.9c-0.5,0-1.1-0.1-1.7-0.2c-19.3-4.4-31.4-23.8-27-43.1l6.6-28.7c4.4-19.3,23.8-31.4,43.1-27l0,0
					c4,0.9,6.5,4.9,5.6,9l-19.3,84.1C366.5,321.5,363.4,323.9,360,323.9z M373,233c-12.3,0-23.4,8.5-26.2,20.9l-6.6,28.7
					c-3.2,14,5.1,28,18.8,31.9l18.6-81.1C376,233.2,374.5,233,373,233z M379,233.7L379,233.7C379,233.7,379,233.7,379,233.7z"/>
			</g>
		</g>
		<g class="st2">
			<g>
				<path class="st0" d="M570.8,459.1c-4.5,2.4-9.1,4.6-13.8,6.6c-5.2,2.2-10.6,4.1-16.1,5.6c-26.3,7.5-55,7.8-83.2-0.8
					c-11.1-3.4-21.4-8-31-13.5c-9.6-5.5-18.3-12.1-26.2-19.5c-8-7.5-15.2-15.8-21.3-24.8c13.4-1.3,27.4-3.6,40-3.1
					c15-16.5,37.9-31,70.8-25.7c33.5,5.4,50.5,28.4,59.1,50.4l1.3-6.1C557.4,434.9,564.3,445.9,570.8,459.1z"/>
			</g>
		</g>
		<g>
			<g>
				<circle class="st1" cx="508.5" cy="306.2" r="147.1"/>
			</g>
			<g>
				<path class="st0" d="M508.4,454.1c-14.3,0-28.8-2.1-43.1-6.5c-78-23.8-122-106.7-98.2-184.6s106.7-122,184.6-98.2
					c37.8,11.5,68.8,37.1,87.3,72c18.5,34.9,22.4,74.9,10.9,112.7C630.5,413,571.8,454.1,508.4,454.1z M508.6,159.9
					c-62.6,0-120.7,40.6-140,103.5c-23.6,77.1,20,159,97.1,182.6c14.2,4.3,28.5,6.4,42.7,6.4c62.6,0,120.7-40.6,140-103.5
					c11.4-37.4,7.6-76.9-10.7-111.4c-18.3-34.5-49-59.8-86.4-71.2C537.1,162,522.7,159.9,508.6,159.9z"/>
			</g>
		</g>
		<g class="st2">
			<g>
				<path class="st0" d="M653.8,329.3c-1,6.6-2.6,13.3-4.6,19.9c-23.8,77.7-106,121.4-183.6,97.7c-77.7-23.8-121.4-106-97.7-183.6
					c0.7-2.2,1.4-4.5,2.2-6.6c-11.4,71.4,31.2,142,102.3,163.8C547.8,443.4,627.5,402.8,653.8,329.3z"/>
			</g>
		</g>
		<g>
			<g>
				<path class="st0" d="M508.4,457.8c-14.6,0-29.5-2.1-44.2-6.6c-79.9-24.4-125.1-109.3-100.6-189.2
					C388,182,472.9,136.8,552.8,161.2c38.7,11.8,70.5,38,89.5,73.8s23,76.8,11.1,115.5C633.5,415.7,573.3,457.8,508.4,457.8z
					 M508.6,163.6c-61,0-117.7,39.6-136.4,100.9c-23,75.2,19.5,155,94.7,178c13.8,4.2,27.8,6.2,41.6,6.2
					c61,0,117.7-39.6,136.4-100.9c11.1-36.4,7.4-75-10.5-108.6s-47.8-58.3-84.2-69.4C536.4,165.6,522.4,163.6,508.6,163.6z"/>
			</g>
		</g>
		<g>
			<g>
				<path class="st0" d="M647.6,352.6c-8,27.6-24.4,50.7-45.9,67.5c-16.1,12.6-71.5,26.8-130,10.4c-54.3-15.2-95.2-58.3-102.1-77.6
					c-9.2-25.7-10.8-53.9-2.8-81.6c21.2-73.2,92.8-85.3,170.3-62.9C614.7,231,668.8,279.5,647.6,352.6z"/>
			</g>
		</g>
		<g>
			<g>
				<path class="st0" d="M526.1,439.9c-17.5,0-36.3-2.1-55-7.4c-54.9-15.3-96.6-59.5-103.5-78.8c-9.7-27-10.7-55.7-2.8-82.9
					c10.2-35.3,32.2-58.4,65.4-68.7c29.1-9,66.3-7.5,107.5,4.4s73.4,30.5,93.2,53.7c22.6,26.4,28.8,57.7,18.6,93l0,0
					c-7.9,27.2-24,50.9-46.6,68.6C590.8,431.3,561.1,439.9,526.1,439.9z M471.9,200.5c-14.7,0-28.3,1.9-40.5,5.6
					c-31.8,9.9-52.9,32-62.6,65.9c-7.6,26.3-6.7,54.1,2.7,80.3c6.7,18.7,47.2,61.3,100.7,76.2c59.3,16.6,113.6,1.4,128.2-10
					c21.9-17.1,37.5-40.1,45.2-66.5l0,0c9.8-33.9,3.8-63.9-17.8-89.1c-19.3-22.6-50.8-40.7-91.2-52.4
					C513.4,203.8,491.6,200.5,471.9,200.5z"/>
			</g>
		</g>
		<g class="st3">
			<g>
				<path class="st7" d="M640,276.5c12.4,21.3,16.1,46.8,7.6,76.1c-8,27.6-24.4,50.7-45.9,67.5c-16.1,12.6-71.5,26.8-130,10.4
					c-20.7-5.8-39.4-15.6-55.1-26.6c72.4,18.6,139.9,1,159.9-14.6c27.3-21.3,48.1-50.6,58.2-85.7C637.5,294.3,639.2,285.2,640,276.5
					z"/>
			</g>
		</g>
		<g>
			<g>
				<path class="st0" d="M654.1,289.1c-1.3,0-2.6-0.6-3.4-1.7l-0.3-0.5l-0.2-0.6c-14.1-40.1-54.5-72.5-110.7-88.8
					c-56.6-16.4-108.1-9.9-141.4,17.7l-0.3,0.2c-1.9,1.3-4.5,0.8-5.8-1.1c-1.2-1.8-0.9-4.3,0.9-5.6c35.4-29.3,89.6-36.3,148.8-19.2
					c58.8,17,101.1,51.1,116.2,93.7c0.8,1.8,0.1,4-1.6,5.1C655.6,288.9,654.8,289.1,654.1,289.1z"/>
			</g>
		</g>
		<g class="st8">
			<g>
				
					<ellipse transform="matrix(0.4446 -0.8957 0.8957 0.4446 40.7738 724.7774)" class="st1" cx="604.8" cy="329.5" rx="26" ry="18.9"/>
			</g>
		</g>
		<g class="st8">
			<g>
				
					<ellipse transform="matrix(0.5641 -0.8257 0.8257 0.5641 -59.9287 631.6907)" class="st1" cx="568.3" cy="372.6" rx="11.9" ry="10.2"/>
			</g>
		</g>
		<g class="st8">
			<g>
				<path class="st1" d="M390.2,321.5c0,0-1.7-74.1,42.8-90.6c44.5-16.5,97.1-1.1,94.9,1.9c0,0-62.4-2.8-98.6,36.8
					C401.4,300,390.2,321.5,390.2,321.5z"/>
			</g>
		</g>
	</g>
	<g>
		<g>
			<g>
				<path class="st9" d="M720.3,690.2v64H227.2v-64c0-19.6,15.9-35.5,35.5-35.5h422.1C704.4,654.7,720.3,670.6,720.3,690.2z"/>
			</g>
		</g>
		<g class="st2">
			<g>
				<path class="st0" d="M453.2,654.7c-8.5,37.2-3.1,73.5-9,99.6h-71c4.1-29.7,10.6-75.7,14.4-99.6H453.2z"/>
			</g>
		</g>
		<g class="st2">
			<g>
				<path class="st0" d="M566,754.3h-71c-5.8-26.1-0.4-62.4-9-99.6h65.5C555.4,678.6,561.9,724.6,566,754.3z"/>
			</g>
		</g>
		<g>
			<g>
				<path class="st10" d="M408.4,754.3v181.2H260.4c-18.3,0-33.2-14.9-33.2-33.2v-148H408.4z"/>
			</g>
		</g>
		<g>
			<g>
				<rect x="408.4" y="754.3" class="st11" width="130.8" height="181.2"/>
			</g>
		</g>
		<g>
			<g>
				<path class="st10" d="M720.3,754.3v147.9c0,18.3-14.9,33.2-33.2,33.2h-148V754.3H720.3z"/>
			</g>
		</g>
		<g class="st2">
			<g>
				<path class="st0" d="M720.3,699.8v202.4c0,18.3-14.9,33.2-33.2,33.2H260.4c-18.3,0-33.2-14.9-33.2-33.2V834
					c68.4,47.2,163.5-4.9,163.5-4.9c2.6,14.2,8.8,25.1,17.7,33.4c28.6,26.8,84.4,26,130.8,16c23.5-5,44.6-12.5,58.6-19.8
					c44.2-23.4,84.9-41.1,107.2-88.4C710.9,757.6,715.5,722.3,720.3,699.8z"/>
			</g>
		</g>
		<g class="st2">
			<g>
				<path class="st0" d="M444.2,754.3c0,0-7.8,81-56.5,73.5c-48.4-7.5-24.5-75.8-24.5-75.8L444.2,754.3z"/>
			</g>
		</g>
		<g class="st2">
			<g>
				<path class="st0" d="M495.8,754.3c0,0,7.8,81,56.5,73.5c48.4-7.5,24.5-75.8,24.5-75.8L495.8,754.3z"/>
			</g>
		</g>
		<g>
			<g>
				<path class="st0" d="M724.8,758.8H222.7v-68.5c0-22.1,18-40,40-40h422.1c22.1,0,40,18,40,40V758.8z M231.7,749.8h484.1v-59.5
					c0-17.1-13.9-31-31-31H262.7c-17.1,0-31,13.9-31,31V749.8z"/>
			</g>
		</g>
		<g>
			<g>
				<path class="st0" d="M687.1,939.9H260.4c-20.8,0-37.7-16.9-37.7-37.7V749.8h502.1v152.4C724.8,923,707.9,939.9,687.1,939.9z
					 M231.7,758.8v143.4c0,15.8,12.9,28.7,28.7,28.7h426.7c15.8,0,28.7-12.9,28.7-28.7V758.8H231.7z"/>
			</g>
		</g>
		<g>
			<g>
				<path class="st0" d="M412.9,939.9H260.4c-20.8,0-37.7-16.9-37.7-37.7V749.8h190.2L412.9,939.9L412.9,939.9z M231.7,758.8v143.4
					c0,15.8,12.9,28.7,28.7,28.7h143.4V758.8H231.7z"/>
			</g>
		</g>
		<g>
			<g>
				<path class="st0" d="M543.7,939.9H403.9V749.8h139.8L543.7,939.9L543.7,939.9z M412.9,930.9h121.8V758.8H412.9V930.9z"/>
			</g>
		</g>
		<g>
			<g>
				<path class="st0" d="M687.1,939.9H534.7V749.8h190.2v152.4C724.8,923,707.9,939.9,687.1,939.9z M543.7,930.9h143.5
					c15.8,0,28.7-12.9,28.7-28.7V758.8H543.7V930.9z"/>
			</g>
		</g>
		<g>
			<g>
				<path class="st12" d="M333.8,704.5c0,19.8-16,35.8-35.8,35.8s-35.8-16-35.8-35.8s16-35.8,35.8-35.8
					C317.8,668.7,333.8,684.7,333.8,704.5z"/>
			</g>
		</g>
		<g>
			<g>
				<path class="st12" d="M679.8,704.5c0,19.8-16,35.8-35.8,35.8s-35.8-16-35.8-35.8c0-1.8,0.1-3.6,0.4-5.4
					c2.6-17.2,17.4-30.4,35.4-30.4s32.8,13.2,35.4,30.4C679.7,700.9,679.8,702.7,679.8,704.5z"/>
			</g>
		</g>
		<g class="st3">
			<g>
				<path class="st0" d="M333.6,704.5c0,19.8-16,35.8-35.8,35.8s-35.8-16-35.8-35.8c0-1.8,0.1-3.6,0.4-5.4c3.8,4.8,4.5,13.6,13,13.6
					c6.8,0,8.5-11.8,8.5-11.8h27.9c0,0,1.7,11.8,8.5,11.8c8.5,0,9.2-8.8,13-13.6C333.5,700.9,333.6,702.7,333.6,704.5z"/>
			</g>
		</g>
		<g class="st3">
			<g>
				<path class="st0" d="M679.8,704.5c0,19.8-16,35.8-35.8,35.8s-35.8-16-35.8-35.8c0-1.8,0.1-3.6,0.4-5.4c3.8,4.8,4.5,13.6,13,13.6
					c6.8,0,8.5-11.8,8.5-11.8H658c0,0,1.7,11.8,8.5,11.8c8.5,0,9.2-8.8,13-13.6C679.7,700.9,679.8,702.7,679.8,704.5z"/>
			</g>
		</g>
		<g>
			<g>
				<path class="st0" d="M298,744.8c-22.2,0-40.3-18.1-40.3-40.3c0-22.2,18.1-40.3,40.3-40.3c22.2,0,40.3,18.1,40.3,40.3
					C338.3,726.7,320.2,744.8,298,744.8z M298,673.2c-17.2,0-31.3,14-31.3,31.3s14,31.3,31.3,31.3s31.3-14,31.3-31.3
					C329.3,687.2,315.3,673.2,298,673.2z"/>
			</g>
		</g>
		<g>
			<g>
				<path class="st9" d="M308.2,704.5c0,5.7-4.6,10.2-10.2,10.2c-5.6,0-10.2-4.6-10.2-10.2c0-5.7,4.6-10.2,10.2-10.2
					S308.2,698.8,308.2,704.5z"/>
			</g>
		</g>
		<g>
			<g>
				<path class="st0" d="M644,744.8c-22.2,0-40.3-18.1-40.3-40.3c0-22.2,18.1-40.3,40.3-40.3c22.2,0,40.3,18.1,40.3,40.3
					C684.3,726.7,666.2,744.8,644,744.8z M644,673.2c-17.2,0-31.3,14-31.3,31.3s14,31.3,31.3,31.3s31.3-14,31.3-31.3
					C675.3,687.2,661.3,673.2,644,673.2z"/>
			</g>
		</g>
		<g>
			<g>
				<path class="st9" d="M654.3,704.5c0,5.7-4.6,10.2-10.2,10.2c-5.7,0-10.2-4.6-10.2-10.2c0-5.7,4.6-10.2,10.2-10.2
					S654.3,698.8,654.3,704.5z"/>
			</g>
		</g>
		<g class="st13">
			<g>
				<path class="st1" d="M654.3,704.5c0,1.3-0.2,2.5-0.7,3.6c-1.5-3.9-5.2-6.6-9.6-6.6s-8.1,2.7-9.6,6.6c-0.4-1.1-0.7-2.3-0.7-3.6
					c0-5.7,4.6-10.2,10.2-10.2S654.3,698.8,654.3,704.5z"/>
			</g>
		</g>
		<g class="st13">
			<g>
				<path class="st1" d="M308.1,704.5c0,1.3-0.2,2.5-0.7,3.6c-1.5-3.9-5.2-6.6-9.6-6.6s-8.1,2.7-9.6,6.6c-0.4-1.1-0.7-2.3-0.7-3.6
					c0-5.7,4.6-10.2,10.2-10.2S308.1,698.8,308.1,704.5z"/>
			</g>
		</g>
		<g>
			<g>
				<path class="st0" d="M644,719.2c-8.1,0-14.7-6.6-14.7-14.7s6.6-14.7,14.7-14.7s14.7,6.6,14.7,14.7S652.1,719.2,644,719.2z
					 M644,698.8c-3.2,0-5.7,2.6-5.7,5.7s2.6,5.7,5.7,5.7s5.7-2.6,5.7-5.7S647.2,698.8,644,698.8z"/>
			</g>
		</g>
		<g>
			<g>
				<path class="st1" d="M565.2,702.6H380.1c-9.3,0-17-7.6-17-17l0,0c0-9.3,7.6-17,17-17h185.1c9.3,0,17,7.6,17,17l0,0
					C582.1,695,574.5,702.6,565.2,702.6z"/>
			</g>
		</g>
		<g class="st3">
			<g>
				<path class="st0" d="M582.1,681.1v9.5c0,6.6-5.4,12-12,12h-195c-6.6,0-12-5.4-12-12v-9.5c0,6.6,5.4,12,12,12h195
					C576.7,693.2,582.1,687.8,582.1,681.1z"/>
			</g>
		</g>
		<g>
			<g>
				<path class="st1" d="M491.7,881.4h-35.9c-16.4,0-29.8-13.4-29.8-29.8v-5.3c0-16.4,13.4-29.8,29.8-29.8h35.9
					c16.4,0,29.8,13.4,29.8,29.8v5.3C521.6,868,508.1,881.4,491.7,881.4z"/>
			</g>
		</g>
		<g class="st3">
			<g>
				<path class="st0" d="M521.6,862.3v10.9c0,4.5-3.7,8.2-8.2,8.2h-79.1c-4.5,0-8.2-3.7-8.2-8.2v-10.9c0,4.5,3.7,8.2,8.2,8.2h79.1
					C517.9,870.5,521.6,866.8,521.6,862.3z"/>
			</g>
		</g>
		<g>
			<g>
				<path class="st0" d="M513.3,885.9h-79.1c-7,0-12.7-5.7-12.7-12.7v-48.5c0-7,5.7-12.7,12.7-12.7h79.1c7,0,12.7,5.7,12.7,12.7
					v48.5C526.1,880.2,520.4,885.9,513.3,885.9z M434.2,821c-2,0-3.7,1.7-3.7,3.7v48.5c0,2,1.7,3.7,3.7,3.7h79.1
					c2,0,3.7-1.7,3.7-3.7v-48.5c0-2-1.7-3.7-3.7-3.7H434.2z"/>
			</g>
		</g>
		<g>
			<g>
				<path class="st14" d="M436.1,919.1h-5.7c-2.4,0-4.4-2-4.4-4.4v-14.4c0-2.4,2-4.4,4.4-4.4h5.7c2.4,0,4.4,2,4.4,4.4v14.4
					C440.5,917.1,438.5,919.1,436.1,919.1z"/>
			</g>
		</g>
		<g class="st3">
			<g>
				<path class="st0" d="M440.5,905.3v9.4c0,2.4-2,4.4-4.4,4.4h-5.7c-2.4,0-4.4-2-4.4-4.4v-9.4c0,2.4,2,4.4,4.4,4.4h5.7
					C438.5,909.7,440.5,907.7,440.5,905.3z"/>
			</g>
		</g>
		<g>
			<g>
				<path class="st0" d="M436.1,923.6h-5.7c-4.9,0-8.9-4-8.9-8.9v-14.4c0-4.9,4-8.9,8.9-8.9h5.7c4.9,0,8.9,4,8.9,8.9v14.4
					C445,919.6,441,923.6,436.1,923.6z M436,900.3l-5.6,0.1l0.1,14.3l5.5-0.1V900.3z M436.1,914.6
					C436.1,914.6,436.1,914.6,436.1,914.6L436.1,914.6z"/>
			</g>
		</g>
		<g>
			<g>
				<path class="st14" d="M463.1,919.1h-5.7c-2.4,0-4.4-2-4.4-4.4v-14.4c0-2.4,2-4.4,4.4-4.4h5.7c2.4,0,4.4,2,4.4,4.4v14.4
					C467.5,917.1,465.6,919.1,463.1,919.1z"/>
			</g>
		</g>
		<g>
			<g>
				<path class="st0" d="M463.1,923.6h-5.7c-4.9,0-8.9-4-8.9-8.9v-14.4c0-4.9,4-8.9,8.9-8.9h5.7c4.9,0,8.9,4,8.9,8.9v14.4
					C472,919.6,468,923.6,463.1,923.6z M463,900.3l-5.6,0.1l0.1,14.3l5.5-0.1V900.3z M463.1,914.6L463.1,914.6L463.1,914.6z"/>
			</g>
		</g>
		<g>
			<g>
				<path class="st14" d="M490.1,919.1h-5.7c-2.4,0-4.4-2-4.4-4.4v-14.4c0-2.4,2-4.4,4.4-4.4h5.7c2.4,0,4.4,2,4.4,4.4v14.4
					C494.5,917.1,492.6,919.1,490.1,919.1z"/>
			</g>
		</g>
		<g>
			<g>
				<path class="st0" d="M490.1,923.6h-5.7c-4.9,0-8.9-4-8.9-8.9v-14.4c0-4.9,4-8.9,8.9-8.9h5.7c4.9,0,8.9,4,8.9,8.9v14.4
					C499,919.6,495,923.6,490.1,923.6z M490,900.3l-5.6,0.1l0.1,14.3l5.5-0.1V900.3z M490.1,914.6L490.1,914.6L490.1,914.6z"/>
			</g>
		</g>
		<g>
			<g>
				<path class="st14" d="M517.1,919.1h-5.7c-2.4,0-4.4-2-4.4-4.4v-14.4c0-2.4,2-4.4,4.4-4.4h5.7c2.4,0,4.4,2,4.4,4.4v14.4
					C521.6,917.1,519.6,919.1,517.1,919.1z"/>
			</g>
		</g>
		<g>
			<g>
				<path class="st0" d="M517.1,923.6h-5.7c-4.9,0-8.9-4-8.9-8.9v-14.4c0-4.9,4-8.9,8.9-8.9h5.7c4.9,0,8.9,4,8.9,8.9v14.4
					C526.1,919.6,522.1,923.6,517.1,923.6z M517.1,900.3l-5.6,0.1l0.1,14.3l5.5-0.1V900.3z M517.1,914.6L517.1,914.6L517.1,914.6z"
					/>
			</g>
		</g>
		<g class="st3">
			<g>
				<circle class="st0" cx="570.1" cy="732.7" r="15.4"/>
			</g>
		</g>
		<g>
			<g>
				<circle class="st14" cx="570.1" cy="727" r="12"/>
			</g>
		</g>
		<g class="st3">
			<g>
				<path class="st0" d="M582.1,727c0,6.7-5.4,12-12,12c-6.6,0-12-5.4-12-12c0-1.4,0.2-2.7,0.7-4c1.6,4.7,6.1,8,11.3,8
					c5.2,0,9.7-3.3,11.3-8C581.9,724.2,582.1,725.6,582.1,727z"/>
			</g>
		</g>
		<g class="st3">
			<g>
				<circle class="st0" cx="414" cy="732.7" r="15.4"/>
			</g>
		</g>
		<g class="st3">
			<g>
				<circle class="st0" cx="374.9" cy="732.7" r="15.4"/>
			</g>
		</g>
		<g>
			<g>
				<path class="st0" d="M570.1,743.5c-9.1,0-16.5-7.4-16.5-16.5s7.4-16.5,16.5-16.5s16.5,7.4,16.5,16.5S579.2,743.5,570.1,743.5z
					 M570.1,719.5c-4.2,0-7.5,3.4-7.5,7.5s3.4,7.5,7.5,7.5s7.5-3.4,7.5-7.5S574.3,719.5,570.1,719.5z"/>
			</g>
		</g>
		<g>
			<g>
				<path class="st0" d="M454.6,744c-2.5,0-4.5-2-4.5-4.5v-23.5c0-2.5,2-4.5,4.5-4.5c2.5,0,4.5,2,4.5,4.5v23.5
					C459.1,742,457,744,454.6,744z"/>
			</g>
			<g>
				<path class="st0" d="M479.6,744c-2.5,0-4.5-2-4.5-4.5v-23.5c0-2.5,2-4.5,4.5-4.5s4.5,2,4.5,4.5v23.5
					C484.1,742,482,744,479.6,744z"/>
			</g>
			<g>
				<path class="st0" d="M504.5,744c-2.5,0-4.5-2-4.5-4.5v-23.5c0-2.5,2-4.5,4.5-4.5c2.5,0,4.5,2,4.5,4.5v23.5
					C509,742,507,744,504.5,744z"/>
			</g>
			<g>
				<path class="st0" d="M529.5,744c-2.5,0-4.5-2-4.5-4.5v-23.5c0-2.5,2-4.5,4.5-4.5c2.5,0,4.5,2,4.5,4.5v23.5
					C534,742,532,744,529.5,744z"/>
			</g>
		</g>
		<g>
			<g>
				<path class="st0" d="M302.6,638.2H293c-9.1,0-16.5,7.4-16.5,16.5l0,0h42.5l0,0C319.1,645.6,311.7,638.2,302.6,638.2z"/>
			</g>
		</g>
		<g>
			<g>
				<path class="st12" d="M510.5,802.1H437c-6.1,0-11.1-5-11.1-11.1l0,0c0-6.1,5-11.1,11.1-11.1h73.5c6.1,0,11.1,5,11.1,11.1l0,0
					C521.6,797.1,516.6,802.1,510.5,802.1z"/>
			</g>
		</g>
		<g class="st13">
			<g>
				<path class="st1" d="M521.6,786.7v6.5c0-3.7-3-6.8-6.8-6.8h-82.1c-3.7,0-6.8,3-6.8,6.8v-6.5c0-3.7,3-6.8,6.8-6.8h82.1
					C518.5,780,521.6,783,521.6,786.7z"/>
			</g>
		</g>
		<g class="st3">
			<g>
				<path class="st0" d="M521.6,786.7v8.6c0,3.7-3,6.8-6.8,6.8h-82.1c-3.7,0-6.8-3-6.8-6.8v-8.6c0-0.2,0-0.3,0-0.5
					c0.3,3.5,3.2,6.2,6.7,6.2h82.1c3.5,0,6.5-2.7,6.7-6.2C521.5,786.4,521.6,786.5,521.6,786.7z"/>
			</g>
		</g>
		<g>
			<g>
				<path class="st0" d="M514.8,806.6h-82.1c-6.2,0-11.2-5-11.2-11.2v-8.6c0-6.2,5-11.2,11.2-11.2h82.1c6.2,0,11.2,5,11.2,11.2v8.6
					C526.1,801.5,521,806.6,514.8,806.6z M432.7,784.5c-1.2,0-2.2,1-2.2,2.2v8.6c0,1.2,1,2.2,2.2,2.2h82.1c1.2,0,2.2-1,2.2-2.2v-8.6
					c0-1.2-1-2.2-2.2-2.2H432.7z"/>
			</g>
		</g>
		<g>
			<g>
				<rect x="441.3" y="816.5" class="st1" width="64.9" height="43"/>
			</g>
		</g>
		<g class="st3">
			<g>
				<rect x="441.3" y="849" class="st0" width="64.9" height="10.6"/>
			</g>
		</g>
		<g>
			<g>
				<path class="st0" d="M510.7,864h-73.9v-52h73.9V864z M445.8,855.1h55.9v-34h-55.9V855.1z"/>
			</g>
		</g>
		<g>
			<g>
				
					<ellipse transform="matrix(0.1602 -0.9871 0.9871 0.1602 -444.1344 1155.9205)" class="st0" cx="457.3" cy="839" rx="5.9" ry="5.9"/>
			</g>
		</g>
		<g>
			<g>
				
					<ellipse transform="matrix(0.9871 -0.1601 0.1601 0.9871 -127.8741 89.3241)" class="st0" cx="490.3" cy="838.1" rx="5.9" ry="5.9"/>
			</g>
		</g>
		<g>
			<g>
				<path class="st0" d="M515.9,885.9h-84.3c-5.6,0-10.1-4.5-10.1-10.1v-20.8h104.6v20.8C526.1,881.4,521.5,885.9,515.9,885.9z
					 M430.5,864v11.8c0,0.6,0.5,1.1,1.1,1.1h84.3c0.6,0,1.1-0.5,1.1-1.1V864H430.5z"/>
			</g>
		</g>
		<g>
			<g>
				<rect x="467.2" y="834" class="st0" width="13.1" height="9.9"/>
			</g>
		</g>
		<g>
			<g>
				<path class="st15" d="M492.3,702.6L492.3,702.6h7.8l0,0C499.4,698.2,493,698.2,492.3,702.6z"/>
			</g>
		</g>
		<g>
			<g>
				<path class="st0" d="M570.1,707.1h-195c-9.1,0-16.5-7.4-16.5-16.5v-9.9c0-9.1,7.4-16.5,16.5-16.5h195c9.1,0,16.5,7.4,16.5,16.5
					v9.9C586.6,699.7,579.2,707.1,570.1,707.1z M375.1,673.2c-4.1,0-7.5,3.4-7.5,7.5v9.9c0,4.2,3.4,7.5,7.5,7.5h195
					c4.2,0,7.5-3.4,7.5-7.5v-9.9c0-4.2-3.4-7.5-7.5-7.5H375.1z"/>
			</g>
		</g>
		<g>
			<g>
				<g>
					<path class="st0" d="M377.4,683.1l1.2-14.4h-3.8l1.2,14.4C376.2,683.9,377.4,683.9,377.4,683.1z"/>
				</g>
			</g>
			<g>
				<g>
					<path class="st0" d="M391.1,683.1l1.2-14.4h-3.8l1.2,14.4C389.9,683.9,391.1,683.9,391.1,683.1z"/>
				</g>
			</g>
			<g>
				<g>
					<path class="st0" d="M404.8,683.1l1.2-14.4h-3.8l1.2,14.4C403.6,683.9,404.8,683.9,404.8,683.1z"/>
				</g>
			</g>
			<g>
				<g>
					<path class="st0" d="M418.5,683.1l1.2-14.4H416l1.2,14.4C417.3,683.9,418.4,683.9,418.5,683.1z"/>
				</g>
			</g>
			<g>
				<g>
					<path class="st0" d="M432.2,683.1l1.2-14.4h-3.8l1.2,14.4C431,683.9,432.1,683.9,432.2,683.1z"/>
				</g>
			</g>
			<g>
				<g>
					<path class="st0" d="M445.9,683.1l1.2-14.4h-3.8l1.2,14.4C444.7,683.9,445.8,683.9,445.9,683.1z"/>
				</g>
			</g>
			<g>
				<g>
					<path class="st0" d="M459.6,683.1l1.2-14.4h-3.8l1.2,14.4C458.4,683.9,459.5,683.9,459.6,683.1z"/>
				</g>
			</g>
			<g>
				<g>
					<path class="st0" d="M473.3,683.1l1.2-14.4h-3.8l1.2,14.4C472.1,683.9,473.2,683.9,473.3,683.1z"/>
				</g>
			</g>
			<g>
				<g>
					<path class="st0" d="M487,683.1l1.2-14.4h-3.8l1.2,14.4C485.7,683.9,486.9,683.9,487,683.1z"/>
				</g>
			</g>
			<g>
				<g>
					<path class="st0" d="M500.6,683.1l1.2-14.4h-3.8l1.2,14.4C499.4,683.9,500.6,683.9,500.6,683.1z"/>
				</g>
			</g>
			<g>
				<g>
					<path class="st0" d="M514.3,683.1l1.2-14.4h-3.8l1.2,14.4C513.1,683.9,514.3,683.9,514.3,683.1z"/>
				</g>
			</g>
			<g>
				<g>
					<path class="st0" d="M528,683.1l1.2-14.4h-3.8l1.2,14.4C526.8,683.9,528,683.9,528,683.1z"/>
				</g>
			</g>
			<g>
				<g>
					<path class="st0" d="M541.7,683.1l1.2-14.4h-3.8l1.2,14.4C540.5,683.9,541.6,683.9,541.7,683.1z"/>
				</g>
			</g>
			<g>
				<g>
					<path class="st0" d="M555.4,683.1l1.2-14.4h-3.8l1.2,14.4C554.2,683.9,555.3,683.9,555.4,683.1z"/>
				</g>
			</g>
			<g>
				<g>
					<path class="st0" d="M569.1,683.1l1.2-14.4h-3.8l1.2,14.4C567.9,683.9,569,683.9,569.1,683.1z"/>
				</g>
			</g>
		</g>
		<g>
			<g>
				<g>
					<path class="st11" d="M317.8,770.3c-41.2,0-74.6,33.4-74.6,74.6s33.4,74.5,74.5,74.5c41.2,0,74.6-33.4,74.6-74.5
						C392.4,803.7,359,770.3,317.8,770.3z M317.8,900c-30.5,0-55.2-24.7-55.2-55.2c0-30.5,24.7-55.2,55.2-55.2
						c30.5,0,55.2,24.7,55.2,55.2C373,875.3,348.3,900,317.8,900z"/>
				</g>
			</g>
			<g class="st13">
				<g>
					<path class="st1" d="M372.8,849.3c-2.2,28.4-26,50.8-55,50.8c-29,0-52.8-22.4-55-50.8c-0.1,1.4-0.2,2.9-0.2,4.4
						c0,30.5,24.7,55.2,55.1,55.2c30.5,0,55.2-24.7,55.2-55.2C373,852.2,372.9,850.7,372.8,849.3z M317.8,770.3
						c-41.2,0-74.6,33.4-74.6,74.6c0,1.5,0,3,0.1,4.4c2.3-39.2,34.7-70.2,74.4-70.2s72.2,31,74.4,70.2c0.1-1.5,0.1-2.9,0.1-4.4
						C392.4,803.7,359,770.3,317.8,770.3z M317.8,900c-29,0-52.8-22.4-55-50.8c-0.1,1.4-0.2,2.9-0.2,4.4c0,30.5,24.7,55.2,55.1,55.2
						c30.5,0,55.2-24.7,55.2-55.2c0-1.5-0.1-3-0.2-4.4C370.6,877.7,346.8,900,317.8,900z"/>
				</g>
			</g>
			<g>
				<g>
					<path class="st4" d="M317.8,770.3c-41.2,0-74.6,33.4-74.6,74.6s33.4,74.5,74.5,74.5c41.2,0,74.6-33.4,74.6-74.5
						C392.4,803.7,359,770.3,317.8,770.3z M317.8,900c-30.5,0-55.2-24.7-55.2-55.2c0-30.5,24.7-55.2,55.2-55.2
						c30.5,0,55.2,24.7,55.2,55.2C373,875.3,348.3,900,317.8,900z"/>
				</g>
			</g>
			<g>
				<g>
					<path class="st12" d="M373,844.9c0,0.2,0,0.4,0,0.6c-0.3,30.2-24.9,54.5-55.1,54.5c-30.5,0-55.1-24.7-55.1-55.2
						c0-1.3,0-2.5,0.1-3.8c1.9-28.7,25.8-51.4,55-51.4C348.3,789.7,373,814.4,373,844.9z"/>
				</g>
			</g>
			<g class="st3">
				<g>
					<path class="st0" d="M373,845.5c-0.3,30.2-24.9,54.5-55.1,54.5c-30.5,0-55.1-24.7-55.1-55.2c0-1.3,0-2.5,0.1-3.8
						c3.8,4.8,11.9,13.8,20.3,14.1c16.1,0.6,19.1-12.1,19.1-12.1l15.7,1.7h3.9l15.7-1.7c0,0,3,12.7,19.1,12.1
						C362.6,855,368.7,850,373,845.5z"/>
				</g>
			</g>
			<g>
				<g>
					<path class="st0" d="M317.8,904.5c-32.9,0-59.7-26.8-59.7-59.7c0-32.9,26.8-59.7,59.7-59.7s59.7,26.8,59.7,59.7
						C377.5,877.8,350.7,904.5,317.8,904.5z M317.8,794.2c-27.9,0-50.7,22.7-50.7,50.7c0,27.9,22.7,50.7,50.7,50.7
						s50.7-22.7,50.7-50.7C368.5,816.9,345.7,794.2,317.8,794.2z"/>
				</g>
			</g>
			<g>
				<g>
					<path class="st9" d="M333.4,842.8c1.3,10.3-7.4,19-17.7,17.7c-7-0.9-12.7-6.6-13.6-13.6c-1.3-10.3,7.4-19,17.7-17.7
						C326.9,830.1,332.6,835.8,333.4,842.8z"/>
				</g>
			</g>
			<g class="st13">
				<g>
					<path class="st1" d="M333.1,848.8c-1.6-6.1-6.9-10.9-13.2-11.7c-8.2-1-15.4,4.3-17.3,11.7c-0.2-0.6-0.3-1.2-0.4-1.9
						c-1.3-10.3,7.4-19,17.7-17.7c7,0.9,12.7,6.6,13.6,13.6C333.7,844.9,333.6,846.9,333.1,848.8z"/>
				</g>
			</g>
			<g>
				<g>
					<path class="st0" d="M317.8,865.1c-11.2,0-20.3-9.1-20.3-20.3s9.1-20.3,20.3-20.3s20.3,9.1,20.3,20.3
						C338.1,856,329,865.1,317.8,865.1z M317.8,833.6c-6.2,0-11.3,5.1-11.3,11.3s5,11.3,11.3,11.3s11.3-5.1,11.3-11.3
						C329.1,838.6,324,833.6,317.8,833.6z"/>
				</g>
			</g>
			<g>
				<g>
					
						<ellipse transform="matrix(0.2298 -0.9732 0.9732 0.2298 -573.5042 879.4444)" class="st0" cx="268.9" cy="802.1" rx="3.4" ry="3.4"/>
				</g>
			</g>
			<g>
				<g>
					<circle class="st0" cx="366.7" cy="802" r="3.4"/>
				</g>
			</g>
			<g>
				<g>
					
						<ellipse transform="matrix(0.2298 -0.9732 0.9732 0.2298 -656.2941 944.9561)" class="st0" cx="268.9" cy="887.1" rx="3.4" ry="3.4"/>
				</g>
			</g>
			<g>
				<g>
					<circle class="st0" cx="366.7" cy="887.1" r="3.4"/>
				</g>
			</g>
			<g>
				<g>
					<path class="st0" d="M317.8,806.1c5.1-1.4,10.7-1.1,15.9,0.5c5.2,1.6,10.1,4.6,14,8.5c3.9,3.9,6.9,8.8,8.5,14
						c1.6,5.2,1.9,10.8,0.5,15.9c-1.4-5.1-3.1-9.7-5.4-13.8c-2.3-4.2-5.1-7.9-8.3-11.2c-3.3-3.3-7-6.1-11.2-8.3
						C327.5,809.2,322.9,807.5,317.8,806.1z"/>
				</g>
			</g>
			<g>
				<g>
					<path class="st0" d="M317.8,883.7c-5.1,1.4-10.7,1.1-15.9-0.5c-5.2-1.6-10.1-4.6-14-8.5c-3.9-3.9-6.9-8.8-8.5-14
						c-1.6-5.2-1.9-10.8-0.5-15.9c1.4,5.1,3.1,9.7,5.4,13.8c2.3,4.2,5.1,7.9,8.3,11.2c3.3,3.3,7,6.1,11.2,8.3
						C308.2,880.5,312.7,882.2,317.8,883.7z"/>
				</g>
			</g>
		</g>
		<g>
			<g>
				<g>
					<path class="st11" d="M630.4,770.3c-41.2,0-74.5,33.4-74.5,74.6s33.4,74.5,74.5,74.5c41.2,0,74.6-33.4,74.6-74.5
						C705,803.7,671.6,770.3,630.4,770.3z M630.4,900c-30.5,0-55.2-24.7-55.2-55.2c0-30.5,24.7-55.2,55.2-55.2
						c30.5,0,55.2,24.7,55.2,55.2C685.6,875.3,660.9,900,630.4,900z"/>
				</g>
			</g>
			<g class="st13">
				<g>
					<path class="st1" d="M685.4,849.3c-2.2,28.4-26,50.8-55,50.8c-29,0-52.8-22.4-55-50.8c-0.1,1.4-0.2,2.9-0.2,4.4
						c0,30.5,24.7,55.2,55.2,55.2c30.5,0,55.2-24.7,55.2-55.2C685.6,852.2,685.5,850.7,685.4,849.3z M630.4,770.3
						c-41.2,0-74.6,33.4-74.6,74.6c0,1.5,0,3,0.1,4.4c2.3-39.2,34.7-70.2,74.4-70.2c39.7,0,72.2,31,74.4,70.2
						c0.1-1.5,0.1-2.9,0.1-4.4C705,803.7,671.6,770.3,630.4,770.3z M630.4,900c-29,0-52.8-22.4-55-50.8c-0.1,1.4-0.2,2.9-0.2,4.4
						c0,30.5,24.7,55.2,55.2,55.2c30.5,0,55.2-24.7,55.2-55.2c0-1.5-0.1-3-0.2-4.4C683.2,877.7,659.4,900,630.4,900z"/>
				</g>
			</g>
			<g>
				<g>
					<path class="st4" d="M630.4,770.3c-41.2,0-74.5,33.4-74.5,74.6s33.4,74.5,74.5,74.5c41.2,0,74.6-33.4,74.6-74.5
						C705,803.7,671.6,770.3,630.4,770.3z M630.4,900c-30.5,0-55.2-24.7-55.2-55.2c0-30.5,24.7-55.2,55.2-55.2
						c30.5,0,55.2,24.7,55.2,55.2C685.6,875.3,660.9,900,630.4,900z"/>
				</g>
			</g>
			<g>
				<g>
					<path class="st12" d="M685.6,844.9c0,0.2,0,0.4,0,0.6c-0.3,30.2-24.9,54.5-55.2,54.5c-30.5,0-55.2-24.7-55.2-55.2
						c0-1.3,0-2.5,0.1-3.8c1.9-28.7,25.8-51.4,55-51.4C660.9,789.7,685.6,814.4,685.6,844.9z"/>
				</g>
			</g>
			<g class="st3">
				<g>
					<path class="st0" d="M685.6,845.5c-0.3,30.2-24.9,54.5-55.2,54.5c-30.5,0-55.2-24.7-55.2-55.2c0-1.3,0-2.5,0.1-3.8
						c3.8,4.8,11.9,13.8,20.3,14.1c16.1,0.6,19.1-12.1,19.1-12.1l15.7,1.7h3.9l15.7-1.7c0,0,3,12.7,19.1,12.1
						C675.3,855,681.3,850,685.6,845.5z"/>
				</g>
			</g>
			<g>
				<g>
					<path class="st0" d="M630.4,904.5c-32.9,0-59.7-26.8-59.7-59.7c0-32.9,26.8-59.7,59.7-59.7c32.9,0,59.7,26.8,59.7,59.7
						C690.1,877.8,663.3,904.5,630.4,904.5z M630.4,794.2c-27.9,0-50.7,22.7-50.7,50.7c0,27.9,22.7,50.7,50.7,50.7
						s50.7-22.7,50.7-50.7C681.1,816.9,658.3,794.2,630.4,794.2z"/>
				</g>
			</g>
			<g>
				<g>
					<path class="st9" d="M646.1,842.8c1.3,10.3-7.4,19-17.7,17.7c-7-0.9-12.7-6.6-13.6-13.6c-1.3-10.3,7.4-19,17.7-17.7
						C639.5,830.1,645.2,835.8,646.1,842.8z"/>
				</g>
			</g>
			<g class="st13">
				<g>
					<path class="st1" d="M645.7,848.8c-1.6-6.1-6.8-10.9-13.2-11.7c-8.2-1-15.4,4.3-17.3,11.7c-0.2-0.6-0.3-1.2-0.4-1.9
						c-1.3-10.3,7.4-19,17.7-17.7c7,0.9,12.7,6.6,13.6,13.6C646.3,844.9,646.2,846.9,645.7,848.8z"/>
				</g>
			</g>
			<g>
				<g>
					<path class="st0" d="M630.4,865.1c-11.2,0-20.3-9.1-20.3-20.3s9.1-20.3,20.3-20.3s20.3,9.1,20.3,20.3S641.6,865.1,630.4,865.1z
						 M630.4,833.6c-6.2,0-11.3,5.1-11.3,11.3s5,11.3,11.3,11.3c6.2,0,11.3-5.1,11.3-11.3S636.6,833.6,630.4,833.6z"/>
				</g>
			</g>
			<g>
				<g>
					<circle class="st0" cx="581.5" cy="802" r="3.4"/>
				</g>
			</g>
			<g>
				<g>
					<ellipse class="st0" cx="679.3" cy="802" rx="3.4" ry="3.4"/>
				</g>
			</g>
			<g>
				<g>
					<circle class="st0" cx="581.5" cy="887.1" r="3.4"/>
				</g>
			</g>
			<g>
				<g>
					<ellipse class="st0" cx="679.3" cy="887.1" rx="3.4" ry="3.4"/>
				</g>
			</g>
			<g>
				<g>
					<path class="st0" d="M630.4,806.1c5.1-1.4,10.7-1.1,15.9,0.5c5.2,1.6,10.1,4.6,14,8.5c3.9,3.9,6.9,8.8,8.5,14
						s1.9,10.8,0.5,15.9c-1.4-5.1-3.1-9.7-5.4-13.8c-2.3-4.2-5.1-7.9-8.3-11.2c-3.3-3.3-7-6.1-11.2-8.3
						C640.1,809.2,635.5,807.5,630.4,806.1z"/>
				</g>
			</g>
			<g>
				<g>
					<path class="st0" d="M630.4,883.7c-5.1,1.4-10.7,1.1-15.9-0.5c-5.2-1.6-10.1-4.6-14-8.5c-3.9-3.9-6.9-8.8-8.5-14
						s-1.9-10.8-0.5-15.9c1.4,5.1,3.1,9.7,5.4,13.8c2.3,4.2,5.1,7.9,8.3,11.2c3.3,3.3,7,6.1,11.2,8.3
						C620.8,880.5,625.3,882.2,630.4,883.7z"/>
				</g>
			</g>
		</g>
		<g>
			<g>
				<path class="st0" d="M644,681.2c3.1-0.9,6.4-0.8,9.6,0.2c3.2,1,6.1,2.7,8.5,5.1c2.4,2.4,4.2,5.3,5.1,8.5
					c0.9,3.2,1.1,6.5,0.1,9.6c-1-3-2-5.8-3.4-8.2c-1.4-2.5-3.1-4.7-5-6.7c-2-2-4.2-3.6-6.7-5C649.8,683.2,647.1,682.1,644,681.2z"/>
			</g>
		</g>
		<g>
			<g>
				<path class="st0" d="M644,727.8c-3.1,0.9-6.4,0.8-9.6-0.2c-3.2-1-6.1-2.7-8.5-5.1c-2.4-2.4-4.2-5.3-5.1-8.5
					c-0.9-3.2-1.1-6.5-0.1-9.6c1,3,2,5.8,3.4,8.2c1.4,2.5,3.1,4.7,5,6.7c2,2,4.2,3.6,6.7,5C638.3,725.8,641,726.8,644,727.8z"/>
			</g>
		</g>
		<g>
			<g>
				<path class="st0" d="M297.8,681.2c3.1-0.9,6.4-0.8,9.6,0.2c3.2,1,6.1,2.7,8.5,5.1c2.4,2.4,4.1,5.3,5.1,8.5
					c0.9,3.2,1.1,6.5,0.1,9.6c-1-3-2-5.8-3.4-8.2c-1.4-2.5-3.1-4.7-5-6.7c-2-2-4.2-3.6-6.6-5C303.6,683.2,300.9,682.1,297.8,681.2z"
					/>
			</g>
		</g>
		<g>
			<g>
				<path class="st0" d="M297.8,727.8c-3.1,0.9-6.4,0.8-9.6-0.2c-3.2-1-6.1-2.7-8.5-5.1c-2.4-2.4-4.1-5.3-5.1-8.5
					c-0.9-3.2-1.1-6.5-0.1-9.6c1,3,2,5.8,3.4,8.2c1.4,2.5,3.1,4.7,5,6.7c2,2,4.2,3.6,6.6,5C292.1,725.8,294.8,726.8,297.8,727.8z"/>
			</g>
		</g>
		<g class="st3">
			<g>
				<path class="st0" d="M467.5,905.3v9.4c0,2.4-2,4.4-4.4,4.4h-5.7c-2.4,0-4.4-2-4.4-4.4v-9.4c0,2.4,2,4.4,4.4,4.4h5.7
					C465.6,909.7,467.5,907.7,467.5,905.3z"/>
			</g>
		</g>
		<g class="st3">
			<g>
				<path class="st0" d="M494.6,905.3v9.4c0,2.4-2,4.4-4.4,4.4h-5.7c-2.4,0-4.4-2-4.4-4.4v-9.4c0,2.4,2,4.4,4.4,4.4h5.7
					C492.6,909.7,494.6,907.7,494.6,905.3z"/>
			</g>
		</g>
		<g class="st3">
			<g>
				<path class="st0" d="M521.6,905.3v9.4c0,2.4-2,4.4-4.4,4.4h-5.7c-2.4,0-4.4-2-4.4-4.4v-9.4c0,2.4,2,4.4,4.4,4.4h5.7
					C519.6,909.7,521.6,907.7,521.6,905.3z"/>
			</g>
		</g>
		<g>
			<g>
				<path class="st0" d="M298,719.2c-8.1,0-14.7-6.6-14.7-14.7s6.6-14.7,14.7-14.7s14.7,6.6,14.7,14.7
					C312.7,712.6,306.1,719.2,298,719.2z M298,698.8c-3.2,0-5.7,2.6-5.7,5.7s2.6,5.7,5.7,5.7s5.7-2.6,5.7-5.7
					C303.7,701.3,301.2,698.8,298,698.8z"/>
			</g>
		</g>
		<g>
			<g>
				<circle class="st14" cx="414" cy="727" r="12"/>
			</g>
		</g>
		<g>
			<g>
				<path class="st0" d="M414,743.5c-9.1,0-16.5-7.4-16.5-16.5s7.4-16.5,16.5-16.5s16.5,7.4,16.5,16.5S423.1,743.5,414,743.5z
					 M414,719.5c-4.1,0-7.5,3.4-7.5,7.5s3.4,7.5,7.5,7.5s7.5-3.4,7.5-7.5S418.1,719.5,414,719.5z"/>
			</g>
		</g>
		<g>
			<g>
				<circle class="st14" cx="375.1" cy="727" r="12"/>
			</g>
		</g>
		<g>
			<g>
				<path class="st0" d="M375.1,743.5c-9.1,0-16.5-7.4-16.5-16.5s7.4-16.5,16.5-16.5s16.5,7.4,16.5,16.5S384.2,743.5,375.1,743.5z
					 M375.1,719.5c-4.1,0-7.5,3.4-7.5,7.5s3.4,7.5,7.5,7.5s7.5-3.4,7.5-7.5S379.3,719.5,375.1,719.5z"/>
			</g>
		</g>
		<g class="st3">
			<g>
				<path class="st0" d="M426,727c0,6.7-5.4,12-12,12c-6.6,0-12-5.4-12-12c0-1.4,0.2-2.7,0.7-4c1.6,4.7,6.1,8,11.3,8
					c5.2,0,9.7-3.3,11.3-8C425.8,724.2,426,725.6,426,727z"/>
			</g>
		</g>
		<g class="st3">
			<g>
				<path class="st0" d="M386.9,727c0,6.7-5.4,12-12,12c-6.6,0-12-5.4-12-12c0-1.4,0.2-2.7,0.7-4c1.6,4.7,6.1,8,11.3,8
					c5.2,0,9.7-3.3,11.3-8C386.7,724.2,386.9,725.6,386.9,727z"/>
			</g>
		</g>
	</g>
	<g>
		<g>
			<path class="st0" d="M312.7,509.7c-1.6,0-3.1-0.8-3.9-2.3c-1.2-2.2-0.5-4.9,1.7-6.1c19.6-11.1,31-29.3,33.8-54.1
				c2.1-18.9-1.8-34.7-1.8-34.9c-0.6-2.4,0.9-4.9,3.3-5.5c2.4-0.6,4.9,0.8,5.5,3.2c0.2,0.7,4.3,17.3,2.1,37.8
				c-3,27.5-16.3,48.7-38.3,61.2C314.2,509.6,313.4,509.7,312.7,509.7z"/>
		</g>
	</g>
	<g>
		<g>
			<path class="st1" d="M613.1,625.7c0,0,41.5,5.2,32.4,23.2c-4.5,8.8-30.3-3.2-44.3-0.1c0,0-8-21.9-3.1-25.6
				S613.1,625.7,613.1,625.7z"/>
		</g>
	</g>
	<g class="st2">
		<g>
			<path class="st0" d="M645.5,648.9c-4.5,8.8-30.3-3.2-44.3-0.1c0,0-5.6-15.6-4.5-22.7c0,0.1,0,0.1,0,0.2c1,7,6.6,12.3,13.6,13
				c14.2,1.5,31.7,7.7,35.2,0.8c0.1-0.2,0.2-0.3,0.2-0.5C647.1,642.3,647.3,645.3,645.5,648.9z"/>
		</g>
	</g>
	<g>
		<g>
			<path class="st0" d="M613.4,623.4c4.1-0.3,8,0,12,0.6c3.9,0.7,7.9,1.7,11.7,3.3c1.9,0.8,3.9,1.8,5.8,3c1.9,1.2,3.8,2.6,5.5,4.7
				c1.7,2,3.1,4.8,3.3,7.8c0.3,3-0.5,5.8-1.6,8.1l-0.1,0.2l-0.2,0.3c-0.1,0.2-0.2,0.4-0.4,0.6c-0.3,0.4-0.5,0.8-0.9,1.2
				c-0.6,0.7-1.4,1.3-2.1,1.8c-1.5,1-3,1.4-4.3,1.7c-2.7,0.5-4.9,0.5-7.1,0.3c-4.3-0.3-8.1-1.1-11.9-1.8c-3.8-0.7-7.4-1.5-11-1.9
				c-3.5-0.5-7-0.7-9.9-0.2l-0.2,0c-2.5,0.4-4.8-1.2-5.2-3.7c-0.4-2.3,1.1-4.6,3.4-5.1c4.7-1.1,8.9-0.9,13-0.5c4,0.4,7.9,1,11.7,1.7
				c3.8,0.6,7.4,1.3,10.8,1.5c1.7,0.1,3.3,0.1,4.4-0.1c0.5-0.1,0.9-0.3,1-0.3c0,0,0.1,0,0.1,0v0c0,0,0,0,0,0h0l0-0.1
				c0.6-1.2,0.8-2.2,0.8-3c0-0.8-0.3-1.6-1.1-2.6c-1.5-2-4.4-3.8-7.5-5.3c-6.3-2.9-13.5-5.1-20.5-7.8l-0.1,0c-1.2-0.5-1.8-1.8-1.3-3
				C611.7,624,612.5,623.5,613.4,623.4z"/>
		</g>
	</g>
	<g>
		<g>
			<path class="st1" d="M439.2,654.8c0.4-15.6-1.9-28.2-6.2-38.2c-17.7-41.7-68-38-86.2-10.1c-28.5,43.7,2.1,118.5,2.1,118.5
				s-17,45.3,4.3,61.6c16.5,12.6,42,14.6,61.9,1.7c20.8-13.5,20.9-62.1,19.8-76.8C433.6,696.8,439.2,654.8,439.2,654.8z"/>
		</g>
	</g>
	<g class="st2">
		<g>
			<path class="st0" d="M434.8,711.5c1.2,14.7,1.1,63.3-19.8,76.8c-19.9,12.9-45.4,10.9-61.9-1.7c-5.2-4-8.1-9.7-9.6-16.1
				c0.4,0.4,0.8,0.7,1.3,1.1c16.5,12.6,42,14.6,61.9,1.7c20.8-13.5,20.6-59.8,22.7-74.2c0.8-5.8,4.4-19.1,8.4-33.3
				C436.3,679.3,434,701.6,434.8,711.5z"/>
		</g>
	</g>
	<g>
		<g>
			<path class="st0" d="M385,801.6c-12.4,0-24.7-3.8-34.6-11.4c-21.5-16.4-9.3-56.3-6.3-65.1c-4.5-11.6-28.4-79-1-121.1
				c10.2-15.7,29.7-24.7,49.5-23c20,1.8,36.2,14.1,44.6,33.7c4.8,11.2,7,24.7,6.5,40.1c0,0.2,0,0.3,0,0.5
				c-0.1,0.4-5.5,41.7-4.4,55.8c0,0.6,4.7,63.8-21.8,80.9C407.6,798.4,396.3,801.6,385,801.6z M387.8,589.8
				c-15,0-29.6,7.4-37.2,19.1c-26.8,41.2,2.2,113.7,2.5,114.4c0.4,1,0.4,2.2,0,3.3c-0.2,0.4-15.6,42.4,2.8,56.4
				c15.9,12.2,39.2,12.8,56.7,1.5c18.2-11.8,18.9-57.6,17.7-72.7c-1.1-14.6,3.9-53.7,4.4-57.4c0.4-14-1.6-26.2-5.8-36.1
				c-7-16.5-20.5-26.8-37.1-28.3C390.4,589.9,389.1,589.8,387.8,589.8z M439.2,654.8L439.2,654.8L439.2,654.8z"/>
		</g>
	</g>
	<g>
		<g>
			<path class="st1" d="M500.6,654.8c-2.2-80.3,69.8-83,92.4-48.3C621.5,650.1,591,725,591,725s17,45.3-4.3,61.6
				c-16.5,12.6-42,14.6-61.8,1.7c-20.8-13.5-20.9-62.1-19.8-76.8C506.2,696.8,500.6,654.8,500.6,654.8z"/>
		</g>
	</g>
	<g>
		<g>
			<path class="st0" d="M554.8,801.6c-11.3,0-22.6-3.1-32.4-9.5c-26.5-17.2-21.9-80.3-21.8-80.9c1.1-14-4.3-55.4-4.4-55.8
				c0-0.2,0-0.3,0-0.5c-1.4-53,27.5-67.8,40-71.7c22.7-7.1,48.2,1.7,60.7,20.8c27.4,42,3.4,109.5-1,121.1c3,8.8,15.2,48.7-6.3,65.1
				C579.5,797.8,567.2,801.6,554.8,801.6z M505.1,654.4c0.5,3.8,5.6,42.9,4.4,57.4c-1.2,15.1-0.5,60.9,17.7,72.7
				c17.4,11.3,40.7,10.7,56.7-1.5c18.4-14.1,2.9-56,2.8-56.4c-0.4-1.1-0.4-2.2,0-3.3c0.3-0.7,29.3-73.2,2.5-114.4
				c-10.1-15.6-31.8-22.9-50.5-17.1C516.6,598.8,504.3,621.6,505.1,654.4z"/>
		</g>
	</g>
	<g>
		<g>
			<g>
				<path class="st1" d="M697.9,351.8C725.4,236.1,664,122.5,560.8,98s-209,49.5-236.4,165.2l17.7,4.2
					c24.8-104.7,120.6-171.7,214-149.6c93.4,22.1,149,125,124.1,229.7"/>
			</g>
		</g>
		<g class="st16">
			<g>
				<path class="st0" d="M697.9,351.8l-17.7-4.2c24.8-104.7-30.8-207.6-124.2-229.7c-93.4-22.1-189.2,44.8-214,149.6l-17.7-4.2
					c1-4.2,2.1-8.4,3.3-12.5l17.4,4.1c24.8-104.7,120.6-171.7,214-149.6c93.4,22.1,149,125,124.2,229.7l17.4,4.1
					C699.8,343.3,699,347.5,697.9,351.8z"/>
			</g>
		</g>
		<g>
			<g>
				<path class="st0" d="M698,356.3c-0.3,0-0.7,0-1-0.1c-2.4-0.6-3.9-3-3.3-5.4c26.8-113.1-33.2-224.5-133.8-248.3
					c-48.6-11.5-99.4-1.1-143,29.4c-42.6,29.8-73.3,75.1-86.9,128.2l8.9,2.1c12.9-49.9,41.9-92.6,82-120.7
					c41.5-29,89.9-38.9,136.3-27.9c95.6,22.7,152.8,128.1,127.5,235.1c-0.6,2.4-3,3.9-5.4,3.3c-2.4-0.6-3.9-3-3.3-5.4
					c24.2-102.2-30-202.8-120.8-224.3c-43.9-10.4-89.7-1-129.1,26.5c-39.5,27.6-67.8,70.1-79.5,119.7l-1,4.4l-26.5-6.3l1-4.4
					c13.5-57,46-106,91.6-137.8c45.7-31.9,99.1-42.9,150.2-30.8c105.4,25,168.4,141.2,140.5,259.2C701.8,354.9,700,356.3,698,356.3z
					"/>
			</g>
		</g>
		<g>
			<g>
				<path class="st17" d="M362.9,210.8l-25.8,93.5c-0.2,0.7-0.3,1.4-0.4,2.1c-1.1,7.9,3.9,15.7,11.8,17.9c8.6,2.4,17.6-2.7,20-11.3
					l25.8-93.5c2.4-8.6-2.7-17.6-11.3-20c-4.3-1.2-8.7-0.5-12.3,1.5c-3,1.7-5.5,4.4-6.9,7.7C363.4,209.4,363.1,210.1,362.9,210.8z"
					/>
			</g>
		</g>
		<g>
			<g>
				<path class="st10" d="M320.3,230.3l-9.8,35.3c-4.7,17.1,5.4,35.1,22.6,39.8l3.6,1c0.1-0.7,0.2-1.4,0.4-2.1l25.8-93.5
					c0.2-0.7,0.4-1.4,0.7-2.1l-3.6-1C342.9,203,325,213.2,320.3,230.3z"/>
			</g>
		</g>
		<g>
			<g>
				<path class="st17" d="M687.3,287.7l-18.8,95.1c-0.1,0.7-0.3,1.4-0.6,2.1c-2.6,7.6-10.5,12.3-18.5,10.7
					c-8.8-1.7-14.5-10.3-12.8-19.1l18.8-95.1c1.7-8.8,10.3-14.5,19.1-12.8c4.4,0.9,8,3.5,10.3,6.9c1.9,2.9,3,6.4,2.7,10
					C687.6,286.2,687.5,287,687.3,287.7z"/>
			</g>
		</g>
		<g>
			<g>
				<path class="st1" d="M667.9,384.9c-0.2,0.5-0.3,0.9-0.5,1.4l17.5-88c0.1-0.7,0.2-1.4,0.3-2.2c0.2-3.6-0.8-7.1-2.7-10
					c-2.3-3.5-6-6-10.3-6.9c-7.6-1.5-15,2.6-18,9.4l1.4-7.1c1.7-8.8,10.3-14.5,19.1-12.8c4.4,0.9,8,3.5,10.3,6.9
					c1.9,2.9,3,6.4,2.7,10c0,0.7-0.1,1.4-0.3,2.2l-18.9,95.1C668.3,383.5,668.2,384.2,667.9,384.9z"/>
			</g>
		</g>
		<g class="st2">
			<g>
				<path class="st0" d="M667.9,384.9c-2.6,7.6-10.5,12.3-18.5,10.7c-8.8-1.7-14.5-10.3-12.8-19.1l18.9-95.1c0.4-2,1.1-3.8,2.2-5.4
					l-14.4,72.6c-0.6,3,1.9,8,7,5.8c7.1-3,9.7-18.8,12-18.5s-1.5,12.6,2.1,20.7c2.5,5.7,7.3,5.9,8.7,3.7l-4.5,22.5
					C668.3,383.5,668.2,384.2,667.9,384.9z"/>
			</g>
		</g>
		<g>
			<g>
				<path class="st10" d="M716.7,324.3l-7.1,35.9c-3.5,17.5-20.6,28.9-38,25.5l-3.6-0.7c0.2-0.7,0.4-1.4,0.6-2.1l18.8-95.1
					c0.1-0.7,0.2-1.4,0.3-2.2l3.7,0.7C708.7,289.7,720.2,306.8,716.7,324.3z"/>
			</g>
		</g>
		<g>
			<g>
				<path class="st1" d="M709.6,360.2c-0.3,1.6-0.8,3.2-1.3,4.7l6.1-31c3.5-17.5-8-34.6-25.5-38l-3.1-0.6l1.5-7.6
					c0.1-0.7,0.2-1.4,0.3-2.2l3.7,0.7c17.5,3.5,28.9,20.6,25.5,38L709.6,360.2z"/>
			</g>
		</g>
		<g>
			<g>
				<path class="st1" d="M336,306.3c-0.1,0.5-0.1,1-0.1,1.4l23.9-86.5c0.2-0.7,0.4-1.4,0.7-2.1c1.4-3.4,3.9-6,6.9-7.8
					c3.6-2.1,8-2.7,12.3-1.5c7.4,2.1,12.2,9,11.9,16.5l1.9-7c2.4-8.6-2.7-17.6-11.3-20c-4.3-1.2-8.7-0.5-12.4,1.6
					c-3,1.7-5.5,4.4-6.9,7.7c-0.3,0.7-0.5,1.3-0.7,2.1l-25.8,93.5C336.3,304.9,336.1,305.6,336,306.3z"/>
			</g>
		</g>
		<g>
			<g>
				<path class="st1" d="M309.9,265.5c-0.4,1.6-0.8,3.2-0.9,4.8l8.4-30.4c4.7-17.2,22.6-27.3,39.8-22.6l3.1,0.9l2.1-7.4
					c0.2-0.7,0.4-1.4,0.7-2.1l-3.6-1c-17.2-4.7-35.1,5.4-39.8,22.6L309.9,265.5z"/>
			</g>
		</g>
		<g>
			<g>
				<path class="st18" d="M671.6,385.6l-3.6-0.7c0.2-0.7,0.4-1.4,0.6-2.1l18.9-95.1c0.1-0.7,0.2-1.4,0.3-2.2l1,0.2l-14.6,73.5
					c-0.1,0.7,4.5-16.6,4.2-15.9c0,0-0.2,17.9,10.9,19.4c7.8,1.1,17.6-5.6,23.7-18.9l-3.2,16.4C706.1,377.7,689,389.1,671.6,385.6z"
					/>
			</g>
		</g>
		<g class="st2">
			<g>
				<path class="st0" d="M336,306.3c-1.1,7.9,3.9,15.7,11.8,17.9c8.6,2.4,17.6-2.7,20-11.3l25.8-93.5c0.5-1.9,0.7-3.9,0.5-5.8
					l-19.7,71.3c-1.1,4-7.8,2.3-9.1-0.8c-2.2-5.5,2-17.9-0.2-18.4c-2.2-0.5-4.9,14.4-11.3,18.1c-4.1,2.4-11,0.7-11.3-1.8l-6.1,22.1
					C336.3,304.9,336.1,305.6,336,306.3z"/>
			</g>
		</g>
		<g>
			<g>
				<path class="st18" d="M332.4,305.3l3.6,1c0.1-0.7,0.2-1.4,0.4-2.1l25.8-93.5c0.2-0.7,0.4-1.4,0.7-2.1l-1-0.3l-20,72.2
					c-0.2,0.7,3.5-16.8,3.4-16.1c0,0-7.8,16.1-18.4,12.5c-7.4-2.5-13.2-12.9-12.7-27.5l-4.5,16.1
					C305.1,282.6,315.3,300.5,332.4,305.3z"/>
			</g>
		</g>
		<g>
			<g>
				<path class="st0" d="M652.5,400.4c-1.3,0-2.7-0.1-4-0.4c-11.2-2.2-18.5-13.2-16.3-24.4l18.8-95.1c2.2-11.2,13.2-18.5,24.4-16.3
					c5.4,1.1,10.1,4.2,13.2,8.8c2.5,3.8,3.8,8.3,3.5,12.8c0,0.9-0.2,1.8-0.3,2.8l-18.8,95.1c-0.2,0.9-0.4,1.8-0.7,2.7
					C669.3,394.9,661.2,400.4,652.5,400.4z M671.4,272.8c-5.5,0-10.4,3.9-11.5,9.5L641,377.4c-1.3,6.4,2.9,12.6,9.2,13.8
					c5.8,1.1,11.5-2.2,13.4-7.7c0.2-0.5,0.3-1,0.4-1.5l18.8-95.1c0.1-0.5,0.2-1,0.2-1.5c0.2-2.6-0.5-5.2-2-7.3
					c-1.8-2.6-4.4-4.4-7.5-5C672.9,272.8,672.1,272.8,671.4,272.8z"/>
			</g>
		</g>
		<g>
			<g>
				<path class="st0" d="M677.9,390.8c-2.4,0-4.8-0.2-7.2-0.7l-8.7-1.7l1.7-4.9c0.2-0.5,0.3-1,0.4-1.5l18.8-95.1
					c0.1-0.5,0.2-1,0.2-1.5l0.3-5.2l8.8,1.7c9.6,1.9,17.9,7.5,23.4,15.7c5.5,8.2,7.5,18,5.5,27.6l-7.1,35.9
					c-1.9,9.6-7.5,17.9-15.7,23.4C692.2,388.6,685.1,390.8,677.9,390.8z M673.4,381.4c7,1.1,14-0.4,20-4.4
					c6.2-4.1,10.4-10.4,11.8-17.7l7.1-35.9c1.4-7.3,0-14.7-4.2-20.9c-4-6-9.9-10.1-16.8-11.7L673.4,381.4z"/>
			</g>
		</g>
		<g>
			<g>
				<g>
					<path class="st10" d="M633,180.5c-47.1-45.3-105.3-59.1-167.8-39.8c-6.2,2.1-12.3-1.1-13.7-7.8c-1.7-8.1-2.5-12.1-4.2-20.1
						c-1.4-6.6,3.5-14.7,10.9-17.2c74.5-23.5,145.2-6.8,201.2,47.7c5.5,5.6,6.2,15,2,20.3c-5.1,6.4-7.7,9.7-12.8,16.1
						C644.5,185,637.5,185.2,633,180.5z"/>
				</g>
			</g>
		</g>
		<g class="st19">
			<g>
				<g>
					<path class="st1" d="M661.7,163.3c-0.4-3.6-1.9-7.3-4.6-10.1c-56-54.5-126.7-71.2-201.2-47.7c-3.6,1.3-6.6,3.8-8.6,6.9
						c-1.1-6.6,3.7-14.3,11-16.8c74.5-23.5,145.2-6.8,201.2,47.7C664.8,148.8,665.6,158,661.7,163.3z"/>
				</g>
			</g>
			<g>
				<g>
					
						<ellipse transform="matrix(0.3604 -0.9328 0.9328 0.3604 271.6971 630.6856)" class="st1" cx="595.7" cy="117.2" rx="10.2" ry="18.1"/>
				</g>
			</g>
		</g>
		<g>
			<g>
				<g>
					<path class="st18" d="M661.5,163.6c-5.1,6.4-7.7,9.7-12.8,16.1c-4.2,5.3-11.2,5.5-15.7,0.8c-47.1-45.3-105.3-59.1-167.8-39.8
						c-6.2,2.1-12.3-1.1-13.7-7.8c-1.7-8.1-2.5-12.1-4.2-20.1c-0.9-4.2,0.8-8.9,3.9-12.5c1.4,6.7,2.2,10.7,3.7,18
						c1.4,6.6,7.5,9.9,13.7,7.8c62.4-19.4,120.7-5.6,167.8,39.8c4.5,4.7,11.5,4.5,15.7-0.8c4.6-5.8,7.2-9,11.4-14.4
						C664.8,155.3,664.1,160.3,661.5,163.6z"/>
				</g>
			</g>
		</g>
		<g>
			<g>
				<g>
					<path class="st0" d="M640.5,188.4c-4,0-7.8-1.6-10.7-4.7c-45.9-44.2-102.3-57.6-163.2-38.7c-4.3,1.5-8.6,1.1-12.3-1
						c-3.7-2.1-6.2-5.7-7.2-10.1l-4.2-20.1c-1.9-8.9,4.5-19.2,13.8-22.4c38-12,75-13.8,110.1-5.5s67.3,26.6,95.8,54.2
						c7,7.2,8,19.2,2.4,26.3l-12.8,16.1c-2.8,3.6-6.7,5.6-11,5.8C641,188.4,640.8,188.4,640.5,188.4z M519.3,127.7
						c43,0,82.6,16.7,116.8,49.6l0.1,0.1c1.3,1.4,3,2.1,4.6,2c1.7-0.1,3.2-0.9,4.3-2.4l12.8-16.1c2.6-3.3,2.4-10.1-1.7-14.4
						C601.8,93.6,532,77.1,459.6,99.9c-5.5,1.9-8.7,7.9-7.9,12l4.2,20.1c0.4,1.9,1.4,3.3,2.8,4.1c1.4,0.8,3.2,0.9,5,0.3l0.1-0.1
						C482.8,130.6,501.3,127.7,519.3,127.7z"/>
				</g>
			</g>
		</g>
		<g>
			<g>
				<path class="st0" d="M352.8,329.4c-1.9,0-3.7-0.2-5.5-0.8c-10-2.8-16.4-12.6-15-22.8c0.1-0.9,0.3-1.8,0.6-2.7l25.8-93.5l0,0
					c0.3-0.9,0.6-1.8,0.9-2.7c1.7-4.1,4.9-7.6,8.8-9.9c4.8-2.7,10.4-3.4,15.8-2c5.3,1.5,9.8,4.9,12.5,9.8c2.7,4.8,3.4,10.4,2,15.8
					l-25.8,93.5c-1.5,5.3-5,9.8-9.8,12.5C359.8,328.5,356.3,329.4,352.8,329.4z M378.6,203.4c-2,0-4,0.5-5.8,1.6
					c-2.3,1.3-4,3.2-5,5.6c-0.2,0.5-0.4,1-0.5,1.5l0,0l-25.8,93.5c-0.1,0.5-0.2,1-0.3,1.5c-0.8,5.8,2.9,11.4,8.5,12.9
					c3,0.8,6.2,0.4,8.9-1.1c2.7-1.5,4.7-4.1,5.5-7.1l25.8-93.5c0.8-3,0.4-6.2-1.1-8.9c-1.6-2.7-4.1-4.7-7.1-5.6
					C380.7,203.5,379.7,203.4,378.6,203.4z M362.9,210.8L362.9,210.8L362.9,210.8z"/>
			</g>
		</g>
		<g>
			<g>
				<path class="st0" d="M340.4,312.1l-8.5-2.4c-9.5-2.6-17.3-8.8-22.2-17.4s-6.1-18.5-3.5-28l9.8-35.3
					c5.4-19.6,25.8-31.1,45.4-25.7l8.6,2.4l-2.1,4.8c-0.2,0.4-0.4,0.9-0.5,1.4l-25.8,93.5c-0.1,0.5-0.2,1-0.3,1.5L340.4,312.1z
					 M324.6,231.5l-9.8,35.3c-2,7.1-1,14.6,2.6,21.1c3.5,6.2,9.1,10.8,15.9,12.9l24.6-89C343.5,208.4,328.6,217,324.6,231.5
					L324.6,231.5z"/>
			</g>
		</g>
	</g>
	<g>
		<g>
			<path class="st0" d="M436.1,630.2c-1.2,0-2.4-0.5-3.3-1.4c-14.8-15.7-31.6-23-50-21.8c-20.3,1.4-36.4,13-39.8,17.7
				c-1.5,2-4.3,2.5-6.3,1c-2-1.5-2.5-4.3-1-6.3c4.8-6.7,23.4-19.8,46.5-21.4c20.9-1.4,40.7,7.1,57.2,24.6c1.7,1.8,1.6,4.7-0.2,6.4
				C438.3,629.7,437.2,630.2,436.1,630.2z"/>
		</g>
	</g>
	<g>
		<g>
			<path class="st0" d="M503.4,630.2c-1.1,0-2.2-0.4-3.1-1.2c-1.8-1.7-1.9-4.5-0.2-6.4c16.5-17.5,36.3-26,57.2-24.6
				c23.1,1.6,41.7,14.7,46.5,21.4c1.5,2,1,4.8-1,6.3c-2,1.5-4.8,1-6.3-1c-3.3-4.6-19.5-16.3-39.8-17.7c-18.4-1.2-35.2,6.1-50,21.8
				C505.8,629.7,504.6,630.2,503.4,630.2z"/>
		</g>
	</g>
	<g class="st2">
		<g>
			<path class="st0" d="M504.9,711.5c-1.2,14.7-1.1,63.3,19.8,76.8c19.9,12.9,45.3,10.9,61.9-1.7c5.2-4,8.1-9.7,9.6-16.1
				c-0.4,0.4-0.8,0.7-1.3,1.1c-16.5,12.6-42,14.6-61.8,1.7c-20.8-13.5-20.6-59.8-22.7-74.2c-0.8-5.8-4.4-19.1-8.4-33.3
				C503.4,679.3,505.7,701.6,504.9,711.5z"/>
		</g>
	</g>
	<g>
		<g>
			<path class="st0" d="M227.4,182.3c1,0.2,2,0.6,3,0.6c4,0,7.3-1.6,9.6-4.9c1.4-2,1.4-4.3,1.3-6.6c-0.2-4.1-1.7-7.8-3-11.6
				c-0.5-1.6-1.1-3.2-1.7-4.9c-1,0.2-2,0.5-3,0.7c-9.7,1.8-17.8-1.2-24.5-8.2c-4.5-4.6-7.2-10.2-8-16.7c-0.7-5.4,0.4-10.6,2.4-15.6
				c2.1-5.2,5.1-9.9,8.6-14.3c1.7-2.2,3.4-4.4,5.1-6.5c0.4-0.6,0.5-1,0.3-1.7c-2.4-6.6-4.1-13.4-4-20.5c0.1-5.4,0.9-10.6,3.4-15.5
				c1.1-2.1,2.5-3.8,4.4-5.1s2.9-1.4,4.5,0.2c2.9,2.8,5,6.2,6.4,10c5.3,15,3.4,28.9-6.2,41.6c-0.2,0.3-0.4,0.9-0.2,1.2
				c1,3.4,2.1,6.7,3.1,10.1c0.2,0.5,0.4,0.7,1,0.6c7.8-1.4,13.7,1.6,17.8,8.1c4.5,7.1,5,14.7,0.9,22.3c-1.6,2.9-4,5.1-6.9,6.7
				c-0.7,0.4-0.8,0.8-0.6,1.5c1.4,4.2,2.7,8.4,4,12.6c0.7,2.5,1.2,5,1,7.6c-0.5,5.6-3.4,9.6-8.5,11.8c-6.2,2.7-12.2,2.2-17.5-2.2
				c-4.2-3.5-4.8-10-1.7-14.4c3.8-5.3,11.2-4.7,14,1.2c2.6,5.4-0.2,10.2-4.4,11.5c-0.1,0-0.2,0.1-0.3,0.1
				C227.4,182.1,227.4,182.2,227.4,182.3z M221.9,107.6c-0.4,0.3-0.6,0.5-0.8,0.7c-2.5,3.2-5.1,6.4-7.5,9.8
				c-2.4,3.4-4.1,7.2-4.8,11.4c-0.9,5.1-0.2,9.8,2.6,14.2c4.9,7.4,14.5,10.2,22.6,7.4c0.9-0.3,1.1-0.6,0.8-1.5
				c-2.1-6.7-4.2-13.4-6.2-20.2c-0.2-0.7-0.5-1.5-0.7-2.3c-1.9,1.1-3.3,2.6-4.3,4.3c-1.7,2.9-1.8,5.9,0,8.9c1.2,2,2.8,3.4,5,4
				c0.9,0.3,1.5,1.1,1.3,1.8c-0.1,0.8-1.1,1.3-2,1.1c-6.6-0.9-12.3-7.4-12.2-14c0.1-6.7,2.8-12.1,8.4-15.9c0.2-0.2,0.5-0.6,0.4-0.8
				C223.8,113.6,222.9,110.7,221.9,107.6z M220.7,90.2c0.6-0.7,1.1-1.2,1.4-1.7c3.3-4.4,5.7-9.3,6.8-14.7c0.5-2.7,0.6-5.3-0.3-8
				c-0.7-2.1-2.3-2.7-4.3-1.7c-1.4,0.7-2.3,1.9-2.8,3.3c-2.4,5.7-3.2,11.6-2.2,17.7C219.7,86.9,220.2,88.4,220.7,90.2z M239.1,148.7
				c4-1.7,6.3-8.9,4.5-14.2c-1.9-5.6-7-9-11.5-8.3C234.4,133.7,236.8,141.2,239.1,148.7z"/>
		</g>
	</g>
	<g>
		<g>
			<path class="st0" d="M835.3,246.3c-7.3-0.7-14.6-1.3-21.9-2c-6-0.5-12.2-1.1-18.3-1.6c-3.2-0.3-6.1,1.7-7,4.8
				c-3.3,11.1-6.7,22.4-10,33.4c0,0.1,0,0.2-0.1,0.2c0,0.1-0.1,0.2-0.3,0.1c-1.2-0.5-2.5-0.7-3.7-0.9c-4.3-0.4-8.4,0.3-12.1,2.7
				c-2,1.2-3.6,2.9-4.4,5.1c-0.1,0.2-0.1,0.4-0.2,0.6c-0.6,1.8-0.2,3.5,0.7,5.1c0.9,1.6,2.3,2.8,3.9,3.7c0.6,0.3,1.2,0.5,1.8,0.8
				c0.2,0,0.4,0.1,0.6,0.1c0.1,0,0.2,0.1,0.4,0.1c0.3,0.1,0.7,0.1,0.9,0.3c0.2,0,0.3,0,0.5,0.1c0,0,0.1,0,0.1,0l0.1,0
				c0-0.1,0.1,0,0.2,0c2.5,0.5,5.1,0.5,7.6,0c2.9-0.6,5.5-1.8,7.6-3.8c1.3-1.2,2.2-2.7,2.7-4.4c3.5-12.1,7.1-24.3,10.7-36.4
				c0.1-0.3,0.2-0.4,0.6-0.4c4,0.4,8,0.8,12,1.2c6.3,0.6,12.7,1.2,19,1.8c0.3,0,0.3,0.1,0.2,0.4c-0.8,2.6-1.5,5.1-2.3,7.7
				c-1.8,6.3-3.7,12.5-5.5,18.8c-0.1,0.3-0.2,0.3-0.4,0.2c-0.9-0.4-1.8-0.6-2.7-0.8c-4.1-0.8-8.1-0.3-11.9,1.5
				c-2.1,1-3.9,2.4-5.2,4.3c-1.8,2.7-1.7,5.9,0.2,8.4c1.3,1.8,3.2,2.9,5.2,3.6c3.3,1.2,6.7,1.4,10.2,0.7c3-0.6,5.7-1.7,8-3.7
				c1.3-1.2,2.3-2.6,2.8-4.4c4.2-14.4,8.6-29.2,12.9-43.7C838.3,248.3,837.1,246.5,835.3,246.3C835.3,246.3,835.3,246.3,835.3,246.3
				z"/>
		</g>
	</g>
	<g>
		<g>
			<path class="st0" d="M730.5,483.5c-0.2-0.4-0.5-0.8-0.7-1.2c-0.4-0.8-0.8-1.5-1.4-2.3c-0.3-0.5-0.7-1-1-1.5
				c-3.2-4.2-8.3-8.6-16.5-12.1c-1.1-0.7-2.2-1.5-3.4-2.2c-1.2-0.8-2.4-1.6-3.5-2.7c-1.7-1.7-3.5-3.5-5.2-5.2
				c-0.8-0.8-2.1-0.9-3.2-0.2c-1,0.6-1.4,1.6-1.1,2.8c2.6,9.4,5.3,18.8,7.9,28.2c0,0-0.1,0-0.1,0c0.5,1.7,1,3.5,1.5,5.2
				c2.1,7.8,4.2,15.5,6.3,23.3c0.3,1.1,0.3,2.2,0,3.3c-0.2,1-0.8,1.5-1.8,1.6c-0.2,0-0.4,0-0.7,0c-2.7-0.2-5.3,0.1-7.8,0.9
				c-5.2,1.6-9.2,4.7-12.5,8.9c-2.4,3.1-3.6,6.7-3.4,10.6c0.1,2.2,0.6,4.3,1.9,6.1c1.7,2.5,4.2,3.8,7.2,4.3c1.7,0.3,3.3,0.2,5,0
				c3.6-0.3,6.8-1.6,9.8-3.6c1.8-1.2,3.4-2.7,4.9-4.3c2.1-2.1,4-4.3,5.3-7c1.6-3.2,2.1-6.4,1.2-9.9c-2.3-8.4-4.7-16.8-7-25.2
				c-1.3-4.8-2.7-9.6-4-14.4c-0.6-2.2-1.2-4.5-1.9-6.7c-0.2-0.7-0.5-1.4-0.6-2.1c-0.1-0.6-0.1-1.2,0-1.7c0.3-1.4,1.7-2.1,3.3-2
				c0.3,0,0.5,0.1,0.8,0.1c-0.3,0-0.5-0.1-0.8-0.1c0,0,13.4,5.4,18.8,20.1c0.2,1,0.6,2,1.5,2.7c0.6,0.4,1.2,0.6,1.8,0.2
				c0.7-0.4,1.1-1,1.2-1.8c0,0,0.4-2.2,0-5.5C732.1,487.8,731.5,485.6,730.5,483.5z"/>
		</g>
	</g>
</g>
</svg>
