<?xml version="1.0" encoding="utf-8"?>
<!-- Generator: Adobe Illustrator 25.0.0, SVG Export Plug-In . SVG Version: 6.00 Build 0)  -->
<svg version="1.1" id="Layer_1" xmlns="http://www.w3.org/2000/svg" xmlns:xlink="http://www.w3.org/1999/xlink" x="0px" y="0px"
	 viewBox="0 0 1000 1000" style="enable-background:new 0 0 1000 1000;" xml:space="preserve">
<style type="text/css">
	.st0{fill:#A0A3A8;}
	.st1{fill:#C1C1C1;}
	.st2{opacity:0.25;}
	.st3{fill:#371A45;}
	.st4{opacity:0.6;}
	.st5{fill:#FFFFFF;}
	.st6{opacity:0.7;}
	.st7{fill:#111A28;}
	.st8{fill:#10AFFF;}
	.st9{opacity:0.5;}
	.st10{fill:#7BA2FF;}
	.st11{fill:#787A75;}
	.st12{fill:#FFD243;}
	.st13{fill:#FFA92C;}
	.st14{fill:#000072;}
	.st15{fill:#FF8D06;}
</style>
<g>
	<g>
		<path class="st0" d="M234.7,859v8.2c0,10.6-8.6,19.2-19.2,19.2h-10.2c-2.1,0-4.1-0.3-6-1c-7.7-2.5-13.2-9.8-13.2-18.3V859
			L234.7,859L234.7,859z"/>
	</g>
	<g>
		<path class="st0" d="M768.8,886.4L768.8,886.4c-13.4,0-24.3-10.9-24.3-24.3V859h48.6v3.1C793.1,875.5,782.2,886.4,768.8,886.4z"/>
	</g>
	<g>
		<path class="st1" d="M626.5,859H338.6c-136.4,0-246.9-110.6-246.9-247l0,0c0-136.4,110.6-246.9,246.9-246.9h287.9
			c136.4,0,247,110.6,247,246.9l0,0C873.4,748.5,762.9,859,626.5,859z"/>
	</g>
	<g class="st2">
		<path class="st3" d="M873.4,755.2v24.9c0,43.6-35.3,78.9-78.9,78.9h-624c-43.6,0-78.9-35.3-78.9-78.9v-24.9
			c0,43.6,35.3,78.9,78.9,78.9h624C838.1,834.1,873.4,798.8,873.4,755.2z"/>
	</g>
	<g class="st4">
		<path class="st5" d="M653.1,478.5v307.6c0,20.4-16.5,36.9-36.9,36.9H177.8c-13,0-24.4-6.7-31-16.9c-3.8-5.8-5.9-12.7-5.9-20.1
			V478.5c0-20.4,16.5-36.9,36.9-36.9h438.4c8.7,0,16.8,3,23.1,8.1h0C647.7,456.5,653.1,466.8,653.1,478.5z"/>
	</g>
	<g class="st4">
		<path class="st5" d="M873.4,444v20.2c0-43.6-35.3-78.9-78.9-78.9h-624c-43.6,0-78.9,35.3-78.9,78.9V444
			c0-43.6,35.3-78.9,78.9-78.9h624C838.1,365.1,873.4,400.5,873.4,444z"/>
	</g>
	<g>
		<path class="st3" d="M653.1,463.1v307.6c0,20.4-16.5,36.9-36.9,36.9H177.8c-13,0-24.4-6.7-31-16.9c-3.8-5.8-5.9-12.7-5.9-20.1
			V463.1c0-20.4,16.5-36.9,36.9-36.9h438.4c8.7,0,16.8,3,23.1,8.1h0C647.7,441.1,653.1,451.5,653.1,463.1z"/>
	</g>
	<g class="st2">
		<path class="st3" d="M650.9,450.5c-5-2.5-10.7-4-16.7-4H195.8c-20.4,0-36.9,16.5-36.9,36.9v307.6c0,4.5,0.8,8.7,2.2,12.6
			c-5.9-3-10.8-7.5-14.3-12.9c-3.8-5.8-5.9-12.7-5.9-20.1V463.1c0-20.4,16.5-36.9,36.9-36.9h438.4c8.7,0,16.8,3,23.1,8.1h0
			C644.5,438.5,648.6,444.1,650.9,450.5z"/>
	</g>
	<g class="st6">
		<path class="st7" d="M653.1,463.1v307.6c0,20.4-16.5,36.9-36.9,36.9H177.8c-13,0-24.4-6.7-31-16.9
			c273.4-14.8,438-133.1,492.5-356.5h0C647.7,441.1,653.1,451.5,653.1,463.1z"/>
	</g>
	<g>
		<path class="st3" d="M616.2,812H177.8c-22.7,0-41.2-18.5-41.2-41.2V463.1c0-22.7,18.5-41.2,41.2-41.2h438.4
			c22.7,0,41.2,18.5,41.2,41.2v307.6C657.4,793.5,638.9,812,616.2,812z M177.8,430.5c-18,0-32.6,14.6-32.6,32.6v307.6
			c0,18,14.6,32.6,32.6,32.6h438.4c18,0,32.6-14.6,32.6-32.6V463.1c0-18-14.6-32.6-32.6-32.6L177.8,430.5L177.8,430.5z"/>
	</g>
	<g class="st4">
		<path class="st5" d="M768.8,814.2L768.8,814.2c-39.3,0-71.2-31.9-71.2-71.2V503.9c0-39.3,31.9-71.2,71.2-71.2l0,0
			c39.3,0,71.2,31.9,71.2,71.2V743C840,782.3,808.1,814.2,768.8,814.2z"/>
	</g>
	<g>
		<path class="st5" d="M757.7,807.7L757.7,807.7c-39.3,0-71.2-31.9-71.2-71.2V497.4c0-39.3,31.9-71.2,71.2-71.2l0,0
			c39.3,0,71.2,31.9,71.2,71.2v239.1C828.8,775.8,797,807.7,757.7,807.7z"/>
	</g>
	<g class="st2">
		<path class="st3" d="M825.3,447.4c-5.7-3.7-12.5-5.8-19.8-5.8H737c-20.4,0-36.9,16.5-36.9,36.9v307.6c0,5.6,1.3,11,3.5,15.8
			c-10.3-6.6-17.1-18.1-17.1-31.2V463.1c0-20.4,16.5-36.9,36.9-36.9h68.5C806.7,426.2,819.4,434.8,825.3,447.4z"/>
	</g>
	<g>
		<path class="st3" d="M791.9,812.7h-68.5c-23.1,0-42-18.8-42-42V463.1c0-23.1,18.8-42,42-42h68.5c23.1,0,42,18.8,42,42v307.6
			C833.9,793.9,815.1,812.7,791.9,812.7z M723.4,431.2c-17.6,0-31.9,14.3-31.9,31.9v307.6c0,17.6,14.3,31.9,31.9,31.9h68.5
			c17.6,0,31.9-14.3,31.9-31.9V463.1c0-17.6-14.3-31.9-31.9-31.9L723.4,431.2L723.4,431.2z"/>
	</g>
	<g>
		<path class="st3" d="M794.5,863.3h-624c-45.9,0-83.2-37.3-83.2-83.2V444c0-45.9,37.3-83.2,83.2-83.2h624
			c45.9,0,83.2,37.3,83.2,83.2v336.1C877.8,826,840.4,863.3,794.5,863.3z M170.5,369.4c-41.1,0-74.6,33.5-74.6,74.6v336.1
			c0,41.1,33.5,74.6,74.6,74.6h624c41.1,0,74.6-33.5,74.6-74.6V444c0-41.1-33.5-74.6-74.6-74.6L170.5,369.4L170.5,369.4z"/>
	</g>
	<g>
		<g>
			<path class="st5" d="M284.6,357.8h-1.9c-18.4,0-33,15.6-31.7,34l13.4,188.5c1.2,16.8,15.3,29.7,32.1,29.5l250.8-3.6
				c17.8-0.3,32-15.1,31.3-33l-6.9-184.9c-0.6-17.1-14.7-30.6-31.7-30.6L284.6,357.8L284.6,357.8z"/>
		</g>
		<g class="st2">
			<path class="st3" d="M547.4,606.2l-250.8,3.6c-16.9,0.2-30.9-12.7-32.1-29.5L251,391.8c-0.3-4.5,0.3-8.8,1.7-12.7l11.7,164.6
				c1.2,16.8,15.3,29.7,32.1,29.5l250.8-3.6c14.6-0.2,26.7-10.2,30.3-23.7l1,27.3C579.4,591,565.2,605.9,547.4,606.2z"/>
		</g>
		<g>
			<path class="st3" d="M296.1,614.1c-18.9,0-34.6-14.6-36-33.5l-13.4-188.5c-0.7-10,2.8-19.9,9.6-27.1c6.8-7.3,16.4-11.5,26.4-11.5
				H540c19.5,0,35.3,15.2,36,34.7l6.9,184.9c0.4,9.8-3.1,19.1-9.9,26.2c-6.7,7.1-15.8,11.1-25.6,11.2l-250.8,3.6
				C296.5,614.1,296.3,614.1,296.1,614.1z M282.7,362.1c-7.7,0-14.8,3.1-20.1,8.7c-5.2,5.6-7.8,13-7.3,20.7L268.8,580
				c1,14.4,13,25.5,27.4,25.5c0.1,0,0.3,0,0.4,0l250.8-3.6c7.5-0.1,14.4-3.1,19.5-8.5c5.1-5.4,7.8-12.5,7.5-19.9l-6.9-184.9
				c-0.5-14.8-12.6-26.4-27.4-26.4H282.7z"/>
		</g>
		<g>
			<path class="st5" d="M558.9,594.1l41.4,98.2c0,0-6.4,21.3-53.5,20.9c-8.9-0.1-19.3-0.9-31.4-2.8L442,641.6c0,0-0.1,0.5-0.3,1.6
				c-0.3,1.5-1,4.1-2.1,7.6c-2.3,7.3-6.6,18.8-14.4,33.9c-1.2,2.4-2.5,4.8-4,7.4l37.3,35.4c-1.1,7.1-2.9,13.5-5.4,19.3
				c-8,17.8-23.5,28.4-50.3,28.5c-32.1-8-74.4-18.6-91.9-39.7c-17.6-21.1-10.2-129.4-10.2-129.4c-20-46.3-16-108.5-16-108.5
				s-0.9,0.5-2.4,1.4c-10.4,5.9-52.3,29.8-73.9,41.9c-24.9,13.9-28.4,33-33.7,42.8c-5.1,9.4-17.8,6.3-17.6-4.5c0-0.5,0-0.9,0.1-1.4
				c1.1-9.5-2.9-16.1-4.6-18.4c-0.4-0.6-0.7-0.9-0.7-0.9c-18.8-5.7-48.2,36.5-58.8,0c-2.1-7.2-2.2-14.3-0.8-21.1v0
				c5.6-27.8,36.9-51.2,68.4-61.3c39.2-12.5,41.7-23.6,83.6-72.3c41.9-48.7,146.4-45.7,243.6-24.6s132.6,69,132.6,69l-61.6,97.9
				L558.9,594.1L558.9,594.1z"/>
		</g>
		<g>
			<ellipse class="st8" cx="455.3" cy="527" rx="18.6" ry="19.7"/>
		</g>
		<g>
			<path class="st3" d="M497.8,544.5c-0.1,0-0.2,0-0.3,0c-2.4,0-4.3-2-4.3-4.4c0-2.4,2-4.3,4.3-4.3c0,0,0,0,0,0l0,0
				c8.4,0,30.7-2.2,32.4-13.5c1.5-10-0.6-16.1-2.2-19.1l-17.9,7.4c-2.2,0.9-4.7-0.1-5.6-2.4c-0.9-2.2,0.2-4.7,2.3-5.6l21.1-8.7
				c1.6-0.7,3.5-0.3,4.7,0.9c0.4,0.4,9,9.3,6.1,28.8C535.4,543.9,501.6,544.5,497.8,544.5z"/>
		</g>
		<g>
			<path class="st3" d="M458.8,732.1c-1.1,0-2.1-0.4-3-1.2l-37.3-35.4c-1.4-1.3-1.8-3.5-0.8-5.2c17-30.8,20.2-48.9,20.2-49.1
				c0.3-1.6,1.4-2.9,2.9-3.4s3.2-0.2,4.3,0.9l73.4,68.8c1.7,1.6,1.8,4.4,0.2,6.1s-4.4,1.8-6.1,0.2l-68-63.8
				c-2.3,8-7.4,22.2-17.8,41.5l34.9,33.1c1.7,1.6,1.8,4.4,0.2,6.1C461.1,731.6,460,732.1,458.8,732.1z"/>
		</g>
		<g>
			<path class="st3" d="M403.1,779.8c-0.4,0-0.7,0-1-0.1c-33.7-8.4-75.7-18.9-94.2-41.1c-17.7-21.2-12.2-116.1-11.2-131.4
				c-15.8-37.3-16.6-83.4-16.2-101.7c-14.8,8.5-50.4,28.7-69.6,39.5c-18.8,10.5-24.6,24.1-28.8,34.1c-1.1,2.5-2.1,4.9-3.2,7
				c-3.4,6.3-10,9.3-16.3,7.3c-5.3-1.7-10.2-7.1-9.3-15.6c0.8-7.5-2-12.8-3.5-14.9c-5.4-0.7-12.8,3.3-19.9,7.3
				c-9.6,5.3-19.4,10.7-28.3,7c-5.6-2.3-9.6-7.9-12.2-17c-11.2-38.7,27.9-74.1,70.4-87.7c30.6-9.8,37.8-18.5,61.7-47.3
				c5.7-6.9,12.1-14.6,20-23.8c20.2-23.5,55.2-37,104.1-40c40.4-2.5,90.1,2.3,143.6,14c97.6,21.2,133.7,68.7,135.1,70.7
				c1.1,1.4,1.1,3.4,0.2,4.9l-60.9,96.8v45.7l41,97.4c0.9,2.2-0.1,4.7-2.3,5.7c-2.2,0.9-4.7-0.1-5.7-2.3l-41.4-98.2
				c-0.2-0.5-0.3-1.1-0.3-1.7v-47.8c0-0.8,0.2-1.6,0.7-2.3l59.9-95.2c-8.4-9.5-45.9-47.3-128.2-65.2
				c-117.5-25.5-204.7-17.1-239.4,23.2c-7.9,9.1-14.2,16.9-19.9,23.7c-24.4,29.5-32.6,39.4-65.7,50c-39.1,12.5-74.1,44.8-64.7,77.1
				c1.8,6.3,4.3,10.2,7.3,11.4c5,2.1,13-2.3,20.8-6.6c9.3-5.1,18.9-10.4,27.8-7.7c0.8,0.2,1.4,0.7,2,1.2c0.3,0.4,7.9,8.9,6.4,22.6
				c-0.4,3.9,1.4,5.9,3.3,6.4c1.8,0.5,4.4,0.1,6.2-3.1c0.9-1.7,1.8-3.8,2.9-6.3c4.5-10.5,11.2-26.2,32.5-38.2
				c24.6-13.8,75.8-43,76.3-43.3c1.4-0.8,3.1-0.8,4.4,0.1c1.4,0.8,2.1,2.4,2,3.9c0,0.6-3.7,61.7,15.6,106.5c0.3,0.6,0.4,1.3,0.3,2
				c-2,29.6-4.3,110.1,9.2,126.3c16.7,20,58.9,30.6,89.7,38.3c2.3,0.6,3.7,2.9,3.1,5.2C406.8,778.5,405,779.8,403.1,779.8z"/>
		</g>
		<g>
			<path class="st3" d="M377.9,773.3c-1.9,0-3.6-1.3-4.2-3.2c-0.6-2.3,0.7-4.7,3-5.3c42.4-11.7,50.1-63.3,50.2-63.8
				c0.3-2.4,2.5-4,4.9-3.7c2.4,0.3,4,2.5,3.7,4.9c-0.3,2.3-8.6,57.8-56.5,70.9C378.7,773.2,378.3,773.3,377.9,773.3z"/>
		</g>
		<g>
			<path class="st3" d="M280.7,497.6l7.8-48.2l0.8,48.8C289.2,504.5,280,503.8,280.7,497.6L280.7,497.6z"/>
		</g>
		<g>
			<path class="st3" d="M389.8,579.2c-17.5,0-33.4,0-44.5-0.2c-10.7-0.1-19.4-8.9-19.4-19.6v-78c0-10.8,8.8-19.6,19.6-19.6h131.8
				c3.3,0,6.7,0.8,9.7,2.2l3,1.5c7.2,3.4,11.8,10.7,11.8,18.7v67.5c0,15.1-12.3,27.4-27.3,27.5C452.3,579.1,418.9,579.2,389.8,579.2
				z M345.6,470.4c-6.1,0-11,4.9-11,11v78c0,6,4.9,10.9,10.9,11c29.4,0.3,93.5,0.1,129-0.1c10.3,0,18.7-8.5,18.7-18.8V484
				c0-4.6-2.7-8.9-6.9-10.9l-3-1.5c-1.8-0.9-3.9-1.4-6-1.4H345.6z"/>
		</g>
		<g>
			<path class="st3" d="M497.5,505.8c-2.4,0-4.3-1.9-4.3-4.3c0-4.6-2.7-8.9-6.9-10.9l-3-1.5c-1.8-0.9-3.9-1.4-6-1.4H345.6
				c-6.1,0-11,4.9-11,11c0,2.4-1.9,4.3-4.3,4.3s-4.3-1.9-4.3-4.3c0-10.8,8.8-19.6,19.6-19.6h131.8c3.3,0,6.7,0.8,9.7,2.2l3,1.5
				c7.2,3.4,11.8,10.7,11.8,18.7C501.8,503.8,499.9,505.8,497.5,505.8z"/>
		</g>
		<g>
			<g>
				<path class="st5" d="M646.5,514.5c0,0-8.4,27.9-30,28.9c-7.2,15-18.7,15.7-32.6,8.4c-6.9,2.7-13.1,3.9-17.8,2.2
					c-2.7-1-5-2.8-6.7-5.9c-18.2,5.9-29.7-2.9-27.9-41.4c0,0-19.6,15.8-33.5,14.3c-13.9-1.5-12.4-18.8,0-33.2s41.3-39.4,81.9-30.3
					c0,0,24.4-20.2,52.2-4c0,0,0,0,0,0C660,469.7,654.8,506.6,646.5,514.5z"/>
			</g>
			<g>
				<path class="st3" d="M599.1,560.7c-4.7,0-9.8-1.4-15.5-4.1c-12,4.3-20.8,3.1-26.1-3.5c-7.9,1.9-14.4,1-19.4-2.9
					c-7.3-5.6-11-17.1-11.1-35.1c-7.5,4.9-19.4,11.2-29.5,10.1c-6.1-0.7-10.6-3.8-12.6-9c-3.3-8.4,0.6-20.6,9.8-31.3
					c11-12.7,41-40.8,84.2-32.1c6.5-4.5,29.7-18.1,55.4-3.1c12.8,7.4,20.9,20.1,22.7,35.5c1.5,12.3-1.4,25.5-6.8,31.5
					c-1.8,5.2-10.8,28-31,30.7c-3.5,6.2-7.9,10.3-13.3,12.1C603.8,560.3,601.5,560.7,599.1,560.7z M583.9,547.5c0.7,0,1.4,0.2,2,0.5
					c7.1,3.7,12.9,4.9,17.2,3.4c3.8-1.2,6.9-4.5,9.4-9.9c0.7-1.4,2.1-2.4,3.7-2.5c18.2-0.8,26-25.6,26-25.8c0.2-0.7,0.6-1.4,1.2-1.9
					c3-2.9,6.4-13.2,5-25.1c-1.1-9-5.1-21.3-18.5-29.1c-24.8-14.4-46.4,2.9-47.3,3.6c-1,0.8-2.4,1.2-3.7,0.9
					c-39.7-9-67.5,17.2-77.7,28.9c-7.7,8.9-10,18-8.3,22.5c0.5,1.3,1.7,3.2,5.5,3.6c10,1.1,25.3-9.3,30.4-13.4
					c1.3-1.1,3.2-1.3,4.7-0.5c1.5,0.8,2.4,2.4,2.4,4c-1.2,24.5,3.5,33.4,7.6,36.5c3.3,2.5,8.1,2.7,14.7,0.6c2-0.6,4.1,0.2,5.1,2
					c2.1,3.8,6,7,19.1,1.8C582.9,547.6,583.4,547.5,583.9,547.5z"/>
			</g>
			<g>
				<path class="st3" d="M637.6,535.7c-0.4,0-0.8-0.1-1.2-0.2c-2.3-0.7-3.6-3.1-2.9-5.4c10.6-36-36.5-62.8-54.8-68.5
					c-2.3-0.7-3.5-3.1-2.8-5.4c0.7-2.3,3.1-3.5,5.4-2.8c11.4,3.5,28.8,12.8,42.1,25.4c17.5,16.6,23.8,35.2,18.4,53.8
					C641.1,534.4,639.4,535.7,637.6,535.7z"/>
			</g>
			<g>
				<path class="st3" d="M527.5,505c4.9-8.3,10.3-16.3,17-23.2c-4.2,8.3-6.8,17.3-8.9,26.3C533.8,514.6,524.5,511,527.5,505
					L527.5,505z"/>
			</g>
			<g>
				<path class="st3" d="M555.1,548.4c0.7-17.1,2.5-34.7,9.5-50.4c-2.2,8.2-2.7,16.6-2.7,25c0.1,8.3,0.7,16.8,1.9,24.9
					C564.4,554,555.3,554.6,555.1,548.4L555.1,548.4z"/>
			</g>
			<g>
				<path class="st3" d="M579.6,551.6c2.4-13.2,5-26.3,9.1-39c-1.2,13.2-1,26.4-0.5,39.6C588.2,558.5,578.8,557.9,579.6,551.6
					L579.6,551.6z"/>
			</g>
			<g>
				<path class="st3" d="M612.2,544c0.2-9.9,1.5-19.6,4.3-29c0.1,9.4,1.7,18.8,4.3,27.8C622.4,549.3,612.5,550.7,612.2,544
					L612.2,544z"/>
			</g>
			<g class="st2">
				<path class="st3" d="M646.5,514.5c0,0-8.4,27.9-30,28.9c-7.2,15-18.7,15.7-32.6,8.4c-6.9,2.7-13.1,3.9-17.8,2.2
					c2-1.9,5.4-8.2,6.2-28.5c1.1-29.3,18.8-27.5,18.8-27.5c26.5,0,21.4-22.8,21.4-22.8l9.9,8.8c21.5-6,10.1-29.7,9.8-30.5
					C660,469.7,654.8,506.6,646.5,514.5z"/>
			</g>
		</g>
		<g>
			<path class="st3" d="M418.1,574.6c-2.4,0-4.3-1.9-4.3-4.3v-15.2c0-5.7-3-11-7.9-13.9l-14.5-8.5c-7.5-4.4-12.2-12.6-12.2-21.3
				v-24.2c0-2.4,1.9-4.3,4.3-4.3s4.3,1.9,4.3,4.3v24.2c0,5.7,3,11,7.9,13.9l14.5,8.5c7.5,4.4,12.2,12.6,12.2,21.3v15.2
				C422.5,572.7,420.5,574.6,418.1,574.6z"/>
		</g>
		<g>
			<path class="st3" d="M455.3,550.9c-12.6,0-22.8-10.7-22.8-23.9c0-13.2,10.2-23.9,22.8-23.9s22.8,10.7,22.8,23.9
				C478.1,540.2,467.9,550.9,455.3,550.9z M455.3,511.5c-7.9,0-14.4,7-14.4,15.5c0,8.5,6.5,15.5,14.4,15.5s14.4-7,14.4-15.5
				C469.7,518.4,463.3,511.5,455.3,511.5z"/>
		</g>
		<g>
			<path class="st5" d="M326.4,530.7c-21.3,4.3-39.6-2-39.6-2c-5.9-15.6-7-27.6,1.8-32.5c14.5,5.3,37.9,1.7,37.9,1.7h2.8v32.2
				L326.4,530.7z"/>
		</g>
		<g>
			<path class="st3" d="M310.9,536.6c-14.4,0-24.9-3.6-25.5-3.8c-1.2-0.4-2.2-1.3-2.6-2.5c-2.8-7.3-11.2-29.6,3.7-37.8
				c1.1-0.6,2.4-0.7,3.6-0.3c13.3,4.8,35.5,1.5,35.7,1.5c0.2,0,0.4,0,0.6,0h2.8c2.4,0,4.3,1.9,4.3,4.3v32.2c0,2.1-1.5,3.8-3.5,4.2
				l-2.8,0.6C321.5,536.1,316,536.6,310.9,536.6z M290.1,525.2c5,1.3,19.1,4.5,34.8,1.4v-24.1c-6,0.7-23,2.3-35.8-1.5
				C286.8,503,284,508.4,290.1,525.2z"/>
		</g>
		<g>
			<path class="st3" d="M380.8,631.3c37.2,6.5,68.3,11.6,102.9-8.3C459,653.4,411.7,650.3,380.8,631.3L380.8,631.3z"/>
		</g>
		<g>
			<path class="st3" d="M424.4,695.6l-23.5,14.6l17.9-21.1C423.3,684.2,429.8,691.8,424.4,695.6L424.4,695.6z"/>
		</g>
		<g>
			<path class="st3" d="M226.2,533c-0.1,0-0.2,0-0.3,0c-43.2-3.4-50.8-60.4-51.1-62.8c-0.3-2.4,1.4-4.5,3.8-4.8
				c2.4-0.3,4.5,1.4,4.8,3.7l0,0c0.1,0.5,7.1,52.5,43.2,55.3c2.4,0.2,4.1,2.3,4,4.6C230.4,531.3,228.5,533,226.2,533z"/>
		</g>
		<g>
			<g>
				<path class="st5" d="M259.7,223.9l-19.1,7.1c-11.2,4.2-18.7,14.8-18.9,26.7l-0.8,55.2c-0.2,13.6,9.1,25.5,22.3,28.6l24.1,5.7"/>
			</g>
			<g>
				<path class="st5" d="M563.8,228.4l18.9,7.7c11.1,4.5,18.2,15.3,18,27.2l-0.8,55.2c-0.2,13.6-9.8,25.2-23.1,27.9l-24.2,5"/>
			</g>
			<g class="st2">
				<path class="st3" d="M267.3,347.2l-24.1-5.7c-13.2-3.1-22.5-15-22.3-28.6l0.5-31.3c-0.2,13.6,9.1,25.5,22.3,28.6l21.6,5.1
					L267.3,347.2z"/>
			</g>
			<g class="st2">
				<path class="st3" d="M600.4,287.2l-0.5,31.3c-0.2,13.6-9.8,25.2-23.1,27.9l-24.2,5l2.9-31.8l21.8-4.5
					C590.6,312.4,600.2,300.7,600.4,287.2z"/>
			</g>
			<g>
				<path class="st3" d="M267.3,351.5c-0.3,0-0.7,0-1-0.1l-24.1-5.7c-15.3-3.6-25.8-17.1-25.6-32.9l0.8-55.2
					c0.2-13.8,8.7-25.9,21.7-30.7l19.1-7.1c2.2-0.8,4.7,0.3,5.5,2.5s-0.3,4.7-2.5,5.6l-19.1,7.1c-9.6,3.6-15.9,12.5-16,22.7
					l-0.8,55.2c-0.2,11.6,7.6,21.6,18.9,24.3l24.1,5.7c2.3,0.5,3.8,2.9,3.2,5.2C271,350.2,269.2,351.5,267.3,351.5z"/>
			</g>
			<g>
				<path class="st3" d="M552.6,355.7c-2,0-3.8-1.4-4.2-3.5c-0.5-2.3,1-4.6,3.4-5.1l24.2-5c11.4-2.4,19.5-12.1,19.7-23.8l0.8-55.2
					c0.2-10.2-5.9-19.3-15.4-23.2l-18.9-7.7c-2.2-0.9-3.3-3.4-2.4-5.6c0.9-2.2,3.4-3.3,5.6-2.4l18.9,7.7
					c12.8,5.2,20.9,17.5,20.7,31.3l-0.8,55.2c-0.2,15.7-11.2,28.9-26.5,32.1l-24.2,5C553.2,355.7,552.9,355.7,552.6,355.7z"/>
			</g>
			<g>
				
					<ellipse transform="matrix(0.7071 -0.7071 0.7071 0.7071 -74.9888 370.849)" class="st5" cx="410.2" cy="275.9" rx="167" ry="167"/>
			</g>
			<g class="st2">
				<path class="st3" d="M407.7,442.9c-38.2-0.6-73.3-14-101.1-36c17.1,6.2,35.5,9.7,54.7,10c92.2,1.4,168.1-72.3,169.4-164.5
					c0.8-54-24.1-102.3-63.4-133.4c65,23.6,110.9,86.4,109.9,159.4C575.8,370.6,499.9,444.3,407.7,442.9z"/>
			</g>
			<g>
				<path class="st3" d="M577,283.9c-1.1,73.4-76.7,131.8-168.9,130.4C324,413.1,255.2,362.6,244.6,298c-1-6.2-1.5-12.6-1.4-19.1
					c1.1-73.4,76.7-131.8,168.9-130.4c69.3,1,128.2,35.5,152.8,83.7v0C573,248.2,577.3,265.7,577,283.9z"/>
			</g>
			<g class="st6">
				<path class="st7" d="M577,283.9c-1.1,73.4-76.7,131.8-168.9,130.4C324,413.1,255.2,362.6,244.6,298c1.2-1.6,2-2.4,2-2.4
					c75.9,128.3,311.6,77.8,318.3-63.4C573,248.2,577.3,265.7,577,283.9z"/>
			</g>
			<g>
				<path class="st3" d="M410.2,447.2c-0.9,0-1.7,0-2.6,0c-45.8-0.7-88.5-19.1-120.4-52c-31.9-32.8-49-76.1-48.4-121.9
					c0.7-45.8,19.1-88.5,51.9-120.4s76-49.1,121.9-48.4c45.8,0.7,88.5,19.1,120.4,52s49,76.1,48.4,121.9
					c-0.7,45.8-19.1,88.5-52,120.4C497.3,430.1,455,447.2,410.2,447.2z M410.1,113.3c-42.5,0-82.7,16.3-113.2,46
					c-31.2,30.3-48.7,70.9-49.3,114.3c-0.6,43.4,15.7,84.5,45.9,115.7s70.9,48.7,114.3,49.3c43.4,0.7,84.5-15.7,115.7-45.9
					c31.2-30.3,48.7-70.9,49.3-114.3s-15.7-84.5-45.9-115.7c-30.3-31.2-70.9-48.7-114.3-49.3C411.7,113.3,410.9,113.3,410.1,113.3z"
					/>
			</g>
			<g>
				<path class="st3" d="M577.2,279.7C577.2,279.7,577.1,279.7,577.2,279.7c-2.3,0-4.1-1.9-4.1-4.1c1.1-75.6-71.1-138.1-160.9-139.4
					c-43.7-0.6-84.9,13.1-116,38.7c-31,25.4-48.3,59.5-48.9,96c0,2.2-1.9,4.1-4.1,4c-2.2,0-4-1.9-4-4.1c0.6-38.9,19-75.2,51.9-102.1
					c32.7-26.8,75.8-41.2,121.3-40.5c94.3,1.4,170.1,67.6,168.9,147.7C581.2,278,579.4,279.7,577.2,279.7z"/>
			</g>
			<g class="st9">
				<path class="st5" d="M507.8,349.7c13.1-61.8-5.5-114.5-52.2-159c-5.8-5.5,0.6-14.8,7.8-11.4c90.9,43.7,107.9,125.4,56.2,176.8
					C514.6,361,506.3,356.5,507.8,349.7z"/>
			</g>
			<g class="st9">
				<path class="st5" d="M302.2,279.9c-0.2,8.8,0.5,21.6,4.5,35.9c2.1,7.3-2,15-9.2,17.5l0,0c-6.5,2.2-13.6-0.4-17-6.3
					c-8.8-14.8-14.1-32.5-11.3-50.3c1.6-10.1,12-16.2,21.7-12.9l0,0C297.7,266.2,302.3,272.7,302.2,279.9z"/>
			</g>
			<g class="st9">
				<path class="st5" d="M322.2,211.2L322.2,211.2c3.3,4.2,3.5,10.2,0.5,14.6l-8,11.7c-3.5,5-10,6.8-15.5,4.2l-0.9-0.4
					c-6.8-3.2-9.2-11.8-5-18c2.5-3.8,5.9-8.1,10-12.8C308.4,204.9,317.5,205.2,322.2,211.2z"/>
			</g>
		</g>
		<g class="st2">
			<path class="st3" d="M559.1,403.6c-25,41.6-108.9,80.1-193,39.3c72.5,7.4,129.5-6.9,165.4-50.9L559.1,403.6z"/>
		</g>
		<g class="st2">
			<path class="st3" d="M288.5,442.9l-1.8,20.4l-1.8,23.9l-2.4,12.2c-10.4,5.9-52.3,29.8-73.9,41.9c-24.9,13.9-28.4,33-33.7,42.8
				c-5.1,9.4-17.8,6.3-17.6-4.5c7.7-4,13.1-25.1,15.1-38.4c2-13.3,16.1-17.8,46.7-39.7C249.8,479.6,288.5,442.9,288.5,442.9z"/>
		</g>
		<g class="st2">
			<path class="st3" d="M152.8,559.8c-0.4-0.6-0.7-0.9-0.7-0.9c-18.8-5.7-48.2,36.5-58.8,0c-2.1-7.2-2.2-14.3-0.8-21.1
				c0.3,0.8,8.4,24.1,56.2-9.2C148.7,528.7,160.7,537.5,152.8,559.8z"/>
		</g>
		<g class="st2">
			<path class="st3" d="M479.6,626.3c-9.7,28.2,2.3,51,18,72.9c0,0-56.3-55.8-54.8-55.8c1.5,0,20.6-8,20.6-8"/>
		</g>
		<g class="st2">
			<path class="st3" d="M458.6,727.5c-1.1,7.1-2.9,13.5-5.4,19.3c-4.9,2.7-12.9,3.7-26,1.1c-45.2-9-55.8-46.3-55.8-46.3
				c18.1-31.2,16.7-67.7,16.7-67.7l53.5,9.3l1.1,0.2l-3.1,7.4l-14.4,33.9c-1.2,2.4-2.5,4.8-4,7.4L458.6,727.5z"/>
		</g>
		<g class="st2">
			<path class="st3" d="M600.3,692.4c0,0-6.4,21.3-53.5,20.9c5.5-8.3,18.7-34.5-2-67.3c-21.8-34.5-29.6-52.2-27.4-67
				c-0.1,0.1-0.1,0.3-0.2,0.4c-6.6,12.9-20.4,20.7-34.9,20.7H362c-3.7,0-7.3-0.6-10.8-1.6c-3.5-1.1-6.7-2.7-9.8-4.8
				c-5.1-3.5-8.1-9.3-8.1-15.5v-26.3c55.3,5.3,107.8-5.3,154.7-46.9l2.7,15.5c7.1,11.2,28.9-3.3,30.1-4.1c0,0,0.1,0,0.1,0l10.3-8.8
				l9.4,40.6l16.3,3.8l1.8,18.6v23.7L600.3,692.4z"/>
		</g>
	</g>
	<g>
		<circle class="st10" cx="757.9" cy="487.1" r="42.1"/>
	</g>
	<g class="st2">
		<path class="st3" d="M799.9,487.1c0,23.2-18.8,42.1-42.1,42.1c-14.7,0-27.5-7.5-35.1-18.8c5.8,3,12.3,4.6,19.2,4.6
			c23.2,0,42.1-18.8,42.1-42.1c0-8.6-2.6-16.6-7-23.2C790.6,456.7,799.9,470.8,799.9,487.1z"/>
	</g>
	<g class="st2">
		<path class="st3" d="M812.3,502.6c0,23.2-18.8,42.1-42.1,42.1c-14.7,0-27.5-7.5-35.1-18.8c5.8,3,12.3,4.6,19.2,4.6
			c23.2,0,42.1-18.8,42.1-42.1c0-8.6-2.6-16.6-7-23.2C803,472.1,812.3,486.3,812.3,502.6z"/>
	</g>
	<g class="st4">
		<path class="st5" d="M798,474.5c-6.7-10.2-17.7-17.3-30.5-18.6v20.8c0,1.6-1.3,3-2.9,3h-6.9c-1.6,0-3-1.3-3-3v-20.2
			c-19.3,3.8-33.9,20.8-33.9,41.3c0,4.4,0.7,8.6,1.9,12.6c-4.4-6.6-7-14.6-7-23.2c0-23.2,18.8-42.1,42.1-42.1
			C776.7,445.1,792.7,457.5,798,474.5z"/>
	</g>
	<g>
		<path class="st3" d="M757.9,534.3c-26,0-47.1-21.1-47.1-47.1c0-26,21.1-47.1,47.1-47.1s47.1,21.1,47.1,47.1
			C805,513.1,783.8,534.3,757.9,534.3z M757.9,450.1c-20.4,0-37,16.6-37,37c0,20.4,16.6,37,37,37s37-16.6,37-37
			C794.9,466.7,778.3,450.1,757.9,450.1z"/>
	</g>
	<g>
		<path class="st3" d="M757.9,446L757.9,446c-3.5,0-6.4,2.9-6.4,6.4v17.8c0,3.5,2.9,6.4,6.4,6.4l0,0c3.5,0,6.4-2.9,6.4-6.4v-17.8
			C764.3,448.9,761.4,446,757.9,446z"/>
	</g>
	<g>
		<circle class="st11" cx="718.4" cy="591.5" r="15.9"/>
	</g>
	<g>
		<circle class="st11" cx="759.3" cy="591.5" r="15.9"/>
	</g>
	<g>
		<circle class="st11" cx="800.3" cy="591.5" r="15.9"/>
	</g>
	<g class="st4">
		<path class="st5" d="M734.3,592.1c0,8.8-7.1,15.9-15.9,15.9c-8,0-14.7-6-15.7-13.7c2.6,5.2,8,8.8,14.2,8.8
			c8.8,0,15.9-7.1,15.9-15.9c0-0.7,0-1.5-0.2-2.2C733.7,587.2,734.3,589.5,734.3,592.1z"/>
	</g>
	<g class="st4">
		<path class="st5" d="M775.3,592.1c0,8.8-7.1,15.9-15.9,15.9c-8,0-14.7-6-15.7-13.7c2.6,5.2,8,8.8,14.2,8.8
			c8.8,0,15.9-7.1,15.9-15.9c0-0.7,0-1.5-0.2-2.2C774.7,587.2,775.3,589.5,775.3,592.1z"/>
	</g>
	<g class="st4">
		<path class="st5" d="M816.2,592.1c0,8.8-7.1,15.9-15.9,15.9c-8,0-14.7-6-15.7-13.7c2.6,5.2,8,8.8,14.2,8.8
			c8.8,0,15.9-7.1,15.9-15.9c0-0.7,0-1.5-0.2-2.2C815.6,587.2,816.2,589.5,816.2,592.1z"/>
	</g>
	<g>
		<path class="st11" d="M762.2,782L762.2,782c-6,0-10.9-4.9-10.9-10.9V647.7c0-6,4.9-10.9,10.9-10.9l0,0c6,0,10.9,4.9,10.9,10.9V771
			C773.1,777.1,768.2,782,762.2,782z"/>
	</g>
	<g>
		<path class="st11" d="M800.9,782L800.9,782c-6,0-10.9-4.9-10.9-10.9V647.7c0-6,4.9-10.9,10.9-10.9l0,0c6,0,10.9,4.9,10.9,10.9V771
			C811.8,777.1,806.9,782,800.9,782z"/>
	</g>
	<g>
		<path class="st11" d="M723.5,782L723.5,782c-6,0-10.9-4.9-10.9-10.9V647.7c0-6,4.9-10.9,10.9-10.9l0,0c6,0,10.9,4.9,10.9,10.9V771
			C734.4,777.1,729.5,782,723.5,782z"/>
	</g>
	<g class="st4">
		<path class="st5" d="M772.6,642.3v135.1c0,2.8-2.3,5-5,5h-11.8c-1.6,0-3-0.7-3.9-1.9c0,0,0.1,0,0.2,0h11.8c2.8,0,5-2.2,5-5V640.4
			c0-1.2-0.4-2.3-1.1-3.1C770.4,637.3,772.6,639.5,772.6,642.3z"/>
	</g>
	<g class="st4">
		<path class="st5" d="M811.2,642.3v135.1c0,2.8-2.2,5-5,5h-11.8c-1.6,0-3-0.7-3.9-1.9c0.1,0,0.1,0,0.2,0h11.8c2.8,0,5-2.2,5-5
			V640.4c0-1.2-0.4-2.3-1.1-3.1C809.1,637.3,811.2,639.5,811.2,642.3z"/>
	</g>
	<g class="st4">
		<path class="st5" d="M733.9,642.3v135.1c0,2.8-2.2,5-5,5H717c-1.6,0-3-0.7-3.9-1.9c0,0,0.1,0,0.2,0h11.8c2.8,0,5-2.2,5-5V640.4
			c0-1.2-0.4-2.3-1.1-3.1C731.7,637.3,733.9,639.5,733.9,642.3z"/>
	</g>
	<g>
		<path class="st3" d="M215.4,890.7h-10.2c-13,0-23.5-10.6-23.5-23.5V859c0-2.4,1.9-4.3,4.3-4.3h48.6c2.4,0,4.3,1.9,4.3,4.3v8.2
			C239,880.2,228.4,890.7,215.4,890.7z M190.4,863.3v3.8c0,8.2,6.7,14.9,14.9,14.9h10.2c8.2,0,14.9-6.7,14.9-14.9v-3.8H190.4z"/>
	</g>
	<g>
		<path class="st3" d="M773.9,890.7h-10.2c-13,0-23.5-10.6-23.5-23.5V859c0-2.4,1.9-4.3,4.3-4.3h48.6c2.4,0,4.3,1.9,4.3,4.3v8.2
			C797.4,880.2,786.9,890.7,773.9,890.7z M748.8,863.3v3.8c0,8.2,6.7,14.9,14.9,14.9h10.2c8.2,0,14.9-6.7,14.9-14.9v-3.8H748.8z"/>
	</g>
	<g class="st2">
		<path class="st3" d="M234.7,859v8.2c0,10.6-8.6,19.2-19.2,19.2h-10.2c-2.1,0-4.1-0.3-6-1c9.8-8.3,11.2-18.4,9.9-26.4L234.7,859
			L234.7,859z"/>
	</g>
	<g class="st2">
		<path class="st3" d="M793,859v8.2c0,10.6-8.6,19.2-19.2,19.2h-10.2c-2.1,0-4.1-0.3-6-1c9.8-8.3,11.2-18.4,9.9-26.4L793,859
			L793,859z"/>
	</g>
	<g class="st2">
		<path class="st3" d="M103.5,888.9c33.7-2.6,67.4-4.2,101.1-5.8c8.4-0.5,16.9-0.6,25.3-0.7l25.3,0.1l50.6,0.1l202.3,0.4l202.3,0.2
			l25.3,0c8.4,0,16.9-0.4,25.3-0.4c8.4,0,16.9,0.5,25.3,0.7l25.3,0.9c16.9,0.5,33.7,1.3,50.6,2c8.4,0.3,16.9,0.7,25.3,1.2l25.3,1.3
			l-25.3,1.3c-8.4,0.4-16.9,0.8-25.3,1.2c-16.9,0.7-33.7,1.5-50.6,2l-25.3,0.9c-8.4,0.3-16.9,0.7-25.3,0.7c-8.4,0-16.9-0.4-25.3-0.4
			l-25.3,0l-202.3,0.2l-202.3,0.4l-50.6,0.1l-25.3,0.1c-8.4,0-16.9-0.2-25.3-0.7C171,893.1,137.2,891.4,103.5,888.9z"/>
	</g>
	<g>
		<g>
			<path class="st12" d="M199.1,630.8l1.3,4.8l4.6,1.7c1.3,0.5,1.4,2.2,0.3,2.9l-4.2,2.7l-0.2,4.9c0,1.3-1.6,2-2.6,1.2l-3.8-3.1
				l-4.8,1.4c-1.3,0.4-2.4-0.9-1.9-2.1l1.8-4.6l-2.8-4.1c-0.8-1.1,0.1-2.6,1.4-2.5l4.9,0.3l3-3.9
				C197.1,629.2,198.8,629.5,199.1,630.8z"/>
		</g>
		<g>
			<path class="st13" d="M201,647.8c0,1.3-1.6,2-2.6,1.2l-3.8-3.1l-4.8,1.4c-1.3,0.4-2.4-0.9-1.9-2.1l0.6-1.4
				c0.3,0.7,1.1,1.2,1.9,0.9l4.8-1.4l3.8,3.1c0.7,0.6,1.6,0.4,2.1-0.1L201,647.8z"/>
		</g>
		<g class="st4">
			<path class="st5" d="M188.3,633.9l5.7,0.4l-0.9,1.1l-4.8-0.3l-0.2-0.3c-0.2-0.2-0.2-0.5-0.2-0.8
				C188.1,633.9,188.2,633.8,188.3,633.9z"/>
		</g>
		<g class="st4">
			<path class="st5" d="M205.4,637.4c-0.1,0.2-0.3,0.5-0.5,0.6l-0.7,0.5c-0.1-0.1-0.2-0.1-0.4-0.2l-4.6-1.7l-1.3-4.8
				c-0.2-0.9-1.2-1.4-2-1.2l0.4-0.5c0.8-1.1,2.5-0.7,2.8,0.6l1.3,4.8l4.6,1.7C205.2,637.3,205.3,637.4,205.4,637.4z"/>
		</g>
		<g>
			<path class="st13" d="M190.2,641.1l-3.3-4.7c-0.6-0.9-0.2-2,0.7-2.4l3.4,4.9L190.2,641.1z"/>
		</g>
		<g>
			<path class="st13" d="M205.4,640.1l-4.8,3l0.1-2.3l5-3.1C206.3,638.3,206.3,639.6,205.4,640.1z"/>
		</g>
		<g>
			<path class="st14" d="M199.4,649.4c-0.4,0-0.8-0.1-1.1-0.4l-3.8-3.1l-4.7,1.4c-0.6,0.2-1.3,0-1.7-0.5c-0.4-0.5-0.6-1.2-0.3-1.8
				l1.8-4.6l-2.8-4.1c-0.4-0.5-0.4-1.2-0.1-1.8c0.3-0.6,0.9-0.9,1.6-0.9l4.9,0.3l3-3.9c0.4-0.5,1-0.7,1.7-0.6
				c0.6,0.1,1.1,0.6,1.3,1.2l1.2,4.7l4.6,1.7c0.6,0.2,1,0.8,1.1,1.4c0.1,0.7-0.2,1.3-0.8,1.6l-4.1,2.7l-0.2,4.9c0,0.7-0.4,1.2-1,1.5
				C199.9,649.4,199.7,649.4,199.4,649.4z M194.6,645.7L194.6,645.7l3.9,3.2c0.5,0.4,1.1,0.5,1.6,0.2c0.5-0.2,0.9-0.8,0.9-1.3l0.2-5
				l0,0l4.2-2.7c0.5-0.3,0.8-0.9,0.7-1.5c-0.1-0.6-0.4-1.1-1-1.3l-4.7-1.7l0,0l-1.3-4.8c-0.1-0.6-0.6-1-1.2-1.1
				c-0.6-0.1-1.1,0.1-1.5,0.6l-3.1,3.9h0l-4.9-0.3c-0.6,0-1.1,0.3-1.4,0.8c-0.3,0.5-0.3,1.1,0.1,1.6l2.8,4.1l0,0l-1.8,4.6
				c-0.2,0.5-0.1,1.2,0.3,1.6c0.4,0.4,1,0.6,1.6,0.4L194.6,645.7z"/>
		</g>
		<g>
			<path class="st14" d="M199.4,650.1c-0.5,0-1.1-0.2-1.5-0.5l-3.5-2.9l-4.4,1.3c-0.9,0.2-1.8,0-2.4-0.7s-0.8-1.6-0.5-2.4l1.6-4.2
				l-2.6-3.8c-0.5-0.7-0.5-1.7-0.1-2.5c0.4-0.8,1.2-1.2,2.2-1.2l4.6,0.3l2.8-3.6c0.6-0.7,1.4-1,2.3-0.9c0.9,0.2,1.6,0.8,1.8,1.7
				l1.2,4.4l4.3,1.5c0.9,0.3,1.4,1,1.5,2c0.1,0.9-0.3,1.8-1.1,2.2l-3.8,2.5l-0.1,4.6c0,0.9-0.6,1.7-1.4,2.1
				C200.1,650,199.7,650.1,199.4,650.1z M194.6,645.1c0.2,0,0.3,0.1,0.5,0.2l3.8,3.1c0.3,0.2,0.6,0.3,0.9,0.1s0.5-0.4,0.5-0.8
				l0.2-4.9c0-0.2,0.1-0.5,0.3-0.6l4.2-2.7c0.3-0.2,0.4-0.5,0.4-0.8c0-0.3-0.2-0.6-0.6-0.7l-4.6-1.7c-0.2-0.1-0.4-0.3-0.5-0.5
				l-1.3-4.8l0,0c-0.1-0.3-0.3-0.6-0.7-0.6c-0.3-0.1-0.7,0-0.9,0.3l-3,3.9c-0.1,0.2-0.4,0.3-0.6,0.3l-4.9-0.3
				c-0.4,0-0.6,0.2-0.8,0.4c-0.2,0.3-0.1,0.6,0,0.9l2.8,4.1c0.1,0.2,0.2,0.5,0.1,0.7l-1.8,4.6c-0.1,0.3-0.1,0.7,0.2,0.9
				s0.6,0.3,0.9,0.2l4.8-1.4C194.4,645.1,194.5,645.1,194.6,645.1z"/>
		</g>
	</g>
	<g>
		<g>
			<path class="st12" d="M229.4,565.3l4.1,2.8l4.6-1.8c1.2-0.5,2.5,0.7,2.1,2l-1.4,4.7l3.1,3.8c0.8,1,0.1,2.6-1.2,2.6l-4.9,0.1
				l-2.7,4.2c-0.7,1.1-2.4,0.9-2.9-0.3l-1.6-4.7l-4.8-1.3c-1.3-0.3-1.6-2-0.6-2.8l3.9-3l-0.3-4.9
				C226.8,565.4,228.3,564.6,229.4,565.3z"/>
		</g>
		<g>
			<path class="st13" d="M241.9,576.9c0.8,1,0.1,2.6-1.2,2.6l-4.9,0.1l-2.7,4.2c-0.7,1.1-2.4,0.9-2.9-0.3l-0.5-1.5
				c0.7,0.3,1.6,0.2,2.1-0.6l2.7-4.2l4.9-0.1c0.9,0,1.5-0.7,1.6-1.5L241.9,576.9z"/>
		</g>
		<g class="st4">
			<path class="st5" d="M223.2,574.7l4.6-3.5l0.1,1.4l-3.8,2.9l-0.4-0.1c-0.3-0.1-0.5-0.2-0.7-0.4
				C223,574.9,223.1,574.8,223.2,574.7z"/>
		</g>
		<g class="st4">
			<path class="st5" d="M238.4,566.2c0.1,0.3,0.1,0.5,0,0.8l-0.2,0.8c-0.1,0-0.3,0-0.4,0.1l-4.6,1.8l-4.1-2.8
				c-0.8-0.5-1.8-0.3-2.2,0.4l0-0.6c-0.1-1.3,1.4-2.2,2.5-1.4l4.1,2.8l4.6-1.8C238.2,566.3,238.3,566.3,238.4,566.2z"/>
		</g>
		<g>
			<path class="st13" d="M229.3,578.9l-5.5-1.4c-1-0.3-1.5-1.4-1-2.3l5.8,1.5L229.3,578.9z"/>
		</g>
		<g>
			<path class="st13" d="M240.2,568.3l-1.7,5.4l-1.5-1.8l1.8-5.6C239.7,566.3,240.5,567.3,240.2,568.3z"/>
		</g>
		<g>
			<path class="st14" d="M231.7,584.6c-0.1,0-0.1,0-0.2,0c-0.6-0.1-1.2-0.5-1.4-1.1l-1.6-4.6l-4.7-1.3c-0.6-0.2-1.1-0.7-1.2-1.3
				c-0.1-0.6,0.1-1.3,0.6-1.7l3.9-3l-0.3-4.9c0-0.7,0.3-1.2,0.9-1.6c0.6-0.3,1.2-0.3,1.8,0.1l4,2.8l4.6-1.8c0.6-0.2,1.3-0.1,1.8,0.3
				s0.7,1.1,0.5,1.7l-1.4,4.7l3.1,3.8c0.4,0.5,0.5,1.2,0.2,1.8c-0.3,0.6-0.8,1-1.5,1l-4.9,0.1l-2.7,4.1
				C232.8,584.3,232.3,584.6,231.7,584.6z M228.4,565.1c-0.3,0-0.5,0.1-0.8,0.2c-0.5,0.3-0.8,0.8-0.8,1.4l0.3,5l0,0l-3.9,3
				c-0.5,0.4-0.7,0.9-0.6,1.5c0.1,0.6,0.5,1,1.1,1.2l4.8,1.3l0,0l1.7,4.7c0.2,0.5,0.7,0.9,1.3,1c0.6,0.1,1.1-0.2,1.5-0.7l2.7-4.2h0
				l4.9-0.1c0.6,0,1.1-0.3,1.4-0.9c0.2-0.5,0.2-1.1-0.2-1.6l-3.1-3.9l0,0l1.4-4.7c0.2-0.6,0-1.2-0.4-1.6c-0.4-0.4-1-0.5-1.6-0.3
				l-4.7,1.8l0,0l-4.1-2.8C229,565.2,228.7,565.1,228.4,565.1z"/>
		</g>
		<g>
			<path class="st14" d="M231.7,585.3c-0.1,0-0.2,0-0.3,0c-0.9-0.1-1.6-0.7-1.9-1.5l-1.5-4.3l-4.4-1.2c-0.9-0.2-1.5-0.9-1.7-1.8
				c-0.2-0.9,0.2-1.8,0.9-2.3l3.6-2.8l-0.2-4.5c0-0.9,0.4-1.7,1.2-2.2s1.7-0.4,2.5,0.1l0,0l3.8,2.6l4.3-1.6c0.8-0.3,1.8-0.1,2.4,0.5
				c0.7,0.6,0.9,1.5,0.7,2.4l-1.3,4.4l2.9,3.5c0.6,0.7,0.7,1.7,0.3,2.5c-0.4,0.8-1.2,1.3-2.1,1.4l-4.6,0.1l-2.5,3.8
				C233.2,584.9,232.5,585.3,231.7,585.3z M228.4,565.8c-0.1,0-0.3,0-0.4,0.1c-0.3,0.2-0.5,0.5-0.5,0.8l0.3,4.9
				c0,0.2-0.1,0.5-0.3,0.6l-3.9,3c-0.3,0.2-0.4,0.5-0.3,0.9c0.1,0.3,0.3,0.6,0.6,0.7l4.8,1.3c0.2,0.1,0.4,0.2,0.5,0.5l1.7,4.7
				c0.1,0.3,0.4,0.5,0.7,0.6c0.3,0,0.6-0.1,0.8-0.4l2.7-4.2c0.1-0.2,0.4-0.3,0.6-0.3l4.9-0.1c0.3,0,0.6-0.2,0.8-0.5
				c0.1-0.3,0.1-0.7-0.1-0.9l-3.1-3.8c-0.1-0.2-0.2-0.4-0.1-0.7l1.4-4.7c0.1-0.3,0-0.7-0.2-0.9c-0.2-0.2-0.6-0.3-0.9-0.2l-4.6,1.8
				c-0.2,0.1-0.5,0.1-0.7-0.1l-4.1-2.8C228.8,565.8,228.6,565.8,228.4,565.8z"/>
		</g>
	</g>
	<g>
		<g>
			<path class="st12" d="M262.8,670l4.1,2.8l4.6-1.8c1.2-0.5,2.5,0.7,2.1,2l-1.4,4.7l3.1,3.8c0.8,1,0.1,2.6-1.2,2.6l-4.9,0.1
				l-2.7,4.2c-0.7,1.1-2.4,0.9-2.9-0.3l-1.6-4.7l-4.8-1.3c-1.3-0.3-1.6-2-0.6-2.8l3.9-3l-0.3-4.9C260.2,670.1,261.7,669.3,262.8,670
				z"/>
		</g>
		<g>
			<path class="st13" d="M275.3,681.6c0.8,1,0.1,2.6-1.2,2.6l-4.9,0.1l-2.7,4.2c-0.7,1.1-2.4,0.9-2.9-0.3l-0.5-1.5
				c0.7,0.3,1.6,0.2,2.1-0.6l2.7-4.2l4.9-0.1c0.9,0,1.5-0.7,1.6-1.5L275.3,681.6z"/>
		</g>
		<g class="st4">
			<path class="st5" d="M256.6,679.4l4.6-3.5l0.1,1.4l-3.8,2.9l-0.4-0.1c-0.3-0.1-0.5-0.2-0.7-0.4
				C256.4,679.6,256.5,679.5,256.6,679.4z"/>
		</g>
		<g class="st4">
			<path class="st5" d="M271.8,670.9c0.1,0.3,0.1,0.5,0,0.8l-0.2,0.8c-0.1,0-0.3,0-0.4,0.1l-4.6,1.8l-4.1-2.8
				c-0.8-0.5-1.8-0.3-2.2,0.4l0-0.6c-0.1-1.3,1.4-2.2,2.5-1.4l4.1,2.8l4.6-1.8C271.6,671,271.7,671,271.8,670.9z"/>
		</g>
		<g>
			<path class="st13" d="M262.7,683.6l-5.5-1.4c-1-0.3-1.5-1.4-1-2.3l5.8,1.5L262.7,683.6z"/>
		</g>
		<g>
			<path class="st13" d="M273.6,673l-1.7,5.4l-1.5-1.8l1.8-5.6C273.1,671,273.9,672,273.6,673z"/>
		</g>
		<g>
			<path class="st14" d="M265.1,689.3c-0.1,0-0.1,0-0.2,0c-0.6-0.1-1.2-0.5-1.4-1.1l-1.6-4.6l-4.7-1.3c-0.6-0.2-1.1-0.7-1.2-1.3
				c-0.1-0.6,0.1-1.3,0.6-1.7l3.9-3l-0.3-4.9c0-0.7,0.3-1.2,0.9-1.6c0.6-0.3,1.2-0.3,1.8,0.1l4,2.8l4.6-1.8c0.6-0.2,1.3-0.1,1.8,0.3
				c0.5,0.4,0.7,1.1,0.5,1.7l-1.4,4.7l3.1,3.8c0.4,0.5,0.5,1.2,0.2,1.8c-0.3,0.6-0.8,1-1.5,1l-4.9,0.1l-2.7,4.1
				C266.2,689,265.7,689.3,265.1,689.3z M261.9,669.8c-0.3,0-0.5,0.1-0.8,0.2c-0.5,0.3-0.8,0.8-0.8,1.4l0.3,5l0,0l-3.9,3
				c-0.5,0.4-0.7,0.9-0.6,1.5c0.1,0.6,0.5,1,1.1,1.2l4.8,1.3l0,0l1.6,4.7c0.2,0.6,0.7,0.9,1.3,1c0.6,0.1,1.1-0.2,1.5-0.7l2.7-4.2h0
				l4.9-0.1c0.6,0,1.1-0.3,1.4-0.9c0.2-0.5,0.2-1.1-0.2-1.6l-3.1-3.9l0,0l1.4-4.7c0.2-0.6,0-1.2-0.4-1.6c-0.4-0.4-1-0.5-1.6-0.3
				l-4.7,1.8l0,0l-4.1-2.8C262.5,669.9,262.2,669.8,261.9,669.8z"/>
		</g>
		<g>
			<path class="st14" d="M265.1,690c-0.1,0-0.2,0-0.3,0c-0.9-0.1-1.6-0.7-1.9-1.5l-1.5-4.3l-4.4-1.2c-0.9-0.2-1.5-0.9-1.7-1.8
				c-0.2-0.9,0.2-1.8,0.9-2.3l3.6-2.8l-0.2-4.5c0-0.9,0.4-1.7,1.2-2.2s1.7-0.4,2.5,0.1l0,0l3.8,2.6l4.3-1.6c0.8-0.3,1.8-0.1,2.4,0.5
				c0.7,0.6,0.9,1.5,0.7,2.4l-1.3,4.4l2.9,3.5c0.6,0.7,0.7,1.6,0.3,2.5s-1.2,1.3-2.1,1.4l-4.6,0.1l-2.5,3.8
				C266.6,689.6,265.9,690,265.1,690z M261.9,670.5c-0.1,0-0.3,0-0.4,0.1c-0.3,0.2-0.5,0.5-0.5,0.8l0.3,4.9c0,0.2-0.1,0.5-0.3,0.6
				l-3.9,3c-0.3,0.2-0.4,0.5-0.3,0.9c0.1,0.3,0.3,0.6,0.6,0.7l4.8,1.3c0.2,0.1,0.4,0.2,0.5,0.5l1.6,4.7c0.1,0.3,0.4,0.5,0.7,0.6
				c0.3,0,0.6-0.1,0.8-0.4l2.7-4.2c0.1-0.2,0.4-0.3,0.6-0.3l4.9-0.1c0.3,0,0.6-0.2,0.8-0.5c0.1-0.3,0.1-0.7-0.1-0.9l-3.1-3.8
				c-0.1-0.2-0.2-0.4-0.1-0.7l1.4-4.7c0.1-0.3,0-0.7-0.2-0.9s-0.6-0.3-0.9-0.2l-4.6,1.8c-0.2,0.1-0.5,0.1-0.7-0.1l-4.1-2.8
				C262.2,670.5,262,670.5,261.9,670.5z"/>
		</g>
	</g>
	<g>
		<g>
			<path class="st12" d="M613.5,596.8l4.1,2.8l4.6-1.8c1.2-0.5,2.5,0.7,2.1,2l-1.4,4.7l3.1,3.8c0.8,1,0.1,2.6-1.2,2.6l-4.9,0.1
				l-2.7,4.2c-0.7,1.1-2.4,0.9-2.9-0.3l-1.7-4.7l-4.8-1.3c-1.3-0.3-1.6-2-0.6-2.8l3.9-3l-0.3-4.9C610.9,596.9,612.4,596,613.5,596.8
				z"/>
		</g>
		<g>
			<path class="st13" d="M626,608.4c0.8,1,0.1,2.6-1.2,2.6l-4.9,0.1l-2.7,4.2c-0.7,1.1-2.4,0.9-2.9-0.3l-0.5-1.5
				c0.7,0.3,1.6,0.2,2.1-0.6l2.7-4.2l4.9-0.1c0.9,0,1.5-0.7,1.6-1.5L626,608.4z"/>
		</g>
		<g class="st4">
			<path class="st5" d="M607.3,606.1l4.6-3.5l0.1,1.4l-3.8,2.9l-0.4-0.1c-0.3-0.1-0.5-0.2-0.7-0.4
				C607.1,606.3,607.2,606.2,607.3,606.1z"/>
		</g>
		<g class="st4">
			<path class="st5" d="M622.5,597.7c0.1,0.3,0.1,0.5,0,0.8l-0.2,0.8c-0.1,0-0.3,0-0.4,0.1l-4.6,1.8l-4.1-2.8
				c-0.8-0.5-1.8-0.3-2.2,0.4l0-0.6c-0.1-1.3,1.4-2.2,2.5-1.4l4.1,2.8l4.6-1.8C622.3,597.8,622.4,597.7,622.5,597.7z"/>
		</g>
		<g>
			<path class="st13" d="M613.4,610.4l-5.5-1.4c-1-0.3-1.5-1.4-1-2.3l5.8,1.5L613.4,610.4z"/>
		</g>
		<g>
			<path class="st13" d="M624.3,599.8l-1.7,5.4l-1.5-1.8l1.8-5.6C623.8,597.8,624.6,598.7,624.3,599.8z"/>
		</g>
		<g>
			<path class="st14" d="M615.8,616.1c-0.1,0-0.1,0-0.2,0c-0.7-0.1-1.2-0.5-1.4-1.1l-1.6-4.6l-4.7-1.3c-0.6-0.2-1.1-0.7-1.2-1.3
				c-0.1-0.6,0.1-1.3,0.6-1.7l3.9-3l-0.3-4.9c0-0.7,0.3-1.2,0.9-1.6c0.6-0.3,1.2-0.3,1.8,0.1l4,2.8l4.6-1.8c0.6-0.2,1.3-0.1,1.8,0.3
				s0.7,1.1,0.5,1.7l-1.4,4.7l3.1,3.8c0.4,0.5,0.5,1.2,0.2,1.8c-0.3,0.6-0.8,1-1.5,1l-4.9,0.1l-2.7,4.1
				C616.9,615.8,616.4,616.1,615.8,616.1z M612.6,596.6c-0.3,0-0.5,0.1-0.8,0.2c-0.5,0.3-0.8,0.8-0.8,1.4l0.3,5l0,0l-3.9,3
				c-0.5,0.4-0.7,0.9-0.6,1.5c0.1,0.6,0.5,1,1.1,1.2l4.8,1.3l0,0l1.7,4.7c0.2,0.5,0.7,0.9,1.3,1c0.6,0.1,1.1-0.2,1.5-0.7l2.7-4.2h0
				l4.9-0.1c0.6,0,1.1-0.3,1.3-0.9c0.2-0.5,0.2-1.2-0.2-1.6l-3.1-3.9l0,0l1.4-4.7c0.2-0.6,0-1.2-0.4-1.6c-0.4-0.4-1-0.5-1.6-0.3
				l-4.7,1.8l0,0l-4.1-2.8C613.2,596.7,612.9,596.6,612.6,596.6z"/>
		</g>
		<g>
			<path class="st14" d="M615.8,616.7c-0.1,0-0.2,0-0.3,0c-0.9-0.1-1.6-0.7-1.9-1.5l-1.5-4.3l-4.4-1.2c-0.9-0.2-1.5-0.9-1.7-1.8
				s0.2-1.8,0.9-2.3l3.6-2.8l-0.2-4.5c0-0.9,0.4-1.7,1.2-2.2c0.8-0.4,1.7-0.4,2.5,0.1l0,0l3.8,2.6l4.2-1.6c0.8-0.3,1.8-0.1,2.4,0.5
				s0.9,1.5,0.7,2.4l-1.3,4.4l2.9,3.5c0.6,0.7,0.7,1.7,0.3,2.5c-0.4,0.8-1.2,1.3-2.1,1.4l-4.6,0.1l-2.5,3.8
				C617.3,616.3,616.6,616.7,615.8,616.7z M612.6,597.2c-0.2,0-0.3,0-0.4,0.1c-0.3,0.2-0.5,0.5-0.5,0.8l0.3,4.9
				c0,0.2-0.1,0.5-0.3,0.6l-3.9,3c-0.3,0.2-0.4,0.5-0.3,0.9c0.1,0.3,0.3,0.6,0.6,0.7l4.8,1.3c0.2,0.1,0.4,0.2,0.5,0.5l1.7,4.7
				c0.1,0.3,0.4,0.5,0.7,0.6c0.3,0,0.7-0.1,0.8-0.4l2.7-4.2c0.1-0.2,0.4-0.3,0.6-0.3l4.9-0.1c0.3,0,0.6-0.2,0.8-0.5s0.1-0.7-0.1-0.9
				l-3.1-3.8c-0.2-0.2-0.2-0.4-0.1-0.7l1.4-4.7c0.1-0.3,0-0.7-0.2-0.9c-0.2-0.2-0.6-0.3-0.9-0.2l-4.6,1.8c-0.2,0.1-0.5,0-0.7-0.1
				l-4.1-2.8C612.9,597.3,612.7,597.2,612.6,597.2z"/>
		</g>
	</g>
	<g>
		<g>
			<path class="st12" d="M551.4,759.8l1,4.8l4.5,2c1.2,0.5,1.3,2.2,0.2,2.9l-4.3,2.4l-0.5,4.9c-0.1,1.3-1.7,1.9-2.7,1l-3.6-3.4
				l-4.8,1.1c-1.3,0.3-2.4-1-1.8-2.2l2.1-4.5l-2.5-4.2c-0.7-1.2,0.2-2.6,1.6-2.4l4.9,0.6l3.3-3.7C549.5,758,551.2,758.5,551.4,759.8
				z"/>
		</g>
		<g>
			<path class="st13" d="M552.3,776.8c-0.1,1.3-1.7,1.9-2.7,1l-3.6-3.4l-4.8,1.1c-1.3,0.3-2.4-1-1.8-2.2l0.6-1.4
				c0.3,0.7,1,1.2,1.9,1l4.8-1.1l3.6,3.4c0.7,0.6,1.6,0.5,2.1,0L552.3,776.8z"/>
		</g>
		<g class="st4">
			<path class="st5" d="M540.4,762.2l5.7,0.7l-0.9,1l-4.8-0.6l-0.2-0.3c-0.2-0.3-0.2-0.5-0.2-0.8
				C540.2,762.1,540.3,762.1,540.4,762.2z"/>
		</g>
		<g class="st4">
			<path class="st5" d="M557.3,766.8c-0.1,0.2-0.3,0.5-0.6,0.6l-0.7,0.4c-0.1-0.1-0.2-0.2-0.3-0.2l-4.5-2l-1-4.8
				c-0.2-0.9-1.1-1.4-1.9-1.3l0.4-0.5c0.9-1,2.5-0.6,2.8,0.8l1,4.8l4.5,2C557,766.6,557.2,766.7,557.3,766.8z"/>
		</g>
		<g>
			<path class="st13" d="M541.8,769.5l-3-4.9c-0.5-0.9,0-2,0.9-2.3l3.1,5.1L541.8,769.5z"/>
		</g>
		<g>
			<path class="st13" d="M557.1,769.5l-5,2.7l0.2-2.3l5.2-2.8C558.1,767.7,558,768.9,557.1,769.5z"/>
		</g>
		<g>
			<path class="st14" d="M550.7,778.4c-0.4,0-0.8-0.2-1.2-0.5l-3.6-3.3l-4.8,1.1c-0.6,0.2-1.3-0.1-1.7-0.6s-0.5-1.2-0.2-1.8l2-4.5
				l-2.5-4.2c-0.3-0.6-0.3-1.2,0-1.8c0.3-0.5,1-0.8,1.6-0.8l4.9,0.6l3.2-3.7c0.4-0.5,1.1-0.7,1.7-0.5c0.6,0.2,1.1,0.7,1.2,1.3l1,4.8
				l4.5,1.9c0.6,0.3,1,0.8,1,1.5c0,0.7-0.3,1.2-0.9,1.6l-4.3,2.4l-0.5,4.9c-0.1,0.7-0.5,1.2-1.1,1.4
				C551.1,778.3,550.9,778.4,550.7,778.4z M546,774.4L546,774.4l3.7,3.4c0.4,0.4,1,0.5,1.6,0.3c0.6-0.2,0.9-0.7,1-1.3l0.5-5l0,0
				l4.3-2.4c0.5-0.3,0.8-0.8,0.8-1.4c0-0.6-0.4-1.1-0.9-1.3l-4.6-2l0,0l-1-4.8c-0.1-0.6-0.5-1-1.1-1.2c-0.6-0.2-1.2,0-1.5,0.5
				l-3.3,3.8l0,0l-4.9-0.6c-0.6-0.1-1.1,0.2-1.5,0.7s-0.3,1.1,0,1.6l2.5,4.3l0,0l-2.1,4.5c-0.2,0.5-0.2,1.1,0.2,1.6
				c0.4,0.5,1,0.7,1.5,0.5L546,774.4z"/>
		</g>
		<g>
			<path class="st14" d="M550.7,779c-0.6,0-1.1-0.2-1.6-0.6l-3.3-3.1l-4.5,1c-0.9,0.2-1.8-0.1-2.3-0.8c-0.6-0.7-0.7-1.6-0.3-2.5
				l1.9-4.1l-2.3-3.9c-0.5-0.8-0.4-1.7,0-2.5s1.3-1.2,2.2-1.1l4.5,0.5l3-3.4c0.6-0.7,1.5-1,2.4-0.7c0.9,0.2,1.5,0.9,1.7,1.8l0.9,4.5
				l4.2,1.8c0.8,0.4,1.4,1.1,1.4,2c0,0.9-0.4,1.7-1.2,2.2l-4,2.2l-0.4,4.5c-0.1,0.9-0.7,1.7-1.5,2C551.3,779,551,779,550.7,779z
				 M546,773.7c0.2,0,0.4,0.1,0.5,0.2l3.6,3.4c0.2,0.2,0.6,0.3,0.9,0.2c0.3-0.1,0.5-0.4,0.6-0.7l0.5-4.9c0-0.2,0.2-0.5,0.4-0.6
				l4.3-2.4c0.3-0.2,0.5-0.5,0.5-0.8c0-0.3-0.2-0.6-0.5-0.8l-4.5-2c-0.2-0.1-0.4-0.3-0.4-0.5l-1-4.8l0,0c-0.1-0.3-0.3-0.6-0.6-0.7
				s-0.7,0-0.9,0.3l-3.3,3.7c-0.2,0.2-0.4,0.3-0.6,0.2l-4.9-0.6c-0.3,0-0.7,0.1-0.8,0.4c-0.2,0.3-0.2,0.6,0,0.9l2.5,4.2
				c0.1,0.2,0.1,0.5,0,0.7l-2.1,4.5c-0.1,0.3-0.1,0.7,0.1,0.9c0.2,0.3,0.5,0.4,0.9,0.3l4.8-1.1C545.9,773.8,545.9,773.7,546,773.7z"
				/>
		</g>
	</g>
	<g>
		<g>
			<path class="st12" d="M194.6,719.2l0.8,4.9l4.5,2.1c1.2,0.6,1.2,2.3,0,2.9l-4.4,2.2l-0.6,4.9c-0.2,1.3-1.8,1.9-2.7,0.9l-3.5-3.5
				l-4.9,0.9c-1.3,0.2-2.3-1.1-1.7-2.3l2.2-4.4l-2.4-4.3c-0.6-1.2,0.4-2.6,1.7-2.4l4.9,0.8l3.4-3.6
				C192.7,717.4,194.4,717.9,194.6,719.2z"/>
		</g>
		<g>
			<path class="st13" d="M194.8,736.3c-0.2,1.3-1.8,1.9-2.7,0.9l-3.5-3.5l-4.9,0.9c-1.3,0.2-2.3-1.1-1.7-2.3l0.7-1.4
				c0.2,0.7,1,1.3,1.8,1.1l4.9-0.9l3.5,3.5c0.6,0.6,1.5,0.6,2.1,0.1L194.8,736.3z"/>
		</g>
		<g class="st4">
			<path class="st5" d="M183.5,721.2l5.7,0.9l-1,1l-4.7-0.8l-0.2-0.3c-0.1-0.3-0.2-0.5-0.2-0.8C183.3,721.2,183.4,721.2,183.5,721.2
				z"/>
		</g>
		<g class="st4">
			<path class="st5" d="M200.1,726.5c-0.1,0.2-0.3,0.4-0.6,0.6l-0.7,0.4c-0.1-0.1-0.2-0.2-0.3-0.2l-4.5-2.1l-0.8-4.9
				c-0.1-0.9-1-1.5-1.9-1.3l0.4-0.5c0.9-1,2.6-0.5,2.8,0.9l0.8,4.9l4.5,2.1C199.9,726.3,200,726.4,200.1,726.5z"/>
		</g>
		<g>
			<path class="st13" d="M184.6,728.6l-2.8-5c-0.5-1,0-2,0.9-2.3l2.9,5.2L184.6,728.6z"/>
		</g>
		<g>
			<path class="st13" d="M199.8,729.1l-5.1,2.5l0.3-2.3l5.3-2.6C201,727.5,200.8,728.7,199.8,729.1z"/>
		</g>
		<g>
			<path class="st14" d="M193.2,737.8c-0.4,0-0.9-0.2-1.2-0.5l-3.5-3.5l-4.8,0.9c-0.6,0.1-1.3-0.1-1.7-0.7s-0.4-1.2-0.1-1.8l2.2-4.4
				l-2.3-4.3c-0.3-0.6-0.3-1.2,0.1-1.8c0.4-0.5,1-0.8,1.6-0.7l4.8,0.8l3.4-3.5c0.4-0.5,1.1-0.6,1.7-0.5s1.1,0.7,1.2,1.4l0.8,4.8
				l4.4,2.1c0.6,0.3,1,0.9,1,1.5c0,0.7-0.4,1.2-0.9,1.5l-4.4,2.2l-0.6,4.9c-0.1,0.6-0.5,1.2-1.1,1.4
				C193.6,737.7,193.4,737.8,193.2,737.8z M188.6,733.6L188.6,733.6l3.5,3.5c0.4,0.4,1,0.6,1.6,0.4c0.6-0.2,0.9-0.7,1-1.2l0.7-4.9
				l0,0l4.4-2.2c0.5-0.3,0.8-0.8,0.8-1.4c0-0.6-0.3-1.1-0.9-1.4l-4.5-2.2l0,0l-0.8-4.9c-0.1-0.6-0.5-1-1.1-1.2
				c-0.6-0.2-1.1,0-1.6,0.4l-3.4,3.6l0,0l-4.9-0.8c-0.6-0.1-1.1,0.1-1.5,0.6c-0.3,0.5-0.4,1.1-0.1,1.6l2.4,4.4l0,0l-2.2,4.4
				c-0.3,0.5-0.2,1.1,0.1,1.6c0.4,0.5,0.9,0.7,1.5,0.6L188.6,733.6z"/>
		</g>
		<g>
			<path class="st14" d="M193.2,738.4c-0.6,0-1.2-0.2-1.7-0.7l-3.2-3.2l-4.5,0.8c-0.9,0.2-1.8-0.2-2.3-0.9c-0.5-0.7-0.6-1.7-0.2-2.5
				l2.1-4.1l-2.2-4c-0.4-0.8-0.4-1.7,0.1-2.5c0.5-0.7,1.4-1.1,2.3-1l4.5,0.7l3.1-3.3c0.6-0.7,1.5-0.9,2.4-0.6s1.5,1,1.6,1.9l0,0
				l0.7,4.5l4.1,2c0.8,0.4,1.3,1.2,1.3,2.1c0,0.9-0.5,1.7-1.3,2.1l-4.1,2.1l-0.6,4.5c-0.1,0.9-0.7,1.6-1.6,1.9
				C193.7,738.4,193.4,738.4,193.2,738.4z M188.6,733c0.2,0,0.4,0.1,0.5,0.2l3.5,3.5c0.2,0.2,0.6,0.3,0.9,0.2
				c0.3-0.1,0.5-0.4,0.6-0.7l0.6-4.9c0-0.2,0.2-0.5,0.4-0.6l4.4-2.2c0.3-0.2,0.5-0.5,0.5-0.8c0-0.3-0.2-0.6-0.5-0.8l-4.5-2.1
				c-0.2-0.1-0.4-0.3-0.4-0.5l-0.8-4.9c-0.1-0.3-0.3-0.6-0.6-0.7c-0.3-0.1-0.7,0-0.9,0.2l-3.4,3.6c-0.2,0.2-0.4,0.3-0.6,0.2
				l-4.9-0.8c-0.3,0-0.7,0.1-0.9,0.4c-0.2,0.3-0.2,0.6-0.1,0.9l2.4,4.3c0.1,0.2,0.1,0.5,0,0.7l-2.2,4.4c-0.2,0.3-0.1,0.7,0.1,0.9
				c0.2,0.3,0.5,0.4,0.9,0.3l4.9-0.9C188.5,733,188.5,733,188.6,733z"/>
		</g>
	</g>
	<g>
		<circle class="st15" cx="250.9" cy="632.3" r="4.4"/>
	</g>
	<g>
		
			<ellipse transform="matrix(0.2298 -0.9732 0.9732 0.2298 -396.1982 717.6641)" class="st5" cx="255.3" cy="609.2" rx="2.2" ry="2.2"/>
	</g>
	<g>
		<circle class="st15" cx="187.9" cy="597.2" r="3.3"/>
	</g>
	<g>
		<path class="st5" d="M164.7,653.1c0,1.2-0.9,2.1-2.1,2.1c-1.1,0-2.1-0.9-2.1-2.1s0.9-2.1,2.1-2.1S164.7,651.9,164.7,653.1z"/>
	</g>
	<g>
		<circle class="st5" cx="232.7" cy="701.6" r="2.3"/>
	</g>
	<g>
		<circle class="st15" cx="253.2" cy="746.6" r="3.9"/>
	</g>
	<g>
		
			<ellipse transform="matrix(0.1602 -0.9871 0.9871 0.1602 -608.3285 816.73)" class="st5" cx="175.8" cy="765.9" rx="2.5" ry="2.5"/>
	</g>
	<g>
		<circle class="st5" cx="497.5" cy="771.9" r="3.2"/>
	</g>
	<g>
		<ellipse class="st5" cx="492.2" cy="728.6" rx="3.1" ry="3.1"/>
	</g>
	<g>
		<ellipse class="st5" cx="344.5" cy="787.1" rx="2.4" ry="2.4"/>
	</g>
	<g>
		<ellipse class="st15" cx="615.6" cy="742.8" rx="6.7" ry="6.7"/>
	</g>
	<g>
		<ellipse class="st15" cx="624.4" cy="660" rx="4.4" ry="4.4"/>
	</g>
	<g>
		<circle class="st5" cx="626.4" cy="574.8" r="5.3"/>
	</g>
</g>
</svg>
