<?xml version="1.0" encoding="utf-8"?>
<!-- Generator: Adobe Illustrator 25.0.0, SVG Export Plug-In . SVG Version: 6.00 Build 0)  -->
<svg version="1.1" id="Layer_1" xmlns="http://www.w3.org/2000/svg" xmlns:xlink="http://www.w3.org/1999/xlink" x="0px" y="0px"
	 viewBox="0 0 1000 1000" style="enable-background:new 0 0 1000 1000;" xml:space="preserve">
<style type="text/css">
	.st0{fill:#FFFFFF;}
	.st1{fill:#371A45;}
	.st2{opacity:0.25;}
	.st3{opacity:0.7;}
	.st4{fill:#111A28;}
	.st5{opacity:0.5;}
	.st6{fill:#F8F8F8;}
	.st7{fill:#EA2A2A;}
	.st8{opacity:0.6;}
	.st9{fill:#C99335;}
	.st10{fill:#73C61A;}
	.st11{fill:#FBB987;}
	.st12{fill:#F244A8;}
	.st13{fill:#FFB839;}
	.st14{fill:#FFA64D;}
	.st15{fill:#10AFFF;}
</style>
<g>
	<g>
		<path class="st0" d="M330.5,217.5c0,0-37.4,52.4-10.4,125c26.9,72.5-18.7,127.9-18.7,127.9s-20.2,88.8,53.4,136s69.8-132.7,65-161
			s-56.2-185.2-56.2-185.2"/>
	</g>
	<g>
		<path class="st1" d="M377.2,619.5c-7.8,0-16.2-2.9-25.3-8.8c-31.4-20.2-51.1-51.1-56.6-89.3c-4.2-28.8,0.8-51.2,1-52.2
			c0.2-0.8,0.6-1.6,1.1-2.2c0.4-0.6,43.3-54,17.8-122.7c-27.5-74.3,9.6-127.6,11.1-129.9l8.6,6.1l-4.2-3l4.2,3
			c-0.3,0.4-35.4,51.2-9.9,120.2c14.4,38.9,8.4,73,0.8,94.6c-7.1,20.1-16.7,33.5-19.5,37.2c-0.9,4.7-4.1,24.2-0.6,47.7
			c5.3,35.5,22.8,63,52,81.8c12.3,7.9,22.2,9.1,30.4,3.8c32-21.1,30.7-135,26.5-159.4c-4.7-27.4-55.4-182.8-56-184.5l10-3.2
			c2.1,6.4,51.7,157.7,56.3,185.9c3.9,22.8,8,144.1-31.1,169.8C388.7,617.8,383.2,619.5,377.2,619.5z"/>
	</g>
	<g>
		<g>
			<path class="st0" d="M598,418.7c0,87.5-71,158.5-158.5,158.5c-54.7,0-102.7-27.7-131.3-69.6c-17.2-25.3-27.2-56-27.2-88.9
				c0-59.3,32.5-111,80.6-138.2c23-13,49.5-20.4,77.9-20.4C527.1,260.2,598,331.2,598,418.7z"/>
		</g>
		<g class="st2">
			<path class="st1" d="M598,418.7c0,86.8-69.8,157.3-156.2,158.5c66.2-19.1,114.5-80.1,114.5-152.4c0-87.5-71-158.5-158.5-158.5
				c-0.8,0-1.4,0-2.2,0c13.9-4,28.7-6.1,43.9-6.1C527.1,260.2,598,331.2,598,418.7z"/>
		</g>
		<g>
			<path class="st1" d="M555,445.4c-19.4,118-190.5,125.1-246.8,62.2c-17.2-25.3-27.2-56-27.2-88.9c0-59.3,32.5-111,80.6-138.2
				C461.1,257.7,587,307.1,555,445.4z"/>
		</g>
		<g class="st3">
			<path class="st4" d="M555,445.4c-19.4,118-195.6,112.4-246.8,62.2c-13.3-19.5-22.3-42.2-25.7-66.8c25.4,25.8,62,42,102.6,42
				c76.9,0,139.2-58,139.2-129.5c0-15.9-3.1-31-8.7-45C550.6,335.9,569.9,381,555,445.4z"/>
		</g>
		<g>
			<path class="st1" d="M411.5,552.6c-13.8,0-27.4-1.4-40.4-4.3c-29-6.6-52.7-20-66.5-37.9l7.1-5.6c25.9,33.3,88.2,47.7,144.8,33.2
				c52.2-13.2,86.5-47.3,94.1-93.4c0-0.1,0-0.2,0-0.2c11.8-51,2.2-93.5-27.4-123.3C487.6,285.5,423.1,271,362.6,285l-2-8.8
				c30.2-7,61.8-7.3,91.3-1.1c31.4,6.6,58.2,20.3,77.6,39.7c22.3,22.3,45.5,63.2,29.9,131.5c-8.2,49.7-45,86.3-100.7,100.5
				C443.5,550.6,427.5,552.6,411.5,552.6z"/>
		</g>
		<g>
			<path class="st1" d="M439.5,582.5c-54.4,0-105.1-26.9-135.6-72c-18.4-27.1-28.2-58.9-28.2-91.8c0-59,32-113.6,83.3-142.7
				c24.4-13.8,52.2-21.1,80.4-21.1c90.3,0,163.7,73.4,163.7,163.7S529.8,582.5,439.5,582.5z M439.5,265.4
				c-26.4,0-52.4,6.8-75.3,19.8c-48.1,27.2-78,78.3-78,133.5c0,30.9,9.1,60.5,26.3,86c28.7,42.2,76.1,67.4,127,67.4
				c84.5,0,153.3-68.8,153.3-153.3S524.1,265.4,439.5,265.4z"/>
		</g>
		<g>
			<path class="st1" d="M421,566.5c-25.4,0-51-4.8-75-14.3l3.3-8.3c49.2,19.7,106,18.1,151.6-4.3c28.4-13.9,48.9-34.4,54.8-54.8
				l8.7,2.4c-6.6,22.8-28.8,45.3-59.4,60.3C479.3,560.1,450.3,566.5,421,566.5z"/>
		</g>
		<g class="st5">
			<path class="st6" d="M316.2,408.3c10-73.1,33.1-132,137.6-101.7C394.7,310.9,351.9,351.5,316.2,408.3z"/>
		</g>
		<g class="st5">
			<path class="st6" d="M497.1,439.4c-5.2,8.9-13.4,21.5-23.9,33.9c-3.3,4-3.1,10,0.8,13.7l0,0c3.8,3.7,9.8,3.8,13.7,0.2
				c12-11,21.4-23.8,27.5-38.8c1.4-3.6,0.7-7.8-2-10.6l-0.2-0.2C508.3,432.7,500.4,433.6,497.1,439.4z"/>
		</g>
		<g class="st5">
			<ellipse class="st6" cx="433.2" cy="498.2" rx="13.4" ry="10"/>
		</g>
		<g>
			<ellipse class="st0" cx="576" cy="418.2" rx="44.8" ry="47.9"/>
		</g>
		<g class="st2">
			<path class="st1" d="M620.7,418.3c0,26.4-20,47.9-44.7,47.9c-12,0-22.8-5-30.9-13.2c19.7-5,34.3-24,34.3-46.5
				c0-13.7-5.3-26-13.9-34.7c3.3-0.9,6.8-1.3,10.3-1.3C600.7,370.4,620.7,391.7,620.7,418.3z"/>
		</g>
		<g>
			<path class="st1" d="M576,470.6c-27.1,0-49.2-23.4-49.2-52.3c0-28.9,22.1-52.3,49.2-52.3c27.1,0,49.2,23.4,49.2,52.3
				C625.3,447.2,603.1,470.6,576,470.6z M576,374.9c-22.2,0-40.2,19.4-40.2,43.3c0,23.9,18,43.3,40.2,43.3
				c22.2,0,40.2-19.4,40.2-43.3C616.3,394.3,598.1,374.9,576,374.9z"/>
		</g>
		<g>
			<path class="st1" d="M579.5,449.5c-16.7,0-30.3-14.8-30.3-32.9c0-18.1,13.6-32.9,30.3-32.9c16.7,0,30.3,14.8,30.3,32.9
				C609.8,434.7,596.3,449.5,579.5,449.5z M579.5,392c-12.1,0-22,11.1-22,24.7c0,13.6,9.9,24.7,22,24.7s22-11.1,22-24.7
				C601.6,403,591.7,392,579.5,392z"/>
		</g>
	</g>
	<g>
		<path class="st7" d="M666.2,187c-3.2,121.2-99.6,171.5-191.7,162.4l0,0c-88-8.7-171.9-71.4-166.3-178.2
			c0.9-16.6,11.3-31.1,26.9-37.1c78.5-30.5,296.9-15.1,327.7,41.4C664.7,179.4,665.9,183.1,666.2,187z"/>
	</g>
	<g class="st8">
		<path class="st0" d="M594.1,323.6c-107,67.3-294.2,5.4-286-152.2c0.9-16.2,11-30.7,26.1-36.8c-9.4,7.4-15.6,18.7-16.2,31
			C310.1,318.7,486,381.3,594.1,323.6z"/>
	</g>
	<g>
		<path class="st0" d="M308,183.7c38.3,73.1,299.6,91.6,355.2,31.7l-8.1,33.1c-53.3,46.4-263.5,47.7-343.3-31"/>
	</g>
	<g>
		<path class="st9" d="M638.4,197.9c0,0-3-12.7-38.1-21.9c7.4,9.2,13,18.9,14.7,29.3L638.4,197.9z"/>
	</g>
	<g>
		<path class="st1" d="M495.6,354.6c-4.1,0-8.3-0.1-12.6-0.3c-36.8-2.1-72-13.2-101.5-32c-53.3-34-80.9-87.6-77.5-151.2
			c1-18.2,12.6-34.2,29.4-40.8c33.1-12.9,93.2-18.3,157-14.4c66.4,4.1,124,17.8,154,36.4c16.1,10,24.9,21.5,26,34.3
			c0,0.1,0,0.3,0,0.4c-1.8,66.1-31.8,118-84.4,146C559.4,347.3,528.3,354.6,495.6,354.6z M450.3,123.2c-45.8,0-88.1,5-113.7,14.9
			c-13.9,5.4-23.4,18.6-24.2,33.4c-3.2,60.4,23,111.4,73.6,143.7c58.8,37.4,137.5,41.7,196.2,10.6c49.9-26.5,78.3-75.8,80-138.6
			c-1-9.9-8.3-19.2-22.1-27.8C601.3,135.3,521.5,123.2,450.3,123.2z"/>
	</g>
	<g>
		<polyline class="st10" points="464.1,137.4 468.4,99 509.6,107.4 501.8,146.3 519.7,118.5 554.8,128.5 537.3,159.3 		"/>
	</g>
	<g class="st8">
		<polygon class="st0" points="506.8,115.6 467.2,107.5 463.9,137.6 463,137.4 467.2,99 508.4,107.4 		"/>
	</g>
	<g class="st8">
		<polygon class="st0" points="553.7,128.4 549.5,135.8 518.5,126.9 504,149.7 501.8,149 503.2,142.5 518.5,118.5 		"/>
	</g>
	<g>
		<path class="st1" d="M537.3,162.7c-0.6,0-1.1-0.1-1.7-0.4c-1.7-1-2.2-3-1.3-4.7l15.4-27l-28.4-8.1l-16.6,25.7
			c-0.9,1.3-2.7,2-4.2,1.3s-2.4-2.2-2.1-3.9l7.1-35.5l-34.2-7l-3.8,34.5c-0.2,1.9-1.9,3.2-3.8,3c-1.9-0.2-3.2-1.9-3-3.8l4.2-38.3
			c0.1-1,0.6-1.8,1.3-2.4c0.8-0.6,1.8-0.8,2.7-0.6l41.2,8.4c1.9,0.3,3.1,2.2,2.7,4l-4.2,21l8-12.6c0.8-1.2,2.3-1.9,3.9-1.4l35.1,10
			c1,0.3,1.9,1,2.2,2c0.4,1,0.3,2.1-0.2,3l-17.6,30.9C539.6,162.1,538.5,162.7,537.3,162.7z"/>
	</g>
	<g>
		<path class="st0" d="M476.2,165.9c-34.2,14-68.4,27.9-90-6c-3.9-33.3-0.1-59,20.3-65.1C427.4,89.6,466.1,120.8,476.2,165.9z"/>
	</g>
	<g>
		<path class="st11" d="M669.8,23.8L669.8,23.8c6.9,4.3,9,13.4,4.7,20.4l-105,166.6l-10.4-6.8l89.9-174.5
			C652.8,21.9,662.5,19.2,669.8,23.8z"/>
	</g>
	<g class="st8">
		<path class="st0" d="M673.1,26.7c-6.3-1.3-13,1.7-16.1,7.7l-89.9,174.5l2.4,1.6l-0.2,0.3l-10.4-6.8l89.9-174.5
			c4-7.7,13.7-10.3,21-5.8C671.1,24.6,672.2,25.6,673.1,26.7z"/>
	</g>
	<g>
		<path class="st1" d="M568.6,213.2c-1.1,0-2.3-0.3-3.3-1l-8.1-5.2c-1.4-1-2-2.9-1.2-4.4l89.9-174.5c2.3-4.6,6.4-7.9,11.4-9.2
			c5-1.3,10.2-0.6,14.6,2.1l0,0c4.1,2.6,7,6.7,8.1,11.3c1.1,4.8,0.2,9.7-2.3,13.8L574,210.3c-0.9,1.4-2.2,2.3-3.9,2.7
			C569.5,213.2,569,213.2,568.6,213.2z M563.5,202.9l4.9,3.2L671.6,42.5c1.7-2.6,2.1-5.7,1.4-8.6c-0.7-3-2.4-5.4-5-7.1l0,0
			c-2.8-1.7-5.9-2.2-9-1.3s-5.7,2.9-7.1,5.8L563.5,202.9z"/>
	</g>
	<g>
		<path class="st1" d="M653.4,72.3c-10.9,0-18.2-9.7-20.9-15.9c-0.8-1.8,0-3.8,1.8-4.6c1.8-0.8,3.8,0.1,4.6,1.8
			c0.3,0.7,7,15.6,19.7,10.7c1.8-0.7,3.8,0.2,4.4,2c0.7,1.8-0.2,3.8-2,4.4C658.4,71.7,655.8,72.3,653.4,72.3z"/>
	</g>
	<g>
		<path class="st1" d="M644,87.3c-4,0-7.6-1-10.6-3c-7.2-4.7-8.8-13.2-8.9-13.6c-0.3-1.9,0.9-3.7,2.8-4c1.9-0.3,3.7,0.9,4,2.8
			c0,0.1,1.2,6,5.9,9.1c3.1,2,7.1,2.3,12,1.2c1.9-0.4,3.7,0.7,4.1,2.6c0.4,1.9-0.7,3.7-2.6,4.1C648.4,86.9,646.1,87.3,644,87.3z"/>
	</g>
	<g>
		<path class="st0" d="M521.5,156.3c7.6-13.8-4.4-22.2-14.4-14.8c-3.3-11.9-14.7-10.6-20.2-1.3c-6.6-6.6-15.4-2.1-16.4,7.9
			c0,0-0.7,26.9,0,27.7s12.8,20.1,22.1,17.6c9.3-2.6,26.9-18.7,28.8-20.3"/>
	</g>
	<g>
		<path class="st12" d="M482.6,175.9c-1,0-2.1-0.6-2.7-1.6c-3.2-5.7-1.8-14.6,0.4-20.4c0.4-1.1,1.1-2.7,2.3-3.9
			c1.7-1.7,3.9-2.3,5.4-2.8c2.6-0.8,6.4-1.9,10-0.4c1.6,0.7,3.1,1.8,4.4,3.2c2,2.2,3.3,4.9,3.9,7.8c0.6,3,0.2,6.2-1.1,8.9
			c-1,2.1-2.4,3.6-4.1,4.2c-1.8,0.7-3.6,0.6-4.7,0.3c-2.8-0.4-4.9-1.6-6.2-3.2c-2.2-2.9-1.8-7.3,1-9.8c1.2-1.1,3.1-1,4.2,0.3
			c1.1,1.2,1,3.1-0.3,4.2c-0.3,0.3-0.4,1.1-0.1,1.6s1.2,0.8,2.4,1c0.9,0.1,1.3,0.1,1.4,0c0.2-0.1,0.7-0.4,1-1.2
			c0.8-1.6,1-3.3,0.7-5.1s-1.2-3.4-2.4-4.9c-0.8-0.9-1.4-1.4-2.2-1.7c-1.6-0.7-3.8-0.1-6.1,0.7c-1.1,0.3-2.3,0.7-2.9,1.3
			c-0.4,0.4-0.8,1.2-1,1.8c-1.9,5-2.8,11.9-0.8,15.3c0.8,1.4,0.3,3.2-1.1,4.1C483.6,175.7,483.1,175.9,482.6,175.9z"/>
	</g>
	<g>
		<path class="st0" d="M396.5,130.2c0,0-3,28.9-3.4,29.9c-0.2,0.6-3.4,2.2-6.3,3.7c-2.6,1.3-4.9,2.3-4.9,2.3l-20.4-1.7
			c-12.3,6.3-14.4-7.6-10.1-12.9c0.1-0.2,0.3-0.4,0.4-0.6c-0.7,0.2-1.2,0.3-1.8,0.3c-1.1,0.1-2.1,0.1-3-0.1
			c-8.7-2.2-6.7-20,1.2-19.7c-6.1-9.6,1.3-16.3,9.3-14.2c-1.6-7.8,6.3-13.7,14.2-9.9c0.8-10,15.1-12.1,19.8-0.9L396.5,130.2z"/>
	</g>
	<g>
		<path class="st12" d="M371.7,152.7c-1.8,0-3.6-0.3-5.3-1c-3-1.2-8-4.6-8-14c0-6.6,2.1-11.6,6.2-14.8c8-6.1,20.3-3,20.9-2.9
			c1.6,0.4,2.6,2.1,2.1,3.7c-0.4,1.6-2.1,2.6-3.7,2.1l0,0c-0.1,0-10.1-2.6-15.8,1.8c-2.7,2-3.9,5.3-3.9,10c0,4.4,1.4,7.3,4.2,8.4
			c3.3,1.3,8.2,0,10.2-2.1c1.6-1.7,2-4.7,0.9-6.2c-1.3-1.9-4.6-1-6.3-0.2c-1.6,0.7-3.3-0.1-3.9-1.7c-0.7-1.6,0.1-3.2,1.7-3.9
			c8.7-3.6,12.6,1,13.6,2.4c2.7,4,2,10.1-1.6,13.8C380.7,150.7,376.2,152.7,371.7,152.7z"/>
	</g>
	<g>
		<path class="st13" d="M413.4,201.8c0.8-2.8,1.2-5.7,1.2-8.7c0-18.3-15.9-33.2-35.5-33.2c-14.9,0-27.5,8.6-32.9,20.7
			C365.8,190.6,388.2,197.6,413.4,201.8z"/>
	</g>
	<g class="st8">
		<path class="st0" d="M364.1,161.7c0,0-3.4,10.4,4.9,15.6l7.3,13.9c0,0,7.9,2.8,8.6,2.2c0.6-0.7,5.3-10-2.4-17.2
			c0,0,3.2-11.7-3.8-16"/>
	</g>
	<g>
		
			<ellipse transform="matrix(0.8831 -0.4692 0.4692 0.8831 -15.4779 220.8872)" class="st14" cx="435.5" cy="141.5" rx="14" ry="25.8"/>
	</g>
	<g>
		<path class="st1" d="M413.4,205.2c-0.2,0-0.4,0-0.6,0c-25.8-4.3-48.7-11.7-68.2-21.5c-1.7-0.8-2.3-2.8-1.6-4.4
			c6-13.8,20.1-22.7,36-22.7c21.4,0,39,16.4,39,36.7c0,3.2-0.4,6.4-1.3,9.6C416.3,204.2,415,205.2,413.4,205.2z M350.9,179
			c17.3,8.4,37.5,14.8,60,18.8c0.2-1.6,0.4-3.1,0.4-4.7c0-16.4-14.4-29.8-32.1-29.8C367.2,163.5,356.4,169.5,350.9,179z"/>
	</g>
	<g>
		<path class="st1" d="M397,201.2c-0.3,0-0.6,0-0.9-0.1c-1.4-0.4-2.2-2.1-1.7-3.4c0.4-1.4,0.7-2.9,0.7-4.3c0-8.1-7.2-14.8-16-14.8
			c-6.9,0-12.9,4-15.1,10c-0.6,1.4-2.1,2.1-3.6,1.7s-2.1-2.1-1.7-3.6c3-8.1,11.1-13.7,20.3-13.7c11.9,0,21.5,9.1,21.5,20.3
			c0,2.1-0.3,4.2-1,6.1C399.2,200.5,398.1,201.2,397,201.2z"/>
	</g>
	<g>
		<path class="st13" d="M494.8,210.5c0.4-2.3,0.6-4.8,0.6-7.2c0-25.7-21.2-46.3-47.5-46.3c-24.9,0-45.3,18.7-47.3,42.4
			C432,207.1,463.4,210.9,494.8,210.5z"/>
	</g>
	<g class="st8">
		<path class="st0" d="M427.4,163.1c0,0-4.2,9.9,7.3,18.2c0,0-5.9,4.9,4.4,12.1c0,0,3.3,6.2,6.2,9.8c2.9,3.6,9.1-1.1,3.6-10
			l-1.1-4.1c0,0,3.7-5.1-4.6-11c0,0,8.3-13.2-4.4-20.4"/>
	</g>
	<g>
		<path class="st1" d="M490.4,214.7c-30,0-60.5-3.8-90.8-11.3c-2-0.4-3.3-2.3-3.1-4.3c2.2-25.9,24.9-46.2,51.4-46.2
			c28.4,0,51.7,22.7,51.7,50.5c0,2.7-0.2,5.3-0.7,7.9c-0.3,2-2,3.4-4,3.4C493.4,214.7,491.8,214.7,490.4,214.7z M494.8,210.5
			L494.8,210.5L494.8,210.5z M405.1,196.1c28.7,6.9,57.5,10.3,86,10.2c0.1-1,0.1-2.1,0.1-3.2c0-23.3-19.4-42.2-43.3-42.2
			C426.8,161,408.6,176.1,405.1,196.1z"/>
	</g>
	<g>
		<path class="st1" d="M473.9,212.7c-0.2,0-0.6,0-0.9-0.1c-1.9-0.4-3-2.3-2.6-4.2c0.4-1.7,0.7-3.4,0.7-5.1
			c0-12.4-10.4-22.7-23.2-22.7c-12.8,0-23.2,10.1-23.2,22.5c0,1.9-1.6,3.4-3.4,3.4s-3.4-1.6-3.4-3.4c0-16.2,13.6-29.4,30.1-29.4
			c16.7,0,30.1,13.2,30.1,29.5c0,2.3-0.2,4.7-0.8,6.8C476.9,211.6,475.4,212.7,473.9,212.7z"/>
	</g>
	<g>
		<path class="st1" d="M459.4,211.5c-0.4,0-0.9-0.1-1.3-0.3c-1.8-0.8-2.6-2.8-1.8-4.6c0.4-1.1,0.7-2.2,0.7-3.4
			c0-4.9-4.1-8.8-9.1-8.8c-5,0-9.1,4-9.1,8.8c0,0.4,0,1,0.1,1.4c0.3,1.9-0.9,3.7-2.8,4c-1.9,0.3-3.7-0.9-4-2.8
			c-0.1-0.9-0.2-1.8-0.2-2.7c0-8.7,7.1-15.7,16-15.7c8.9,0,16,7,16,15.7c0,2.1-0.4,4.2-1.3,6.1C462,210.7,460.7,211.5,459.4,211.5z"
			/>
	</g>
	<g>
		<path class="st1" d="M532.3,215.6c-57.9,0-124-6.7-163.3-20.8c-30.7-11-45.7-21.9-45.9-33.3c-0.2-11.2,13.9-17,14.6-17.2
			c2.1-0.9,4.6,0.2,5.3,2.3c0.9,2.1-0.2,4.6-2.3,5.3c-2.4,1-9.4,4.9-9.3,9.4c0.1,3.4,4.1,12.7,40.4,25.7
			c74.5,26.7,235.9,24.5,264.5,7.3c5.7-3.4,8.7-6.8,8.8-9.8c0.1-3.8-4.3-7.7-7-9.6c-1.9-1.3-2.2-3.9-0.9-5.8
			c1.3-1.9,3.9-2.2,5.8-0.9c7.1,5.1,10.7,10.8,10.4,16.6c-0.2,6-4.6,11.6-12.8,16.6C625.1,210.7,581.7,215.6,532.3,215.6z"/>
	</g>
	<g>
		<path class="st13" d="M481.7,209.8c2.8-32.9,31.2-58.8,66-58.8c33.3,0,60.9,23.8,65.5,54.7C571.3,212,527.3,213.2,481.7,209.8z"/>
	</g>
	<g class="st8">
		<path class="st0" d="M520.1,156.9c0,0-8.4,14.1,5.8,18.8c0,0-3.2,9.6,8.4,17.8c0,0-3.9,12.9,7.1,17.1c11,4.2,9.8,0.8,9.8,0.8
			l-5.4-19.3c0,0,4.7-11.9-3.9-20.4c0,0,4.2-14.7-4.4-19.8"/>
	</g>
	<g>
		<path class="st1" d="M530.7,215.8c-16.1,0-32.5-0.7-49.2-1.9c-1.1-0.1-2.1-0.6-2.8-1.4s-1.1-1.9-1-3c2.9-35.1,33.7-62.5,70.1-62.5
			c34.7,0,64.5,25,69.5,58.1c0.3,2.2-1.2,4.3-3.4,4.7C587.3,213.8,559.5,215.8,530.7,215.8z M486.4,206c42.8,3,83.8,1.8,122-3.8
			c-6.1-27.1-31.4-47.1-60.6-47.1C517.1,155.1,490.8,177.1,486.4,206z"/>
	</g>
	<g>
		<path class="st1" d="M502.6,214.2c-0.1,0-0.2,0-0.3,0c-1.9-0.2-3.3-1.9-3.1-3.8c2.3-24.3,23.2-42.8,48.5-42.8
			c24,0,44.8,17.3,48.2,40.3c0.2,1.9-1,3.7-2.9,3.9c-1.9,0.3-3.7-1-3.9-2.9c-3-19.7-20.8-34.4-41.4-34.4
			c-21.8,0-39.7,15.7-41.7,36.5C506,212.9,504.4,214.2,502.6,214.2z"/>
	</g>
	<g>
		<path class="st1" d="M524.3,214.8c-0.2,0-0.3,0-0.6,0c-1.9-0.3-3.1-2.1-2.9-4c2.1-12.9,13.4-22.2,26.9-22.2c12.8,0,24,8.9,26.7,21
			c0.4,1.9-0.8,3.7-2.7,4.1s-3.7-0.8-4.1-2.7c-2-9-10.3-15.6-19.9-15.6c-10.1,0-18.6,6.9-20.1,16.4
			C527.4,213.6,525.9,214.8,524.3,214.8z"/>
	</g>
	<g>
		<path class="st1" d="M476.2,169.4c-1.6,0-3-1.1-3.3-2.7c-6.9-31.2-27.1-53.1-42.3-62.4c-8.9-5.4-17-7.6-23.1-6
			c-16.2,4.8-22.1,24.9-17.8,61.3c0.2,1.9-1.1,3.6-3,3.8s-3.6-1.1-3.8-3c-4.7-40.4,2.8-62.9,22.8-68.8c8-2,18.1,0.3,28.5,6.8
			c16.3,10,38,33.5,45.4,66.8c0.4,1.9-0.8,3.7-2.7,4.1C476.6,169.4,476.4,169.4,476.2,169.4z"/>
	</g>
	<g>
		<path class="st1" d="M355.7,169.5c-4.4,0-6.9-2.8-7.8-3.9c-2.1-3-2.7-7.2-1.8-11c-2.6-0.7-4.2-2.1-5.1-3.3
			c-3.9-4.7-3.8-12.4-1.3-17.3c1-1.9,2.2-3.4,3.8-4.4c-1.4-4-1.1-8,1.2-11.1c2.1-3,5.7-4.7,9.4-4.9c0.4-3.1,2.1-5.9,4.7-8
			c3-2.3,6.8-3.1,10.6-2.4c1.7-3.9,5.2-6.7,9.7-7.3c5.6-0.9,12.4,1.8,15.7,9.6c0.7,1.8-0.1,3.8-1.9,4.4c-1.8,0.7-3.8-0.1-4.4-1.9
			c-1.9-4.7-5.6-5.8-8.2-5.3c-2.2,0.3-4.7,1.9-4.9,5.2c-0.1,1.1-0.7,2.1-1.7,2.7s-2.2,0.7-3.2,0.1c-2.6-1.2-5.3-1-7.3,0.4
			c-1.8,1.3-2.4,3.4-2,5.7c0.2,1.1-0.1,2.3-1,3.2c-0.9,0.8-2.1,1.1-3.2,0.9c-2.7-0.7-5.3,0-6.6,1.8c-1.2,1.8-0.9,4.4,1,7.3
			c0.7,1.1,0.8,2.4,0.1,3.6s-1.9,1.8-3.1,1.8c-1.1,0-1.8,1-2.2,2c-1.6,3.1-1.3,7.8,0.4,9.9c0.7,0.8,1.8,1.7,4.6,0.9
			c1.6-0.4,3.1,0.2,3.9,1.6s0.6,3.1-0.6,4.2c-1.8,1.7-2.1,6.1-0.7,8.1c1.3,1.8,4.1,0.9,6.2-0.2c1.7-0.9,3.8-0.2,4.7,1.4
			c0.9,1.7,0.2,3.8-1.4,4.7C360.1,168.9,357.7,169.5,355.7,169.5z"/>
	</g>
	<g>
		<path class="st1" d="M521.5,159.7c-0.6,0-1.1-0.1-1.7-0.4c-1.7-0.9-2.2-3-1.3-4.7c2.6-4.7,2.6-8.9,0-11.1c-2-1.7-5.6-2.1-9.4,0.8
			c-0.9,0.7-2.1,0.9-3.2,0.6s-1.9-1.2-2.2-2.3c-1-3.6-2.9-5.7-5.3-6c-2.9-0.4-6.4,1.9-8.7,5.6c-0.6,0.9-1.4,1.6-2.6,1.7
			s-2.1-0.2-2.9-1c-1.9-1.9-3.9-2.4-5.8-1.8c-2.6,0.9-4.3,3.8-4.8,7.6c-0.2,1.9-1.9,3.2-3.8,3.1c-1.9-0.2-3.2-1.9-3.1-3.8
			c0.7-6.4,4.2-11.6,9.3-13.3c3.2-1.1,6.8-0.8,9.9,1c3.7-4.2,8.6-6.3,13.2-5.8c4,0.6,7.3,3,9.4,7c5-2.1,10.4-1.6,14.2,1.8
			c4,3.4,6.6,10.4,1.4,19.7C523.9,159,522.7,159.7,521.5,159.7z"/>
	</g>
	<g>
		<path class="st11" d="M628.7,146.9L771.3,38.8c6.6-5,16-4,21.3,2.4l0,0c6.1,7.3,4.3,18.3-3.8,23.2l-152.6,93.4
			c-2.9,1.8-6.7,1.1-8.7-1.6l0,0C625.1,153.4,625.7,149.1,628.7,146.9z"/>
	</g>
	<g class="st8">
		<path class="st0" d="M795.6,46.7c-5.4-5-13.8-5.4-19.8-0.9L633.2,153.9c-1.6,1.1-2.4,2.8-2.6,4.6c-1.2-0.4-2.2-1.1-3.1-2.2
			c-1-1.2-1.4-2.7-1.4-4.1c0-2,0.9-4,2.7-5.3L771.4,38.7c6.6-5,16-4,21.3,2.4C794.1,42.8,795,44.7,795.6,46.7z"/>
	</g>
	<g>
		<path class="st1" d="M632.7,162.4c-3,0-6-1.3-8-3.9c-1.7-2.1-2.4-4.8-2.1-7.6c0.3-2.8,1.8-5.1,3.9-6.8L769.1,36.1
			c8.1-6.1,19.4-4.8,26,2.9c3.6,4.2,5.1,9.8,4.2,15.2c-0.9,5.4-4.1,10.2-8.9,13.1l-152.6,93.4C636.4,161.8,634.5,162.4,632.7,162.4z
			 M780.8,39.1c-2.6,0-5.1,0.8-7.3,2.4L630.8,149.6l0,0c-0.7,0.6-1.1,1.3-1.2,2.1c-0.1,0.8,0.1,1.8,0.7,2.4c1,1.2,2.8,1.6,4.2,0.8
			l152.6-93.4c3-1.9,5.1-4.9,5.7-8.4c0.6-3.6-0.4-7-2.7-9.8C787.6,40.6,784.2,39.1,780.8,39.1z M628.7,146.9L628.7,146.9
			L628.7,146.9z"/>
	</g>
	<g>
		<path class="st1" d="M768.4,80.4c-0.1,0-0.2,0-0.2,0c-6-0.4-10.8-2.7-14.2-6.8c-6.7-8-5.6-19.9-5.6-20.4c0.2-1.9,1.9-3.2,3.8-3.1
			c1.9,0.2,3.2,1.9,3.1,3.8c0,0.2-0.9,9.7,4,15.3c2.2,2.7,5.3,4,9.4,4.3c1.9,0.1,3.3,1.8,3.2,3.7C771.8,79.1,770.2,80.4,768.4,80.4z
			"/>
	</g>
	<g>
		<path class="st1" d="M748.9,91.3c-0.3,0-0.8-0.1-1.1-0.2c-15.8-5.4-16.4-19.7-14.7-26.4c0.4-1.9,2.3-2.9,4.2-2.4
			c1.9,0.4,2.9,2.3,2.4,4.2c-0.3,1.3-3,13.6,10.3,18.2c1.8,0.7,2.8,2.6,2.1,4.3C751.7,90.4,750.3,91.3,748.9,91.3z"/>
	</g>
	<g>
		<path class="st1" d="M638.4,201.4c-1.6,0-2.9-1-3.3-2.6c-0.1-0.4-4.3-11.2-35.7-19.4c-1.9-0.4-2.9-2.3-2.4-4.2s2.3-2.9,4.2-2.4
			c36.1,9.6,40.2,22.9,40.7,24.4c0.4,1.9-0.7,3.7-2.6,4.1C638.9,201.2,638.6,201.4,638.4,201.4z"/>
	</g>
	<g>
		<path class="st9" d="M575.3,41c-0.9,11.6-10.8,18.7-25.7,23.2c-2.3,0.7-4.7-1.1-4.6-3.6c0.3-5.1,1.1-9.7,2.3-13.6
			c2-6.2,5.1-10.9,9.4-14c1.3-0.9,2.7-1.8,4.1-2.3C568.2,27.6,575.8,33.2,575.3,41z"/>
	</g>
	<g>
		<path class="st9" d="M576.6,81.4c-3.1-4.2-9.2-4.8-17.3-2.8c-2.6,0.7-4.2,3.3-3.4,5.9c2.4,8.1,7.2,13.1,14,12
			C577,95.4,581,87.2,576.6,81.4z"/>
	</g>
	<g class="st8">
		<ellipse class="st0" cx="564.6" cy="83.2" rx="5" ry="3.4"/>
	</g>
	<g>
		<path class="st1" d="M548.5,67.8c-1.6,0-3.1-0.6-4.3-1.4c-1.8-1.4-2.8-3.6-2.7-5.9c1.2-21.2,10.4-29.5,18-32.9
			c4.4-2,9.6-1.4,13.4,1.3c3.9,2.8,6,7.4,5.7,12.3c-1,12.1-10.1,20.7-28.1,26.2l0,0C549.9,67.7,549.2,67.8,548.5,67.8z M565.2,33.3
			c-0.9,0-1.9,0.2-2.9,0.6c-8.3,3.7-13,12.8-13.9,27l1.1,3.3l-1-3.3c15-4.7,22.5-11.2,23.3-20.2c0.2-2.4-0.8-4.8-2.8-6.1
			C567.8,33.7,566.5,33.3,565.2,33.3z"/>
	</g>
	<g>
		<path class="st1" d="M568,100.2c-7,0-12.8-5.3-15.4-14.7c-0.7-2.1-0.3-4.3,0.8-6.3s3-3.3,5.1-3.9c10-2.4,17-1.1,20.9,4l0,0
			c2.7,3.6,3.2,8.1,1.6,12.2c-1.8,4.4-5.8,7.7-10.6,8.4C569.6,100.2,568.8,100.2,568,100.2z M567.3,80.9c-2,0-4.3,0.3-7.1,1
			c-0.4,0.1-0.8,0.4-0.9,0.7c-0.1,0.2-0.2,0.6-0.1,1c1.2,4,4.1,10.7,10.2,9.7c2.3-0.4,4.3-2,5.2-4.2c0.4-1.1,1-3.3-0.7-5.6l0,0
			C572.6,81.8,570.4,80.9,567.3,80.9z"/>
	</g>
	<g class="st2">
		<path class="st1" d="M666.2,187c-3.2,121.2-99.6,171.5-191.7,162.4c70.2,2.6,84.2-68.8,86.9-104.5c0.9-11.1,9.7-20,20.9-20.8
			c99.6-7.2,80.4-48.4,80.4-48.4l0,0C664.7,179.4,665.9,183.1,666.2,187z"/>
	</g>
	<g class="st2">
		<path class="st1" d="M341.3,146.9c0,0-20,9.1-10.8,19.1c9.3,9.9,16.3,10.6,16.3,10.6l3.9-12.8l-3.1-11.6L341.3,146.9z"/>
	</g>
	<g class="st2">
		<path class="st1" d="M573,156.9c0,0,11.4,4.4,5.6,26.9l-5.6-2.7c0,0,3.4,13.4-9.4,16.9c0,0-1.1,6-7.1,8.7c-6,2.6,20.9,4,20.9,4
			l35.5-6.8c0,0-9.4-28-20.3-35.9"/>
	</g>
	<g class="st2">
		<path class="st1" d="M460.4,158.5c0,0,13.3,9.1,7.4,27.4l-6.8-5.3c0,0,6.2,12.7-2.8,17.3l4.1,8.7l17.6,1.6c0,0,7.4-19.8,9.8-26.7
			C492.2,174.5,460.4,158.5,460.4,158.5z"/>
	</g>
	<g class="st2">
		<path class="st1" d="M441.3,109.2c0,0,23.1,33.8-8.2,38.7c-8.2,1.3-15.8,5.6-20.8,12.3c-2.8,3.7-7.6,6.1-15.8,3l11.6,9.7
			c0,0,23.3-28.8,66.4-9.7C468.6,141.8,458,123.6,441.3,109.2z"/>
	</g>
	<g class="st2">
		<path class="st1" d="M350,151.4c-1.1,0.1-2.1,0.1-3-0.1C348,151.1,348.9,151.3,350,151.4z"/>
	</g>
	<g class="st2">
		<path class="st1" d="M384.8,138.7c0,0,0.7,15.3,1.3,21.9c-2.3-0.4-4.7-0.7-7.1-0.7c-6.4,0-12.6,1.6-17.8,4.4l-0.1,0.1
			c-12.2,6.2-14.3-7.7-9.9-12.9c0.4,0.1,0.9,0.1,1.3,0.2c26,5.2,33.7-33.7,34.1-36L384.8,138.7z"/>
	</g>
	<g>
		<path class="st0" d="M663.4,581.6l-4.7,30l-11.9,76.8l-2.2,14.6l-1.3,8.9c-2.3,15.3-16.4,26.2-32,24.3c-0.2,0-0.4,0-0.6-0.1
			c-20.1-2.8-33.1-9.3-33.1-9.3l18.3-177.1l2.6-24.8l30.5,6.7C651.9,536.5,666.9,558.5,663.4,581.6z"/>
	</g>
	<g>
		<path class="st1" d="M614.8,741.6c-1.3,0-2.8-0.1-4.2-0.2l-0.7-0.1c-20.8-2.8-34.2-9.6-34.8-9.8l4.8-9.3c0.1,0,12.6,6.2,31.4,8.8
			l0.6,0.1c12.7,1.6,24.1-7.2,26.1-20l20.2-130.3c3.1-20.3-10.1-39.7-30.2-44.1l-30.5-6.7l2.2-10.2l30.5,6.7
			c25.5,5.6,42.4,30.1,38.3,55.9l-20.2,130.3C645.7,729.5,631.4,741.6,614.8,741.6z"/>
	</g>
	<g>
		<path class="st0" d="M666.1,625.9l-7.6,55.3l-1.3,9.6c-0.9,6.7-6.3,11.6-12.8,12.1c-0.9,0.1-1.8,0-2.8,0l-33.8-3.9
			c-7.7-0.9-13.2-7.8-12.3-15.4l7-64.8c0.9-7.7,7.7-13.2,15.3-12.4l16.6,1.7l19.1,2c1.8,0.2,3.6,0.7,5,1.4
			C663.8,614.1,667,619.8,666.1,625.9z"/>
	</g>
	<g class="st2">
		<path class="st1" d="M658.6,681.2l-1.3,9.6c-0.9,6.7-6.3,11.6-12.8,12.1l-1.3,8.9c-2.3,15.3-16.4,26.2-32,24.3
			c-0.2,0-0.4,0-0.6-0.1c-20.1-2.8-33.1-9.3-33.1-9.3l18.3-177.1l24.8,8.6c0,0-4.1,39.4,16,48l-2.2,1.8l-6,4.9l-9.3,49.9l-2.7,24.2
			c0,0,17.7,3.6,30.3,1.3C652.4,687.3,656.9,685.2,658.6,681.2L658.6,681.2z"/>
	</g>
	<g>
		<path class="st1" d="M643.4,708.2c-0.8,0-1.4,0-2.2-0.1l-33.8-3.9c-10.4-1.2-18.1-10.8-17-21.2l7-64.8
			c1.1-10.6,10.6-18.1,21.1-17.1l35.7,3.7c5.2,0.6,9.9,3.1,13.1,7.2c3.2,4.1,4.7,9.3,3.9,14.6l-8.9,65
			C661.1,701.1,652.8,708.2,643.4,708.2z M616.6,611.6c-4.4,0-8.2,3.3-8.8,7.9l-7,64.8c-0.6,4.8,3,9.1,7.8,9.7l33.8,3.9
			c4.7,0.6,9.1-2.9,9.7-7.6l8.9-65c0.3-2.3-0.3-4.8-1.8-6.7c-1.4-1.9-3.7-3.1-6-3.3l-35.7-3.7l0,0
			C617.3,611.6,616.9,611.6,616.6,611.6z"/>
	</g>
	<g>
		<path class="st1" d="M631.6,706.2l-2.2-0.2c-5.2-0.6-9.9-3.2-13.2-7.3c-3.3-4.1-4.7-9.3-4.1-14.6l7.6-62.6
			c1.2-10.6,10.9-18.3,21.5-17.2l8.8,0.9L649,614l-8.8-0.9c-5.8-0.6-11,3.6-11.7,9.3l-7.6,62.6c-0.3,2.9,0.4,5.7,2.2,7.9
			c1.8,2.2,4.3,3.7,7.2,4l2.2,0.2L631.6,706.2z"/>
	</g>
	<g>
		<path class="st0" d="M718.1,825.3c-4.8,23.4-42.1,46.2-82.2,13c-91.8,48.3-147.6,18.6-173.8-76.3c0,0,0,0-0.1,0
			c-2.7-0.2-56.6-4-78.2,15c0,0-27.5,25.1-56.6,71.8c0,0-12,22.1-41.9,12.3c-19.8-6.4-52.5-27.8-69.1-53.5
			c-8.4-13.1-12.8-27.4-9-41.5c11.2-41.5,54.2-35.5,72.5-13.1c0,0,10.8-47.1,38.1-58.6c0,0,20-6.9,32.4-9.9c0,0-8.9-65.3,14.2-126.2
			c22.3,12,47.9,18.9,75.1,18.9c34.2,0,65.9-10.9,91.8-29.2c67.1-95,31.5-227.5,31-229.6l0,0c-23.9-58.2,37-76.6,55.4-25.3
			c1.6-4.7,3.6-7.3,5.6-8.7c8.3-5,18.3,13.8,9.1,32.1C656.5,412,643,513.4,598,619.7c1,8.2,1.7,16.3,1.7,24.4
			c0.2,12.7-0.8,25.2-2.8,37.8c-3.3,21.8-9.7,43.4-18.2,65c0,0-2.2,13.9,4.7,28l43.5-28.8c3-2,6.9-2.6,10.3-1.3
			c6.2,2.2,17,8.1,32,23.8c1,1.1,2.1,2.1,3.1,3.1C696.8,795.5,722.7,802.8,718.1,825.3z"/>
	</g>
	<g>
		<path class="st1" d="M299.6,868.8c-4.9,0-10.1-0.8-16-2.7c-14.7-4.8-37.9-18.1-56.5-36.9c-15.2-15.3-31.9-39-25-64.4
			c4.9-18.2,16.3-30.2,32.1-33.5c14.4-3.1,30.9,1.7,43,11.8c4.8-14.9,16.6-44.1,38.8-53.3c0.1,0,0.2-0.1,0.3-0.1
			c0.8-0.2,16.1-5.6,28.4-8.9c-1.6-16.2-5-71.3,15-124.2c0.6-1.4,1.7-2.6,3.1-3c1.4-0.6,3-0.4,4.3,0.3c22.1,12,47.2,18.2,72.6,18.2
			c31.8,0,62.2-9.6,88-27.8c63.1-90.3,32.1-215.4,29.8-224.2c-8.3-20.3-7.6-38.9,2-50.9c7-8.8,17.8-12.8,29.1-11
			c12.1,2,22.8,10.6,29.9,23.4c2.1-2.1,4.3-2.9,6.2-3.2c4.3-0.7,8.7,1.4,11.8,5.8c5,6.8,7.4,19.8,1.7,32.8
			c11.6,47,14.4,96.7,8.4,147.7c-5.9,49.7-20.3,102.1-42.9,155.8c4.9,40.2-1.4,82-19.5,127.7c-0.2,2-0.9,9.9,2,18.8l38.2-25.2
			c4.4-2.9,10-3.7,14.9-1.9c6.9,2.4,18.4,8.8,34.1,25.1c8.3,8.7,17.2,15.3,25,21.1c15.6,11.6,28.9,21.5,25.2,40.1l0,0
			c-2.8,13.6-14.2,25.7-29.2,31c-11,3.9-33,7.1-58.6-12.8c-44.2,22.7-81.6,27.7-111.2,14.9c-29.8-12.9-52-44-66-92.4
			c-12.4-0.6-53.8-1.2-70.9,13.9c-0.2,0.2-27.2,25.1-55.5,70.5C327.8,858.4,317,868.8,299.6,868.8z M243,740.7
			c-2.3,0-4.6,0.2-6.8,0.7c-11.9,2.6-20.2,11.6-24.1,26c-10.3,38.4,48.4,80.1,74.8,88.6c25.2,8.2,35.2-9.2,35.7-9.9
			c0-0.1,0.1-0.2,0.1-0.2c29.2-46.8,56.4-71.9,57.5-72.9c23.5-20.8,79.9-16.4,82.3-16.3c2.2,0.2,4,1.7,4.7,3.8
			c13.1,47.3,33.7,77.3,61.1,89.2c27.2,11.8,62.6,6.3,105.3-16.1c1.9-1,4.1-0.8,5.8,0.6c23,19.1,42,16.4,51.3,13.2
			c11.4-4,20.4-13.3,22.4-23.2c2.3-11.6-5.2-17.8-21.2-29.7c-8.1-6.1-17.3-12.9-26.3-22.2c-15-15.6-25.2-20.8-30-22.4
			c-1.9-0.7-3.9-0.3-5.7,0.8l-43.5,28.8c-1.2,0.9-2.8,1.1-4.2,0.7c-1.4-0.4-2.7-1.4-3.3-2.8c-7.6-15.6-5.2-30.5-5.1-31.2
			c0-0.3,0.2-0.8,0.3-1.1c17.8-44.8,24-85.5,19-124.5c-0.1-0.9,0-1.9,0.3-2.7c45.5-107.7,57.1-208.7,34.1-300
			c-0.3-1.2-0.2-2.4,0.3-3.7c4.3-8.7,3.6-17.4,1-22.4c-1.2-2.3-2.4-2.9-2.6-2.9c-0.3,0.1-1.9,1.3-3.4,5.9c-0.7,2.1-2.7,3.6-4.9,3.6
			c-2.2,0-4.2-1.3-5-3.4c-5.2-14.6-15-24.4-26.1-26.2c-7.6-1.2-14.6,1.3-19.1,7.1c-7.1,9-7.3,23.8-0.4,40.5c0.1,0.2,0.2,0.6,0.2,0.8
			l0,0c1.4,5.7,35.8,138.3-31.8,233.9c-0.3,0.4-0.8,0.9-1.2,1.2c-27.8,19.8-60.5,30.2-94.7,30.2c-25.1,0-49.9-5.8-72.2-16.8
			c-19.9,57.3-12,117.5-11.9,118.1c0.3,2.7-1.3,5.2-4,5.8c-11.6,2.8-29.9,9-31.8,9.7c-24.5,10.4-34.8,54.4-34.9,54.9
			c-0.4,2-2,3.4-3.9,3.9s-4-0.2-5.2-1.8C267.7,746.7,254.8,740.7,243,740.7z"/>
	</g>
	<g>
		<path class="st0" d="M376,647.6l-27.3-5.4c-10.7,7.4-8.9,29,0.9,36.9c0,0,14.4,6.3,27.8,5.8"/>
	</g>
	<g>
		<path class="st1" d="M375.8,690c-13.8,0-27.7-6-28.3-6.2c-0.4-0.2-0.8-0.4-1.2-0.7c-6.4-5.2-10.4-15.1-10.1-25.2
			c0.3-8.7,3.8-16,9.6-20c1.1-0.8,2.7-1.1,4-0.9l27.3,5.4l-2.1,10.2l-24.9-5c-2.1,2.3-3.3,6-3.6,10.4c-0.2,6.4,2.1,13,5.7,16.3
			c2.9,1.1,14.4,5.4,24.8,5.1l0.4,10.4C377,690,376.3,690,375.8,690z"/>
	</g>
	<g>
		<path class="st0" d="M377.5,633.4c-2.2,15.3-5.4,51.9,8.2,78.1c2,3.8,5.4,6.7,9.6,7.9c22.2,6.7,46.8,8.8,73.5,6.2
			c0,0,20.1-2.3,34.9-8.2c5-2,8.8-6.4,9.8-11.8c4.4-23.8,4.4-48.9-2.4-75.9c-1.6-6.1-6.6-10.8-12.8-11.8c-16.9-2.9-52.7-8-86.8-6.1
			c-0.9,0-1.8,0.2-2.7,0.3c-8.7,2-16.7,5.3-23.9,9.8C380.9,624.6,378.2,628.8,377.5,633.4z"/>
	</g>
	<g>
		
			<ellipse transform="matrix(0.9974 -7.219859e-02 7.219859e-02 0.9974 -46.3606 34.5349)" class="st15" cx="454.5" cy="658.6" rx="10.1" ry="11.3"/>
	</g>
	<g>
		<path class="st1" d="M447.5,732c-19.2,0-37.2-2.6-53.8-7.6c-5.4-1.7-10.1-5.4-12.7-10.4c-14.4-27.8-10.9-66.1-8.8-81.3
			c0.9-6.3,4.6-11.9,9.9-15.1c8-4.9,16.6-8.4,25.4-10.3c1.1-0.2,2.2-0.4,3.4-0.4c34.2-2,69.8,3,88,6.1c8.2,1.4,14.9,7.6,16.9,15.7
			c6.8,26.1,7.6,51.7,2.6,78.1c-1.3,7.1-6.2,13-13,15.7c-15.2,6.1-35.3,8.4-36.2,8.6C462,731.6,454.6,732,447.5,732z M427.4,616.8
			c-5.2,0-10.4,0.1-15.7,0.4c-0.7,0-1.2,0.1-1.8,0.2c-7.9,1.8-15.1,4.8-22.3,9.1c-2.7,1.7-4.6,4.4-5,7.7l0,0
			c-2,14.2-5.3,49.9,7.7,75c1.3,2.4,3.7,4.4,6.4,5.2c21.4,6.4,45.5,8.6,71.5,6.1c0.1,0,19.4-2.3,33.4-7.9c3.4-1.3,5.9-4.3,6.6-7.9
			c4.7-25,3.9-49-2.4-73.5c-1.1-4.1-4.4-7.2-8.6-8C482.4,620.6,455.4,616.8,427.4,616.8z"/>
	</g>
	<g>
		<path class="st1" d="M480.1,726.2l-8.4-3c7.7-21.9,4.9-60.3,3.3-75.9c-0.3-3.3-3-6-6.3-6.4l-74.4-8.8c-6-0.7-11.4,3-13.1,8.8
			l-8.7-2.4c2.8-10.1,12.4-16.6,22.8-15.3l74.4,8.8c7.4,0.9,13.4,6.9,14.2,14.4C485.8,666.4,488.1,703.4,480.1,726.2z"/>
	</g>
	<g>
		<path class="st1" d="M441.5,727l-1.4-35.2c-0.2-5.1-3.8-9.3-8.8-10.3l-8.9-1.9c-8.9-1.9-15.4-9.4-15.9-18.6l-1.6-29.7l9-0.4
			l1.6,29.7c0.2,5,3.9,9.2,8.8,10.2l8.9,1.9c9,1.9,15.6,9.6,15.9,18.8l1.4,35.2L441.5,727z"/>
	</g>
	<g>
		<path class="st1" d="M454.6,672.5c-3.2,0-6.2-1.2-8.6-3.6c-2.6-2.4-4.1-5.9-4.3-9.6c-0.2-3.7,0.8-7.2,2.9-10
			c2.2-2.9,5.3-4.7,8.9-4.9c3.4-0.2,6.8,1,9.4,3.6c2.6,2.4,4.1,5.9,4.3,9.6c0.2,3.7-0.8,7.2-2.9,10c-2.2,2.9-5.3,4.7-8.9,4.9
			C455.2,672.5,455,672.5,454.6,672.5z M454.3,650c-0.1,0-0.3,0-0.4,0c-1.9,0.1-3.7,1.1-4.9,2.8c-1.3,1.7-2,4-1.8,6.3s1.1,4.4,2.7,6
			c1.4,1.4,3.3,2.1,5.2,2c1.9-0.1,3.7-1.1,4.9-2.8c1.3-1.7,2-4,1.8-6.3l0,0c-0.1-2.3-1.1-4.4-2.7-6C457.7,650.8,456.1,650,454.3,650
			z"/>
	</g>
	<g>
		<path class="st0" d="M597,682.1L597,682.1c-8,1.8-16,3.1-24.1,3.9c-18.8,1.9-37.8,1.2-56.8-2c-16.3-2-16.9-33.3-1.8-37.4
			c7.4,1.1,30.4,3.7,57.2,1.7c5.3-0.4,10.8-1,16.3-1.8h0.1c3.9-0.6,7.8-1.2,11.7-2l0,0C612.5,644.8,616.9,672.2,597,682.1z"/>
	</g>
	<g>
		<path class="st1" d="M551.9,692.2c-12.1,0-24.3-1-36.4-3.1c-9.6-1.2-16.2-9.8-17.1-21.7c-0.8-10.3,3.6-22.9,14.7-26
			c0.7-0.2,1.4-0.2,2.2-0.1c1.7,0.2,42,6.4,83.4-2.2c0.4-0.1,0.9-0.1,1.2-0.1c7.3,0.2,13.3,6.2,15.3,15.2
			c2.3,10.7-1.7,25.4-15.9,32.4c-0.3,0.2-0.8,0.3-1.2,0.4C582.9,690.5,567.5,692.2,551.9,692.2z M515,651.9c-4.6,2-6.6,8.9-6.1,14.8
			c0.3,5.1,2.7,11.4,8,12.1c0.1,0,0.1,0,0.2,0c26.3,4.4,52.7,3.9,78.2-1.8c8.8-4.7,11.3-13.7,9.8-20.5c-0.7-3.2-2.4-6.4-5-6.9
			C560.7,657.6,522.5,653,515,651.9z"/>
	</g>
	<g>
		<polygon class="st1" points="355.2,683.2 359.3,719.3 345.1,685.9 		"/>
	</g>
	<g>
		<path class="st1" d="M283.5,749.4c4.8,6.2,10.4,12.2,15.7,18.6c5.2,6.3,10.9,13,13.2,20.9c-4-7.1-10.6-12.1-16.8-17.1
			c-6.4-5-13.1-9.6-19.7-15L283.5,749.4L283.5,749.4z"/>
	</g>
	<g>
		<path class="st1" d="M588.3,773c2.6,9.3,5.6,18.8,10.6,27.2c-3.9-3.1-7.4-6.9-10.8-10.7c-3.3-4-6.4-7.9-9.3-12.2L588.3,773
			L588.3,773z"/>
	</g>
	<g>
		<path class="st1" d="M521.3,856.7l-0.1-9c16.9-0.2,31.4-6.6,42-18.1c11.8-13,17.7-31.9,16.1-51.8l9-0.7c1.8,22.4-5,43.8-18.4,58.5
			C557.5,849.2,540.7,856.4,521.3,856.7z"/>
	</g>
	<g>
		<polygon class="st1" points="632.2,834.5 658.6,815.8 639.7,841.9 		"/>
	</g>
	<g>
		<path class="st1" d="M288.4,864.5c-3.9,0-8.4-0.9-13.4-2.6l2.9-8.4c5.3,1.9,12.6,3.4,16.6,0.4c3.9-2.9,4.4-10.1,4.2-15.6
			c-0.6-12.8-38.4-60.6-68.9-66.1c-5.3-1-12.3-1.3-15.7,2.4c-3.8,4.2-2.3,12.8-1.4,15.8l-8.6,2.6c-0.2-0.7-4.6-15.3,3.3-24.3
			c4.9-5.6,13-7.3,24-5.3c20.9,3.8,42.1,24,50.2,32.5c12.7,13.3,25.7,31.4,26.1,42c0.4,11.1-2.1,19-7.8,23.1
			C296.7,863.3,292.9,864.5,288.4,864.5z"/>
	</g>
	<g>
		
			<rect x="210.6" y="784.3" transform="matrix(0.8863 -0.4632 0.4632 0.8863 -338.9267 197.3766)" class="st1" width="43.7" height="9"/>
	</g>
	<g>
		
			<rect x="226.6" y="803.2" transform="matrix(0.8863 -0.4632 0.4632 0.8863 -345.5121 208.3102)" class="st1" width="49.5" height="9"/>
	</g>
	<g>
		
			<rect x="264.6" y="839.9" transform="matrix(0.8863 -0.4632 0.4632 0.8863 -358.91 227.074)" class="st1" width="36.5" height="9"/>
	</g>
	<g>
		
			<rect x="242" y="821.3" transform="matrix(0.8863 -0.4632 0.4632 0.8863 -352.1497 217.4667)" class="st1" width="49.5" height="9"/>
	</g>
	<g>
		<path class="st1" d="M367.8,799.1l-9-0.3c1.7-37.2-5.6-63.5-21.2-78.3c-14.8-13.9-31.8-12.4-32.5-12.3l-1-8.9
			c0.9-0.1,21.7-2.1,39.4,14.6C361.4,730.3,369.5,759.1,367.8,799.1z"/>
	</g>
	<g>
		<path class="st1" d="M536.3,549.7c-7.8,16.6-18.4,31.9-32.8,43.3c8.6-10.1,14.7-22,19.1-34.3c1.3-4,2.8-8.2,3.7-12.2L536.3,549.7
			L536.3,549.7z"/>
	</g>
	<g>
		<path class="st1" d="M604.6,500.4c-24.2,0-44.5-16.4-44.9-16.7l5.7-6.9l-2.9,3.4l2.9-3.4c1.7,1.3,40.2,32.2,70.3,0.4l6.6,6.1
			C630.1,496.2,616.8,500.4,604.6,500.4z"/>
	</g>
	<g>
		<polygon class="st1" points="456.9,762 462.2,739.2 467.3,762 		"/>
	</g>
	<g class="st2">
		<path class="st1" d="M672.3,771.8c-29.5-9.7-44.3,10.3-44.3,10.3s-25.1,34.1-47.8,32.5c-22.7-1.4-35.4-31.2-40.9-62.5
			c-5.6-31.3,25.1-63.3,25.1-63.3c3.2-0.8,6.1-1.9,8.6-3.1c24.2-11.9,15.2-39.5,15.2-39.5h-0.1l-16.3,1.8
			c1.3-17.8-11.4-41.9-11.4-41.9c86.3-118.7,51.8-288.7,51.8-288.7c19.2-8.6,11.3-33.1,11.3-33.1c8.3-5,18.3,13.8,9.1,32.1
			c24.1,95.6,10.7,197.1-34.3,303.4c1,8.2,1.7,16.3,1.7,24.4l0,0c12.8,0.4,17.1,27.9-2.8,37.8l0,0c-3.3,21.8-9.7,43.4-18.2,65
			c0,0-2.2,13.9,4.7,28l43.5-28.8c3-2,6.9-2.6,10.3-1.3c6.2,2.2,17,8.1,32,23.8C670.2,769.9,671.3,770.8,672.3,771.8z"/>
	</g>
	<g class="st2">
		<path class="st1" d="M381.8,568.6c0,0,54.3,53.4,126,20c10-10.1,16.3-22.3,19.1-36.4C490,582.2,439.2,582.4,381.8,568.6z"/>
	</g>
	<g class="st2">
		<path class="st1" d="M560.9,689.8l-34,10.7c0,0-1.7,17.2-13.1,28.5c-6.2,6.2-28.3,10.1-51.8,11.2c0,6-0.1,15-0.1,21.9
			c-2.7-0.2-56.6-4-78.2,15c0,0-27.5,25.1-56.6,71.8c0,0-12,22.1-41.9,12.3c-19.8-6.4-52.5-27.8-69.1-53.5
			c54,46.9,101.9,8.2,101.9,8.2s28-39.1,38.5-65.2c10.6-26.1,42.7-18.3,42.7-18.3c-19-10.4-21.9-30.4-21.9-30.4
			c88.6,14.4,97.9-62.6,97.9-62.6l28.3-16.9l7.4,7.7l5.6,14.4l10.3,3.7c-12.8,14.7,0,39,0,39L560.9,689.8z"/>
	</g>
	<g class="st2">
		<ellipse class="st1" cx="487.5" cy="950.6" rx="220.3" ry="31.2"/>
	</g>
	<g class="st2">
		<path class="st1" d="M326,529.4c0,0,26.4,42.8,3.4,51.1l20.4,20.7l3.2-8.1l11.3-34.5"/>
	</g>
</g>
</svg>
