<?xml version="1.0" encoding="utf-8"?>
<!-- Generator: Adobe Illustrator 25.0.0, SVG Export Plug-In . SVG Version: 6.00 Build 0)  -->
<svg version="1.1" id="Layer_1" xmlns="http://www.w3.org/2000/svg" xmlns:xlink="http://www.w3.org/1999/xlink" x="0px" y="0px"
	 viewBox="0 0 1000 1000" style="enable-background:new 0 0 1000 1000;" xml:space="preserve">
<style type="text/css">
	.st0{opacity:0.2;}
	.st1{fill:#232323;}
	.st2{fill:#F7F7F7;}
	.st3{opacity:0.3;}
	.st4{fill:#F8CE14;}
	.st5{fill:#FFFFFF;}
	.st6{fill:#020202;}
	.st7{opacity:0.5;}
	.st8{fill:#F9F9F9;}
	.st9{fill:#FCCE00;}
	.st10{fill:#08B3FF;}
	.st11{fill:#371A45;}
	.st12{fill:#22A7F0;}
	.st13{fill:#F91E1E;}
	.st14{fill:#FFFFFF;stroke:#FFFFFF;stroke-miterlimit:10;}
	.st15{fill:none;stroke:#FFFFFF;stroke-miterlimit:10;}
	.st16{fill:url(#SVGID_1_);}
	.st17{font-family:'Researcher-Regular';}
	.st18{font-size:13.7599px;}
	.st19{display:none;}
	.st20{display:inline;fill:#FFFFFF;}
	.st21{font-family:'Meteoric-Light';}
	.st22{font-size:48.4899px;}
	.st23{fill:none;}
	.st24{fill:#2F51D5;}
	.st25{font-size:5.0508px;}
	.st26{fill:none;stroke:#231F20;stroke-width:7;stroke-miterlimit:10;}
</style>
<g>
	<g class="st0">
		<ellipse class="st1" cx="500.7" cy="935.6" rx="274.2" ry="30.4"/>
	</g>
	<g>
		<g>
			<g>
				<path class="st2" d="M643.8,721l-156.7-51.8c-13.9-4.6-23-18.3-22-33.2L479.8,419c1.4-21.1,22-35.2,41.7-28.7l156.7,51.8
					c13.9,4.6,23,18.3,22,33.2l-14.7,217.1C684.1,713.4,663.5,727.6,643.8,721z"/>
				<path class="st1" d="M653.7,728.6c-4,0-7.9-0.6-11.8-1.9l-156.7-51.8c-16.5-5.5-27.2-21.6-26-39.2l14.7-217.1
					c0.8-12,7-22.8,16.9-29.4c9.7-6.5,21.6-8.1,32.6-4.5L680,436.5c16.5,5.5,27.2,21.6,26,39.2l-14.7,217.1
					c-0.8,12-7,22.8-16.9,29.4C668.2,726.4,661,728.6,653.7,728.6z M645.6,715.4c7.5,2.5,15.7,1.4,22.3-3.1
					c6.8-4.6,11.1-12,11.7-20.4l14.7-217.1c0.8-12.2-6.5-23.4-17.9-27.1l-156.7-51.8c-7.5-2.5-15.7-1.4-22.3,3.1
					c-6.8,4.6-11.1,12-11.6,20.4L471,636.4c-0.8,12.2,6.5,23.3,17.9,27.1L645.6,715.4z"/>
			</g>
			<g class="st3">
				<path class="st1" d="M624.7,729.6L468,677.8c-13.9-4.6-23-18.3-22-33.2l14.7-217.1c1.4-21.1,22-35.2,41.7-28.7l156.7,51.8
					c13.9,4.6,23,18.3,22,33.2l-14.7,217.1C665,722,644.4,736.1,624.7,729.6z"/>
			</g>
			<g>
				<path class="st1" d="M653.7,728.6c-4,0-7.9-0.6-11.8-1.9l-156.7-51.8c-16.5-5.5-27.2-21.6-26-39.2l14.7-217.1
					c0.8-12,7-22.8,16.9-29.4c9.7-6.5,21.6-8.1,32.6-4.5L680,436.5c16.5,5.5,27.2,21.6,26,39.2l-14.7,217.1
					c-0.8,12-7,22.8-16.9,29.4C668.2,726.4,661,728.6,653.7,728.6z M645.6,715.4c7.5,2.5,15.7,1.4,22.3-3.1
					c6.8-4.6,11.1-12,11.7-20.4l14.7-217.1c0.8-12.2-6.5-23.4-17.9-27.1l-156.7-51.8c-7.5-2.5-15.7-1.4-22.3,3.1
					c-6.8,4.6-11.1,12-11.6,20.4L471,636.4c-0.8,12.2,6.5,23.3,17.9,27.1L645.6,715.4z"/>
			</g>
			<g>
				<path class="st2" d="M631.8,736.3c-8.5,0-16.5-1.7-23.6-4.8c9.1,63.1,8.1,142.2,7.4,171.6c-0.3,9.8-6.2,18.7-15.3,22.4
					c-5,2-11.2,3.4-19,3.4h-88.8c-7.6,0-14.4-5.2-16.2-12.6c-1.3-5.3-1.9-12.6-0.3-22.5c1.4-9.1,6.2-16.1,13-20.9
					c0,0,0.1-42.7-11.2-71.2c-2.7-6.6-5.8-13.4-8.9-19.8c-0.5,0.7-16.3,21.5-16.3,55.5c0,34.6,0,76.5,0,76.5s-5.5,8.5-23.1,8.5
					H324.2c-7.5,0-13.9-5.4-15-12.8c-2.1-13.6-1.2-34.5,20.5-43.7c-19.3-168.2-6.2-269.7,11-328.6l-0.4-0.1
					c-80.7,4.7-124.9-103.5-109.1-161.6c6.1-22.3,16.2-35.5,26.5-43.2c18.4-14,45.7-4.9,51,17.6c3.1,13.1-1.2,24.5-7.3,33.2
					c0.1,0.5,5.8,23.4,18.1,43c1.2-1.2,64.4-61.3,272.9,8c85.5,21.2,95.9,165.2,95.9,165.2C706.1,724.9,659.7,736.3,631.8,736.3z"/>
			</g>
			<g>
				<g class="st3">
					<path class="st1" d="M690.8,619.9c-2.5,33.7-10.9,60.6-19.5,71.5c-0.4,0.5-0.8,1-1.2,1.5c-16.6,19-48,6.3-47.6-19
						c1.7-107.4-59-162.5-59-162.5s8.2,166.2-66.4,202s-126.8-4.1-126.8-4.1s5.1,24.5,30.1,41.8c16,11,25.1,29.7,23.1,49
						c-2.1,20.5-3.9,47.1-2.7,73.1c0.7,14.5-11,26.7-25.6,26.7h-87c0,3.5,0.3,7,0.8,10c1.1,7.4,7.5,12.8,15,12.8h105.2
						c17.5,0,23.1-8.5,23.1-8.5s0-41.9,0-76.5c0-34,15.7-54.8,16.3-55.5c3.2,6.4,6.3,13.2,8.9,19.8C489.1,830.3,489,873,489,873
						c-6.7,4.8-11.5,11.8-13,20.9c-1.5,9.9-1,17.2,0.3,22.5c1.9,7.4,8.5,12.6,16.2,12.6h88.8c7.8,0,14-1.5,19-3.4
						c9.1-3.6,15-12.6,15.3-22.4c0.8-29.4,1.8-108.6-7.4-171.6c7,3.1,15.1,4.8,23.6,4.8C658.1,736.3,700.9,726.2,690.8,619.9z
						 M530.3,901.2h-25.1c-10.1,0-16.9-10.4-12.8-19.6c4.5-10,12.1-15.5,12.1-15.5c1.2-39-6.4-68-13.1-85.7
						c-3.7-9.8,2.3-20.4,12.5-22.7c0.3-0.1,0.6-0.1,0.8-0.2c24.5-5.6,49.3,9.1,55.2,33.6c6.8,28.5,6.6,57.3,4.8,78.3
						C563.4,887.4,548.3,901.2,530.3,901.2z"/>
				</g>
			</g>
			<g class="st3">
				<path class="st1" d="M354.8,499.8l-14.1,37.7l-0.4-0.1c-54.5,3.2-92.3-45.1-106.2-94.6C247.4,466.2,285.4,517.4,354.8,499.8z"/>
			</g>
			<g>
				<path class="st1" d="M592.9,440.9c-0.7,0-1.3-0.1-2-0.3c-106.4-35.3-173.3-36-210.7-30.2c-40.1,6.1-55.6,20.6-55.7,20.8
					c-2.5,2.4-6.6,2.4-9-0.1c-2.5-2.5-2.5-6.5,0-9c2.7-2.6,67.5-64,279.5,6.4c3.3,1.1,5.2,4.7,4.1,8.1
					C598.1,439.2,595.6,440.9,592.9,440.9z"/>
			</g>
			<g>
				<path class="st1" d="M485.3,833c-2,0-3.9-1.3-4.5-3.4c-0.7-2.5,0.8-5,3.2-5.7c2.2-0.6,56.1-14.8,132.8-0.1
					c2.5,0.5,4.2,2.9,3.7,5.4c-0.5,2.5-2.9,4.2-5.4,3.7c-74.6-14.4-128.1-0.2-128.6-0.1C486.1,832.9,485.7,833,485.3,833z"/>
			</g>
			<g>
				<path class="st1" d="M488,867.5c3.8-3.1,8.3-5.1,12.9-6.3c4.6-1.2,9.3-1.6,14-1.4c4.6,0.2,9.2,1,13.5,2.3
					c4.3,1.4,8.5,3.3,12.1,6c0.3,0.3,0.4,0.7,0.2,1.1c-0.2,0.2-0.5,0.3-0.8,0.3h0c-8.5-1.5-16.7-1.5-24.5-0.2
					c-3.9,0.7-7.6,1.7-11.2,2.9c-3.6,1.2-7,2.7-10.4,4.2l-0.2,0.1c-2.7,1.2-5.8,0-7-2.7C485.5,871.5,486.2,869,488,867.5z"/>
			</g>
			<g>
				<path class="st1" d="M581.8,935.4h-88.8c-10.6,0-19.8-7.2-22.4-17.4c-1.8-7.1-1.9-15.5-0.5-25c1.5-9.9,6.6-18.4,14.7-24.5
					c2.8-2.1,6.8-1.6,9,1.2s1.6,6.8-1.2,9c-5.5,4.2-8.8,9.7-9.8,16.3c-1.2,7.8-1.1,14.5,0.2,19.9c1.1,4.5,5.2,7.7,10,7.7h88.8
					c6.1,0,11.7-1,16.6-3c6.6-2.7,11-9.2,11.2-16.6c0.8-31.5,1.7-111.6-7.8-174.2c-0.5-3.5,1.9-6.8,5.4-7.3c3.5-0.5,6.8,1.9,7.3,5.4
					c9.7,63.7,8.8,144.6,8,176.5c-0.3,12.5-7.9,23.6-19.3,28.2C596.7,934.1,589.5,935.4,581.8,935.4z"/>
			</g>
			<g>
				<path class="st1" d="M564.9,510.6c4.1,5.5,7.1,11.4,9.9,17.4c0.7,1.5,1.4,3,2,4.6c0.6,1.5,1.2,3.1,1.8,4.6
					c1.2,3.1,2.2,6.2,3.3,9.4c1,3.2,1.9,6.4,2.7,9.6c0.4,1.6,0.8,3.2,1.2,4.8l1.1,4.8c1.6,6.4,3,12.9,4.4,19.3
					c1.2,6.5,2.6,13,3.6,19.5c0.5,3.3,1.1,6.5,1.6,9.8l1.3,9.8l0.7,4.9l0.5,4.9l1,9.8c0.6,6.6,1,13.2,1.5,19.7
					c0.2,2.5-1.7,4.8-4.2,5c-2.5,0.2-4.8-1.7-5-4.2l0-0.2c-0.5-6.5-0.9-13-1.5-19.4l-1-9.7l-0.5-4.8l-0.7-4.8l-1.3-9.6
					c-0.5-3.2-1-6.4-1.6-9.6c-1-6.4-2.3-12.8-3.6-19.1c-1.4-6.3-2.7-12.7-4.5-18.9c-0.8-3.1-1.7-6.2-2.7-9.3
					c-0.9-3.1-1.8-6.2-2.8-9.3c-3.6-12.4-7.2-24.8-10.3-37.5l0-0.1c-0.2-0.8,0.3-1.7,1.1-1.9C563.9,509.9,564.5,510.2,564.9,510.6z"
					/>
			</g>
			<g>
				<path class="st1" d="M632.2,742.3c-31.1,0-56.4-21.3-56.4-47.5c0-12.2,6.8-26.1,17.4-35.2c2.5-2.2,6.2-1.9,8.4,0.6
					s1.9,6.2-0.6,8.4c-7.8,6.8-13.3,17.6-13.3,26.3c0,19.7,20,35.6,44.5,35.6c10.5,0,25.8-1.5,37.4-14.8
					c16.9-19.4,21.3-58.1,13.3-115.1c0-0.1,0-0.3,0-0.4c-0.1-1.4-11.1-139.9-91.4-159.8c-3.2-0.8-5.1-4-4.3-7.2
					c0.8-3.2,4-5.1,7.2-4.3c37,9.2,66.2,41.8,84.2,94.4c13,37.8,15.9,72.6,16.2,75.9c8.5,60.4,3.1,102.3-16.2,124.4
					C667.5,736.1,652.4,742.3,632.2,742.3z"/>
			</g>
			<g>
				<path class="st4" d="M405.6,386.2c0,0,2.1,36.2,40,58.4c78.8,46.1,147.4-10.1,147.4-10.1L405.6,386.2"/>
			</g>
			<g>
				<path class="st1" d="M510.4,468.6c-20.3,0-43.6-4.8-67.8-18.9c-40.2-23.5-42.8-61.5-42.9-63.2c-0.1-1.9,0.7-3.7,2.2-4.9
					c1.5-1.2,3.4-1.6,5.3-1.2l187.3,48.2c2.2,0.6,3.8,2.3,4.3,4.5c0.5,2.2-0.3,4.5-2,5.9c-0.7,0.6-18.3,14.9-46.1,23.4
					C539.4,465.9,525.8,468.6,510.4,468.6z M413,394.3c2.9,11.2,11.4,31.1,35.5,45.2c31.1,18.2,64.1,22.1,98.1,11.8
					c13.6-4.1,24.6-9.8,32.1-14.3L413,394.3z"/>
			</g>
			<g>
				<g>
					<path class="st5" d="M353.3,286.3c4.8,31.2,17.6,61.5,38.1,87.6c4.2,5.3,8.7,10.5,13.5,15.4c2.3,2.4,4.8,4.8,7.3,7.1
						c7.6,7,15.6,13.2,23.9,18.8c7.2,4.8,14.6,9,22.2,12.8c9.2,4.5,18.7,8.2,28.3,11.2c3.5,1.1,7.1,2,10.6,2.9
						c65.2,15.9,136.8-2.5,185.7-54.2c72-76.1,67.6-195.7-9.9-267.1c-14.9-13.7-31.5-24.7-49-32.9c-2-1-4.1-1.9-6.2-2.8
						c-5.6-2.4-11.2-4.5-17-6.3c-13.2-4.2-26.8-7-40.5-8.3c-13.7-1.3-27.5-1.2-41.1,0.4c-4.3,0.5-8.6,1.1-12.9,1.9
						c-6.4,1.2-12.8,2.7-19.1,4.6c-31.5,9.2-61,26.5-85,51.9C360.9,173.1,344.8,231.2,353.3,286.3z"/>
					<path class="st1" d="M543.4,448c-15.3,0-30.8-1.8-46.1-5.5c-3.6-0.9-7.1-1.9-10.6-2.9c-9.8-3-19.4-6.8-28.4-11.2
						c-7.8-3.8-15.3-8.1-22.3-12.8c-8.4-5.6-16.5-11.9-24-18.8c-2.8-2.6-5.1-4.9-7.3-7.1c-4.7-4.8-9.3-10-13.6-15.4
						c-20.1-25.5-33.3-55.8-38.2-87.8c-8.9-57.6,9-115,49.2-157.5c23.2-24.6,52.7-42.5,85.2-52c6.1-1.8,12.6-3.3,19.2-4.6
						c4.2-0.8,8.6-1.4,13-2c13.7-1.6,27.5-1.7,41.2-0.4c13.8,1.3,27.5,4.1,40.6,8.3c5.7,1.8,11.5,4,17,6.3c2.2,0.9,4.3,1.8,6.2,2.8
						c17.9,8.3,34.4,19.4,49.1,33c37.7,34.8,59.5,81.9,61.2,132.7c1.7,50.4-16.5,98.4-51.3,135.2C646.9,426.8,595.9,448,543.4,448z
						 M353.8,286.3c4.9,31.8,18.1,62,38,87.3c4.2,5.4,8.8,10.5,13.5,15.4c2.2,2.2,4.5,4.5,7.3,7.1c7.5,6.9,15.5,13.2,23.9,18.7
						c7,4.7,14.5,9,22.2,12.7c9,4.4,18.5,8.2,28.3,11.1c3.5,1,7.1,2,10.6,2.9c67.2,16.4,138.2-4.4,185.2-54
						c34.6-36.6,52.7-84.3,51-134.4c-1.7-50.5-23.4-97.4-60.9-132c-14.7-13.5-31.1-24.5-48.9-32.8c-1.9-0.9-4-1.8-6.2-2.8
						c-5.5-2.4-11.2-4.5-16.9-6.3c-13.1-4.2-26.7-6.9-40.4-8.2c-13.6-1.3-27.4-1.2-41,0.4c-4.3,0.5-8.7,1.2-12.9,1.9
						c-6.5,1.2-13,2.8-19.1,4.6c-32.3,9.4-61.6,27.3-84.7,51.8C362.8,171.8,344.9,228.9,353.8,286.3z"/>
				</g>
				<g class="st3">
					<path class="st1" d="M683.1,387.8c-48.9,51.7-120.5,70.1-185.7,54.2c-3.6-0.9-7.1-1.8-10.6-2.9c-9.7-2.9-19.1-6.7-28.3-11.2
						c-7.6-3.7-15.1-8-22.2-12.8c-8.4-5.5-16.4-11.8-24-18.8c-2.5-2.3-4.9-4.7-7.3-7.1c-4.8-4.9-9.3-10.1-13.5-15.4
						c-20.6-26.1-33.3-56.3-38.1-87.6c-2.7-17.2-2.9-34.6-0.8-51.9c5.3,29.7,17.8,58.4,37.4,83.3c4.2,5.3,8.7,10.5,13.5,15.4
						c2.3,2.4,4.8,4.8,7.3,7.1c7.6,7,15.6,13.2,23.9,18.8c7.2,4.8,14.6,9,22.2,12.8c9.2,4.5,18.7,8.2,28.3,11.2
						c3.5,1.1,7.1,2,10.6,2.9c65.2,15.9,136.8-2.5,185.7-54.2c28.5-30.1,45.1-67.1,49.8-105.2C741.5,282.8,725.6,342.9,683.1,387.8z
						"/>
				</g>
				<g>
					<path class="st1" d="M543.4,453.5c-15.8,0-31.7-1.9-47.4-5.7c-3.7-0.9-7.3-1.9-10.9-3c-10.1-3.1-19.9-7-29.2-11.5
						c-8-3.9-15.7-8.3-22.9-13.2c-8.6-5.7-17-12.3-24.7-19.4c-2.8-2.6-5.3-5-7.5-7.3c-4.9-5-9.5-10.3-13.9-15.9
						c-20.7-26.2-34.3-57.5-39.4-90.3l0,0c-9.2-59.3,9.3-118.4,50.6-162.1c23.9-25.2,54.2-43.8,87.6-53.5c6.3-1.9,12.9-3.4,19.7-4.7
						c4.4-0.8,8.8-1.5,13.3-2c14-1.6,28.3-1.8,42.3-0.4c14.2,1.3,28.2,4.2,41.8,8.5c5.9,1.9,11.8,4.1,17.5,6.5
						c2.3,1,4.4,1.9,6.4,2.9c18.3,8.6,35.3,20,50.5,33.9c38.8,35.8,61.2,84.2,63,136.5c1.8,51.9-17,101.3-52.8,139.1
						C649.8,431.7,597.4,453.5,543.4,453.5z M359.2,285.4c4.8,30.9,17.5,60.2,36.9,84.8c4.1,5.2,8.5,10.2,13.1,14.9
						c2.1,2.2,4.4,4.4,7.1,6.9c7.2,6.7,15,12.8,23.2,18.2c6.8,4.6,14.1,8.7,21.6,12.4c8.8,4.3,18,7.9,27.5,10.8
						c3.4,1,6.9,2,10.3,2.8c65.3,15.9,134.3-4.2,179.9-52.5c33.6-35.5,51.2-81.9,49.5-130.5c-1.7-49.1-22.7-94.6-59.1-128.1
						c-14.2-13.1-30.2-23.8-47.5-31.9c-1.9-0.9-3.8-1.8-6-2.7c-5.4-2.3-10.9-4.4-16.5-6.1c-12.7-4.1-25.9-6.7-39.3-8
						c-13.2-1.3-26.6-1.1-39.8,0.4c-4.2,0.5-8.5,1.1-12.5,1.9c-6.4,1.2-12.6,2.7-18.5,4.4c-31.4,9.2-59.9,26.6-82.3,50.3
						C367.9,174.3,350.6,229.8,359.2,285.4L359.2,285.4z"/>
				</g>
				<g>
					<path class="st1" d="M366.9,332.9C446,443.6,608.6,443.3,662,320.6c36.3-83.5-18.7-183.4-102.4-213.1
						C498.7,86,429.7,91.2,370.4,175.1c0,0-20.4,41.2-19.1,74c1.4,32.8,8.3,64.5,8.3,64.5L366.9,332.9z"/>
				</g>
				<g>
					<path class="st6" d="M662,320.6c-53.4,122.7-216,123-295.1,12.4l-1.5-3.9c108.8,62.2,249.6,35.2,306-87.9
						C675.7,267.5,673.2,294.8,662,320.6z"/>
				</g>
				<g>
					<path class="st1" d="M520.3,438.3c-28.9,0-58.4-6.4-86-19l-0.6-0.3c-8.6-5.7-16.8-12.2-24.5-19.2c-2.8-2.6-5.3-5-7.5-7.3
						c-4.8-4.9-9.5-10.2-13.8-15.7c-20.5-26-34-57-39.1-89.6l0,0c-9.1-58.9,9.2-117.5,50.2-160.8c23.7-25.1,53.8-43.4,86.9-53.1
						l0.4-0.1l0.5,0c25.2-2,52,2,80,11.9c50.2,17.8,93.3,58.6,115.4,109.3c19.8,45.6,20.7,94,2.3,136.1c-20,45.9-54,79.1-98.4,96.1
						C565.4,434.4,543.1,438.3,520.3,438.3z M438.4,411.3c47,21.5,99.7,24,144.6,6.8c42.1-16.1,74.4-47.7,93.4-91.3
						c17.3-39.9,16.5-85.7-2.3-129c-21.1-48.5-62.3-87.5-110.2-104.5c-26.5-9.4-52.1-13.2-75.8-11.4c-31.5,9.3-60,26.7-82.5,50.5
						c-39.1,41.3-56.6,97.2-47.9,153.3l0,0c4.8,31.1,17.7,60.7,37.2,85.5c4.1,5.3,8.6,10.3,13.2,15c2.1,2.2,4.5,4.5,7.1,7
						C422.5,399.8,430.3,405.9,438.4,411.3z"/>
				</g>
				<g>
					<path class="st1" d="M519.2,419.3c-60.1,0-118.7-30.9-156.3-83.5l-0.4-0.5l-7.6-20.6c-0.3-1.3-7.1-32.5-8.5-65.4
						c-1.4-33.7,18.7-74.7,19.6-76.4l0.4-0.7c51.9-73.4,117.5-96.8,194.9-69.4c44.9,15.9,83.5,52.5,103.2,97.8
						c17.8,40.8,18.5,84.1,2.1,121.9c-23.8,54.7-70.8,89.6-129,95.8C531.4,419,525.3,419.3,519.2,419.3z M371.2,330.6
						c39.4,54.7,102.6,84.5,165.2,77.9c54.6-5.8,98.7-38.5,121-89.9c15.3-35.2,14.6-75.7-2.1-114c-18.6-42.9-55.1-77.4-97.5-92.4
						c-72.6-25.7-134.3-3.7-183.3,65.4c-1.9,3.9-19.6,41.6-18.4,71.3c1.3,30.2,7.4,59.9,8.2,63.3L371.2,330.6z"/>
				</g>
				<g>
					<path class="st5" d="M744.8,341.5c-10.6,35.7-40.9,59.4-67.7,52.9s-39.9-40.8-29.3-76.5c0.1-0.2,0.1-0.5,0.2-0.7
						c10.8-35.4,40.9-58.7,67.5-52.2c20.7,5,33.2,26.6,33,52.6C748.4,325.3,747.2,333.4,744.8,341.5z"/>
					<path class="st1" d="M686.1,396.4c-3.1,0-6.2-0.4-9.2-1.1c-10.7-2.6-19.6-9.6-25.7-20.1c-8.8-15.4-10.5-36.9-4.3-57.6
						c0.1-0.2,0.1-0.5,0.2-0.7c10.9-35.7,41.6-59.4,68.6-52.9c20.4,5,34,26.5,33.7,53.6c-0.1,8-1.3,16.1-3.7,24.1l0,0
						C736.2,373.9,710.8,396.4,686.1,396.4z M706.5,264.9c-23.6,0-48.2,21.7-57.6,52.6c-0.1,0.2-0.2,0.5-0.2,0.7
						c-6,20.2-4.4,41.2,4.2,56.1c5.8,10.1,14.3,16.7,24.5,19.2c26.3,6.4,56.1-17.1,66.6-52.3l0,0c2.3-7.9,3.5-15.8,3.6-23.6
						c0.2-26.2-12.7-47-32.3-51.7C712.4,265.2,709.4,264.9,706.5,264.9z"/>
				</g>
				<g class="st3">
					<path class="st1" d="M744.8,341.5c-10.6,35.7-40.9,59.4-67.7,52.9s-39.9-40.8-29.3-76.5c0.1-0.2,0.1-0.5,0.2-0.7
						c1.9,4.4,5.4,9.1,12,9.4c11.5,0.5,37.8-17.7,37.8-17.7s22,3.6,50.7,8.7C748.4,325.3,747.2,333.4,744.8,341.5z"/>
				</g>
				<g>
					<path class="st1" d="M686.1,400.5c-3.4,0-6.8-0.4-10.1-1.2c-11.8-2.9-21.6-10.5-28.2-22c-9.5-16.6-11.3-38.7-4.7-60.8
						c11.3-38.2,44.4-63.5,73.7-56.4c11.8,2.9,21.6,10.5,28.2,22c9.5,16.6,11.3,38.7,4.7,60.8C739.6,376.8,712.5,400.5,686.1,400.5z
						 M706.3,268.9c-22,0-45,20.8-53.7,50.4c-5.7,19.1-4.2,38.9,3.8,52.9c5.2,9.1,12.8,15.1,21.9,17.3c24.2,5.9,51.9-16.3,61.7-49.5
						l0,0c5.7-19.1,4.2-38.9-3.8-52.9c-5.2-9.1-12.8-15.1-21.9-17.3C711.7,269.2,709,268.9,706.3,268.9z"/>
				</g>
				<g>
					
						<ellipse transform="matrix(0.3747 -0.9272 0.9272 0.3747 129.2206 870.7762)" class="st5" cx="710.2" cy="339.6" rx="53.7" ry="40.6"/>
					<path class="st1" d="M701.8,392.2c-8.4,0-16-3-22.1-8.9c-16.8-16.1-16.9-48.8-0.2-72.8c9.3-13.4,22.2-21.9,35.4-23.2
						c9.8-1,18.7,2,25.7,8.7c16.8,16.1,16.9,48.8,0.2,72.8l0,0c-9.3,13.4-22.2,21.9-35.4,23.2C704.1,392.1,702.9,392.2,701.8,392.2z
						 M718.5,288.1c-1.1,0-2.3,0.1-3.5,0.2c-12.9,1.3-25.5,9.6-34.7,22.8c-16.5,23.6-16.4,55.7,0.1,71.5c6.8,6.5,15.4,9.4,24.9,8.5
						c12.9-1.3,25.5-9.6,34.7-22.7c16.5-23.7,16.4-55.7-0.1-71.5C733.9,291,726.6,288.1,718.5,288.1z"/>
				</g>
				<g class="st3">
					<path class="st1" d="M666.9,350.6c0.4-10.1,3.6-20.2,8.7-29.1c1.1,23.2,18,37.5,39.5,32.4c13.9-3.3,26.4-14,34.4-27.7
						c0.1,1.5,0.1,3,0,4.5c-1,25.9-20.3,51.3-43.1,56.7C683.5,393,665.9,376.5,666.9,350.6z"/>
				</g>
				<g>
					<path class="st1" d="M700.9,396.2c-2.4,0-4.7-0.3-7-0.8c-8.7-2-15.9-7.6-20.8-16.2c-7.7-13.2-8.9-32.2-3.3-50.8
						c9.4-31.3,35.3-52.4,57.8-47.1c8.7,2,15.9,7.6,20.8,16.2c7.7,13.2,8.9,32.2,3.3,50.8l0,0C743.3,376.3,721.5,396.2,700.9,396.2z
						 M720.3,289.4c-16.7,0-34.7,17.4-42,41.6c-4.9,16.2-4,32.6,2.5,43.7c3.7,6.4,8.9,10.5,15.1,12c18,4.2,39.2-14.2,47.2-41
						c4.9-16.2,4-32.6-2.5-43.7c-3.7-6.4-8.9-10.5-15.1-12C723.8,289.6,722,289.4,720.3,289.4z M747.4,347L747.4,347L747.4,347z"/>
				</g>
				<g class="st7">
					<path class="st5" d="M590.4,160.7c0,0-80.9-23-140.6,6.4c-0.1,0-0.1,0.1-0.2,0.1c-12.5,6.2-23.2,15.7-30.8,27.3
						c-10.1,15.4-14.7,27.4-18.4,38.2c-11.2,32.8-10.2,50.2-10.2,50.2c-13-23.7-17-46.9-8-74.3c0.9-2.7,1.9-5.4,3.1-8.2
						c0.3-0.6,0.5-1.3,0.8-1.9c0,0,0,0,0,0c2.7-5.5,6.6-12.6,11.6-20.2c15.1-23,40.9-51,78.1-55.4
						C545.7,114.5,594.4,158.2,590.4,160.7z"/>
					<path class="st1" d="M391.5,287l-2-3.6c-14.2-25.8-16.6-48.9-8-75.1c0.9-2.7,1.9-5.5,3.1-8.3c0.2-0.6,0.5-1.2,0.8-1.8l0-0.4
						l0.2-0.1c3.4-6.9,7.3-13.6,11.5-20c15.1-23,41.1-51.3,78.8-55.8c34.9-4.2,63.5,4.8,81.3,13c20.3,9.4,32.9,20.8,34.2,24.5
						c0.5,1.3-0.2,1.9-0.5,2.1l-0.4,0.2l-0.4-0.1c-0.8-0.2-81.2-22.6-139.9,6.3l-0.6-0.8l0.4,0.8c-12.3,6.1-22.8,15.4-30.4,27
						c-10.3,15.7-14.8,27.8-18.3,38c-11,32.2-10.1,49.7-10.1,49.9L391.5,287z M387.1,199c-0.3,0.6-0.5,1.2-0.8,1.8
						c-1.1,2.8-2.2,5.5-3,8.2c-8.1,24.5-6.2,46.3,6.1,70.3c0.3-6.8,1.9-22.6,10.2-46.8c3.5-10.3,8.1-22.6,18.5-38.4
						c7.8-11.8,18.5-21.4,31.1-27.6l0.2-0.1c55.1-27.2,129-9.6,139.9-6.8c-0.6-1-2.2-2.9-5.6-5.9c-16.2-13.9-57.1-35.9-107.6-29.8
						c-37,4.4-62.5,32.4-77.5,55c-4.2,6.4-8.1,13.2-11.5,20.1L387.1,199z"/>
				</g>
				<g class="st7">
					
						<ellipse transform="matrix(5.529833e-02 -0.9985 0.9985 5.529833e-02 330.945 865.1771)" class="st5" cx="622.7" cy="257.7" rx="29.4" ry="25.5"/>
					<path class="st1" d="M622.3,288.1c-0.5,0-1,0-1.5,0c-14.5-1-25.5-15.3-24.4-32c0.6-8.8,4.4-16.9,10.5-22.3
						c5.1-4.5,11.4-6.7,17.7-6.3c14.5,1,25.5,15.3,24.4,32c-0.6,8.8-4.4,16.9-10.5,22.3C633.8,285.9,628.1,288.1,622.3,288.1z
						 M623.1,229.2c-5.4,0-10.7,2.1-15,5.9c-5.8,5.1-9.4,12.7-9.9,21c-1,15.7,9.2,29.2,22.7,30.1c5.9,0.4,11.7-1.7,16.4-5.8
						c5.8-5,9.4-12.7,9.9-21c1-15.7-9.2-29.2-22.7-30.1C624,229.3,623.6,229.2,623.1,229.2z"/>
				</g>
				<g class="st7">
					
						<ellipse transform="matrix(0.9993 -3.809901e-02 3.809901e-02 0.9993 -11.404 23.8274)" class="st5" cx="619.5" cy="311.1" rx="10.6" ry="12.2"/>
					<path class="st1" d="M619.6,324.2c-6.3,0-11.5-5.7-11.6-12.9l0,0c-0.1-3.8,1.3-7.4,3.7-9.9c2-2.1,4.7-3.3,7.5-3.4
						c6.4-0.1,11.6,5.7,11.8,12.9c0.1,3.8-1.3,7.4-3.7,9.9c-2,2.1-4.7,3.3-7.5,3.4C619.7,324.2,619.6,324.2,619.6,324.2z
						 M619.4,299.9c0,0-0.1,0-0.1,0c-2.3,0-4.5,1-6.2,2.8c-2.1,2.2-3.2,5.3-3.2,8.6l0,0c0.1,6.1,4.5,11,9.7,11c0,0,0.1,0,0.1,0
						c2.3,0,4.5-1,6.2-2.8c2.1-2.2,3.2-5.3,3.2-8.6C629,304.8,624.6,299.9,619.4,299.9z"/>
				</g>
			</g>
			<g>
				<path class="st1" d="M330.1,872c-3,0-5.5-2.2-5.9-5.3c-13.7-119.6-12.8-219.4,2.8-296.4c0.6-3.2,3.8-5.3,7-4.7
					c3.2,0.7,5.3,3.8,4.7,7c-15.3,75.8-16.2,174.3-2.6,292.7c0.4,3.3-2,6.2-5.2,6.6C330.6,872,330.3,872,330.1,872z"/>
			</g>
			<g>
				<path class="st1" d="M377.8,465.7c-2.9,3.5-5.6,7.7-7.9,11.8c-1.2,2.1-2.3,4.2-3.4,6.3c-1,2.2-2.1,4.3-3.1,6.5
					c-4,8.7-7.4,17.6-10.4,26.8c-1.6,4.5-2.8,9.1-4.2,13.7c-0.7,2.3-1.3,4.6-1.9,6.9l-1.9,6.9l-3.3,14c-1,4.7-2,9.4-3,14.1l0,0.2
					c-0.7,3.2-3.9,5.2-7.1,4.5c-3.1-0.7-5.1-3.8-4.5-7c1-4.8,2.1-9.6,3.2-14.5c1.2-4.8,2.6-9.5,3.9-14.3c2.9-9.5,6.1-18.8,9.9-28
					c1.8-4.6,4-9.1,6.1-13.6l3.5-6.6c1.2-2.2,2.5-4.3,3.7-6.5c5.2-8.5,10.9-16.7,18.6-23.4c0.6-0.5,1.4-0.4,1.9,0.1
					c0.4,0.5,0.4,1.2,0,1.8L377.8,465.7z"/>
			</g>
			<g>
				<path class="st1" d="M260.2,483.9c-4,0-8-0.4-12.2-1.2c-2.5-0.5-4-2.9-3.5-5.3c0.5-2.5,2.9-4,5.3-3.5
					c40.5,8.1,74.6-35.3,74.9-35.8c1.5-2,4.4-2.4,6.3-0.8c2,1.5,2.3,4.4,0.8,6.3C330.4,445.4,300.2,483.9,260.2,483.9z"/>
			</g>
			<g>
				<path class="st1" d="M308.1,381.9c1.1,2.9,2.3,6.2,3.4,9.3l1.7,4.7l1.7,4.7c2.4,6.2,4.7,12.5,7.5,18.5c1.4,3,2.9,6,4.5,8.9
					c0.8,1.5,1.7,2.9,2.5,4.3c0.9,1.4,1.8,2.8,2.8,4.1c3.8,5.5,8.3,10.3,13.9,14.3l0,0c0.4,0.3,0.5,0.9,0.2,1.3
					c-0.2,0.3-0.6,0.5-1,0.4c-7-1.9-13.4-6-18.8-10.9c-2.7-2.5-5.3-5.1-7.6-7.9c-2.3-2.8-4.6-5.7-6.5-8.8c-4-6-7.5-12.4-10.4-19.1
					c-0.7-1.6-1.4-3.3-2-5c-0.6-1.7-1.2-3.4-1.7-5.1c-1.1-3.5-2-6.8-2.6-10.6c-0.6-3.5,1.8-6.8,5.3-7.4c3.1-0.5,6,1.3,7,4
					L308.1,381.9z"/>
			</g>
			<g>
				<path class="st8" d="M309.1,350.2c-5.4-22.5-32.6-31.6-51-17.7c-10.2,7.8-20.4,20.9-26.5,43.2c-0.5,1.9-1,3.8-1.4,5.8
					c14.1,10.9,32.4,17.5,50.9,21.5C282.2,402.5,316.5,381.3,309.1,350.2z"/>
			</g>
			<g>
				<path class="st1" d="M335.6,543.5c-29.1,0-55.6-13.7-76.8-39.9c-29.1-35.8-43.2-91.5-32.9-129.4c5.6-20.7,15.2-36.3,28.6-46.4
					c10.4-7.9,24.1-10,36.5-5.6c12.1,4.3,21,14.3,24,26.6c8.4,35.4-29.1,58.4-30.7,59.4c-2.8,1.7-6.5,0.8-8.2-2
					c-1.7-2.8-0.8-6.5,2-8.2l0,0c0.3-0.2,31.6-19.6,25.3-46.5c-2-8.5-8-15.1-16.4-18.1c-8.6-3.1-18-1.6-25.3,3.8
					c-11.2,8.5-19.4,22-24.3,40.1C228,412,241.1,463,268,496.2c14,17.2,37.9,37.3,72.4,35.3c3.3-0.2,6.1,2.3,6.3,5.6
					s-2.3,6.1-5.6,6.3C339.2,543.4,337.4,543.5,335.6,543.5z"/>
			</g>
			<g>
				<g>
					<path class="st9" d="M596.2,740.6c-7.1,0-12.8-5.7-12.8-12.8c0-21.2,15.5-39.5,35.2-41.6c7-0.8,13.4,4.3,14.1,11.4
						c0.8,7-4.3,13.4-11.4,14.1c-7.2,0.8-12.3,9.1-12.3,16.1C609,734.8,603.3,740.6,596.2,740.6z"/>
					<path class="st1" d="M596.2,745.9c-10,0-18.1-8.1-18.1-18.1c0-23.8,17.5-44.4,39.9-46.8c4.8-0.5,9.5,0.9,13.3,3.9
						c3.8,3,6.1,7.3,6.7,12.2c1.1,9.9-6.1,18.9-16,19.9c-4.2,0.5-7.6,6.3-7.6,10.8C614.3,737.7,606.2,745.9,596.2,745.9z M620,691.4
						c-0.3,0-0.5,0-0.8,0c-17.1,1.8-30.5,17.8-30.5,36.3c0,4.2,3.4,7.5,7.5,7.5s7.5-3.4,7.5-7.5c0-9.4,6.8-20.3,17-21.4
						c4.1-0.5,7.1-4.2,6.7-8.3c-0.2-2-1.2-3.8-2.8-5.1C623.3,692,621.7,691.4,620,691.4z"/>
				</g>
			</g>
			<g class="st3">
				<path class="st1" d="M632.7,697.5c-0.6-5.6-4.8-10-10-11.1c0.4,1,0.7,2.1,0.8,3.2c0.8,7-4.3,13.4-11.4,14.1
					c-7.2,0.8-12.3,9.1-12.3,16.1c0,7.1-5.7,12.8-12.8,12.8c-0.9,0-1.8-0.1-2.7-0.3c1.8,4.8,6.5,8.2,12,8.2
					c7.1,0,12.8-5.7,12.8-12.8c0-7,5-15.3,12.3-16.1C628.4,710.9,633.5,704.6,632.7,697.5z"/>
			</g>
			<g>
				<rect x="540.2" y="727.8" class="st10" width="197.1" height="158.9"/>
			</g>
			<g class="st7">
				<polygon class="st5" points="546.8,739.7 737.2,739.7 737.2,727.8 540.2,727.8 540.2,886.7 546.8,886.7 				"/>
			</g>
			<g class="st3">
				<g>
					<path class="st11" d="M720.3,727.8c-4.4,81-71.4,145.2-153.5,145.2h-26.7v13.7h197.1V727.8L720.3,727.8L720.3,727.8z"/>
				</g>
				<g>
					<path class="st1" d="M737.9,887.3H539.5v-15h27.3c81.3,0,148.4-63.5,152.8-144.6l0-0.6h18.2V887.3z M540.8,886h195.7V728.4
						h-15.7c-4.7,81.5-72.3,145.2-154.1,145.2h-26V886z"/>
				</g>
			</g>
			<g>
				<path class="st1" d="M737.2,893.1H540.2c-3.5,0-6.4-2.9-6.4-6.4V727.8c0-3.5,2.9-6.4,6.4-6.4h197.1c3.5,0,6.4,2.9,6.4,6.4v158.9
					C743.6,890.2,740.8,893.1,737.2,893.1z M546.6,880.3h184.3V734.2H546.6V880.3z"/>
			</g>
			<g>
				<path class="st1" d="M737.2,890.6H560.1c-2.2,0-4-1.8-4-4V727.8c0-2.2,1.8-4,4-4h177.1c2.2,0,4,1.8,4,4v158.9
					C741.2,888.9,739.4,890.6,737.2,890.6z M564.1,882.7h169.2v-151H564.1V882.7z"/>
			</g>
			<g>
				<path class="st1" d="M737.2,890.6H581.8c-2.2,0-4-1.8-4-4V727.8c0-2.2,1.8-4,4-4h155.5c2.2,0,4,1.8,4,4v158.9
					C741.2,888.9,739.4,890.6,737.2,890.6z M585.7,882.7h147.6v-151H585.7V882.7z"/>
			</g>
			<g>
				<path class="st1" d="M591.6,616.3c-1.4,0-2.8-0.6-3.7-1.8c-1.5-2-1.2-4.9,0.8-6.5c1.7-1.3,41.2-30.9,101.4-12.8
					c2.5,0.7,3.8,3.3,3.1,5.8c-0.7,2.5-3.3,3.8-5.8,3.1c-55.5-16.7-92.8,11-93.1,11.3C593.5,616,592.5,616.3,591.6,616.3z"/>
			</g>
			<g>
				<path class="st5" d="M330.7,572.4l65.2,13c6.3,1.3,12.5-2.8,13.8-9.2l5-24.9c1.3-6.3-2.9-12.5-9.2-13.8l-65.2-13
					c-6.3-1.3-12.5,2.8-13.8,9.2l-5,24.9C320.2,565,324.3,571.2,330.7,572.4z"/>
			</g>
			<g>
				<path class="st1" d="M398.2,591c-1.1,0-2.2-0.1-3.4-0.3l-65.2-13l0,0c-9.2-1.8-15.2-10.8-13.3-20l5-24.9
					c1.8-9.2,10.8-15.2,20-13.3l65.2,13c9.2,1.8,15.2,10.8,13.3,20l-5,24.9c-0.9,4.5-3.5,8.3-7.2,10.8
					C404.8,590,401.5,591,398.2,591z M331.7,567.3l65.2,13c1.7,0.3,3.4,0,4.8-1s2.4-2.4,2.7-4.1l5-24.9c0.7-3.5-1.6-6.9-5-7.5
					l-65.2-13c-3.5-0.7-6.9,1.6-7.5,5l-5,24.9C326,563.2,328.3,566.6,331.7,567.3L331.7,567.3z"/>
			</g>
			<g>
				<path class="st5" d="M414.8,508.4l125.3,26.8c13.8,3,22.6,16.6,19.7,30.4l-13.5,62.8c-3,13.8-16.6,22.6-30.4,19.7l-125.3-26.8
					c-13.8-3-22.6-16.6-19.7-30.4l13.5-62.8C387.4,514.3,401,505.5,414.8,508.4z"/>
				<path class="st1" d="M521.4,654c-2.2,0-4.3-0.2-6.5-0.7l-125.3-26.8c-8-1.7-14.9-6.5-19.4-13.4c-4.5-6.9-6-15.2-4.3-23.2
					l13.5-62.8c3.6-16.7,20-27.3,36.7-23.7l125.3,26.8c16.7,3.6,27.3,20,23.7,36.7l-13.5,62.8c-1.7,8-6.5,14.9-13.4,19.4
					C533,652.3,527.2,654,521.4,654z M409.5,513.1c-9.4,0-17.8,6.5-19.9,16.1L376.1,592c-1.1,5.3-0.1,10.7,2.8,15.3
					s7.5,7.7,12.8,8.8L517.1,643c5.3,1.1,10.7,0.1,15.3-2.8s7.7-7.5,8.8-12.8l13.5-62.8c2.3-11-4.7-21.8-15.6-24.1l-125.3-26.8
					C412.3,513.3,410.9,513.1,409.5,513.1z"/>
			</g>
			<g class="st3">
				<path class="st1" d="M414.8,508.4l125.3,26.8c13.8,3,22.6,16.6,19.7,30.4l-13.5,62.8c-3,13.8-16.6,22.6-30.4,19.7l-125.3-26.8
					c-13.8-3-22.6-16.6-19.7-30.4l13.5-62.8C387.4,514.3,401,505.5,414.8,508.4z"/>
			</g>
			<g>
				<path class="st5" d="M382.8,501.6l125.3,26.8c13.8,3,22.6,16.6,19.7,30.4l-13.5,62.8c-3,13.8-16.6,22.6-30.4,19.7l-125.3-26.9
					c-13.8-3-22.6-16.6-19.7-30.4l13.5-62.8C355.4,507.5,369,498.7,382.8,501.6z"/>
			</g>
			<g>
				<g>
					<ellipse class="st12" cx="486" cy="562.1" rx="15" ry="15.9"/>
				</g>
				<g class="st7">
					<path class="st5" d="M475,568.7c0-8.8,6.7-15.9,15-15.9c4,0,7.6,1.7,10.3,4.3c-2-6.4-7.6-11-14.3-11c-8.3,0-15,7.1-15,15.9
						c0,4.5,1.8,8.6,4.7,11.5C475.2,572.1,475,570.4,475,568.7z"/>
				</g>
				<g>
					<path class="st1" d="M486,581.3c-10.1,0-18.3-8.6-18.3-19.2c0-10.6,8.2-19.2,18.3-19.2s18.3,8.6,18.3,19.2
						C504.3,572.7,496.1,581.3,486,581.3z M486,549.5c-6.5,0-11.7,5.6-11.7,12.6s5.2,12.6,11.7,12.6s11.7-5.6,11.7-12.6
						C497.7,555.2,492.5,549.5,486,549.5z"/>
				</g>
			</g>
			<g class="st3">
				<path class="st1" d="M517.9,532.9c0.5,3.1,0.5,6.3-0.2,9.5l-13.5,62.8c-3,13.8-16.6,22.6-30.4,19.7l-125.3-26.8
					c-3.6-0.8-6.9-2.3-9.8-4.4c1.7,10.1,9.3,18.6,19.9,20.9L484,641.4c13.8,3,27.5-5.9,30.4-19.7l13.5-62.8
					C530,548.8,525.8,538.7,517.9,532.9z"/>
			</g>
			<g>
				<path class="st1" d="M489.3,647.2c-2.2,0-4.3-0.2-6.5-0.7l-125.3-26.8c-8-1.7-14.9-6.5-19.4-13.4c-4.5-6.9-6-15.2-4.3-23.2
					l13.5-62.8c1.7-8,6.5-15,13.4-19.4c6.9-4.5,15.2-6,23.2-4.3l125.3,26.8c16.7,3.6,27.3,20,23.7,36.7l-13.5,62.8
					c-1.7,8-6.5,14.9-13.4,19.4C501,645.6,495.2,647.2,489.3,647.2z M377.4,506.4c-3.9,0-7.7,1.1-11,3.3c-4.6,3-7.7,7.5-8.8,12.8
					l-13.5,62.8c-1.1,5.3-0.1,10.7,2.8,15.3s7.5,7.7,12.8,8.8l125.3,26.8c5.3,1.1,10.7,0.1,15.3-2.8c4.6-3,7.7-7.5,8.8-12.8
					l13.5-62.8c2.3-11-4.7-21.8-15.6-24.1l-125.3-26.8l0,0C380.3,506.5,378.9,506.4,377.4,506.4z"/>
			</g>
			<g>
				<path class="st1" d="M414,631.9c-0.3,0-0.7,0-1-0.1c-3.2-0.6-5.4-3.7-4.8-6.9l8.6-48.4L381.9,554c-2.1-1.3-3.1-3.8-2.6-6.3
					l9.4-42.5c0.7-3.2,3.9-5.2,7.1-4.5c3.2,0.7,5.2,3.9,4.5,7.1l-8.5,38.4l34.6,22.4c2,1.3,3,3.7,2.6,6l-9.3,52.3
					C419.3,629.9,416.8,631.9,414,631.9z"/>
			</g>
			<g>
				<path class="st5" d="M593.6,626l-50.9-10.2c-6.3-1.3-10.4-7.4-9.2-13.8l5-24.8c1.3-6.4,7.4-10.5,13.8-9.2l32,6.4
					C587.8,589.2,591.1,606.5,593.6,626z"/>
				<path class="st1" d="M599.8,632.6L541.7,621c-9.2-1.8-15.2-10.8-13.3-20l5-24.8c0.9-4.5,3.5-8.3,7.2-10.8
					c3.8-2.5,8.3-3.4,12.8-2.5l35.4,7.1l0.8,3.3c4,16.8,7.1,34.3,9.4,52.1L599.8,632.6z M549.9,573.1c-1.3,0-2.5,0.4-3.5,1.1
					c-1.4,1-2.4,2.4-2.7,4.1l-5,24.8c-0.7,3.5,1.6,6.9,5,7.5l43.6,8.7c-2-13.8-4.5-27.3-7.5-40.4l-28.7-5.7
					C550.8,573.1,550.4,573.1,549.9,573.1z"/>
			</g>
			<g class="st3">
				<path class="st1" d="M584.3,574.4l-17.2-3.4c0.6,2.8,1.1,5.6,1.7,8.6c2.7,14.2-9.9,26.6-24,23.8l-11-2.2l-0.2,0.9
					c-1.3,6.3,2.8,12.5,9.2,13.8l50.9,10.2C591.1,606.5,587.8,589.2,584.3,574.4z"/>
			</g>
			<g>
				<g>
					<polygon class="st13" points="481.5,480.6 508,461.6 499.2,439 460.4,426.5 441.2,441.4 447.1,465.2 					"/>
					<path class="st1" d="M482.2,487.4l-40.2-18l-7.4-30.4l24.7-19.2l44.5,14.4l11.5,29.5L482.2,487.4z M452.1,461l28.7,12.8
						l20-14.3l-6.1-15.6l-33.1-10.7l-13.7,10.6L452.1,461z"/>
				</g>
				<g>
					<path class="st1" d="M481.5,486.5c-0.8,0-1.6-0.2-2.4-0.5l-34.5-15.4c-1.7-0.8-2.9-2.2-3.4-4l-5.8-23.8
						c-0.6-2.3,0.3-4.7,2.1-6.1l19.2-14.9c1.5-1.2,3.6-1.6,5.5-1l38.8,12.5c1.7,0.5,3.1,1.8,3.7,3.5l8.8,22.6c1,2.5,0.1,5.4-2.1,7
						l-26.5,19C484,486.2,482.7,486.5,481.5,486.5z M452.1,461l28.7,12.8l20-14.3l-6.1-15.6l-33.1-10.7l-13.7,10.6L452.1,461z"/>
				</g>
				<g>
					<path class="st13" d="M481.5,480.6l-34.5-15.4c0,0-27,39.9-50.4,115.6c0,0,11.4,36.7,31.9,54.2l53.4-28.2
						C481.9,606.9,478.1,516.6,481.5,480.6z"/>
					<path class="st1" d="M427.8,642.2l-3.1-2.6c-21.6-18.4-33.2-55.4-33.7-57l-0.5-1.8l0.5-1.8c23.4-75.7,50-115.5,51.2-117.2
						l2.8-4.1l42.9,19.1l-0.4,4.2c-3.3,35.2,0.4,124.6,0.5,125.5l0.2,3.8L427.8,642.2z M402.9,580.8c2.3,6.8,11.8,32.3,26.6,47.1
						l46.4-24.5c-0.7-16.9-3.1-85-0.6-119.1l-25.9-11.6C442.1,484.6,421.3,521.6,402.9,580.8z"/>
				</g>
				<g class="st3">
					<path class="st1" d="M482.3,481l26.7-19.2l-9.2-23.6l-39.4-11.9l-17.4,16.6l14.8,3.2c12.4,2.7,15.7,18.7,5.4,26.1l0,0
						c-2.2,24-1.2,72.4-0.4,101.9c0.5,15-7.7,29-21,36l-25.1,13.2c3.3,4.5,7,8.8,11.1,12.2l0.4,0.4l54.4-28.7l0-0.5
						C482.8,605.9,479,516.9,482.3,481z"/>
				</g>
				<g>
					<path class="st1" d="M428.5,641c-1.4,0-2.8-0.5-3.9-1.4c-21.6-18.4-33.2-55.4-33.7-57c-0.4-1.1-0.4-2.4,0-3.5
						c23.4-75.7,50-115.5,51.2-117.2c1.6-2.4,4.7-3.3,7.4-2.1l34.5,15.4c2.3,1,3.7,3.5,3.5,6c-3.3,35.2,0.4,124.6,0.5,125.5
						c0.1,2.3-1.1,4.4-3.2,5.5l-53.4,28.2C430.4,640.8,429.5,641,428.5,641z M402.9,580.8c2.3,6.8,11.8,32.3,26.6,47.1l46.4-24.5
						c-0.7-16.9-3.1-85-0.6-119.1l-25.9-11.6C442.1,484.6,421.3,521.6,402.9,580.8z"/>
				</g>
			</g>
			<g>
				<path class="st1" d="M520.2,732.9c-11.8,6.9-24.9,11.8-38.5,14.6c-13.6,2.7-27.9,3.9-41.7,1.4c-6.9-1.3-13.7-3.2-20.3-5.4
					l-4.9-1.8l-4.8-2c-1.6-0.7-3.2-1.5-4.7-2.2l-2.3-1.1l-2.3-1.2c-12.3-6.5-23.2-15.1-32.5-25c-0.4-0.5-0.4-1.2,0-1.6
					c0.4-0.4,1-0.4,1.5-0.1l0,0c5.4,3.9,11,7.5,16.8,10.7c5.8,3.2,11.7,5.9,17.8,8.2c12.2,4.6,24.9,7.3,37.6,8.6
					c6.4,0.5,12.7,1.1,19.1,1.5c6.4,0.4,12.9,0.3,19.3-0.1c12.9-0.9,25.9-3.4,38.5-7.5h0c0.9-0.3,1.9,0.2,2.2,1.1
					C521.3,731.6,520.9,732.5,520.2,732.9z"/>
			</g>
			<g>
				<path class="st1" d="M489.3,879.4C489.3,879.4,489.3,879.4,489.3,879.4c-3.6,0-6.4-2.9-6.4-6.4c0-0.4,0-41.8-10.8-68.8
					c-11-27.6-30.1-57.3-30.3-57.7c-1.9-3-1-6.9,1.9-8.8c3-1.9,6.9-1,8.9,1.9c0.8,1.3,19.9,31.1,31.4,59.8
					c11.7,29.3,11.7,71.8,11.7,73.6C495.7,876.6,492.9,879.4,489.3,879.4z"/>
			</g>
			<g>
				<path class="st1" d="M470.8,783.3c-1.2,2.3-2.4,4.8-3.4,7.4c-1.1,2.5-1.9,5.1-2.8,7.7c-1.6,5.2-3,10.4-3.8,15.7
					c-0.9,5.3-1.5,10.6-1.6,15.9c-0.1,1.3-0.1,2.7,0,4l0,4l0.2,8.5c0.3,11.3,0.3,22.5,0.2,33.8c-0.1,11.3-0.3,22.5-0.3,33.8v0.1
					c0,1.3-0.4,2.4-1,3.4c-0.3,0.5-0.4,0.5-0.6,0.8l-0.4,0.5c-0.3,0.3-0.5,0.6-0.8,0.9c-0.5,0.5-1.1,1.1-1.6,1.5
					c-1.1,0.9-2.2,1.7-3.4,2.4c-2.3,1.4-4.7,2.4-7.2,3.2c-4.9,1.5-9.8,2.1-14.5,2.1h-25.4h-50.8h-25.4h-3.2h-0.4l-0.6,0l-1.1,0
					c-0.8-0.1-1.5-0.2-2.2-0.3c-3-0.6-5.8-1.7-8.3-3.4c-2.5-1.7-4.6-3.9-6.2-6.5c-0.8-1.3-1.4-2.7-2-4.1c-0.2-0.7-0.5-1.5-0.6-2.2
					l-0.2-1.1l-0.1-0.5l-0.1-0.4c-0.7-4.6-0.9-9.3-0.6-14c0.3-4.8,1.3-9.6,3.1-14.3c1.9-4.7,4.7-9.1,8.3-12.7
					c3.6-3.6,7.9-6.4,12.3-8.5c3.2-1.5,7-0.2,8.5,3c1.5,3.2,0.2,7-3,8.5l-0.2,0.1c-3.2,1.5-6.1,3.5-8.5,5.9
					c-2.4,2.4-4.2,5.2-5.5,8.4c-2.6,6.4-2.8,14.1-1.8,21.7l0,0.4l0,0.2l0.1,0.5c0.1,0.3,0.2,0.6,0.2,0.9c0.2,0.6,0.5,1.1,0.8,1.6
					c0.6,1,1.5,2,2.5,2.6c1,0.7,2.2,1.2,3.4,1.4c0.3,0,0.6,0.1,0.9,0.1l0.5,0l0.2,0h0.4h3.2h25.4h50.8h25.4c3.7,0,7.3-0.5,10.6-1.5
					c1.6-0.5,3.1-1.2,4.4-2c0.6-0.4,1.2-0.8,1.8-1.3c0.3-0.2,0.5-0.5,0.7-0.7c0.1-0.1,0.2-0.2,0.3-0.3l0.1-0.1c0,0,0.1-0.1-0.1,0.1
					l-1,3.5c0-11.3-0.2-22.5-0.3-33.8c-0.1-11.3,0-22.5,0.2-33.8l0.2-8.5l0.3-4.4c0.1-1.5,0.2-3,0.4-4.5l0.5-4.4l0.8-4.4
					c0.2-1.5,0.6-2.9,1-4.3c0.4-1.4,0.7-2.9,1.2-4.3c0.5-1.4,0.9-2.8,1.4-4.2l1.5-4.2c0.6-1.4,1.2-2.7,1.8-4.1l2-4
					c1.4-2.6,2.9-5.1,4.5-7.6c1.7-2.5,3.4-4.7,5.5-7c0.8-0.9,2.2-0.9,3-0.1c0.7,0.7,0.9,1.7,0.4,2.6L470.8,783.3z"/>
			</g>
			<g>
				<path class="st1" d="M326.2,833c-2.1,0-4-1.4-4.5-3.5c-0.6-2.5,0.9-5,3.4-5.6c55.8-14,126.1-0.6,129.1,0
					c2.5,0.5,4.1,2.9,3.7,5.4s-2.9,4.2-5.4,3.7c-0.7-0.1-71.3-13.5-125.1,0C327,832.9,326.6,833,326.2,833z"/>
			</g>
			<g>
				<path class="st1" d="M692.7,460.7l-43.1-4.3c-1.2-0.1-2-1.1-1.9-2.3c0.1-1,0.9-1.8,1.9-1.9l43.1-4.3c3.5-0.4,6.7,2.2,7,5.8
					s-2.2,6.7-5.8,7C693.6,460.7,693.1,460.7,692.7,460.7z"/>
			</g>
			<g>
				<path class="st1" d="M321.5,864.8c3.8-3.1,8.3-5.1,12.9-6.3c4.6-1.2,9.3-1.6,14-1.4c4.6,0.2,9.2,1,13.5,2.3
					c4.3,1.4,8.5,3.3,12.1,6c0.3,0.3,0.4,0.7,0.2,1.1c-0.2,0.2-0.5,0.3-0.8,0.3h0c-8.5-1.5-16.7-1.5-24.5-0.2
					c-3.9,0.7-7.6,1.7-11.2,2.9c-3.6,1.2-7,2.7-10.4,4.2l-0.2,0.1c-2.7,1.2-5.8,0-7-2.7C319,868.9,319.7,866.3,321.5,864.8z"/>
			</g>
			<g>
				<path class="st14" d="M698,808c-0.6,15.9-14.4,38.7-38.7,38.7c-21.4,0-38.7-17.3-38.7-38.7c0-21.8,18.5-38.7,38.7-38.7
					c19.6,0,34,15.7,37.7,30C698.1,803.5,698.1,806.8,698,808z"/>
				<path class="st15" d="M608,811.7c3.9-9.8,31.1-21.7,59.2-26.1c29-4.6,49.4,0.1,43.2,10.6"/>
				
					<linearGradient id="SVGID_1_" gradientUnits="userSpaceOnUse" x1="675.6177" y1="165.6402" x2="642.9222" y2="222.2704" gradientTransform="matrix(1 0 0 -1 0 1002)">
					<stop  offset="0" style="stop-color:#105BD8"/>
					<stop  offset="0.2234" style="stop-color:#384FB5"/>
					<stop  offset="0.7215" style="stop-color:#9C315E"/>
					<stop  offset="1" style="stop-color:#D71F2B"/>
				</linearGradient>
				<circle class="st16" cx="659.3" cy="808" r="32.7"/>
				<text transform="matrix(1 0 0 1 632.7141 813.4932)" class="st5 st17 st18">T</text>
				<g class="st19">
					<text transform="matrix(1 0 0 1 639.8074 825.4517)" class="st20 st21 st22">X</text>
				</g>
				<text transform="matrix(1 0 0 1 651.28 793.3311)" class="st5 st17 st18">S</text>
				<text transform="matrix(1 0 0 1 669.9339 813.4654)" class="st5 st17 st18">Y</text>
				<text transform="matrix(1 0 0 1 653.4343 832.522)" class="st5 st17 st18">P</text>
				<path id="SVGID_x5F_2_x5F_" class="st23" d="M648.8,776.1c18-5.8,37.2,3.8,43,21.5c5.8,17.7-4.2,36.8-22.2,42.7
					s-37.2-3.8-43-21.5C620.9,801.1,630.8,782,648.8,776.1z"/>
				<text transform="matrix(0.9614 -0.275 0.275 0.9614 648.7934 776.1232)" class="st24 st21 st25"> </text>
				<text transform="matrix(0.9748 -0.223 0.223 0.9748 651.2261 775.4448)" class="st24 st21 st25">I</text>
				<text transform="matrix(0.9893 -0.146 0.146 0.9893 652.4426 775.1072)" class="st24 st21 st25">E</text>
				<text transform="matrix(0.9997 -2.491887e-02 2.491887e-02 0.9997 656.6 774.4938)" class="st24 st21 st25">E</text>
				<text transform="matrix(0.9953 9.704229e-02 -9.704229e-02 0.9953 660.8012 774.3895)" class="st24 st21 st25">E</text>
				<text transform="matrix(0.981 0.1938 -0.1938 0.981 664.9755 774.8375)" class="st24 st21 st25"> </text>
				<text transform="matrix(0.9642 0.2653 -0.2653 0.9642 667.4545 775.3275)" class="st24 st21 st25"> </text>
				<text transform="matrix(0.9421 0.3354 -0.3354 0.9421 669.8902 775.9977)" class="st24 st21 st25"> </text>
				<text transform="matrix(0.9148 0.4038 -0.4038 0.9148 672.27 776.8452)" class="st24 st21 st25"> </text>
				<text transform="matrix(0.8826 0.4702 -0.4702 0.8826 674.5818 777.8657)" class="st24 st21 st25"> </text>
				<text transform="matrix(0.8345 0.551 -0.551 0.8345 676.8284 779.0269)" class="st24 st21 st25">T</text>
				<text transform="matrix(0.7713 0.6365 -0.6365 0.7713 680.0601 781.1777)" class="st24 st21 st25">u</text>
				<text transform="matrix(0.7047 0.7095 -0.7095 0.7047 682.6183 783.2885)" class="st24 st21 st25">n</text>
				<text transform="matrix(0.6539 0.7566 -0.7566 0.6539 684.9276 785.6637)" class="st24 st21 st25">i</text>
				<text transform="matrix(0.6028 0.7979 -0.7979 0.6028 685.7961 786.6246)" class="st24 st21 st25">s</text>
				<text transform="matrix(0.5488 0.8359 -0.8359 0.5488 687.6235 789.0921)" class="st24 st21 st25">i</text>
				<text transform="matrix(0.4895 0.872 -0.872 0.4895 688.3641 790.1555)" class="st24 st21 st25">a</text>
				<text transform="matrix(0.4003 0.9164 -0.9164 0.4003 689.9823 793.0381)" class="st24 st21 st25">n</text>
				<text transform="matrix(0.3193 0.9476 -0.9476 0.3193 691.2924 796.0828)" class="st24 st21 st25"> </text>
				<text transform="matrix(0.2477 0.9688 -0.9688 0.2477 692.1006 798.4767)" class="st24 st21 st25"> </text>
				<text transform="matrix(0.1736 0.9848 -0.9848 0.1736 692.7258 800.9246)" class="st24 st21 st25"> </text>
				<text transform="matrix(9.811546e-02 0.9952 -0.9952 9.811546e-02 693.1638 803.4131)" class="st24 st21 st25"> </text>
				<text transform="matrix(1.302152e-03 1 -1 1.302152e-03 693.444 805.9271)" class="st24 st21 st25">S</text>
				<text transform="matrix(-8.972159e-02 0.996 -0.996 -8.972159e-02 693.4095 809.8116)" class="st24 st21 st25">t</text>
				<text transform="matrix(-0.1711 0.9853 -0.9853 -0.1711 693.239 811.9639)" class="st24 st21 st25">u</text>
				<text transform="matrix(-0.2663 0.9639 -0.9639 -0.2663 692.6692 815.2307)" class="st24 st21 st25">d</text>
				<text transform="matrix(-0.3564 0.9343 -0.9343 -0.3564 691.8045 818.3576)" class="st24 st21 st25">e</text>
				<text transform="matrix(-0.4436 0.8962 -0.8962 -0.4436 690.6726 821.3296)" class="st24 st21 st25">n</text>
				<text transform="matrix(-0.5136 0.858 -0.858 -0.5136 689.1818 824.2889)" class="st24 st21 st25">t</text>
				<text transform="matrix(-0.5774 0.8165 -0.8165 -0.5774 688.0885 826.1507)" class="st24 st21 st25">s</text>
				<text transform="matrix(-0.6418 0.7668 -0.7668 -0.6418 686.3065 828.6518)" class="st24 st21 st25"> </text>
				<text transform="matrix(-0.6964 0.7177 -0.7177 -0.6964 684.685 830.5891)" class="st24 st21 st25"> </text>
				<text transform="matrix(-0.7472 0.6646 -0.6646 -0.7472 682.9255 832.402)" class="st24 st21 st25"> </text>
				<text transform="matrix(-0.794 0.608 -0.608 -0.794 681.0358 834.0821)" class="st24 st21 st25"> </text>
				<text transform="matrix(-0.8425 0.5386 -0.5386 -0.8425 679.0388 835.6328)" class="st24 st21 st25">a</text>
				<text transform="matrix(-0.8902 0.4557 -0.4557 -0.8902 676.2531 837.4136)" class="st24 st21 st25">n</text>
				<text transform="matrix(-0.929 0.3702 -0.3702 -0.929 673.3015 838.9222)" class="st24 st21 st25">d</text>
				<text transform="matrix(-0.956 0.2933 -0.2933 -0.956 670.2814 840.1083)" class="st24 st21 st25"> </text>
				<text transform="matrix(-0.9746 0.2239 -0.2239 -0.9746 667.8662 840.85)" class="st24 st21 st25"> </text>
				<text transform="matrix(-0.9883 0.1526 -0.1526 -0.9883 665.4045 841.4156)" class="st24 st21 st25"> </text>
				<text transform="matrix(-0.9968 7.993941e-02 -7.993941e-02 -0.9968 662.9089 841.7995)" class="st24 st21 st25"> </text>
				<text transform="matrix(-0.9999 -1.313194e-02 1.313194e-02 -0.9999 660.3915 842.0331)" class="st24 st21 st25">Y</text>
				<text transform="matrix(-0.9927 -0.1208 0.1208 -0.9927 656.5098 841.9728)" class="st24 st21 st25">o</text>
				<text transform="matrix(-0.9757 -0.219 0.219 -0.9757 653.0028 841.5398)" class="st24 st21 st25">u</text>
				<text transform="matrix(-0.9501 -0.3119 0.3119 -0.9501 649.7682 840.8143)" class="st24 st21 st25">n</text>
				<text transform="matrix(-0.916 -0.4011 0.4011 -0.916 646.618 839.7781)" class="st24 st21 st25">g</text>
				<text transform="matrix(-0.879 -0.4768 0.4768 -0.879 643.6527 838.463)" class="st24 st21 st25"> </text>
				<text transform="matrix(-0.8413 -0.5406 0.5406 -0.8413 641.4318 837.2581)" class="st24 st21 st25"> </text>
				<text transform="matrix(-0.7987 -0.6018 0.6018 -0.7987 639.3066 835.8939)" class="st24 st21 st25"> </text>
				<text transform="matrix(-0.7514 -0.6599 0.6599 -0.7514 637.2886 834.3727)" class="st24 st21 st25"> </text>
				<text transform="matrix(-0.6995 -0.7146 0.7146 -0.6995 635.3893 832.7051)" class="st24 st21 st25"> </text>
				<text transform="matrix(-0.6231 -0.7822 0.7822 -0.6231 633.5878 830.9279)" class="st24 st21 st25">P</text>
				<text transform="matrix(-0.5461 -0.8377 0.8377 -0.5461 630.9758 827.5641)" class="st24 st21 st25">r</text>
				<text transform="matrix(-0.4738 -0.8806 0.8806 -0.4738 629.8396 825.8781)" class="st24 st21 st25">o</text>
				<text transform="matrix(-0.4052 -0.9142 0.9142 -0.4052 628.2003 822.7518)" class="st24 st21 st25">f</text>
				<text transform="matrix(-0.3398 -0.9405 0.9405 -0.3398 627.5452 821.3434)" class="st24 st21 st25">e</text>
				<text transform="matrix(-0.2519 -0.9677 0.9677 -0.2519 626.467 818.3527)" class="st24 st21 st25">s</text>
				<text transform="matrix(-0.1619 -0.9868 0.9868 -0.1619 625.6929 815.3796)" class="st24 st21 st25">s</text>
				<text transform="matrix(-9.653761e-02 -0.9953 0.9953 -9.653761e-02 625.2244 812.3439)" class="st24 st21 st25">i</text>
				<text transform="matrix(-2.371469e-02 -0.9997 0.9997 -2.371469e-02 625.059 811.0596)" class="st24 st21 st25">o</text>
				<text transform="matrix(7.954944e-02 -0.9968 0.9968 7.954944e-02 624.9812 807.5277)" class="st24 st21 st25">n</text>
				<text transform="matrix(0.178 -0.984 0.984 0.178 625.2451 804.2225)" class="st24 st21 st25">a</text>
				<text transform="matrix(0.2458 -0.9693 0.9693 0.2458 625.8665 800.9778)" class="st24 st21 st25">l</text>
				<text transform="matrix(0.3087 -0.9512 0.9512 0.3087 626.171 799.6622)" class="st24 st21 st25">s</text>
				<text transform="matrix(0.386 -0.9225 0.9225 0.386 627.1304 796.7437)" class="st24 st21 st25"> </text>
				<text transform="matrix(0.4532 -0.8914 0.8914 0.4532 628.1057 794.4131)" class="st24 st21 st25"> </text>
				<text transform="matrix(0.5177 -0.8556 0.8556 0.5177 629.2513 792.1614)" class="st24 st21 st25"> </text>
				<text transform="matrix(0.5792 -0.8152 0.8152 0.5792 630.5593 789.9993)" class="st24 st21 st25"> </text>
				<text transform="matrix(1 0 0 1 -13.77 16.3447)" class="st24 st21 st25"> </text>
				<path class="st26" d="M684.2,793.5"/>
				<path class="st15" d="M711,795c-3.9,9.8-31.1,21.7-59.2,26.1c-29,4.6-49.4-0.1-43.2-10.6"/>
				<circle class="st5" cx="659.3" cy="807.8" r="4.9"/>
				<g>
					<g>
						<path class="st5" d="M665.2,807.8l14.9,15.6h-3.5c-0.9,0-1.7-0.3-2.4-1l-11.4-12l-11.4,12c-0.6,0.7-1.4,1-2.4,1H645
							c0.9-0.9,1.6-1.7,2.2-2.3c0.6-0.6,1.2-1.2,1.7-1.8s1.1-1.1,1.6-1.7c0.6-0.6,1.2-1.3,2-2.1c0.8-0.8,1.7-1.8,2.9-3
							s2.5-2.6,4.2-4.4s3.7-3.8,6-6.2c2.3-2.4,5-5.2,8.2-8.5c0.7-0.7,1.5-1,2.4-1h3.9L665.2,807.8z M657.3,802.2
							c-0.3,0.4-0.8,0.6-1.2,0.5s-0.9-0.2-1.2-0.5l-9.4-9.9h3.5c0.9,0,1.7,0.3,2.4,1l7.2,7.5L657.3,802.2z"/>
					</g>
				</g>
				<g>
					<g>
						<path class="st5" d="M638.4,792.2h3.9c0.9,0,1.7,0.3,2.4,1c3.1,3.3,5.9,6.1,8.2,8.5s4.3,4.5,6,6.2c1.7,1.8,3.1,3.2,4.2,4.4
							s2.1,2.2,2.9,3s1.5,1.5,2,2.1s1.1,1.2,1.6,1.7c0.5,0.6,1.1,1.2,1.7,1.8s1.3,1.4,2.2,2.3h-3.9c-0.9,0-1.7-0.3-2.4-1l-11.4-12
							l-11.4,12c-0.7,0.7-1.5,1-2.4,1h-3.5l14.9-15.6L638.4,792.2z M659.9,800.8l7.2-7.5c0.7-0.7,1.5-1,2.4-1h3.5l-9.4,9.9
							c-0.3,0.3-0.7,0.5-1.2,0.5c-0.5,0-0.9-0.2-1.2-0.5L659.9,800.8z"/>
					</g>
				</g>
				
					<image style="overflow:visible;enable-background:new    ;" width="528" height="507" xlink:href="420AA2.png"  transform="matrix(1.566975e-02 0 0 1.566975e-02 655.6325 803.8434)">
				</image>
			</g>
		</g>
	</g>
</g>
</svg>
