<?xml version="1.0" encoding="utf-8"?>
<!-- Generator: Adobe Illustrator 25.0.0, SVG Export Plug-In . SVG Version: 6.00 Build 0)  -->
<svg version="1.1" id="Layer_1" xmlns="http://www.w3.org/2000/svg" xmlns:xlink="http://www.w3.org/1999/xlink" x="0px" y="0px"
	 viewBox="0 0 1000 1000" style="enable-background:new 0 0 1000 1000;" xml:space="preserve">
<style type="text/css">
	.st0{fill:#FFFFFF;}
	.st1{fill:#E8E8E8;}
	.st2{fill:#371A45;}
	.st3{fill:#27C7FF;}
	.st4{fill:#29A9FF;}
	.st5{fill:#F0FAFC;}
	.st6{opacity:0.6;}
	.st7{fill:#FFD243;}
	.st8{fill:#FFA92C;}
	.st9{fill:none;}
	.st10{fill:none;stroke:#371A45;stroke-width:25.843;stroke-linecap:round;stroke-miterlimit:10;}
	.st11{opacity:0.35;}
	.st12{fill:#220F2D;}
	.st13{opacity:0.5;}
	.st14{fill:#22A7F0;}
	.st15{opacity:0.7;}
	.st16{fill:#1C7AEA;}
	.st17{fill:#AFAFB2;}
	.st18{fill:#898989;}
</style>
<g>
	<g>
		<g>
			<path class="st0" d="M675.8,289.6c0,0,9.6,89.2-40.6,173C600.1,521.3,516,563,516,563l-68.8-67.2c0,0,80.5-47.1,107.6-85.5
				c36-51,38.8-88.3,40.1-102.4"/>
		</g>
	</g>
	<g>
		<g>
			<path class="st0" d="M638.7,456.6c-1.2,2-2.2,4-3.5,6c-21.5,35.9-61.4,65.5-89,83c-17.6,11.1-30.2,17.5-30.2,17.5l-68.8-67.2
				c0,0,80.5-47,107.6-85.5c36-51,38.8-88.3,40.1-102.4l80.8-18.4C675.8,289.6,684.9,374.6,638.7,456.6z"/>
		</g>
	</g>
	<g>
		<g>
			<path class="st0" d="M676.5,310.9c-0.4,30.3-5.8,88.8-37.9,145.6c-1.2,2-2.2,4-3.5,6c-21.5,35.9-61.4,65.5-89,83
				c-17.6,11.1-30.2,17.5-30.2,17.5l-68.8-67.2c0,0,80.5-47,107.6-85.5c36-51,38.8-88.3,40.1-102.4l41.9-9.6l38.9-8.9
				C675.8,289.6,676.7,297.6,676.5,310.9z"/>
		</g>
	</g>
	<g>
		<g>
			<path class="st1" d="M676.5,310.9c-15.2,14.2-38,14.2-38,14.2l-1.7-26.8l38.9-8.9C675.8,289.6,676.7,297.6,676.5,310.9z"/>
		</g>
	</g>
	<g>
		<g>
			<path class="st1" d="M638.7,456.6c-1.2,2-2.2,4-3.5,6c-21.5,35.9-61.4,65.5-89,83c-5.5-28.3-11-58.7-9.7-58.7
				C538.3,486.9,600.4,489.9,638.7,456.6z"/>
		</g>
	</g>
	<g>
		<g>
			<path class="st2" d="M515,569.2l-76.1-74.4l5.8-3.3c0.8-0.5,79.9-47,106-83.9c34.7-49.2,38-85.7,39.2-99.5v-0.6
				c0.2-2.8,2.7-4.8,5.5-4.6c2.8,0.2,4.8,2.7,4.6,5.4v0.6c-1.3,14.5-4.7,53-41,104.5c-23.5,33.3-84.4,71.9-103.5,83.4l61.5,60
				c15.5-8.3,83.8-46.5,113.9-96.8c48.7-81.4,40-169,40-169.8c-0.2-2.8,1.8-5.3,4.5-5.5c2.7-0.4,5.3,1.8,5.5,4.5
				c0.4,3.7,9.2,91.8-41.3,176.1c-35.5,59.3-117.8,100.6-121.3,102.3L515,569.2z"/>
		</g>
	</g>
	<g>
		<g>
			<path class="st0" d="M563.2,397.9c0,0,35.2,42.6,85,40.2"/>
		</g>
		<g>
			<path class="st2" d="M644.2,443.4c-49.5,0-83.4-40.5-85-42.3c-1.8-2.1-1.4-5.3,0.7-7.1s5.3-1.4,7.1,0.7l0,0
				c0.4,0.4,34.2,40.6,80.8,38.5c2.7-0.1,5.2,2,5.3,4.8c0.1,2.8-2,5.2-4.8,5.3C646.9,443.4,645.6,443.4,644.2,443.4z"/>
		</g>
	</g>
	<g>
		<g>
			<g>
				<path class="st3" d="M630.2,308.5l-55.7,29.7c-6.5,3.5-14.6,1.1-18.2-5.5l0,0c-3.5-6.5-0.9-14.6,5.5-18.2l55.7-29.7
					c6.5-3.5,14.6-1.1,18.2,5.5l0,0C639.1,296.8,636.6,304.9,630.2,308.5z"/>
			</g>
		</g>
		<g>
			<g>
				<path class="st4" d="M635.7,290.3l3.9,7.3c1.3,2.5,0.4,5.7-2.1,7L567.1,342c-2.5,1.3-5.7,0.4-7-2.1l-3.9-7.3L635.7,290.3z"/>
			</g>
		</g>
		<g>
			<g>
				<path class="st2" d="M565.1,347.3c-4.1,0-8-2.2-10-6l-6.6-12.5c-1.4-2.7-1.8-5.8-0.8-8.7c0.9-3,2.8-5.3,5.5-6.7l68.2-36.4
					c5.5-3,12.5-0.8,15.5,4.7l6.6,12.5c1.4,2.7,1.8,5.8,0.8,8.7c-0.9,3-2.8,5.3-5.5,6.7L570.6,346
					C568.8,346.8,567,347.3,565.1,347.3z M626.7,285.8c-0.2,0-0.4,0-0.6,0.1l-68.2,36.4c-0.4,0.2-0.6,0.5-0.6,0.7
					c-0.1,0.2-0.1,0.6,0.1,0.9l6.6,12.5c0.4,0.6,1.1,0.8,1.8,0.5l68.2-36.4c0.4-0.2,0.6-0.5,0.6-0.7c0-0.2,0.1-0.6-0.1-0.9
					l-6.6-12.5C627.7,286,627.2,285.8,626.7,285.8z"/>
			</g>
		</g>
		<g>
			<g>
				<g>
					<path class="st3" d="M568.3,351.9L568.3,351.9c-4.1,2.2-9.2,0.6-11.3-3.4l-13.5-25.3c-2.1-4.1-0.6-9.2,3.4-11.3l0,0
						c4.1-2.2,9.2-0.6,11.3,3.4l13.5,25.3C573.9,344.7,572.3,349.8,568.3,351.9z"/>
				</g>
			</g>
			<g>
				<g>
					<path class="st4" d="M568.3,334.2l4.8,9.2c1.3,2.5,0.4,5.7-2.1,7l-5.8,3.1c-2.5,1.3-5.7,0.4-7-2.1l-4.8-9.2L568.3,334.2z"/>
				</g>
			</g>
			<g>
				<g>
					<path class="st2" d="M563.5,358.7c-4.1,0-8-2.2-10-6l-15.3-28.9c-3-5.5-0.8-12.5,4.7-15.5l3.7-1.9c5.5-3,12.5-0.8,15.5,4.7
						l15.3,28.9c3,5.5,0.8,12.5-4.7,15.5l-3.7,1.9C567.1,358.3,565.2,358.7,563.5,358.7z M551.7,315.2c-0.2,0-0.4,0-0.6,0.1
						l-3.7,1.9c-0.6,0.4-0.8,1.1-0.5,1.8l15.3,28.9c0.2,0.4,0.5,0.6,0.7,0.6c0.2,0,0.6,0.1,0.9-0.1l3.7-1.9c0.6-0.4,0.8-1.1,0.5-1.8
						l-15.3-28.9C552.6,315.4,552.1,315.2,551.7,315.2z"/>
				</g>
			</g>
		</g>
		<g>
			<g>
				
					<ellipse transform="matrix(0.8826 -0.4701 0.4701 0.8826 8.5587 410.6527)" class="st5" cx="826.5" cy="188.2" rx="17.7" ry="28.2"/>
			</g>
		</g>
		<g>
			<g>
				<path class="st2" d="M834.2,219.5c-9.8,0-20.9-7.8-27.7-20.7c-8.7-16.4-6.8-34,4.5-40c11.3-6,26.9,2.2,35.6,18.6s6.8,34-4.5,40
					C839.7,218.9,837.1,219.5,834.2,219.5z M818.9,167.1c-1.2,0-2.2,0.2-3.2,0.7c-5.3,2.8-6.7,14.3-0.2,26.3
					c6.4,12,16.8,17.2,22,14.5c5.3-2.8,6.7-14.3,0.2-26.3C832.5,172.4,824.6,167.1,818.9,167.1z"/>
			</g>
		</g>
		<g>
			<g>
				<g>
					<path class="st3" d="M712.2,273.6l-105.4,56.1c-3.1,1.7-7,0.5-8.6-2.6l-14-26.3c-1.7-3.1-0.5-7,2.6-8.6l105.4-56.1
						c3.1-1.7,7-0.5,8.6,2.6l14,26.3C716.4,268.2,715.3,272,712.2,273.6z"/>
				</g>
			</g>
			<g class="st6">
				<g>
					<path class="st0" d="M699.3,249.6l-105.4,56.1c-3.1,1.7-7,0.5-8.6-2.6l-1.2-2.4c-1.7-3.1-0.5-7,2.6-8.6L692.1,236
						c3.1-1.7,7-0.5,8.6,2.6l1.2,2.4C703.6,244.1,702.4,247.9,699.3,249.6z"/>
				</g>
			</g>
			<g>
				<g>
					<path class="st4" d="M711.1,258.2l4.4,8.1c1.3,2.5,0.2,5.8-2.5,7.2l-106.7,56.8c-2.7,1.4-6,0.6-7.3-1.9l-4.4-8.1L711.1,258.2z"
						/>
				</g>
			</g>
			<g>
				<g>
					
						<rect x="628.1" y="295.5" transform="matrix(0.8826 -0.4701 0.4701 0.8826 -66.72 337.7613)" class="st1" width="29.6" height="14"/>
				</g>
			</g>
			<g>
				<g>
					
						<rect x="621.4" y="268.7" transform="matrix(0.8826 -0.4701 0.4701 0.8826 -61.6166 333.123)" class="st0" width="29.6" height="42.5"/>
				</g>
			</g>
			<g>
				<g>
					
						<rect x="628.1" y="295.5" transform="matrix(0.8826 -0.4701 0.4701 0.8826 -66.72 337.7613)" class="st1" width="29.6" height="14"/>
				</g>
			</g>
			<g>
				<g>
					<path class="st2" d="M631.1,322.5L606.3,276l35.1-18.6l24.8,46.5L631.1,322.5z M620.1,280.2l15.2,28.6l17.1-9.1l-15.2-28.6
						L620.1,280.2z"/>
				</g>
			</g>
			<g>
				<g>
					<path class="st2" d="M603.8,335.6c-4.1,0-8-2.2-10-6l-14-26.3c-3-5.5-0.8-12.5,4.7-15.5l105.4-56.1c2.7-1.4,5.8-1.8,8.6-0.8
						c3,0.9,5.3,2.8,6.7,5.5l14,26.3c1.4,2.7,1.8,5.8,0.8,8.7c-0.9,3-2.8,5.3-5.5,6.7l-105.4,56.1
						C607.5,335.1,605.6,335.6,603.8,335.6z M695.1,240.5c-0.2,0-0.4,0-0.6,0.1l-105.4,56.1c-0.6,0.4-0.8,1.1-0.5,1.8l14,26.3
						c0.4,0.6,1.1,0.8,1.8,0.5l105.4-56.1c0.4-0.2,0.6-0.5,0.6-0.7c0-0.2,0.1-0.6-0.1-0.9l-14-26.3c-0.2-0.4-0.5-0.6-0.7-0.6
						C695.4,240.5,695.3,240.5,695.1,240.5z M712.2,273.6L712.2,273.6L712.2,273.6z"/>
				</g>
			</g>
		</g>
		<g>
			<g>
				<g>
					<path class="st3" d="M814.6,227.3l-106,56.4c-3.1,1.7-7,0.5-8.6-2.6l-20.9-39.2c-1.7-3.1-0.5-7,2.6-8.6l106-56.4
						c3.1-1.7,7-0.5,8.6,2.6l20.9,39.2C818.9,221.8,817.7,225.6,814.6,227.3z"/>
				</g>
			</g>
			<g class="st6">
				<g>
					
						<rect x="675.7" y="211.9" transform="matrix(0.8826 -0.4701 0.4701 0.8826 -15.7958 374.5708)" class="st0" width="132.8" height="14"/>
				</g>
			</g>
			<g>
				<g>
					<path class="st4" d="M810.2,205.4l7.7,14.3c1.3,2.5,0.4,5.7-2.1,7l-108.1,57.6c-2.5,1.3-5.7,0.4-7-2.1l-7.7-14.3L810.2,205.4z"
						/>
				</g>
			</g>
			<g>
				<g>
					<path class="st2" d="M705.7,289.6c-1.2,0-2.2-0.1-3.3-0.5c-3-0.9-5.3-2.8-6.7-5.5l-20.9-39.2c-1.4-2.7-1.8-5.8-0.8-8.7
						c0.9-3,2.8-5.3,5.5-6.7l106-56.4c5.5-3,12.5-0.8,15.5,4.7l20.9,39.2c3,5.5,0.8,12.5-4.7,15.5l-106,56.4
						C709.4,289.1,707.5,289.6,705.7,289.6z M790.8,181.2c-0.2,0-0.4,0-0.6,0.1l-106,56.4c-0.4,0.2-0.6,0.5-0.6,0.7
						c0,0.2-0.1,0.6,0.1,0.9l20.9,39.2c0.2,0.4,0.5,0.6,0.7,0.6c0.2,0,0.6,0.1,0.9-0.1l106-56.4c0.6-0.4,0.8-1.1,0.5-1.8l-20.9-39.2
						C791.6,181.6,791.3,181.2,790.8,181.2z"/>
				</g>
			</g>
		</g>
		<g>
			<g>
				<path class="st3" d="M843.2,225.5l-73.8,39.3c-3.1,1.7-7,0.5-8.6-2.6l-32.2-60.7c-1.7-3.1-0.5-7,2.6-8.6l73.8-39.3
					c3.1-1.7,7-0.5,8.6,2.6l32.2,60.5C847.4,219.9,846.3,223.8,843.2,225.5z"/>
			</g>
		</g>
		<g class="st6">
			<g>
				
					<rect x="731.9" y="187.6" transform="matrix(0.8826 -0.4701 0.4701 0.8826 -0.4617 389.6779)" class="st0" width="96.3" height="16.4"/>
			</g>
		</g>
		<g>
			<g>
				<path class="st4" d="M833.5,194l12.4,23.1c1.5,3,0.5,6.6-2.5,8.1l-74.4,39.5c-3,1.5-6.6,0.5-8.1-2.5l-12.4-23.1L833.5,194z"/>
			</g>
		</g>
		<g>
			<g>
				<path class="st2" d="M766.4,270.6c-1.2,0-2.2-0.1-3.3-0.5c-3-0.9-5.3-2.8-6.7-5.5l-32.2-60.7c-3-5.5-0.8-12.5,4.7-15.5
					l73.8-39.3c5.5-3,12.5-0.8,15.5,4.7l32.2,60.7c1.4,2.7,1.8,5.8,0.8,8.7s-2.8,5.3-5.5,6.7l-73.8,39.3
					C770,270.1,768.3,270.6,766.4,270.6z M807.9,158c-0.2,0-0.4,0-0.6,0.1l-73.8,39.3c-0.6,0.4-0.8,1.1-0.5,1.7l32.2,60.5
					c0.2,0.4,0.5,0.6,0.7,0.6s0.6,0.1,0.9-0.1l73.8-39.3c0.4-0.2,0.6-0.5,0.6-0.7s0.1-0.6-0.1-0.9L809,158.4
					C808.7,158.2,808.4,158,807.9,158z M843.2,225.5L843.2,225.5L843.2,225.5z"/>
			</g>
		</g>
		<g>
			<g>
				<path class="st0" d="M843.2,225.5l-4.7,2.5c-3.1,1.7-7,0.5-8.6-2.6l-32.3-60.5c-1.7-3.1-0.5-7,2.6-8.6l4.7-2.5
					c3.1-1.7,7-0.5,8.6,2.6l32.2,60.7C847.4,219.9,846.3,223.8,843.2,225.5z"/>
			</g>
		</g>
		<g>
			<g>
				<path class="st2" d="M835.4,233.9c-1.2,0-2.2-0.1-3.3-0.5c-3-0.9-5.3-2.8-6.7-5.5L793,167.2c-3-5.5-0.8-12.5,4.7-15.5l4.7-2.5
					c5.5-3,12.5-0.8,15.5,4.7l32.2,60.5c1.4,2.7,1.8,5.8,0.8,8.7s-2.8,5.3-5.5,6.7l-4.7,2.5C839.1,233.4,837.3,233.9,835.4,233.9z
					 M843.2,225.5L843.2,225.5L843.2,225.5z M807.9,158c-0.2,0-0.4,0-0.6,0.1l-4.7,2.5c-0.6,0.4-0.8,1.1-0.5,1.7l32.2,60.5
					c0.2,0.4,0.5,0.6,0.7,0.6c0.2,0,0.6,0.1,0.9-0.1l4.7-2.5c0.4-0.2,0.6-0.5,0.6-0.7s0.1-0.6-0.1-0.9L809,158.4
					C808.7,158.2,808.4,158,807.9,158z"/>
			</g>
		</g>
	</g>
	<g>
		<g>
			<path class="st0" d="M608.8,280.6c0,0,6.1,2.5,19.9-1.8c15-4.7,15-11.8,19.7-13.8c4.7-2,16.8-5.7,20.3-14.4
				c4.8-11.8-3.9-26-18.6-25.5s-17.5,12-20.7,13.1c-47.6,16.3-37.5,51.3-37.5,51.3L608.8,280.6z"/>
		</g>
	</g>
	<g>
		<g>
			<path class="st0" d="M668.9,250.5c-3.5,8.7-15.6,12.5-20.3,14.4c-4.7,2-4.7,9.1-19.7,13.8c-13.9,4.4-19.9,1.9-19.9,1.9l-16.8,9
				c0,0-3.2-11.1,2.5-23.7c4.4-9.8,14.2-20.5,35.1-27.6c3.2-1.1,5.8-12.5,20.7-13.1c7.9-0.2,14,3.7,17.4,9.1
				C670.5,238.9,671.1,245,668.9,250.5z"/>
		</g>
	</g>
	<g>
		<g>
			<path class="st1" d="M668.9,250.5c-3.5,8.7-15.6,12.5-20.3,14.4c-4.7,2-4.7,9.1-19.7,13.8c-13.9,4.4-19.9,1.9-19.9,1.9l-16.8,9
				c0,0-3.2-11.1,2.5-23.7c5.1,3.3,13.6,6.8,26,5.1c14.2-2.1,16.6-11.4,21.1-13.6c4-2,25.5-10,26-23.1
				C670.5,238.9,671.1,245,668.9,250.5z"/>
		</g>
	</g>
	<g>
		<g>
			<path class="st2" d="M592,294.5c-0.7,0-1.3-0.1-2-0.4c-1.4-0.6-2.5-1.8-3-3.3c-0.1-0.4-10.6-39.5,40.1-57.2
				c0.4-0.4,0.8-0.9,1.2-1.4c3-4.1,8.6-11.7,21.6-12.2c8.6-0.4,16.3,3.4,21,10.2c4.6,6.6,5.5,14.9,2.6,22.3
				c-4,9.8-15.2,14.2-21.4,16.5c-0.6,0.2-1.2,0.5-1.8,0.7c-0.5,0.2-1.2,1.1-2.1,2.1c-2.7,3.3-6.8,8.3-18.1,11.8
				c-10.6,3.3-17.4,3.1-20.9,2.4l-15.1,8C593.7,294.4,592.9,294.5,592,294.5z M651,230.1c-0.2,0-0.4,0-0.6,0
				c-8.1,0.2-11.3,4.6-13.8,8c-1.5,2-3,4-5.3,4.8c-30.5,10.5-35.1,28.8-35.1,38.6l10.3-5.4c1.4-0.7,2.8-0.9,4.2-0.2
				c0.7,0.2,5.9,1.4,16.6-1.9c8.4-2.6,11-5.8,13.3-8.6c1.5-1.8,3.2-3.9,6-5.1c0.6-0.2,1.2-0.5,1.9-0.7c4.6-1.8,13.2-5.2,15.6-10.9
				c1.7-4.1,1.2-8.9-1.4-12.6C660.1,232.2,655.9,230.1,651,230.1z"/>
		</g>
	</g>
	<g>
		<g>
			<path class="st0" d="M614.7,331.2c0,0-2.1-18.8,1.3-33.5c3.8-16.2,27.5-32.7,35.9-27.1c15.2,10.2-4.2,26.3-4.5,28
				c-0.2,1.7,5.9,13,2.1,25.5"/>
		</g>
	</g>
	<g>
		<g>
			<path class="st2" d="M610.9,331.9c-2.7-12.4-2.7-25.3,0.7-37.5c3.9-13.7,28.3-37.1,43.1-28.3c6.1,3.8,9.8,11.4,7.6,18.5
				c-2,6.8-6.1,11.3-10.5,16.3c0.5-0.7,0.8-1.9,0.7-2.8c2.6,7.8,4.4,18.3,0.7,26.9c-1.8,4.2-8.1,2.4-7.3-2.2
				c1.4-7.1-0.5-14.5-3-21.4c-0.4-0.9-0.7-2.5-0.6-3.7c0.1-1.5,1.2-3.1,2.1-4.1c1.5-1.8,3.3-3.8,4.6-5.7c2.2-3.4,4.6-7,2.6-10.6
				c-0.6-1.2-3.2-3.1-3.3-2.7c-6.5,0-13.6,5.5-18.5,10.3c-3.8,3.8-7.1,8.1-8.6,12.6c-0.8,2.5-1.4,5.2-1.9,7.8
				c-1.4,8.3-1.7,17-1.1,25.3C618.7,335.4,612.1,336.4,610.9,331.9L610.9,331.9z"/>
		</g>
	</g>
	<g>
		<g>
			<g>
				<g>
					<path class="st7" d="M965.1,739.6c-23,35.1-50.3,67-80.8,95.1c-30.6,28.1-64.6,52.5-101.2,72.5c-21.4,11.7-43.6,21.8-66.5,30.3
						c-10.3,3.9-20.8,7.4-31.4,10.5C621,967.4,551.7,974.3,480.6,966c-67.6-7.8-130.7-28.6-186.8-59.4
						c-17.9-9.8-35.2-20.7-51.6-32.6C97,769.8,11.1,592,33,401.7C51,246.5,136.9,115.6,257.8,35.6c22.5-15,51.7,6,44.4,32.1
						c-2.5,8.9-4.7,17.7-6.7,26.8c-3.8,17.2-6.8,34.9-8.9,52.9c-4.4,38-4.5,75.4-0.7,111.9c0.7,6.5,1.5,13,2.5,19.5
						c2.2,15.8,5.2,31.3,9,46.6c2.6,11.1,5.7,22.1,9.1,32.8c1.7,5.2,3.4,10.5,5.2,15.6c4.5,13,9.6,25.7,15.1,38.2
						c3,6.8,6.1,13.6,9.6,20.3c2.4,4.7,4.7,9.3,7.2,13.9c3,5.4,5.9,10.7,9,16.1c6.6,11.3,13.7,22.4,21.1,33.2c1.1,1.4,2,3,3.1,4.4
						c6.1,8.7,12.6,17.2,19.2,25.5l0,0c1.5,1.9,3.1,3.9,4.7,5.8c6.7,8.1,13.7,16.1,21,23.7c3.9,4.1,7.9,8.3,11.9,12.3
						c0.8,0.8,1.7,1.8,2.6,2.6c0.6,0.6,1.2,1.2,1.8,1.8c1.3,1.3,2.6,2.6,4,3.8c7.1,6.7,14.3,13.2,21.7,19.5c2.2,1.9,4.5,3.8,6.7,5.7
						c2.5,2,5,4,7.4,5.9c6.5,5.1,13.2,10.2,20.1,15c10.6,7.6,21.5,14.6,32.7,21.4c11.4,6.8,23.3,13.3,35.3,19.4
						c15.9,7.9,32.5,15.1,49.3,21.4c15.9,5.9,32.2,11,48.9,15.3c3.4,0.9,6.8,1.8,10.3,2.6c7.4,1.8,14.9,3.4,22.4,4.8
						c12.4,2.4,24.9,4.4,37.7,5.8c0.8,0.1,1.7,0.2,2.5,0.2c10,1.2,20.1,1.9,30,2.5c20.1,1.1,40,0.9,59.7-0.4
						c5.9-0.4,11.7-0.8,17.6-1.4c30.3-3.1,60.1-8.7,88.8-17C958.6,688,980,717,965.1,739.6z"/>
				</g>
			</g>
			<g>
				<g>
					<g>
						<path class="st8" d="M44.1,389.1C11.9,668.6,212.3,921.3,491.7,953.5c71.1,8.3,140.2,1.4,204.7-17.9
							c41.5-12.5,81.1-30.2,117.8-52.4c-14.5,5.9-29.3,11.1-44.3,15.6c-64.4,19.4-133.7,26.2-204.7,17.9
							c-166.7-19.2-305.2-117-383.1-252c8.1,0,16.3-1.7,23.7-5.4c35.8-17.6,47-72.9,24.9-123.6c-22-50.6-68.7-77.5-104.5-60
							c-2.6,1.3-5.1,2.7-7.4,4.5c-5.7-41.5-6.4-84.4-1.3-127.9c14.9-128.4,76.2-240.2,165.4-320.3c-7.9-2.6-17-1.9-25.3,3.5
							c-35.5,23.6-68,51.5-96.7,83.2C98.4,192.8,56.1,285.6,44.1,389.1z"/>
					</g>
				</g>
			</g>
			<g>
				<g>
					
						<ellipse transform="matrix(0.3185 -0.9479 0.9479 0.3185 -302.5863 1204.4131)" class="st8" cx="686.3" cy="812.6" rx="49" ry="57.4"/>
				</g>
			</g>
			<g>
				<g>
					<path class="st9" d="M444.3,606.7"/>
				</g>
			</g>
			<g>
				<g>
					
						<ellipse transform="matrix(3.360238e-02 -0.9994 0.9994 3.360238e-02 -163.6642 1496.0696)" class="st7" cx="691.8" cy="832.7" rx="34.8" ry="43.1"/>
				</g>
			</g>
			<g>
				<g>
					<path class="st7" d="M462.8,853.9c-1.5,4.5-3.7,8.9-6.5,12.9c-19.5,28.7-61.6,33.4-94.1,10.4c-24.4-17.2-36.5-45.2-32.7-70.2
						L462.8,853.9z"/>
				</g>
			</g>
			<g>
				<g>
					<path class="st2" d="M464.7,854.6c-6.1,26.6-34.5,44-61.4,42.4c-35.9-1.2-69-28.9-75.7-64.2c-1.7-8.6-1.5-17.6,0.5-26
						c0.5-1.9,3.3-1.5,3.2,0.5c-0.8,16.4,4.4,32.3,13.3,45.2c21.6,32,71.3,47.1,102.2,19.8c6-5.2,10.7-11.8,14.2-19
						C462,851,465.3,852.2,464.7,854.6L464.7,854.6z"/>
				</g>
			</g>
			<g>
				<g>
					<path class="st7" d="M190.5,450.6c-16.1-8.1-33.3-11.3-50.2-7.9c-30.5,6.1-51,31.5-60.1,66.3c-6,22.9-6.5,49.6,0,77.1
						c16.3,69.4,70.5,117.4,121,107.3c18.8-3.8,34.5-15,45.8-31.3c19.2-27.4,24.6-68.6,14.4-112.1L190.5,450.6z"/>
				</g>
			</g>
			<g>
				<g>
					<path class="st2" d="M140.3,442.7c-51,14.4-64.9,76.7-58.5,123.2c6.3,45.9,30,92.9,71.6,115.8c23.5,13,52.9,13.2,75.1-2.5
						c6.8-4.7,13-10.6,18.3-17.1c-4.4,7.3-9.9,13.9-16.5,19.6c-28.9,24.6-68.9,19.5-98-2.2c-48.9-36.4-71.2-105.5-58-164.3
						C81.8,482,104.2,447,140.3,442.7L140.3,442.7z"/>
				</g>
			</g>
			<g>
				<g>
					<path class="st2" d="M667.8,862.5c-31.3-8.5-55.7-43.6-41.2-75.4c5.3-12.3,16.1-22,28.4-26.9c42.6-18.4,101.5,16.1,93.2,65
						c-2.4,12.7-10.4,23.7-21.2,30.6c-0.7,0.5-1.8,0.4-2.2-0.4c-0.6-0.7-0.4-1.8,0.4-2.2c2.1-2,4.4-3.8,6.3-6
						c5.7-6.4,9.2-14.5,10.2-22.9c3.9-35.2-33.9-61.8-66.5-58c-37.7,3.5-56.1,40.5-32.9,71.5c6.7,9.1,16.3,16.3,27,21
						C671.5,859.8,670.2,863.2,667.8,862.5L667.8,862.5z"/>
				</g>
			</g>
			<g>
				<g>
					<path class="st2" d="M767.5,808.7c7.4,24-1.4,51.8-21,67.7c-19.4,16.4-46.1,22-70.8,17.9c-42.5-6.3-83.1-44.3-78.1-89.5
						c0.7-6.1,2.4-12,4.8-17.7c0.4-0.8,1.3-1.2,2.1-0.8c0.7,0.4,1.2,1.2,0.9,2c-1.7,5.5-2.5,11.2-2.6,16.9
						c-0.6,53,59.1,89,107.8,77.5c34.6-7.2,58.8-37.3,53-73.2C763.2,807.1,766.7,806.3,767.5,808.7L767.5,808.7z"/>
				</g>
			</g>
			<g>
				<g>
					<path class="st8" d="M353.4,815c-2.4,14.8,5.4,31.2,21.1,41.4c20.9,13.6,47.9,11,60.4-5.9c1.8-2.4,3.1-5,4.1-7.6
						c11.8-29.3-9.1-51.3-30.1-59.3C385.2,774.9,360,782.9,353.4,815z"/>
				</g>
			</g>
			<g>
				<g>
					<path class="st7" d="M355.1,817.5c-2.4,14.8,5.4,31.2,21.1,41.4c20.9,13.6,47.9,11,60.4-5.9c1.8-2.4,3.1-5,4.1-7.6
						c-2.8-11.4-10.6-22.5-22.5-30.3C397,801.2,370,802.6,355.1,817.5z"/>
				</g>
			</g>
			<g>
				<g>
					<path class="st2" d="M422,787.8c17.4,10.2,28.6,32,23.5,52.2c-5.1,22.2-28.2,34.3-49.7,30.3c-30.9-4.8-55.7-39.5-41.8-69.6
						c2.2-4.6,5.4-8.9,9.3-12c3.8-3.3,8.4-5.8,13-7.2c0.8-0.2,1.8,0.2,2,1.1s-0.1,1.5-0.8,1.9c-37.1,19.9-16.1,69.9,19.9,75.2
						c22.1,3.8,41.7-11.7,40.1-34.5c-0.7-13.2-7.8-25.3-18.1-34C417.8,789.5,419.9,786.6,422,787.8L422,787.8z"/>
				</g>
			</g>
			<g>
				<g>
					
						<ellipse transform="matrix(0.9369 -0.3497 0.3497 0.9369 -187.6949 95.7276)" class="st8" cx="171.3" cy="567.7" rx="71.2" ry="98"/>
				</g>
			</g>
			<g>
				<g>
					
						<ellipse transform="matrix(0.9053 -0.4247 0.4247 0.9053 -232.6309 122.1379)" class="st7" cx="157.6" cy="582.9" rx="52.4" ry="83.1"/>
				</g>
			</g>
			<g>
				<g>
					<path class="st2" d="M156.9,655.5c25.1,11.8,53,5.2,68.3-18.3c23.8-37.1,16.2-88.6-7.4-124c-18.3-28.2-55.5-50-86.5-28.4
						c-29.2,21.6-34,62.7-27.7,96.4c0.4,2-2.6,2.7-3.2,0.7c-9.9-35.3-5.4-80.5,25.6-104.5c25.4-19.2,59.1-11.9,81.6,8.1
						c21.8,18.9,35.2,46.1,40.2,74.1c6.5,36.6-2.1,82.6-37.4,101.6c-8.7,4.5-18.6,6.5-28.3,5.9c-9.6-0.6-18.9-3.5-27.1-8.3
						C152.7,657.8,154.5,654.4,156.9,655.5L156.9,655.5z"/>
				</g>
			</g>
			<g>
				<g>
					<path class="st10" d="M537,640.5"/>
				</g>
			</g>
			<g class="st11">
				<g>
					<path class="st0" d="M436.2,571.7C582,797,896.3,726.4,924,742.1c29.6,16.8-45.3,90.3-45.3,90.3l4,2.7
						c30.6-28.1,57.8-60.1,80.8-95.1c14.8-22.5-6.5-51.5-32.5-44c-62.7,17.9-129.8,24.1-198.5,16.2
						C616.5,698.7,514,647.2,436.2,571.7z"/>
				</g>
			</g>
			<g>
				<g>
					<path class="st2" d="M539.6,975c-0.2,0-0.6,0-0.8,0c-0.9,0-1.9,0-2.8,0h-0.7h-0.5h-1.2c-1.4,0-2.8,0-4.2-0.1l-4.5-0.1
						c-1.4,0-3-0.1-4.5-0.1c-2.1-0.1-4.4-0.2-6.5-0.4c-0.4,0-0.7,0-0.9,0c-1.2,0-2.2-0.1-3.4-0.2l0,0l-6.1-0.5
						c-1.5-0.1-3.2-0.2-4.7-0.4l-3.1-0.2c-0.8,0-1.8-0.1-2.7-0.2c-0.6,0-1.2-0.1-1.7-0.1c-1.2-0.1-2.2-0.2-3.2-0.4
						c-0.6,0-1.1-0.1-1.5-0.1c-0.8-0.1-1.7-0.1-2.5-0.2h-0.5c-0.9-0.1-2-0.2-3-0.4c-0.8-0.1-1.8-0.2-2.7-0.4l-1.2-0.1
						c-0.7-0.1-1.5-0.2-2.2-0.2c-0.9-0.1-1.9-0.2-2.8-0.4l-0.1,0.1l-3-0.6c-1.5-0.2-3.1-0.5-4.7-0.7c-0.8-0.1-1.7-0.2-2.6-0.4
						l-1.1-0.1c-1.3-0.2-2.6-0.4-4-0.6l-0.6-0.1c-0.2,0-0.5-0.1-0.8-0.1c-1.8-0.2-3.7-0.6-5.5-0.9c-0.1,0-0.2,0-0.4-0.1l-1.1-0.2
						c-1.4-0.2-2.8-0.5-4.2-0.8c-1.2-0.2-2.5-0.5-3.8-0.7l-1.9-0.4c-1.5-0.4-3.1-0.6-4.6-0.9l-1.1-0.2c-1.9-0.4-3.8-0.8-5.5-1.2
						c-1.3-0.2-2.7-0.6-4-0.9l-1.5-0.4c-116.6-27.5-220.7-95.8-293.2-192.4c-73.1-96.9-109.5-216.6-102.8-337
						c0.4-5.4,0.7-10.3,1.1-14.8c0.4-4.7,0.9-9.6,1.4-14.9c0.4-3.7,0.9-7.6,1.4-11.6c0.6-4.2,1.2-8,1.7-11.4c0.6-3.8,1.2-7.4,1.9-11
						c0.4-1.9,0.7-3.8,1.1-5.5l0.1-0.4c0.2-1.4,0.6-2.8,0.8-4.1l0.2-1.3c0.4-1.9,0.8-3.8,1.2-5.8c0.4-1.9,0.8-3.7,1.2-5.5
						c0.4-1.9,0.8-3.7,1.3-5.5c0.5-1.8,0.9-3.7,1.3-5.5c0.4-1.9,0.9-3.7,1.4-5.5l0.2-0.9c0.4-1.5,0.8-3,1.2-4.5
						c0.1-0.6,0.4-1.3,0.6-2l1.2-4.1c0.5-1.8,1.1-3.5,1.5-5.4c2.6-8.7,5.4-17.4,8.5-25.8l1.4-3.9c0.8-2.2,1.7-4.5,2.5-6.6
						c0.5-1.2,0.8-2.4,1.3-3.4c2.8-7.4,6-14.9,9.3-22.1c0.5-0.9,0.9-2,1.3-3l0.5-0.9c0.2-0.6,0.5-1.2,0.8-1.8
						c0.7-1.5,1.5-3.2,2.2-4.8c3.1-6.5,6.4-13,9.8-19.6c0.8-1.7,1.7-3.2,2.6-4.8c6.8-12.6,14.4-25.3,22.3-37.4
						c1.9-3,3.9-5.8,5.8-8.6c4.2-6.3,8.6-12.2,12.7-17.7c0.9-1.2,1.9-2.5,2.8-3.7c4.5-5.8,9.2-11.8,14.2-17.7c2.1-2.5,4.2-5,6.4-7.4
						c3.1-3.5,6.3-7.1,9.3-10.5c1.7-1.8,3.2-3.4,4.8-5.2l0,0c10.7-11.3,22.1-22.3,33.9-32.7c4-3.5,8.1-7.1,12.3-10.5
						c2.4-2,4.7-3.9,7.2-5.8c2.6-2,5.2-4,7.8-6.1c4.5-3.4,9.2-7,14.4-10.6c3.1-2.1,6.3-4.4,9.8-6.8c1.7-1.1,3.3-2.2,5-3.3
						c0.9-0.7,2-1.3,3.1-1.8c0.2-0.1,0.6-0.4,0.8-0.5c0.5-0.2,0.9-0.5,1.3-0.6c0.2-0.1,0.5-0.2,0.7-0.4c0.2-0.1,0.5-0.2,0.7-0.2
						l0.5-0.2c0.5-0.2,0.8-0.2,1.1-0.4l0.6-0.2c0.2-0.1,0.6-0.2,0.8-0.2l0.2-0.1c6.5-1.9,13.2-1.8,19.7,0.4c0.1,0,0.2,0.1,0.4,0.1
						l1.1,0.4c1.3,0.5,2.6,1.1,4,1.8c14.2,7.3,21.4,22.5,18.2,38c-0.1,0.8-0.4,1.5-0.6,2.4c-0.7,2.5-1.4,5-2,7.4
						c-0.5,1.5-0.8,3.1-1.2,4.6c-0.7,2.7-1.3,5.4-2,8c-0.5,1.7-0.8,3.3-1.2,5.1c-2.1,9.4-4,19.1-5.5,28.6c-0.2,1.7-0.6,3.3-0.8,4.8
						c-0.2,1.8-0.6,3.4-0.7,5.1c-0.7,4.6-1.2,8.7-1.7,12.5v0.2c0,0.1,0,0.2,0,0.4l-0.2,1.7c-0.1,1.4-0.4,3-0.5,4.4l-0.1,0.8
						c-0.2,1.9-0.4,3.8-0.6,5.5c-0.1,1.2-0.2,2.2-0.2,3.3c-0.1,1.7-0.2,3.2-0.4,4.8c0,0.5-0.1,0.8-0.1,1.2v0.2
						c-0.1,2.2-0.4,4.4-0.5,6.5c-0.1,2.5-0.2,4.8-0.4,7.3c-0.1,3.3-0.2,6.5-0.4,9.7c0,1.7-0.1,3.4-0.1,5.1c0,0.7,0,1.4,0,2.1v1.2
						c-0.8,75.1,14.8,147.9,46.4,216.2C386.7,527.4,476.4,616,587.7,665.7c26,11.7,53.2,21.1,81,28.1c1.1,0.2,2.1,0.6,3.2,0.8
						l1.7,0.4c0.7,0.2,1.5,0.4,2.2,0.6l0.2,0.1c1.8,0.5,3.7,0.8,5.4,1.3c1.1,0.2,2.2,0.5,3.3,0.7c2.7,0.6,5.8,1.2,9.1,1.9
						c3.8,0.7,7.6,1.4,11.7,2.2l0.7,0.1c2.1,0.4,4.1,0.7,6.3,1.1c2.5,0.4,5,0.8,7.4,1.2l0,0c0.1,0,0.1,0,0.2,0
						c2.5,0.4,5,0.7,7.3,1.1c2.4,0.2,4.6,0.6,7,0.8c12.6,1.4,25.5,2.5,38.2,3.1c2.1,0.1,4.2,0.1,6.3,0.2c2.1,0.1,4.2,0.1,6.4,0.1
						c2.1,0,4.2,0,6.3,0.1c39.1,0.1,78.1-4.2,116-13.2l1.9-0.5c1.4-0.4,2.7-0.6,4-0.9l4.7-1.2c2.5-0.6,5-1.3,7.4-2l5.9-1.7
						c4.8-1.4,9.7-1.8,14.5-1.1c0.8,0.1,1.5,0.2,2.4,0.5c1.4,0.2,2.8,0.7,4.4,1.3l1.2,0.5c2.4,0.9,4.6,2.2,6.7,3.7
						c4.1,3,7.6,6.7,10.2,11c3.4,5.9,5.1,12.5,4.8,19.1c-0.2,5.1-1.7,10-4.1,14.6c-0.2,0.4-0.5,0.9-0.8,1.4
						c-0.4,0.5-0.6,0.9-0.9,1.4c-2.4,3.7-5,7.4-7.9,11.8c-1.4,2-2.7,3.9-4.1,5.8c-4,5.7-8.4,11.4-12.7,17.1c-3.3,4.1-6.1,7.8-9,11.1
						c-13.5,16.2-28,31.6-43.1,45.9l-0.2,0.2c-1.5,1.4-3,2.8-4.5,4.1c-1.8,1.7-3.5,3.3-5.4,5c-1.7,1.4-3.3,3-5,4.4
						c-4.4,3.8-8,6.8-11.6,9.8c-7.3,6-14.9,11.9-22.5,17.6c-0.5,0.4-0.9,0.7-1.4,0.9l-2.2,1.7c-0.9,0.6-1.8,1.3-2.7,1.9
						c-0.1,0.1-0.2,0.2-0.5,0.4l-1.3,0.9c-0.8,0.6-1.7,1.2-2.4,1.7l-1.8,1.2c-0.5,0.4-0.9,0.6-1.4,0.9c-0.8,0.6-1.8,1.2-2.6,1.8
						c-0.7,0.5-1.4,0.9-2,1.3c-0.8,0.6-1.7,1.2-2.5,1.7l-2.1,1.4c-0.5,0.4-0.9,0.6-1.4,0.9c-0.2,0.2-0.6,0.4-0.8,0.6
						c-1.7,1.1-3.4,2.1-5.1,3.3c-0.1,0.1-0.4,0.2-0.7,0.5c-1.1,0.7-2.1,1.4-3.2,2l-0.2,0.1c-0.7,0.5-1.5,0.9-2.4,1.4
						c-1.9,1.2-3.9,2.4-5.9,3.5l-0.1,0.1c-0.2,0.1-0.4,0.2-0.5,0.2c-0.2,0.1-0.6,0.4-0.9,0.6c-0.8,0.5-1.7,0.9-2.4,1.4
						c-0.8,0.5-1.7,0.9-2.6,1.5c-0.4,0.2-0.8,0.5-1.2,0.7l-0.6,0.4c0,0-0.2,0.1-0.4,0.2l-0.2,0.1c-1.2,0.6-2.2,1.3-3.4,1.9l-0.9,0.6
						c-1.4,0.8-2.8,1.5-4.4,2.4c-0.5,0.2-1.1,0.6-1.5,0.8l-0.6,0.4c-1.2,0.6-2.4,1.2-3.5,1.8l-0.1,0.1c-0.5,0.2-0.9,0.6-1.5,0.8
						c-0.8,0.5-1.9,0.9-2.8,1.4l-1.7,0.8c-0.9,0.5-1.9,0.9-2.8,1.4l-1.4,0.7c-1.7,0.8-3.3,1.7-5,2.4c-0.2,0.1-0.5,0.2-0.8,0.4
						l-1.5,0.7c-0.8,0.4-1.8,0.8-2.6,1.2c-0.4,0.2-0.8,0.4-1.3,0.6l-3.3,1.5c-1.3,0.6-2.5,1.2-3.8,1.8c-1.4,0.7-3,1.3-4.4,1.9
						c-0.6,0.2-1.2,0.6-1.8,0.8c-1.7,0.7-3.3,1.4-5,2.1c-0.6,0.2-1.2,0.5-1.9,0.8l-0.5,0.2c-0.4,0.1-0.8,0.4-1.3,0.6L734,937
						c-0.6,0.2-1.2,0.5-1.8,0.7c-0.9,0.4-1.9,0.8-3,1.2l-0.4,0.1c-0.2,0.1-0.4,0.1-0.6,0.2l-0.2,0.1c-1.9,0.7-3.7,1.4-5.5,2.1
						c-0.6,0.2-1.2,0.5-1.8,0.7c-1.4,0.6-3,1.1-4.5,1.7l-1.1,0.4c-0.2,0.1-0.6,0.2-0.9,0.4c-0.5,0.2-0.9,0.4-1.4,0.5
						c-1.5,0.6-3.1,1.1-4.6,1.7c-0.1,0-0.2,0.1-0.4,0.1c-0.2,0.1-0.4,0.1-0.5,0.1l-1.2,0.4c-1.2,0.4-2.4,0.8-3.7,1.2
						c-0.5,0.2-1.2,0.4-1.8,0.6c-1.8,0.6-3.5,1.2-5.4,1.8c-1.1,0.4-2.1,0.7-3.2,0.9c-1.3,0.4-2.6,0.8-3.9,1.2l0,0l-6.8,2
						c-0.2,0.1-0.7,0.2-1.2,0.4c-1.2,0.4-2.5,0.7-3.8,1.1l-1.5,0.5c-3.5,0.9-7.3,2-11.9,3.1c-5.3,1.3-10.2,2.5-14.9,3.4
						c-1.7,0.4-3.4,0.7-5.2,1.1c-0.2,0.1-0.6,0.1-0.8,0.2c-0.8,0.2-1.8,0.4-2.6,0.5h-0.2c-0.9,0.2-1.9,0.4-3,0.6
						c-1.3,0.2-2.7,0.5-4.1,0.8l-1.2,0.2c-1.8,0.4-3.7,0.6-5.4,0.9c-0.4,0.1-0.7,0.1-1.1,0.1c-1.4,0.2-3,0.5-4.4,0.7
						c-1.5,0.2-3.2,0.5-4.8,0.7h-0.2c-1.1,0.1-2.1,0.4-3.1,0.5c-0.4,0.1-0.8,0.1-1.2,0.2c-0.5,0.1-0.9,0.1-1.4,0.2
						c-1.2,0.2-2.5,0.4-3.7,0.5c-2.1,0.2-4.4,0.6-6.6,0.8c-3.7,0.5-6.8,0.7-9.8,1.1l-5.7,0.6l0,0c-1.1,0.1-2.1,0.2-3.1,0.2l-3.5,0.2
						l0,0c-0.1,0-0.2,0-0.4,0c-1.4,0.1-2.7,0.2-4,0.2l-2.6,0.2c-0.9,0-1.8,0.1-2.7,0.1c-0.4,0-0.7,0-1.1,0c-0.7,0-1.3,0.1-2,0.1H563
						c-0.8,0-1.5,0.1-2.4,0.1c-0.2,0-0.4,0-0.6,0h-1.4c-1.1,0-2.2,0.1-3.4,0.1h-0.5c-0.4,0-0.7,0-1.1,0c-0.1,0-0.4,0-0.5,0
						c-0.7,0-1.5,0-2.4,0c-0.6,0-1.2,0-1.8,0c-0.4,0-0.8,0-1.2,0s-0.7,0-0.9,0c-0.5,0-0.9,0-1.5,0c-0.8,0-1.8,0-2.7,0h-0.2h-0.1
						h-0.1h-1.8C540,975,539.9,975,539.6,975z M538.9,964.1h0.1c0.2,0,0.6,0,0.8,0h2c0.2,0,0.5,0,0.7,0c0.8,0,1.5,0,2.4,0h0.1h0.1
						c0.4,0,0.8,0,1.2,0h0.1h0.2h0.2h0.4c0.4,0,0.8,0,1.2,0c0.5,0,0.9,0,1.4,0h0.2c0.7,0,1.4,0,2.1,0h0.6c0.4,0,0.6,0,0.9,0h0.6
						c1.1,0,2.1,0,3.2-0.1l1.9-0.1c0.8,0,1.7,0,2.4-0.1h1.3c0.6,0,1.3-0.1,2-0.1h0.2h0.2c0.1,0,0.1,0,0.2,0h0.4
						c0.8,0,1.8-0.1,2.6-0.1l2.5-0.1c1.4-0.1,2.6-0.1,3.9-0.2c0.8,0,1.5-0.1,2.4-0.1l1.8-0.1c1.7-0.1,3.3-0.2,5-0.5l0,0l2.7-0.5
						l0.2,0.2h0.5c3-0.2,6-0.6,9.7-1.1c2.1-0.2,4.4-0.5,6.5-0.8c1.2-0.1,2.4-0.4,3.5-0.5h0.2c0.4,0,0.7-0.1,1.2-0.1h0.4
						c0.2,0,0.5-0.1,0.8-0.1h0.2c1.1-0.1,2-0.2,3.1-0.5h0.2c1.7-0.2,3.2-0.5,4.7-0.7c1.5-0.2,3-0.5,4.4-0.7h0.2c0.1,0,0.2,0,0.4,0
						h0.1c1.8-0.4,3.5-0.6,5.4-0.9l1.3-0.2c1.3-0.2,2.7-0.5,4-0.7c0.9-0.2,1.9-0.4,2.7-0.6h0.2c0.8-0.1,1.8-0.4,2.6-0.5l0.6-0.1
						c1.8-0.4,3.4-0.7,5.2-1.1c4.6-0.9,9.3-2.1,14.5-3.3c4.5-1.1,8.1-2.1,11.6-3.1l1.5-0.5c1.3-0.4,2.6-0.7,3.8-1.1
						c0.4-0.1,0.6-0.1,0.8-0.2l5.8-1.8c1.7-0.5,3.4-1.1,5.1-1.5c1.1-0.4,2-0.6,3-0.9h0.1c1.8-0.6,3.5-1.2,5.3-1.8h0.2
						c0.5-0.1,0.9-0.2,1.4-0.5c1.3-0.5,2.5-0.8,3.7-1.2l1.9-0.6c1.5-0.5,3.1-1.1,4.5-1.5h0.1c0.4-0.1,0.7-0.2,1.1-0.4l2.1-0.8
						c1.5-0.6,3-1.1,4.5-1.7c0.6-0.2,1.2-0.4,1.7-0.6c1.9-0.7,3.7-1.4,5.4-2.1l1.2-0.5c0.9-0.4,1.9-0.7,2.8-1.2
						c0.7-0.2,1.2-0.5,1.8-0.7l0.5-0.1c0.4-0.1,0.7-0.2,1.1-0.5l0.6-0.2c0.6-0.2,1.2-0.5,1.8-0.7c1.7-0.7,3.3-1.4,4.8-2.1l0.1-0.1
						c0.5-0.2,0.9-0.4,1.4-0.6l0.2-0.1c1.4-0.6,2.7-1.2,4.1-1.8c1.3-0.6,2.6-1.2,3.8-1.7l3.4-1.5c0.4-0.2,0.7-0.4,1.1-0.5
						c0.9-0.5,1.8-0.8,2.6-1.2l1.7-0.8c0.2-0.1,0.4-0.1,0.5-0.2l0.2-0.1c1.7-0.8,3.2-1.5,4.8-2.4l1.5-0.7c0.9-0.5,1.9-0.9,2.8-1.4
						l1.5-0.8c0.9-0.5,1.9-0.9,2.8-1.4c0.5-0.2,0.9-0.5,1.3-0.7l0.2-0.1c1.2-0.6,2.2-1.2,3.4-1.8l0.6-0.4c0.5-0.2,0.9-0.5,1.3-0.7
						l0.1-0.1c1.4-0.8,2.8-1.5,4.4-2.4l1.1-0.6c1.1-0.6,2.1-1.2,3.3-1.8c0.1-0.1,0.2-0.1,0.5-0.2l0.6-0.4c0.4-0.2,0.7-0.4,1.1-0.6
						l0.2-0.1c0.8-0.5,1.7-0.9,2.5-1.4c0.8-0.5,1.5-0.8,2.2-1.3c0.5-0.2,0.9-0.6,1.3-0.8c0.1-0.1,0.2-0.1,0.4-0.2
						c1.9-1.2,3.8-2.2,5.7-3.4c0.8-0.5,1.5-0.9,2.2-1.4l0.1-0.1c1.1-0.7,2.2-1.4,3.3-2.1l0.5-0.4c1.7-1.1,3.3-2.1,5-3.2
						c0.2-0.1,0.5-0.2,0.6-0.5l0.5-0.4c0.4-0.2,0.6-0.4,0.9-0.6l2.4-1.5c0.7-0.5,1.5-0.9,2.2-1.5l0.2-0.2c0.6-0.4,1.2-0.7,1.8-1.2
						c0.9-0.6,1.8-1.2,2.7-1.8l0.1-0.1c0.4-0.2,0.7-0.5,1.1-0.7l2-1.3c0.7-0.5,1.5-1.1,2.2-1.5l1.8-1.3c0.9-0.7,1.8-1.3,2.7-1.9
						l0.4-0.2l1.9-1.4c0.5-0.2,0.8-0.6,1.2-0.8c7.6-5.5,15-11.3,22.2-17.2c3.5-2.8,7.1-5.9,11.3-9.6c1.7-1.4,3.2-2.8,4.8-4.4
						c1.8-1.5,3.5-3.2,5.3-4.8c1.4-1.3,3-2.7,4.4-4.1l0.2-0.2c14.8-13.9,29-29.2,42.1-45c2.7-3.2,5.5-6.7,8.7-10.9
						c4.4-5.5,8.5-11.2,12.5-16.8c1.4-1.9,2.7-3.8,4-5.7c3-4.1,5.4-7.9,7.8-11.6c0.2-0.4,0.5-0.7,0.7-1.1c0.1-0.2,0.4-0.6,0.5-0.8
						c1.8-3.3,2.7-6.6,2.8-10c0.2-4.5-0.9-9.1-3.3-13.1c-1.8-3-4.2-5.7-7.1-7.7c-1.7-1.2-3.4-2.1-5.3-2.8l-0.6-0.2
						c-0.8-0.2-1.5-0.5-2.4-0.6h-0.2c-0.5-0.1-0.9-0.2-1.4-0.2c-3.3-0.5-6.6-0.2-10,0.7l-5.9,1.7c-2.6,0.7-5.1,1.4-7.7,2l-4.7,1.2
						c-1.4,0.4-2.8,0.7-4.2,1.1l-1.8,0.5c-38.1,9-77.4,13.5-116.6,13.5c-0.6,0-1.3,0-1.9,0c-2.1,0-4.4,0-6.5-0.1
						c-2.1,0-4.2-0.1-6.5-0.1c-2.1,0-4.2-0.1-6.4-0.2c-13.1-0.6-26.2-1.5-39.1-3.1c-2.4-0.2-4.7-0.6-7.1-0.8
						c-2.6-0.4-5.1-0.7-7.6-1.1c-0.1,0-0.1,0-0.2,0c-2.5-0.4-5.1-0.7-7.6-1.2c-2.1-0.4-4.2-0.7-6.3-1.1l-0.7-0.1
						c-4.2-0.8-8.1-1.5-11.9-2.2c-3.4-0.7-6.5-1.3-9.3-1.9c-1.2-0.2-2.2-0.5-3.4-0.7c-1.8-0.4-3.7-0.8-5.5-1.3h-0.2
						c-0.8-0.2-1.5-0.4-2.4-0.6l-1.7-0.4c-1.1-0.2-2.2-0.6-3.3-0.8c-28.2-7.2-56.1-16.9-82.6-28.7
						c-113.2-51.8-204.8-142.3-257.4-256c-32.3-69.8-48.3-144.1-47.4-220.8v-1.2c0-0.7,0-1.4,0-2.2c0-1.8,0.1-3.4,0.1-5.2
						c0.1-3.3,0.2-6.6,0.4-9.9c0.1-2.5,0.2-5,0.5-7.4c0.1-2.2,0.2-4.4,0.5-6.6c0-0.5,0.1-1.1,0.1-1.5c0.1-1.5,0.2-3.2,0.4-4.8
						c0.1-1.1,0.2-2.2,0.4-3.4c0.1-1.9,0.4-3.8,0.6-5.7l0.1-0.8c0.1-1.5,0.4-3.1,0.5-4.6l0.2-2.5c0.5-3.8,1.1-8,1.7-12.6
						c0.2-1.8,0.5-3.5,0.8-5.2c0.2-1.7,0.5-3.3,0.8-5.1c1.7-9.7,3.5-19.6,5.7-29.3c0.4-1.8,0.8-3.4,1.2-5.1c0.6-2.7,1.3-5.4,2-8.1
						c0.4-1.5,0.8-3.2,1.2-4.7c0.6-2.5,1.3-5.1,2-7.6c0.1-0.5,0.2-1.1,0.5-1.7c2.6-12.3-4.5-22-12.5-26.2c-0.9-0.5-1.8-0.8-2.6-1.2
						l-1.1-0.4c-4.5-1.4-9.1-1.5-13.5-0.2h-0.1c-0.1,0-0.2,0.1-0.2,0.1l-0.8,0.2c-0.1,0-0.2,0.1-0.4,0.1l-0.5,0.2
						c-0.2,0.1-0.4,0.1-0.6,0.2l-0.4,0.1c-0.2,0.1-0.5,0.2-0.8,0.4l-0.2,0.1c-0.1,0-0.2,0.1-0.2,0.1l-0.1,0.1
						c-0.7,0.4-1.4,0.8-2.1,1.3c-1.7,1.1-3.3,2.1-4.8,3.3c-3.4,2.4-6.6,4.5-9.6,6.6c-5.1,3.7-9.7,7-14,10.4c-2.6,2-5.1,3.9-7.6,5.9
						c-2.4,1.9-4.7,3.8-7.1,5.7c-4,3.3-8.1,6.8-12,10.3c-11.6,10.2-22.7,20.9-33.2,32l0,0c-1.5,1.7-3.2,3.4-4.7,5.1
						c-3.1,3.3-6.1,6.7-9.1,10.3c-2.1,2.4-4.1,4.8-6.3,7.3c-4.8,5.8-9.4,11.6-13.9,17.4c-0.9,1.2-1.8,2.4-2.7,3.5
						c-4.1,5.4-8.4,11.3-12.5,17.4c-1.9,2.8-3.8,5.7-5.7,8.5c-7.8,11.9-15.2,24.2-22,36.6c-0.8,1.5-1.7,3.2-2.5,4.7
						c-3.4,6.5-6.6,13-9.7,19.2c-0.8,1.7-1.5,3.2-2.2,4.8c-0.2,0.6-0.5,1.1-0.7,1.7l-0.5,0.9c-0.5,0.9-0.9,1.9-1.3,3
						c-3.2,7.1-6.3,14.4-9.1,21.7c-0.5,1.2-0.9,2.2-1.3,3.4c-0.8,2.1-1.7,4.2-2.5,6.5l-1.4,3.8c-3,8.3-5.8,16.8-8.3,25.3
						c-0.5,1.8-1.1,3.5-1.5,5.2l-1.2,4.1c-0.1,0.6-0.4,1.3-0.5,1.9c-0.5,1.5-0.8,3-1.2,4.4l-0.2,1.1c-0.5,1.8-0.9,3.5-1.4,5.3
						c-0.5,1.8-0.9,3.5-1.3,5.4c-0.5,1.8-0.8,3.7-1.3,5.4c-0.5,1.8-0.8,3.5-1.2,5.4c-0.5,1.9-0.8,3.8-1.2,5.5l-0.2,1.3
						c-0.2,1.3-0.6,2.7-0.8,4l-0.1,0.4c-0.4,1.8-0.7,3.7-1.1,5.4c-0.6,3.4-1.3,7.1-1.9,10.7c-0.5,3.4-1.1,7.1-1.7,11.2
						c-0.5,3.9-0.9,7.7-1.4,11.2c-0.6,5.2-1.1,9.9-1.4,14.5c-0.4,4.5-0.7,9.2-1.1,14.5c-13.6,244.1,149.4,462,387.4,518.1l1.5,0.4
						c1.3,0.4,2.6,0.6,3.9,0.9c1.8,0.4,3.7,0.8,5.4,1.2l1.1,0.2c1.5,0.4,3,0.6,4.5,0.9l1.9,0.4c1.2,0.2,2.5,0.5,3.7,0.7
						c1.4,0.2,2.7,0.5,4.1,0.7l1.5,0.2c1.8,0.4,3.7,0.6,5.5,0.9l0.6,0.1c0.2,0,0.5,0.1,0.8,0.1c1.2,0.2,2.5,0.4,3.8,0.6l1.2,0.2
						c0.8,0.1,1.7,0.2,2.5,0.4c0.8,0.1,1.5,0.2,2.4,0.4l0.1-0.1l3.4,0.6c1.5,0.2,3.1,0.4,4.6,0.6c0.7,0.1,1.4,0.2,2.1,0.2l1.2,0.1
						c0.8,0.1,1.8,0.2,2.7,0.4c0.9,0.1,1.9,0.2,2.8,0.4h0.5c0.8,0.1,1.7,0.1,2.5,0.2h0.4c0.2,0,0.6,0.1,0.9,0.1h0.2
						c1.1,0.1,2.1,0.2,3.1,0.4c0.6,0,1.1,0.1,1.5,0.1h0.2c0.8,0.1,1.7,0.1,2.5,0.2l3.2,0.2c1.5,0.1,3.1,0.2,4.6,0.4l3.7,0.2
						c2,0.1,3.9,0.2,5.9,0.4h0.2h0.1h0.4c2.1,0.1,4.4,0.2,6.5,0.4c1.4,0,3,0.1,4.4,0.1l4.4,0.1c1.4,0,2.8,0,4.2,0.1h1.1h1.1h0.2
						c0.9,0,1.8,0,2.6,0V964.1z M559.3,963.8C559.2,963.8,559.2,963.8,559.3,963.8L559.3,963.8z M584.5,962.1L584.5,962.1
						L584.5,962.1z M703.8,936.5L703.8,936.5L703.8,936.5z M830.8,871.1L830.8,871.1L830.8,871.1z M168.7,110.5L168.7,110.5
						L168.7,110.5z"/>
				</g>
			</g>
		</g>
		<g>
			<g>
				<path class="st7" d="M225.6,291.7c6-12.5,10.4-27.6,12.3-44.3c5.5-49.7-13.5-94-42.4-98.8c-28.9-4.8-56.9,31.5-62.4,81.2
					c-5.5,49.7,13.5,94,42.4,98.8L225.6,291.7z"/>
			</g>
		</g>
		<g>
			<g>
				<path class="st2" d="M187.3,150.4c-26,8-38.8,36.6-46.1,60.7c-2.5,8.4-4.4,17.2-4.2,26.1c-0.4,29.9,6.4,78.8,38.7,89.9
					c0.8,0.2,1.3,1.2,1.1,2c-0.2,0.7-0.9,1.2-1.7,1.2c-4.8-0.2-9.7-1.7-14-4c-4.4-2.4-8.3-5.4-11.7-9c-22.8-25.1-26-62.9-19.4-94.9
					c5.4-22.7,14.8-45.3,31.6-62.1c6.8-6.6,15.3-11.8,24.7-13.9C188.8,146,189.8,149.7,187.3,150.4L187.3,150.4z"/>
			</g>
		</g>
		<g>
			<g>
				<path class="st8" d="M157.1,219.6c-3.4,14.6-3.3,29.6-0.6,42.5c3.3,15.1,10.4,27.1,20.1,32.3c18.2,9.6,38.8-8.4,46.1-40.1
					c7-30.2-0.6-62.1-17.1-73.3c-0.8-0.6-1.7-1.1-2.4-1.4C185.1,169.9,164.4,187.8,157.1,219.6z"/>
			</g>
		</g>
		<g>
			<g>
				
					<ellipse transform="matrix(0.9917 -0.1284 0.1284 0.9917 -32.1793 26.1489)" class="st7" cx="186.7" cy="262.6" rx="26.4" ry="47.4"/>
			</g>
		</g>
		<g>
			<g>
				<path class="st2" d="M213.3,273.5c7.1-19,8.4-40.2,3-59.8c-4.6-17.1-19.1-36.4-36.9-21c-20.3,18.6-24.9,58.2-15.6,83.3
					c3.4,9,9.4,18.2,19.1,20.7c0.9,0.2,1.4,1.1,1.2,2c-0.2,0.8-0.9,1.3-1.8,1.2c-2.8-0.4-5.7-1.2-8.1-2.5
					c-7.7-3.9-13-11.2-16.6-18.8c-11.3-25.1-9.6-56.5,3.8-80.5c6-10.3,15.1-20.1,28-21.6c13.2-1.8,24.8,8,30.2,18.8
					c12.6,24.2,10.4,56.4-2.6,79.9C215.6,277.3,212.5,275.8,213.3,273.5L213.3,273.5z"/>
			</g>
		</g>
	</g>
	<g>
		<g>
			<path class="st0" d="M504.5,456c-28.3-52.3-173.9,15.5-174,44c0,53,62.9,223.5,190,228.9c106.7,4.5,173.6-104.6,139.7-154.6
				c-30.8-45.4-87.1-63.5-123.8-87.3"/>
		</g>
	</g>
	<g>
		<g>
			<path class="st0" d="M647.6,666c-25.1,35.8-70.6,65.3-127.1,62.9c-74.6-3.1-127.1-63.1-157.7-123c-15.6-30.5-25.5-60.9-29.9-83.6
				c-1.7-8.7-2.5-16.3-2.5-22.3c0-28.4,145.6-96.3,174-44l9.3,9l22.7,22c36.7,23.7,92.9,41.8,123.8,87.3
				C676.2,597.7,669.8,634.3,647.6,666z"/>
		</g>
	</g>
	<g>
		<g>
			<path class="st1" d="M406,542.6c-43.4-0.6-64.3-12.9-73.1-20.4c-1.7-8.7-2.5-16.3-2.5-22.3c0-28.4,145.6-96.3,174-44l9.3,9
				C515.9,497.1,488.6,543.8,406,542.6z"/>
		</g>
	</g>
	<g>
		<g>
			<path class="st1" d="M390.8,541.9c-31.3-2.7-48.2-11.9-56.4-18.4l21.7-6C356.1,517.5,377.3,524.9,390.8,541.9z"/>
		</g>
	</g>
	<g>
		<g>
			<path class="st1" d="M647.6,666c-25.1,35.8-70.6,65.3-127.1,62.9c-74.6-3.1-127.1-63.1-157.7-123l30.7-1.4
				c0,0,20.5,47.7,44.3,53.7c23.7,6,65.3-73.5,66.6-71.6c1.3,1.9,60.8,14.8,50.9,29.9c-9.9,15.2-27.7,2.5-40.4,13
				c-13.2,11-18.4,49.3-1.5,57.8c20.5,10.5,31.9-5.9,43.6-22.1C570.1,646.8,632.4,642,647.6,666z"/>
		</g>
	</g>
	<g>
		<g>
			<path class="st2" d="M500,458.4c-17-29.6-74.8-12.6-100.3-2.6c-19.5,7.8-51.5,23-62.8,40.5c-0.7,1.7-1.4,2.5-1.3,4.4
				c0.1,9,1.8,18.3,3.8,27.4c15.2,62.3,49.1,126.6,100.8,165.8c70.9,54.4,172.7,31.3,213.2-48.3c10.6-21.4,16.3-49.3,1.4-70
				c-0.9-1.4-3.1-4.1-4.1-5.5c-29.5-38.2-77.9-53-115.7-81.1c-2.5-1.9,0-5.7,2.7-4.2c44.6,22.9,95.5,42.1,125.6,85
				c28.6,41-3.4,99.5-36.9,127.5c-66.2,56.1-155.4,46.9-215-14c-41.2-41.9-68.5-96.1-82.1-152.8c-2.1-9.6-3.8-19.4-3.9-29.5
				c0-1.3,0.1-3.7,0.7-5.1c3.1-9.2,11-15.6,18.1-21.2c23.8-17.6,51.2-29.4,79.7-37.2c19.4-4.8,39.5-8.1,59.5-2.8
				c10.4,2.8,20.4,9.4,25.5,19.2C511.9,459.7,503.3,464.1,500,458.4L500,458.4z"/>
		</g>
	</g>
	<g>
		<g>
			<path class="st0" d="M672.4,613.2c0,0,34.3-32.5,16.8-75.1C669.3,490,601.9,496,581.8,538C564.2,574.6,672.4,613.2,672.4,613.2z"
				/>
		</g>
	</g>
	<g>
		<g>
			<path class="st0" d="M691.8,580.2c-5.7,20.2-19.4,33-19.4,33s-108.2-38.6-90.6-75.2c8.4-17.4,24.7-28.6,42.5-32.3
				c25.3-5.4,53.3,4.1,65,32.5C695.7,554,695.1,568.4,691.8,580.2z"/>
		</g>
	</g>
	<g>
		<g>
			<path class="st1" d="M691.8,580.2c-5.7,20.2-19.4,33-19.4,33s-108.2-38.6-90.6-75.2c8.4-17.4,24.7-28.6,42.5-32.3
				c9.4,3.4,19.7,11.1,29.7,25.8C663.6,545.9,668.2,579.1,691.8,580.2z"/>
		</g>
	</g>
	<g>
		<g>
			<path class="st2" d="M673.6,619l-3-1.1c-3.3-1.2-80.5-29-93.8-61.6c-3-7.1-2.8-14,0.4-20.5c10.6-22.1,34.8-36.7,60.5-36.7
				c0.6,0,1.3,0,1.9,0c24.7,0.7,45,14.5,54.3,36.9c18.8,45.3-17.6,80.4-17.9,80.7L673.6,619z M637.7,509.2
				c-22,0-42.5,12.3-51.3,30.9c-1.9,3.9-1.9,7.9-0.1,12.4c9.2,22.5,61.7,46.1,84.9,54.8c6.8-7.7,27.1-34,13.5-67.3
				c-7.8-19-24.3-30.1-45.2-30.7C638.8,509.3,638.2,509.2,637.7,509.2z"/>
		</g>
	</g>
	<g>
		<g>
			<path class="st0" d="M378.6,618c0,0-95.4,33.8-133.8-14.9c-46-58.1,3.8-166.3,29-192.2c30.6-31.2,59.1,67,59.1,67l-9.7,48.6
				l32.9-9.2c0,0,45.4,16.1,45.4,54.2C401.5,609.9,378.6,618,378.6,618z"/>
		</g>
	</g>
	<g>
		<g>
			<path class="st0" d="M401.5,571.7c0,15.3-3.7,25.7-8,32.8c-6.6,10.6-14.8,13.6-14.8,13.6s-95.4,33.8-133.8-14.9
				c-46-58.1,3.8-166.3,29-192.2c30.6-31.2,59.1,67,59.1,67l-8.5,42.7l-1.2,5.9l32.9-9.2C356.1,517.5,401.5,533.4,401.5,571.7z"/>
		</g>
	</g>
	<g>
		<g>
			<path class="st1" d="M390.8,541.9c-31.3-2.7-48.2-11.9-56.4-18.4l21.7-6C356.1,517.5,377.3,524.9,390.8,541.9z"/>
		</g>
	</g>
	<g>
		<g>
			<path class="st1" d="M393.4,604.5c-6.6,10.6-14.8,13.6-14.8,13.6s-95.4,33.8-133.8-14.9c-46-58.1,3.8-166.3,29-192.2
				c30.6-31.2,59.1,67,59.1,67l-8.5,42.7c-12.9-3.8-58.5-14.5-73.9,22C233.7,582.9,275.5,630.4,393.4,604.5z"/>
		</g>
	</g>
	<g>
		<g>
			<path class="st2" d="M379.9,621.6c-34.8,11.9-79.9,19.6-114.6,3.9c-18.6-8.3-32.1-26-38.5-45c-12.4-37.5-3.8-78.5,9.8-114.5
				c7.3-18.5,22.4-50.8,38.4-62.6c32.2-20.1,55.8,51.1,62.8,73.2c0.2,0.8,0.2,1.7,0.1,2.4l-9.7,48.6l-6.4-5.9l32.9-9.2
				c2.7-0.7,5.4,0.8,6.3,3.5c0.7,2.7-0.8,5.4-3.5,6.3l-32.9,9.2c-2.7,0.7-5.4-0.8-6.3-3.5c-0.2-0.8-0.2-1.7-0.1-2.4l9.7-48.6
				l0.1,2.4c-5.4-17.5-12.2-35.3-21.6-51c-4.7-7.3-12.2-19.1-21.5-18.4c-3.3,0.4-6.5,3.2-8.7,5.8c-7.6,8.5-13.3,18.3-18.8,28.4
				c-19.9,39.7-34.9,89.3-21.1,132.9c5.7,16.8,16.9,31.6,33.3,38.9c32.3,14.5,74.6,7.9,107.6-1.7
				C382.1,612.9,384.5,619.7,379.9,621.6L379.9,621.6z"/>
		</g>
	</g>
	<g>
		<g>
			<path class="st2" d="M269.1,626.7c-0.9,0-1.8-0.2-2.6-0.7c-8.4-5.1-12.5-20.8-10-38.2c1.8-12.5,11.6-54.4,66.1-69.3
				c2.7-0.7,5.4,0.8,6.3,3.5c0.7,2.7-0.8,5.5-3.5,6.3c-47.2,12.9-56.8,46.9-58.8,60.9c-2.1,15.1,1.7,26.1,5.2,28.2
				c2.4,1.4,3.2,4.6,1.8,7C272.5,625.7,270.8,626.7,269.1,626.7z"/>
		</g>
	</g>
	<g>
		<g>
			<g>
				<path class="st0" d="M553.4,364.3c0.7,26.4-5.2,53.2-18.2,77.8c-2.6,5-5.5,9.9-8.9,14.8c-1.5,2.4-3.2,4.6-5,7
					c-5.2,6.8-10.9,13.2-16.9,19.1c-5.2,5.1-10.6,9.7-16.4,13.9c-6.8,5.1-14.2,9.6-21.6,13.5c-2.7,1.4-5.5,2.7-8.3,4
					c-51.2,22.9-112.8,18.6-161-16.5c-70.8-51.7-85.2-150.8-32.3-221.3c10.2-13.6,22.2-25.1,35.4-34.5c1.5-1.1,3.1-2.2,4.7-3.2
					c4.2-2.8,8.6-5.4,13-7.8c10.3-5.4,21-9.8,32.1-13s22.4-5.1,33.9-5.9c3.7-0.2,7.3-0.4,11-0.4c5.4,0,11,0.2,16.4,0.8
					c27.3,2.8,54.2,12.6,77.8,29.9C530.1,272.3,552.1,317.7,553.4,364.3z"/>
			</g>
			<g>
				<path class="st2" d="M392.1,528.9c-33.6,0-67-10.4-94.8-30.7c-34.2-25-56.5-61.7-62.7-103.5c-6.3-42,4.5-84.2,30.3-118.5
					c10-13.3,22-25,35.4-34.6c1.4-1.1,3-2.1,4.7-3.2c4.2-2.8,8.6-5.4,13-7.8c10.2-5.4,21-9.8,32.2-13c11.1-3.2,22.5-5.2,34-5.9
					c3.7-0.2,7.4-0.4,11-0.4c5.5,0,11.1,0.2,16.5,0.8c28.2,2.8,55.1,13.2,78,29.9c39.5,28.8,62.9,73.4,64.3,122.2l0,0
					c0.8,27-5.5,54.1-18.2,78c-2.7,5.1-5.7,10-8.9,14.8c-1.4,2.2-3.1,4.5-5,7c-5.1,6.8-10.9,13.2-16.9,19.1
					c-5.1,5-10.6,9.7-16.4,13.9c-6.8,5.1-14,9.6-21.7,13.6c-2.7,1.4-5.5,2.7-8.4,4C437.4,524.2,414.6,528.9,392.1,528.9z
					 M394.9,212.4c-3.5,0-7.1,0.1-10.6,0.4c-11.4,0.7-22.8,2.7-33.8,5.9c-11.1,3.2-21.8,7.4-32,12.9c-4.4,2.4-8.7,5-13,7.7
					c-1.7,1.1-3.2,2.1-4.7,3.2c-13.3,9.6-25.3,21.1-35.3,34.3c-25.6,34.1-36.4,75.9-30.1,117.7c6.1,41.4,28.3,78,62.3,102.8
					c46.1,33.8,107.6,40,160.4,16.4c2.8-1.3,5.5-2.6,8.3-4c7.6-3.9,14.8-8.4,21.6-13.5c5.8-4.2,11.2-9,16.3-13.8
					c6-5.9,11.7-12.3,16.8-19c1.9-2.5,3.4-4.7,5-7c3.2-4.7,6.1-9.6,8.7-14.6c12.6-23.8,18.9-50.6,18.1-77.5
					c-1.4-48.5-24.7-92.8-64-121.3c-22.7-16.5-49.5-26.9-77.5-29.7c-5.3-0.6-10.9-0.8-16.4-0.8C395,212.4,395,212.4,394.9,212.4z"/>
			</g>
		</g>
		<g>
			<g>
				<path class="st1" d="M297.6,497.8c48,35.2,109.8,39.4,161,16.5c2.8-1.3,5.5-2.6,8.3-4c7.6-3.9,14.8-8.4,21.6-13.5
					c5.7-4.2,11.2-8.9,16.4-13.9c6-5.8,11.7-12.2,16.9-19.1c1.7-2.4,3.3-4.6,5-7c3.2-4.8,6.1-9.7,8.9-14.8
					c13-24.6,18.9-51.3,18.2-77.8c-0.4-14.5-2.8-28.9-7.2-42.8c0.1,25.3-5.8,50.8-18.2,74.1c-2.6,5-5.5,9.9-8.9,14.8
					c-1.5,2.4-3.2,4.6-5,7c-5.2,7-10.9,13.2-16.9,19.1c-5.2,5.1-10.6,9.7-16.4,13.9c-6.8,5.1-14.2,9.6-21.6,13.5
					c-2.7,1.4-5.5,2.7-8.3,4c-51.2,22.9-112.8,18.6-161-16.5c-28.1-20.5-47.2-48.4-56.9-79C233.6,420.2,255.8,467.2,297.6,497.8z"/>
			</g>
		</g>
		<g>
			<g>
				<path class="st2" d="M392.1,532.4c-34.3,0-68.5-10.6-96.8-31.4c-34.9-25.5-57.7-63.1-64.1-105.8c-6.4-43,4.6-85.9,30.9-121.1
					c10.3-13.7,22.4-25.5,36.2-35.3c1.4-1.1,3.1-2.1,4.8-3.3c4.2-2.8,8.7-5.5,13.3-7.9c10.4-5.5,21.5-10,32.9-13.2
					c11.3-3.2,23-5.2,34.7-6c3.8-0.2,7.6-0.5,11.2-0.4c5.7,0,11.3,0.4,16.9,0.9c28.8,3,56.3,13.5,79.7,30.6
					c40.4,29.5,64.3,74.9,65.7,124.9l0,0c0.8,27.6-5.7,55.2-18.5,79.8c-2.7,5.2-5.8,10.3-9,15.1c-1.5,2.2-3.2,4.6-5.1,7.1
					c-5.3,7-11.1,13.6-17.2,19.6c-5.2,5.1-10.9,9.8-16.8,14.2c-7,5.2-14.4,9.8-22.2,13.8c-2.8,1.4-5.7,2.8-8.5,4.1
					C438.4,527.5,415.1,532.4,392.1,532.4z M394.9,215.8c-3.4,0-7,0.1-10.5,0.4c-11.2,0.7-22.3,2.7-33,5.8
					c-10.9,3.1-21.4,7.3-31.3,12.6c-4.2,2.4-8.6,4.8-12.6,7.6c-1.7,1.1-3.2,2.1-4.6,3.1c-13.1,9.3-24.7,20.7-34.5,33.6
					c-25,33.4-35.5,74.2-29.5,115.2c6,40.6,27.7,76.2,60.9,100.6c45.2,33,105.4,39.2,157,16.1c2.7-1.2,5.4-2.6,8.1-3.9
					c7.4-3.8,14.5-8.3,21.1-13.1c5.7-4.1,11-8.7,15.9-13.6c5.9-5.8,11.4-12,16.4-18.6c1.8-2.4,3.4-4.6,4.8-6.7
					c3.1-4.6,6-9.4,8.6-14.4c12.3-23.4,18.4-49.6,17.7-75.9l0,0c-1.4-47.4-24.2-90.6-62.6-118.7c-22.2-16.3-48.4-26.3-75.8-29
					c-5.2-0.6-10.6-0.8-16.1-0.8C395,215.8,395,215.8,394.9,215.8z"/>
			</g>
		</g>
		<g>
			<g>
				<path class="st2" d="M392.1,533.5c-34.6,0-68.9-10.7-97.5-31.6c-35.2-25.7-58.1-63.5-64.6-106.5c-6.5-43.3,4.6-86.6,31.2-121.9
					c10.4-13.8,22.7-25.7,36.5-35.5c1.5-1.1,3.1-2.2,4.8-3.3c4.2-2.8,8.9-5.5,13.3-8c10.5-5.5,21.6-10,33-13.3
					c11.3-3.3,23.1-5.3,34.9-6c3.8-0.2,7.6-0.4,11.3-0.4c5.8,0,11.4,0.4,17,0.9c28.9,3,56.7,13.6,80.3,30.8
					c40.6,29.6,64.8,75.5,66.2,125.7l0,0c0.8,27.9-5.7,55.6-18.6,80.4c-2.7,5.2-5.8,10.4-9.1,15.2c-1.5,2.2-3.2,4.6-5.1,7.1
					c-5.3,7.1-11.1,13.7-17.4,19.7c-5.2,5.1-10.9,9.9-16.9,14.3c-7,5.2-14.5,9.8-22.3,13.9c-2.8,1.4-5.7,2.8-8.5,4.1
					C438.6,528.7,415.2,533.5,392.1,533.5z M394.9,217c-3.4,0-6.8,0.1-10.4,0.4c-11.1,0.7-22.1,2.6-32.8,5.7
					c-10.7,3.1-21.2,7.3-31.2,12.5c-4.2,2.2-8.5,4.8-12.6,7.6c-1.7,1.1-3.1,2.1-4.5,3.1c-13,9.3-24.6,20.5-34.2,33.4
					c-24.9,33.2-35.3,73.8-29.3,114.4c6,40.2,27.5,75.7,60.4,99.9c44.9,32.8,104.6,38.8,155.9,15.9c2.7-1.2,5.4-2.5,8-3.9
					c7.3-3.8,14.4-8.1,20.9-13c5.7-4.1,11-8.6,15.8-13.5c5.9-5.7,11.3-11.9,16.3-18.5c1.8-2.4,3.3-4.6,4.7-6.7
					c3.1-4.6,5.9-9.3,8.5-14.3c12.3-23.1,18.3-49.2,17.6-75.3c-1.4-47.1-24-90.1-62.1-117.8c-22.1-16.1-48-26.1-75.3-28.9
					c-5.2-0.6-10.5-0.8-15.9-0.8C395,217,395,217,394.9,217z"/>
			</g>
		</g>
		<g>
			<g>
				<path class="st2" d="M549.4,404.8c-48.3,102.9-182.1,127.5-244.7,34.6c-42.5-63.1-12.4-153.7,51.9-190.7
					c46.9-27,104.3-33.2,165.9,26.9c0,0,23,30.8,26.9,58c3.8,27.1,3,54.3,3,54.3L549.4,404.8z"/>
			</g>
		</g>
		<g>
			<g>
				<path class="st12" d="M304.8,439.2c62.6,92.9,196.4,68.5,244.7-34.6l0.6-3.4c-80.1,67.6-200.1,66.8-265-26
					C285.4,397.7,291.5,419.8,304.8,439.2z"/>
			</g>
		</g>
		<g>
			<g>
				<path class="st2" d="M410.3,518.7c-9.2,0-18.4-0.8-27.4-2.5c-39.5-7.3-72.8-29.7-96.4-64.7c-21.7-32.2-28.3-72.5-18.9-113.4
					c10.5-45.4,40.1-85.9,79-108.2c21.6-12.4,43.3-19.8,64.4-22.1h0.5h0.5c29,3,56.8,13.6,80.3,30.8c40.6,29.6,64.8,75.5,66.2,125.7
					l0,0c0.8,27.9-5.7,55.6-18.6,80.4c-2.7,5.2-5.8,10.4-9.1,15.2c-1.5,2.2-3.2,4.6-5.1,7.1c-5.3,7.1-11.1,13.7-17.4,19.7l-0.6,0.5
					C478.4,507.7,443.9,518.7,410.3,518.7z M411.6,217.8c-19.6,2.1-39.8,9.1-60,20.7c-36.6,21-64.3,59.1-74.2,101.7
					c-8.9,38.1-2.6,75.5,17.5,105.4c22.1,32.7,53.1,53.6,89.8,60.4c39.2,7.2,81.7-2.7,116.8-27.1c5.8-5.7,11.2-11.7,16.1-18.2
					c1.8-2.4,3.3-4.6,4.7-6.7c3.1-4.6,5.9-9.3,8.5-14.3c12.3-23.1,18.3-49.2,17.6-75.3c-1.4-47.1-24-90.1-62.1-117.8
					C464.4,230.7,438.6,220.6,411.6,217.8z"/>
			</g>
		</g>
		<g>
			<g>
				<path class="st2" d="M411.1,499.4c-43.9,0-82.9-21.1-108.4-58.9c-19-28.2-24.8-63.4-16.5-99.1c9.2-39.8,35.2-75.3,69.3-95
					c58.8-33.9,115.6-24.7,168.8,27.3l0.2,0.2c0.9,1.3,23.5,31.6,27.4,59.1c3.8,27.1,3,54.4,3,54.8v0.4l-3.1,17.2l-0.1,0.2
					c-25,53.3-74.7,89.1-129.7,93.4C418.2,499.3,414.6,499.4,411.1,499.4z M423.7,231.3c-21.6,0-43.7,6.4-65.9,19.2
					c-33,19-58.1,53.3-67,91.9c-8,34.5-2.4,68.5,15.8,95.5c26.6,39.4,68.3,60,114.7,56.4c53.2-4.1,101.3-38.7,125.7-90.3l3-16.5
					c0.1-2.4,0.7-28.2-3-53.7c-3.5-25.4-24.7-54.4-26.3-56.8C489.6,246.5,457.1,231.3,423.7,231.3z M549.4,404.8L549.4,404.8
					L549.4,404.8z"/>
			</g>
		</g>
		<g>
			<g>
				<path class="st0" d="M239.7,469c14.2,27.7,42.6,42.7,63.7,33.3c21-9.4,26.7-39.5,12.5-67.4c-0.1-0.1-0.2-0.4-0.2-0.6
					c-14.2-27.5-42.5-42.1-63.4-32.8c-16.3,7.3-23.4,26.9-19.1,48.3C234.3,456.2,236.5,462.7,239.7,469z"/>
			</g>
		</g>
		<g>
			<g>
				<path class="st1" d="M239.7,469c14.2,27.7,42.6,42.7,63.7,33.3c21-9.4,26.7-39.5,12.5-67.4c-0.1-0.1-0.2-0.4-0.2-0.6
					c-0.8,3.9-3.1,8.3-8.4,9.6c-9.4,2.1-33.8-8.9-33.8-8.9s-17.6,6.4-40.4,14.9C234.3,456.2,236.5,462.7,239.7,469z"/>
			</g>
		</g>
		<g>
			<g>
				<path class="st2" d="M290,510.2c-20.4,0-42.7-15-54.8-38.8l0,0c-8.9-17.4-10.7-36.1-5.3-51.3c3.8-10.7,10.9-18.6,20.3-22.9
					c23.5-10.5,55,5.5,70.2,35.6c8.9,17.4,10.7,36.1,5.3,51.3c-3.8,10.7-10.9,18.6-20.3,22.9C300.6,509.1,295.4,510.2,290,510.2z
					 M244.2,466.7c12.9,25.4,38.5,39.3,57.1,30.9c7-3.1,12-9,15-17c4.5-12.5,2.6-28.8-4.8-43.4c-12.9-25.4-38.5-39.3-57.1-30.9
					c-7,3.1-12,9-15,17C235,435.8,236.8,452,244.2,466.7L244.2,466.7z"/>
			</g>
		</g>
		<g>
			<g>
				
					<ellipse transform="matrix(0.8639 -0.5036 0.5036 0.8639 -195.8768 197.3664)" class="st0" cx="267.3" cy="461.2" rx="31.4" ry="46.1"/>
			</g>
		</g>
		<g>
			<g>
				<path class="st1" d="M288.3,502.1c-15.9,7-38.4-5.7-49.9-28.3c-1.3-2.5-2.4-5-3.3-7.4c12,13.6,28.2,19.7,40.7,14.3
					c14-6.1,18.6-25.3,11.9-45c3.2,3.8,6,8,8.5,12.7C307.8,471.2,304.3,495.2,288.3,502.1z"/>
			</g>
		</g>
		<g>
			<g>
				<path class="st2" d="M278.7,509.2c-16.4,0-34.3-12.7-44.9-33l0,0c-7.6-14.8-9.4-30.9-5.1-43.3c3-8.1,8.3-14,15.3-17.2
					c18.6-8.1,43.4,5.3,56.4,30.7c7.6,14.8,9.4,30.9,5.1,43.3c-3,8.1-8.3,14-15.3,17.2C286.7,508.4,282.8,509.2,278.7,509.2z
					 M255.6,423.4c-2.6,0-5.1,0.5-7.3,1.4c-5.8,2.5-8.5,7.6-9.9,11.3c-3.5,9.8-1.8,23,4.5,35.3l0,0c10.2,19.9,30.1,31.7,43.4,26
					c5.8-2.5,8.5-7.6,9.9-11.3c3.5-9.8,1.8-23-4.5-35.3C283.3,434.4,268.2,423.4,255.6,423.4z"/>
			</g>
		</g>
		<g class="st13">
			<g>
				<path class="st0" d="M338.2,295.2c0,0,58.3-37.2,111.7-22.1h0.1c11.2,3.2,27.5,10.7,35.4,19.1c10.6,11.1,16.2,18.8,20.9,27
					c14.2,25.1,14.4,45.9,14.4,45.9c7.1-21.4,8.4-41.1-3.2-62.1c-1.2-2.1-2.4-4.1-3.8-6.3c-0.4-0.5-0.6-0.9-0.9-1.4l0,0
					c-3.1-4.1-11.9-15.6-17.2-21c-15.9-16.5-38-29.4-69.3-27.4C367.8,250.6,334.6,293.8,338.2,295.2z"/>
			</g>
		</g>
		<g class="st13">
			<g>
				
					<ellipse transform="matrix(0.972 -0.2348 0.2348 0.972 -80.9952 88.1732)" class="st0" cx="329.8" cy="384.2" rx="20.1" ry="23"/>
			</g>
		</g>
		<g class="st13">
			<g>
				
					<ellipse transform="matrix(0.9897 -0.1434 0.1434 0.9897 -57.8178 53.3694)" class="st0" cx="341.4" cy="427.8" rx="8.3" ry="9.6"/>
			</g>
		</g>
	</g>
	<g>
		<g>
			<path class="st0" d="M484,564.7l5.8-25l140.8,0.1l-1.1,24.3c-0.1,2.2-1.2,4.2-3.1,5.4l-67.9,45.1c-6.6,4.5-15.5,4-21.7-0.9
				L487.2,574C484.5,571.8,483.2,568.1,484,564.7z"/>
		</g>
	</g>
	<g>
		<g>
			<path class="st1" d="M629.9,556.6l-0.4,7.6c-0.1,2.2-1.3,4.2-3.1,5.4l-67.9,45.1c-6.6,4.4-15.5,4-21.7-0.9L487.2,574
				c-2.7-2.2-4-5.8-3.2-9.2l2.4-10.5c0,2.8,1.2,5.5,3.4,7.3l49.7,39.7c6.3,5,15,5.3,21.6,0.9l67.9-45.1
				C629.4,556.9,629.7,556.8,629.9,556.6z"/>
		</g>
	</g>
	<g>
		<g>
			<path class="st2" d="M548.5,622.8c-5.2,0-10.4-1.8-14.6-5.2l-49.7-39.7c-4.2-3.4-6.3-9.1-5-14.4l0,0l5.8-25
				c0.6-2.2,2.6-3.9,5-3.9l0,0l140.8,0.1c1.4,0,2.7,0.6,3.7,1.5s1.4,2.4,1.4,3.8l-1.1,24.3c-0.1,3.8-2.1,7.3-5.3,9.4l-67.9,45.1
				C557.6,621.5,553,622.8,548.5,622.8z M489,565.9c-0.4,1.5,0.2,3.2,1.4,4.1l49.7,39.7c4.5,3.7,10.9,3.9,15.7,0.7l67.9-45.1
				c0.5-0.4,0.8-0.8,0.8-1.4l0.8-19l-131.5-0.1L489,565.9z"/>
		</g>
	</g>
	<g>
		<g>
			<path class="st0" d="M494.5,534.4l74.5-41.1c3.7-2,8.3-1.7,11.6,0.9l46.3,37.1c5.5,4.5,5.1,13.1-0.8,16.9l-67.4,43.4
				c-3.7,2.4-8.4,2.2-11.8-0.4l-53.3-39.4C487.2,547.3,487.9,538,494.5,534.4z"/>
		</g>
		<g>
			<path class="st2" d="M552.8,598.5c-3.3,0-6.5-1.1-9.2-3.1L490.4,556c-4.2-3.2-6.6-8.3-6.3-13.5c0.4-5.3,3.3-10,8-12.5l74.5-41.1
				c5.5-3.1,12.3-2.5,17.2,1.4l46.3,37.1c3.9,3.2,6,7.9,5.8,12.9c-0.2,5.1-2.8,9.4-7.1,12.3L561.5,596
				C558.7,597.6,555.8,598.5,552.8,598.5z M574,497.1c-0.9,0-1.8,0.2-2.6,0.7l-74.5,41.1l0,0c-1.7,0.9-2.6,2.5-2.8,4.4
				c-0.1,1.9,0.7,3.5,2.1,4.7l53.3,39.4c1.8,1.3,4.2,1.4,6.1,0.2l67.4-43.4c1.4-0.9,2.4-2.5,2.5-4.2c0.1-1.8-0.6-3.4-2-4.5
				l-46.3-37.1C576.5,497.4,575.3,497.1,574,497.1z M494.5,534.4L494.5,534.4L494.5,534.4z"/>
		</g>
	</g>
	<g>
		<g>
			<path class="st0" d="M545.1,628.9c10.3-15.9,49.2-57.6,98.1-41.2c50.9,17.1,62,94.9,63.9,101.2c5.7,2.2,32.3,8.6,38.8,27.5
				c1.9,5.4,3,12.7-0.4,19.8c-15.3,33.2-64.2,31-87.9,21.2c-36.2-15-63.4-77.5-63.4-77.5s-24.4-0.8-37.4-14.6
				C542.9,650.5,545.1,628.9,545.1,628.9z"/>
		</g>
	</g>
	<g>
		<g>
			<path class="st0" d="M745.5,736.1c-15.3,33.2-64.2,31-87.9,21.2c-36.2-15-63.4-77.5-63.4-77.5s-24.4-0.8-37.4-14.6
				c-13.8-14.8-11.6-36.4-11.6-36.4c3.2-4.8,8.9-12,16.8-19.2c18.1-16.6,47.2-33.4,81.3-22c11,3.7,20.1,10.2,27.6,18.2
				c27.6,29.2,34.7,78,36.2,83c5.7,2.2,32.3,8.6,38.8,27.5c0,0.2,0.1,0.4,0.2,0.6C747.7,722.3,748.7,729.3,745.5,736.1z"/>
		</g>
	</g>
	<g>
		<g>
			<path class="st1" d="M745.5,736.1c-15.3,33.2-64.2,31-87.9,21.2c-36.2-15-63.4-77.5-63.4-77.5s-24.4-0.8-37.4-14.6
				c0,0,13.7-23.4,5.1-55.5c18.1-16.6,47.2-33.4,81.3-22c11,3.7,20.1,10.2,27.6,18.2c-3.8,7.1-11.8,16.5-28.7,28
				c-14.5,9.8-33.8,71.3,12.4,101c39.7,25.5,82.3,3.4,91.5-17.9C747.7,722.3,748.7,729.3,745.5,736.1z"/>
		</g>
	</g>
	<g>
		<g>
			<path class="st2" d="M543.1,627.6c20.2-36.8,66.9-60.8,107.3-42.6c29.5,13.3,45,44.3,54.2,73.4c3.1,9.4,5.2,19.4,7.3,29l-3-3.2
				c14.2,4.5,29.4,10,38.4,22.9c10,15.5,6.7,32.5-6.3,45.2c-18.1,17.5-45.4,19.4-68.7,15c-18.6-3.1-33.9-13.3-45.7-27
				c-7.8-8.7-14.5-18.2-20.4-28.1c-5.8-9.9-10.9-20.3-14.2-31.4c-0.4-1.3,0.4-2.7,1.7-3.1c1.2-0.4,2.4,0.1,2.8,1.2
				c5.9,9.4,11.8,19,17.8,28.2c11.6,17.6,25.6,36.4,44.9,45.1c26,10.2,69.4,10,81.9-19.7c2.2-5.9,0.8-13.9-2.8-19.4
				c-4.1-6.3-10.6-10.3-17.5-13.6c-3.7-1.8-7.4-3.2-11.2-4.5c-2.4-0.9-6.5-1.5-7.2-4.7c-5.9-28.2-14.2-57.7-33.9-79.6
				c-18.9-21.7-50.3-27-76.1-15.3c-8.6,3.8-16.6,9-24.2,14.9c-7.6,5.9-14.6,12.6-20.9,20.1C545.4,632.6,541.6,630.2,543.1,627.6
				L543.1,627.6z"/>
		</g>
	</g>
	<g>
		<g>
			<path class="st2" d="M609.7,714c-2.1,0-4-1.3-4.7-3.3c-0.8-2.2-19.1-54.5,4.5-91c25.6-39.5,61.7-20.2,62.1-19.9
				c2.5,1.4,3.3,4.5,2,6.8c-1.4,2.5-4.5,3.3-6.8,2c-1.2-0.6-28.3-14.9-48.6,16.6c-20.9,32.2-3.7,81.6-3.5,82
				c0.9,2.6-0.5,5.5-3.1,6.5C610.8,713.9,610.2,714,609.7,714z"/>
		</g>
	</g>
	<g>
		<g>
			<path class="st0" d="M427.6,691.9c-5.5-32.3,44.6-95.1,68.2-111.1c17.8-9.6,31.5,3.3,26.9,21.5c0,0-49.6,32.9-67.4,108.5
				C455.5,710.7,431.7,714.4,427.6,691.9z"/>
		</g>
	</g>
	<g>
		<g>
			<path class="st0" d="M523.7,594.7c0.1,2.4-0.2,5-0.8,7.7c0,0-49.5,32.9-67.4,108.5c0,0-23.7,3.5-27.9-18.9
				c-0.9-5.4-0.4-11.6,1.4-18.3c8.9-33.6,47.1-79.4,66.8-92.8C511.1,572.7,523.2,580.7,523.7,594.7z"/>
		</g>
	</g>
	<g>
		<g>
			<path class="st1" d="M523.7,594.7c0.1,2.4-0.2,5-0.8,7.7c0,0-49.5,32.9-67.4,108.5c0,0-23.7,3.5-27.9-18.9
				c-0.9-5.4-0.4-11.6,1.4-18.3c3.3,2.8,7.6,4.7,13,4.7C460.7,678.4,482.3,608.6,523.7,594.7z"/>
		</g>
	</g>
	<g>
		<g>
			<path class="st2" d="M451.6,716.1c-10.5,0-25.6-4.7-28.9-23.3l0,0c-6.1-35.6,46.3-99.9,70.5-116.1c0.1-0.1,0.2-0.2,0.5-0.2
				c9.8-5.2,19.8-5.1,26.9,0.4c7.2,5.7,10,15.9,7.3,26.8c-0.4,1.2-1.1,2.2-2.1,3c-0.5,0.4-48.2,32.9-65.3,105.4
				c-0.5,2-2.1,3.5-4.1,3.9C454.9,716,453.3,716.1,451.6,716.1z M432.6,691c2.4,13.1,13.1,14.9,18.8,15c17-67,57.8-100,66.8-106.6
				c1.1-6.3-0.5-11.7-4.1-14.5c-3.8-3-9.6-2.8-15.7,0.4C474.2,601.6,427.6,662,432.6,691z"/>
		</g>
	</g>
	<g>
		<g>
			<g>
				<path class="st14" d="M582.8,538c7.3,3.8,15.7,2.1,18.9-3.9l5.2-10l-26.6-13.8l-5.2,10C572.1,526.2,575.5,534.1,582.8,538z"/>
			</g>
		</g>
		<g class="st15">
			<g>
				<path class="st0" d="M578.6,535c-1.5-3.3-1.8-7-0.1-10.2l5.2-10l22.1,11.6l1.2-2.2l-26.6-13.8l-5.2,10
					C572.7,524.9,574.3,530.7,578.6,535z"/>
			</g>
		</g>
		<g>
			<g>
				<path class="st16" d="M582.8,538c7.3,3.8,15.7,2.1,18.9-3.9l5.2-10l-26.6-13.8l-2.8,5.4l13,6.7l-5.2,10
					c-0.9,1.9-2.6,3.4-4.5,4.4C581.5,537.3,582.1,537.7,582.8,538z"/>
			</g>
		</g>
		<g>
			<g>
				<path class="st2" d="M590.7,543.8c-3.2,0-6.6-0.8-9.7-2.5l0,0c-9.2-4.7-13.3-15-9.2-22.8l5.2-10c0.5-0.9,1.3-1.5,2.2-1.9
					c0.9-0.4,2-0.2,3,0.2l26.6,13.8c0.9,0.5,1.5,1.3,1.9,2.2c0.4,0.9,0.2,2-0.2,3l-5.2,10C602.4,541,596.9,543.8,590.7,543.8z
					 M582,515.4l-3.5,6.7c-2.1,4.1,0.6,9.7,6,12.5l0,0c5.4,2.8,11.6,1.8,13.7-2.2l3.5-6.7L582,515.4z"/>
			</g>
		</g>
		<g>
			<g>
				
					<ellipse transform="matrix(0.4621 -0.8868 0.8868 0.4621 -139.3978 804.5497)" class="st14" cx="593.5" cy="517.2" rx="12.2" ry="15"/>
			</g>
		</g>
		<g class="st15">
			<g>
				<path class="st0" d="M588,528c0.8,0.4,1.7,0.8,2.5,1.1c-5.7-4.1-8.1-11-5.4-16.3c2.7-5.3,9.8-7.2,16.4-4.8
					c-0.7-0.5-1.4-0.9-2.2-1.4c-7.3-3.8-15.7-2.1-18.9,3.8C577.3,516.2,580.7,524.1,588,528z"/>
			</g>
		</g>
		<g>
			<g>
				<path class="st16" d="M588,528c7.3,3.8,15.8,2.1,18.9-3.9c3.1-5.9-0.4-13.8-7.7-17.7c-0.5-0.2-0.9-0.5-1.3-0.6
					c3.4,4,4.5,9.2,2.2,13.3c-3,5.5-10.5,7.4-17.5,4.5C584,525.3,585.9,526.8,588,528z"/>
			</g>
		</g>
		<g>
			<g>
				<path class="st2" d="M596,533.8c-3.3,0-6.7-0.8-9.8-2.5c-9.2-4.7-13.3-15-9.2-22.8c4-7.8,14.8-10.3,24-5.4
					c9.2,4.7,13.3,15,9.2,22.8c-2,3.9-5.8,6.6-10.5,7.6C598.5,533.7,597.3,533.8,596,533.8z M591.2,508.2c-3.3,0-6.1,1.3-7.4,3.9
					c-2.1,4,0.7,9.7,6,12.5c2.7,1.4,5.8,1.9,8.5,1.4c2.4-0.5,4.2-1.8,5.2-3.7c2.1-4-0.7-9.7-6-12.5
					C595.3,508.8,593.2,508.2,591.2,508.2z"/>
			</g>
		</g>
	</g>
	<g>
		<g>
			<path class="st2" d="M594.2,573.8c-1.1,0-2.1-0.4-3.1-1.1l-21.8-16.6c-3.7-2.8-8-4.5-12.6-4.8l-11.8-1.1
				c-5.4-0.5-10.9-2.2-15.5-5.2l-22.8-14.5c-2.4-1.5-3.1-4.6-1.5-7c1.5-2.4,4.6-3.1,7-1.5l22.8,14.5c3.3,2.1,7.1,3.3,10.9,3.7
				l11.8,1.1c6.5,0.6,12.7,3,17.9,7l21.8,16.6c2.2,1.7,2.6,4.8,0.9,7.1C597.2,573.1,595.7,573.8,594.2,573.8z"/>
		</g>
	</g>
	<g>
		<g>
			<path class="st0" d="M665.6,585.7c0,0-15.6,40.6-55.5,38.5c-39.9-2.1-57.4-72.4-43.3-104c16.6-37.4,70.3-38.4,83.2,23.5
				L665.6,585.7z"/>
		</g>
	</g>
	<g>
		<g>
			<path class="st0" d="M665.6,585.7c0,0-14.4,37.3-50.8,38.6c-1.5,0-3.2,0-4.8,0c-39.9-2.1-57.4-72.4-43.3-104
				c15.9-35.8,65.9-38.2,81.4,15.9l0,0c0.7,2.4,1.3,5,1.9,7.6L665.6,585.7z"/>
		</g>
	</g>
	<g>
		<g>
			<path class="st1" d="M665.6,585.7c0,0-14.4,37.3-50.8,38.6l-4.7-30.9l11.2-14.6c0,0,31.3,3.5,26.9-42.4c0.7,2.4,1.3,5,1.9,7.6
				L665.6,585.7z"/>
		</g>
	</g>
	<g>
		<g>
			<path class="st2" d="M667.9,586.7c-5.9,27.6-36.5,47.7-64.3,42.1c-23.3-5-36.4-28.3-42.6-49.3c-5.7-20.3-7.6-43.2,1.3-62.8
				c9.6-21.1,34.3-33.6,56.5-24.8c13.8,5.3,24.2,17.6,29.3,31c2.5,6.6,4,13.5,4.4,20.3c0.1,1.4-0.9,2.6-2.4,2.7
				c-1.2,0.1-2.1-0.6-2.6-1.7c-6.5-16.9-14.5-35.8-32.5-42.6c-17-6.6-35.6,3.8-42.7,19.8c-5.2,11.2-5.3,24-4.1,36.1
				c2.6,23.5,14.8,58.4,41.8,61.1c9.7,0.7,19.5-1.7,27.7-7c10.5-6.7,17.9-17.1,25.4-27C664.6,582.4,668.5,583.8,667.9,586.7
				L667.9,586.7z"/>
		</g>
	</g>
	<g>
		<g>
			<path class="st17" d="M627.3,622.3c-5.2,1.5-11,2.2-17.4,2c-34.5-1.8-52.2-54.4-47.3-89.1c4-11,11.8-23.5,26.7-26.4
				c22.1-4.2,42.3,15.3,49.9,56.7C643.3,586.4,645.7,612.5,627.3,622.3z"/>
		</g>
	</g>
	<g>
		<g>
			<path class="st18" d="M627.3,622.3c-5.2,1.5-11,2.2-17.4,2c-22.8-1.2-38.4-24.8-44.7-50.5c8.1,14.5,19.9,24.8,34.9,24.3
				c38.4-1.2,33.3-37.8,29.3-58.9c-0.5-2.6-1.1-5.2-1.7-7.7c5,8.9,8.9,20.2,11.4,33.9C643.3,586.4,645.7,612.5,627.3,622.3z"/>
		</g>
	</g>
	<g>
		<g>
			<path class="st2" d="M612.9,629.4c-1.1,0-2.1,0-3.2-0.1c-11.9-0.6-22.9-6.7-31.9-17.6c-15.3-18.6-23.8-51.1-20.2-77.3l0.1-0.6
				l0.2-0.5c6.1-16.8,16.6-27,30.5-29.6c9.4-1.8,18.8,0.1,26.9,5.8c13.9,9.6,24,28.4,28.9,54.9c4.4,23.1,6.6,51.1-14.5,62.3
				l-0.5,0.2l-0.5,0.1C623.8,628.7,618.5,629.4,612.9,629.4z M627.3,622.3L627.3,622.3L627.3,622.3z M567.6,536.4
				c-3.1,23.1,4.6,52.8,18.1,68.9c7.2,8.7,15.5,13.5,24.7,13.9c5.2,0.2,10.4-0.2,15.1-1.7c14.9-8.4,12.6-31.7,8.9-51.3
				c-4.4-23.4-13.2-40.6-24.7-48.4c-6-4.1-12.5-5.4-19.4-4.1C580.2,515.6,572.6,523.3,567.6,536.4z"/>
		</g>
	</g>
	<g>
		<g>
			<path class="st2" d="M561.9,548.5c-1.5,0-3.2-0.7-4.1-2.1c-1.7-2.2-1.1-5.4,1.2-7.1c0.9-0.6,22.5-15.5,68.1-14.4
				c2.8,0,5,2.4,5,5.2c0,2.7-2.4,5-5.1,5h-0.1c-42.3-0.9-61.8,12.5-62.1,12.6C563.9,548.3,563,548.5,561.9,548.5z"/>
		</g>
	</g>
	<g>
		<g>
			<path class="st2" d="M563.8,572.4c-2,0-3.9-1.2-4.7-3.3c-0.9-2.6,0.2-5.5,3-6.5c1.3-0.5,32.7-12.5,74.5-13.9
				c2.8,0,5.2,2.1,5.2,4.8s-2.1,5.2-4.8,5.2c-39.9,1.4-70.8,13.1-71.2,13.2C565.1,572.3,564.5,572.4,563.8,572.4z"/>
		</g>
	</g>
	<g>
		<g>
			<path class="st2" d="M570.3,594.1c-2.1,0-4.1-1.3-4.8-3.4c-0.9-2.6,0.5-5.5,3.2-6.4c1.3-0.5,31.6-10.6,70.1-11.8
				c2.7-0.1,5.1,2.1,5.2,5c0.1,2.8-2.1,5.1-5,5.2c-36.9,1.2-66.8,11.2-67.2,11.2C571.4,594,570.9,594.1,570.3,594.1z"/>
		</g>
	</g>
	<g>
		<g>
			<path class="st2" d="M581.3,613.1c-2.1,0-4.1-1.4-4.8-3.5c-0.8-2.7,0.7-5.5,3.3-6.4c1.1-0.4,26-7.9,61.6-9.1
				c2.7-0.1,5.1,2.1,5.2,5c0.1,2.8-2.1,5.1-5,5.2c-34.2,1.1-58.7,8.5-58.9,8.6C582.4,613,581.9,613.1,581.3,613.1z"/>
		</g>
	</g>
</g>
</svg>
