<?xml version="1.0" encoding="utf-8"?>
<!-- Generator: Adobe Illustrator 25.0.0, SVG Export Plug-In . SVG Version: 6.00 Build 0)  -->
<svg version="1.1" id="Layer_1" xmlns="http://www.w3.org/2000/svg" xmlns:xlink="http://www.w3.org/1999/xlink" x="0px" y="0px"
	 viewBox="0 0 300 300" style="enable-background:new 0 0 300 300;" xml:space="preserve">
<style type="text/css">
	.st0{opacity:0.3;}
	.st1{fill:#371A45;}
	.st2{fill:#FFFFFF;}
	.st3{opacity:0.35;}
	.st4{fill:#4A83FF;}
	.st5{fill:none;stroke:#293856;stroke-width:32.8772;stroke-linecap:round;stroke-linejoin:round;stroke-miterlimit:10;}
	.st6{fill:#32B1D1;}
	.st7{fill:#575B5A;}
	.st8{fill:#A34F31;}
	.st9{fill:#6B184E;}
	.st10{fill:#BF943D;}
	.st11{fill:#EC1C24;}
	.st12{fill:#FFCE00;}
	.st13{opacity:0.7;}
	.st14{fill:#220F2D;}
</style>
<g>
	<g class="st0">
		<ellipse class="st1" cx="168.2" cy="277.9" rx="78" ry="14.1"/>
	</g>
	<g>
		<g>
			<path class="st2" d="M141,126.2l-7.3,23.3c-11.3,3.2-39.5-1.9-58.9-15.3c-8.4-5.8-15.1-13.1-18.2-22c-9-26,14.3-27.6,23.2-21.9
				c7,4.4,12.1,10.2,18.4,16C107.1,114.6,118.5,122.7,141,126.2z"/>
		</g>
		<g class="st3">
			<path class="st1" d="M136.1,141.6l-2.5,7.9c-11.3,3.2-39.5-1.9-58.9-15.3c-8.4-5.8-15.1-13.1-18.2-22c-3.3-9.6-2.2-15.9,0.9-19.7
				c-0.2,3.2,0.4,7,2,11.7c0,0.1,0.1,0.3,0.2,0.4c2.5,6.6,11.1,8.4,16.3,3.5c1-0.9,1.7-1.4,1.7-1c0.1,8.9-2.8,15.9,0.2,19.1
				C93.3,143.4,124.6,144.5,136.1,141.6z"/>
		</g>
		<g>
			<path class="st4" d="M141,126.2l-3.4,10.7l-4,12.6c-1.9,0.6-4.4,0.9-7.2,0.9c-13.5,0.3-35.6-5.1-51.7-16.2
				c13.2-6.6,20.1-19.5,23.4-27.9c4.2,3.9,8.9,7.7,15,11.1c5.5,3,12.2,5.7,20.7,7.6C136.1,125.4,138.5,125.9,141,126.2z"/>
		</g>
		<g class="st3">
			<path class="st1" d="M141,126.2l-7.3,23.3c-11.3,3.2-39.5-1.9-58.9-15.3c2.1-1,4-2.2,5.8-3.5c10.1,5.8,21.6,9.6,31.8,11.4
				c11.8,2.2,23.3-4.8,26.9-16.2l0,0C139.8,126.1,140.4,126.2,141,126.2z"/>
		</g>
		<g>
			<path class="st1" d="M125.3,152c-10.8,0-25.6-3.4-38.2-9.1c-4.8-2.2-9.3-4.7-13.2-7.4c-9.5-6.6-15.8-14.2-18.8-22.8
				c-4.6-13.4-0.8-20,3.2-23.1c6.2-4.9,16.5-4.3,22.3-0.6c5.2,3.3,9.4,7.3,13.8,11.6c1.6,1.5,3.2,3.1,4.8,4.6c3.2,2.9,6.1,5.3,9,7.3
				c9.1,6.2,19.6,10.1,33,12.2c0.8,0.1,1.4,0.9,1.3,1.8c-0.1,0.8-0.9,1.4-1.8,1.3c-14-2.2-24.9-6.2-34.3-12.8
				c-3.1-2.1-6-4.5-9.3-7.6c-1.7-1.6-3.3-3.2-4.9-4.7c-4.3-4.1-8.3-8.1-13.3-11.2c-4.8-3-13.7-3.6-18.8,0.4
				c-4.6,3.7-5.4,10.5-2.2,19.7c2.7,7.9,8.7,15.1,17.6,21.2c3.8,2.6,8.1,5,12.7,7.1c17.5,7.9,36.6,10.3,44.9,7.9
				c0.8-0.2,1.7,0.2,1.9,1.1c0.2,0.8-0.2,1.7-1.1,1.9C131.6,151.7,128.6,152,125.3,152z"/>
		</g>
		<g>
			<path class="st2" d="M108,115.6c-3.2,11.8-11.4,20.4-18.7,26c-1.2,0.9-2.8,1.1-4.2,0.4c-2.2-1-4.3-2.1-6.3-3.3
				c-2.5-1.5-2.7-5.1-0.3-6.7c2.8-1.9,5.5-4.2,8.1-7c5-5.5,8.1-10.8,10.1-15c1.1-2.4,4.2-3.1,6.2-1.4c1.2,1,2.4,1.9,3.6,2.9
				C107.9,112.3,108.5,114,108,115.6z"/>
		</g>
		<g class="st3">
			<path class="st1" d="M105.6,122.3c-4,8.4-10.4,14.8-16.2,19.3c-1.2,0.9-2.8,1.1-4.2,0.4c-2.2-1-4.3-2.1-6.3-3.3
				c-2.5-1.5-2.7-5.1-0.3-6.7c0.9-0.6,1.9-1.3,2.8-2.1c0.3,0.7,0.9,1.4,1.6,1.8c2.1,1.2,4.2,2.3,6.3,3.3c1.4,0.6,3,0.5,4.2-0.4
				C97.6,131.4,102,127.3,105.6,122.3z"/>
		</g>
		<g>
			<path class="st1" d="M86.9,143.9c-0.8,0-1.6-0.2-2.4-0.6c-2.2-1.1-4.4-2.2-6.4-3.4c-1.7-0.9-2.7-2.7-2.8-4.6
				c-0.1-1.9,0.8-3.7,2.4-4.8c2.9-2,5.5-4.3,7.8-6.8c4.1-4.6,7.4-9.5,9.8-14.6c0.7-1.6,2.1-2.7,3.8-3.1c1.7-0.4,3.4,0,4.8,1.1
				c1.2,1,2.4,1.9,3.6,2.8c1.9,1.4,2.7,3.7,2.1,5.9l0,0c-3.4,12.6-12.3,21.5-19.2,26.8C89.3,143.6,88.1,143.9,86.9,143.9z
				 M100.3,109.1c-0.2,0-0.4,0-0.5,0.1c-0.8,0.2-1.4,0.7-1.7,1.4c-2.5,5.4-6,10.6-10.3,15.4c-2.4,2.7-5.2,5.1-8.3,7.3
				c-0.7,0.5-1.1,1.2-1.1,2.1c0,0.9,0.5,1.6,1.2,2c2,1.1,4.1,2.2,6.2,3.3c0.8,0.4,1.8,0.3,2.6-0.3c6.5-5,15-13.4,18.1-25.2l0,0
				c0.3-1-0.1-2-0.9-2.6c-1.2-0.9-2.4-1.9-3.7-2.9C101.5,109.3,100.9,109.1,100.3,109.1z M108,115.6L108,115.6L108,115.6z"/>
		</g>
		<g>
			<path class="st2" d="M232,200.6c-8.9,11.6-32,7.6-32,7.6l-0.2-78.3l0-15.8c0,0,13.2,0.3,23.2,4.5c4.8,2,8.9,4.9,10.5,9
				C238.8,141.9,239.3,191.1,232,200.6z"/>
		</g>
		<g class="st3">
			<path class="st1" d="M237.4,160.2c0.3,17.2-1.3,35-5.4,40.4c-8.9,11.6-32,7.6-32,7.6l-0.2-94.1c0,0,0.2,0,0.7,0l0.2,73.4
				c0,0,23.1,4,32-7.6C235.1,176.7,236.6,169.3,237.4,160.2z"/>
		</g>
		<g>
			<path class="st1" d="M209.1,210.4c-5.1,0-9-0.6-9.4-0.7c-0.8-0.1-1.4-0.9-1.3-1.8c0.1-0.8,0.9-1.4,1.8-1.3c0.2,0,22.3,3.7,30.5-7
				c6.8-8.8,6.6-56.9,1.2-71.6c-4.3-11.6-32-12.5-32.3-12.5c-0.9,0-1.5-0.7-1.5-1.6c0-0.8,0.7-1.5,1.6-1.5c1.2,0,30.1,1,35.1,14.5
				c2.6,7,4.2,22.6,4.1,38.9c-0.1,8.5-0.7,29.1-5.8,35.6C227.6,208.9,216.9,210.4,209.1,210.4z"/>
		</g>
		<g>
			<path class="st2" d="M235.7,167.4l-15.8,1.2c-1.4,0.1-2.6,1.1-2.8,2.5c-0.9,5.1-2.4,16.9,2.5,20.9c4.1,3.2,10.8,2.9,14.7-0.4
				c4.4-3.7,4.8-15.3,4.7-21.1C239,168.7,237.5,167.3,235.7,167.4z"/>
		</g>
		<g class="st3">
			<path class="st1" d="M217.1,171.2c-0.9,5.1-2.4,16.9,2.5,20.9c4.1,3.2,10.8,2.9,14.7-0.4c2.7-2.3,3.9-7.6,4.4-12.6
				c-0.7,2.5-1.8,4.6-3.2,5.9c-7.9,7.7-13.9-1.4-13.9-1.4s-1,2.2-1.9,2.3c-3.4,0.5-2.7-10.2-2.2-15.8
				C217.3,170.4,217.2,170.8,217.1,171.2z"/>
		</g>
		<g>
			<path class="st1" d="M226.6,195.8c-2.9,0-5.7-0.9-7.9-2.6c-5.4-4.3-4.2-15.9-3.1-22.4c0.4-2.1,2.1-3.6,4.2-3.8l15.8-1.2l0,0
				c1.3-0.1,2.6,0.3,3.5,1.2c0.9,0.9,1.5,2.1,1.5,3.4c0.1,8.1-0.7,18.4-5.3,22.3C232.9,194.8,229.7,195.8,226.6,195.8z M235.8,169
				l-15.8,1.2c-0.7,0.1-1.3,0.6-1.4,1.3c-1.8,9.8-1,17,1.9,19.4c3.4,2.7,9.3,2.5,12.7-0.4c2.7-2.3,4.3-9.8,4.2-19.9
				c0-0.4-0.2-0.8-0.5-1.1C236.7,169.1,236.3,168.9,235.8,169L235.8,169z"/>
		</g>
		<g>
			<path class="st1" d="M223,180.3c0.2,2,0.2,3.9,0.3,5.7c0.1,1.9,0.3,3.7,0.8,5.4c0.4,1.7,1.2,3.3,2.2,4.6c1.1,1.2,2.5,2,4.1,2.4h0
				c0.8,0.2,1.3,1,1.1,1.9c-0.2,0.8-1,1.3-1.9,1.1c0,0-0.1,0-0.1,0c-1-0.3-2.1-0.8-3-1.4s-1.8-1.4-2.4-2.2c-1.4-1.7-2.1-3.8-2.4-5.8
				c-0.4-2-0.5-4-0.5-5.9c0-1.9,0.1-3.9,0.1-5.7v0c0-0.4,0.4-0.8,0.8-0.8C222.6,179.5,223,179.9,223,180.3z"/>
		</g>
		<g>
			<path class="st1" d="M226.4,127c-1.4,0.1-2.9,0.3-4.4,0.5c-1.5,0.2-2.9,0.4-4.4,0.7c-1.4,0.3-2.9,0.6-4.3,0.9
				c-1.4,0.3-2.8,0.7-4.2,1.1l0,0c-0.8,0.2-1.7-0.2-1.9-1c-0.2-0.8,0.2-1.7,1-1.9c0.1,0,0.1,0,0.1,0c1.5-0.3,3-0.6,4.5-0.8
				c1.5-0.2,3-0.4,4.5-0.5c1.5-0.1,3-0.2,4.5-0.3s3-0.1,4.5-0.1c0.4,0,0.7,0.3,0.6,0.7C227,126.7,226.8,127,226.4,127L226.4,127z"/>
		</g>
		<g class="st3">
			<path class="st1" d="M223,118.5c-6.9,5.2-14.8,9.1-23.2,11.3l0-15.8C199.7,114,212.9,114.4,223,118.5z"/>
		</g>
		<g>
			<path class="st2" d="M169,265c-6.7,15.6-35.6,13-42.9,6.6c-7.5-6.6,6-14.9,6-14.9c-2.8-4.8-4.4-11.6-5.1-18.8
				c-0.9-8.2-0.8-16.8-0.4-23.5c0.3-6.9,0.9-11.6,0.9-11.6l42.6-23c0,8.7-1.5,16.1-2.8,22c-2.8,12.6-2.6,22.3-1.5,30.3
				c0.5,3.9,1.3,7.3,2.1,10.4C170,251.3,172.1,257.9,169,265z"/>
		</g>
		<g>
			<path class="st4" d="M165.8,232c0.5,3.9,1.3,7.3,2.1,10.4c-19.1,3.4-33.7-1.3-40.9-4.5c-0.9-8.2-0.8-16.8-0.4-23.5
				c0.3-6.9,0.9-11.6,0.9-11.6l42.6-23c0,8.7-1.5,16.1-2.8,22C164.5,214.4,164.7,224.1,165.8,232z"/>
		</g>
		<g class="st3">
			<path class="st1" d="M166.7,204.5c-0.2,0.9-0.3,1.8-0.5,2.6C166.4,206.3,166.5,205.4,166.7,204.5z"/>
		</g>
		<g>
			<path class="st1" d="M145.3,278.2c-8.6,0-16.7-2.4-20.2-5.5c-2-1.8-2.9-3.9-2.7-6.2c0.4-4.6,5.3-8.7,7.8-10.4
				c-8.6-16.7-4.3-52.1-4.1-53.6c0.1-0.9,0.9-1.4,1.7-1.3c0.8,0.1,1.4,0.9,1.3,1.7c-0.1,0.4-4.5,37.8,4.4,53
				c0.4,0.7,0.2,1.7-0.5,2.1c-2,1.2-7.2,5.2-7.5,8.8c-0.1,1.3,0.4,2.5,1.7,3.6c4.1,3.7,16.4,6.1,26.6,3.8c4.9-1.1,11.2-3.7,13.9-9.8
				c2.6-6.1,1.2-11.6-0.6-19.3c-2.5-10.3-5.7-23.1-1.2-43.7c1.4-6.4,2.7-13.5,2.7-21.7c0-0.9,0.7-1.5,1.6-1.5c0,0,0,0,0,0
				c0.9,0,1.5,0.7,1.5,1.6c0,8.5-1.4,15.7-2.8,22.3c-4.4,19.9-1.3,32.3,1.1,42.3c2,8,3.5,14.3,0.5,21.3c-2.5,5.8-8.1,9.9-16,11.6
				C151.4,277.9,148.3,278.2,145.3,278.2z"/>
		</g>
		<g>
			<path class="st1" d="M157.2,244.6c-9.4,0-22.2-1.1-30.9-5.9c-0.6-0.3-0.8-1-0.4-1.6c0.3-0.6,1-0.8,1.6-0.4
				c14.2,8,41.3,5.1,41.6,5.1c0.6-0.1,1.2,0.4,1.3,1c0.1,0.6-0.4,1.2-1,1.3C168.9,244,163.9,244.6,157.2,244.6z"/>
		</g>
		<g>
			<path class="st5" d="M162,212.9"/>
		</g>
		<g>
			<path class="st6" d="M152.4,142.6"/>
		</g>
		<g class="st3">
			<path class="st1" d="M125.9,165.1c-1,9-1.6,16.8-1.7,23.4C124,182.4,124.6,174.6,125.9,165.1z"/>
		</g>
		<g class="st3">
			<path class="st1" d="M215.4,176.4c0-3.5-0.3-7.3-0.6-11.2C215.3,169.2,215.5,172.9,215.4,176.4z"/>
		</g>
		<g>
			<path class="st2" d="M160.1,225.7c15.3,1.1,26.9-3.7,30.9-5.4c10.2-4.5,18.1-12.8,21.9-23.7c5.9-16.8,1.7-54-14.4-96.2l-52.4-3.3
				c-23.8,45.5-29.1,95.3-19.3,111.7c1,1.6,2.1,3.2,3.4,4.6c5.6,5.8,14.5,9.2,21.7,10.9"/>
		</g>
		<g>
			<path class="st4" d="M215.3,183.2c-0.3,5.3-1.1,9.8-2.4,13.4c-3.8,10.9-11.7,19.1-21.9,23.7c-4,1.8-15.6,6.5-30.9,5.4l-8.2-1.3
				c-7.2-1.7-16.1-5.1-21.7-10.9c-1.4-1.4-2.4-3-3.4-4.7c-6-9.9-6.3-32.2-0.4-58.3c1.2-5.5,2.1-10.9,4-16.7c0.9-2.8,2.5-5.9,3.5-8.8
				c3.3-9.3,7.4-18.7,12.2-27.9l52.4,3.3c3.2,8.3,5.9,16.5,8.2,24.3c0,0,0,0,0,0C213.4,148,216.2,168.6,215.3,183.2z"/>
		</g>
		<g>
			<path class="st1" d="M129.6,139.9c0.1,0.6,0.1,1.1,0.1,1.6c0,0.5-0.1,1.1-0.1,1.6c-0.1,1.1-0.3,2.1-0.5,3.1
				c-0.4,2.1-0.9,4.1-1.4,6.1c-0.5,2-0.9,4.1-1.3,6.1s-0.7,4.1-1,6.2c-1.2,8.2-1.9,16.6-1.5,24.8c0.2,4.1,0.7,8.2,1.7,12.1
				c0.5,1.9,1.2,3.8,2.1,5.6c0.4,0.8,1,1.7,1.5,2.5c0.6,0.8,1.1,1.6,1.8,2.3c2.7,2.9,6.1,5.1,9.8,6.9c0.9,0.4,1.9,0.9,2.8,1.2
				c0.9,0.4,1.9,0.7,2.9,1c1,0.3,1.9,0.6,2.9,1.1c0.5,0.2,0.9,0.4,1.4,0.7c0.5,0.3,0.9,0.6,1.4,1l0,0c0.2,0.2,0.2,0.6,0,0.8
				c-0.1,0.1-0.2,0.1-0.3,0.2c-1.2,0.3-2.3,0.3-3.3,0.1c-1.1-0.2-2.1-0.5-3.1-0.8c-1-0.4-2-0.8-3-1.2c-1-0.4-2-0.8-3-1.3
				c-3.9-1.9-7.6-4.3-10.7-7.6c-0.8-0.8-1.4-1.7-2.1-2.6c-0.6-0.9-1.2-1.8-1.7-2.8c-1.1-2-1.8-4.1-2.3-6.2
				c-1.1-4.2-1.6-8.5-1.8-12.8c-0.4-8.5,0.3-17,1.5-25.4c0.3-2.1,0.7-4.2,1.1-6.3c0.2-1,0.4-2.1,0.6-3.1l0.6-3.1
				c0.4-2.1,0.8-4.1,1.4-6.2c0.6-2,1.3-4,2.7-5.8c0.2-0.2,0.5-0.3,0.8-0.1C129.5,139.6,129.6,139.8,129.6,139.9L129.6,139.9z"/>
		</g>
		<g>
			<path class="st1" d="M164.6,227.4c-1.5,0-3.1-0.1-4.6-0.2c-0.9-0.1-1.5-0.8-1.4-1.6c0.1-0.9,0.8-1.5,1.6-1.4
				c13,0.9,23.6-2.4,30.2-5.3c10-4.4,17.5-12.5,21.1-22.8c5.2-14.7,2.8-49.5-14.1-94.2L146,98.6c-0.9-0.1-1.5-0.8-1.4-1.6
				c0.1-0.8,0.8-1.5,1.6-1.4l52.4,3.3c0.6,0,1.1,0.4,1.4,1c15.2,39.7,21,78.8,14.5,97.2c-3.9,11.1-12,19.8-22.7,24.6
				C185.5,224.4,176.1,227.4,164.6,227.4z"/>
		</g>
		<g>
			<path class="st1" d="M164.6,227.4c-1.5,0-3.1-0.1-4.6-0.2c-0.9-0.1-1.5-0.8-1.4-1.6c0.1-0.9,0.8-1.5,1.6-1.4
				c13,0.9,23.6-2.4,30.2-5.3c10-4.4,17.5-12.5,21.1-22.8c5.7-16.2,1.4-49.9-11-85.7c-0.3-0.8,0.1-1.7,0.9-2c0.8-0.3,1.7,0.2,2,0.9
				c12.6,36.4,16.9,70.8,11,87.7c-3.9,11.1-12,19.8-22.7,24.6C185.5,224.4,176.1,227.4,164.6,227.4z"/>
		</g>
		<g>
			<path class="st1" d="M153,257.4c-1.7-0.6-3.5-1-5.2-1.2c-1.7-0.3-3.5-0.3-5.2-0.2c-0.9,0-1.7,0.1-2.5,0.2
				c-0.8,0.2-1.7,0.3-2.5,0.5c-0.4,0.1-0.8,0.2-1.2,0.3c-0.4,0.1-0.8,0.2-1.2,0.4c-0.4,0.1-0.8,0.3-1.2,0.4
				c-0.4,0.1-0.8,0.3-1.2,0.4l-0.2,0c-0.8,0.2-1.7-0.2-1.9-1c-0.2-0.7,0.1-1.5,0.8-1.8c1.7-0.9,3.6-1.6,5.5-1.9
				c0.9-0.2,1.9-0.2,2.9-0.3c0.5,0,1,0,1.4,0c0.5,0,1,0.1,1.4,0.1c1.9,0.2,3.8,0.6,5.6,1.2c1.8,0.6,3.5,1.5,5,2.6
				c0.1,0.1,0.1,0.2,0.1,0.3C153.2,257.4,153.1,257.4,153,257.4L153,257.4z"/>
		</g>
		<g class="st3">
			<path class="st1" d="M215.4,176.4c-0.1,5.9-20.3-24.6-20.3-20.6c0,8.9,2.9,22.2,2.2,34.3c-0.2,3.1-0.5,6.1-0.8,8.7
				c-0.7,5.9-2.2,10.3-5.6,11.5c-3.5,1.3-13,4.5-25.7,4.6c-1.7,0-3.4,0-5.2-0.1c-7.5-0.4-24.8-3.8-32.1-12.3c-0.4-0.5-0.8-1-1.2-1.6
				c-1.6-2.4-2.4-6.6-2.6-12.4c-0.2,9.8,0.6,16.6,2.6,20.3c0,0.1,0.1,0.1,0.1,0.1c-0.1,1.6-0.2,3.5-0.3,5.5c0.1,0.2,0.2,0.4,0.3,0.5
				c4.4,8.3,15.2,13,23.9,15.3c4.1,1.1,7.4,4.3,8.4,8.4c2.5,9.8,7.2,14.8,4.8,22c-4.9,14.8-29.9,10.4-39.8,4.6
				c-0.7,2.1-0.5,4.4,1.9,6.5c7.3,6.5,36.2,9,42.9-6.6c4.2-9.7-1.1-18.3-3.2-33c-0.1-0.9-0.2-1.8-0.3-2.7c0-0.2-0.1-0.4-0.1-0.6
				c0-0.2-0.1-0.5-0.1-0.7c0-0.3-0.1-0.5-0.1-0.8c0-0.4-0.1-0.8-0.1-1.3c0,0,0,0,0-0.1c12.8-0.1,22.3-4,25.8-5.6
				c10.2-4.5,18.1-12.8,21.9-23.7C214.7,191.5,215.5,184.6,215.4,176.4z"/>
		</g>
		<g>
			<path class="st2" d="M210.5,270.9c-6.8,15.6-35.6,13.1-42.9,6.6c-7.5-6.6,6-14.9,6-14.9c-4.8-5.6-7-13.2-7.9-20.8
				c-1.7-13.7,1-27.2,1-27.2l44.9-29.1c0,8.7-1.5,16.1-2.8,22c-3.3,15-2.4,25.9-0.7,34.6C210.3,254.3,214.2,262.1,210.5,270.9z"/>
		</g>
		<g>
			<path class="st4" d="M208.7,207.6c-3.3,15-2.4,25.9-0.7,34.6c-25.8,9-41.9-0.1-42.4-0.4c-1.7-13.7,1-27.2,1-27.2l17.1-13.3
				l27.8-15.7C211.5,194.2,210,201.6,208.7,207.6z"/>
		</g>
		<g class="st3">
			<path class="st1" d="M208.7,207.6c-3.3,15-2.4,25.9-0.7,34.6c-25.8,9-41.9-0.1-42.4-0.4c-0.1-0.9-0.2-1.9-0.3-2.8
				c0.1,0,0.1,0,0.2,0.1c16.4,4.5,32.9-7,34.3-23.9c0.3-3.9,0.9-8.2,2-12.9c0.8-3.6,1.6-7.8,2.2-12.5l7.5-4.2
				C211.5,194.2,210,201.6,208.7,207.6z"/>
		</g>
		<g class="st3">
			<path class="st1" d="M208.7,207.7c-7.9,36,8.2,48.3,1.7,63.3c-6.7,15.6-35.6,13.1-42.9,6.6c-2-1.7-2.5-3.6-2.2-5.4
				c9.8,5.2,34.4,6.1,40.5-8.2c2.2-5.1-11.2-15.1-11.3-26.3c-0.1-9.4,2.6-18.9,5.3-26.4c2.2-6,3.6-24.5,15.5-31
				c-0.2,6.4-1,11.7-2.4,15.9c-0.7,0.2-1.5,0.4-2.3,0.7C210.2,200.8,209.4,204.5,208.7,207.7z"/>
		</g>
		<g>
			<path class="st1" d="M167.1,214.8c0,4.2-0.2,8.3-0.3,12.4c-0.1,4.1-0.1,8.2,0.2,12.2c0.1,2,0.4,4,0.8,6c0.4,2,0.8,3.9,1.5,5.9
				c0.6,1.9,1.3,3.8,2.3,5.5c0.9,1.7,2,3.4,3.3,4.9c0.6,0.7,0.5,1.6-0.2,2.2c-0.1,0-0.1,0.1-0.2,0.1l0,0c-0.6,0.4-1.2,0.8-1.8,1.3
				c-0.6,0.5-1.2,0.9-1.8,1.5c-1.1,1-2.1,2.1-2.9,3.3c-0.8,1.2-1.2,2.4-1.1,3.5c0.1,1.1,0.8,2.1,1.9,3c1,0.9,2.4,1.5,3.7,2.1
				c1.4,0.6,2.9,1,4.4,1.4c3,0.7,6.1,1,9.2,1.1c1.6,0,3.1,0,4.6-0.2c1.5-0.2,3.1-0.4,4.6-0.7c3-0.7,5.9-1.7,8.3-3.4
				c1.2-0.8,2.3-1.8,3.3-2.9c0.9-1.1,1.7-2.3,2.3-3.6c1.1-2.7,1.6-5.7,1.4-8.7c-0.2-3-0.9-6.1-1.7-9.2c-0.8-3.1-1.6-6.2-2.2-9.4
				c-0.6-3.2-1.1-6.4-1.4-9.7s-0.3-6.5-0.2-9.8s0.5-6.5,1-9.7c0.5-3.2,1.2-6.4,1.8-9.5c0.6-3.1,1-6.2,1.4-9.4
				c0.4-3.1,0.8-6.2,1.7-9.4l0,0c0.1-0.3,0.4-0.4,0.6-0.4c0.2,0.1,0.3,0.2,0.4,0.4c0.8,3.2,0.8,6.5,0.5,9.8c-0.3,3.2-1,6.4-1.7,9.6
				c-0.7,3.2-1.3,6.2-1.8,9.3c-0.5,3.1-0.8,6.2-0.9,9.4c-0.3,6.3,0.2,12.6,1.5,18.7c0.6,3.1,1.4,6.2,2.1,9.3
				c0.8,3.1,1.5,6.3,1.8,9.7c0.1,1.7,0.1,3.4-0.2,5.1c-0.3,1.7-0.7,3.4-1.4,5c-0.7,1.6-1.6,3.1-2.8,4.5c-1.1,1.3-2.5,2.5-3.9,3.4
				c-2.9,1.9-6.1,3.1-9.4,3.8c-1.6,0.4-3.3,0.6-4.9,0.8c-1.6,0.1-3.3,0.2-5,0.2c-3.3-0.1-6.6-0.4-9.8-1.2c-1.6-0.4-3.2-0.9-4.8-1.5
				c-1.6-0.6-3.1-1.4-4.6-2.6c-0.2-0.1-0.4-0.3-0.5-0.5c-0.2-0.2-0.3-0.3-0.5-0.5c-0.3-0.4-0.6-0.7-0.9-1.2c-0.5-0.8-0.9-1.8-1-2.9
				s0-2.1,0.3-3c0.3-0.9,0.7-1.8,1.2-2.5c1-1.5,2.2-2.8,3.4-3.9c0.6-0.6,1.3-1.1,1.9-1.6c0.7-0.5,1.3-1,2.1-1.5l-0.4,2.3
				c-1.4-1.7-2.6-3.5-3.6-5.5c-1-1.9-1.8-3.9-2.5-6c-0.7-2-1.2-4.1-1.6-6.2c-0.2-1.1-0.4-2.1-0.5-3.1c-0.1-1.1-0.3-2.1-0.4-3.2
				c-0.4-4.2-0.5-8.5-0.2-12.7c0.1-2.1,0.4-4.2,0.8-6.3c0.4-2.1,0.9-4.1,1.7-6.1c0.1-0.3,0.4-0.4,0.7-0.3
				C167,214.4,167.1,214.6,167.1,214.8L167.1,214.8z"/>
		</g>
		<g>
			<path class="st1" d="M186.6,247.1c-6.9,0-14.5-1-21.4-4.3c-0.6-0.3-0.8-1-0.6-1.5c0.3-0.6,1-0.8,1.5-0.6
				c17.9,8.4,41.3,1.1,41.6,1c0.6-0.2,1.3,0.1,1.5,0.8c0.2,0.6-0.1,1.3-0.8,1.5C207.8,244.1,198.2,247.1,186.6,247.1z"/>
		</g>
		<g>
			<path class="st1" d="M196.9,265.6c-0.3,0-0.6-0.1-0.9-0.3c-0.4-0.3-9.6-6.2-21.9-1.3c-0.8,0.3-1.7-0.1-2-0.9
				c-0.3-0.8,0.1-1.7,0.9-2c13.9-5.5,24.3,1.3,24.7,1.6c0.7,0.5,0.9,1.4,0.4,2.1C197.8,265.4,197.4,265.6,196.9,265.6z"/>
		</g>
		<g>
			<g>
				<path class="st7" d="M212,203.1"/>
			</g>
			<g>
				<path class="st1" d="M222.7,212.6c0,0,0-0.1,0-0.2l0-0.3c0-0.2-0.1-0.4-0.1-0.5c-0.1-0.4-0.2-0.7-0.3-1.1
					c-0.2-0.7-0.5-1.4-0.9-2c-0.8-1.3-1.8-2.3-3.1-3c-0.3-0.2-0.7-0.3-1.1-0.5c-0.4-0.1-0.8-0.3-1.1-0.4c-0.8-0.3-1.5-0.5-2.3-0.7
					c-0.8-0.2-1.6-0.3-2.4-0.4c-0.8-0.1-1.6-0.2-2.4-0.1h0h0c-0.7,0-1.6,0.1-2.4,0.2c-0.8,0.1-1.6,0.3-2.4,0.5
					c-0.8,0.2-1.6,0.4-2.3,0.7c-0.4,0.1-0.8,0.3-1.1,0.4c-0.4,0.1-0.7,0.3-1,0.5c-1.3,0.7-2.3,1.8-3.1,3c-0.4,0.6-0.7,1.3-0.9,2
					c-0.1,0.4-0.2,0.7-0.3,1.1c0,0.2-0.1,0.4-0.1,0.5l0,0.2c0,0.1,0,0.2,0,0.2c1.8,0.9,2.6,3.1,1.7,4.9s-3.1,2.6-4.9,1.7
					c-1.6-0.8-2.4-2.7-1.9-4.3l0.9-3.1c0.1-0.2,0.1-0.3,0.1-0.4l0.1-0.4c0.1-0.2,0.2-0.4,0.3-0.7c0.2-0.4,0.4-0.9,0.7-1.2
					c0.5-0.8,1-1.6,1.7-2.3c1.2-1.4,2.8-2.6,4.6-3.3c0.4-0.2,0.9-0.3,1.3-0.4c0.4-0.1,0.8-0.2,1.2-0.3c0.8-0.2,1.7-0.4,2.5-0.5
					s1.7-0.3,2.5-0.4c0.9-0.1,1.7-0.2,2.6-0.1h-0.1c0.9,0,1.8,0.1,2.6,0.1c0.9,0.1,1.7,0.2,2.5,0.4c0.8,0.2,1.7,0.4,2.5,0.6
					c0.4,0.1,0.8,0.2,1.2,0.3c0.4,0.1,0.9,0.2,1.3,0.4c1.7,0.7,3.3,1.9,4.5,3.3c0.6,0.7,1.1,1.5,1.6,2.3c0.2,0.4,0.5,0.8,0.7,1.2
					c0.1,0.2,0.2,0.4,0.3,0.6l0.1,0.3c0.1,0.1,0.1,0.2,0.1,0.4l0.5,1.7c0.4,1.3-0.3,2.8-1.7,3.2s-2.8-0.4-3.2-1.7
					C221.9,214.1,222.2,213.2,222.7,212.6z"/>
			</g>
			<g>
				<path class="st8" d="M236.1,265.5h-54.2c-5.2,0-9.4-4.2-9.4-9.4v-34.4c0-5.2,4.2-9.4,9.4-9.4h54.2c5.2,0,9.4,4.2,9.4,9.4v34.4
					C245.5,261.3,241.3,265.5,236.1,265.5z"/>
			</g>
			<g>
				<path class="st1" d="M239,267.1h-60.1c-4.4,0-8.1-3.6-8.1-8.1v-40.2c0-4.5,3.6-8.1,8.1-8.1H239c4.4,0,8.1,3.6,8.1,8.1V259
					C247.1,263.4,243.5,267.1,239,267.1z M178.9,213.7c-2.8,0-5,2.2-5,5V259c0,2.8,2.2,5,5,5H239c2.8,0,5-2.2,5-5v-40.2
					c0-2.8-2.2-5-5-5H178.9z"/>
			</g>
			<g class="st3">
				<path class="st1" d="M240,244.2v-1.1c3.1-0.5,5.6-3.2,5.6-6.5v-11.9c0-3.6-2.9-6.5-6.5-6.5h-50.8v39.1h-9.8
					c-3.6,0-6.5-2.9-6.5-6.5v8.2c0,3.6,2.9,6.5,6.5,6.5h60.1c3.6,0,6.5-2.9,6.5-6.5v-8.2c0,3.6-2.8,6.5-6.4,6.5v-11.1
					C239.5,245.8,240,245.1,240,244.2z M232.3,257.3h-37.7v-11.1c0.8-0.4,1.3-1.1,1.3-2v-1h36.4V257.3z"/>
			</g>
			<g class="st0">
				<path class="st9" d="M188.2,218.2v25h-9.3c-3.6,0-6.5-2.9-6.5-6.5v-11.9c0-3.6,2.9-6.5,6.5-6.5L188.2,218.2L188.2,218.2z"/>
			</g>
			<g>
				<path class="st8" d="M245.5,218.7v11.9c0,3.6-2.9,6.5-6.5,6.5h-60.1c-3.6,0-6.5-2.9-6.5-6.5v-11.9c0-3.6,2.9-6.5,6.5-6.5H239
					C242.6,212.2,245.5,215.1,245.5,218.7z"/>
			</g>
			<g class="st0">
				<path class="st2" d="M245.5,218.7v5.5c0-3.6-2.9-6.5-6.5-6.5h-11.2c0,0,0,0.1,0,0.1c0,3-3.8,5.4-8.5,5.4s-8.5-2.4-8.5-5.4
					c0,0,0-0.1,0-0.1h-31.9c-3.6,0-6.5,2.9-6.5,6.5v-5.5c0-3.6,2.9-6.5,6.5-6.5H239C242.6,212.2,245.5,215.1,245.5,218.7z"/>
			</g>
			<g>
				<path class="st1" d="M239,238.8h-60.1c-4.4,0-8.1-3.6-8.1-8.1v-11.9c0-4.5,3.6-8.1,8.1-8.1H239c4.4,0,8.1,3.6,8.1,8.1v11.9
					C247.1,235.1,243.5,238.8,239,238.8z M178.9,213.7c-2.8,0-5,2.2-5,5v11.9c0,2.8,2.2,5,5,5H239c2.8,0,5-2.2,5-5v-11.9
					c0-2.8-2.2-5-5-5L178.9,213.7L178.9,213.7z"/>
			</g>
			<g>
				<path class="st10" d="M189.5,265.5h-4.1c-0.6,0-1.1-0.5-1.1-1.1v-51.2c0-0.6,0.5-1.1,1.1-1.1h4.1c0.6,0,1.1,0.5,1.1,1.1v51.2
					C190.7,265,190.1,265.5,189.5,265.5z"/>
			</g>
			<g class="st3">
				<path class="st1" d="M194.6,214.3v3.9h-6.4v-3.9c0-1.2,1-2.2,2.2-2.2h1.9C193.6,212,194.6,213,194.6,214.3z"/>
			</g>
			<g class="st0">
				<path class="st9" d="M188.2,231.9v14.5c-1-0.2-1.7-1.1-1.7-2.2v-10.1C186.5,233,187.3,232.1,188.2,231.9z"/>
			</g>
			<g>
				<path class="st11" d="M188.1,265.5h-1.3c-1.4,0-2.5-1.1-2.5-2.5v-48.4c0-1.4,1.1-2.5,2.5-2.5h1.3c1.4,0,2.5,1.1,2.5,2.5V263
					C190.7,264.4,189.5,265.5,188.1,265.5z"/>
			</g>
			<g>
				<path class="st11" d="M232.2,265.5h-1.3c-1.4,0-2.5-1.1-2.5-2.5v-48.4c0-1.4,1.1-2.5,2.5-2.5h1.3c1.4,0,2.5,1.1,2.5,2.5V263
					C234.7,264.4,233.6,265.5,232.2,265.5z"/>
			</g>
			<g>
				<path class="st1" d="M188.1,267.1h-1.3c-2.2,0-4.1-1.8-4.1-4.1v-48.4c0-2.2,1.8-4.1,4.1-4.1h1.3c2.2,0,4.1,1.8,4.1,4.1V263
					C192.2,265.2,190.4,267.1,188.1,267.1z M186.8,213.6c-0.5,0-1,0.4-1,1V263c0,0.5,0.4,1,1,1h1.3c0.5,0,1-0.5,1-1v-48.4
					c0-0.5-0.4-1-1-1H186.8z"/>
			</g>
			<g>
				<path class="st1" d="M232.2,267.1h-1.3c-2.2,0-4.1-1.8-4.1-4.1v-48.4c0-2.2,1.8-4.1,4.1-4.1h1.3c2.2,0,4.1,1.8,4.1,4.1V263
					C236.3,265.2,234.4,267.1,232.2,267.1z M230.8,213.6c-0.5,0-1,0.4-1,1V263c0,0.5,0.4,1,1,1h1.3c0.5,0,1-0.5,1-1v-48.4
					c0-0.5-0.4-1-1-1H230.8z"/>
			</g>
			<g>
				<path class="st12" d="M233.7,246.3h-4.4c-1.4,0-2.5-1.1-2.5-2.5v-9.6c0-1.4,1.1-2.5,2.5-2.5h4.4c1.4,0,2.5,1.1,2.5,2.5v9.6
					C236.2,245.2,235.1,246.3,233.7,246.3z"/>
			</g>
			<g>
				<path class="st1" d="M233.7,247.9h-4.4c-2.2,0-4.1-1.8-4.1-4.1v-9.6c0-2.2,1.8-4.1,4.1-4.1h4.4c2.2,0,4.1,1.8,4.1,4.1v9.6
					C237.8,246.1,235.9,247.9,233.7,247.9z M229.3,233.3c-0.5,0-1,0.4-1,1v9.6c0,0.5,0.4,1,1,1h4.4c0.5,0,1-0.4,1-1v-9.6
					c0-0.5-0.4-1-1-1H229.3z"/>
			</g>
			<g>
				<path class="st12" d="M189.4,246.4H185c-1.4,0-2.5-1.1-2.5-2.5v-9.6c0-1.4,1.1-2.5,2.5-2.5h4.4c1.4,0,2.5,1.1,2.5,2.5v9.6
					C191.9,245.3,190.8,246.4,189.4,246.4z"/>
			</g>
			<g>
				<path class="st1" d="M189.5,247.9h-4.4c-2.2,0-4.1-1.8-4.1-4.1v-9.6c0-2.2,1.8-4.1,4.1-4.1h4.4c2.2,0,4.1,1.8,4.1,4.1v9.6
					C193.5,246.1,191.7,247.9,189.5,247.9z M185.1,233.3c-0.5,0-1,0.4-1,1v9.6c0,0.5,0.4,1,1,1h4.4c0.5,0,1-0.4,1-1v-9.6
					c0-0.5-0.4-1-1-1H185.1z"/>
			</g>
		</g>
		<g>
			<path class="st2" d="M230.6,190.6c-0.3,19.9-9.2,22.3-20.4,22.3c-9.4-0.1-10-7.2-10-7.2s-3.4-0.9-4.4-4.8
				c-0.9-3.5,2.8-8.9,3.9-10.5c0.2-0.3,0.3-0.4,0.3-0.4s0.4-2.4,0.4-6.4c0-0.8,0-1.6-0.1-2.6c-0.2-6.2-1.4-15.1-5.2-25.3l9.3-33.5
				c16.4,17.7,23.8,34.4,25.8,58c0.1,1.1,0.2,2.1,0.2,3.2c0,0.5,0.1,1.1,0.1,1.6C230.6,187.1,230.6,188.9,230.6,190.6z"/>
		</g>
		<g class="st3">
			<path class="st1" d="M230.6,190.6c-0.3,19.9-9.2,22.3-20.4,22.3c-9.4-0.1-10-7.2-10-7.2s-3.4-0.9-4.4-4.8
				c-0.3-1.2-0.1-2.7,0.5-4.2c1.3,2.8,4.3,0.9,4.3,0.9s0.3,9.7,9.7,9.8c10.9,0.1,19.7-2.2,20.4-20.8
				C230.6,188,230.6,189.4,230.6,190.6z"/>
		</g>
		<g>
			<path class="st4" d="M230.4,183.5c-10.9-0.6-24.1-0.2-30,0.1c0-6.1-0.9-16.1-5.3-27.8l3-15.7l6.3-17.9
				C221.6,140.7,228.8,158.1,230.4,183.5z"/>
		</g>
		<g class="st13">
			<path class="st2" d="M230.4,183.5c-10.9-0.6-24.1-0.2-30,0.1c0-1,0-2.2-0.1-3.4c6.7-0.2,16.8-0.4,25.3,0.1
				c-1.4-23.1-7.6-39.7-21.8-56.5l0.6-1.6C221.6,140.7,228.8,158.1,230.4,183.5z"/>
		</g>
		<g>
			<path class="st1" d="M198.6,177.9c-0.3-1.8-0.5-3.6-0.8-5.5c-0.3-1.8-0.5-3.7-0.8-5.5c-0.3-1.8-0.6-3.7-1-5.5
				c-0.4-1.8-0.8-3.7-1.1-5.5c0-0.1,0.1-0.2,0.2-0.3c0.1,0,0.2,0,0.2,0.1c0.9,1.7,1.8,3.4,2.5,5.2c0.7,1.8,1.4,3.6,1.9,5.4
				c0.6,1.8,1,3.7,1.4,5.6c0.3,1.9,0.6,3.8,0.6,5.7c0,0.9-0.7,1.6-1.6,1.6C199.3,179.2,198.7,178.6,198.6,177.9L198.6,177.9z"/>
		</g>
		<g>
			<path class="st1" d="M210.5,214.5c-0.1,0-0.3,0-0.4,0c-8.4,0-10.7-5.4-11.3-7.6c-1.4-0.6-3.7-2.2-4.6-5.6
				c-1.1-4.3,3.1-10.3,4.3-11.9c0.1-1.1,0.5-4.7,0.2-9.9c-0.1-0.9,0.6-1.6,1.4-1.6c0.9-0.1,1.6,0.6,1.6,1.4c0.4,6.7-0.2,10.8-0.3,11
				c0,0.3-0.1,0.5-0.3,0.7c-1.9,2.4-4.6,7.1-4,9.6c0.7,2.9,3.2,3.6,3.3,3.7c0.6,0.2,1.1,0.7,1.1,1.4c0.1,0.6,0.8,5.8,8.5,5.8
				c5.3,0,10.7-0.4,14.2-4.1c3.7-3.9,5.2-11.1,4.6-22.1c-1.4-26.1-8.6-43.4-25.7-61.9c-0.6-0.6-0.5-1.6,0.1-2.2
				c0.6-0.6,1.6-0.5,2.2,0.1c17.7,19,25.1,36.9,26.5,63.8c0.6,12.1-1.1,19.8-5.4,24.4C222.4,213.8,216.4,214.5,210.5,214.5z"/>
		</g>
		<g>
			<path class="st1" d="M201.3,197.2l0.3,8.3v0c0,0.9-0.6,1.6-1.5,1.6s-1.6-0.6-1.6-1.5c0-0.1,0-0.2,0-0.2l1-8.3
				c0.1-0.5,0.5-0.8,1-0.8C201,196.4,201.3,196.7,201.3,197.2L201.3,197.2z"/>
		</g>
		<g>
			<path class="st2" d="M77.8,109.5c-1.8-6.2,4.5-11.3,4.5-11.3S76.6,88.1,81,85.3c2.4-1.5,8.9,5.5,10.5,10.1c1.5,4.6,1.5,9,1.5,9"
				/>
		</g>
		<g>
			<path class="st1" d="M77.5,109.6c-0.1-0.2-0.2-0.5-0.4-0.8c-0.1-0.1-0.1-0.3-0.2-0.4c0-0.1-0.1-0.3-0.1-0.4
				c-0.1-0.3-0.2-0.6-0.2-0.9l-0.1-0.9c0-1.2,0.2-2.4,0.6-3.5c0.4-1.1,1-2.2,1.7-3.1c0.3-0.5,0.7-0.9,1.1-1.4
				c0.2-0.2,0.4-0.4,0.6-0.6c0.2-0.2,0.4-0.4,0.7-0.6l-0.4,2.1c-0.8-1.5-1.5-3-2-4.7c-0.5-1.6-0.9-3.3-1-5.2c0-0.9,0.1-2,0.6-3
				c0.1-0.3,0.3-0.5,0.4-0.8c0.2-0.2,0.3-0.5,0.6-0.7l0.3-0.3l0.3-0.3c0.2-0.1,0.7-0.4,1.1-0.5c0.8-0.2,1.5-0.1,2,0.1
				c0.5,0.2,1,0.4,1.4,0.6c0.8,0.5,1.5,1,2.2,1.6c1.3,1.1,2.5,2.4,3.5,3.8c0.5,0.7,1,1.4,1.4,2.2c0.4,0.8,0.8,1.6,1.1,2.4
				c0.1,0.2,0.2,0.4,0.2,0.7l0.2,0.6c0.1,0.4,0.2,0.8,0.3,1.2c0.2,0.8,0.3,1.7,0.3,2.5c0.1,1.7,0,3.4-0.5,5c0,0.1-0.2,0.2-0.3,0.2
				c-0.1,0-0.2-0.1-0.2-0.2l0,0c-0.5-1.6-1-3.1-1.5-4.6c-0.2-0.7-0.5-1.5-0.7-2.2c-0.1-0.4-0.2-0.7-0.4-1.1L90,96
				c-0.1-0.2-0.1-0.3-0.2-0.5c-0.3-0.6-0.6-1.2-1-1.9c-0.4-0.6-0.8-1.2-1.3-1.8c-0.9-1.2-1.9-2.3-3-3.3c-0.5-0.5-1.1-0.9-1.7-1.3
				c-0.3-0.2-0.5-0.3-0.8-0.4c-0.2-0.1-0.4-0.1-0.3-0.1c0,0,0,0,0.1,0c0,0,0,0,0,0l-0.1,0l-0.1,0.1c0,0-0.1,0.1-0.1,0.1
				c-0.1,0.1-0.1,0.2-0.2,0.2c-0.1,0.1-0.1,0.2-0.2,0.3c-0.2,0.4-0.3,1-0.3,1.7c0,1.3,0.5,2.8,1,4.2c0.3,0.7,0.6,1.4,0.9,2.1
				c0.3,0.7,0.7,1.4,1,2l0.1,0.1c0.4,0.7,0.2,1.6-0.5,2c-0.1,0.1-0.3,0.3-0.5,0.4l-0.5,0.5c-0.3,0.3-0.7,0.7-1,1.1
				c-0.6,0.7-1.2,1.5-1.7,2.3c-0.5,0.8-0.9,1.7-1.2,2.6c-0.3,0.9-0.4,1.9-0.4,3v0c0,0.1-0.1,0.3-0.3,0.3
				C77.7,109.7,77.6,109.7,77.5,109.6z"/>
		</g>
		<g class="st3">
			<path class="st1" d="M230.6,190.6c-0.4,0.2-0.8,0.2-1.3,0.2c-7.8-0.8-19-0.9-28.1-0.1c-0.6,0.1-1.1-0.1-1.5-0.3
				c0.2-0.3,0.3-0.4,0.3-0.4s0.4-2.4,0.4-6.4c0-0.8,0-1.6-0.1-2.6c9.1-1.2,20.8-1.6,28.8-1.1c0.3,0,0.7,0.1,0.9,0.2
				c0.1,1.1,0.2,2.1,0.2,3.2c0,0.5,0.1,1.1,0.1,1.6C230.6,187.1,230.6,188.9,230.6,190.6z"/>
		</g>
		<g>
			<path class="st2" d="M229.3,183.5c-7.8-0.8-19-0.9-28.1-0.1c-1.6,0.1-2.9-1-3-2.6c-0.1-1.3-0.1-2.6-0.3-4.1
				c-0.1-1.5,0.9-2.8,2.4-3c9.2-1.2,20.9-1.6,28.9-1.1c1.3,0.1,2.4,1.1,2.5,2.4c0.2,1.8,0.4,3.6,0.6,5.5
				C232.4,182.2,231,183.7,229.3,183.5z"/>
		</g>
		<g class="st3">
			<path class="st1" d="M229.3,183.5c-7.8-0.8-19-0.9-28.1-0.1c-1.6,0.1-2.9-1-3-2.6c0-0.7-0.1-1.4-0.1-2.1c9-0.7,19.9-0.6,27.6,0.1
				c1.7,0.2,3.1-1.2,3-3c-0.1-1.1-0.2-2.2-0.3-3.3c0.3,0,0.6,0,0.8,0.1c1.3,0.1,2.4,1.1,2.5,2.4c0.2,1.8,0.4,3.6,0.6,5.5
				C232.4,182.2,231,183.7,229.3,183.5z"/>
		</g>
		<g>
			<path class="st1" d="M229.6,185.1c-0.1,0-0.3,0-0.4,0l0,0c-7.9-0.8-19.1-0.9-27.8-0.1c-1.2,0.1-2.3-0.3-3.2-1.1
				c-0.9-0.8-1.4-1.8-1.4-3c-0.1-1.3-0.2-2.7-0.3-4c-0.2-2.3,1.4-4.4,3.7-4.7c9-1.2,20.7-1.6,29.2-1.1c2.1,0.1,3.7,1.7,4,3.8
				c0.2,1.8,0.4,3.7,0.6,5.6c0.1,1.3-0.4,2.5-1.3,3.4C231.7,184.6,230.7,185.1,229.6,185.1z M229.4,182c0.5,0.1,0.8-0.2,0.9-0.3
				c0.3-0.2,0.4-0.6,0.4-1c-0.1-1.8-0.3-3.7-0.6-5.4c-0.1-0.6-0.5-1-1.1-1c-8.3-0.5-19.8-0.1-28.6,1.1c-0.6,0.1-1.1,0.7-1,1.3
				c0.1,1.4,0.2,2.8,0.3,4.2c0,0.3,0.2,0.6,0.4,0.8c0.2,0.2,0.6,0.3,0.9,0.3C209.9,181.1,221.3,181.1,229.4,182L229.4,182z"/>
		</g>
		<g>
			<path class="st2" d="M201.9,109.9c-10.2,8.8-53.3,55.2-53.3,55.2l-12.4-46.3c2.9-7.2,6.1-14.5,9.9-21.7l52.4,3.3
				C199.7,103.6,200.8,106.7,201.9,109.9z"/>
		</g>
		<g>
			<path class="st2" d="M201.9,109.9c-10.2,8.8-53.3,55.2-53.3,55.2l-12.4-46.3c2.9-7.2,6.1-14.5,9.9-21.7l52.4,3.3
				C199.7,103.6,200.8,106.7,201.9,109.9z"/>
		</g>
		<g>
			<path class="st1" d="M148.6,166.6c-0.1,0-0.2,0-0.4-0.1c-0.6-0.1-1-0.6-1.1-1.1l-12.4-46.3c-0.1-0.3-0.1-0.7,0.1-1
				c2.9-7.5,6.3-14.8,10-21.9c0.3-0.5,0.9-0.9,1.5-0.8l52.4,3.3c0.6,0,1.1,0.4,1.4,1c1.2,3.1,2.4,6.3,3.5,9.6c0.2,0.6,0,1.3-0.4,1.7
				c-10.1,8.7-52.8,54.6-53.2,55.1C149.4,166.5,149,166.6,148.6,166.6z M137.8,118.9l11.5,43.2c8.3-8.9,40.7-43.5,50.8-52.6
				c-0.9-2.5-1.8-5.1-2.8-7.6L147,98.7C143.6,105.2,140.5,111.9,137.8,118.9z"/>
		</g>
		<g>
			<path class="st1" d="M148.6,166.6c-0.1,0-0.2,0-0.4-0.1c-0.6-0.1-1-0.6-1.1-1.1l-12.4-46.3c-0.1-0.3-0.1-0.7,0.1-1
				c2.9-7.5,6.3-14.8,10-21.9c0.3-0.5,0.9-0.9,1.5-0.8l52.4,3.3c0.6,0,1.1,0.4,1.4,1c1.2,3.1,2.4,6.3,3.5,9.6c0.2,0.6,0,1.3-0.4,1.7
				c-2.3,2-6.6,6.2-12.8,12.5c-16.2,16.6-40.2,42.3-40.4,42.6C149.4,166.5,149,166.6,148.6,166.6z M137.8,118.9l11.5,43.2
				c6-6.4,25-26.7,38.6-40.6c5.6-5.7,9.7-9.7,12.2-12c-0.9-2.5-1.8-5.1-2.8-7.6L147,98.7C143.6,105.2,140.5,111.9,137.8,118.9z"/>
		</g>
		<g>
			<path class="st11" d="M150.8,127.3l-2.9,3.8c-0.5,0.7-0.6,1.7-0.3,2.5l2,4.5c0.4,0.9,1.2,1.4,2.1,1.5l3.2,0.1
				c0.8,0,1.5-0.3,2-0.8l3.4-3.9c0.8-0.9,0.8-2.1,0.2-3l-3.1-4.6c-0.5-0.7-1.2-1.1-2.1-1.1h-2.6C152,126.4,151.3,126.7,150.8,127.3z
				"/>
		</g>
		<g>
			<path class="st1" d="M155.2,141.3c-0.1,0-0.1,0-0.2,0l-3.2-0.1c-1.5-0.1-2.9-1-3.5-2.4l-2-4.5c-0.6-1.3-0.4-2.9,0.5-4.1l2.9-3.8
				l0,0c0.8-1,2-1.6,3.2-1.6h2.6c1.3,0,2.6,0.7,3.3,1.8l3.1,4.6c1,1.5,0.9,3.6-0.3,4.9l-3.4,3.9
				C157.4,140.8,156.3,141.3,155.2,141.3z M152.1,128.3l-2.9,3.8c-0.2,0.3-0.2,0.6-0.1,0.9l2,4.5c0.1,0.3,0.5,0.5,0.8,0.6l3.2,0.1
				c0.3,0,0.6-0.1,0.7-0.3l3.4-3.9c0.3-0.3,0.3-0.8,0.1-1.1l-3.1-4.6c-0.2-0.2-0.5-0.4-0.8-0.4h-2.6
				C152.5,127.9,152.2,128,152.1,128.3L152.1,128.3z"/>
		</g>
		<g>
			<path class="st1" d="M150.1,225.4c-0.7,0-1.4-0.5-1.5-1.2c-6.6-31.5-1.5-59.1-1.5-59.4c0.2-0.8,1-1.4,1.8-1.2
				c0.8,0.2,1.4,1,1.2,1.8c-0.1,0.3-5,27.3,1.5,58.2c0.2,0.8-0.4,1.6-1.2,1.8C150.3,225.4,150.2,225.4,150.1,225.4z"/>
		</g>
		<g>
			<g class="st3">
				<path class="st1" d="M206.6,124.7C206.6,124.7,206.6,124.7,206.6,124.7c-1.4,1.4-3,2.8-4.5,4c-11.9,9.6-26.9,14.3-41.9,13.6
					c-1.2-0.1-2.4-0.1-3.6-0.3c-3.3-0.3-6.5-0.9-9.7-1.8c-2.7-0.7-5.3-1.6-7.9-2.7c-0.5-0.2-0.9-0.4-1.4-0.6c-2.2-1-4.4-2.1-6.6-3.5
					c-0.3-0.2-0.5-0.3-0.8-0.5c-0.9-0.6-1.9-1.2-2.8-1.8c-1.8-1.3-3.6-2.7-5.3-4.1c-3.4-2.9-6.4-6.2-9-9.7c5.5,3,12.2,5.7,20.7,7.6
					c3.3-9.3,7.4-18.7,12.2-27.9l52.4,3.3C201.6,108.7,204.4,116.9,206.6,124.7z"/>
			</g>
			<g>
				<path class="st2" d="M104.4,92.9c3.5,9.8,9.5,18.8,17.7,25.9c1.7,1.4,3.4,2.8,5.3,4.1c0.9,0.6,1.8,1.2,2.8,1.8
					c2.9,1.8,5.8,3.3,8.8,4.6c2.6,1.1,5.2,2,7.9,2.7c3.2,0.9,6.5,1.5,9.7,1.8c1.2,0.1,2.4,0.2,3.6,0.3c21.8,1,43.4-9.5,55.8-29.3
					c18.2-29.2,9.2-67.6-19.9-85.8c-5.6-3.5-11.6-6-17.7-7.5c-0.7-0.2-1.4-0.4-2.1-0.5c-1.9-0.4-3.9-0.7-5.8-1
					c-4.5-0.5-9-0.6-13.4-0.1c-4.4,0.4-8.8,1.4-13.1,2.7c-1.4,0.4-2.7,0.9-4,1.4c-2,0.8-3.9,1.7-5.8,2.7c-9.5,5-17.8,12.4-23.8,22.2
					C99.7,55.7,98.3,75.6,104.4,92.9z"/>
				<path class="st1" d="M163,134.3c-0.9,0-1.9,0-2.9-0.1c-1.2-0.1-2.4-0.1-3.6-0.3c-3.3-0.4-6.6-1-9.8-1.8
					c-2.7-0.7-5.4-1.6-7.9-2.7c-3-1.3-6-2.8-8.8-4.6c-1-0.7-1.9-1.2-2.8-1.8c-1.8-1.3-3.6-2.7-5.3-4.1c-8-7-14.1-16-17.7-26
					c-6.5-18.1-4.3-37.8,5.8-54.1c5.8-9.4,14.1-17.1,23.9-22.2c1.9-1,3.8-1.9,5.8-2.7c1.3-0.5,2.6-1,4-1.4c4.2-1.4,8.7-2.3,13.1-2.8
					c4.5-0.4,9-0.4,13.5,0.1c1.9,0.2,3.9,0.6,5.8,1c0.8,0.2,1.5,0.3,2.2,0.5c6.2,1.6,12.2,4.1,17.7,7.6c29.2,18.2,38.2,56.8,20,86
					C204.7,123.2,184.5,134.3,163,134.3z M163.2,9.7c-2.1,0-4.2,0.1-6.2,0.3c-4.4,0.4-8.8,1.4-13,2.7c-1.4,0.4-2.7,0.9-4,1.4
					c-2,0.8-4,1.7-5.8,2.7c-9.7,5.1-17.9,12.8-23.8,22.1c-10.1,16.2-12.2,35.8-5.8,53.8c3.6,10,9.7,18.9,17.6,25.8
					c1.7,1.5,3.5,2.8,5.3,4.1c0.8,0.6,1.7,1.2,2.8,1.8c2.8,1.8,5.8,3.3,8.8,4.6c2.5,1.1,5.2,2,7.9,2.7c3.1,0.9,6.4,1.5,9.7,1.8
					c1.2,0.1,2.4,0.2,3.6,0.3c0.9,0,1.9,0.1,2.8,0.1c21.4,0,41.4-11.1,52.8-29.3c18.1-29.1,9.2-67.5-19.9-85.6
					c-5.5-3.4-11.5-6-17.7-7.5c-0.7-0.2-1.4-0.3-2.1-0.5c-1.9-0.4-3.9-0.7-5.8-1C168,9.8,165.6,9.7,163.2,9.7z"/>
			</g>
			<g class="st3">
				<path class="st1" d="M216,104.8c-12.3,19.8-34,30.3-55.8,29.3c-1.2-0.1-2.4-0.1-3.6-0.3c-3.3-0.3-6.5-0.9-9.7-1.8
					c-2.7-0.7-5.3-1.6-7.9-2.7c-3-1.3-6-2.8-8.8-4.6c-0.9-0.6-1.9-1.2-2.8-1.8c-1.8-1.3-3.6-2.7-5.3-4.1
					c-8.2-7.1-14.2-16.1-17.7-25.9c-1.9-5.4-3.1-11-3.5-16.7c3.6,9.3,9.3,17.8,17.2,24.6c1.7,1.5,3.4,2.8,5.3,4.1
					c0.9,0.6,1.8,1.2,2.8,1.8c2.9,1.8,5.8,3.3,8.8,4.6c2.6,1.1,5.2,2,7.9,2.7c3.2,0.9,6.5,1.5,9.7,1.8c1.2,0.1,2.4,0.2,3.6,0.3
					c21.8,1,43.4-9.5,55.8-29.3c7.2-11.6,10.1-24.6,9.3-37.2C228,67.1,226.7,87.5,216,104.8z"/>
			</g>
			<g>
				<path class="st1" d="M163,135.4c-1,0-1.9,0-2.9-0.1c-1.2-0.1-2.4-0.1-3.6-0.3c-3.4-0.4-6.7-1-9.9-1.9c-2.8-0.8-5.5-1.7-8.1-2.8
					c-3.1-1.3-6.1-2.9-9-4.7c-1.1-0.7-2-1.3-2.8-1.9c-1.8-1.3-3.7-2.7-5.4-4.2c-8.1-7.1-14.4-16.2-18-26.4
					c-6.6-18.4-4.4-38.4,5.9-55c6-9.6,14.4-17.4,24.3-22.6c1.9-1,3.9-1.9,5.9-2.7c1.3-0.5,2.7-1,4.1-1.5c4.3-1.4,8.8-2.3,13.3-2.8
					c4.6-0.5,9.2-0.4,13.7,0.1c2,0.2,4,0.6,5.9,1c0.8,0.2,1.5,0.3,2.2,0.5c6.3,1.6,12.4,4.2,18,7.7c29.7,18.5,38.8,57.7,20.3,87.5
					C205.4,124.1,184.9,135.4,163,135.4z M163.2,10.7c-2.1,0-4.1,0.1-6.1,0.3c-4.4,0.4-8.7,1.3-12.8,2.7c-1.3,0.4-2.7,0.9-3.9,1.4
					c-2,0.8-3.9,1.7-5.7,2.6c-9.6,5-17.6,12.5-23.4,21.8c-9.9,15.9-12,35.2-5.7,52.9l0,0c3.5,9.8,9.5,18.6,17.3,25.4
					c1.7,1.4,3.4,2.8,5.2,4c0.8,0.6,1.7,1.2,2.7,1.8c2.8,1.7,5.7,3.2,8.6,4.5c2.5,1.1,5.1,1.9,7.8,2.7c3.1,0.8,6.3,1.4,9.6,1.8
					c1.2,0.1,2.3,0.2,3.5,0.3c0.9,0,1.9,0.1,2.8,0.1c21.1,0,40.8-10.9,51.9-28.8c17.8-28.6,9-66.4-19.6-84.2
					c-5.4-3.4-11.3-5.9-17.4-7.4c-0.7-0.2-1.4-0.3-2.1-0.5c-1.9-0.4-3.8-0.7-5.7-0.9C167.9,10.9,165.5,10.7,163.2,10.7z"/>
			</g>
			<g>
				<path class="st1" d="M163,135.7c-1,0-1.9,0-2.9-0.1c-1.2-0.1-2.4-0.1-3.7-0.3c-3.4-0.4-6.8-1-10-1.9c-2.8-0.8-5.5-1.7-8.1-2.8
					c-3.1-1.3-6.1-2.9-9-4.7c-1.1-0.7-2-1.3-2.8-1.9c-1.8-1.3-3.7-2.7-5.4-4.2c-8.2-7.1-14.4-16.3-18.1-26.6l0,0
					c-6.6-18.5-4.4-38.6,5.9-55.3c6-9.6,14.4-17.5,24.4-22.7c1.9-1,3.9-1.9,6-2.8c1.3-0.5,2.7-1,4.1-1.5c4.3-1.4,8.9-2.4,13.4-2.8
					c4.6-0.5,9.2-0.4,13.8,0.1c2,0.2,4,0.6,5.9,1c0.8,0.2,1.5,0.3,2.2,0.5c6.4,1.6,12.5,4.2,18.1,7.7c29.9,18.6,39.1,58.1,20.4,87.9
					C205.6,124.4,185,135.7,163,135.7z M163.2,11.1c-2,0-4.1,0.1-6.1,0.3c-4.3,0.4-8.6,1.3-12.8,2.7c-1.3,0.4-2.6,0.9-3.9,1.4
					c-2,0.8-3.9,1.7-5.7,2.6c-9.5,5-17.5,12.5-23.2,21.6c-9.9,15.8-11.9,35-5.6,52.6l0,0c3.5,9.8,9.4,18.5,17.2,25.3
					c1.7,1.4,3.4,2.8,5.2,4c0.8,0.6,1.7,1.2,2.7,1.8c2.7,1.7,5.6,3.2,8.6,4.5c2.5,1.1,5.1,1.9,7.7,2.7c3.1,0.8,6.3,1.4,9.5,1.8
					c1.1,0.1,2.3,0.2,3.5,0.3c0.9,0,1.9,0.1,2.8,0.1c20.9,0,40.5-10.8,51.6-28.7c17.7-28.4,9-66-19.5-83.7
					c-5.4-3.4-11.2-5.8-17.3-7.4c-0.7-0.2-1.4-0.3-2.1-0.5c-1.9-0.4-3.8-0.7-5.7-0.9C167.9,11.2,165.5,11.1,163.2,11.1z"/>
			</g>
			<g>
				<path class="st1" d="M111.7,107.1c32.2,30.8,84,20.4,93.3-22.7c6.3-29.3-17.5-58.2-46.1-62.5c-20.8-3.1-42.4,2.9-56.1,33.9
					c0,0-3.9,14.6-1.4,25.2s6.7,20.3,6.7,20.3L111.7,107.1z"/>
			</g>
			<g>
				<path class="st14" d="M205,84.4c-9.3,43.1-61.2,53.5-93.3,22.7l-0.7-1.2c38.6,13.2,81.8-4.4,92-47.8
					C206.1,66.3,207,75.3,205,84.4z"/>
			</g>
			<g>
				<path class="st1" d="M154.6,132.7c-5.3,0-10.7-0.6-16-1.9c-0.1,0-0.2,0-0.2-0.1c-3.1-1.3-6.2-2.9-9-4.7c-1.1-0.7-2-1.3-2.8-1.9
					c-1.8-1.3-3.7-2.7-5.4-4.2c-8.2-7.1-14.4-16.3-18.1-26.6l0,0c-6.6-18.5-4.4-38.6,5.9-55.3c6-9.6,14.4-17.5,24.4-22.7
					c0.1-0.1,0.2-0.1,0.3-0.1c7.9-2.2,16.8-2.7,26.3-1.2c17,2.6,33.2,12.9,43.5,27.7c9.4,13.6,12.8,29.4,9.6,44.3
					c-3.5,16.3-12.4,29.3-25.7,37.6C177.7,129.6,166.3,132.7,154.6,132.7z M139.5,127.8c16.2,3.9,33,1.5,46.2-6.8
					c12.6-7.9,21-20.2,24.3-35.6c3.1-14.1-0.2-29-9.1-41.9c-9.8-14.1-25.2-24-41.4-26.4c-9-1.4-17.4-1-24.8,1.1
					c-9.4,5-17.4,12.4-23.1,21.6c-9.9,15.8-11.9,35-5.6,52.6l0,0c3.5,9.8,9.4,18.5,17.2,25.3c1.7,1.4,3.4,2.8,5.2,4
					c0.8,0.6,1.7,1.2,2.7,1.8C133.7,125.1,136.5,126.6,139.5,127.8z"/>
			</g>
			<g>
				<path class="st1" d="M154.5,126.4c-15.7,0-31.6-6.4-43.9-18.2c-0.1-0.1-0.2-0.2-0.2-0.3l-3.5-5.8c0-0.1-0.1-0.1-0.1-0.2
					c-0.2-0.4-4.3-10.1-6.8-20.6c-2.6-10.8,1.3-25.3,1.4-25.9c0-0.1,0.1-0.2,0.1-0.2c11.9-27,31.3-38.7,57.7-34.8
					c15.2,2.3,29.7,11.5,38.8,24.7c8.4,12.2,11.4,26.2,8.5,39.6c-4.2,19.3-17.1,33.6-35.4,39.2C165.7,125.6,160.2,126.4,154.5,126.4
					z M112.9,106.1c15.9,15.1,37.9,20.8,57.3,14.8c17.2-5.3,29.3-18.7,33.3-36.9c2.7-12.5-0.2-25.7-8.1-37.2
					c-8.7-12.5-22.4-21.3-36.7-23.4c-24.8-3.7-43.1,7.3-54.4,32.9c-0.3,1.3-3.7,14.7-1.4,24.3c2.3,9.7,6.2,19,6.6,20L112.9,106.1z"
					/>
			</g>
			<g>
				
					<ellipse transform="matrix(0.144 -0.9896 0.9896 0.144 101.1323 287.158)" class="st2" cx="216.5" cy="85.1" rx="22.3" ry="16.2"/>
				<path class="st1" d="M215,108.8c-0.2,0-0.4,0-0.6,0c-3.9-0.2-7.4-2-10.2-5.2c-4.1-4.7-6.1-11.8-5.4-19.4
					c1.2-13,10.1-23.3,19.9-22.8c3.9,0.2,7.4,2,10.2,5.2c4.1,4.7,6.1,11.8,5.4,19.4C233.1,98.8,224.5,108.8,215,108.8z M218,64.5
					c-7.9,0-15.1,8.8-16.2,20c-0.6,6.6,1.1,13,4.6,17.1c2.2,2.6,5,4,8.1,4.2c8.1,0.4,15.6-8.6,16.6-20l1.5,0.1l-1.5-0.1
					c0.6-6.6-1.1-13-4.6-17.1c-2.2-2.6-5-4-8.1-4.2C218.4,64.5,218.2,64.5,218,64.5z"/>
			</g>
			<g>
				
					<ellipse transform="matrix(0.1778 -0.9841 0.9841 0.1778 96.119 289.9483)" class="st2" cx="221.6" cy="87.5" rx="17.7" ry="13.2"/>
				<path class="st1" d="M220.2,105.2c-1.9,0-3.8-0.6-5.6-1.7c-6.4-4.1-8.5-14.7-4.6-23.5c2.1-4.9,5.7-8.5,9.9-9.8
					c3.1-0.9,6.1-0.5,8.7,1.2c6.4,4.1,8.5,14.7,4.6,23.5c-2.1,4.9-5.7,8.5-9.9,9.8C222.2,105,221.2,105.2,220.2,105.2z M223,70
					c-1,0-2,0.2-3,0.5c-4.1,1.2-7.6,4.7-9.7,9.6c-3.8,8.7-1.7,19.1,4.5,23.1c2.6,1.7,5.5,2.1,8.4,1.2c4.1-1.2,7.6-4.7,9.7-9.6
					c3.8-8.7,1.7-19.1-4.5-23.1C226.7,70.6,224.9,70,223,70z"/>
			</g>
			<g class="st3">
				<path class="st1" d="M208.5,93.8c-0.5-3.3-0.1-6.8,1-10c1.8,7.4,8.1,11,14.6,8c4.2-1.9,7.6-6.2,9.2-11.1c0.1,0.5,0.2,1,0.3,1.5
					c1.3,8.4-3.2,17.9-10.2,21.1C216.5,106.4,209.8,102.2,208.5,93.8z"/>
			</g>
			<g>
				<path class="st1" d="M220.3,106.6c-0.1,0-0.2,0-0.4,0c-2.9-0.1-5.5-1.4-7.7-3.9c-3.3-3.8-4.9-9.9-4.3-16.3
					c1-10.8,8-19.3,15.6-19c2.9,0.1,5.5,1.4,7.7,3.9c3.3,3.8,4.9,9.9,4.3,16.3l-1.5-0.2l1.5,0.2C234.4,98.2,227.7,106.6,220.3,106.6
					z M223.1,70.5c-5.9,0-11.2,7.2-12.1,16.2c-0.5,5.6,0.8,10.8,3.6,14c1.5,1.8,3.4,2.7,5.4,2.8c0.1,0,0.2,0,0.3,0
					c5.9,0,11.2-7.2,12.1-16.2l0,0c0.5-5.6-0.8-10.8-3.6-14c-1.5-1.8-3.4-2.7-5.4-2.8C223.3,70.5,223.2,70.5,223.1,70.5z"/>
			</g>
			<g class="st13">
				<path class="st2" d="M172,34.9c0,0-28.2-2.4-46,11.4c0,0,0,0-0.1,0c-3.7,2.9-6.6,6.8-8.4,11.2c-2.3,5.8-3.1,10.2-3.6,14
					c-1.6,11.7-0.1,17.5-0.1,17.5c-5.8-7.1-8.7-14.6-7.5-24.4c0.1-1,0.3-1.9,0.5-3c0-0.2,0.1-0.5,0.2-0.7c0,0,0,0,0,0
					c0.5-2,1.3-4.6,2.5-7.5c3.5-8.7,10.2-19.8,22.2-23.7C154.3,22.4,173.2,33.8,172,34.9z"/>
			</g>
			<g class="st13">
				<ellipse transform="matrix(0.9917 -0.1289 0.1289 0.9917 -7.0021 24.9205)" class="st2" cx="189" cy="66.6" rx="8.3" ry="9.7"/>
			</g>
			<g class="st13">
				<ellipse transform="matrix(0.9772 -0.2122 0.2122 0.9772 -13.4749 42.5095)" class="st2" cx="191.3" cy="84" rx="3.4" ry="4"/>
			</g>
		</g>
		<g>
			<path class="st1" d="M148.4,167.9c-0.4,0-0.9-0.2-1.2-0.5l-13.4-15.5c-0.4-0.4-0.5-1-0.3-1.5l1.6-5.1l-4.1-2.3
				c-0.5-0.3-0.8-0.8-0.8-1.4v-16c0-0.8,0.7-1.6,1.6-1.6s1.6,0.7,1.6,1.6v15.1l4.5,2.4c0.6,0.4,1,1.1,0.7,1.8l-1.7,5.5l12.1,14.1
				l25.5-8.8l1-7.9c0.1-0.6,0.5-1.1,1-1.3l17.2-5.8l0.8-15.6c0-0.8,0.8-1.5,1.6-1.5c0.9,0,1.5,0.8,1.5,1.6l-0.8,16.7
				c0,0.6-0.4,1.2-1.1,1.4l-17.2,5.8l-1,7.9c-0.1,0.6-0.5,1.1-1,1.3l-27.4,9.4C148.7,167.9,148.5,167.9,148.4,167.9z"/>
		</g>
		<g>
			<polygon class="st11" points="156.7,139.3 158.2,154.8 148.6,165.1 145.1,152 150,138.7 			"/>
		</g>
		<g>
			<path class="st1" d="M148.6,166.6c-0.1,0-0.2,0-0.4-0.1c-0.5-0.1-1-0.6-1.1-1.1l-3.5-13.1c-0.1-0.3-0.1-0.6,0-0.9l4.9-13.4
				c0.2-0.7,0.9-1.1,1.6-1l6.7,0.6c0.7,0.1,1.3,0.6,1.4,1.4l1.5,15.6c0,0.4-0.1,0.9-0.4,1.2l-9.6,10.3
				C149.4,166.5,149,166.6,148.6,166.6z M146.7,152.1l2.6,9.9l7.2-7.7l-1.3-13.6l-4.2-0.4L146.7,152.1z"/>
		</g>
		<g>
			<path class="st1" d="M161,145.8c-0.5,0-0.9-0.2-1.2-0.6l-4-5.3c-0.5-0.7-0.4-1.6,0.3-2.2c0.7-0.5,1.6-0.4,2.2,0.3l3.2,4.3
				l12.8-6.6c0.8-0.4,1.7-0.1,2.1,0.7c0.4,0.8,0.1,1.7-0.7,2.1l-14,7.2C161.5,145.8,161.3,145.8,161,145.8z"/>
		</g>
		<g>
			<path class="st1" d="M145.9,143.2c-0.4,0-0.8-0.2-1.1-0.5l-5-5.3c-0.6-0.6-0.6-1.6,0.1-2.2c0.6-0.6,1.6-0.6,2.2,0.1l4.1,4.4
				l2.8-1.7c0.7-0.4,1.7-0.2,2.1,0.5c0.4,0.7,0.2,1.7-0.5,2.1l-3.8,2.4C146.5,143.1,146.2,143.2,145.9,143.2z"/>
		</g>
		<g>
			<circle class="st1" cx="152.9" cy="173.9" r="2.4"/>
		</g>
		<g>
			<circle class="st1" cx="152.9" cy="186.9" r="2.4"/>
		</g>
		<g>
			<circle class="st1" cx="153.3" cy="200.4" r="2.4"/>
		</g>
	</g>
</g>
</svg>
