<?xml version="1.0" encoding="utf-8"?>
<!-- Generator: Adobe Illustrator 25.0.0, SVG Export Plug-In . SVG Version: 6.00 Build 0)  -->
<svg version="1.1" id="Layer_1" xmlns="http://www.w3.org/2000/svg" xmlns:xlink="http://www.w3.org/1999/xlink" x="0px" y="0px"
	 viewBox="0 0 1000 1000" style="enable-background:new 0 0 1000 1000;" xml:space="preserve">
<style type="text/css">
	.st0{fill:#FFFFFF;}
	.st1{fill:#371A45;}
	.st2{opacity:0.2;}
	.st3{fill:#220F2D;}
	.st4{opacity:0.5;}
	.st5{fill:#B0B0B0;}
	.st6{fill:#03B2F9;}
	.st7{fill:#FEF807;}
	.st8{opacity:0.6;}
	.st9{fill:none;stroke:#000072;stroke-width:24.1739;stroke-linejoin:round;stroke-miterlimit:10;}
	.st10{fill:#00ADF9;}
	.st11{fill:#40C1FB;}
	.st12{fill:#FCC624;}
</style>
<g>
	<g>
		<g>
			<path class="st0" d="M700.3,358.9c-10.8,28.4-29,54.3-53.7,74.6c-5,4.2-10.3,8.1-15.9,11.8c-2.7,1.8-5.5,3.5-8.3,5.3
				c-8.5,5-17.4,9.3-26.3,12.8c-7.7,3.1-15.6,5.6-23.6,7.5c-9.6,2.3-19.3,3.9-28.9,4.7c-3.6,0.3-7,0.5-10.6,0.5
				c-64.5,1.7-128.1-30.1-163.7-88.6c-52.4-86.3-23.9-197.9,63.4-249.3c16.8-9.9,34.6-16.8,52.8-21c2.1-0.5,4.2-0.9,6.4-1.4
				c5.8-1.2,11.5-1.9,17.3-2.5c13.4-1.3,26.6-1.2,39.8,0.4c13.2,1.6,26.1,4.4,38.6,8.7c4,1.4,7.9,2.8,11.8,4.4
				c5.8,2.4,11.5,5.2,17,8.2c27.8,15,52,37.3,69.4,66.1C716.1,250.7,719.4,308.7,700.3,358.9z"/>
			<path class="st1" d="M528.2,476.7c-65,0-125.7-33.8-159.2-88.9c-25.3-41.7-32.7-90.5-20.8-137.6c12-47.4,42-87.3,84.5-112.5
				c16.6-9.8,34.4-16.8,52.9-21c2-0.5,4.1-0.9,6.4-1.4c5.7-1.2,11.6-2,17.3-2.5c13.3-1.3,26.6-1.2,39.9,0.4
				c13.2,1.6,26.1,4.5,38.7,8.7c4,1.4,8,2.8,11.8,4.4c5.9,2.5,11.7,5.3,17.1,8.2c28.6,15.6,52.7,38.4,69.6,66.2
				c29.2,48.1,34.4,105.7,14.3,158.1l0,0c-11.2,29-29.8,54.9-53.8,74.8c-5,4.2-10.4,8.2-15.9,11.8c-2.5,1.7-5.3,3.4-8.3,5.3
				c-8.4,4.9-17.4,9.4-26.4,12.8c-7.6,3.1-15.6,5.6-23.6,7.5c-9.5,2.3-19.1,3.9-29,4.7c-3.5,0.3-7.2,0.5-10.6,0.5
				C531.4,476.7,529.8,476.7,528.2,476.7z M527.1,113c-6,0-11.9,0.3-17.8,0.8c-5.7,0.5-11.5,1.4-17.1,2.5c-2.3,0.4-4.3,0.8-6.4,1.4
				c-18.4,4.2-36.1,11.3-52.6,20.9c-42.3,24.9-72.2,64.6-84.1,111.8c-11.8,46.8-4.4,95.4,20.7,136.8c34.2,56.3,96.7,90.2,163.2,88.4
				c3.5-0.1,7-0.3,10.5-0.5c9.8-0.8,19.5-2.4,28.8-4.7c8-2,15.9-4.5,23.5-7.5c9-3.6,17.9-7.9,26.3-12.8c3.1-1.9,5.8-3.6,8.3-5.2
				c5.4-3.6,10.7-7.5,15.8-11.7c23.9-19.8,42.4-45.6,53.4-74.5l0,0c20-52.2,14.7-109.4-14.3-157.3c-16.8-27.7-40.7-50.4-69.2-65.9
				c-5.4-2.9-11.2-5.7-17-8.2c-3.8-1.6-7.8-3.1-11.8-4.4c-12.4-4.2-25.4-7.2-38.4-8.7C541.7,113.4,534.5,113,527.1,113z"/>
		</g>
		<g class="st2">
			<path class="st1" d="M369.4,387.5c35.6,58.6,99.1,90.4,163.7,88.6c3.5-0.1,7-0.3,10.6-0.5c9.7-0.8,19.4-2.4,28.9-4.7
				c7.9-2,15.8-4.4,23.6-7.5c8.9-3.6,17.8-7.8,26.3-12.8c2.8-1.7,5.6-3.4,8.3-5.2c5.6-3.7,10.8-7.6,15.9-11.8
				c24.6-20.4,42.8-46.2,53.7-74.6c6-15.6,9.8-32,11.3-48.6c-11,26.9-28.6,51.3-52.1,70.7c-5,4.2-10.3,8.1-15.9,11.8
				c-2.6,1.8-5.5,3.5-8.3,5.2c-8.5,5-17.4,9.3-26.3,12.8c-7.7,3.1-15.6,5.6-23.6,7.5c-9.6,2.3-19.3,3.9-28.9,4.7
				c-3.6,0.3-7,0.5-10.6,0.5c-64.5,1.7-128.1-30.1-163.7-88.6c-20.7-34.2-28.8-72.3-25.6-109.1C335.7,276.8,338.5,336.6,369.4,387.5
				z"/>
		</g>
		<g>
			<path class="st1" d="M528.2,480.2c-66.3,0-128-34.4-162.1-90.6c-25.8-42.5-33.4-92.3-21.3-140.2c12.2-48.4,42.7-89,86.2-114.6
				c16.9-9.9,35-17.1,54-21.5c2-0.5,4.2-0.9,6.5-1.4c5.8-1.2,11.7-2,17.6-2.5c13.5-1.3,27.1-1.2,40.6,0.4
				c13.4,1.6,26.6,4.5,39.3,8.9c4.1,1.4,8.1,2.9,12,4.5c6.1,2.5,11.9,5.4,17.5,8.3c29.2,15.8,53.7,39.1,70.9,67.4
				c29.8,49,35,107.7,14.6,161.2l0,0c-11.4,29.7-30.3,56-54.8,76.3c-5.3,4.3-10.6,8.3-16.2,12c-2.5,1.7-5.3,3.4-8.4,5.3
				c-8.6,5.1-17.7,9.5-26.9,13.2c-7.7,3.1-15.8,5.7-24,7.7c-9.6,2.4-19.6,4-29.6,4.8c-3.6,0.3-7.3,0.5-10.8,0.6
				C531.5,480.2,529.9,480.2,528.2,480.2z M527.1,116.5c-5.8,0-11.7,0.3-17.5,0.8c-5.6,0.5-11.3,1.4-16.8,2.4
				c-2.2,0.4-4.3,0.8-6.2,1.3c-18.1,4.1-35.5,11-51.7,20.6c-41.6,24.4-70.8,63.3-82.5,109.6c-11.6,45.9-4.3,93.5,20.3,134.1
				c33.5,55.2,94.9,88.5,160.1,86.7c3.5-0.1,6.9-0.3,10.4-0.5c9.6-0.8,19-2.3,28.3-4.6c7.9-2,15.6-4.4,23-7.4
				c8.8-3.5,17.6-7.7,25.8-12.5c3.1-1.8,5.7-3.5,8.1-5.1c5.3-3.5,10.5-7.4,15.6-11.5c23.5-19.4,41.6-44.6,52.5-73
				c19.6-51.1,14.5-107.3-14-154.2c-16.5-27.1-40-49.4-67.9-64.6c-5.3-2.9-10.9-5.6-16.7-8c-3.7-1.6-7.6-3.1-11.6-4.3
				c-12.2-4.2-24.9-7-37.8-8.5C541.5,116.9,534.3,116.5,527.1,116.5z M700.3,358.9L700.3,358.9L700.3,358.9z"/>
		</g>
		<g>
			<path class="st1" d="M528.2,481.3c-66.7,0-128.9-34.6-163.2-91.2c-25.9-42.7-33.6-92.8-21.4-141.1c12.2-48.6,43-89.6,86.7-115.3
				c17-10,35.2-17.3,54.3-21.6c2.1-0.5,4.2-0.9,6.6-1.4c5.8-1.2,11.8-2,17.7-2.5c13.6-1.3,27.4-1.2,40.9,0.4
				c13.5,1.6,26.8,4.6,39.7,8.9c4.1,1.4,8.2,2.9,12.1,4.6c6.1,2.5,12,5.4,17.6,8.4c29.4,15.9,54.1,39.3,71.3,67.9
				c30,49.3,35.3,108.5,14.7,162.2l0,0c-11.4,29.8-30.5,56.4-55.2,76.8c-5.3,4.3-10.7,8.4-16.3,12.1c-2.5,1.7-5.4,3.5-8.5,5.4
				c-8.7,5.2-17.8,9.6-27.1,13.2c-7.8,3.1-15.9,5.7-24.2,7.7c-9.7,2.4-19.7,4-29.8,4.8c-3.6,0.3-7.3,0.5-10.8,0.6
				C531.5,481.3,529.9,481.3,528.2,481.3z M527.1,117.6c-5.8,0-11.6,0.3-17.3,0.8c-5.6,0.5-11.3,1.4-16.7,2.4
				c-2.2,0.4-4.2,0.8-6.2,1.3c-18,4.1-35.2,10.9-51.3,20.4c-41.2,24.3-70.3,63-81.9,108.9c-11.5,45.6-4.3,92.9,20.2,133.3
				c33.2,54.8,94.3,87.8,159.2,86.2c3.4-0.1,6.8-0.3,10.3-0.5c9.5-0.8,18.9-2.3,28.1-4.6c7.8-1.9,15.5-4.4,22.8-7.3
				c8.8-3.5,17.4-7.7,25.6-12.5c3.1-1.8,5.7-3.5,8.1-5c5.3-3.5,10.5-7.4,15.5-11.5c23.4-19.3,41.3-44.4,52.1-72.5
				c19.5-50.8,14.4-106.7-13.9-153.2c-16.3-26.9-39.7-49.1-67.4-64.2c-5.3-2.8-10.8-5.6-16.6-8c-3.7-1.6-7.6-3.1-11.5-4.3
				c-12.1-4.1-24.7-6.9-37.6-8.5C541.4,118,534.3,117.6,527.1,117.6z M700.3,358.9L700.3,358.9L700.3,358.9z"/>
		</g>
		<g>
			<path class="st1" d="M678,399.9c-96.9,88.1-249.8,54.8-275.1-71.4c-17.3-86,54.8-168.8,139.5-179.7
				c61.7-8,125.5,10.9,164.3,101.9c0,0,10.8,42.9,2.9,73.5s-20.9,59-20.9,59L678,399.9z"/>
		</g>
		<g>
			<path class="st3" d="M402.9,328.5c25.4,126.3,178.3,159.5,275.1,71.4l2.2-3.4c-115,36.4-242-17.5-270.1-144.7
				C400.8,275.7,397.5,301.9,402.9,328.5z"/>
		</g>
		<g>
			<path class="st1" d="M553.3,473.1c-36.4,0-71.8-10-101-29c-38.5-25.1-64-63.4-73.5-110.9c-8.7-43.7,1.9-89.2,30-128.2
				c31.1-43.5,80.3-73.2,131.3-79.9c28.4-3.7,54.6-2,78,5.1l0.5,0.1l0.4,0.2c29.4,15.9,54.1,39.3,71.3,67.9
				c30,49.3,35.4,108.5,14.7,162.2l0,0c-11.4,29.8-30.5,56.4-55.2,76.8c-5.3,4.3-10.7,8.4-16.3,12.1c-2.5,1.7-5.4,3.5-8.5,5.4
				c-8.7,5.2-17.8,9.6-27.1,13.2l-0.7,0.2C582.6,471.5,567.8,473.1,553.3,473.1z M568.3,133.5c-8.7,0-17.7,0.6-26.9,1.8
				c-48.3,6.2-94.8,34.5-124.3,75.6c-26.4,36.7-36.4,79.4-28.2,120.3c8.9,44.7,32.8,80.8,69,104.4c38.5,25.1,88.4,33.5,136.8,22.8
				c8.6-3.4,17.1-7.6,25.3-12.3c3.1-1.8,5.7-3.5,8.1-5c5.3-3.5,10.5-7.4,15.5-11.5c23.4-19.3,41.3-44.4,52.1-72.5
				c19.5-50.8,14.4-106.7-13.9-153.2c-16.3-26.8-39.5-48.9-67-64C600.2,135.6,584.8,133.5,568.3,133.5z M700.3,358.9L700.3,358.9
				L700.3,358.9z"/>
		</g>
		<g>
			<path class="st1" d="M553.5,452.2c-17.8,0-35.6-2.7-52.7-8.3c-52.8-17.4-89.5-59.2-100.7-114.8c-7.7-38.3,1.7-78.3,26.3-112.7
				c27.5-38.2,70.6-64.5,115.6-70.3c77.3-10,133.6,24.9,167.3,103.6l0.1,0.4c0.4,1.8,10.9,44,2.9,74.9c-7.9,30.5-20.9,59.1-21,59.4
				l-0.2,0.3l-10.9,17l-0.3,0.2C643.9,434.6,598.6,452.2,553.5,452.2z M566.9,149.9c-7.8,0-15.8,0.5-24.1,1.6
				c-43.5,5.6-85.2,31-111.8,68.1c-23.8,33.1-32.8,71.6-25.4,108.4c10.7,53.6,46.1,93.8,97,110.6c58.3,19.1,124.7,3.7,173.4-40.4
				l10.4-16.2c1.1-2.4,13.3-29.7,20.7-58.4c7.4-28.5-2.1-68.7-2.8-72C675.3,184,629.2,149.9,566.9,149.9z M678,399.9L678,399.9
				L678,399.9z"/>
		</g>
		<g>
			<path class="st0" d="M320.7,331.3c2.7,35.8,26.4,64.2,52.9,63.5c26.5-0.7,45.9-30.3,43.1-66.1c0-0.2,0-0.4-0.1-0.6
				c-2.9-35.5-26.5-63.5-52.9-62.8c-20.5,0.5-36.7,18.3-41.8,42.8C320.6,315.4,320.1,323.2,320.7,331.3z"/>
		</g>
		<g class="st2">
			<path class="st1" d="M320.7,331.3c2.7,35.8,26.4,64.2,52.9,63.5c26.5-0.7,45.9-30.3,43.1-66.1c0-0.2,0-0.4-0.1-0.6
				c-2.6,3.8-6.9,7.5-13.2,6.4c-10.9-1.9-32-24.3-32-24.3s-21.5-1.1-49.4-2.1C320.6,315.4,320.1,323.2,320.7,331.3z"/>
		</g>
		<g>
			<path class="st1" d="M372.7,400c-28.7,0-54.3-30.3-57.1-68.3c-1.7-22.2,4.4-42.7,16.8-56.5c8.6-9.6,19.5-14.8,31.2-15.1
				c29.2-0.7,55.3,29.9,58.2,68.3c1.7,22.2-4.4,42.7-16.8,56.5c-8.6,9.6-19.5,14.8-31.2,15.1C373.4,400,373.1,400,372.7,400z
				 M364.8,270.5c-0.3,0-0.5,0-0.8,0c-8.9,0.2-17.1,4.3-23.9,11.7c-10.3,11.5-15.7,29.7-14.2,48.8c2.5,32.6,23.4,58.8,46.8,58.8
				c0.3,0,0.5,0,0.8,0c8.9-0.2,17.1-4.3,23.9-11.7c10.3-11.5,15.7-29.7,14.2-48.8C409.2,296.6,388.2,270.5,364.8,270.5z"/>
		</g>
		<g>
			
				<ellipse transform="matrix(0.9911 -0.133 0.133 0.9911 -41.4542 49.9842)" class="st0" cx="353.4" cy="335.3" rx="36.2" ry="53"/>
		</g>
		<g class="st2">
			<path class="st1" d="M357.6,388.1c-20,0.4-38.2-22.9-40.5-52.1c-0.2-3.2-0.3-6.3-0.2-9.3c6.8,19.7,21.3,33.5,36.8,33.1
				c17.6-0.3,30.9-18.5,32.5-42.5c1.7,5.4,2.9,11.3,3.4,17.3C392,363.8,377.7,387.7,357.6,388.1z"/>
		</g>
		<g>
			<path class="st1" d="M357.2,393.3c-22.8,0-42.6-24.8-45.1-56.9l0,0c-1.5-18.8,3.6-36.7,13.7-47.8c6.5-7.3,14.6-11.2,23.5-11.3
				c23-0.4,43.1,24.5,45.8,56.8c1.5,18.8-3.6,36.7-13.7,47.8c-6.5,7.3-14.6,11.2-23.5,11.3C357.5,393.3,357.3,393.3,357.2,393.3z
				 M349.6,287.6c-0.1,0-0.2,0-0.3,0c-5.9,0.1-11.5,2.8-16,7.9c-8.2,9-12.3,24-11,40l0,0c2.1,25.8,18,47.3,34.9,47.3
				c0.1,0,0.2,0,0.3,0c5.9-0.1,11.5-2.8,16-7.9c8.2-9,12.3-24,11-40C382.6,309.2,366.6,287.6,349.6,287.6z"/>
		</g>
		<g class="st4">
			<path class="st0" d="M502.1,190.4c0,0,80.4-5.3,130.4,34.4c0,0,0.1,0.1,0.2,0.1c10.5,8.3,18.5,19.4,23.4,31.8
				c6.3,16.4,8.2,28.6,9.5,39.5c3.9,32.9-0.6,49-0.6,49c16.9-19.6,25.4-40.5,22.4-68c-0.3-2.7-0.7-5.5-1.3-8.3
				c-0.1-0.6-0.2-1.3-0.4-2l0,0c-1.5-5.7-3.6-13-6.8-21.3c-9.6-24.6-28-56-62-67.6C553.2,156.1,498.9,187.3,502.1,190.4z"/>
		</g>
		<g class="st4">
			
				<ellipse transform="matrix(0.1567 -0.9876 0.9876 0.1567 101.4765 688.8719)" class="st0" cx="454.1" cy="285" rx="24.9" ry="21.7"/>
		</g>
		<g class="st4">
			
				<ellipse transform="matrix(0.2478 -0.9688 0.9688 0.2478 17.2066 681.4706)" class="st0" cx="447.5" cy="329.7" rx="10.3" ry="8.9"/>
		</g>
	</g>
	<g>
		<g>
			<path class="st5" d="M607.8,502.4c-32.5-23.9-38.6-48.2-7.2-73c30.6-8.7,54.8-4.6,60.5,37.1C650.7,492.4,633.1,504.5,607.8,502.4
				z"/>
		</g>
		<g>
			<path class="st6" d="M692.6,568.1c5.4,13.4,6.4,25.8-2.1,36.1c-12.3,2-20.5-5.8-25.6-20.5"/>
		</g>
		<g>
			<path class="st0" d="M385.4,415.8c-21.3-3.7-36.7,3.1-40.4,30.7l-50.6-12.4c-17.7-35.5-29.8-33.9-37.7-3.8
				c-30.2-14.4-55.7-15.9-54.3,57c30.1,30.3,67.9,53.3,115.9,67c-9.8,95.7-7.2,167.6,67,167.6c10.9,28.5,26.5,48.4,46,61.2
				l19.1,70.9l13.6,32.2c17.3,15.7,41.6,11.8,65.9,7.6l1.1,24.4l96,46.9c25.7-20,35.1-42.3,14.9-68.9c40.6-58.2,39.9-130.5,6.3-214
				l-0.6-16l11.8-17.3l-1.6-65.3l32.1-12.8c20.1,11.3,40.5,11.7,61.2,2.4c31-16.7,42-39.5,18.4-72.5c-24.4-29-66-43.5-113.1-52.9
				l4.7,21.3c-13.7,23.4-30.9,36.4-53.4,33.4l-25.1-26.7C512.2,481,443.1,479.5,385.4,415.8z"/>
		</g>
		<g>
			<path class="st0" d="M452.6,868.3c-16.8,4.4-32.2,6.5-46.3,6.7c-86.2,1.4-123.6-70.1-138.1-155.8c1.9-95.6,33.4-118.9,73.8-119.9
				v0.2l0.4,10.7l0,0c-0.1,0-0.2,0-0.3,0c-52.8-2.1-79.3,76.4-46.4,177.3c28.8,53.9,65.9,79.6,110.8,78.9
				c13.5-0.2,27.6-2.8,42.4-7.8l0.4,1.2L452.6,868.3z"/>
		</g>
		<g class="st2">
			<path class="st1" d="M456.7,868.3c-18.4,4.8-35.1,6.9-50.4,6.7c-83.2-0.9-119.8-71.4-134.1-155.8C274,626.8,303.4,602,342,599.5
				c1.4-0.1,2.7-0.2,4.1-0.2l0.4,10.9c-1.4-0.1-2.7-0.1-4.1,0c-0.1,0-0.2,0-0.3,0c-52.8-2.1-79.3,76.4-46.4,177.3
				c28.8,53.9,65.9,79.6,110.8,78.9c13.6,0.2,27.9-1.9,42.8-6.6c1.2-0.3,2.4-0.7,3.7-1.2L456.7,868.3z"/>
		</g>
		<g>
			<path class="st0" d="M784.4,767.5c-24.8,35.7-54,62.4-96.6,61.2c-5.6-0.2-11.4-0.8-17.4-1.9l1.3-11.3l0.2-2.2
				c4.2,2.3,9.3,3.6,14.8,3.9c48.6,2.6,139.2-66.5,76.9-157.1c-29-15.2-55-32.6-76.2-53.6l6.1-5.4l2.9-2.5
				c20.3,21.4,45.3,33.8,73,50.7C797.3,679.7,809.9,715.9,784.4,767.5z"/>
		</g>
		<g class="st2">
			<path class="st1" d="M778.9,767.5c-23.8,34.2-51.6,60.1-91.2,61.2c-7.2,0.2-14.8-0.4-22.8-1.9l1.6-13.5c1.6,0.8,3.4,1.6,5.2,2.2
				c4.4,1.4,9.6,1.9,15.2,1.7c49,1.2,142-77.4,76.9-157.1c-29-15.2-55-32.6-76.2-53.6l6.1-5.4c19.9,19.8,44,31.9,70.6,48.2
				C791.8,679.7,804.5,715.9,778.9,767.5z"/>
		</g>
		<g>
			<path class="st6" d="M623.8,609.3c-10.1-1.7-17.6-9.9-23-22.9c5.7-14.2,14.1-21.1,24.4-22.8l23.1,17.1
				C648.5,597.6,642.4,608.8,623.8,609.3z"/>
		</g>
		<g>
			<path class="st7" d="M337.7,611.3c1.8,8.2,5.3,13.2,10.9,13.8c7.8-3.4,12.8-10,15.8-18.8c-0.6-8.9-4.6-15.3-11.6-19.1L340,597.6
				l5.2,0.6l0.6,11.4L337.7,611.3z"/>
		</g>
		<g class="st2">
			<path d="M467.6,889.8c0.8-27.2,22.8-50.1,63.4-68.8c26.5-1.3,46.6,2,59.5,10.3c-0.7,19.1-17,37.1-39.5,54.9
				C519,900.3,489.9,905.3,467.6,889.8z"/>
		</g>
		<g class="st2">
			<path class="st1" d="M619.3,715.4c-7.9,20-15.2,40.8-31.4,48c6.1,17,6.3,36.8,4.7,57.3l-22.7-33.2l-12.1-43.3
				C580.6,748.7,600.9,737.6,619.3,715.4z"/>
		</g>
		<g class="st2">
			<path d="M658.5,860.1c-19.5-12.4-42.6-20.1-68.1-24.8l1.9-9.3C620.9,831.7,648.4,838.1,658.5,860.1z"/>
		</g>
		<g class="st2">
			<path class="st1" d="M583.7,857.3c-4.8,12.4-9.7,24.9-16.6,34.4c-3.9,5.3-2.7,12.6,2.4,16.5c12,9.2,30,16.7,49.1,24
				c8.2,3.2,14.1-3.4,18.2-11.2c8.7-16.6-2.6-24.5-12.3-33.5c16.9,9,30,19.7,28.3,36.4L627,965l-100.2-50.3l5.6-22.1
				C552.2,889,568.8,875.6,583.7,857.3z"/>
		</g>
		<g class="st2">
			<path class="st1" d="M529,761.2c-26.3,7.8-48.8,19.9-64.6,40.1c-1.9,2.4-2.6,5.6-2.1,8.6l4.2,22.2c0.8,4.7,4.7,8.3,9.5,8.9
				c5.6,0.7,12.4-0.4,19.3-1.8l-29.5,45l-15.3-30.4l-8.1-53.8C467.3,772.3,495.8,757.8,529,761.2z"/>
		</g>
		<g class="st2">
			<path class="st1" d="M615.8,717.8c-36.1,11.2-70.3,4-102.9-18.6c19.6,14.6,38.7,29.2,45,42.8C583.8,748,601.8,737.1,615.8,717.8z
				"/>
		</g>
		<g class="st2">
			<path class="st1" d="M464.1,780.1c-18.7-36.5-99.6-101.4-47.3-203.8l-30.6-5.5c-17.5,88.4-18,167.5,45.2,212.3l5.4,19.8
				C436.7,802.9,465.4,777.4,464.1,780.1z"/>
		</g>
		<g class="st2">
			<path d="M341.5,596.4c2.7-2.3,5.6-3.6,8.3-2.6c4.2,2,6.3,5.6,6.9,10.2c1.8,6.8-1.1,14.3-5.7,22c-7.3-0.9-12.4-4.9-13.4-14.7
				C346.9,606.4,348,601.5,341.5,596.4z"/>
		</g>
		<g class="st2">
			<path class="st1" d="M256.2,462.8c-12.4-12.9-20.2-25.5-23.8-37.7l24.2,5.2L256.2,462.8z"/>
		</g>
		<g class="st2">
			<path class="st1" d="M203.6,458.3c40.6,49.3,111.4,84.3,205.5,108.3c3.8,0.9,2.8,6.7-1.2,6.2c-32.4-3.8-72-13.8-117.4-28.9
				c-32.1-11.3-60.4-28.4-82.9-54.8L203.6,458.3z"/>
		</g>
		<g class="st2">
			<path class="st1" d="M330.9,559.9l-4,40.7l11.8-1.2l11.3-11.7c4.8,0.4,9.4,2.9,13.5,8.6c0.2,14.7-3.8,24.7-12.2,29.6
				c-9.7-0.5-13.4-6.5-13.4-15.8l-10.9,1.8c-10,73.6,9.6,107.1,54.5,105.9c-4.5-49.1-3.4-97.6,4.6-145.4L330.9,559.9z"/>
		</g>
		<g class="st2">
			<path class="st1" d="M355.2,446.4c-1.7-5.5-0.5-10.6,5.3-15.3c7.2-5.2,17.7-8.1,31.4-8.7l21.7,19
				C394,447.5,374.6,449.1,355.2,446.4z"/>
		</g>
		<g class="st2">
			<path class="st1" d="M495.6,553.2c-6.5,2.4-12.9,5-16.5,10.3v77.9c4.9,10.4,14.2,16.5,23.8,22.3h-33.4l-11.3-14.7v-93.5l8.4-7.6"
				/>
		</g>
		<g class="st2">
			<path d="M653,849.3c10.2-12.7,15.2-41.1,19.3-72.2c-0.3,31.5-1.2,62.2-9.6,79.3"/>
		</g>
		<g class="st2">
			<path class="st1" d="M640.7,579.7c-7.9,7.9-12.1,16.4-9.2,26.1c2.1,3.5-13.6,1.8-16.2,2c-0.4,0-0.9,0-1.6,0
				c-14.4-1.1-23.8-15.6-19.4-29.4c4-12.5,14.6-16,28.7-14.8L640.7,579.7z"/>
		</g>
		<g class="st2">
			<path class="st1" d="M675.5,580.5c5,8.5,11.2,14.4,21.3,10.7l-9.4,15.3c-11.5-0.9-19.6-8.3-25-20.6L675.5,580.5z"/>
		</g>
		<g class="st2">
			<path class="st1" d="M659.5,475.7c-4.7,16.3-14.5,28.4-31,34.8c-4.1,1.6-6,6.4-4,10.4c9.7,19.5,20,34.9,32.1,39.1
				c14.5,6.7,29.1,0.1,43.8-14.7c-5.4,16.3-12.3,30.3-24.8,35c-22,11.8-38.1,0.8-50.9-22.7l-21.9-45.5l5.2-8
				C628,501.1,644.7,490.5,659.5,475.7z"/>
		</g>
		<g class="st2">
			<path class="st1" d="M698.3,560.9c52.3,9.2,73.8-12.8,73.1-57.4c16.2,26.8,16.4,51.1-20.3,69.8
				C732.7,583.7,679.6,581.4,698.3,560.9z"/>
		</g>
		<g class="st2">
			<path class="st1" d="M360.9,449.4c21.6,10.7,47.6,11.7,53.9,9.9c0,0-0.1-0.1-0.4-0.3c67,43.3,132,33.4,179.3,32.1l-10.1-14.7
				c-67.6,12.2-123.2-0.9-169.2-34.2C396.6,444.6,378.7,447,360.9,449.4z"/>
		</g>
		<g class="st2">
			<path class="st1" d="M582.7,466.7c18.1,26.3,50.8,18.4,73.9-18.8c6.5,17.8,4.5,34.8-20.6,49.7C602.7,510.7,591,498.9,582.7,466.7
				z"/>
		</g>
		<g class="st8">
			<path class="st0" d="M586.5,447.2c24.2-18.5,47.4-16.8,70.1,0.5c-0.9-12.1-13.7-19.3-32-24.2
				C606.7,423.1,594.7,432.2,586.5,447.2z"/>
		</g>
		<g>
			<ellipse class="st0" cx="241.5" cy="330.7" rx="8.5" ry="8.4"/>
		</g>
		<g>
			<ellipse class="st0" cx="789.4" cy="266.7" rx="10.2" ry="10.2"/>
		</g>
		<g>
			<circle class="st0" cx="870.1" cy="289.4" r="5.3"/>
		</g>
		<g>
			<circle class="st0" cx="849.1" cy="447.8" r="9.9"/>
		</g>
		<g>
			<ellipse class="st0" cx="889.7" cy="200" rx="5.7" ry="5.7"/>
		</g>
		<g>
			<circle class="st0" cx="858.7" cy="767.8" r="5.6"/>
		</g>
		<g>
			<circle class="st0" cx="773.3" cy="883.1" r="8.1"/>
		</g>
		<g>
			<circle class="st0" cx="160.3" cy="768.5" r="6.6"/>
		</g>
		<g>
			<circle class="st0" cx="192.5" cy="709" r="9.3"/>
		</g>
		<g>
			<circle class="st0" cx="640.3" cy="46.3" r="11.3"/>
		</g>
		<g>
			<path class="st0" d="M313.3,96.6c-4.6-8.7-4.7-20.4,0-29.2C318.1,76.2,318.1,87.8,313.3,96.6L313.3,96.6z"/>
		</g>
		<g>
			<path class="st0" d="M302.4,83.2c8.4-5.4,20-6.3,29.1-2.3C323.2,86.3,311.5,87.1,302.4,83.2L302.4,83.2z"/>
		</g>
		<g>
			<path class="st0" d="M243.1,165.8c-4.6-8.7-4.7-20.4,0-29.2C247.8,145.4,247.7,157,243.1,165.8L243.1,165.8z"/>
		</g>
		<g>
			<path class="st0" d="M232.1,152.3c8.4-5.4,20-6.3,29.1-2.3C252.8,155.4,241.3,156.2,232.1,152.3L232.1,152.3z"/>
		</g>
		<g>
			<g>
				<path class="st0" d="M133.7,598.8c-5.8-10.6-5.8-25.7,0-36.3C139.6,573.2,139.5,588.1,133.7,598.8L133.7,598.8z"/>
			</g>
			<g>
				<path class="st0" d="M120.2,582.1c10.1-6.6,25.1-7.9,36.2-2.9C146.3,585.9,131.3,587.1,120.2,582.1L120.2,582.1z"/>
			</g>
		</g>
		<g>
			<path class="st0" d="M715.4,717.7c-4.5-7.4-4.6-17.3,0-24.6C720.1,700.5,720,710.4,715.4,717.7L715.4,717.7z"/>
		</g>
		<g>
			<path class="st0" d="M707,706.4c6.3-5.2,15.3-6,22.3-2C723,709.6,714.2,710.4,707,706.4L707,706.4z"/>
		</g>
		<g>
			<path class="st0" d="M812.6,606.7c-5.2-7.9-5.3-18.7,0-26.6C817.7,588,817.7,598.9,812.6,606.7L812.6,606.7z"/>
		</g>
		<g>
			<path class="st0" d="M802.6,594.5c7.4-5.8,18.3-6.7,26.5-2.1C821.7,598.2,810.8,599,802.6,594.5L802.6,594.5z"/>
		</g>
		<g>
			<path class="st9" d="M661.3,473"/>
		</g>
		<g>
			<path class="st1" d="M700.9,499.1c-1.3,3.1-5.7,2.5-7.8,0.8c-5.9-4.4-9.7-10.6-14.2-16.1c-2.8-3.6-5.7-7.2-8.7-10.4
				c-1.3-1.3-2.6-2.9-4.2-3.5c-1.3-0.4-1.4,0-2.2,0.9l0.3-0.5c-6.5,16.2-20.3,29.9-37.5,34.4c-5.7,1.6-11.6,2.2-17.4,2.1l1.6-0.4
				c-1.2,0.6-2,1.5-2.6,2.6c-0.6,1.2-1.1,2.7-1.4,4.3v-1.2c4,18.7,12,37,25.2,51c19.1,20.2,44.9,24.1,59-3.7
				c3.2-6.1,4.4-12.1,9.6-17.4c0.6,1.9,0.8,3.7,0.9,5.5c0.1,3.6-0.7,6.9-2.1,10.2c-3.2,8.3-7.7,16.1-14.8,22
				c-5.7,4.8-13.3,7.7-20.7,7.8c-29.1,0-50.5-29-58.9-54.2c-2.1-6.7-4.2-14.2-4.7-21.1c0.6-4.7,3.6-11,8.8-12.1
				c5.3-0.1,10.5-0.7,15.6-2.1c10-2.8,18.7-8.8,25.2-16.9c3.3-4,6-8.5,8.1-13.4c1.7-3.4,6.6-5.4,10.2-3.6c2.7,1.2,4.5,3.3,6.3,5.3
				c3.2,3.6,6,7.4,8.6,11.2c4,5.4,7.4,11.5,12.4,15.7C697.5,497.4,698.5,498.7,700.9,499.1L700.9,499.1z"/>
		</g>
		<g>
			<path class="st1" d="M610.9,506.8c-0.5,0-1.1,0-1.6,0c-0.6,0-1.2-0.2-1.7-0.5c-36-22.2-32.3-46.1-29-55.3
				c6.7-19.4,29.1-33,50-30.5c9.6,1.2,32.3,7.9,35.9,45.8c0,0.4,0,0.7-0.1,1.2C659.6,486.6,637.8,506.8,610.9,506.8z M610.4,500.2
				c0.1,0,0.2,0,0.4,0c22.7,0,42.4-17.1,47-33.8c-2.4-23.3-13-37.1-30-39.1c-17.6-2.1-37.2,9.8-42.9,26
				C579.2,469.5,588.2,486.2,610.4,500.2z"/>
		</g>
		<g>
			<path class="st1" d="M751,577.3l-3.4-5.8c24.3-13.9,34.7-29.7,31.2-46.6c-7.3-34.9-71.9-68.6-122.5-74.3l0.7-6.6
				c25.5,2.8,55.2,12.8,79.7,26.9c27.6,15.8,44.8,34.5,48.6,52.6C788.2,537.3,784.7,557.9,751,577.3z"/>
		</g>
		<g>
			<path class="st1" d="M418.3,445.1c-38.8,14.5-87.1,5.5-125.3-7.4c-1.1-0.4-1.9-1.2-2.3-2.1c-2-3.7-4-7.5-6.3-10.9
				c-12.4-18.7-20.1-17.9-24,5c-1.8,12.8-0.4,25.8-1.3,38.7c-1.9-4.1-3.3-8.3-4.2-12.7c-3.2-13.7-4.1-35.8,4.7-47.6
				c3.8-5.2,11.3-6.8,16.8-3.8c10.7,5.9,16.4,17.4,21.5,27.8l-2.3-2c36.3,12.2,82.9,21,119.5,7.5
				C415.3,437.8,418.3,445.1,418.3,445.1L418.3,445.1z"/>
		</g>
		<g>
			<path class="st1" d="M419.5,576.7c-7.4,1.7-14.5,0.9-21.7-0.4c-5.4-0.8-15.9-2.8-21.1-3.9c-42.3-8.3-84.9-19.4-123-40.4
				c-12.7-7.2-24.8-15.5-35.9-25.1l-8-7.6c-2.7-2.9-5.2-6.2-7-9.7c-3.8-6.9-5.5-15.3-4.8-23.1c0.5-7.4,1.5-14.7,3.5-22.1
				c3.1-11.6,10.8-23.8,23.7-25.8c11.8-2,23.5,2.9,33.4,8.1l-3.7,7.2c-3.1-1.6-6.2-2.9-9.4-4.1c-18.2-6.7-30.2-2.4-35.4,17.1
				c-1.8,6.4-2.5,13.4-3.1,20.2c-0.5,6.4,0.8,12.6,3.8,18.3c1.5,2.7,3.4,5.4,5.5,7.6l7.6,7.2c10.4,9.3,21.9,17.3,34.1,24.2
				c24.4,13.9,51.6,23.5,78.6,31c16.9,4.8,34.6,8.7,51.9,12.4C398.8,570,410.1,570.9,419.5,576.7L419.5,576.7z"/>
		</g>
		<g>
			<path class="st1" d="M316.4,556.3l-4.3-6.7c26.1-16.8,44.2-74.5,31.9-101.1l7.3-3.4c6.7,14.5,6.2,37.1-1.5,60.6
				C342.3,528.8,329.8,547.7,316.4,556.3z"/>
		</g>
		<g>
			<path class="st1" d="M390.1,571.6c-11.6,67.5-24.2,156.3,38.3,202.7c2.4,1.8,4.8,4,6.6,6.5c1.8,2.3,3.1,5.2,4.2,7.9
				c2.1,4.9,4.1,9.9,5.9,14.9c4.5,12.6,8.6,26.2,8.9,40c0,2.1,0,5.5,0.3,7.5c2,12,6.3,24.5,14.2,33.9c8.3,9.5,21.5,10.8,33.5,10.3
				c36.5-1.9,87.6-28.4,85.5-70.3c-5.6-33-23.7-46.2-57.3-34.7c-9.2,2.9-17.1,7.7-27,9c3.4-3.9,7.4-6.6,11.7-8.9
				c21.8-10.8,52.9-18.1,68.9,5.8c5.8,8.4,8.6,18.2,10.4,28c1.1,11.4-2.1,23-8,32.7c-19.3,32.3-72.7,54.6-108.9,43.6
				c-8.3-3.1-15.5-9.3-19.9-16.8c-5.8-9.7-9.6-20.2-11.3-31.4c-0.6-5.4-0.2-10.5-1.1-15.9c-1.4-10-4.4-20-8-29.8
				c-1.8-4.9-3.8-9.8-5.8-14.6c-1.4-3.7-3.4-7.3-6.5-9.7c-48.6-33.8-56.1-94.1-51.6-148.8c1.6-21.4,4.9-42.5,8.9-63.4L390.1,571.6
				L390.1,571.6z"/>
		</g>
		<g>
			<path class="st1" d="M565.8,787.9c-4.6-28.6-14.8-53.9-37.6-72.7c-7.4-6.3-15.9-11.3-21.6-19.6c12,0.5,21.4,7.7,30.4,14.6
				c14.8,12.1,26.2,28.7,31.7,47c2.9,9.7,4.5,19.8,5,29.7L565.8,787.9L565.8,787.9z"/>
		</g>
		<g>
			<path class="st1" d="M619.4,715.3c-2.1,6.2-5.9,11.3-10.4,15.7s-9.5,8.5-15.3,11.7c-11.5,6.6-26.3,7.9-38.5,2.8l2.6-7.6
				c17.5,5.4,33-0.6,46.7-11.8C609.1,722.2,613.6,718.4,619.4,715.3L619.4,715.3z"/>
		</g>
		<g>
			<path class="st1" d="M443.3,805.6l-6-5.4c16.9-19,37.3-33.6,57.4-40.9c25.6-9.4,50.3-7.8,73.5,4.6l-3.8,7
				C507.7,740.7,457.4,789.8,443.3,805.6z"/>
		</g>
		<g>
			<path class="st1" d="M459.2,636c-32.3,0-59.1-5.2-81.7-15.7l3.4-7.3c24.3,11.3,54,16.1,90.7,14.6c2-9.9,2-20.7-0.1-32.8
				c-26.4,1.8-54.5-1.6-88.1-10.3l2-7.8c34.2,8.9,62.4,12.1,89,9.8c2.1-0.2,3.9,1.3,4.3,3.3c3.2,16,3.1,29.9,0,42.7
				c-0.4,1.7-1.9,2.9-3.7,3.1C469.5,635.8,464.2,636,459.2,636z"/>
		</g>
		<g>
			<path class="st1" d="M637,670.3H479.8c-14.1,0-25.6-11.5-25.6-25.6v-82c0-9.7,7.9-17.6,17.6-17.6h144.9v8H471.8
				c-5.3,0-9.6,4.3-9.6,9.6v82c0,9.7,7.9,17.6,17.6,17.6H637c10.2,0,18.5-8.3,18.5-18.5v-60.5h8v60.5
				C663.5,658.4,651.6,670.3,637,670.3z"/>
		</g>
		<g>
			<path class="st1" d="M502.3,668.3l-4.2-5.5c-5.6-7.2-8.6-15.8-8.8-24.9l-1.6-68c-0.1-6.5,2.4-12.8,6.9-17.4l5.8-5.8l4.7,4.7
				l-5.8,5.8c-3.3,3.3-5.2,7.9-5.1,12.5l1.6,68c0.2,7.7,2.7,14.9,7.4,20.9l4.2,5.5L502.3,668.3z"/>
		</g>
		<g>
			<path class="st1" d="M596.1,666.3h-6.7v-45l-43.2-17.1c-1.3-0.5-2.1-1.8-2.1-3.2v-51.8h6.6v49.4l43.3,17.1
				c1.3,0.5,2.1,1.8,2.1,3.2V666.3z"/>
		</g>
		<g>
			<path class="st1" d="M631.6,610.4c-11,0-20-10.1-20-22.5c0-12.3,8.5-22.2,19.5-22.4l0.1,5.4c-7.9,0.2-14.3,7.9-14.3,17.1
				c0,9.5,6.6,17.1,14.7,17.1c1.3,0,2.4-0.2,3.5-0.5h0.1c6.5-1.9,11-8.7,11-16.6c0-0.1,0-0.2,0-0.3l0,0l0,0c0-2.4-0.5-4.7-1.4-6.9
				l4.9-2c1.2,2.7,1.7,5.7,1.8,8.8l0,0c0,0.1,0,0.2,0,0.4c0,10.3-6.2,19.3-15,21.8h-0.1C635,610.2,633.3,610.4,631.6,610.4z
				 M646.3,588L646.3,588L646.3,588z"/>
		</g>
		<g>
			<path class="st1" d="M646.5,588.7c-0.2-0.3-0.2-0.7-0.3-1.1l0,0l0,0c0-0.1,0-0.2,0-0.3c0-2.3-0.4-4.5-1.3-6.6l4.9-2
				c1.1,2.7,1.6,5.7,1.6,8.6c0,0.1,0,0.2,0,0.3s0,0.2,0,0.3l0,0v0.1l-2.6-0.4L646.5,588.7z M646.3,587.1L646.3,587.1L646.3,587.1z
				 M646.3,587.1L646.3,587.1L646.3,587.1z M646.3,587.1L646.3,587.1L646.3,587.1z M646.3,587.1L646.3,587.1L646.3,587.1z"/>
		</g>
		<g>
			<path class="st1" d="M625.8,612c-14.2,0-25.8-11-25.8-24.6s11.6-24.6,25.8-24.6c1.2,0,2.2,0.1,3.2,0.2l-0.7,5.3
				c-0.8-0.1-1.6-0.1-2.5-0.1c-11.3,0-20.5,8.6-20.5,19.3s9.2,19.3,20.5,19.3c3.2,0,6.1-0.6,8.9-1.9c0.3-0.2,0.7-0.2,1.2-0.2v2.6
				l1.1,2.4C633.5,611.1,629.7,612,625.8,612z"/>
		</g>
		<g>
			<path class="st1" d="M643.2,901.6l-6.6-4.4c40.3-60.1,43.1-133.8,8.1-213.3c-0.2-0.4-0.3-0.9-0.3-1.5l-0.7-18.6l8-0.3l0.7,17.9
				c17,38.8,25.5,76.6,24.9,112C676.5,832.5,665.2,868.9,643.2,901.6z"/>
		</g>
		<g>
			<path class="st1" d="M535.9,894.7l-2.8,7l-1.4,3.5c-1.5,3.8-0.1,8.3,3.4,10.4c26.7,16.8,55.1,30.7,84,43.3
				c4.1,2.2,8.5,1.9,11.6-2c9.6-11.8,21.9-27.9,19.1-43.5c-1.9-9-9.7-14.8-17.7-18.8c-3.4-1.7-6.5-3.6-9.5-5.8
				c-1.1-0.7-2.1-1.6-3.2-2.6c4-0.8,8.1-0.5,12,0.6c6.4,2,12.2,5.5,17.4,10.2c8.8,7.9,11.6,20.5,8.4,31.7
				c-3.6,13.4-11.6,24.5-20.1,35c-5.3,6.3-14.5,7.9-21.8,4l-3.5-1.5c-9.3-4-18.5-8.2-27.7-12.6c-18.3-8.9-36.2-18.7-53.1-29.9
				c-2.7-1.7-5.2-4.2-6.6-7.2c-2.3-4.5-2.4-10-0.4-14.6l1.6-3.5l3.1-6.9L535.9,894.7L535.9,894.7z"/>
		</g>
		<g>
			<path class="st1" d="M467.6,894.8c-10.2-15.3-0.8-37.5,24.2-57.7c31.1-25.3,76.9-39.1,101-16c19.4,3.5,53.2,12.3,71.6,33.7
				l-6.1,5.3c-17.8-20.7-53.7-28.7-68.2-31.2c-0.8-0.1-1.6-0.5-2.2-1.2c-19.9-20.3-62-7.9-91.2,15.7c-16.1,13-31.8,33.2-22.5,47
				L467.6,894.8z"/>
		</g>
		<g>
			<path class="st1" d="M385.1,725.8c-30.5-2.7-50.1-12.6-61.5-30.9c-10.7-17-14.6-41.3-12.6-78.7l8,0.4c-3.7,70,13.9,96.5,67,101.3
				L385.1,725.8z"/>
		</g>
		<g>
			<path class="st1" d="M319.6,604.3l-8-0.6c1.1-13.8,2.9-29.9,5.5-49.1l7.9,1.1C322.5,574.7,320.7,590.6,319.6,604.3z"/>
		</g>
		<g>
			<path class="st1" d="M349,447.1l-7.9-1.4c1.5-8.9,3.9-16.3,7.4-22.6c1.4-2.5,3.6-4.5,6.2-5.8c11-5.2,22.6-6.7,34.7-4.8l-1.3,7.9
				c-10.4-1.7-20.5-0.2-30.1,4.2c-1.1,0.5-2,1.4-2.5,2.3C352.5,432.5,350.3,439.1,349,447.1z"/>
		</g>
		<g>
			<path class="st1" d="M353,421.2c9.3,1.7,23.6,9,25,19.4c-5.4-1.6-8.8-4.4-13.7-6.5c-3.8-1.8-9.5-3.7-13.4-5
				C351,428.9,353,421.2,353,421.2L353,421.2z"/>
		</g>
		<g>
			<g>
				<path class="st1" d="M404.4,878.7L404.4,878.7c-12.5,0-24.7-1.7-36.1-5c-23.5-6.9-43.8-20.7-60.6-41
					c-21.6-26.1-36.1-61.9-40.7-100.7c-4.4-37,0.7-72.6,14.1-97.6c14.4-26.8,37.3-40.1,64.6-37.2c0.9,0.1,1.9,0.7,2.2,1.7
					c1.8,4.4,1.3,8.8-1.4,13c-0.5,0.8-1.5,1.4-2.5,1.3c-26.2-2.7-41,14.2-48.8,28.9c-23.1,43.2-18.6,128,24.8,180.5
					c22.1,26.6,62.5,54,130.1,32.7c0.6-0.2,1.4-0.1,2,0.2s1.1,0.8,1.3,1.6l3.2,10.2c0.4,1.4-0.3,2.9-1.8,3.4
					C437.5,875.9,420.4,878.7,404.4,878.7z M338.8,602c-22.1,0-40.7,12.2-52.8,34.8c-12.8,24.1-17.8,58.5-13.5,94.5
					c4.5,37.9,18.5,72.6,39.5,97.9c16.1,19.5,35.6,32.6,58,39.2c10.9,3.3,22.5,4.8,34.6,4.8c14.7,0,30.3-2.4,46.4-7.3l-1.6-5
					c-68.9,20.6-110.5-7.7-133.3-35.2c-44.8-54.2-49.3-141.7-25.5-186.4c8.4-15.8,24.3-34,52.3-31.9c0.8-1.8,1.1-3.5,0.6-5.3
					C342,602,340.4,602,338.8,602z"/>
			</g>
		</g>
		<g>
			<path class="st1" d="M349.3,628.1c-0.7,0-1.5-0.1-2.2-0.2c-6.8-1.3-11.7-8.4-12-17.8l5.4-0.2c0.2,6.6,3.4,11.9,7.7,12.7
				c2.4,0.4,4.5-0.5,5.9-1.5c3.6-2.5,6.4-7.3,7.5-12.8c0.8-4.5,0.4-8.9-1.1-12.5c-1.4-3.2-3.6-5.3-6.1-5.7
				c-4.5-0.8-9.7,3.5-12.2,10.2l-5-1.9c3.5-9.4,10.9-14.9,18.2-13.7c4.3,0.8,7.9,3.9,10,8.7c2,4.5,2.5,10.1,1.5,15.7
				c-1.3,6.9-4.9,13-9.7,16.3C354.6,627.1,351.9,628.1,349.3,628.1z"/>
		</g>
		<g>
			<g>
				<path class="st1" d="M689.6,832.2c-7.6,0-14.8-1.2-21.5-3.4c-1.4-0.4-2.1-2-1.7-3.4l3.8-11.4c0.2-0.6,0.7-1.3,1.4-1.6
					s1.4-0.3,2-0.1c22.4,7.4,52.2-2,76-24c27.9-25.9,39.5-61.8,30.9-95.8c-4.1-16.5-15.3-30.5-30.5-38.4
					c-31.2-16.3-51.1-30.4-64.6-45.8c-0.9-1.2-0.8-2.8,0.2-3.8l9-7.9c1.2-0.9,2.8-0.8,3.8,0.2c12,13.7,30.3,26.5,59.5,41.8
					c19.7,10.2,34,28.3,39.3,49.7c10.1,40.3-3.4,82.5-36,112.8C740.1,820.8,713.9,832.2,689.6,832.2z M672.4,824.5
					c5.4,1.5,11.2,2.3,17.3,2.3c22.9,0,47.8-10.8,68.2-29.7c31.1-28.9,44.1-69.1,34.5-107.5c-4.9-19.8-18.3-36.6-36.6-46.2
					c-28.4-14.8-46.9-27.6-59.3-41l-5,4.4c12.9,14.1,32,27.4,61.2,42.5c16.6,8.6,28.7,24,33.2,41.9c9,36-3.2,73.8-32.5,101
					c-24.3,22.5-54.8,32.5-78.7,26L672.4,824.5z"/>
			</g>
		</g>
		<g>
			<path class="st1" d="M683.9,610.1c-1.4,0-2.8-0.2-4.1-0.7c-6.8-2.4-13.5-9.6-20.3-21.8l5.8-3.3c7.5,13.3,13.3,17.6,16.7,18.7
				c2.1,0.7,4.4,0.2,6.3-1.4c5.9-4.9,12.2-13.6-1.1-30.8c-1.1-1.4-0.9-3.2,0.3-4.4s3.1-1.4,4.4-0.3c14.5,10.9,31.2,13.8,51.1,8.7
				c2.2-0.5,3.9-2.2,4.3-4.4c5.6-25.5,2.9-48.2-8.3-71.2c-4-6.9-10.9-6.7-23.8-5.7c-8.9,0.7-19,1.5-30-1.4l1.7-6.4
				c9.8,2.5,19.4,1.8,27.7,1.2c12.3-0.9,23.9-1.9,30.1,9.2c0,0.1,0.1,0.1,0.1,0.2c12,24.5,14.8,48.6,8.9,75.6
				c-1.1,4.6-4.5,8.2-9.3,9.5c-16.6,4.2-31.7,3.3-45-2.8c4.6,11,2.2,20.5-6.9,28.3C690.1,608.9,686.9,610.1,683.9,610.1z"/>
		</g>
		<g>
			<g>
				<path class="st10" d="M204.9,250.8c0,24-19.5,43.6-43.5,43.6c-30.7,0-42.6-34.9-42.9-36.8c-0.1-0.3-0.1-0.7-0.1-0.7
					s-0.5-2.9-0.4-6c0.5-17.6,16.1-43.6,43.5-43.6C185.4,207.4,204.9,226.8,204.9,250.8z"/>
			</g>
			<g>
				<path class="st11" d="M120.1,243.6c-0.5-0.6,3.3-6.8,9.8-9.4c4.5-1.8,6.3-0.1,13.8-0.6c9.3-0.7,15.3-4,15.4-3.6
					c0.1,0.4-5.4,2.6-15.8,6.9c-4.6,1.9-6.2,2.5-8.6,2.9c-3.5,0.6-4.9,0.1-8.2,1.2C122.2,242.2,120.4,244,120.1,243.6z"/>
			</g>
			<g>
				<path class="st11" d="M126.1,229.1c4.2,0.4,7.7,0.1,10-0.2c5.1-0.8,10.9-1.8,14.9-6.2c2-2.3,2.3-4.1,5.4-6.4
					c2.7-2.1,5.1-2.6,4.8-3.2c-0.2-0.6-4.5-0.8-8,1.4c-2.1,1.3-2.4,2.6-5.2,3.8c-1.7,0.7-1.6,0.3-4,1.2c-2,0.6-5.2,1.8-7.6,4.6
					c-0.6,0.7-1.1,1.5-1.4,2"/>
			</g>
			<g>
				<path class="st11" d="M192.1,222.7c-3.8-0.1-18.9-0.1-23.6,5.4c-3.7,4.3-5.6,7.4-5.6,7.4c-1.5,2.3-1.5,2.7-2.4,3.6
					c-2.5,2.1-6.7,2.8-10,1.6c-1.5-0.5-1.8-1.2-2.9-1.2c-2.9,0-5.7,3.6-5.2,4.4c0.3,0.5,1.8,0.1,5.4-0.8c14.7-4,16.3-3.4,19.1-6
					c3.3-2.9,2.2-4.7,5.6-7.2c3.7-2.7,8.1-2.9,11.4-2.6"/>
			</g>
			<g>
				<path class="st11" d="M195.7,228.7c-2,0.5-3.5,1.2-4.5,1.7c-1.1,0.5-2.5,1.4-7.9,5.7c-2.7,2.2-2.3,2-2.8,2.3
					c-4.9,3.4-10.9,3.4-11,2.8c-0.1-0.2,1.4-0.8,1.4-0.8c0,0.1-6.6,3.8-10.2,4.3l0,0c-2.3,0.3-3.9,0.4-4.3,0.5
					c-2.2,0.2-4.2,1.5-6,2.5c-1.9,1.2-2,1.6-3.8,2.8c-2.7,1.9-6.7,4.7-10.3,3.7c-2.6-0.7-3.8-3.2-4.6-2.6c-0.6,0.3-0.6,1.7-0.2,2.6
					c1.4,2.4,6.7,1.9,9.6,1.5c5.4-0.6,8.9-2.2,15.7-5.2c13.7-6,20.5-9,21.6-9.9c3.5-2.6,5.8-5.3,9.9-5.5c1.5-0.1,3.8,0.1,6.8-0.9
					c1.5-0.5,3.2-1.3,3.4-2.5C198.2,230.6,197.2,229.5,195.7,228.7z"/>
			</g>
			<g>
				<path class="st11" d="M122.1,263.8c1.9,0.5,4.7,1.1,8.2,1.1c3.2,0,5.5-0.5,9.4-1.4c5.3-1.2,4.7-1.5,10.3-2.8
					c6.8-1.7,10.5-1.8,11.5-4.3c0.4-1.1,0.2-2.3,1.2-2.8c1.2-0.7,3.3,0.1,3.4,0.8c0.1,0.5-1.2,0.8-2.5,2c-1.7,1.5-2.4,3.2-2.6,3.7
					c-2.6,4.9-30.1,15.9-37.5,6.5C122.7,265.4,122.4,264.5,122.1,263.8z"/>
			</g>
			<g>
				<path class="st11" d="M202.2,251c-3.8,6.1-5.3,7.2-5.9,6.8c-0.4-0.2-0.3-0.9-0.8-1.2c-1.2-0.5-3.8,1.9-5.2,3.5
					c-1.1,1.3-1.2,1.8-2,2.2c-1.2,0.5-2,0-3.9-0.2c-0.5-0.1-4-0.4-6.9,1.1c-0.3,0.1,0,0-3.4,2.3c-0.9,0.6-1.9,1.3-3.4,1.9
					c-0.5,0.2-1.1,0.3-1.3,0.4c-1.8,0.4-3.7,0.5-3.7,0.3c-0.1-0.4,6-2.4,12.8-3.4c5.5-0.7,8.7-0.4,12.7-2.8c1.4-0.8,1.1-0.9,3.1-2.2
					c4.7-3.1,7.6-3.2,8.3-5.4C203,253.8,203.1,252.7,202.2,251z"/>
			</g>
			<g>
				<path class="st11" d="M131.6,278.8c5.4-2,9.8-3.4,13.2-4.2c3.2-0.8,6.4-1.5,7.9,0.2c0.9,1.1,0.9,3.2,1.7,3.2
					c0.5,0,0.7-1.1,1.7-1.3c0.7-0.1,0.9,0.3,1.5,0.1c0.7-0.3,0.6-1.3,1.4-2c0.6-0.5,1.2-0.5,2.5-0.6c2.3-0.3,2.3-0.8,5.2-1.5
					c2-0.4,2.1-0.2,3.4-0.5c1.4-0.3,3.4-1.2,5.5-3.2c-16.3,7.3-22.6,9-25.3,9.2c-0.5,0-2.9,0.1-6,0.8c-2,0.4-4,1.2-4,1.2
					s1.3-0.4,1.4-0.3c0.1,0.2-4.3,3.2-7.4,1.9C132.8,281,132.1,279.8,131.6,278.8z"/>
			</g>
			<g>
				<path class="st11" d="M198.4,268.4c-1.2,0.5-3.1,1.3-5.4,1.9c-7.3,1.9-9.9,0.1-13.9,2.6c-0.7,0.4-2.1,1.7-5.1,4
					c-2.4,2-2.2,1.9-2.8,2.3c-1.1,0.7-3.8,2.6-7.7,3.2c-2.3,0.3-4.3,0-4.5,0.6c-0.1,0.5,0.9,1.1,0.8,1.5c-0.3,0.7-4,0-4-0.2
					c0-0.1,2.3,0.3,6,0.2c4.1-0.2,7.3-1.2,8.3-1.5c2.6-0.8,6.6-2.1,8.3-4.6c0.2-0.3,1.7-2.5,1.7-2.5l0,0c0,0,5.2-0.7,7.5-1.4
					C190.6,274,194.2,272.4,198.4,268.4z"/>
			</g>
			<g>
				<path class="st11" d="M187.6,282.1c0,0.1-3.7,0.4-8.3,2.8c-3.2,1.6-4.8,3.2-8.5,3.8c-0.3,0.1-1.4,0.1-3.4,0.3
					c-1.8,0.1-4.1,0.4-7,0.5c-2.6,0.1-2.7,0-4.6,0.2c-3.4,0.2-4.9,0.6-5.1,0.5C150.6,289.8,187.4,281.6,187.6,282.1z"/>
			</g>
			<g class="st2">
				<path d="M133.9,218.1c-10.3,38.8,3.1,61.9,29.4,76.3c-16.2,0.6-30.9-6.2-43.2-26.2C118,247.2,120.2,229,133.9,218.1z"/>
			</g>
			<g class="st8">
				<path class="st0" d="M139.5,213.8c34.1,1.8,59,14.8,63.4,53c2.5-14.2,0.6-28.2-6.2-42.1C199.6,209,142.5,200.2,139.5,213.8z"/>
			</g>
			<g>
				<path class="st1" d="M161.2,297.7c-25.9,0-46.9-21-46.9-46.9s21-46.9,46.9-46.9s46.9,21,46.9,46.9S187.2,297.7,161.2,297.7z
					 M161.2,210.4c-22.2,0-40.3,18.1-40.3,40.3S139,291,161.2,291s40.3-18.1,40.3-40.3S183.5,210.4,161.2,210.4z"/>
			</g>
			<g>
				<path class="st1" d="M125.9,271.5c-1.5,0-2.8,0-4.1-0.1c-11.9-0.7-15.7-4.7-16.7-8c-1.7-5.2,2.3-11.5,11.6-18.2l2.3,3.3
					c-7.4,5.4-11.2,10.5-10.1,13.7c0.9,2.8,5.7,4.7,13.2,5.2c11.5,0.7,27.7-1.9,44.4-7.3c14.6-4.7,27.8-10.8,36.9-17.3
					c8.1-5.7,12.2-11,11.2-14.4c-1.2-3.8-9.2-5.8-20.8-5.2l-0.2-4c14.2-0.7,23,2.1,24.8,8c1.7,5.4-2.6,11.9-12.6,18.9
					c-9.5,6.6-22.9,12.9-38,17.8C152.3,268.9,137.3,271.5,125.9,271.5z"/>
			</g>
		</g>
		<g>
			<g>
				<circle class="st12" cx="826.1" cy="95.9" r="62.1"/>
			</g>
			<g class="st2">
				<path d="M803.3,114.4c8.4,0.4,14,3.4,13.7,12.2c3.6-2.3,3.3-7.3,1.2-13.5C816.4,109.5,801.7,112,803.3,114.4z"/>
			</g>
			<g class="st2">
				<path d="M826.1,62.1c10.3,1.6,17.8,6.9,20.9,18c2.6-4.9,3.5-10.3,0-16.6C840.6,60.6,833.6,60.5,826.1,62.1z"/>
			</g>
			<g class="st2">
				<path d="M798,39.1c-33.4,47.8-1.7,115.3,50.8,114.6c-27.9,5.7-54.5,3.5-76.7-27.2C757.9,89.3,767.5,60.6,798,39.1z"/>
			</g>
			<g class="st8">
				<path class="st0" d="M798,39.1c42.3-1.8,68.8,16.1,88.5,42.4c-2.6-14.4-14-28.5-35.2-42.4C856,33.9,802.6,30.5,798,39.1z"/>
			</g>
			<g>
				<path class="st1" d="M826.1,161.8c-36.3,0-65.9-29.6-65.9-65.9s29.6-65.9,65.9-65.9c36.3,0,65.9,29.6,65.9,65.9
					S862.4,161.8,826.1,161.8z M826.1,37.7c-32.1,0-58.3,26.2-58.3,58.3s26.2,58.3,58.3,58.3c32.1,0,58.3-26.2,58.3-58.3
					S858.2,37.7,826.1,37.7z"/>
			</g>
			<g>
				<path class="st1" d="M794.5,83.1c-1.6,0-3.2-0.7-4.2-1.9c-1.2-1.4-2.2-2.8-3.2-4.5c-1.8-3.2-1.4-7.3,1.1-10.3
					c0.5-0.6,0.9-1.4,1.4-2.1c0.7-1.4,2-2.2,3.5-2.3c1.5-0.1,2.9,0.4,3.9,1.7c4.8,5.9,5.5,11.6,2.1,16.9l-1.3-0.8l1.3,0.8
					c-0.9,1.5-2.5,2.4-4.2,2.5C794.8,83.1,794.7,83.1,794.5,83.1z M793.6,65h-0.1c-0.5,0-0.8,0.3-1.1,0.7c-0.5,0.9-1.1,1.8-1.7,2.5
					c-1.7,2.1-2,4.8-0.8,6.9c0.8,1.5,1.8,2.8,2.7,4c0.5,0.6,1.3,0.9,2.1,0.8c0.8-0.1,1.5-0.4,1.9-1.2l0,0c2.6-4.2,2-8.5-1.9-13.4
					C794.5,65.2,794,65,793.6,65z"/>
			</g>
			<g>
				<path class="st1" d="M876.2,97.5c-1.5,0-2.8-0.7-3.7-2c-0.9-1.4-1.8-2.8-2.5-4.5c-1.4-3.1-1.1-7,0.8-10.1
					c0.4-0.6,0.7-1.4,1.1-2.1c0.6-1.4,1.8-2.3,3.2-2.4c1.4-0.1,2.6,0.5,3.4,1.8c3.8,5.8,4.4,11.5,1.7,16.6c-0.8,1.6-2.2,2.5-3.8,2.6
					C876.4,97.5,876.3,97.5,876.2,97.5z M875.4,79.3L875.4,79.3c-0.3,0-0.5,0.2-0.6,0.6c-0.4,0.9-0.8,1.8-1.4,2.5
					c-1.4,2.2-1.7,5.1-0.6,7.2c0.6,1.5,1.4,2.8,2.2,4c0.3,0.5,0.8,0.7,1.3,0.7c0.5,0,0.9-0.4,1.3-1.1l0,0c2.1-4.3,1.7-8.7-1.6-13.7
					C875.8,79.5,875.6,79.3,875.4,79.3z"/>
			</g>
			<g>
				<path class="st1" d="M792.8,115.8c-0.8,0-1.8-0.3-2.6-0.8c-1.2-0.7-2-1.9-2.2-3.2c-0.2-1.2-0.3-2.4-0.3-3.6
					c0.1-2.6,2.1-4.6,4.9-5.1c0.5-0.1,0.9-0.2,1.4-0.3c0.9-0.3,2.1-0.2,3.2,0.4c1.1,0.6,1.8,1.7,1.9,2.8c1.1,6.6-2.3,8.9-5.3,9.7
					l0,0C793.4,115.8,793.1,115.8,792.8,115.8z M795.1,105.7H795c-0.6,0.2-1.4,0.4-2,0.4c-0.5,0.1-2.2,0.4-2.3,2.2
					c0,0.9,0,2,0.2,2.9c0.1,0.4,0.4,0.8,0.8,1.2s0.8,0.4,1.3,0.3l0,0c1.8-0.4,3.8-1.6,3.1-6.3c0-0.2-0.2-0.5-0.5-0.6
					C795.4,105.7,795.2,105.7,795.1,105.7z"/>
			</g>
			<g>
				<path class="st1" d="M811.7,135c-0.8,0-1.8-0.2-2.6-0.5c-4.4-1.9-7.9-4-10.6-6.5c-1.6-1.5-2.3-3.8-1.8-5.9
					c1.6-6.2,5.3-10.2,11.3-12.3c0.1,0,0.2-0.1,0.3-0.1c4.8-0.6,8.3,0.1,10.7,2.2c2.3,2.2,3.4,5.8,2.9,10.8c0,0.1,0,0.2,0,0.2
					c-1.3,5.1-3.4,8.6-6.3,10.8C814.4,134.6,813.1,135,811.7,135z M808.8,112.6c-5,1.8-7.9,4.9-9.2,10.1c-0.2,1.1,0.1,2.2,0.9,2.9
					c2.5,2.3,5.7,4.3,9.8,6c1.2,0.5,2.5,0.4,3.5-0.3c2.4-1.8,4.1-4.7,5.2-9c0.3-4-0.4-6.7-2-8.3C815.3,112.5,812.7,112,808.8,112.6z
					"/>
			</g>
			<g>
				<path class="st1" d="M848.4,138.9c-1.9,0-3.5-0.5-4.8-1.5c-3.1-2.2-4.7-6.6-5-13.7c0-0.1,0-0.1,0-0.2c0.5-6.2,1.9-10.7,4.2-13.7
					c1.5-1.9,3.9-2.5,6.1-1.5c4.1,1.9,7.5,4.3,10.2,7.2c1.5,1.6,2.3,4.1,2.1,6.5c-0.5,7.7-3.4,12.8-8.4,16c-0.1,0.1-0.2,0.1-0.3,0.1
					C851,138.7,849.6,138.9,848.4,138.9z M841.6,123.7c0.3,5.9,1.6,9.7,3.7,11.3c1.5,1.1,3.5,1.2,6.1,0.4c4.2-2.6,6.3-6.9,6.8-13.6
					c0.1-1.6-0.4-3.3-1.4-4.2c-2.5-2.6-5.6-4.7-9.3-6.5c-0.9-0.4-1.8-0.2-2.4,0.6C843.2,114.2,842,118.1,841.6,123.7z"/>
			</g>
			<g>
				<path class="st1" d="M833.4,90.3c-1.3,0-2.4-0.2-3.5-0.6c-3.7-1.4-6.5-4.8-8.6-10.7c0-0.1,0-0.2-0.1-0.2
					c-1.1-6.4-0.4-11.5,2-15.6c1.4-2.3,4-3.8,6.8-3.9c6-0.1,11.2,0.6,15.7,2.2c2.5,0.8,4.4,3.1,4.8,5.7c1.3,7.8-1.1,14.2-7,19.7
					c-0.1,0.1-0.1,0.1-0.2,0.2C839.6,89.1,836.3,90.3,833.4,90.3z M824.2,78c1.7,4.8,4,7.8,6.7,8.7c2.7,1.1,6.3,0.2,10.7-2.4
					c5.2-4.7,7-10,5.9-16.8c-0.2-1.5-1.4-2.8-2.8-3.3c-4.1-1.4-8.9-2.1-14.6-2c-1.8,0-3.5,0.9-4.3,2.3C823.9,68,823.4,72.4,824.2,78
					z"/>
			</g>
		</g>
	</g>
</g>
</svg>
