<?xml version="1.0" encoding="utf-8"?>
<!-- Generator: Adobe Illustrator 25.0.0, SVG Export Plug-In . SVG Version: 6.00 Build 0)  -->
<svg version="1.1" id="Layer_1" xmlns="http://www.w3.org/2000/svg" xmlns:xlink="http://www.w3.org/1999/xlink" x="0px" y="0px"
	 viewBox="0 0 1000 1000" style="enable-background:new 0 0 1000 1000;" xml:space="preserve">
<style type="text/css">
	.st0{fill:#ED1B24;}
	.st1{opacity:0.2;}
	.st2{fill:#371A45;}
	.st3{opacity:0.35;}
	.st4{fill:url(#SVGID_1_);}
	.st5{opacity:0.7;}
	.st6{fill:#FFFFFF;}
	.st7{fill:#293856;}
	.st8{fill:#21102B;}
	.st9{opacity:0.6;}
	.st10{fill:#22A7F0;}
</style>
<g>
	<g>
		<g>
			<path class="st0" d="M111.35,646.04c4.51-0.7,9.47-1.07,14.48-1.04h0.02c14.29,0.09,29.07,3.4,35.26,11.34
				c6.63,8.47,9.51,17.9,13.22,25.94c4.45,9.63,10.09,17.3,24.83,19c1.59,0.18,3.15,0.3,4.7,0.34
				c22.54,0.76,41.23-10.55,47.09,14.65l70.4-88.75L442.9,474.29L198.52,577.52l-87.29,66.26
				C108.9,644.99,108.74,646.44,111.35,646.04z"/>
		</g>
	</g>
	<g class="st1">
		<g>
			<path class="st2" d="M111.35,646.04c4.51-0.7,9.47-1.07,14.48-1.04h0.02c14.29,0.09,29.07,3.4,35.26,11.34
				c6.63,8.47,9.51,17.9,13.22,25.94c4.45,9.63,10.09,17.3,24.83,19c1.59,0.18,3.15,0.3,4.7,0.34
				c22.54,0.76,41.23-10.55,47.09,14.65l70.4-88.75L442.9,474.29L198.52,577.52l-87.29,66.26
				C108.9,644.99,108.74,646.44,111.35,646.04z"/>
		</g>
	</g>
	<g class="st3">
		<g>
			<path class="st2" d="M125.85,645c14.29,0.09,29.07,3.4,35.26,11.34c6.63,8.47,9.51,17.9,13.22,25.94
				c0.3-5.91,2.3-13.45,8.34-21.85c14.25-19.78,163.14-92.51,155.66-99.74C333.75,556.26,128.98,643.67,125.85,645z"/>
		</g>
	</g>
	<g class="st3">
		<g>
			<path class="st2" d="M203.86,701.62c22.54,0.76,41.23-10.55,47.09,14.65l70.4-88.75C272.86,657.47,217.78,692.68,203.86,701.62z"
				/>
		</g>
	</g>
	<g>
		<g>
			<path class="st2" d="M250.64,717.66l-0.29-1.26c-4.2-18.04-14.85-16.84-29.6-15.19c-6.54,0.73-13.95,1.56-21.66,0.67
				c-18.22-2.1-22.79-13.05-28.08-25.72c-2.71-6.48-5.5-13.18-10.4-19.44c-8-10.25-31.32-12.84-49.18-10.06
				c-1.82,0.28-2.4-0.28-2.57-0.8c-0.27-0.83,0.49-1.8,2.04-2.6l87.24-66.23l246.75-104.26L250.64,717.66z M231.87,699.1
				c9.07,0,16.02,2.89,19.39,15.78l189.63-239.07L198.76,578.09l-87.24,66.25c-1.03,0.53-1.37,0.98-1.44,1.14
				c0.04-0.01,0.16,0.01,0.4,0.01c0.18,0,0.44-0.01,0.77-0.07c18.22-2.83,42.05-0.1,50.35,10.53c5,6.4,7.83,13.18,10.56,19.73
				c5.14,12.32,9.58,22.95,27.07,24.97c7.57,0.87,14.91,0.05,21.38-0.68C224.62,699.53,228.4,699.1,231.87,699.1z"/>
		</g>
	</g>
	<g>
		<g>
			<path class="st2" d="M247.96,729.58l-2.79-11.98c-2.99-12.82-8.1-12.88-23.83-11.11c-6.82,0.76-14.55,1.63-22.86,0.67
				c-21.31-2.46-26.94-15.93-32.38-28.95c-2.57-6.16-5.23-12.52-9.68-18.22c-6.43-8.23-27.93-10.6-44.18-8.08
				c-4.92,0.77-7.63-1.9-8.44-4.41c-0.85-2.63-0.16-6.24,4.2-8.71l87.52-66.44l0.69-0.29l265.76-112.27L247.96,729.58z
				 M231.62,693.83c8.25,0,16.05,2.03,21.13,10.62l171.05-215.65L201.52,582.7l-74.22,56.35c15.52,0.27,31.13,4.22,38.49,13.63
				c5.44,6.96,8.54,14.4,11.28,20.96c5.05,12.09,8.38,20.08,22.78,21.73c6.97,0.8,13.68,0.05,20.18-0.68
				C223.83,694.27,227.78,693.83,231.62,693.83z M111.23,643.79h0.02H111.23z"/>
		</g>
	</g>
	<g>
		<g>
			<linearGradient id="SVGID_1_" gradientUnits="userSpaceOnUse" x1="351.8122" y1="608.6297" x2="218.2992" y2="475.1167">
				<stop  offset="0" style="stop-color:#E1641E"/>
				<stop  offset="1.065558e-08" style="stop-color:#E76518"/>
				<stop  offset="0.1768" style="stop-color:#E04C2D"/>
				<stop  offset="0.3045" style="stop-color:#DC3F38"/>
				<stop  offset="0.5674" style="stop-color:#934E5A"/>
				<stop  offset="0.8525" style="stop-color:#475E7E"/>
			</linearGradient>
			<path class="st4" d="M522.59,437.85L118.6,584.95c-33.93,12.35-54.57,46.76-49.51,82.51v0c0,0,58.49-34.47,101.98-59.83
				C255.99,558.08,522.59,437.85,522.59,437.85z"/>
		</g>
	</g>
	<g class="st5">
		<g>
			<path class="st6" d="M69.08,667.46c0,0,2.36-1.39,6.49-3.81c0.68-31.05,20.3-59.15,50.25-70.08L404.4,492.13
				c64.48-30.04,116.16-53.35,118.13-54.26L118.6,584.94C84.68,597.3,64.02,631.7,69.08,667.46z"/>
		</g>
	</g>
	<g>
		<g>
			<path class="st2" d="M64.45,677.08l-1.24-8.79c-5.42-38.29,17.02-75.69,53.36-88.92l403.99-147.09l4.47,10.99
				c-2.66,1.2-267.29,120.67-350.97,169.49c-42.97,25.07-101.37,59.47-101.96,59.82L64.45,677.08z M388.85,492.86l-268.22,97.66
				C92.42,600.79,74,628.07,74.28,657.51c17.66-10.4,60.38-35.52,93.8-55.01C212.78,576.42,308.49,530.44,388.85,492.86z"/>
		</g>
	</g>
	<g>
		<g>
			<path class="st6" d="M358.66,898.9c24.89,17.59,78.92,15.42,70.42-57.05c0,0,52.09-6.07,94.68-26.52
				c21.16-10.17,39.98-23.88,48.9-42.16L459.41,603.76c0,0-28.66,67.51-52.92,102.74c-13.88,20.14-34.19,38.44-51.73,50.31
				c-4.78,3.24-9.35,6-13.53,8.18C311.56,780.49,324.88,875.04,358.66,898.9z"/>
		</g>
	</g>
	<g class="st3">
		<g>
			<path class="st2" d="M345.91,885.38c3.81,5.59,8.09,10.23,12.75,13.52c24.89,17.59,78.92,15.42,70.42-57.05
				c0,0,52.07-6.07,94.67-26.52h0.01c4.23-2.03,8.37-4.2,12.35-6.53c0.74-0.43,1.48-0.88,2.23-1.34c5.73-3.46,11.1-7.26,15.94-11.41
				c0.39-0.34,0.77-0.67,1.16-1.01c1.68-1.48,3.29-3.01,4.82-4.6c0.46-0.47,0.92-0.95,1.37-1.44c0.91-0.98,1.78-1.96,2.61-2.97
				c0.37-0.45,0.74-0.91,1.11-1.37c0.85-1.07,1.66-2.15,2.43-3.26c0.36-0.5,0.7-1.01,1.02-1.51c0.39-0.56,0.74-1.13,1.1-1.71
				c0.33-0.53,0.65-1.08,0.96-1.65c0.24-0.4,0.46-0.8,0.68-1.22c0.16-0.28,0.31-0.58,0.46-0.88c0.24-0.43,0.45-0.85,0.65-1.28
				L459.41,603.76c0,0,0,0.01-0.01,0.04c-0.01,0.01-0.01,0.03-0.01,0.04c-0.03,0.06-0.06,0.13-0.12,0.25
				c-0.28,0.67-0.98,2.3-2.03,4.7c-7.14,16.29-30.47,68.27-50.74,97.69c-13.88,20.14-34.19,38.44-51.73,50.31
				c19.39,22.43,45.39,40.28,75.36,50.79c10.82,3.79,8.63,19.68-2.81,20.46c-25.69,1.75-44.2-1.13-44.2-1.13
				C417.83,887.77,371.69,900.03,345.91,885.38z"/>
		</g>
	</g>
	<g>
		<g>
			<path class="st2" d="M388.28,913.95c-12.29,0-24.42-4.11-33.05-10.21c-24.55-17.34-38.49-67.11-36.11-102.72
				c1.41-21.14,8.1-35.42,19.35-41.29c18.17-9.5,45.67-31.26,63.13-56.6c23.66-34.34,52.06-101.02,52.34-101.69
				c1.28-3.02,4.77-4.43,7.78-3.15c3.02,1.28,4.43,4.76,3.15,7.78c-1.18,2.78-29.16,68.47-53.49,103.79
				c-18.61,27.01-47.99,50.24-67.41,60.39c-7.17,3.75-11.91,15.25-13,31.56c-2.12,31.73,10.14,77.41,31.11,92.23
				c11.07,7.82,30.35,11.68,44.27,3.4c14.23-8.46,20.05-27.45,16.83-54.9l-0.69-5.9l5.9-0.69c1.14-0.13,113.81-13.89,138.95-65.4
				c1.44-2.95,4.99-4.17,7.94-2.73c2.95,1.44,4.17,4.99,2.73,7.94c-24.76,50.74-117.95,67.6-142.46,71.21
				c2.85,36.9-10.8,53.35-23.12,60.68C404.98,912.07,396.6,913.95,388.28,913.95z"/>
		</g>
	</g>
	<g>
		<g>
			<path class="st2" d="M467.85,839c-0.28,0-0.56-0.03-0.84-0.08c-32.9-6.25-98.75-31.81-112.53-83.78
				c-0.63-2.38,0.79-4.81,3.16-5.44c2.37-0.63,4.81,0.79,5.44,3.16c11.73,44.23,69.57,70.47,105.58,77.31c2.42,0.46,4,2.79,3.54,5.2
				C471.82,837.51,469.95,839,467.85,839z"/>
		</g>
	</g>
	<g>
		<g>
			<path class="st2" d="M429.56,847.44c-3.11,0.27-5.78,0.2-8.63-0.07c-1.4-0.1-2.8-0.28-4.18-0.52c-1.39-0.19-2.77-0.46-4.14-0.78
				c-5.51-1.17-10.85-3.16-15.97-5.61c-5.09-2.54-9.89-5.75-14.1-9.57c-4.14-3.94-7.49-8.63-9.68-13.67
				c-0.19-0.44,0.01-0.94,0.45-1.13c0.32-0.14,0.68-0.07,0.92,0.15l0.04,0.04c3.94,3.59,7.98,6.58,12.41,8.88
				c4.46,2.25,9.08,3.96,13.82,5.32c4.78,1.28,9.66,2.11,14.53,2.94c2.44,0.4,4.9,0.75,7.35,1.1c2.4,0.35,5.01,0.68,7.19,1.04
				l0.46,0.08c3.24,0.55,5.43,3.61,4.88,6.85C434.44,845.23,432.19,847.21,429.56,847.44z"/>
		</g>
	</g>
	<g>
		<g>
			<path class="st6" d="M669.43,708.54c12.44,10.02,24.63,17.78,34.07,22.04c79.41,35.82,120.09-35.19,112.36-71.44
				c-10.45-48.94-59.41-28.42-59.41-28.42c-17.85-1.86-33.09-10.73-43.1-28.91c-12.26-22.23-16.68-58.37-8.47-112.61
				c1.35-8.92,3.04-18.34,5.09-28.27l-15.29,22.04L615.5,597.15C596.88,633.45,634.11,680.09,669.43,708.54z"/>
		</g>
	</g>
	<g class="st3">
		<g>
			<path class="st2" d="M610.53,618.09c0,0.68,0.01,1.37,0.04,2.06c0,0.1,0.01,0.21,0.01,0.3c0.03,0.61,0.06,1.23,0.12,1.86
				c0,0.1,0.01,0.19,0.01,0.3c0.06,0.65,0.12,1.31,0.21,1.96c0.06,0.56,0.15,1.14,0.24,1.71c0.03,0.3,0.07,0.59,0.13,0.88
				c0.34,2.05,0.79,4.08,1.32,6.13c0.19,0.73,0.4,1.45,0.62,2.18c0,0.01,0,0.01,0,0.03c0.19,0.64,0.4,1.29,0.61,1.94
				c0.04,0.13,0.09,0.27,0.13,0.42c0.22,0.67,0.46,1.34,0.71,2c0.25,0.74,0.53,1.47,0.83,2.2c0.13,0.36,0.28,0.71,0.43,1.05
				c0.3,0.76,0.62,1.5,0.95,2.24c0.04,0.1,0.09,0.21,0.13,0.3c0.19,0.46,0.42,0.92,0.62,1.38c0.36,0.79,0.74,1.57,1.13,2.36
				c0.22,0.47,0.46,0.95,0.71,1.41c0.79,1.54,1.63,3.09,2.51,4.63c0.36,0.62,0.73,1.25,1.1,1.87c2.46,4.14,5.21,8.24,8.19,12.24
				c0.36,0.49,0.73,0.96,1.1,1.45c0.36,0.49,0.73,0.96,1.11,1.45c0.74,0.95,1.5,1.91,2.27,2.86c0.74,0.91,1.48,1.81,2.24,2.72
				c2,2.39,4.1,4.75,6.23,7.06c0.42,0.45,0.83,0.91,1.26,1.35c4.75,5.06,9.74,9.88,14.8,14.4c0.64,0.56,1.29,1.13,1.93,1.71
				c0.15,0.12,0.28,0.24,0.42,0.36c0.91,0.79,1.81,1.56,2.72,2.32c1.35,1.14,2.7,2.26,4.05,3.34
				c12.44,10.02,24.63,17.78,34.07,22.04c64.99,29.31,104.03-12.91,111.84-49.09c-16.65,27.26-51.51,47.76-102.07,24.95
				c-0.09-0.04-0.17-0.08-0.26-0.12c-17.69-8.05-25.56-28.82-18.17-46.79c8.03-19.53,14.03-39.2,18.52-57.71
				c-12.26-22.23-16.68-58.37-8.47-112.61l-10.2-6.23l-74.23,107.04l-4.96,7.14C612.07,603.85,610.53,610.88,610.53,618.09z"/>
		</g>
	</g>
	<g>
		<g>
			<path class="st2" d="M744.99,746.28c-13.88,0-28.69-3.42-43.93-10.29c-28.65-12.93-78.01-54.25-92.32-95.15
				c-6.01-17.17-5.51-32.78,1.48-46.39c1.5-2.92,5.07-4.07,7.99-2.57c2.92,1.5,4.07,5.07,2.57,7.99
				c-5.44,10.6-5.72,23.07-0.83,37.05c12.72,36.38,58.66,75.92,85.99,88.25c38.78,17.5,64.27,7.19,78.82-4.54
				c20.37-16.42,28.85-43.53,25.29-60.25c-2.58-12.1-7.93-20.36-15.91-24.55c-15.02-7.9-35.2,0.3-35.4,0.38l-1.39,0.58l-1.51-0.15
				c-18.01-1.88-32.4-10.04-42.79-24.24c-20.94-28.64-23.93-80.01-8.89-152.67c0.66-3.21,3.81-5.28,7.02-4.61
				c3.21,0.66,5.27,3.81,4.61,7.02c-14.13,68.26-11.76,117.8,6.85,143.25c8.06,11.02,19.17,17.5,33.06,19.28
				c5.78-2.1,26.5-8.49,43.9,0.61c11.28,5.9,18.71,16.87,22.06,32.62c4.25,19.95-4.62,51.95-29.45,71.97
				C778.67,740.79,762.58,746.28,744.99,746.28z"/>
		</g>
	</g>
	<g>
		<g>
			<path class="st6" d="M409.92,786.4c42.32,19.41,94.49,23.69,147.84,3.74C653.18,754.46,690.02,654.12,704.22,582
				c8.93-45.32,8.93-79.5,8.93-79.5L500.62,372.59c-11.38,38.57-26.96,65.15-44.43,85.57c-33.46,39.19-73.77,55.78-104.33,91.16
				c-10.67,12.36-20.15,27.01-27.72,45.72c-0.28,0.68-0.56,1.38-0.83,2.08c-2.4,6.14-4.33,12.3-5.82,18.45
				C300.29,686.49,342.69,755.54,409.92,786.4z"/>
		</g>
	</g>
	<g class="st3">
		<g>
			<path class="st2" d="M557.76,790.14c68.59-25.64,106.91-84.69,128.31-142.66c-22.56,51.02-59.52,99.74-120.1,122.39
				c-142.29,53.2-276.21-65.89-237.27-185.13c-1.9,3.93-3.7,8.06-5.39,12.39C275.66,718.92,412.34,844.51,557.76,790.14z"/>
		</g>
	</g>
	<g>
		<g>
			<path class="st2" d="M487.17,809.09c-14.51,0-28.91-1.6-42.99-4.82c-34.9-7.99-66.27-25.33-90.71-50.14
				c-43.9-44.57-57.24-104.07-35.68-159.17c18.66-47.68,48.44-69.85,79.97-93.33c36.93-27.5,75.11-55.93,97.16-130.71l2.19-7.42
				l221.98,135.67v3.33c0,2.38-0.22,59-19.68,123.74c-25.97,86.43-74.24,145.03-139.58,169.46
				C536.03,804.6,511.45,809.09,487.17,809.09z M504.04,381.64c-23.44,73.09-61.93,101.76-99.19,129.5
				c-30.13,22.43-58.59,43.63-76.01,88.14c-19.8,50.6-7.43,105.37,33.08,146.51c38.71,39.3,109.93,70.13,193.74,38.79
				c77.9-29.13,114.93-103.89,132.28-161.48c16.4-54.44,18.84-104.28,19.2-117.31L504.04,381.64z"/>
		</g>
	</g>
	<g class="st3">
		<g>
			<path class="st2" d="M456.19,458.16C499.44,548.67,604.73,603.67,704.22,582c8.93-45.32,8.93-79.5,8.93-79.5L500.62,372.59
				C489.24,411.16,473.66,437.74,456.19,458.16z"/>
		</g>
	</g>
	<g class="st3">
		<g>
			<path class="st2" d="M498.45,459.71c31.33-2.27,53.44-40.94,47.11-84.09c-18.91,45.67-67.87-28.27-71.6-49.65
				C393.8,347.73,441,465.11,498.45,459.71z"/>
		</g>
	</g>
	<g class="st5">
		<g>
			<path class="st6" d="M565.51,335.59c12.59,42.01,60.56,28.45,55.8-9.7C612.59,278.11,555.79,293.18,565.51,335.59z"/>
		</g>
	</g>
	<g>
		<g>
			<g>
				<path class="st6" d="M899.75,445.68c-169.27,266.37-547.5,44.55-413.04-228.03C653.52-59.13,1044.27,170.53,899.75,445.68z"/>
			</g>
		</g>
		<g>
			<g>
				<path class="st6" d="M899.75,445.68c-169.27,266.37-547.5,44.55-413.04-228.03C653.52-59.13,1044.27,170.53,899.75,445.68z"/>
			</g>
		</g>
		<g>
			<g>
				<path class="st6" d="M899.75,445.68c-169.27,266.37-547.5,44.55-413.04-228.03C653.52-59.13,1044.27,170.53,899.75,445.68z"/>
			</g>
		</g>
		<g>
			<g>
				<path class="st2" d="M697.85,570.29c-40.9,0-82.13-10.88-119.69-31.99c-52.69-29.63-92.29-75.97-111.5-130.49
					c-21.48-60.96-15.95-127.41,16-192.17l0.18-0.33c39.19-65.02,93.65-107.13,157.51-121.77c56.63-12.99,117.3-3.53,170.83,26.63
					c53.65,30.22,93.62,77.4,112.55,132.85c21.22,62.14,14.31,129.49-19.97,194.76l-0.19,0.32
					c-39.81,62.65-94.14,103.09-157.1,116.94C730.49,568.55,714.2,570.29,697.85,570.29z M490.68,219.82
					c-68.61,139.32-0.48,258.66,91.91,310.6c94.56,53.17,228.07,46.88,313.25-87.01c73.77-140.64,5.54-262.05-89.1-315.36
					C713.02,75.26,574.17,81.46,490.68,219.82z M899.75,445.68h0.02H899.75z"/>
			</g>
		</g>
		<g class="st3">
			<g>
				<path class="st7" d="M899.75,445.67c-142.2,232.62-481.15,97.06-436.77-161.19c13.18,84.43,42.1,88.64,85.15,132.69
					c131.85,144.27,348.22,47.34,380.12-121.58C935.83,348.17,925.17,400.9,899.75,445.67z"/>
			</g>
		</g>
		<g>
			<g>
				<path class="st2" d="M697.85,572.11c-41.21,0-82.75-10.96-120.58-32.23c-53.08-29.84-92.97-76.53-112.33-131.47
					c-21.64-61.43-16.08-128.37,16.08-193.57l0.26-0.47c39.45-65.45,94.31-107.85,158.66-122.6c57.07-13.08,118.2-3.56,172.13,26.82
					c54.04,30.44,94.3,77.97,113.38,133.85c21.38,62.63,14.44,130.47-20.08,196.2l-0.26,0.45
					c-40.08,63.07-94.8,103.78-158.25,117.74C730.75,570.36,714.33,572.11,697.85,572.11z M492.28,220.69
					c-68.05,138.23-0.45,256.61,91.2,308.14c93.8,52.74,226.24,46.48,310.77-86.33c73.14-139.54,5.47-259.98-88.41-312.86
					C712.88,77.27,575.14,83.45,492.28,220.69z M899.75,445.68h0.02H899.75z"/>
			</g>
		</g>
		<g>
			<g>
				<path class="st2" d="M863.42,494C628.74,641.33,418.55,368.54,595.05,202.09C804.06,27.65,1051.15,283.73,863.42,494z"/>
			</g>
		</g>
		<g>
			<g>
				<path class="st8" d="M922.67,328.2c7.94,250.32-349.51,281.04-394.33,53.38C646.76,513.17,858.91,451.19,922.67,328.2z"/>
			</g>
		</g>
		<g>
			<g>
				<path class="st2" d="M718.31,564.41c-30.18,0-60.73-6.78-89.43-20.14c-47.87-22.29-86.43-60.42-108.58-107.38
					c-24.43-51.8-26.9-109.59-7.13-167.14c22.04-59.16,70.64-108,133.4-134.14c62.98-26.23,132.28-26.26,190.15-0.09l0.79,0.44
					c48.72,32.95,81.97,84.91,93.62,146.32c11.01,58.01,1.24,118.54-26.8,166.09l-0.02,0.03c-33.3,55.5-78.67,92.93-131.2,108.25
					C755.33,561.84,736.89,564.41,718.31,564.41z M743.67,126.52c-31.08,0-62.8,6.3-93.03,18.89
					c-60.05,25.01-106.52,71.64-127.5,127.93c-40.82,118.82,24.53,221.44,110.21,261.33c74.57,34.71,187.88,31.53,261.84-91.69
					c51.89-87.99,38.82-228.61-63.26-297.97C804.53,132.68,774.41,126.52,743.67,126.52z M899.75,445.68h0.02H899.75z"/>
			</g>
		</g>
		<g>
			<g>
				<path class="st2" d="M728.07,542.54c-12.2,0-24.3-1.03-36.26-3.11c-50.67-8.81-95.9-36.05-127.36-76.72
					c-29.05-37.56-43.63-83.33-41.07-128.9c2.84-50.33,26.11-97.47,67.31-136.33l0.29-0.26c49.48-41.29,104.62-61.73,159.47-59.08
					c49.32,2.38,95.58,23.44,130.27,59.31c35.5,36.71,55.27,85.08,55.68,136.22c0.45,57.13-23.15,114.03-68.26,164.56l-0.6,0.67
					l-0.76,0.48C821.35,527.9,774.02,542.54,728.07,542.54z M599.26,206.83c-86.49,81.7-74.78,183.47-24.78,248.11
					c55.08,71.21,164.43,109.29,284.81,34.16c94-105.88,72.35-220.78,12.33-282.84C811.25,143.84,703.63,119.84,599.26,206.83z
					 M863.42,494h0.02H863.42z"/>
			</g>
		</g>
		<g>
			<g>
				<path class="st6" d="M428.62,384.87c18.11,109.8,129.68,100.9,122.96-5.67C536.82,263.42,417.56,272.92,428.62,384.87z"/>
			</g>
		</g>
		<g>
			<g>
				<path class="st2" d="M496.55,469.6c-30.14,0-64.55-25.24-74.19-83.7l-0.05-0.41c-5.96-60.29,24.33-91.48,55-94.94
					c17.9-2.03,36.38,5.05,50.72,19.4c15.84,15.85,26.15,39.52,29.84,68.45l0.04,0.4c3.64,57.73-25.18,87.03-55.36,90.46
					C500.57,469.48,498.57,469.6,496.55,469.6z M434.91,384.04c8.98,54.04,40.61,75.54,66.2,72.62
					c24.18-2.75,47.19-27.58,44.15-76.86c-7.01-54.47-38.76-79.79-66.53-76.65C454.09,305.94,429.89,332.44,434.91,384.04z"/>
			</g>
		</g>
		<g>
			<g>
				<path class="st6" d="M424.4,391.08c14.77,88.96,98.46,83.71,93.04-2.49C505.79,293.66,414.84,299.48,424.4,391.08z"/>
			</g>
		</g>
		<g>
			<g>
				<path class="st2" d="M477.11,461.89c-23.6,0-50.88-21.08-58.96-69.77l-0.05-0.38c-5.19-49.72,18.07-75.27,41.87-77.97
					c26.79-3.03,57.31,21.42,63.77,74.05l0.03,0.37c2.96,47.07-19.09,70.8-42.25,73.45C480.07,461.8,478.59,461.89,477.11,461.89z
					 M430.69,390.23c7.27,43.44,30.67,60.95,49.39,58.81c17.17-1.96,33.42-21.23,31.04-59.86c-5.5-44.32-29.17-65.16-49.73-62.81
					C443.64,328.38,426.47,349.23,430.69,390.23z"/>
			</g>
		</g>
		<g class="st9">
			<g>
				<path class="st6" d="M600.75,401.2c6.13,16.87,28.67,10.96,23.7-7.98C618.32,376.36,595.78,382.26,600.75,401.2z"/>
			</g>
		</g>
		<g class="st9">
			<g>
				<path class="st6" d="M888.31,344.66c26.36-164.25-143.84-184.11-195.09-148.87C802.26,202.36,851.08,269.25,888.31,344.66z"/>
			</g>
		</g>
		<g class="st3">
			<g>
				<path class="st2" d="M522.12,408.75c1.5-12.6-0.45-25.65-4.99-37.56c-15.36,60.42-76.23,34.36-90.68-8.75
					C413.86,451.71,504.85,492.55,522.12,408.75z"/>
			</g>
		</g>
	</g>
	<g>
		<g>
			<path class="st2" d="M759.35,635.91c-0.37,0.24-1.2,0.82-1.83,1.31c-0.67,0.54-1.34,1.07-2,1.66c-0.67,0.56-1.31,1.17-1.94,1.79
				c-0.65,0.6-1.25,1.26-1.86,1.91c-2.41,2.62-4.63,5.47-6.46,8.58c-1.02,1.49-1.73,3.17-2.6,4.76c-0.77,1.64-1.47,3.33-2.16,5.02
				c-0.53,1.75-1.22,3.46-1.66,5.25c-0.4,1.8-0.97,3.57-1.26,5.42c-0.26,1.85-0.63,3.69-0.83,5.56c-0.12,1.88-0.26,3.77-0.43,5.66
				c-0.12,3.55,0.22,7.05,1.25,10.4c2.1,6.66,6.28,12.78,12.12,18.48l0.05,0.05c0.2,0.2,0.2,0.52,0.01,0.72
				c-0.12,0.12-0.29,0.17-0.45,0.14c-8.52-1.51-15.95-8.08-19.45-16.49c-1.79-4.19-2.71-8.73-3-13.21c-0.05-2.12-0.08-4.26-0.08-6.4
				c0.05-2.14,0.3-4.28,0.44-6.43c0.91-8.57,3.41-17.19,7.83-24.9c2.1-3.91,4.8-7.49,7.79-10.81c0.75-0.83,1.51-1.65,2.35-2.41
				c0.81-0.78,1.63-1.55,2.51-2.27c0.84-0.75,1.77-1.43,2.7-2.12c1-0.7,1.81-1.27,3.17-2.06c2.84-1.63,6.46-0.65,8.09,2.19
				c1.57,2.73,0.72,6.19-1.88,7.9L759.35,635.91z"/>
		</g>
	</g>
	<g>
		<g>
			<path class="st6" d="M771.98,626.88c0,0-29.01,7.1-39.84,34.83c0,0-11.25-0.76-13.39-13.52c-2.49-14.88,9.45-36.49,30.68-38.01
				C765.54,609.03,771.98,626.88,771.98,626.88z"/>
		</g>
	</g>
	<g class="st3">
		<g>
			<path class="st2" d="M718.75,648.19c2.14,12.76,13.39,13.52,13.39,13.52c10.83-27.74,39.85-34.83,39.85-34.83
				s-1.41-3.9-4.56-7.94c-8.51,1.86-22.77,6.7-33.52,19.22c-4.1,4.77-11.86,3.77-14.24-2.04c-0.03-0.07-0.06-0.14-0.08-0.21
				C718.42,640.13,718.11,644.37,718.75,648.19z"/>
		</g>
	</g>
	<g>
		<g>
			<path class="st2" d="M735.98,667.78l-4.24-0.29c-5.47-0.37-16.42-4.68-18.7-18.34c-1.61-9.64,1.69-21.11,8.63-29.92
				c6.92-8.79,16.63-14.06,27.35-14.82c20.25-1.42,28.09,19.61,28.41,20.5l2.19,6.06l-6.25,1.53c-0.48,0.12-26.32,6.95-35.84,31.32
				L735.98,667.78z M750.86,615.92c-0.33,0-0.67,0.01-1.02,0.04c-7.42,0.53-14.2,4.24-19.07,10.43c-4.91,6.24-7.38,14.42-6.31,20.84
				c0.69,4.1,2.65,6.27,4.47,7.42c9.17-18.4,25.49-27.3,34.76-31.06C761.21,620.01,757.03,615.92,750.86,615.92z"/>
		</g>
	</g>
	<g>
		<g>
			<path class="st6" d="M399.41,522.36l109.58,31.97c38.27-47.46,84.52-156.05,84.52-156.05s12.81-0.46,27.26-6.99
				c10.8-4.88,22.53-13.16,30.51-27.17c2.55-4.44,4.72-9.47,6.35-15.15c16.04-55.7-49.23-97.12-104.54-80.81
				C466.15,293.82,474.95,419.71,399.41,522.36z"/>
		</g>
	</g>
	<g class="st3">
		<g>
			<path class="st2" d="M563.12,381.51c16.01,7.38,38.97,9.48,57.65,9.78c10.8-4.88,22.53-13.16,30.51-27.17
				c-30.6,1.51-108.14,1.13-117.82-40.5C533.46,323.61,514.44,359.08,563.12,381.51z"/>
		</g>
	</g>
	<g>
		<g>
			<path class="st2" d="M397.82,521.19c2.27-5.41,5.05-10.38,7.55-15.51c2.63-5.05,5.17-10.12,7.86-15.08
				c5.26-10.01,10.28-20.13,15.18-30.34c4.82-10.25,9.55-20.59,13.79-31.17c4.33-10.54,8.24-21.29,12.18-32.06
				c7.9-21.53,15.42-43.41,25.44-64.64c5.04-10.59,10.76-21.02,17.8-30.74c6.99-9.73,15.57-18.64,25.64-25.64l3.81-2.57
				c1.25-0.89,2.65-1.53,3.97-2.31l4.02-2.23c1.38-0.65,2.79-1.25,4.19-1.88c1.4-0.61,2.79-1.27,4.21-1.82l4.33-1.49
				c1.45-0.47,2.87-1.03,4.35-1.43l4.46-1.16c11.97-2.72,24.4-3.2,36.46-1.34c12.08,1.75,23.8,5.8,34.48,11.84
				c10.66,6.04,20.23,14.37,27.3,24.76c3.52,5.19,6.37,10.91,8.3,16.96c1.93,6.05,2.86,12.44,2.83,18.77
				c-0.02,6.34-1.01,12.62-2.7,18.64c-1.72,5.94-4.14,11.76-7.34,17.17c-6.37,10.85-15.9,19.82-26.78,25.78
				c-5.44,3.01-11.18,5.36-17.06,7.12c-2.95,0.87-5.93,1.6-8.95,2.18c-1.51,0.29-3.03,0.54-4.58,0.74
				c-1.59,0.21-2.99,0.37-4.86,0.47l5.25-3.61c-5.93,13.75-12.11,27.23-18.47,40.7c-6.37,13.46-12.94,26.82-19.83,40.04
				c-3.38,6.64-7,13.17-10.52,19.75c-3.63,6.53-7.03,13.19-10.83,19.66c-0.92,1.63-1.89,3.24-2.85,4.84
				c-0.99,1.6-2.06,3.15-3.09,4.72c-1.03,1.58-2.12,3.1-3.2,4.65l-1.62,2.31l-1.75,2.23c-2.38,2.95-4.8,5.85-7.48,8.56
				c-2.79,2.65-5.62,5.23-8.77,7.5c-0.92,0.66-2.2,0.45-2.86-0.47c-0.43-0.6-0.49-1.35-0.23-1.98l0.01-0.04
				c5.82-14.02,13.35-26.26,20.94-38.84c1.87-3.15,3.91-6.19,5.76-9.37c1.87-3.16,3.74-6.33,5.55-9.52
				c3.53-6.45,7.06-12.91,10.41-19.47c6.81-13.06,13.33-26.31,19.64-39.65c6.3-13.33,12.47-26.8,18.28-40.27l1.47-3.41l3.78-0.2
				c1-0.05,2.45-0.2,3.71-0.37c1.31-0.17,2.62-0.39,3.93-0.64c2.62-0.5,5.22-1.14,7.79-1.89c5.12-1.53,10.07-3.57,14.69-6.12
				c9.25-5.09,17.02-12.45,22.32-21.43c2.65-4.48,4.69-9.36,6.17-14.45c1.41-5.05,2.21-10.21,2.23-15.36
				c0.02-5.14-0.72-10.27-2.28-15.17c-1.57-4.9-3.89-9.57-6.81-13.89c-5.87-8.62-14.04-15.83-23.36-21.1
				c-9.32-5.27-19.68-8.87-30.35-10.41c-10.65-1.65-21.58-1.21-32.02,1.16l-3.88,1.01c-1.29,0.34-2.55,0.85-3.83,1.26l-3.83,1.3
				c-1.25,0.48-2.46,1.08-3.69,1.61l-3.68,1.64l-3.51,1.95c-1.15,0.68-2.39,1.23-3.48,2.01l-3.33,2.25
				c-8.81,6.12-16.44,13.98-22.84,22.89c-6.45,8.9-11.85,18.69-16.67,28.84c-9.62,20.35-17.1,42.02-25.01,63.62
				c-7.93,21.6-15.93,43.38-25.55,64.61c-4.93,10.56-10.51,20.84-16.7,30.76c-3.24,4.88-6.5,9.73-10.29,14.22
				c-3.6,4.6-7.7,8.86-12,12.87c-0.81,0.76-2.08,0.72-2.84-0.1c-0.56-0.6-0.68-1.44-0.39-2.15L397.82,521.19z"/>
		</g>
	</g>
	<g>
		<g>
			<path class="st2" d="M534.32,310.25c2.35,3.82,3.57,6.99,4.71,10.31c1.29,3.27,2.47,6.65,4.12,10c1.68,3.33,3.93,6.43,6.43,9.37
				c0.31,0.38,0.62,0.77,0.83,0.96c0.22,0.25,0.48,0.5,0.78,0.76c0.27,0.26,0.57,0.51,0.9,0.76c0.31,0.26,0.64,0.51,1,0.75
				c1.39,0.99,2.96,1.92,4.62,2.77c6.71,3.4,14.41,5.76,22.16,7.44c7.78,1.67,15.76,2.65,23.68,2.83
				c7.91,0.18,15.84-0.41,23.22-2.26c7.35-1.82,14.19-5.07,18.62-10.05c2.24-2.46,3.79-5.37,4.77-8.55
				c0.92-3.21,1.22-6.72,1.01-10.34c-0.11-1.81-0.35-3.64-0.69-5.48c-0.35-1.85-1.04-3.63-1.69-5.42c-0.67-1.79-1.06-3.67-1.27-5.68
				c-0.09-2.05,0.02-4.22,1.28-7l0.05-0.11c0.62-1.36,2.19-2,3.57-1.48c2.85,1.07,4.64,2.72,5.93,4.61
				c1.29,1.88,2.13,3.99,2.63,6.19c0.51,2.21,0.76,4.49,1.19,6.73c0.39,2.27,0.71,4.56,0.85,6.92c0.28,4.69-0.08,9.61-1.47,14.42
				c-1.43,4.79-3.92,9.39-7.3,13.1c-3.33,3.77-7.4,6.63-11.58,8.83c-4.21,2.17-8.59,3.73-12.99,4.82c-8.81,2.2-17.67,2.81-26.4,2.62
				c-8.74-0.21-17.38-1.27-25.9-3.1c-8.52-1.86-16.91-4.36-25.1-8.49c-2.05-1.05-4.08-2.24-6.08-3.66c-0.5-0.35-1-0.72-1.5-1.13
				c-0.5-0.39-0.99-0.8-1.48-1.26c-0.94-0.8-2.07-2.06-2.67-2.82c-2.92-3.4-5.5-7.13-8.04-10.97c-2.49-3.88-4.61-8.23-5.44-13.03
				c-0.81-4.74-0.61-10.07,3.45-14.45c0.79-0.85,2.13-0.9,2.98-0.11c0.14,0.13,0.26,0.28,0.36,0.43L534.32,310.25z"/>
		</g>
	</g>
	<g>
		<g>
			<path class="st6" d="M659.96,336c0,0-45.55-3.75-52.86,10.11c-8.84,16.77,6.02,25.4,20.55,28.42c14.07,2.92,24.38,4.54,31.47-6.4
				C668.8,353.21,659.96,336,659.96,336z"/>
		</g>
	</g>
	<g class="st3">
		<g>
			<path class="st2" d="M627.64,374.53c14.07,2.92,24.38,4.53,31.48-6.4c5.4-8.33,5.03-17.36,3.65-23.73
				c-0.68,2.82-1.84,5.68-3.65,8.46c-7.09,10.92-17.41,9.32-31.48,6.4c-8.62-1.8-17.36-5.57-21.19-11.84
				C599.04,363.33,613.5,371.58,627.64,374.53z"/>
		</g>
	</g>
	<g>
		<g>
			<path class="st2" d="M642.88,382.48c-5.45,0-11.08-1.17-16.42-2.28c-7.56-1.57-20.99-5.79-25.98-16.39
				c-1.99-4.23-3.35-11.21,1.5-20.4c8.65-16.41,50.21-13.86,58.46-13.18l3.21,0.26l1.47,2.86c0.42,0.82,10.24,20.4-1.14,37.93
				C658.31,380.01,650.8,382.48,642.88,382.48z M646.94,341.27c-16.45,0-32.09,2.56-34.72,7.54c-2.13,4.04-2.55,7.34-1.26,10.06
				c2.05,4.36,8.73,8.09,17.86,9.99c15.4,3.2,20.92,3.09,25.44-3.88c5.61-8.64,3.36-18.63,1.7-23.46
				C652.98,341.35,649.94,341.27,646.94,341.27z"/>
		</g>
	</g>
	<g>
		<g>
			<path class="st6" d="M329.36,598.25c0,0-40.61,61.26-70.97,91.57c-22.09,22.04-53.87,39.31-74.98,45.87
				c-32.04,9.95-36.33,105.28-7.5,134.75c21.26,21.73,74.81,29.23,79.78-43.52c0,0,124.41,1.2,160.99-48.15l0,0
				c9.23-10.24,10.53-25.37,3.17-37.03L329.36,598.25z"/>
		</g>
	</g>
	<g class="st3">
		<g>
			<path class="st2" d="M161.11,841.1c3.18,12.08,8.09,22.5,14.8,29.35c21.25,21.73,74.81,29.22,79.78-43.53
				c0,0,124.41,1.2,160.99-48.16c5.24-5.8,7.91-13.19,7.91-20.61c0-0.06,0-0.11,0-0.17c-0.05-8.73-10.64-13.13-17.08-7.23
				c-0.87,0.79-1.68,1.6-2.42,2.42c-69.73,77.84-193.11,40.8-193.11,40.8c41.56,71.46-33.28,81.76-47.64,50.89
				C163.64,843.39,162.11,842.45,161.11,841.1z"/>
		</g>
	</g>
	<g>
		<g>
			<path class="st2" d="M211.58,891.38c-15.49,0-30.69-7.35-39.92-16.79c-20.81-21.28-25.46-72.49-16.75-106.98
				c5.26-20.79,14.5-33.79,26.73-37.59c19.62-6.1,50.7-22.59,72.55-44.4c29.42-29.37,63.49-90.06,63.83-90.67
				c1.6-2.86,5.21-3.88,8.08-2.29c2.86,1.6,3.88,5.22,2.29,8.08c-1.42,2.55-35.21,62.74-65.81,93.28
				c-23.27,23.23-56.44,40.82-77.41,47.34c-7.84,2.44-14.67,13.07-18.74,29.16c-7.77,30.72-4.04,77.61,13.72,95.77
				c9.66,9.88,27.48,16.92,42.85,11.25c15.63-5.76,24.88-23.4,26.76-51.02l0.38-5.58l5.6,0.05c1.22,0.03,121.81,0.6,156.16-45.75
				l0.48-0.57c0.03-0.03,4.64-5,5.75-11.49c0.55-3.23,3.63-5.39,6.86-4.84c3.23,0.56,5.4,3.62,4.84,6.86
				c-1.58,9.17-7.14,15.78-8.6,17.39c-34.06,45.44-135.06,49.86-160.11,50.25c-3.93,37.08-20.49,50.86-34.03,55.85
				C222.04,890.55,216.79,891.38,211.58,891.38z"/>
		</g>
	</g>
	<g>
		<g>
			<path class="st2" d="M574.25,445.1c-0.13,0-0.27-0.01-0.4-0.02c-4.27-0.39-104.78-9.96-114.51-55.37
				c-0.51-2.4,1.02-4.77,3.42-5.29c2.41-0.51,4.77,1.02,5.29,3.42c6.94,32.4,79.3,45.9,106.6,48.37c2.45,0.22,4.25,2.39,4.03,4.83
				C578.47,443.36,576.53,445.1,574.25,445.1z"/>
		</g>
	</g>
	<g>
		<g>
			<path class="st2" d="M295.46,829.3c-0.22,0-0.45-0.02-0.68-0.05c-0.79-0.12-19.6-3.13-38.3-18.71
				c-17.14-14.27-37.41-42.22-36.6-94.35c0.04-2.46,2-4.46,4.52-4.38c2.46,0.04,4.42,2.06,4.38,4.52
				c-0.6,38.82,10.52,68.12,33.05,87.08c16.82,14.16,34.13,17.01,34.3,17.04c2.43,0.38,4.09,2.65,3.71,5.08
				C299.51,827.73,297.62,829.3,295.46,829.3z"/>
		</g>
	</g>
	<g>
		<g>
			<path class="st2" d="M255.82,831.89c-1.65,0.15-2.88,0.14-4.26,0.08c-1.35-0.07-2.67-0.21-3.99-0.43
				c-1.32-0.19-2.61-0.51-3.91-0.81c-1.28-0.38-2.56-0.73-3.81-1.19c-5.03-1.78-9.68-4.63-13.66-8.13c-3.96-3.5-7.38-7.6-9.72-12.19
				c-1.32-2.2-2.13-4.65-3.02-6.99c-0.5-1.15-0.67-2.42-0.98-3.63c-0.29-1.21-0.53-2.43-0.78-3.63c-0.08-0.39,0.17-0.76,0.56-0.84
				c0.29-0.06,0.57,0.07,0.73,0.29l0.05,0.08c1.39,2.01,2.53,4.08,3.91,5.97c1.49,1.82,2.71,3.77,4.38,5.34
				c2.97,3.43,6.53,6.13,10.2,8.39c3.68,2.28,7.69,3.87,11.77,5.12c1.03,0.28,2.06,0.56,3.09,0.87c1.05,0.2,2.08,0.5,3.13,0.71
				c1.05,0.19,2.09,0.43,3.13,0.59l2.92,0.48l0.65,0.11c2.7,0.44,4.53,2.99,4.08,5.69C259.89,830.04,258.01,831.69,255.82,831.89z"
				/>
		</g>
	</g>
	<g>
		<g>
			<path class="st6" d="M688.74,661.43l-7.97-11.36c-3.88-5.53-9.36-9.73-15.7-12.04l-106.05-38.62
				c-1.75-0.63-6.56,22.02-7.18,23.77l10.63,27.78L688.74,661.43z"/>
		</g>
	</g>
	<g>
		<g>
			<path class="st2" d="M685.73,665.31c-0.16,0-0.32-0.01-0.48-0.02l-125.7-10.42l-12.1-31.62l0.5-1.43
				c0.11-0.35,0.56-2.24,0.96-3.91c4.52-18.88,5.64-20.87,7.94-22.12c1.11-0.6,2.41-0.7,3.58-0.28l106.06,38.63
				c7.18,2.61,13.29,7.3,17.67,13.55l6.15,8.77c1.27,1.8,1.37,4.11,0.27,6.02C689.57,664.26,687.74,665.31,685.73,665.31z
				 M683.54,661.21C683.54,661.21,683.54,661.21,683.54,661.21L683.54,661.21z M565.42,647.05l114.87,9.53l-2.9-4.13
				c-3.41-4.86-8.16-8.5-13.73-10.53l-102.7-37.4c-1.34,4.15-3.2,11.94-4.01,15.32c-0.34,1.42-0.58,2.41-0.76,3.12L565.42,647.05z"
				/>
		</g>
	</g>
	<g>
		<g>
			<path class="st6" d="M482.53,734.38c17.14,12.57,44.33,32.28,44.95,31.28l23.67-42.18l52.43-93.43
				c0.34-0.61-28.23-21.41-44.55-30.65c-6.84-3.87-14.42,5.43-18.91,12.54l-33.15,52.28l-28.37,44.74
				C473.11,717.6,474.83,728.73,482.53,734.38z"/>
		</g>
	</g>
	<g class="st3">
		<g>
			<path class="st2" d="M482.53,734.38c17.14,12.57,44.33,32.28,44.95,31.28l23.67-42.18l13.24-54.3c0,0-26.8,18.08-47.9,3.65
				c-3.84-2.63-6.97-5.55-9.51-8.61l-28.37,44.74C473.11,717.6,474.83,728.73,482.53,734.38z"/>
		</g>
	</g>
	<g>
		<g>
			<path class="st2" d="M527.42,769.85c-2.34,0-7.66-3.04-47.33-32.14c-9.44-6.93-11.63-20.53-4.98-30.96l61.52-97.02
				c11.21-17.8,20.12-16.37,24.43-13.93c10.06,5.69,23.54,15.03,28.87,18.78c4.39,3.09,8.52,6.08,11.62,8.42
				c5.16,3.9,7.51,5.67,5.66,9.04L531,767.85l-0.96,1.53l-1.83,0.37C527.96,769.8,527.71,769.85,527.42,769.85z M527.49,765.66h0.02
				H527.49z M555.69,602.68c-2.98,0-7.51,4.25-12.07,11.48l-61.53,97.04c-4.32,6.78-3.05,15.5,2.89,19.85
				c25.99,19.06,36.56,26.33,40.86,29.09l72.5-129.18c-6.84-5.3-27.73-20.25-41.35-27.95C556.6,602.78,556.16,602.68,555.69,602.68z
				"/>
		</g>
	</g>
	<g>
		<g>
			<path class="st6" d="M528.75,765.89l86.22,12.88c13.62,0.03,23.4-1.9,31.24-14.45l3.99-6.4l39.99-64.07
				c2.7-4.32,4.42-8.9,5.21-13.34c1.84-10.52-5.13-17.56-14.96-23.73l-72.11-26.34c-11.53-4.21-24.44,0.01-31.25,10.23l-7.52,12.27
				l-53.1,86.61C509.93,750.19,516.4,764.05,528.75,765.89z"/>
		</g>
	</g>
	<g class="st3">
		<g>
			<path class="st2" d="M528.75,765.89l86.22,12.88c13.62,0.03,23.4-1.9,31.24-14.45l3.99-6.4c-19.11,2.33-48.97,1.01-69.73-23.42
				c-19.83-23.3-16.59-57.83-10.91-81.56l-53.1,86.61C509.93,750.19,516.4,764.05,528.75,765.89z"/>
		</g>
	</g>
	<g>
		<g>
			<path class="st2" d="M615.27,782.91c-0.1,0-0.21,0-0.31,0l-0.6-0.05l-86.23-12.88c-7.18-1.07-13.29-5.64-16.36-12.22
				c-3.07-6.58-2.63-14.2,1.16-20.38l60.63-98.88c7.98-11.97,22.82-16.83,36.19-11.95l72.52,26.49l0.37,0.23
				c9.11,5.73,19.26,14.08,16.83,27.95c-0.89,5.07-2.88,10.2-5.77,14.82l-43.98,70.46C640.33,781.56,627.57,782.91,615.27,782.91z
				 M599.18,632.95c-7.33,0-14.38,3.61-18.65,10.01l-60.54,98.75c-2.37,3.87-2.63,8.45-0.72,12.57c1.92,4.12,5.59,6.86,10.08,7.53
				l85.92,12.84c13.02-0.01,20.85-1.99,27.43-12.52l43.98-70.46c2.33-3.73,3.93-7.83,4.64-11.86c1.25-7.14-2.44-12.75-12.72-19.29
				l-71.69-26.19C604.37,633.39,601.75,632.95,599.18,632.95z"/>
		</g>
	</g>
	<g>
		<g>
			<path class="st10" d="M592.35,706.26c-1.26,2.43-14.21,20.61-14.21,20.61s-5.11-2.64-11.38-5.88
				c-7.83-4.05-9.08-17.21-2.78-29.39s17.76-18.77,25.59-14.72c5.29,2.73,11.38,5.88,11.38,5.88S594.4,702.3,592.35,706.26z"/>
		</g>
	</g>
	<g>
		<g>
			<path class="st10" d="M592.35,706.26c-1.26,2.43-14.21,20.61-14.21,20.61s-5.11-2.64-11.38-5.88
				c-7.83-4.05-9.08-17.21-2.78-29.39s17.76-18.77,25.59-14.72c5.29,2.73,11.38,5.88,11.38,5.88S594.4,702.3,592.35,706.26z"/>
		</g>
	</g>
	<g class="st3">
		<g>
			<path class="st2" d="M592.35,706.26c-1.26,2.43-14.21,20.61-14.21,20.61s-5.11-2.64-11.38-5.88c-7.83-4.05-9.08-17.21-2.78-29.39
				s17.76-18.77,25.59-14.72c5.29,2.73,11.38,5.88,11.38,5.88S594.4,702.3,592.35,706.26z"/>
		</g>
	</g>
	<g>
		<g>
			<path class="st2" d="M579.42,732.19l-14.56-7.53c-10.01-5.18-12.01-20.54-4.55-34.97c3.41-6.59,8.32-11.96,13.83-15.13
				c6.09-3.51,12.25-3.99,17.33-1.36l14.53,7.51l-1.13,3.36c-0.68,2.03-6.71,19.97-8.85,24.09v0c-1.29,2.5-11.44,16.79-14.52,21.11
				L579.42,732.19z M584.51,679.8c-2.44,0-4.8,1.09-6.24,1.92c-4.09,2.35-7.96,6.64-10.61,11.76c-5.15,9.96-4.69,20.87,1,23.82
				l8.19,4.23c5.61-7.91,11.16-15.9,11.83-17.18c1.21-2.34,4.64-12,7.22-19.57l-8.22-4.25C586.65,680.01,585.57,679.8,584.51,679.8z
				 M592.35,706.26h0.02H592.35z"/>
		</g>
	</g>
	<g>
		<g>
			
				<ellipse transform="matrix(0.4594 -0.8883 0.8883 0.4594 -306.9412 909.1864)" class="st10" cx="593.41" cy="706.74" rx="24.83" ry="15.97"/>
		</g>
		<g>
			<path class="st2" d="M587.09,734.14c-2.44,0-4.8-0.54-6.99-1.67c-10.01-5.18-12.01-20.54-4.55-34.97
				c3.41-6.59,8.32-11.96,13.83-15.13c6.09-3.51,12.25-3.99,17.33-1.36c10.01,5.18,12.01,20.54,4.55,34.97l0,0
				C605.43,727.25,595.8,734.14,587.09,734.14z M599.75,687.62c-2.44,0-4.8,1.09-6.24,1.92c-4.09,2.35-7.96,6.64-10.61,11.76
				c-5.15,9.96-4.69,20.87,1,23.82c5.7,2.95,14.87-2.98,20.02-12.95l0,0c5.15-9.96,4.69-20.87-1-23.82
				C601.89,687.83,600.81,687.62,599.75,687.62z M607.59,714.07h0.02H607.59z"/>
		</g>
	</g>
	<g class="st9">
		<g>
			<path class="st6" d="M602.91,688.36c-1.02-0.53-2.1-0.74-3.17-0.74c-2.44,0-4.8,1.09-6.24,1.92c-4.09,2.35-7.96,6.64-10.61,11.76
				c-0.37,0.72-0.71,1.45-1.02,2.18c2.61-4.61,6.19-8.45,9.98-10.63c1.44-0.83,3.8-1.92,6.24-1.92c1.06,0,2.14,0.21,3.17,0.74
				c5.29,2.73,6.06,12.32,2.03,21.64c0.21-0.38,0.43-0.75,0.63-1.13C609.07,702.21,608.61,691.3,602.91,688.36z"/>
		</g>
	</g>
	<g class="st3">
		<g>
			<path class="st2" d="M591.93,717.21c-7.83-4.05-9.08-17.21-2.78-29.39c0.11-0.21,0.22-0.4,0.33-0.6
				c-3.91,2.77-7.56,6.95-10.26,12.18c-6.3,12.18-5.06,25.34,2.78,29.39c7.7,3.98,18.9-2.33,25.26-14.12
				C602.05,718.36,596.4,719.53,591.93,717.21z"/>
		</g>
	</g>
	<g>
		<g>
			<g>
				<path class="st6" d="M371.3,529.33c0,0,45.82,73.69,133.3,108.31c13.65,5.4,21.31,20.26,16.67,34.01
					c-2.44,7.26-8.01,13.06-19.55,13.04c-48.18-0.08-162.49-90.32-163.56-125.95C337.15,525.46,371.3,529.33,371.3,529.33z"/>
			</g>
		</g>
		<g class="st3">
			<g>
				<path class="st2" d="M338.16,558.75c1.07,35.62,115.39,125.86,163.56,125.94c11.55,0.01,17.11-5.78,19.56-13.03
					c2.39-7.1,1.51-14.5-1.8-20.74c-0.01,0.08-0.04,0.15-0.07,0.24c-2.45,7.26-8.02,13.06-19.56,13.05
					c-43.95-0.07-142.95-75.2-160.79-115.42C338.38,551.67,338.04,554.97,338.16,558.75z"/>
			</g>
		</g>
		<g>
			<g>
				<path class="st2" d="M501.78,690.48c-0.02,0-0.04,0-0.06,0c-27.79-0.05-71.43-26.31-102.99-50.86
					c-31.64-24.62-65.69-58.74-66.35-80.7c-0.34-11.39,2.92-20.33,9.71-26.57c11.62-10.7,29.14-8.85,29.88-8.77l2.79,0.32l1.48,2.38
					c0.45,0.72,45.94,72.52,130.51,105.98c16.79,6.64,25.58,24.76,20.03,41.24C523.07,684.45,514.2,690.48,501.78,690.48z
					 M368.08,534.99c-4.21,0.01-12.61,0.73-18.2,5.92c-4.17,3.87-6.17,9.81-5.93,17.66c0.92,30.67,110.88,120.25,157.79,120.33
					c0.02,0,0.03,0,0.05,0c7.57,0,11.89-2.81,14-9.1c3.59-10.64-2.26-22.4-13.32-26.78C422.48,611.37,377.26,548.72,368.08,534.99z"
					/>
			</g>
		</g>
	</g>
	<g>
		<g>
			<path class="st2" d="M591.7,778.04c-0.72,0-1.46-0.18-2.13-0.57c-2.04-1.18-2.75-3.79-1.57-5.84l31.31-54.29
				c1.25-2.18,3.4-3.65,5.88-4.03l9.19-1.42l35.11-56.54c1.24-2.01,3.88-2.62,5.88-1.37c2,1.24,2.62,3.88,1.37,5.88l-35.19,56.66
				c-1.27,2.05-3.37,3.43-5.75,3.8l-9.18,1.42L595.4,775.9C594.61,777.28,593.17,778.04,591.7,778.04z"/>
		</g>
	</g>
</g>
</svg>
