<?xml version="1.0" encoding="utf-8"?>
<!-- Generator: Adobe Illustrator 25.0.0, SVG Export Plug-In . SVG Version: 6.00 Build 0)  -->
<svg version="1.1" id="Layer_1" xmlns="http://www.w3.org/2000/svg" xmlns:xlink="http://www.w3.org/1999/xlink" x="0px" y="0px"
	 viewBox="0 0 1000 1000" style="enable-background:new 0 0 1000 1000;" xml:space="preserve">
<style type="text/css">
	.st0{fill:#A0A3A8;}
	.st1{fill:url(#SVGID_1_);}
	.st2{opacity:0.25;}
	.st3{fill:#371A45;}
	.st4{opacity:0.6;}
	.st5{fill:#FFFFFF;}
	.st6{fill:url(#SVGID_2_);}
	.st7{opacity:0.7;}
	.st8{fill:#111A28;}
	.st9{fill:#10AFFF;}
	.st10{opacity:0.5;}
	.st11{fill:#7BA2FF;}
	.st12{fill:#787A75;}
	.st13{fill:#FFD243;}
	.st14{fill:#FFA92C;}
	.st15{fill:#000072;}
	.st16{fill:#FF8D06;}
</style>
<g>
	<g>
		<path class="st0" d="M234.66,859.02v8.17c0,10.61-8.61,19.22-19.22,19.22h-10.17c-2.09,0-4.11-0.33-6-0.95
			c-7.67-2.53-13.22-9.75-13.22-18.27v-8.17L234.66,859.02L234.66,859.02z"/>
	</g>
	<g>
		<path class="st0" d="M768.81,886.4L768.81,886.4c-13.42,0-24.3-10.88-24.3-24.3v-3.08h48.6v3.08
			C793.11,875.52,782.23,886.4,768.81,886.4z"/>
	</g>
	<g>
		
			<linearGradient id="SVGID_1_" gradientUnits="userSpaceOnUse" x1="91.6151" y1="387.9253" x2="873.4351" y2="387.9253" gradientTransform="matrix(1 0 0 -1 0 1000)">
			<stop  offset="0" style="stop-color:#E1641E"/>
			<stop  offset="1.065558e-08" style="stop-color:#E76518"/>
			<stop  offset="0.1768" style="stop-color:#E04C2D"/>
			<stop  offset="0.3045" style="stop-color:#DC3F38"/>
			<stop  offset="0.5674" style="stop-color:#934E5A"/>
			<stop  offset="0.8525" style="stop-color:#475E7E"/>
		</linearGradient>
		<path class="st1" d="M626.5,859.02H338.57c-136.39,0-246.95-110.56-246.95-246.95l0,0c0-136.39,110.56-246.95,246.95-246.95
			h287.92c136.39,0,246.95,110.56,246.95,246.95l0,0C873.45,748.45,762.88,859.02,626.5,859.02z"/>
	</g>
	<g class="st2">
		<path class="st3" d="M873.45,755.21v24.88c0,43.59-35.34,78.93-78.93,78.93H170.55c-43.6,0-78.93-35.34-78.93-78.93v-24.88
			c0,43.59,35.33,78.93,78.93,78.93h623.97C838.11,834.13,873.45,798.79,873.45,755.21z"/>
	</g>
	<g class="st4">
		<path class="st5" d="M653.11,478.49v307.6c0,20.41-16.53,36.94-36.94,36.94H177.78c-13.01,0-24.45-6.72-31.02-16.88
			c-3.75-5.77-5.92-12.66-5.92-20.06v-307.6c0-20.39,16.53-36.94,36.94-36.94h438.39c8.74,0,16.79,3.03,23.1,8.14h0.02
			C647.71,456.46,653.11,466.84,653.11,478.49z"/>
	</g>
	<g class="st4">
		
			<linearGradient id="SVGID_2_" gradientUnits="userSpaceOnUse" x1="91.6151" y1="585.3053" x2="873.4451" y2="585.3053" gradientTransform="matrix(1 0 0 -1 0 1000)">
			<stop  offset="0" style="stop-color:#E1641E"/>
			<stop  offset="1.065558e-08" style="stop-color:#E76518"/>
			<stop  offset="0.1768" style="stop-color:#E04C2D"/>
			<stop  offset="0.3045" style="stop-color:#DC3F38"/>
			<stop  offset="0.5674" style="stop-color:#934E5A"/>
			<stop  offset="0.8525" style="stop-color:#475E7E"/>
		</linearGradient>
		<path class="st6" d="M873.45,444.03v20.23c0-43.59-35.34-78.91-78.93-78.91H170.55c-43.6,0-78.93,35.33-78.93,78.91v-20.23
			c0-43.59,35.33-78.91,78.93-78.91h623.97C838.11,365.12,873.45,400.45,873.45,444.03z"/>
	</g>
	<g>
		<path class="st3" d="M653.11,463.11v307.6c0,20.41-16.53,36.94-36.94,36.94H177.78c-13.01,0-24.45-6.72-31.02-16.88
			c-3.75-5.77-5.92-12.66-5.92-20.06v-307.6c0-20.39,16.53-36.94,36.94-36.94h438.39c8.74,0,16.79,3.03,23.1,8.14h0.02
			C647.71,441.08,653.11,451.46,653.11,463.11z"/>
	</g>
	<g class="st2">
		<path class="st3" d="M650.88,450.47c-5-2.53-10.69-3.96-16.67-3.96H195.82c-20.42,0-36.95,16.55-36.95,36.94v307.6
			c0,4.45,0.78,8.7,2.22,12.63c-5.85-2.97-10.79-7.45-14.32-12.9c-3.75-5.77-5.92-12.66-5.92-20.06V463.11
			c0-20.39,16.53-36.94,36.94-36.94h438.39c8.74,0,16.79,3.03,23.1,8.14h0.02C644.5,438.5,648.56,444.06,650.88,450.47z"/>
	</g>
	<g class="st7">
		<path class="st8" d="M653.11,463.11v307.6c0,20.41-16.53,36.94-36.94,36.94H177.78c-13.01,0-24.45-6.72-31.02-16.88
			C420.14,776,584.8,657.68,639.27,434.31h0.02C647.71,441.08,653.11,451.46,653.11,463.11z"/>
	</g>
	<g>
		<path class="st3" d="M616.17,811.97H177.78c-22.74,0-41.25-18.5-41.25-41.25V463.11c0-22.74,18.5-41.25,41.25-41.25h438.4
			c22.74,0,41.25,18.5,41.25,41.25v307.61C657.42,793.46,638.92,811.97,616.17,811.97z M177.78,430.5
			c-17.99,0-32.62,14.63-32.62,32.62v307.61c0,17.98,14.63,32.62,32.62,32.62h438.4c17.99,0,32.62-14.63,32.62-32.62V463.11
			c0-17.98-14.63-32.62-32.62-32.62L177.78,430.5L177.78,430.5z"/>
	</g>
	<g class="st4">
		<path class="st5" d="M768.81,814.18L768.81,814.18c-39.31,0-71.18-31.87-71.18-71.18V503.89c0-39.31,31.87-71.18,71.18-71.18l0,0
			c39.31,0,71.18,31.87,71.18,71.18v239.12C839.98,782.32,808.12,814.18,768.81,814.18z"/>
	</g>
	<g>
		<path class="st5" d="M757.67,807.65L757.67,807.65c-39.31,0-71.18-31.87-71.18-71.18V497.36c0-39.31,31.87-71.18,71.18-71.18l0,0
			c39.31,0,71.18,31.87,71.18,71.18v239.12C828.85,775.79,796.98,807.65,757.67,807.65z"/>
	</g>
	<g class="st2">
		<path class="st3" d="M825.33,447.36c-5.74-3.68-12.55-5.8-19.85-5.8H737c-20.41,0-36.94,16.53-36.94,36.92V786.1
			c0,5.64,1.27,11,3.54,15.78c-10.29-6.56-17.11-18.06-17.11-31.17v-307.6c0-20.39,16.53-36.94,36.94-36.94h68.48
			C806.67,426.17,819.42,434.84,825.33,447.36z"/>
	</g>
	<g>
		<path class="st3" d="M791.92,812.69h-68.49c-23.14,0-41.97-18.83-41.97-41.97V463.11c0-23.14,18.83-41.97,41.97-41.97h68.49
			c23.14,0,41.97,18.83,41.97,41.97v307.61C833.88,793.86,815.06,812.69,791.92,812.69z M723.43,431.22
			c-17.59,0-31.9,14.31-31.9,31.9v307.61c0,17.59,14.31,31.9,31.9,31.9h68.49c17.59,0,31.9-14.31,31.9-31.9V463.11
			c0-17.59-14.31-31.9-31.9-31.9L723.43,431.22L723.43,431.22z"/>
	</g>
	<g>
		<path class="st3" d="M794.52,863.33H170.54c-45.9,0-83.24-37.34-83.24-83.24V444.04c0-45.9,37.34-83.24,83.24-83.24h623.98
			c45.9,0,83.24,37.34,83.24,83.24V780.1C877.76,825.99,840.42,863.33,794.52,863.33z M170.54,369.43
			c-41.14,0-74.61,33.47-74.61,74.61V780.1c0,41.14,33.47,74.61,74.61,74.61h623.98c41.14,0,74.61-33.47,74.61-74.61V444.04
			c0-41.14-33.47-74.61-74.61-74.61L170.54,369.43L170.54,369.43z"/>
	</g>
	<g>
		<g>
			<path class="st5" d="M284.62,357.78h-1.91c-18.43,0-32.99,15.64-31.68,34.02l13.45,188.49c1.2,16.8,15.3,29.74,32.14,29.5
				l250.8-3.62c17.83-0.26,31.95-15.13,31.28-32.95l-6.93-184.87c-0.64-17.07-14.66-30.57-31.74-30.57L284.62,357.78L284.62,357.78z
				"/>
		</g>
		<g class="st2">
			<path class="st3" d="M547.42,606.17l-250.8,3.62c-16.85,0.24-30.94-12.69-32.15-29.49l-13.44-188.49
				c-0.32-4.48,0.3-8.79,1.7-12.74l11.74,164.64c1.21,16.8,15.3,29.74,32.15,29.49l250.8-3.62c14.62-0.21,26.74-10.25,30.26-23.68
				l1.02,27.32C579.37,591.04,565.25,605.91,547.42,606.17z"/>
		</g>
		<g>
			<path class="st3" d="M296.15,614.11c-18.88,0-34.63-14.62-35.98-33.51l-13.45-188.49c-0.71-9.95,2.78-19.85,9.58-27.15
				c6.8-7.3,16.42-11.49,26.4-11.49h257.32c19.49,0,35.32,15.25,36.05,34.72L583,573.06c0.37,9.79-3.14,19.09-9.89,26.19
				c-6.74,7.1-15.85,11.09-25.64,11.23l-250.8,3.62C296.5,614.11,296.32,614.11,296.15,614.11z M282.71,362.1
				c-7.7,0-14.84,3.1-20.08,8.74c-5.25,5.64-7.84,12.97-7.29,20.66l13.45,188.49c1.03,14.37,13.01,25.49,27.37,25.49
				c0.13,0,0.27,0,0.4,0l250.8-3.62c7.45-0.11,14.38-3.14,19.51-8.55c5.13-5.4,7.8-12.48,7.52-19.92l-6.93-184.87
				c-0.55-14.81-12.6-26.42-27.43-26.42H282.71z"/>
		</g>
		<g>
			<path class="st5" d="M558.9,594.14l41.36,98.22c0,0-6.39,21.31-53.5,20.92c-8.92-0.06-19.31-0.92-31.39-2.83l-73.35-68.83
				c0,0-0.09,0.54-0.32,1.58c-0.33,1.51-0.98,4.07-2.08,7.61c-2.28,7.32-6.57,18.82-14.36,33.89c-1.24,2.38-2.55,4.85-3.96,7.4
				l37.3,35.42c-1.1,7.08-2.88,13.55-5.44,19.26c-7.96,17.8-23.53,28.44-50.32,28.47c-32.15-8.05-74.35-18.6-91.93-39.7
				c-17.59-21.1-10.17-129.36-10.17-129.36c-19.97-46.34-15.95-108.51-15.95-108.51s-0.86,0.5-2.41,1.39
				c-10.44,5.94-52.3,29.8-73.95,41.94c-24.87,13.94-28.45,32.96-33.73,42.76c-5.06,9.4-17.77,6.31-17.59-4.45
				c0-0.45,0.03-0.92,0.08-1.39c1.06-9.48-2.95-16.08-4.6-18.36c-0.41-0.56-0.68-0.86-0.68-0.86c-18.84-5.65-48.23,36.55-58.78,0
				c-2.08-7.2-2.23-14.27-0.84-21.08v-0.02c5.65-27.76,36.95-51.2,68.41-61.29c39.18-12.55,41.7-23.6,83.64-72.34
				c41.93-48.72,146.45-45.71,243.55-24.61s132.6,69.04,132.6,69.04l-61.57,97.87v47.86H558.9z"/>
		</g>
		<g>
			<ellipse class="st9" cx="455.33" cy="526.98" rx="18.59" ry="19.7"/>
		</g>
		<g>
			<path class="st3" d="M497.77,544.46c-0.14,0-0.24,0-0.3,0c-2.38-0.03-4.29-1.98-4.27-4.36c0.03-2.37,1.95-4.27,4.31-4.27
				c0.01,0,0.03,0,0.05,0l0,0c8.4,0.04,30.66-2.18,32.36-13.47c1.5-9.96-0.59-16.08-2.19-19.11l-17.9,7.35
				c-2.2,0.91-4.73-0.15-5.63-2.35c-0.91-2.2,0.15-4.73,2.35-5.63l21.1-8.67c1.61-0.66,3.46-0.29,4.69,0.94
				c0.37,0.37,9.04,9.3,6.11,28.75C535.42,543.88,501.58,544.46,497.77,544.46z"/>
		</g>
		<g>
			<path class="st3" d="M458.84,732.09c-1.07,0-2.14-0.39-2.97-1.19l-37.3-35.42c-1.42-1.35-1.76-3.5-0.8-5.22
				c17.04-30.82,20.21-48.92,20.24-49.1c0.26-1.57,1.37-2.87,2.88-3.38s3.17-0.15,4.33,0.94l73.35,68.82
				c1.74,1.63,1.82,4.36,0.19,6.1s-4.36,1.83-6.1,0.19l-67.97-63.78c-2.33,8-7.36,22.16-17.77,41.45l34.89,33.13
				c1.73,1.64,1.8,4.37,0.16,6.1C461.12,731.64,459.98,732.09,458.84,732.09z"/>
		</g>
		<g>
			<path class="st3" d="M403.08,779.82c-0.35,0-0.7-0.04-1.05-0.13c-33.73-8.43-75.72-18.93-94.2-41.11
				c-17.7-21.24-12.24-116.12-11.23-131.38c-15.75-37.32-16.57-83.43-16.18-101.66c-14.82,8.45-50.4,28.71-69.64,39.5
				c-18.77,10.52-24.58,24.13-28.82,34.06c-1.08,2.53-2.1,4.91-3.21,6.98c-3.41,6.33-9.98,9.26-16.34,7.27
				c-5.3-1.65-10.22-7.13-9.27-15.63c0.83-7.49-2.03-12.76-3.46-14.87c-5.37-0.72-12.76,3.34-19.93,7.28
				c-9.56,5.26-19.45,10.7-28.26,7.04c-5.62-2.33-9.63-7.89-12.25-16.99c-11.18-38.72,27.93-74.08,70.4-87.69
				c30.63-9.82,37.82-18.5,61.67-47.26c5.68-6.85,12.11-14.6,20.01-23.79c20.23-23.5,55.25-36.95,104.09-39.99
				c40.39-2.51,90.06,2.32,143.65,13.97c97.57,21.2,133.66,68.67,135.15,70.68c1.06,1.43,1.13,3.36,0.18,4.87l-60.91,96.83v45.73
				l41.02,97.41c0.93,2.2-0.11,4.73-2.3,5.65c-2.2,0.93-4.73-0.1-5.65-2.3l-41.36-98.21c-0.22-0.53-0.34-1.1-0.34-1.67v-47.85
				c0-0.81,0.23-1.61,0.66-2.3l59.91-95.23c-8.38-9.53-45.92-47.29-128.2-65.17c-117.46-25.52-204.71-17.06-239.37,23.21
				c-7.85,9.12-14.25,16.85-19.91,23.66c-24.43,29.46-32.65,39.39-65.68,49.97c-39.14,12.55-74.06,44.81-64.74,77.08
				c1.83,6.33,4.27,10.17,7.27,11.41c4.98,2.07,13.02-2.35,20.8-6.63c9.29-5.11,18.9-10.39,27.81-7.72
				c0.76,0.23,1.44,0.66,1.97,1.25c0.32,0.36,7.87,8.94,6.35,22.58c-0.43,3.86,1.4,5.86,3.26,6.44c1.77,0.55,4.45,0.07,6.17-3.12
				c0.93-1.73,1.83-3.84,2.87-6.28c4.46-10.45,11.21-26.25,32.54-38.2c24.57-13.77,75.82-43.02,76.33-43.31
				c1.38-0.79,3.08-0.75,4.42,0.09c1.35,0.84,2.12,2.35,2.02,3.94c-0.04,0.61-3.71,61.7,15.61,106.53c0.27,0.63,0.39,1.32,0.34,2
				c-2.03,29.63-4.33,110.09,9.18,126.3c16.68,20.02,58.86,30.56,89.66,38.26c2.31,0.58,3.72,2.92,3.14,5.23
				C406.78,778.51,405.02,779.82,403.08,779.82z"/>
		</g>
		<g>
			<path class="st3" d="M377.9,773.27c-1.89,0-3.63-1.26-4.16-3.17c-0.63-2.3,0.72-4.67,3.01-5.31
				c42.43-11.69,50.15-63.29,50.22-63.81c0.33-2.36,2.52-4.03,4.87-3.67c2.36,0.33,4.01,2.51,3.67,4.87
				c-0.33,2.35-8.64,57.76-56.48,70.94C378.67,773.22,378.28,773.27,377.9,773.27z"/>
		</g>
		<g>
			<path class="st3" d="M280.72,497.63l7.82-48.17l0.79,48.79C289.16,504.48,279.99,503.83,280.72,497.63L280.72,497.63z"/>
		</g>
		<g>
			<path class="st3" d="M389.79,579.2c-17.47,0-33.39-0.04-44.45-0.16c-10.71-0.11-19.42-8.92-19.42-19.64v-78.04
				c0-10.83,8.81-19.64,19.64-19.64h131.78c3.33,0,6.67,0.76,9.68,2.19l3.04,1.45c7.16,3.41,11.79,10.74,11.79,18.67v67.49
				c0,15.07-12.26,27.39-27.34,27.46C452.27,579.08,418.89,579.2,389.79,579.2z M345.56,470.36c-6.07,0-11.01,4.94-11.01,11.01
				v78.04c0,6.01,4.88,10.94,10.88,11.01c29.4,0.31,93.46,0.1,129.03-0.06c10.33-0.04,18.74-8.49,18.74-18.83v-67.49
				c0-4.62-2.7-8.89-6.87-10.88l-3.04-1.45c-1.85-0.88-3.91-1.35-5.96-1.35H345.56z"/>
		</g>
		<g>
			<path class="st3" d="M497.53,505.77c-2.38,0-4.32-1.93-4.32-4.32c0-4.62-2.7-8.89-6.87-10.88l-3.04-1.45
				c-1.85-0.88-3.91-1.35-5.96-1.35H345.56c-6.07,0-11.01,4.94-11.01,11.01c0,2.38-1.93,4.32-4.32,4.32s-4.32-1.93-4.32-4.32
				c0-10.83,8.81-19.64,19.64-19.64h131.78c3.33,0,6.67,0.76,9.68,2.19l3.04,1.45c7.16,3.41,11.79,10.74,11.79,18.67
				C501.84,503.84,499.91,505.77,497.53,505.77z"/>
		</g>
		<g>
			<g>
				<path class="st5" d="M646.48,514.52c0,0-8.44,27.88-29.98,28.89c-7.16,15.01-18.66,15.72-32.57,8.41
					c-6.93,2.71-13.1,3.87-17.84,2.16c-2.71-0.95-4.97-2.85-6.65-5.92c-18.15,5.89-29.67-2.94-27.88-41.45
					c0,0-19.59,15.82-33.53,14.32c-13.94-1.51-12.43-18.84,0-33.16s41.32-39.44,81.88-30.26c0,0,24.37-20.23,52.25-4.02
					c0,0,0,0,0.02,0.02C660.04,469.7,654.77,506.61,646.48,514.52z"/>
			</g>
			<g>
				<path class="st3" d="M599.14,560.67c-4.65,0-9.77-1.38-15.46-4.14c-12.01,4.29-20.75,3.12-26.07-3.47
					c-7.88,1.92-14.39,0.96-19.4-2.86c-7.32-5.59-10.99-17.1-11.14-35.06c-7.49,4.87-19.39,11.17-29.5,10.08
					c-6.1-0.66-10.57-3.85-12.59-9c-3.28-8.37,0.56-20.64,9.8-31.28c10.99-12.66,40.98-40.8,84.16-32.06
					c6.46-4.47,29.7-18.06,55.4-3.13c12.81,7.44,20.87,20.06,22.7,35.53c1.45,12.26-1.43,25.46-6.76,31.5
					c-1.8,5.21-10.76,28-31.01,30.7c-3.45,6.24-7.94,10.31-13.35,12.11C603.76,560.31,601.51,560.67,599.14,560.67z M583.93,547.51
					c0.69,0,1.38,0.17,2.01,0.49c7.07,3.71,12.87,4.86,17.25,3.41c3.77-1.25,6.86-4.48,9.43-9.86c0.69-1.43,2.1-2.38,3.69-2.45
					c18.18-0.85,25.97-25.58,26.04-25.83c0.22-0.71,0.61-1.35,1.15-1.86c2.99-2.85,6.38-13.16,4.96-25.1
					c-1.06-8.99-5.13-21.34-18.47-29.09c-24.85-14.44-46.42,2.87-47.33,3.62c-1.03,0.84-2.4,1.18-3.7,0.88
					c-39.68-8.96-67.54,17.22-77.68,28.89c-7.73,8.9-10.02,18.04-8.28,22.47c0.52,1.33,1.66,3.16,5.49,3.57
					c9.98,1.06,25.3-9.3,30.36-13.39c1.32-1.07,3.15-1.26,4.66-0.49c1.52,0.77,2.44,2.35,2.36,4.05
					c-1.15,24.54,3.49,33.41,7.57,36.53c3.32,2.54,8.12,2.74,14.67,0.61c1.97-0.64,4.12,0.21,5.12,2.04
					c2.07,3.8,5.96,6.98,19.13,1.82C582.87,547.61,583.4,547.51,583.93,547.51z"/>
			</g>
			<g>
				<path class="st3" d="M637.56,535.66c-0.4,0-0.81-0.06-1.22-0.18c-2.29-0.67-3.6-3.07-2.93-5.36c10.56-36-36.46-62.81-54.78-68.5
					c-2.28-0.71-3.55-3.13-2.84-5.4c0.71-2.28,3.13-3.55,5.4-2.84c11.4,3.54,28.85,12.77,42.11,25.39
					c17.47,16.62,23.83,35.22,18.39,53.79C641.15,534.44,639.43,535.66,637.56,535.66z"/>
			</g>
			<g>
				<path class="st3" d="M527.54,505.05c4.9-8.26,10.28-16.32,16.96-23.18c-4.19,8.32-6.81,17.32-8.91,26.3
					C533.79,514.63,524.5,511.03,527.54,505.05L527.54,505.05z"/>
			</g>
			<g>
				<path class="st3" d="M555.14,548.35c0.71-17.1,2.46-34.69,9.45-50.41c-2.23,8.19-2.73,16.61-2.72,24.96
					c0.07,8.27,0.7,16.77,1.88,24.9C564.42,553.97,555.27,554.57,555.14,548.35L555.14,548.35z"/>
			</g>
			<g>
				<path class="st3" d="M579.63,551.55c2.39-13.16,5.05-26.3,9.08-39.04c-1.19,13.17-0.95,26.41-0.47,39.59
					C588.23,558.46,578.83,557.87,579.63,551.55L579.63,551.55z"/>
			</g>
			<g>
				<path class="st3" d="M612.24,544.02c0.2-9.86,1.47-19.58,4.27-29c0.09,9.36,1.69,18.83,4.27,27.77
					C622.37,549.29,612.54,550.71,612.24,544.02L612.24,544.02z"/>
			</g>
			<g class="st2">
				<path class="st3" d="M646.48,514.52c0,0-8.44,27.88-29.98,28.89c-7.16,15.01-18.66,15.72-32.57,8.41
					c-6.93,2.71-13.1,3.87-17.84,2.16c1.99-1.9,5.38-8.15,6.16-28.53c1.13-29.34,18.84-27.5,18.84-27.5
					c26.49,0,21.39-22.76,21.39-22.76l9.93,8.77c21.55-5.98,10.14-29.67,9.77-30.46C660.04,469.7,654.77,506.61,646.48,514.52z"/>
			</g>
		</g>
		<g>
			<path class="st3" d="M418.15,574.62c-2.38,0-4.32-1.93-4.32-4.32v-15.21c0-5.69-3.04-11.01-7.94-13.9l-14.52-8.55
				c-7.52-4.43-12.2-12.6-12.2-21.34v-24.17c0-2.38,1.93-4.32,4.32-4.32s4.32,1.93,4.32,4.32v24.17c0,5.69,3.04,11.01,7.94,13.9
				l14.52,8.55c7.52,4.43,12.2,12.6,12.2,21.33v15.21C422.47,572.69,420.53,574.62,418.15,574.62z"/>
		</g>
		<g>
			<path class="st3" d="M455.33,550.86c-12.56,0-22.78-10.72-22.78-23.89c0-13.17,10.22-23.89,22.78-23.89s22.78,10.72,22.78,23.89
				C478.11,540.15,467.89,550.86,455.33,550.86z M455.33,511.47c-7.94,0-14.4,6.96-14.4,15.5s6.46,15.5,14.4,15.5
				s14.4-6.96,14.4-15.5S463.26,511.47,455.33,511.47z"/>
		</g>
		<g>
			<path class="st5" d="M326.41,530.72c-21.29,4.33-39.62-2-39.62-2c-5.92-15.61-6.99-27.65,1.76-32.48
				c14.51,5.27,37.87,1.7,37.87,1.7h2.83v32.21L326.41,530.72z"/>
		</g>
		<g>
			<path class="st3" d="M310.9,536.56c-14.43,0-24.94-3.56-25.53-3.76c-1.21-0.42-2.17-1.35-2.63-2.55
				c-2.77-7.31-11.21-29.56,3.71-37.79c1.09-0.6,2.39-0.7,3.56-0.28c13.28,4.83,35.52,1.52,35.74,1.48
				c0.21-0.03,0.43-0.05,0.65-0.05h2.83c2.38,0,4.32,1.93,4.32,4.32v32.21c0,2.06-1.45,3.83-3.47,4.23l-2.82,0.56
				C321.5,536.12,315.96,536.56,310.9,536.56z M290.08,525.2c4.97,1.35,19.09,4.46,34.83,1.41v-24.12
				c-5.97,0.73-23.02,2.31-35.75-1.5C286.83,503.02,284.05,508.37,290.08,525.2z"/>
		</g>
		<g>
			<path class="st3" d="M380.85,631.32c37.25,6.55,68.34,11.62,102.86-8.29C458.96,653.44,411.73,650.26,380.85,631.32
				L380.85,631.32z"/>
		</g>
		<g>
			<path class="st3" d="M424.36,695.63l-23.54,14.56l17.91-21.11C423.33,684.23,429.85,691.8,424.36,695.63L424.36,695.63z"/>
		</g>
		<g>
			<path class="st3" d="M226.25,533.04c-0.11,0-0.23,0-0.34-0.01c-43.2-3.36-50.81-60.39-51.12-62.82c-0.3-2.37,1.38-4.52,3.75-4.82
				c2.36-0.28,4.52,1.38,4.82,3.74l0,0c0.07,0.52,7.05,52.47,43.22,55.29c2.38,0.19,4.15,2.26,3.97,4.64
				C230.37,531.32,228.48,533.04,226.25,533.04z"/>
		</g>
		<g>
			<g>
				<path class="st5" d="M259.69,223.91l-19.1,7.11c-11.19,4.16-18.67,14.76-18.85,26.7l-0.82,55.17
					c-0.2,13.57,9.06,25.46,22.27,28.59l24.06,5.7"/>
			</g>
			<g>
				<path class="st5" d="M563.85,228.41l18.88,7.67c11.06,4.49,18.23,15.31,18.05,27.24l-0.82,55.17
					c-0.2,13.57-9.81,25.18-23.1,27.92l-24.22,4.99"/>
			</g>
			<g class="st2">
				<path class="st3" d="M267.26,347.18l-24.07-5.7c-13.19-3.13-22.46-15.02-22.26-28.59l0.46-31.32
					c-0.2,13.57,9.07,25.46,22.26,28.59l21.65,5.13L267.26,347.18z"/>
			</g>
			<g class="st2">
				<path class="st3" d="M600.41,287.17l-0.46,31.32c-0.2,13.57-9.8,25.19-23.09,27.92l-24.22,4.98l2.91-31.82l21.78-4.47
					C590.62,312.36,600.21,300.74,600.41,287.17z"/>
			</g>
			<g>
				<path class="st3" d="M267.26,351.5c-0.33,0-0.66-0.04-1-0.12l-24.06-5.7c-15.3-3.62-25.82-17.13-25.58-32.85l0.81-55.17
					c0.2-13.82,8.7-25.86,21.66-30.68l19.1-7.11c2.24-0.83,4.72,0.31,5.55,2.54s-0.31,4.72-2.54,5.55l-19.1,7.11
					c-9.59,3.57-15.88,12.49-16.04,22.72l-0.81,55.17c-0.17,11.64,7.62,21.64,18.94,24.33l24.06,5.7c2.32,0.55,3.75,2.88,3.2,5.19
					C270.99,350.16,269.22,351.5,267.26,351.5z"/>
			</g>
			<g>
				<path class="st3" d="M552.64,355.71c-2.01,0-3.8-1.41-4.22-3.45c-0.48-2.33,1.02-4.62,3.36-5.1l24.22-4.99
					c11.4-2.35,19.48-12.12,19.66-23.76l0.82-55.17c0.15-10.23-5.88-19.33-15.36-23.18l-18.88-7.67c-2.21-0.9-3.27-3.41-2.37-5.62
					c0.9-2.21,3.41-3.27,5.62-2.37l18.88,7.67c12.8,5.2,20.94,17.49,20.74,31.3l-0.82,55.17c-0.23,15.72-11.15,28.91-26.54,32.08
					l-24.22,4.99C553.22,355.68,552.92,355.71,552.64,355.71z"/>
			</g>
			<g>
				
					<ellipse transform="matrix(0.7071 -0.7071 0.7071 0.7071 -74.9862 370.8469)" class="st5" cx="410.16" cy="275.94" rx="166.98" ry="166.98"/>
			</g>
			<g class="st2">
				<path class="st3" d="M407.71,442.89c-38.25-0.57-73.29-13.95-101.13-36c17.08,6.23,35.47,9.74,54.66,10.02
					c92.2,1.36,168.06-72.28,169.43-164.49c0.79-53.96-24.11-102.34-63.39-133.44c64.97,23.62,110.94,86.39,109.85,159.42
					C575.77,370.61,499.92,444.26,407.71,442.89z"/>
			</g>
			<g>
				<path class="st3" d="M577.05,283.88c-1.08,73.39-76.71,131.79-168.92,130.42c-84.08-1.24-152.91-51.73-163.56-116.27
					c-1.04-6.24-1.53-12.61-1.44-19.09c1.08-73.39,76.71-131.77,168.92-130.41c69.29,1.02,128.22,35.5,152.79,83.7v0.02
					C572.97,248.2,577.32,265.65,577.05,283.88z"/>
			</g>
			<g class="st7">
				<path class="st8" d="M577.05,283.88c-1.08,73.39-76.71,131.79-168.92,130.42c-84.08-1.24-152.91-51.73-163.56-116.27
					c1.25-1.56,1.98-2.4,1.98-2.4c75.88,128.31,311.62,77.81,318.3-63.38C572.97,248.2,577.32,265.65,577.05,283.88z"/>
			</g>
			<g>
				<path class="st3" d="M410.24,447.23c-0.87,0-1.73-0.01-2.6-0.02c-45.75-0.68-88.5-19.13-120.37-51.95
					c-31.87-32.83-49.05-76.1-48.38-121.85c0.68-45.75,19.13-88.5,51.95-120.37s76.04-49.06,121.85-48.38
					c45.75,0.68,88.5,19.13,120.37,51.96s49.05,76.1,48.38,121.85c-0.68,45.75-19.13,88.5-51.95,120.37
					C497.29,430.1,455.03,447.23,410.24,447.23z M410.11,113.27c-42.53,0-82.66,16.26-113.24,45.96
					c-31.17,30.27-48.7,70.86-49.34,114.3s15.67,84.54,45.94,115.71s70.86,48.69,114.3,49.34c43.44,0.7,84.54-15.67,115.71-45.94
					c31.17-30.27,48.7-70.86,49.34-114.3s-15.67-84.54-45.94-115.71s-70.86-48.69-114.3-49.34
					C411.76,113.28,410.93,113.27,410.11,113.27z"/>
			</g>
			<g>
				<path class="st3" d="M577.18,279.75c-0.02,0-0.04,0-0.06,0c-2.24-0.03-4.03-1.88-4-4.11c1.12-75.55-71.05-138.1-160.88-139.43
					c-43.7-0.65-84.85,13.08-116.04,38.66c-30.99,25.41-48.35,59.49-48.89,95.96c-0.03,2.24-1.93,4.06-4.11,3.99
					c-2.24-0.03-4.03-1.88-4-4.11c0.58-38.9,18.99-75.16,51.86-102.11c32.67-26.79,75.76-41.17,121.3-40.49
					c94.3,1.39,170.05,67.63,168.87,147.66C581.2,277.97,579.39,279.75,577.18,279.75z"/>
			</g>
			<g class="st10">
				<path class="st5" d="M507.78,349.7c13.06-61.83-5.48-114.51-52.25-159c-5.78-5.49,0.61-14.82,7.79-11.36
					c90.85,43.68,107.88,125.41,56.2,176.76C514.6,360.99,506.35,356.5,507.78,349.7z"/>
			</g>
			<g class="st10">
				<path class="st5" d="M302.18,279.93c-0.2,8.78,0.5,21.63,4.54,35.9c2.08,7.34-1.96,15.02-9.17,17.49l0,0
					c-6.45,2.21-13.58-0.39-17.05-6.26c-8.75-14.8-14.14-32.45-11.3-50.27c1.61-10.06,12.02-16.18,21.67-12.92l0,0
					C297.74,266.19,302.34,272.68,302.18,279.93z"/>
			</g>
			<g class="st10">
				<path class="st5" d="M322.2,211.22L322.2,211.22c3.34,4.25,3.53,10.18,0.48,14.64l-8.04,11.74c-3.45,5.03-10.04,6.81-15.55,4.18
					l-0.89-0.42c-6.8-3.25-9.19-11.79-4.97-18.04c2.55-3.77,5.86-8.14,10.05-12.76C308.43,204.87,317.46,205.19,322.2,211.22z"/>
			</g>
		</g>
		<g class="st2">
			<path class="st3" d="M559.15,403.64c-25.04,41.65-108.85,80.15-193,39.28c72.45,7.37,129.5-6.91,165.41-50.88L559.15,403.64z"/>
		</g>
		<g class="st2">
			<path class="st3" d="M288.54,442.92l-1.76,20.36l-1.75,23.86l-2.41,12.19c-10.44,5.94-52.3,29.8-73.95,41.94
				c-24.87,13.94-28.45,32.96-33.73,42.76c-5.06,9.4-17.77,6.31-17.59-4.45c7.7-4.02,13.14-25.12,15.15-38.43
				c2-13.32,16.08-17.84,46.72-39.7C249.86,479.59,288.54,442.92,288.54,442.92z"/>
		</g>
		<g class="st2">
			<path class="st3" d="M152.82,559.84c-0.41-0.56-0.68-0.86-0.68-0.86c-18.84-5.65-48.23,36.55-58.78,0
				c-2.08-7.2-2.23-14.27-0.84-21.08c0.26,0.75,8.39,24.1,56.23-9.18C148.76,528.72,160.71,537.52,152.82,559.84z"/>
		</g>
		<g class="st2">
			<path class="st3" d="M479.56,626.29c-9.71,28.16,2.29,50.96,17.97,72.86c0,0-56.27-55.76-54.76-55.76c1.51,0,20.6-8.04,20.6-8.04
				"/>
		</g>
		<g class="st2">
			<path class="st3" d="M458.59,727.52c-1.1,7.08-2.88,13.55-5.44,19.26c-4.87,2.71-12.93,3.69-25.95,1.09
				c-45.21-9.04-55.76-46.28-55.76-46.28c18.09-31.21,16.73-67.71,16.73-67.71l53.53,9.33l1.07,0.18l-3.15,7.43l-14.36,33.89
				c-1.24,2.38-2.55,4.85-3.96,7.4L458.59,727.52z"/>
		</g>
		<g class="st2">
			<path class="st3" d="M600.26,692.36c0,0-6.39,21.31-53.5,20.92c5.46-8.35,18.69-34.51-2-67.26
				c-21.84-34.54-29.57-52.18-27.37-67.04c-0.06,0.14-0.12,0.26-0.18,0.38c-6.63,12.93-20.35,20.69-34.87,20.69H361.97
				c-3.66,0-7.28-0.56-10.75-1.64c-3.45-1.09-6.74-2.7-9.75-4.79c-5.08-3.53-8.09-9.3-8.09-15.48v-26.31
				c55.33,5.26,107.83-5.29,154.75-46.9l2.74,15.54c7.13,11.23,28.85-3.29,30.11-4.14c0.05-0.03,0.06-0.05,0.06-0.05l10.26-8.79
				l9.42,40.57l16.34,3.77l1.84,18.58v23.74L600.26,692.36z"/>
		</g>
	</g>
	<g>
		<circle class="st11" cx="757.88" cy="487.14" r="42.07"/>
	</g>
	<g class="st2">
		<path class="st3" d="M799.95,487.14c0,23.24-18.84,42.08-42.06,42.08c-14.65,0-27.55-7.49-35.07-18.84
			c5.76,2.97,12.27,4.64,19.19,4.64c23.22,0,42.06-18.84,42.06-42.06c0-8.61-2.58-16.59-7.02-23.25
			C790.63,456.65,799.95,470.81,799.95,487.14z"/>
	</g>
	<g class="st2">
		<path class="st3" d="M812.33,502.6c0,23.24-18.84,42.08-42.06,42.08c-14.65,0-27.55-7.49-35.07-18.84
			c5.76,2.97,12.27,4.64,19.19,4.64c23.22,0,42.06-18.84,42.06-42.06c0-8.61-2.58-16.59-7.02-23.25
			C803.02,472.11,812.33,486.28,812.33,502.6z"/>
	</g>
	<g class="st4">
		<path class="st5" d="M798.02,474.52c-6.72-10.17-17.74-17.26-30.47-18.64v20.75c0,1.63-1.31,2.95-2.94,2.95h-6.92
			c-1.63,0-2.95-1.33-2.95-2.95v-20.21c-19.34,3.8-33.91,20.83-33.91,41.26c0,4.4,0.68,8.64,1.93,12.61
			c-4.4-6.65-6.95-14.6-6.95-23.16c0-23.22,18.84-42.06,42.08-42.06C776.71,445.07,792.67,457.46,798.02,474.52z"/>
	</g>
	<g>
		<path class="st3" d="M757.88,534.25c-25.98,0-47.11-21.13-47.11-47.11c0-25.98,21.13-47.11,47.11-47.11s47.11,21.13,47.11,47.11
			C804.99,513.12,783.86,534.25,757.88,534.25z M757.88,450.1c-20.42,0-37.04,16.61-37.04,37.04c0,20.42,16.62,37.04,37.04,37.04
			s37.04-16.61,37.04-37.04C794.92,466.72,778.3,450.1,757.88,450.1z"/>
	</g>
	<g>
		<path class="st3" d="M757.88,446.01L757.88,446.01c-3.54,0-6.41,2.87-6.41,6.41v17.83c0,3.54,2.87,6.41,6.41,6.41l0,0
			c3.54,0,6.41-2.87,6.41-6.41v-17.83C764.28,448.88,761.42,446.01,757.88,446.01z"/>
	</g>
	<g>
		<circle class="st12" cx="718.37" cy="591.49" r="15.89"/>
	</g>
	<g>
		<circle class="st12" cx="759.32" cy="591.49" r="15.89"/>
	</g>
	<g>
		<circle class="st12" cx="800.26" cy="591.49" r="15.89"/>
	</g>
	<g class="st4">
		<path class="st5" d="M734.33,592.08c0,8.77-7.11,15.89-15.88,15.89c-8.03,0-14.68-5.97-15.73-13.71
			c2.59,5.23,7.99,8.82,14.23,8.82c8.77,0,15.88-7.11,15.88-15.89c0-0.72-0.05-1.45-0.15-2.16
			C733.74,587.15,734.33,589.54,734.33,592.08z"/>
	</g>
	<g class="st4">
		<path class="st5" d="M775.28,592.08c0,8.77-7.11,15.89-15.89,15.89c-8.05,0-14.68-5.97-15.73-13.71
			c2.59,5.23,7.99,8.82,14.23,8.82c8.77,0,15.89-7.11,15.89-15.89c0-0.72-0.05-1.45-0.15-2.16
			C774.69,587.15,775.28,589.54,775.28,592.08z"/>
	</g>
	<g class="st4">
		<path class="st5" d="M816.21,592.08c0,8.77-7.1,15.89-15.88,15.89c-8.03,0-14.68-5.97-15.73-13.71c2.59,5.23,7.99,8.82,14.23,8.82
			c8.79,0,15.88-7.11,15.88-15.89c0-0.72-0.05-1.45-0.15-2.16C815.62,587.15,816.21,589.54,816.21,592.08z"/>
	</g>
	<g>
		<path class="st12" d="M762.2,781.96L762.2,781.96c-6.03,0-10.93-4.89-10.93-10.93V647.71c0-6.03,4.89-10.93,10.93-10.93l0,0
			c6.03,0,10.93,4.89,10.93,10.93v123.33C773.12,777.07,768.23,781.96,762.2,781.96z"/>
	</g>
	<g>
		<path class="st12" d="M800.88,781.96L800.88,781.96c-6.03,0-10.93-4.89-10.93-10.93V647.71c0-6.03,4.89-10.93,10.93-10.93l0,0
			c6.03,0,10.93,4.89,10.93,10.93v123.33C811.8,777.07,806.91,781.96,800.88,781.96z"/>
	</g>
	<g>
		<path class="st12" d="M723.51,781.96L723.51,781.96c-6.03,0-10.93-4.89-10.93-10.93V647.71c0-6.03,4.89-10.93,10.93-10.93l0,0
			c6.03,0,10.93,4.89,10.93,10.93v123.33C734.44,777.07,729.55,781.96,723.51,781.96z"/>
	</g>
	<g class="st4">
		<path class="st5" d="M772.58,642.25v135.14c0,2.77-2.26,5.02-5.03,5.02h-11.8c-1.6,0-3.01-0.74-3.92-1.9
			c0.05,0.02,0.11,0.02,0.15,0.02h11.8c2.77,0,5.03-2.25,5.03-5.02V640.36c0-1.18-0.41-2.26-1.1-3.12
			C770.41,637.32,772.58,639.54,772.58,642.25z"/>
	</g>
	<g class="st4">
		<path class="st5" d="M811.25,642.25v135.14c0,2.77-2.25,5.02-5.02,5.02h-11.8c-1.6,0-3.01-0.74-3.93-1.9
			c0.06,0.02,0.11,0.02,0.17,0.02h11.8c2.77,0,5.02-2.25,5.02-5.02V640.36c0-1.18-0.41-2.26-1.1-3.12
			C809.08,637.31,811.25,639.52,811.25,642.25z"/>
	</g>
	<g class="st4">
		<path class="st5" d="M733.89,642.25v135.14c0,2.77-2.25,5.02-5.02,5.02h-11.82c-1.6,0-3.01-0.74-3.92-1.9
			c0.05,0.02,0.11,0.02,0.15,0.02h11.82c2.77,0,5.02-2.25,5.02-5.02V640.36c0-1.18-0.41-2.26-1.1-3.12
			C731.72,637.31,733.89,639.52,733.89,642.25z"/>
	</g>
	<g>
		<path class="st3" d="M215.44,890.72h-10.17c-12.98,0-23.53-10.56-23.53-23.53v-8.17c0-2.38,1.93-4.32,4.32-4.32h48.6
			c2.38,0,4.32,1.93,4.32,4.32v8.17C238.98,880.16,228.42,890.72,215.44,890.72z M190.37,863.33v3.85c0,8.22,6.68,14.9,14.9,14.9
			h10.17c8.22,0,14.9-6.68,14.9-14.9v-3.85H190.37z"/>
	</g>
	<g>
		<path class="st3" d="M773.89,890.72h-10.17c-12.98,0-23.53-10.56-23.53-23.53v-8.17c0-2.38,1.93-4.32,4.32-4.32h48.6
			c2.38,0,4.32,1.93,4.32,4.32v8.17C797.42,880.16,786.87,890.72,773.89,890.72z M748.82,863.33v3.85c0,8.22,6.68,14.9,14.9,14.9
			h10.17c8.22,0,14.9-6.68,14.9-14.9v-3.85H748.82z"/>
	</g>
	<g class="st2">
		<path class="st3" d="M234.66,859.02v8.17c0,10.61-8.61,19.22-19.22,19.22h-10.17c-2.09,0-4.11-0.33-6-0.95
			c9.83-8.3,11.17-18.37,9.89-26.43L234.66,859.02L234.66,859.02z"/>
	</g>
	<g class="st2">
		<path class="st3" d="M792.97,859.02v8.17c0,10.61-8.61,19.22-19.22,19.22h-10.17c-2.09,0-4.11-0.33-6-0.95
			c9.83-8.3,11.17-18.37,9.89-26.43L792.97,859.02L792.97,859.02z"/>
	</g>
	<g class="st2">
		<path class="st3" d="M103.53,888.86c33.71-2.59,67.43-4.2,101.14-5.84c8.43-0.45,16.86-0.64,25.29-0.69l25.29,0.06l50.57,0.07
			l202.29,0.39l202.29,0.22l25.29,0.01c8.43-0.04,16.86-0.4,25.29-0.41c8.43,0.04,16.86,0.48,25.29,0.74l25.29,0.9
			c16.86,0.55,33.71,1.3,50.57,2.04c8.43,0.35,16.86,0.72,25.29,1.17l25.29,1.32l-25.29,1.32c-8.43,0.44-16.86,0.82-25.29,1.17
			c-16.86,0.73-33.71,1.48-50.57,2.04l-25.29,0.9c-8.43,0.27-16.86,0.7-25.29,0.74c-8.43-0.01-16.86-0.37-25.29-0.41l-25.29,0.01
			l-202.29,0.22l-202.29,0.39l-50.57,0.07l-25.29,0.06c-8.43-0.05-16.86-0.24-25.29-0.69C170.96,893.06,137.24,891.44,103.53,888.86
			z"/>
	</g>
	<g>
		<g>
			<path class="st13" d="M199.12,630.81l1.26,4.78l4.65,1.68c1.26,0.45,1.45,2.15,0.32,2.87l-4.16,2.67l-0.16,4.94
				c-0.04,1.34-1.6,2.04-2.63,1.2l-3.83-3.13l-4.75,1.38c-1.28,0.37-2.44-0.89-1.95-2.13l1.8-4.61l-2.78-4.09
				c-0.75-1.11,0.09-2.59,1.43-2.52l4.94,0.28l3.03-3.91C197.11,629.17,198.78,629.51,199.12,630.81z"/>
		</g>
		<g>
			<path class="st14" d="M201.04,647.76c-0.04,1.34-1.6,2.04-2.63,1.2l-3.83-3.13l-4.75,1.38c-1.28,0.37-2.44-0.89-1.95-2.13
				l0.56-1.43c0.3,0.7,1.09,1.16,1.94,0.92l4.75-1.38l3.83,3.13c0.68,0.56,1.59,0.44,2.14-0.08L201.04,647.76z"/>
		</g>
		<g class="st4">
			<path class="st5" d="M188.32,633.85l5.72,0.36l-0.85,1.1l-4.78-0.3l-0.22-0.33c-0.17-0.25-0.25-0.53-0.25-0.8
				C188.06,633.85,188.19,633.84,188.32,633.85z"/>
		</g>
		<g class="st4">
			<path class="st5" d="M205.38,637.44c-0.11,0.25-0.29,0.47-0.54,0.64l-0.7,0.45c-0.11-0.07-0.23-0.13-0.36-0.18l-4.65-1.68
				l-1.26-4.78c-0.24-0.92-1.17-1.36-1.98-1.15l0.39-0.5c0.82-1.05,2.5-0.71,2.83,0.58l1.26,4.78l4.65,1.68
				C205.16,637.31,205.27,637.37,205.38,637.44z"/>
		</g>
		<g>
			<path class="st14" d="M190.16,641.08l-3.27-4.71c-0.6-0.89-0.18-2.03,0.71-2.39l3.41,4.92L190.16,641.08z"/>
		</g>
		<g>
			<path class="st14" d="M205.36,640.14l-4.82,2.97l0.07-2.34l5.03-3.1C206.31,638.34,206.26,639.56,205.36,640.14z"/>
		</g>
		<g>
			<path class="st15" d="M199.42,649.4c-0.38,0-0.76-0.13-1.07-0.38l-3.79-3.11l-4.71,1.37c-0.62,0.18-1.29,0-1.72-0.48
				c-0.44-0.48-0.56-1.15-0.33-1.76l1.78-4.57l-2.75-4.06c-0.37-0.54-0.39-1.22-0.07-1.79c0.32-0.57,0.93-0.89,1.57-0.86l4.89,0.28
				l3.01-3.87c0.4-0.52,1.04-0.74,1.68-0.62c0.64,0.13,1.14,0.6,1.3,1.23l1.24,4.74l4.61,1.66c0.61,0.22,1.04,0.76,1.11,1.4
				c0.07,0.65-0.22,1.27-0.77,1.62l-4.12,2.65l-0.16,4.9c-0.02,0.65-0.4,1.22-0.99,1.49C199.9,649.35,199.66,649.4,199.42,649.4z
				 M194.6,645.73l0.03,0.03l3.83,3.13c0.46,0.38,1.06,0.45,1.6,0.21c0.54-0.25,0.88-0.75,0.9-1.34l0.16-4.99l0.04-0.02l4.16-2.67
				c0.5-0.32,0.76-0.87,0.69-1.46c-0.07-0.59-0.44-1.06-1-1.27l-4.69-1.69l-0.01-0.04l-1.26-4.78c-0.15-0.58-0.59-0.99-1.17-1.11
				c-0.59-0.12-1.15,0.09-1.52,0.56l-3.06,3.94h-0.04l-4.94-0.28c-0.59-0.02-1.13,0.26-1.42,0.77c-0.29,0.52-0.27,1.12,0.07,1.61
				l2.8,4.13l-0.02,0.04l-1.8,4.61c-0.22,0.55-0.11,1.15,0.3,1.59c0.4,0.44,0.98,0.6,1.56,0.44L194.6,645.73z"/>
		</g>
		<g>
			<path class="st15" d="M199.42,650.06c-0.53,0-1.05-0.18-1.48-0.53l-3.53-2.89l-4.38,1.27c-0.87,0.25-1.78-0.01-2.39-0.67
				s-0.78-1.6-0.46-2.44l1.65-4.25l-2.56-3.77c-0.51-0.74-0.54-1.69-0.1-2.48c0.44-0.78,1.25-1.23,2.18-1.19l4.55,0.26l2.79-3.6
				c0.55-0.71,1.44-1.04,2.33-0.86c0.88,0.18,1.57,0.83,1.8,1.71l1.16,4.41l4.29,1.55c0.85,0.31,1.44,1.05,1.54,1.95
				c0.1,0.89-0.31,1.75-1.06,2.24l-3.84,2.46l-0.14,4.56c-0.03,0.9-0.56,1.69-1.38,2.06C200.08,649.99,199.75,650.06,199.42,650.06z
				 M194.58,645.08c0.17,0,0.33,0.06,0.47,0.17l3.83,3.13c0.26,0.21,0.61,0.26,0.92,0.12s0.5-0.43,0.51-0.77l0.16-4.94
				c0.01-0.24,0.13-0.46,0.34-0.6l4.16-2.67c0.29-0.19,0.44-0.5,0.4-0.84c-0.04-0.34-0.25-0.61-0.57-0.73l-4.65-1.68
				c-0.23-0.08-0.4-0.27-0.46-0.51l-1.26-4.78l0,0c-0.09-0.33-0.34-0.57-0.67-0.63c-0.34-0.07-0.66,0.05-0.87,0.32l-3.03,3.91
				c-0.15,0.19-0.38,0.29-0.62,0.28l-4.94-0.28c-0.35-0.04-0.64,0.15-0.81,0.44c-0.17,0.3-0.15,0.64,0.04,0.92l2.78,4.09
				c0.14,0.2,0.17,0.46,0.08,0.68l-1.8,4.61c-0.12,0.32-0.06,0.66,0.17,0.91s0.56,0.35,0.89,0.25l4.75-1.38
				C194.44,645.09,194.51,645.08,194.58,645.08z"/>
		</g>
	</g>
	<g>
		<g>
			<path class="st13" d="M229.36,565.31l4.08,2.8l4.62-1.77c1.25-0.48,2.5,0.68,2.12,1.96l-1.4,4.74l3.11,3.84
				c0.84,1.04,0.13,2.59-1.21,2.63l-4.94,0.13l-2.69,4.15c-0.73,1.12-2.42,0.92-2.87-0.34l-1.65-4.66l-4.78-1.28
				c-1.29-0.35-1.63-2.02-0.57-2.84l3.92-3.01l-0.26-4.94C226.77,565.39,228.26,564.56,229.36,565.31z"/>
		</g>
		<g>
			<path class="st14" d="M241.9,576.88c0.84,1.04,0.13,2.59-1.21,2.63l-4.94,0.13l-2.69,4.15c-0.73,1.12-2.42,0.92-2.87-0.34
				l-0.51-1.45c0.69,0.33,1.59,0.17,2.07-0.57l2.69-4.15l4.94-0.13c0.88-0.02,1.49-0.7,1.57-1.46L241.9,576.88z"/>
		</g>
		<g class="st4">
			<path class="st5" d="M223.18,574.68l4.56-3.47l0.07,1.39l-3.82,2.9l-0.39-0.1c-0.3-0.08-0.54-0.24-0.71-0.44
				C222.98,574.85,223.08,574.76,223.18,574.68z"/>
		</g>
		<g class="st4">
			<path class="st5" d="M238.44,566.24c0.08,0.26,0.09,0.54,0,0.84l-0.23,0.79c-0.13,0.01-0.26,0.05-0.39,0.1l-4.62,1.77l-4.08-2.8
				c-0.79-0.54-1.77-0.27-2.25,0.42l-0.03-0.64c-0.07-1.34,1.42-2.17,2.52-1.42l4.08,2.8l4.62-1.77
				C238.18,566.29,238.31,566.26,238.44,566.24z"/>
		</g>
		<g>
			<path class="st14" d="M229.3,578.94l-5.55-1.43c-1.04-0.28-1.46-1.42-1.03-2.28l5.79,1.49L229.3,578.94z"/>
		</g>
		<g>
			<path class="st14" d="M240.18,568.3l-1.71,5.4l-1.48-1.82l1.78-5.64C239.73,566.31,240.49,567.27,240.18,568.3z"/>
		</g>
		<g>
			<path class="st15" d="M231.7,584.61c-0.07,0-0.13,0-0.2-0.01c-0.65-0.08-1.18-0.5-1.4-1.12l-1.64-4.62l-4.73-1.27
				c-0.63-0.17-1.1-0.67-1.22-1.31c-0.13-0.64,0.11-1.28,0.63-1.68l3.89-2.99l-0.26-4.9c-0.03-0.65,0.3-1.25,0.86-1.57
				c0.57-0.32,1.25-0.29,1.79,0.08l4.04,2.77l4.58-1.76c0.61-0.23,1.28-0.1,1.76,0.34s0.66,1.1,0.48,1.73l-1.39,4.7l3.09,3.81
				c0.41,0.51,0.5,1.19,0.22,1.78c-0.27,0.59-0.84,0.97-1.49,0.98l-4.9,0.13l-2.67,4.11C232.8,584.33,232.27,584.61,231.7,584.61z
				 M228.46,565.11c-0.26,0-0.51,0.07-0.75,0.2c-0.52,0.29-0.81,0.82-0.78,1.41l0.26,4.98l-0.03,0.03l-3.92,3.01
				c-0.47,0.36-0.68,0.93-0.57,1.51c0.12,0.58,0.53,1.03,1.1,1.18l4.82,1.29l0.01,0.04l1.66,4.66c0.2,0.55,0.68,0.94,1.26,1.01
				c0.59,0.08,1.14-0.19,1.46-0.69l2.72-4.18h0.04l4.94-0.13c0.59-0.02,1.1-0.35,1.35-0.89c0.25-0.54,0.17-1.14-0.2-1.6l-3.14-3.88
				l0.01-0.04l1.4-4.74c0.17-0.57,0.01-1.15-0.43-1.56c-0.44-0.4-1.03-0.52-1.59-0.3l-4.66,1.79l-0.04-0.02l-4.08-2.8
				C229.05,565.2,228.75,565.11,228.46,565.11z"/>
		</g>
		<g>
			<path class="st15" d="M231.71,585.27c-0.09,0-0.19-0.01-0.28-0.02c-0.89-0.11-1.64-0.7-1.94-1.55l-1.53-4.3l-4.4-1.18
				c-0.87-0.23-1.52-0.93-1.7-1.81s0.16-1.77,0.87-2.32l3.61-2.78l-0.24-4.55c-0.05-0.9,0.41-1.73,1.2-2.17s1.74-0.4,2.48,0.11l0,0
				l3.76,2.58l4.26-1.64c0.84-0.32,1.77-0.14,2.44,0.47c0.66,0.61,0.92,1.53,0.66,2.39l-1.29,4.37l2.87,3.54
				c0.57,0.7,0.69,1.65,0.31,2.46c-0.38,0.82-1.17,1.34-2.07,1.36l-4.56,0.13l-2.48,3.82C233.23,584.87,232.5,585.27,231.71,585.27z
				 M228.45,565.76c-0.15,0-0.29,0.04-0.43,0.12c-0.3,0.17-0.46,0.47-0.45,0.81l0.26,4.94c0.01,0.24-0.09,0.48-0.29,0.62l-3.92,3.01
				c-0.27,0.21-0.39,0.53-0.32,0.87c0.07,0.33,0.3,0.59,0.63,0.67l4.78,1.28c0.23,0.06,0.42,0.24,0.5,0.46l1.66,4.66
				c0.11,0.32,0.38,0.54,0.72,0.58c0.34,0.04,0.65-0.11,0.84-0.39l2.69-4.15c0.13-0.2,0.36-0.33,0.6-0.33l4.94-0.13
				c0.34-0.01,0.63-0.2,0.77-0.51s0.1-0.65-0.12-0.92l-3.11-3.84c-0.15-0.19-0.2-0.44-0.13-0.67l1.4-4.74c0.1-0.33,0-0.66-0.25-0.89
				c-0.25-0.23-0.59-0.3-0.91-0.17l-4.62,1.77c-0.22,0.08-0.48,0.06-0.68-0.08l-4.08-2.8C228.8,565.82,228.63,565.76,228.45,565.76z
				"/>
		</g>
	</g>
	<g>
		<g>
			<path class="st13" d="M262.78,670.01l4.08,2.8l4.62-1.77c1.25-0.48,2.5,0.68,2.12,1.96l-1.4,4.74l3.11,3.84
				c0.84,1.04,0.13,2.59-1.21,2.63l-4.94,0.13l-2.69,4.15c-0.73,1.12-2.42,0.92-2.87-0.34l-1.65-4.66l-4.78-1.28
				c-1.29-0.35-1.63-2.02-0.57-2.84l3.92-3.01l-0.26-4.94C260.19,670.09,261.68,669.25,262.78,670.01z"/>
		</g>
		<g>
			<path class="st14" d="M275.32,681.58c0.84,1.04,0.13,2.59-1.21,2.63l-4.94,0.13l-2.69,4.15c-0.73,1.12-2.42,0.92-2.87-0.34
				l-0.51-1.45c0.69,0.33,1.59,0.17,2.07-0.57l2.69-4.15l4.94-0.13c0.88-0.02,1.49-0.7,1.57-1.46L275.32,681.58z"/>
		</g>
		<g class="st4">
			<path class="st5" d="M256.6,679.38l4.56-3.47l0.07,1.39l-3.82,2.9l-0.39-0.1c-0.3-0.08-0.54-0.24-0.71-0.44
				C256.4,679.55,256.49,679.46,256.6,679.38z"/>
		</g>
		<g class="st4">
			<path class="st5" d="M271.85,670.94c0.08,0.26,0.09,0.54,0,0.84l-0.23,0.79c-0.13,0.01-0.26,0.05-0.39,0.1l-4.62,1.77l-4.08-2.8
				c-0.79-0.54-1.77-0.27-2.25,0.42l-0.03-0.64c-0.07-1.34,1.42-2.17,2.52-1.42l4.08,2.8l4.62-1.77
				C271.6,670.98,271.73,670.95,271.85,670.94z"/>
		</g>
		<g>
			<path class="st14" d="M262.72,683.64l-5.55-1.43c-1.04-0.28-1.46-1.42-1.03-2.28l5.79,1.49L262.72,683.64z"/>
		</g>
		<g>
			<path class="st14" d="M273.6,672.99l-1.71,5.4l-1.48-1.82l1.78-5.64C273.15,671.01,273.91,671.96,273.6,672.99z"/>
		</g>
		<g>
			<path class="st15" d="M265.12,689.31c-0.07,0-0.13,0-0.2-0.01c-0.65-0.08-1.18-0.5-1.4-1.12l-1.64-4.62l-4.73-1.27
				c-0.63-0.17-1.1-0.67-1.22-1.31c-0.13-0.64,0.11-1.28,0.63-1.68l3.89-2.99l-0.26-4.89c-0.03-0.65,0.3-1.25,0.86-1.57
				c0.57-0.32,1.25-0.29,1.79,0.08l4.04,2.77l4.58-1.76c0.61-0.23,1.28-0.11,1.76,0.34c0.48,0.44,0.66,1.1,0.48,1.73l-1.39,4.7
				l3.09,3.81c0.41,0.5,0.5,1.19,0.22,1.78s-0.84,0.97-1.49,0.99l-4.9,0.13l-2.67,4.11C266.22,689.02,265.69,689.31,265.12,689.31z
				 M261.87,669.8c-0.26,0-0.51,0.07-0.75,0.2c-0.52,0.29-0.81,0.82-0.78,1.41l0.26,4.98l-0.03,0.03l-3.92,3.01
				c-0.47,0.36-0.68,0.93-0.57,1.51c0.12,0.58,0.53,1.03,1.1,1.18l4.82,1.29l0.01,0.04l1.65,4.66c0.2,0.56,0.67,0.94,1.26,1.01
				c0.59,0.06,1.14-0.19,1.46-0.69l2.72-4.18h0.04l4.94-0.13c0.59-0.02,1.1-0.35,1.35-0.89c0.25-0.54,0.17-1.14-0.2-1.6l-3.14-3.88
				l0.01-0.04l1.4-4.74c0.17-0.57,0.01-1.15-0.43-1.56c-0.43-0.4-1.04-0.51-1.59-0.3l-4.66,1.79l-0.04-0.02l-4.08-2.8
				C262.47,669.89,262.17,669.8,261.87,669.8z"/>
		</g>
		<g>
			<path class="st15" d="M265.12,689.96c-0.09,0-0.19-0.01-0.28-0.02c-0.89-0.11-1.64-0.7-1.94-1.55l-1.52-4.3l-4.4-1.18
				c-0.87-0.23-1.52-0.93-1.7-1.81s0.16-1.77,0.87-2.32l3.61-2.78l-0.24-4.55c-0.05-0.9,0.41-1.73,1.2-2.17s1.74-0.4,2.48,0.11l0,0
				l3.76,2.58l4.26-1.63c0.84-0.32,1.77-0.14,2.44,0.47c0.66,0.61,0.91,1.53,0.66,2.39l-1.29,4.37l2.87,3.54
				c0.57,0.7,0.69,1.64,0.31,2.46s-1.17,1.34-2.07,1.37l-4.56,0.12l-2.48,3.82C266.65,689.57,265.91,689.96,265.12,689.96z
				 M261.87,670.46c-0.15,0-0.29,0.04-0.43,0.12c-0.3,0.17-0.46,0.47-0.45,0.81l0.26,4.94c0.01,0.24-0.09,0.48-0.29,0.62l-3.92,3.01
				c-0.27,0.21-0.39,0.53-0.33,0.87c0.07,0.33,0.3,0.59,0.63,0.67l4.78,1.28c0.23,0.06,0.42,0.24,0.5,0.46l1.65,4.66
				c0.11,0.32,0.38,0.54,0.72,0.58c0.34,0.04,0.65-0.11,0.84-0.39l2.69-4.15c0.13-0.2,0.36-0.33,0.6-0.33l4.94-0.13
				c0.34-0.01,0.63-0.2,0.77-0.51c0.14-0.31,0.1-0.65-0.12-0.92l-3.11-3.84c-0.15-0.19-0.2-0.44-0.13-0.67l1.4-4.74
				c0.1-0.33,0-0.66-0.25-0.89c-0.25-0.23-0.59-0.3-0.91-0.17l-4.62,1.77c-0.23,0.09-0.48,0.06-0.68-0.08l-4.08-2.8
				C262.21,670.51,262.04,670.46,261.87,670.46z"/>
		</g>
	</g>
	<g>
		<g>
			<path class="st13" d="M613.47,596.78l4.08,2.8l4.62-1.77c1.25-0.48,2.5,0.68,2.12,1.96l-1.4,4.74l3.11,3.84
				c0.84,1.04,0.13,2.59-1.21,2.63l-4.94,0.13l-2.69,4.15c-0.73,1.12-2.42,0.92-2.87-0.34l-1.65-4.66l-4.78-1.28
				c-1.29-0.35-1.63-2.02-0.57-2.84l3.92-3.01l-0.26-4.94C610.88,596.86,612.37,596.02,613.47,596.78z"/>
		</g>
		<g>
			<path class="st14" d="M626,608.35c0.84,1.04,0.13,2.59-1.21,2.63l-4.94,0.13l-2.69,4.15c-0.73,1.12-2.42,0.92-2.87-0.34
				l-0.51-1.45c0.69,0.33,1.59,0.17,2.07-0.57l2.69-4.15l4.94-0.13c0.88-0.02,1.49-0.7,1.57-1.46L626,608.35z"/>
		</g>
		<g class="st4">
			<path class="st5" d="M607.29,606.15l4.56-3.47l0.07,1.39l-3.82,2.9l-0.39-0.1c-0.3-0.08-0.54-0.24-0.71-0.44
				C607.09,606.32,607.18,606.23,607.29,606.15z"/>
		</g>
		<g class="st4">
			<path class="st5" d="M622.54,597.71c0.08,0.26,0.09,0.54,0,0.84l-0.23,0.79c-0.13,0.01-0.26,0.05-0.39,0.09l-4.62,1.77l-4.08-2.8
				c-0.79-0.54-1.77-0.27-2.25,0.42l-0.03-0.64c-0.07-1.34,1.42-2.17,2.52-1.42l4.08,2.8l4.62-1.77
				C622.29,597.76,622.41,597.72,622.54,597.71z"/>
		</g>
		<g>
			<path class="st14" d="M613.4,610.41l-5.55-1.43c-1.04-0.28-1.46-1.42-1.03-2.28l5.79,1.49L613.4,610.41z"/>
		</g>
		<g>
			<path class="st14" d="M624.29,599.76l-1.71,5.4l-1.48-1.82l1.78-5.64C623.84,597.78,624.59,598.73,624.29,599.76z"/>
		</g>
		<g>
			<path class="st15" d="M615.81,616.08c-0.07,0-0.13,0-0.2-0.01c-0.65-0.08-1.18-0.5-1.4-1.12l-1.64-4.62l-4.74-1.27
				c-0.63-0.17-1.1-0.67-1.22-1.31c-0.13-0.64,0.11-1.28,0.63-1.68l3.89-2.99l-0.26-4.9c-0.03-0.65,0.3-1.25,0.86-1.57
				c0.57-0.32,1.25-0.29,1.79,0.08l4.04,2.77l4.58-1.76c0.61-0.23,1.28-0.1,1.76,0.34s0.66,1.1,0.48,1.73l-1.39,4.7l3.09,3.81
				c0.41,0.51,0.5,1.19,0.22,1.78c-0.27,0.59-0.84,0.97-1.49,0.98l-4.9,0.13l-2.67,4.11C616.91,615.79,616.38,616.08,615.81,616.08z
				 M612.56,596.58c-0.26,0-0.51,0.07-0.75,0.2c-0.52,0.29-0.81,0.82-0.78,1.41l0.26,4.98l-0.03,0.03l-3.92,3.01
				c-0.47,0.36-0.68,0.93-0.57,1.51c0.12,0.58,0.53,1.03,1.1,1.18l4.82,1.29l0.01,0.04l1.65,4.66c0.2,0.55,0.68,0.94,1.26,1.01
				c0.59,0.08,1.14-0.19,1.46-0.69l2.72-4.18h0.04l4.94-0.13c0.59-0.02,1.1-0.35,1.35-0.89c0.25-0.53,0.17-1.15-0.2-1.6l-3.14-3.88
				l0.01-0.04l1.4-4.74c0.17-0.57,0.01-1.15-0.43-1.56c-0.44-0.4-1.03-0.52-1.59-0.3l-4.66,1.79l-0.04-0.02l-4.08-2.8
				C613.16,596.67,612.86,596.58,612.56,596.58z"/>
		</g>
		<g>
			<path class="st15" d="M615.81,616.73c-0.09,0-0.19-0.01-0.28-0.02c-0.89-0.11-1.64-0.7-1.94-1.55l-1.52-4.3l-4.4-1.18
				c-0.87-0.23-1.52-0.93-1.7-1.81s0.16-1.77,0.87-2.32l3.61-2.78l-0.24-4.55c-0.05-0.9,0.41-1.73,1.2-2.17
				c0.79-0.44,1.74-0.4,2.48,0.11l0,0l3.76,2.58l4.25-1.64c0.84-0.32,1.78-0.14,2.44,0.47s0.91,1.53,0.66,2.39l-1.29,4.37l2.87,3.54
				c0.57,0.7,0.69,1.65,0.31,2.46c-0.38,0.82-1.17,1.34-2.07,1.36l-4.56,0.13l-2.48,3.82C617.33,616.34,616.6,616.73,615.81,616.73z
				 M612.56,597.23c-0.15,0-0.29,0.04-0.43,0.12c-0.3,0.17-0.46,0.47-0.45,0.81l0.26,4.94c0.01,0.24-0.09,0.48-0.29,0.62l-3.92,3.01
				c-0.27,0.21-0.39,0.53-0.33,0.87c0.07,0.33,0.3,0.59,0.63,0.67l4.78,1.28c0.23,0.06,0.42,0.24,0.5,0.47l1.65,4.66
				c0.11,0.32,0.38,0.54,0.72,0.58c0.34,0.04,0.65-0.11,0.84-0.39l2.69-4.15c0.13-0.2,0.36-0.33,0.6-0.33l4.94-0.13
				c0.34-0.01,0.63-0.2,0.77-0.51s0.1-0.65-0.12-0.92l-3.11-3.84c-0.15-0.19-0.2-0.44-0.13-0.67l1.4-4.74c0.1-0.33,0-0.66-0.25-0.89
				c-0.25-0.23-0.59-0.3-0.91-0.17l-4.62,1.77c-0.23,0.09-0.48,0.05-0.68-0.08l-4.08-2.8C612.9,597.28,612.73,597.23,612.56,597.23z
				"/>
		</g>
	</g>
	<g>
		<g>
			<path class="st13" d="M551.42,759.77l0.96,4.85l4.54,1.96c1.23,0.53,1.32,2.24,0.15,2.89l-4.32,2.42l-0.46,4.92
				c-0.12,1.33-1.72,1.94-2.7,1.04l-3.63-3.36l-4.82,1.09c-1.3,0.29-2.38-1.03-1.82-2.25l2.07-4.49l-2.53-4.25
				c-0.68-1.15,0.25-2.58,1.58-2.42l4.91,0.58l3.26-3.72C549.51,758.01,551.16,758.46,551.42,759.77z"/>
		</g>
		<g>
			<path class="st14" d="M552.31,776.8c-0.12,1.33-1.72,1.94-2.7,1.03l-3.63-3.36l-4.82,1.09c-1.3,0.29-2.38-1.03-1.82-2.25
				l0.64-1.39c0.26,0.72,1.02,1.23,1.88,1.03l4.82-1.09l3.63,3.36c0.65,0.6,1.56,0.54,2.14,0.05L552.31,776.8z"/>
		</g>
		<g class="st4">
			<path class="st5" d="M540.45,762.15l5.69,0.7l-0.92,1.05l-4.76-0.59l-0.2-0.34c-0.16-0.26-0.22-0.54-0.2-0.81
				C540.19,762.14,540.32,762.14,540.45,762.15z"/>
		</g>
		<g class="st4">
			<path class="st5" d="M557.26,766.77c-0.12,0.24-0.31,0.45-0.58,0.6l-0.72,0.4c-0.1-0.08-0.22-0.15-0.34-0.2l-4.54-1.95
				l-0.96-4.85c-0.19-0.94-1.08-1.43-1.9-1.27l0.42-0.48c0.88-1,2.53-0.56,2.79,0.75l0.97,4.85l4.54,1.96
				C557.05,766.63,557.16,766.69,557.26,766.77z"/>
		</g>
		<g>
			<path class="st14" d="M541.85,769.48l-2.98-4.9c-0.55-0.92-0.05-2.03,0.86-2.34l3.1,5.11L541.85,769.48z"/>
		</g>
		<g>
			<path class="st14" d="M557.08,769.46l-4.99,2.67l0.22-2.34l5.21-2.79C558.14,767.73,558.02,768.93,557.08,769.46z"/>
		</g>
		<g>
			<path class="st15" d="M550.7,778.35c-0.42,0-0.83-0.16-1.15-0.45l-3.6-3.33l-4.78,1.08c-0.63,0.15-1.28-0.08-1.69-0.59
				s-0.49-1.19-0.22-1.78l2.05-4.45l-2.5-4.21c-0.33-0.56-0.32-1.24,0.04-1.79c0.35-0.54,0.97-0.84,1.62-0.76l4.87,0.58l3.24-3.68
				c0.43-0.49,1.09-0.69,1.71-0.52c0.63,0.17,1.1,0.67,1.22,1.31l0.96,4.81l4.5,1.94c0.6,0.26,0.99,0.82,1.02,1.47
				c0.03,0.65-0.3,1.25-0.87,1.57l-4.28,2.4l-0.45,4.88c-0.06,0.65-0.47,1.19-1.08,1.43C551.11,778.31,550.9,778.35,550.7,778.35z
				 M546,774.39l0.03,0.03l3.63,3.36c0.44,0.4,1.03,0.52,1.59,0.3c0.56-0.21,0.92-0.69,0.98-1.29l0.46-4.97l0.04-0.02l4.32-2.42
				c0.52-0.29,0.81-0.82,0.78-1.41c-0.03-0.59-0.38-1.09-0.92-1.33l-4.58-1.97l-0.01-0.04l-0.97-4.85c-0.11-0.57-0.54-1.03-1.1-1.18
				c-0.58-0.16-1.15,0.02-1.54,0.47l-3.29,3.75l-0.04-0.01l-4.91-0.58c-0.59-0.06-1.14,0.19-1.46,0.69s-0.34,1.1-0.03,1.61
				l2.55,4.29l-0.02,0.04l-2.07,4.49c-0.25,0.54-0.17,1.14,0.2,1.6c0.38,0.46,0.95,0.66,1.53,0.53L546,774.39z"/>
		</g>
		<g>
			<path class="st15" d="M550.69,779c-0.58,0-1.14-0.22-1.59-0.63l-3.35-3.09l-4.45,1c-0.88,0.2-1.78-0.12-2.34-0.81
				c-0.57-0.7-0.68-1.64-0.31-2.46l1.91-4.14l-2.33-3.92c-0.46-0.77-0.44-1.72,0.05-2.48s1.35-1.16,2.25-1.05l4.53,0.54l3.01-3.42
				c0.59-0.68,1.5-0.95,2.37-0.72c0.87,0.23,1.52,0.93,1.7,1.81l0.89,4.47l4.19,1.8c0.83,0.36,1.37,1.14,1.42,2.04
				c0.05,0.9-0.41,1.73-1.2,2.17l-3.98,2.23l-0.42,4.54c-0.08,0.9-0.66,1.65-1.5,1.98C551.26,778.95,550.98,779,550.69,779z
				 M545.97,773.74c0.18,0,0.36,0.07,0.5,0.2l3.63,3.36c0.25,0.23,0.59,0.3,0.91,0.17c0.32-0.12,0.53-0.4,0.56-0.74l0.46-4.93
				c0.02-0.24,0.16-0.46,0.37-0.58l4.32-2.42c0.3-0.17,0.46-0.47,0.45-0.81c-0.02-0.34-0.21-0.63-0.53-0.76l-4.54-1.95
				c-0.22-0.1-0.38-0.3-0.43-0.53l-0.97-4.85l0,0c-0.07-0.33-0.3-0.59-0.63-0.67c-0.33-0.09-0.66,0.01-0.88,0.27l-3.26,3.72
				c-0.16,0.18-0.4,0.27-0.64,0.25l-4.91-0.58c-0.34-0.04-0.65,0.11-0.84,0.39c-0.19,0.29-0.19,0.63-0.02,0.92l2.53,4.25
				c0.12,0.21,0.14,0.46,0.04,0.69l-2.07,4.49c-0.14,0.31-0.1,0.65,0.11,0.92c0.21,0.26,0.54,0.38,0.87,0.3l4.82-1.09
				C545.87,773.75,545.92,773.74,545.97,773.74z"/>
		</g>
	</g>
	<g>
		<g>
			<path class="st13" d="M194.58,719.23l0.77,4.89l4.46,2.13c1.21,0.58,1.23,2.29,0.04,2.89l-4.41,2.24l-0.65,4.9
				c-0.18,1.32-1.79,1.87-2.74,0.93l-3.5-3.5l-4.86,0.9c-1.31,0.24-2.34-1.13-1.73-2.32l2.25-4.41l-2.35-4.35
				c-0.64-1.18,0.35-2.57,1.67-2.36l4.88,0.78l3.41-3.58C192.74,717.4,194.38,717.91,194.58,719.23z"/>
		</g>
		<g>
			<path class="st14" d="M194.79,736.29c-0.18,1.33-1.8,1.87-2.74,0.93l-3.49-3.5l-4.86,0.89c-1.31,0.24-2.34-1.13-1.73-2.32
				l0.7-1.37c0.23,0.73,0.97,1.27,1.83,1.11l4.86-0.89l3.49,3.5c0.62,0.62,1.54,0.6,2.14,0.13L194.79,736.29z"/>
		</g>
		<g class="st4">
			<path class="st5" d="M183.53,721.18l5.66,0.93l-0.96,1.01l-4.73-0.78l-0.19-0.35c-0.15-0.27-0.2-0.55-0.17-0.82
				C183.27,721.15,183.4,721.16,183.53,721.18z"/>
		</g>
		<g class="st4">
			<path class="st5" d="M200.14,726.46c-0.13,0.24-0.33,0.44-0.6,0.58l-0.74,0.38c-0.1-0.08-0.21-0.16-0.34-0.22l-4.46-2.13
				l-0.77-4.89c-0.15-0.94-1.03-1.47-1.85-1.34l0.44-0.46c0.92-0.97,2.55-0.46,2.76,0.86l0.77,4.88l4.46,2.13
				C199.94,726.31,200.05,726.38,200.14,726.46z"/>
		</g>
		<g>
			<path class="st14" d="M184.64,728.55l-2.78-5.01c-0.51-0.95,0.03-2.03,0.95-2.31l2.9,5.23L184.64,728.55z"/>
		</g>
		<g>
			<path class="st14" d="M199.85,729.14l-5.1,2.47l0.31-2.33l5.32-2.58C200.98,727.45,200.81,728.65,199.85,729.14z"/>
		</g>
		<g>
			<path class="st15" d="M193.19,737.77c-0.44,0-0.87-0.17-1.19-0.5l-3.47-3.47l-4.82,0.89c-0.64,0.12-1.28-0.13-1.67-0.65
				s-0.45-1.21-0.15-1.78l2.23-4.37l-2.33-4.31c-0.31-0.57-0.27-1.25,0.11-1.79c0.38-0.53,1.01-0.8,1.65-0.7l4.84,0.77l3.38-3.55
				c0.45-0.47,1.11-0.64,1.73-0.45s1.07,0.71,1.17,1.36l0.76,4.84l4.42,2.12c0.59,0.28,0.96,0.86,0.96,1.51
				c0.01,0.65-0.35,1.24-0.93,1.53l-4.37,2.22l-0.65,4.86c-0.09,0.64-0.52,1.17-1.14,1.38
				C193.56,737.74,193.37,737.77,193.19,737.77z M188.59,733.62l0.03,0.03l3.5,3.5c0.42,0.42,1.01,0.56,1.57,0.37
				c0.56-0.19,0.95-0.67,1.03-1.25l0.66-4.94l0.04-0.02l4.41-2.24c0.53-0.27,0.84-0.79,0.84-1.38c-0.01-0.59-0.33-1.1-0.87-1.36
				l-4.5-2.15l-0.01-0.04l-0.77-4.88c-0.09-0.58-0.5-1.05-1.06-1.22c-0.57-0.18-1.15-0.02-1.56,0.41l-3.44,3.61l-0.04-0.01
				l-4.89-0.78c-0.59-0.09-1.14,0.14-1.49,0.63c-0.34,0.49-0.38,1.09-0.1,1.61l2.38,4.39l-0.02,0.04l-2.25,4.41
				c-0.27,0.52-0.21,1.14,0.14,1.61c0.36,0.48,0.92,0.7,1.5,0.59L188.59,733.62z"/>
		</g>
		<g>
			<path class="st15" d="M193.19,738.42c-0.61,0-1.21-0.24-1.66-0.69l-3.22-3.22l-4.48,0.82c-0.89,0.17-1.77-0.18-2.31-0.91
				c-0.54-0.72-0.62-1.67-0.21-2.47l2.07-4.06l-2.17-4.01c-0.43-0.79-0.37-1.74,0.15-2.48c0.52-0.73,1.4-1.1,2.29-0.96l4.5,0.72
				l3.14-3.3c0.62-0.65,1.54-0.89,2.4-0.62s1.48,0.99,1.62,1.88l0,0l0.71,4.5l4.11,1.97c0.81,0.39,1.32,1.19,1.34,2.09
				c0.01,0.9-0.48,1.71-1.28,2.12l-4.06,2.07l-0.6,4.52c-0.12,0.89-0.72,1.63-1.58,1.92C193.7,738.38,193.44,738.42,193.19,738.42z
				 M188.56,732.98c0.19,0,0.38,0.08,0.52,0.22l3.5,3.5c0.24,0.24,0.58,0.32,0.9,0.21c0.32-0.11,0.54-0.38,0.59-0.72l0.65-4.9
				c0.03-0.24,0.18-0.45,0.4-0.56l4.41-2.24c0.3-0.15,0.48-0.45,0.48-0.79c0-0.34-0.19-0.63-0.5-0.78l-4.46-2.13
				c-0.22-0.1-0.37-0.31-0.41-0.55l-0.77-4.88c-0.05-0.34-0.28-0.6-0.61-0.7c-0.33-0.1-0.66-0.01-0.89,0.23l-3.41,3.59
				c-0.17,0.18-0.41,0.26-0.65,0.22l-4.88-0.78c-0.34-0.05-0.66,0.08-0.85,0.36c-0.2,0.28-0.22,0.62-0.05,0.92l2.36,4.35
				c0.12,0.21,0.12,0.47,0.01,0.69l-2.25,4.41c-0.16,0.3-0.13,0.65,0.08,0.92c0.2,0.27,0.52,0.4,0.86,0.34l4.86-0.89
				C188.47,732.98,188.51,732.98,188.56,732.98z"/>
		</g>
	</g>
	<g>
		<circle class="st16" cx="250.95" cy="632.29" r="4.41"/>
	</g>
	<g>
		
			<ellipse transform="matrix(0.2982 -0.9545 0.9545 0.2982 -402.2497 671.1987)" class="st5" cx="255.33" cy="609.15" rx="2.17" ry="2.17"/>
	</g>
	<g>
		<circle class="st16" cx="187.93" cy="597.24" r="3.26"/>
	</g>
	<g>
		<path class="st5" d="M164.67,653.06c0,1.15-0.93,2.08-2.08,2.08c-1.15,0-2.08-0.93-2.08-2.08s0.93-2.08,2.08-2.08
			C163.74,650.98,164.67,651.91,164.67,653.06z"/>
	</g>
	<g>
		<circle class="st5" cx="232.67" cy="701.58" r="2.28"/>
	</g>
	<g>
		<circle class="st16" cx="253.19" cy="746.6" r="3.92"/>
	</g>
	<g>
		
			<ellipse transform="matrix(0.1602 -0.9871 0.9871 0.1602 -608.3285 816.7264)" class="st5" cx="175.82" cy="765.87" rx="2.51" ry="2.51"/>
	</g>
	<g>
		<circle class="st5" cx="497.53" cy="771.87" r="3.2"/>
	</g>
	<g>
		<ellipse class="st5" cx="492.19" cy="728.56" rx="3.06" ry="3.06"/>
	</g>
	<g>
		<ellipse class="st5" cx="344.53" cy="787.14" rx="2.39" ry="2.39"/>
	</g>
	<g>
		<ellipse class="st16" cx="615.57" cy="742.75" rx="6.71" ry="6.71"/>
	</g>
	<g>
		<ellipse class="st16" cx="624.35" cy="659.98" rx="4.43" ry="4.43"/>
	</g>
	<g>
		<circle class="st5" cx="626.36" cy="574.78" r="5.33"/>
	</g>
</g>
</svg>
