<?xml version="1.0" encoding="utf-8"?>
<!-- Generator: Adobe Illustrator 25.0.0, SVG Export Plug-In . SVG Version: 6.00 Build 0)  -->
<svg version="1.1" id="Layer_1" xmlns="http://www.w3.org/2000/svg" xmlns:xlink="http://www.w3.org/1999/xlink" x="0px" y="0px"
	 viewBox="0 0 1000 1000" style="enable-background:new 0 0 1000 1000;" xml:space="preserve">
<style type="text/css">
	.st0{fill:#FFFFFF;}
	.st1{fill:#371A45;}
	.st2{opacity:0.25;}
	.st3{opacity:0.7;}
	.st4{fill:#111A28;}
	.st5{opacity:0.5;}
	.st6{fill:#F8F8F8;}
	.st7{fill:#EA2A2A;}
	.st8{opacity:0.6;}
	.st9{fill:#C99335;}
	.st10{fill:#73C61A;}
	.st11{fill:#FBB987;}
	.st12{fill:#F244A8;}
	.st13{fill:#FFB839;}
	.st14{fill:#FFA64D;}
	.st15{fill:#10AFFF;}
</style>
<g>
	<g>
		<path class="st0" d="M347.33,245.69c0,0-33.66,47.24-9.43,112.54c24.24,65.31-16.83,115.13-16.83,115.13s-18.23,79.86,48.11,122.4
			c66.34,42.54,62.75-119.49,58.49-144.85s-50.58-166.74-50.58-166.74"/>
	</g>
	<g>
		<path class="st1" d="M389.43,607.59c-7,0-14.62-2.62-22.79-7.86c-28.31-18.15-45.96-45.97-51.05-80.43
			c-3.82-25.86,0.69-46.14,0.89-46.99c0.16-0.72,0.49-1.38,0.96-1.95c0.39-0.47,39.01-48.62,16.05-110.49
			c-24.82-66.88,8.57-114.91,10.01-116.92l7.68,5.47l-3.84-2.74l3.84,2.73c-0.32,0.45-31.87,46.14-8.85,108.17
			c13.01,35.05,7.56,65.71,0.7,85.25c-6.37,18.15-14.96,30.16-17.56,33.55c-0.81,4.25-3.68,21.76-0.51,42.85
			c4.81,31.99,20.55,56.74,46.77,73.56c11.1,7.12,20.05,8.23,27.37,3.39c28.84-19.04,27.62-121.54,23.93-143.49
			c-4.16-24.72-49.94-164.65-50.41-166.06l8.96-2.93c1.9,5.79,46.47,142.01,50.74,167.43c3.45,20.52,7.17,129.68-28.03,152.92
			C399.71,606.08,394.75,607.59,389.43,607.59z"/>
	</g>
	<g>
		<g>
			<path class="st0" d="M588.21,426.9c0,78.82-63.91,142.73-142.73,142.73c-49.17,0-92.53-24.87-118.2-62.72
				c-15.48-22.81-24.53-50.36-24.53-80.01c0-53.35,29.27-99.86,72.63-124.35c20.71-11.7,44.62-18.38,70.1-18.38
				C524.3,284.17,588.21,348.08,588.21,426.9z"/>
		</g>
		<g class="st2">
			<path class="st1" d="M588.21,426.9c0,78.13-62.78,141.6-140.64,142.7c59.56-17.17,103.14-72.08,103.14-137.18
				c0-78.82-63.91-142.73-142.73-142.73c-0.66,0-1.33,0-1.98,0.02c12.53-3.62,25.79-5.55,39.48-5.55
				C524.3,284.18,588.21,348.07,588.21,426.9z"/>
		</g>
		<g>
			<path class="st1" d="M549.53,450.91c-17.5,106.15-171.51,112.62-222.25,56c-15.48-22.81-24.53-50.36-24.53-80.01
				c0-53.35,29.27-99.86,72.63-124.35C464.87,281.92,578.26,326.36,549.53,450.91z"/>
		</g>
		<g class="st3">
			<path class="st4" d="M549.53,450.91c-17.5,106.15-176.12,101.22-222.25,56c-11.96-17.6-20.06-38.03-23.15-60.07
				c22.9,23.25,55.81,37.84,92.37,37.84c69.18,0,125.27-52.2,125.27-116.61c0-14.26-2.75-27.91-7.78-40.54
				C545.47,352.29,562.9,392.92,549.53,450.91z"/>
		</g>
		<g>
			<path class="st1" d="M420.34,547.39c-12.38,0-24.67-1.31-36.38-3.94c-26.09-5.86-47.37-17.97-59.91-34.1l6.38-4.96
				c23.34,30.02,79.4,42.88,130.4,29.92c47-11.94,77.87-42.58,84.71-84.06c0.01-0.08,0.03-0.17,0.05-0.25
				c10.58-45.86,2.03-84.23-24.72-110.99c-32.01-32.01-90.12-45.08-144.6-32.53l-1.81-7.87c27.18-6.27,55.62-6.62,82.25-1.04
				c28.27,5.93,52.43,18.28,69.88,35.73c20.08,20.08,41.04,56.92,26.91,118.39c-7.43,44.74-40.47,77.7-90.67,90.45
				C449.08,545.64,434.66,547.39,420.34,547.39z"/>
		</g>
		<g>
			<path class="st1" d="M445.48,574.35c-48.95,0-94.59-24.22-122.1-64.79c-16.58-24.42-25.35-53.01-25.35-82.65
				c0-53.09,28.75-102.31,75.03-128.45c21.99-12.42,47.03-18.99,72.42-18.99c81.3,0,147.44,66.14,147.44,147.44
				S526.78,574.35,445.48,574.35z M445.48,288.89c-23.77,0-47.21,6.14-67.78,17.77c-43.32,24.47-70.24,70.55-70.24,120.25
				c0,27.75,8.2,54.5,23.72,77.36c25.75,37.98,68.48,60.65,114.3,60.65c76.1,0,138.02-61.91,138.02-138.02
				S521.58,288.89,445.48,288.89z"/>
		</g>
		<g>
			<path class="st1" d="M428.81,559.94c-22.86,0-45.92-4.28-67.46-12.9l3-7.5c44.31,17.72,95.35,16.27,136.54-3.89
				c25.61-12.54,44.05-30.96,49.31-49.27l7.76,2.23c-5.88,20.47-25.89,40.77-53.52,54.3C481.29,554.24,455.19,559.94,428.81,559.94z
				"/>
		</g>
		<g class="st5">
			<path class="st6" d="M334.54,417.52c9.02-65.81,29.79-118.78,123.92-91.61C405.14,329.82,366.57,366.44,334.54,417.52z"/>
		</g>
		<g class="st5">
			<path class="st6" d="M497.28,445.46c-4.71,7.95-12.1,19.38-21.51,30.54c-3.05,3.62-2.75,9,0.67,12.27l0,0
				c3.42,3.27,8.8,3.35,12.29,0.16c10.82-9.91,19.26-21.42,24.82-34.89c1.34-3.24,0.56-6.97-1.85-9.51l-0.17-0.17
				C507.41,439.53,500.32,440.33,497.28,445.46z"/>
		</g>
		<g class="st5">
			<ellipse class="st6" cx="439.79" cy="498.42" rx="12.12" ry="9.05"/>
		</g>
		<g>
			<ellipse class="st0" cx="568.35" cy="426.45" rx="40.26" ry="43.09"/>
		</g>
		<g class="st2">
			<path class="st1" d="M608.61,426.46c0,23.79-18.02,43.09-40.25,43.09c-10.77,0-20.55-4.53-27.77-11.9
				c17.74-4.5,30.94-21.56,30.94-41.92c0-12.27-4.79-23.35-12.48-31.19c2.98-0.77,6.11-1.16,9.31-1.16
				C590.59,383.37,608.61,402.65,608.61,426.46z"/>
		</g>
		<g>
			<path class="st1" d="M568.35,473.58c-24.42,0-44.29-21.14-44.29-47.13s19.87-47.13,44.29-47.13s44.29,21.14,44.29,47.13
				S592.78,473.58,568.35,473.58z M568.35,387.41c-19.97,0-36.22,17.52-36.22,39.05s16.25,39.05,36.22,39.05
				s36.21-17.52,36.21-39.05C604.57,404.92,588.32,387.41,568.35,387.41z"/>
		</g>
		<g>
			<path class="st1" d="M571.52,454.63c-15.04,0-27.28-13.29-27.28-29.64s12.24-29.64,27.28-29.64c15.04,0,27.28,13.29,27.28,29.64
				S586.56,454.63,571.52,454.63z M571.52,402.79c-10.94,0-19.85,9.96-19.85,22.2c0,12.24,8.9,22.2,19.85,22.2
				s19.85-9.96,19.85-22.2C591.37,412.75,582.47,402.79,571.52,402.79z"/>
		</g>
	</g>
	<g>
		<path class="st7" d="M649.62,218.35c-2.9,109.14-89.73,154.36-172.57,146.24H477c-79.21-7.77-154.76-64.3-149.74-160.36
			c0.78-14.9,10.25-28,24.16-33.4c70.74-27.47,267.32-13.61,295.03,37.27C648.24,211.37,649.32,214.78,649.62,218.35z"/>
	</g>
	<g class="st8">
		<path class="st0" d="M584.74,341.27c-96.29,60.59-264.9,4.94-257.47-137.04c0.77-14.65,9.93-27.56,23.47-33.12
			c-8.53,6.66-13.98,16.81-14.56,27.95C328.96,336.77,487.34,393.25,584.74,341.27z"/>
	</g>
	<g>
		<path class="st0" d="M327.05,215.31c34.47,65.82,269.72,82.49,319.79,28.47l-7.33,29.84c-47.97,41.77-237.23,42.87-309.13-27.93"
			/>
	</g>
	<g>
		<path class="st9" d="M624.49,228.07c0,0-2.7-11.35-34.34-19.7c6.67,8.33,11.68,17.01,13.15,26.43L624.49,228.07z"/>
	</g>
	<g>
		<path class="st1" d="M496,369.24c-3.73,0-7.49-0.11-11.27-0.32c-33.15-1.88-64.76-11.85-91.41-28.84
			c-47.98-30.57-72.76-78.89-69.77-136.05c0.86-16.35,11.27-30.75,26.53-36.67c29.78-11.56,83.93-16.53,141.32-12.97
			c59.79,3.71,111.59,15.96,138.56,32.76c14.51,9.04,22.37,19.43,23.36,30.88c0.01,0.14,0.02,0.28,0.01,0.42
			c-1.58,59.53-28.56,106.2-75.97,131.39C553.35,362.61,525.42,369.24,496,369.24z M455.19,160.84c-41.25,0-79.33,4.49-102.43,13.45
			c-12.54,4.87-21.09,16.69-21.79,30.13c-2.85,54.37,20.71,100.32,66.34,129.39c52.88,33.69,123.83,37.5,176.57,9.47
			c44.88-23.85,70.45-68.17,72.02-124.81c-0.86-8.92-7.54-17.34-19.86-25.01C591.09,171.69,519.32,160.84,455.19,160.84z"/>
	</g>
	<g>
		<polyline class="st10" points="467.64,173.59 471.45,139.07 508.57,146.64 501.55,181.65 517.66,156.57 549.31,165.56 
			533.48,193.33 		"/>
	</g>
	<g class="st8">
		<polygon class="st0" points="506.07,154.02 470.42,146.74 467.42,173.84 466.61,173.59 470.42,139.06 507.54,146.64 		"/>
	</g>
	<g class="st8">
		<polygon class="st0" points="548.27,165.55 544.51,172.18 516.63,164.25 503.53,184.66 501.57,184.07 502.76,178.17 
			516.63,156.57 		"/>
	</g>
	<g>
		<path class="st1" d="M533.48,196.43c-0.52,0-1.05-0.13-1.53-0.41c-1.49-0.85-2-2.74-1.16-4.22l13.87-24.34l-25.63-7.28
			l-14.87,23.15c-0.8,1.25-2.39,1.76-3.77,1.2c-1.38-0.56-2.17-2.02-1.87-3.48l6.42-31.98l-30.77-6.28l-3.44,31.15
			c-0.19,1.7-1.72,2.92-3.42,2.74c-1.7-0.19-2.93-1.72-2.74-3.42l3.81-34.52c0.1-0.87,0.55-1.65,1.25-2.16
			c0.7-0.51,1.59-0.71,2.44-0.53l37.12,7.57c1.67,0.34,2.75,1.97,2.42,3.64l-3.8,18.92l7.24-11.28c0.74-1.15,2.14-1.68,3.45-1.31
			l31.64,8.99c0.92,0.26,1.66,0.93,2.02,1.81c0.36,0.88,0.3,1.88-0.18,2.7l-15.82,27.77C535.6,195.86,534.56,196.43,533.48,196.43z"
			/>
	</g>
	<g>
		<path class="st0" d="M478.45,199.34c-30.8,12.6-61.57,25.07-81.02-5.37c-3.49-30.04-0.15-53.15,18.34-58.59
			C434.62,130.59,469.42,158.72,478.45,199.34z"/>
	</g>
	<g>
		<path class="st11" d="M652.81,71.4L652.81,71.4c6.23,3.92,8.1,12.14,4.18,18.37l-94.55,149.98l-9.43-6.07l80.88-157.1
			C637.46,69.64,646.21,67.25,652.81,71.4z"/>
	</g>
	<g class="st8">
		<path class="st0" d="M655.81,73.98c-5.67-1.19-11.72,1.46-14.54,6.94l-80.89,157.1l2.24,1.44l-0.19,0.3l-9.43-6.07l80.89-157.1
			c3.57-6.94,12.31-9.33,18.91-5.18C653.96,72.12,654.96,73,655.81,73.98z"/>
	</g>
	<g>
		<path class="st1" d="M561.67,241.9c-1.05,0-2.08-0.3-2.99-0.88l-7.35-4.74c-1.34-0.86-1.81-2.6-1.08-4.02l80.88-157.1
			c2.1-4.07,5.84-7.11,10.26-8.32s9.18-0.5,13.06,1.93l0,0c3.71,2.33,6.29,5.98,7.27,10.25c0.97,4.28,0.22,8.68-2.12,12.39
			L566.36,239.3c-0.8,1.26-2.03,2.13-3.49,2.45C562.48,241.86,562.07,241.9,561.67,241.9z M557.05,232.6l4.43,2.86l92.89-147.34
			c1.46-2.31,1.93-5.05,1.32-7.71c-0.61-2.66-2.21-4.93-4.52-6.38l0,0c-2.45-1.54-5.34-1.97-8.13-1.2c-2.79,0.76-5.06,2.6-6.39,5.18
			L557.05,232.6z"/>
	</g>
	<g>
		<path class="st1" d="M638.03,114.97c-9.81,0-16.38-8.69-18.77-14.26c-0.68-1.57,0.05-3.39,1.62-4.07s3.39,0.05,4.07,1.61
			c0.26,0.59,6.29,14.04,17.72,9.58c1.59-0.62,3.39,0.17,4.01,1.76c0.62,1.59-0.17,3.39-1.76,4.01
			C642.47,114.55,640.17,114.97,638.03,114.97z"/>
	</g>
	<g>
		<path class="st1" d="M629.56,128.51c-3.58,0-6.76-0.9-9.52-2.69c-6.49-4.23-7.93-11.88-7.98-12.2c-0.3-1.68,0.82-3.29,2.5-3.59
			c1.68-0.3,3.28,0.81,3.59,2.49c0.03,0.14,1.1,5.44,5.31,8.15c2.75,1.77,6.37,2.12,10.76,1.05c1.66-0.41,3.34,0.61,3.74,2.28
			c0.41,1.66-0.61,3.34-2.28,3.74C633.53,128.25,631.49,128.51,629.56,128.51z"/>
	</g>
	<g>
		<path class="st0" d="M519.31,190.57c6.77-12.35-4.04-20.03-13.01-13.28c-3.03-10.69-13.21-9.51-18.18-1.18
			c-5.89-5.89-13.89-1.85-14.82,7.07c0,0-0.6,24.24,0,24.91s11.51,18.08,19.85,15.77c8.35-2.31,24.17-16.78,25.85-18.3"/>
	</g>
	<g>
		<path class="st12" d="M484.25,208.26c-0.94,0-1.86-0.5-2.35-1.38c-2.87-5.11-1.59-13.08,0.37-18.36c0.36-0.96,0.96-2.36,2.1-3.49
			c1.51-1.51,3.48-2.09,4.93-2.52c2.29-0.68,5.75-1.71,9.03-0.44c1.44,0.56,2.8,1.55,4.04,2.95c1.8,2.03,3.01,4.45,3.49,6.99
			c0.52,2.73,0.16,5.56-0.99,7.97c-0.89,1.86-2.18,3.17-3.74,3.8c-1.57,0.64-3.17,0.48-4.23,0.31c-2.5-0.41-4.37-1.39-5.56-2.91
			c-2.02-2.59-1.63-6.6,0.85-8.75c1.12-0.97,2.82-0.85,3.8,0.27c0.97,1.12,0.85,2.82-0.27,3.8c-0.33,0.28-0.4,1.02-0.13,1.36
			c0.32,0.41,1.09,0.73,2.18,0.91c0.82,0.13,1.18,0.08,1.34,0.02c0.22-0.09,0.57-0.43,0.91-1.14c0.66-1.38,0.86-3.03,0.56-4.64
			c-0.3-1.59-1.07-3.12-2.23-4.42c-0.67-0.75-1.33-1.26-1.96-1.5c-1.44-0.56-3.37-0.07-5.55,0.58c-0.99,0.29-2.11,0.63-2.65,1.17
			c-0.39,0.39-0.68,1.08-0.86,1.56c-1.68,4.52-2.47,10.72-0.72,13.84c0.73,1.3,0.27,2.94-1.03,3.67
			C485.15,208.15,484.7,208.26,484.25,208.26z"/>
	</g>
	<g>
		<path class="st0" d="M406.8,167.09c0,0-2.7,26-3.15,26.88c-0.24,0.47-3.08,1.99-5.7,3.31c-2.29,1.16-4.4,2.15-4.4,2.15
			l-18.42-1.47c-11.13,5.73-13.05-6.76-9.07-11.58c0.12-0.17,0.27-0.35,0.43-0.5c-0.58,0.16-1.13,0.27-1.63,0.33
			c-0.99,0.11-1.87,0.06-2.66-0.15c-7.75-1.99-6.04-17.98,1.1-17.69c-5.49-8.55,1.18-14.66,8.41-12.79
			c-1.35-6.97,5.73-12.29,12.79-8.92c0.71-8.98,13.64-10.95,17.76-0.76L406.8,167.09z"/>
	</g>
	<g>
		<path class="st12" d="M384.4,187.38c-1.62,0-3.25-0.27-4.77-0.89c-2.68-1.08-7.17-4.15-7.17-12.62c0-5.94,1.89-10.41,5.63-13.29
			c7.16-5.52,18.34-2.68,18.81-2.56c1.44,0.38,2.3,1.85,1.92,3.29c-0.38,1.44-1.85,2.3-3.28,1.92l0,0
			c-0.09-0.02-9.12-2.29-14.17,1.62c-2.37,1.84-3.52,4.79-3.52,9.02c0,4.04,1.28,6.61,3.8,7.62c3.01,1.21,7.41-0.01,9.2-1.86
			c1.42-1.48,1.8-4.16,0.79-5.64c-1.18-1.73-4.07-0.88-5.68-0.21c-1.38,0.56-2.95-0.09-3.52-1.47c-0.57-1.38,0.09-2.95,1.47-3.52
			c7.77-3.19,11.29,0.85,12.18,2.16c2.41,3.55,1.8,9.11-1.36,12.4C392.52,185.65,388.49,187.38,384.4,187.38z"/>
	</g>
	<g>
		<path class="st13" d="M421.99,231.63c0.71-2.48,1.09-5.08,1.09-7.76c0-16.52-14.33-29.91-31.98-29.91
			c-13.37,0-24.82,7.66-29.58,18.55C379.09,221.48,399.32,227.78,421.99,231.63z"/>
	</g>
	<g class="st8">
		<path class="st0" d="M377.56,195.48c0,0-3.1,9.39,4.41,13.96l6.58,12.46c0,0,7.12,2.54,7.66,1.97c0.54-0.57,4.76-8.99-2.23-15.54
			c0,0,2.91-10.54-3.43-14.35"/>
	</g>
	<g>
		
			<ellipse transform="matrix(0.8831 -0.4692 0.4692 0.8831 -31.5399 228.0856)" class="st14" cx="441.93" cy="177.33" rx="12.58" ry="23.21"/>
	</g>
	<g>
		<path class="st1" d="M421.99,234.73c-0.17,0-0.35-0.01-0.52-0.04c-23.17-3.94-43.81-10.46-61.36-19.4c-1.46-0.74-2.09-2.5-1.43-4
			c5.43-12.4,18.15-20.41,32.42-20.41c19.34,0,35.08,14.8,35.08,33c0,2.92-0.41,5.82-1.21,8.61
			C424.58,233.83,423.35,234.73,421.99,234.73z M365.69,211.14c15.65,7.59,33.77,13.28,53.95,16.94c0.24-1.38,0.35-2.79,0.35-4.2
			c0-14.78-12.96-26.81-28.88-26.81C380.35,197.07,370.68,202.5,365.69,211.14z"/>
	</g>
	<g>
		<path class="st1" d="M407.19,231.09c-0.27,0-0.54-0.04-0.8-0.13c-1.29-0.44-1.98-1.85-1.54-3.15c0.43-1.26,0.65-2.58,0.65-3.94
			c0-7.34-6.46-13.3-14.39-13.3c-6.17,0-11.65,3.62-13.63,9.01c-0.47,1.29-1.9,1.94-3.18,1.47s-1.94-1.9-1.47-3.18
			c2.69-7.33,10.04-12.26,18.28-12.26c10.67,0,19.35,8.19,19.35,18.26c0,1.9-0.31,3.77-0.91,5.54
			C409.19,230.45,408.22,231.09,407.19,231.09z"/>
	</g>
	<g>
		<path class="st13" d="M495.26,239.44c0.35-2.13,0.53-4.32,0.53-6.54c0-23.05-19.13-41.74-42.75-41.74
			c-22.39,0-40.75,16.79-42.6,38.17C438.72,236.4,467,239.8,495.26,239.44z"/>
	</g>
	<g class="st8">
		<path class="st0" d="M434.58,196.83c0,0-3.77,8.91,6.61,16.37c0,0-5.26,4.39,4.03,10.88c0,0,3.01,5.57,5.57,8.82
			s8.21-1.03,3.25-9.03l-1-3.67c0,0,3.33-4.64-4.11-9.91c0,0,7.55-11.87-3.97-18.4"/>
	</g>
	<g>
		<path class="st1" d="M491.26,243.18c-27.03,0-54.51-3.44-81.74-10.25c-1.77-0.44-2.96-2.11-2.8-3.93
			c2.03-23.31,22.36-41.57,46.31-41.57c25.62,0,46.47,20.39,46.47,45.46c0,2.43-0.19,4.83-0.57,7.15c-0.29,1.78-1.82,3.09-3.62,3.11
			C493.96,243.17,492.61,243.18,491.26,243.18z M495.26,239.44h0.01H495.26z M414.54,226.51c25.82,6.19,51.83,9.28,77.42,9.24
			c0.07-0.94,0.11-1.89,0.11-2.85c0-20.97-17.51-38.03-39.04-38.03C434,194.87,417.69,208.53,414.54,226.51z"/>
	</g>
	<g>
		<path class="st1" d="M476.41,241.39c-0.25,0-0.5-0.03-0.75-0.09c-1.66-0.41-2.67-2.09-2.26-3.75c0.37-1.49,0.56-3.05,0.56-4.65
			c0-11.23-9.39-20.36-20.93-20.36c-11.5,0-20.89,9.11-20.93,20.3c-0.01,1.71-1.42,3.05-3.11,3.09c-1.71-0.01-3.09-1.4-3.09-3.11
			c0.05-14.6,12.21-26.48,27.12-26.48c14.95,0,27.12,11.91,27.12,26.55c0,2.1-0.25,4.17-0.74,6.14
			C479.06,240.45,477.8,241.39,476.41,241.39z"/>
	</g>
	<g>
		<path class="st1" d="M463.38,240.29c-0.41,0-0.84-0.08-1.24-0.26c-1.57-0.69-2.28-2.51-1.59-4.08c0.43-0.97,0.64-2,0.64-3.05
			c0-4.36-3.66-7.9-8.16-7.9s-8.16,3.55-8.16,7.9c0,0.45,0.04,0.87,0.11,1.3c0.3,1.68-0.82,3.29-2.51,3.59s-3.29-0.82-3.59-2.51
			c-0.14-0.79-0.21-1.57-0.21-2.39c0-7.77,6.44-14.1,14.35-14.1s14.35,6.32,14.35,14.1c0,1.92-0.39,3.78-1.16,5.54
			C465.71,239.6,464.57,240.29,463.38,240.29z"/>
	</g>
	<g>
		<path class="st1" d="M528.99,243.98c-52.06,0-111.58-6-147.01-18.69c-27.59-9.89-41.09-19.7-41.27-30.01
			c-0.18-10.13,12.55-15.32,13.1-15.54c1.9-0.76,4.07,0.17,4.83,2.07c0.76,1.9-0.17,4.06-2.07,4.82c-2.21,0.9-8.51,4.38-8.43,8.52
			c0.06,3.06,3.73,11.45,36.35,23.13c67.08,24.04,212.38,22.1,238.08,6.6c5.06-3.05,7.8-6.11,7.91-8.84
			c0.14-3.43-3.89-6.87-6.31-8.61c-1.66-1.2-2.04-3.52-0.84-5.19c1.2-1.66,3.52-2.04,5.19-0.84c6.44,4.65,9.6,9.68,9.38,14.95
			c-0.22,5.42-4.09,10.43-11.49,14.89C612.58,239.59,573.51,243.98,528.99,243.98z"/>
	</g>
	<g>
		<path class="st13" d="M483.51,238.8c2.45-29.62,28.1-52.92,59.39-52.92c29.96,0,54.76,21.37,58.95,49.19
			C564.05,240.85,524.54,241.94,483.51,238.8z"/>
	</g>
	<g class="st8">
		<path class="st0" d="M517.96,191.16c0,0-7.62,12.73,5.18,16.94c0,0-2.89,8.56,7.64,15.98c0,0-3.51,11.58,6.4,15.39
			c9.91,3.8,8.79,0.74,8.79,0.74l-4.89-17.36c0,0,4.24-10.67-3.54-18.45c0,0,3.75-13.19-3.98-17.81"/>
	</g>
	<g>
		<path class="st1" d="M527.55,244.22c-14.52,0-29.3-0.57-44.31-1.72c-0.99-0.08-1.9-0.54-2.54-1.29s-0.96-1.73-0.88-2.72
			c2.61-31.59,30.33-56.33,63.1-56.33c31.21,0,58.13,22.51,62.62,52.35c0.3,2.03-1.09,3.92-3.11,4.23
			C578.54,242.39,553.48,244.22,527.55,244.22z M487.66,235.37c38.46,2.7,75.37,1.55,109.83-3.42
			c-5.51-24.4-28.32-42.36-54.59-42.36C515.29,189.59,491.74,209.42,487.66,235.37z"/>
	</g>
	<g>
		<path class="st1" d="M502.33,242.85c-0.1,0-0.2,0-0.3-0.01c-1.7-0.16-2.95-1.67-2.79-3.38c2.1-21.95,20.87-38.5,43.67-38.5
			c21.62,0,40.27,15.59,43.39,36.27c0.25,1.69-0.91,3.27-2.6,3.52c-1.69,0.26-3.27-0.91-3.52-2.6c-2.66-17.67-18.69-31-37.27-31
			c-19.59,0-35.71,14.14-37.5,32.89C505.26,241.65,503.91,242.85,502.33,242.85z"/>
	</g>
	<g>
		<path class="st1" d="M521.77,243.31c-0.17,0-0.33-0.01-0.5-0.04c-1.69-0.28-2.83-1.87-2.56-3.56c1.9-11.61,12.07-20.03,24.2-20.03
			c11.55,0,21.64,7.96,23.99,18.93c0.36,1.67-0.71,3.32-2.38,3.68c-1.67,0.36-3.32-0.71-3.68-2.38
			c-1.75-8.13-9.29-14.03-17.94-14.03c-9.07,0-16.68,6.24-18.08,14.84C524.58,242.23,523.26,243.31,521.77,243.31z"/>
	</g>
	<g>
		<path class="st1" d="M478.45,202.44c-1.42,0-2.7-0.98-3.02-2.42c-6.25-28.05-24.41-47.81-38.08-56.21
			c-7.95-4.89-15.34-6.81-20.82-5.42c-14.57,4.29-19.85,22.36-16.04,55.23c0.2,1.7-1.02,3.24-2.72,3.43
			c-1.71,0.19-3.24-1.02-3.43-2.72c-4.22-36.35,2.5-56.6,20.55-61.91c7.22-1.84,16.32,0.34,25.7,6.11
			c14.69,9.03,34.21,30.2,40.88,60.14c0.37,1.67-0.68,3.32-2.35,3.7C478.9,202.41,478.68,202.44,478.45,202.44z"/>
	</g>
	<g>
		<path class="st1" d="M370.03,202.51c-4.05,0-6.25-2.48-6.98-3.5c-1.93-2.7-2.43-6.54-1.62-9.94c-2.28-0.6-3.78-1.95-4.64-2.97
			c-3.5-4.2-3.35-11.22-1.2-15.59c0.86-1.74,2.01-3.09,3.36-3.98c-1.31-3.65-0.95-7.17,1.1-10.01c1.93-2.68,5.07-4.22,8.54-4.36
			c0.42-2.81,1.88-5.35,4.23-7.17c2.68-2.08,6.12-2.85,9.52-2.25c1.5-3.49,4.7-6,8.72-6.62c4.96-0.77,11.24,1.61,14.09,8.64
			c0.64,1.59-0.12,3.39-1.71,4.03c-1.58,0.64-3.39-0.12-4.03-1.71c-1.68-4.16-5.04-5.21-7.4-4.84c-1.97,0.3-4.16,1.69-4.4,4.67
			c-0.08,1.02-0.65,1.93-1.54,2.44c-0.88,0.51-1.96,0.55-2.88,0.11c-2.34-1.11-4.8-0.95-6.58,0.43c-1.57,1.21-2.24,3.08-1.84,5.11
			c0.2,1.04-0.14,2.12-0.92,2.85c-0.77,0.73-1.87,1.01-2.89,0.75c-2.4-0.62-4.77,0.01-5.89,1.56c-1.13,1.57-0.82,3.96,0.85,6.55
			c0.63,0.97,0.66,2.21,0.08,3.21c-0.57,1-1.67,1.62-2.81,1.56c-0.95-0.04-1.63,0.95-2.05,1.78c-1.36,2.76-1.17,7,0.4,8.89
			c0.56,0.67,1.6,1.48,4.12,0.76c1.37-0.39,2.82,0.2,3.53,1.44c0.71,1.23,0.49,2.79-0.54,3.77c-1.57,1.51-1.88,5.47-0.58,7.3
			c1.16,1.63,3.71,0.78,5.64-0.21c1.52-0.78,3.39-0.18,4.17,1.34c0.78,1.52,0.18,3.39-1.34,4.17
			C374,202.03,371.83,202.51,370.03,202.51z"/>
	</g>
	<g>
		<path class="st1" d="M519.3,193.67c-0.5,0-1.01-0.12-1.49-0.38c-1.5-0.82-2.05-2.7-1.23-4.2c2.3-4.2,2.32-8.04,0.04-10.01
			c-1.75-1.51-5.04-1.88-8.47,0.7c-0.82,0.62-1.88,0.79-2.85,0.46c-0.97-0.33-1.71-1.11-1.99-2.09c-0.91-3.22-2.61-5.15-4.78-5.43
			c-2.65-0.35-5.77,1.66-7.76,4.99c-0.49,0.82-1.33,1.37-2.28,1.49c-0.95,0.12-1.9-0.21-2.57-0.88c-1.66-1.66-3.52-2.24-5.25-1.62
			c-2.29,0.81-3.94,3.43-4.3,6.83c-0.18,1.7-1.7,2.94-3.4,2.76c-1.7-0.18-2.94-1.7-2.76-3.4c0.61-5.79,3.82-10.4,8.39-12.02
			c2.93-1.04,6.08-0.69,8.86,0.9c3.26-3.75,7.67-5.73,11.87-5.18c3.61,0.47,6.58,2.7,8.49,6.26c4.53-1.95,9.37-1.45,12.84,1.55
			c3.62,3.13,5.87,9.41,1.34,17.67C521.46,193.08,520.4,193.67,519.3,193.67z"/>
	</g>
	<g>
		<path class="st11" d="M615.77,182.19L744.2,84.88c5.94-4.5,14.37-3.56,19.17,2.15l0,0c5.51,6.55,3.89,16.47-3.41,20.94
			l-137.44,84.11c-2.59,1.59-5.96,0.98-7.84-1.41l0,0C612.61,188.04,613.1,184.22,615.77,182.19z"/>
	</g>
	<g class="st8">
		<path class="st0" d="M766.06,92.01c-4.9-4.46-12.4-4.89-17.82-0.78l-128.43,97.31c-1.36,1.03-2.17,2.54-2.34,4.1
			c-1.07-0.36-2.04-1.03-2.77-1.97c-0.87-1.09-1.29-2.4-1.29-3.69c0-1.82,0.82-3.6,2.38-4.79l128.43-97.31
			c5.94-4.5,14.37-3.55,19.16,2.16C764.65,88.54,765.54,90.24,766.06,92.01z"/>
	</g>
	<g>
		<path class="st1" d="M619.4,196.06c-2.71,0-5.37-1.21-7.15-3.47c-1.52-1.93-2.18-4.34-1.87-6.78s1.57-4.6,3.53-6.08l128.43-97.31
			c7.26-5.5,17.55-4.35,23.41,2.63c3.21,3.81,4.58,8.82,3.78,13.74c-0.8,4.92-3.7,9.23-7.95,11.83l-137.44,84.11
			C622.67,195.63,621.02,196.06,619.4,196.06z M752.66,85.14c-2.3,0-4.61,0.72-6.58,2.22l-128.43,97.31l0,0
			c-0.62,0.47-1.02,1.16-1.12,1.94s0.11,1.55,0.6,2.16c0.91,1.15,2.54,1.45,3.79,0.68l137.44-84.11c2.71-1.66,4.56-4.41,5.07-7.55
			s-0.37-6.33-2.41-8.76C758.85,86.47,755.77,85.14,752.66,85.14z M615.77,182.19h0.01H615.77z"/>
	</g>
	<g>
		<path class="st1" d="M741.61,122.3c-0.07,0-0.15,0-0.22-0.01c-5.38-0.38-9.68-2.44-12.77-6.12c-6.03-7.18-5.01-17.92-4.97-18.38
			c0.17-1.7,1.69-2.95,3.4-2.76c1.7,0.17,2.94,1.69,2.77,3.39c-0.02,0.18-0.76,8.67,3.56,13.79c2,2.37,4.76,3.64,8.45,3.9
			c1.71,0.12,2.99,1.6,2.87,3.31C744.58,121.06,743.22,122.3,741.61,122.3z"/>
	</g>
	<g>
		<path class="st1" d="M723.97,132.13c-0.34,0-0.68-0.06-1.01-0.17c-14.17-4.91-14.85-17.72-13.23-23.81
			c0.44-1.65,2.13-2.63,3.79-2.2c1.65,0.44,2.63,2.13,2.2,3.78c-0.32,1.25-2.74,12.22,9.26,16.38c1.62,0.56,2.47,2.32,1.91,3.94
			C726.46,131.32,725.26,132.13,723.97,132.13z"/>
	</g>
	<g>
		<path class="st1" d="M624.48,231.16c-1.37,0-2.61-0.91-2.99-2.28c-0.13-0.38-3.87-10.06-32.14-17.52
			c-1.65-0.44-2.64-2.13-2.2-3.78s2.13-2.64,3.78-2.2c32.49,8.58,36.24,20.63,36.56,21.98c0.4,1.66-0.63,3.33-2.3,3.73
			C624.96,231.14,624.72,231.16,624.48,231.16z"/>
	</g>
	<g>
		<path class="st9" d="M567.66,86.82c-0.83,10.4-9.73,16.78-23.12,20.93c-2.09,0.64-4.21-1.02-4.09-3.2
			c0.27-4.59,0.98-8.66,2.11-12.17c1.78-5.57,4.64-9.81,8.51-12.61c1.15-0.84,2.4-1.55,3.74-2.13
			C561.28,74.81,568.22,79.77,567.66,86.82z"/>
	</g>
	<g>
		<path class="st9" d="M568.94,123.23c-2.85-3.78-8.28-4.33-15.61-2.49c-2.34,0.58-3.77,3.01-3.09,5.32
			c2.15,7.29,6.53,11.84,12.64,10.83C569.3,135.83,572.86,128.43,568.94,123.23z"/>
	</g>
	<g class="st8">
		<ellipse class="st0" cx="558.07" cy="124.8" rx="4.49" ry="3.13"/>
	</g>
	<g>
		<path class="st1" d="M543.61,110.98c-1.38,0-2.75-0.46-3.87-1.34c-1.61-1.27-2.51-3.24-2.39-5.27
			c1.12-19.09,9.43-26.61,16.2-29.57c4.05-1.77,8.57-1.32,12.1,1.2c3.53,2.52,5.43,6.66,5.08,11.07
			c-0.87,10.91-9.14,18.64-25.3,23.64l0,0C544.85,110.89,544.23,110.98,543.61,110.98z M558.62,79.93c-0.85,0-1.73,0.18-2.58,0.55
			c-7.54,3.29-11.74,11.45-12.5,24.26l0.99,3.01l-0.91-2.96c13.46-4.16,20.31-10.12,20.96-18.21c0.18-2.25-0.73-4.27-2.5-5.53
			C561.03,80.3,559.84,79.93,558.62,79.93z"/>
	</g>
	<g>
		<path class="st1" d="M561.2,140.13c-6.34,0-11.46-4.78-13.94-13.2c-0.56-1.92-0.32-3.94,0.68-5.69s2.69-3.03,4.64-3.51
			c8.98-2.25,15.31-1.02,18.83,3.63l0,0c2.38,3.15,2.91,7.27,1.42,11c-1.59,3.98-5.21,6.88-9.45,7.58
			C562.64,140.07,561.92,140.13,561.2,140.13z M560.48,122.82c-1.8,0-3.94,0.31-6.4,0.92c-0.44,0.11-0.66,0.41-0.76,0.58
			c-0.11,0.19-0.22,0.5-0.11,0.86c1.07,3.62,3.67,9.57,9.17,8.65c2.11-0.35,3.91-1.79,4.7-3.77c0.41-1.01,0.86-3.01-0.62-4.97l0,0
			C565.32,123.58,563.31,122.82,560.48,122.82z"/>
	</g>
	<g class="st2">
		<path class="st1" d="M649.62,218.35c-2.9,109.14-89.73,154.36-172.57,146.24c63.16,2.29,75.84-61.94,78.24-94.15
			c0.75-10.04,8.71-18.01,18.75-18.73c89.68-6.47,72.4-43.62,72.4-43.62h0.01C648.24,211.37,649.32,214.78,649.62,218.35z"/>
	</g>
	<g class="st2">
		<path class="st1" d="M357.13,182.17c0,0-18.02,8.22-9.66,17.17c8.36,8.94,14.66,9.46,14.66,9.46l3.51-11.5l-2.79-10.38
			L357.13,182.17z"/>
	</g>
	<g class="st2">
		<path class="st1" d="M565.65,191.16c0,0,10.32,4.04,4.95,24.16l-4.95-2.41c0,0,3.1,12.14-8.46,15.16c0,0-1,5.43-6.4,7.77
			c-5.41,2.34,18.78,3.63,18.78,3.63l31.99-6.13c0,0-8.53-25.18-18.33-32.26"/>
	</g>
	<g class="st2">
		<path class="st1" d="M464.29,192.62c0,0,12.03,8.19,6.7,24.7l-6.13-4.83c0,0,5.59,11.37-2.46,15.58l3.72,7.77l15.79,1.35
			c0,0,6.67-17.84,8.83-23.99C492.89,207.04,464.29,192.62,464.29,192.62z"/>
	</g>
	<g class="st2">
		<path class="st1" d="M447.07,148.21c0,0,20.78,30.39-7.35,34.83c-7.44,1.17-14.19,5.04-18.71,11.07c-2.5,3.33-6.8,5.47-14.21,2.72
			l10.44,8.74c0,0,21.02-25.91,59.81-8.74C471.73,177.63,462.11,161.18,447.07,148.21z"/>
	</g>
	<g class="st2">
		<path class="st1" d="M364.88,186.21c-0.99,0.11-1.87,0.06-2.66-0.15C363.05,186.05,363.94,186.1,364.88,186.21z"/>
	</g>
	<g class="st2">
		<path class="st1" d="M396.21,174.85c0,0,0.62,13.75,1.25,19.7c-2.06-0.4-4.19-0.59-6.37-0.59c-5.82,0-11.26,1.45-15.95,3.99
			c-0.05,0.02-0.09,0.05-0.14,0.06c-11.01,5.57-12.91-6.85-8.93-11.64c0.38,0.06,0.79,0.12,1.2,0.21
			c23.44,4.69,30.28-30.34,30.67-32.4L396.21,174.85z"/>
	</g>
	<g>
		<path class="st0" d="M647.01,573.47l-4.19,27l-10.73,69.13l-2.03,13.13l-1.25,8.03c-2.14,13.83-14.85,23.61-28.75,21.9
			c-0.17-0.01-0.36-0.04-0.53-0.06c-18.14-2.48-29.81-8.38-29.81-8.38l16.53-159.36l2.32-22.34l27.54,5.97
			C636.69,532.93,650.24,552.66,647.01,573.47z"/>
	</g>
	<g>
		<path class="st1" d="M603.3,717.57c-1.25,0-2.52-0.08-3.8-0.23l-0.61-0.08c-18.71-2.55-30.8-8.6-31.3-8.85l4.26-8.41
			c0.1,0.05,11.28,5.6,28.31,7.92l0.47,0.06c11.41,1.4,21.74-6.48,23.51-17.95l18.2-117.28c2.84-18.32-9.12-35.74-27.24-39.67
			l-27.54-5.97l2-9.21l27.54,5.97c22.98,4.98,38.16,27.09,34.55,50.33l-18.2,117.28C631.11,706.72,618.22,717.57,603.3,717.57z"/>
	</g>
	<g>
		<path class="st0" d="M649.54,613.4l-6.81,49.81l-1.19,8.64c-0.83,5.97-5.7,10.39-11.47,10.87c-0.81,0.06-1.63,0.05-2.48-0.05
			l-30.43-3.48c-6.9-0.79-11.86-7-11.11-13.91l6.32-58.27c0.76-6.9,6.94-11.9,13.85-11.2l14.86,1.54l17.24,1.77
			c1.62,0.16,3.15,0.63,4.51,1.34C647.42,602.85,650.28,607.95,649.54,613.4z"/>
	</g>
	<g class="st2">
		<path class="st1" d="M642.73,663.21l-1.19,8.64c-0.83,5.97-5.7,10.39-11.47,10.87l-1.25,8.03c-2.14,13.83-14.85,23.61-28.75,21.9
			c-0.17-0.01-0.36-0.04-0.53-0.06c-18.14-2.48-29.81-8.38-29.81-8.38l16.53-159.36l22.34,7.68c0,0-3.73,35.53,14.43,43.24
			l-1.96,1.6l-5.41,4.4l-8.42,44.93l-2.44,21.75c0,0,15.93,3.2,27.3,1.16c4.98-0.89,9.1-2.8,10.61-6.4
			C642.71,663.2,642.71,663.2,642.73,663.21z"/>
	</g>
	<g>
		<path class="st1" d="M629,687.48c-0.65,0-1.3-0.04-1.95-0.11l-30.43-3.48c-9.44-1.08-16.29-9.65-15.26-19.09l6.32-58.27
			c1.03-9.45,9.54-16.35,19.01-15.37l32.11,3.3c4.72,0.48,8.93,2.8,11.85,6.53c2.93,3.73,4.19,8.37,3.55,13.06l-8,58.45
			C645.02,681.1,637.52,687.48,629,687.48z M604.92,600.48c-3.98,0-7.42,3.02-7.86,7.06l-6.32,58.27c-0.47,4.31,2.66,8.22,6.96,8.71
			l30.43,3.48c4.24,0.49,8.16-2.56,8.74-6.79l8-58.45c0.29-2.14-0.28-4.26-1.62-5.96c-1.34-1.7-3.26-2.76-5.41-2.98l-32.11-3.3l0,0
			C605.46,600.49,605.19,600.48,604.92,600.48z"/>
	</g>
	<g>
		<path class="st1" d="M618.42,685.7l-1.98-0.23c-4.71-0.54-8.93-2.89-11.87-6.61s-4.25-8.37-3.68-13.08l6.77-56.39
			c1.14-9.52,9.83-16.46,19.37-15.49l7.87,0.81l-0.83,8.04l-7.87-0.81c-5.18-0.53-9.9,3.24-10.53,8.41l-6.77,56.39
			c-0.31,2.56,0.4,5.08,2,7.1c1.6,2.02,3.89,3.3,6.45,3.59l1.98,0.23L618.42,685.7z"/>
	</g>
	<g>
		<path class="st0" d="M696.3,792.92c-4.27,21.1-37.94,41.64-73.95,11.68c-82.57,43.53-132.93,16.67-156.53-68.68
			c0,0-0.04,0-0.09-0.01c-2.4-0.17-51-3.59-70.43,13.47c0,0-24.75,22.57-51,64.64c0,0-10.76,19.92-37.7,11.13
			c-17.82-5.81-47.27-25.02-62.25-48.17c-7.65-11.85-11.53-24.72-8.11-37.37c10.11-37.37,48.82-31.98,65.31-11.78
			c0,0,9.66-42.42,34.34-52.75c0,0,17.95-6.17,29.18-8.86c0,0-8.05-58.8,12.81-113.62c20.11,10.85,43.14,17,67.61,17
			c30.79,0,59.3-9.75,82.62-26.33c60.44-85.54,28.42-204.75,27.9-206.68c0-0.01,0-0.01-0.01-0.02
			c-21.5-52.41,33.29-68.96,49.86-22.8c1.39-4.16,3.16-6.64,5.03-7.78c7.47-4.53,16.47,12.36,8.21,28.88
			c21.67,86.11,9.59,177.43-30.89,273.12c0.94,7.36,1.45,14.68,1.52,21.98c0.15,11.37-0.72,22.7-2.48,33.98
			c-3.02,19.59-8.69,39.09-16.41,58.48c0,0-2.02,12.46,4.21,25.25l39.17-25.91c2.74-1.82,6.17-2.29,9.26-1.2
			c5.6,1.99,15.27,7.29,28.82,21.38c0.94,0.98,1.88,1.92,2.82,2.84C677.05,766.09,700.39,772.71,696.3,792.92z"/>
	</g>
	<g>
		<path class="st1" d="M319.53,832.08c-4.35,0-9.15-0.72-14.4-2.43c-13.25-4.32-34.15-16.26-50.95-33.21
			c-13.69-13.8-28.7-35.07-22.49-58.03c4.44-16.44,14.69-27.16,28.85-30.18c12.96-2.77,27.84,1.51,38.66,10.58
			c4.27-13.42,14.93-39.7,34.87-48.04c0.09-0.04,0.19-0.08,0.29-0.11c0.66-0.23,14.54-4.98,25.56-7.95
			c-1.44-14.59-4.53-64.23,13.55-111.75c0.48-1.27,1.49-2.27,2.76-2.74c1.27-0.47,2.69-0.38,3.88,0.27
			c19.94,10.76,42.54,16.44,65.37,16.44c28.58,0,55.96-8.64,79.24-25c56.84-81.27,28.88-193.91,26.82-201.79
			c-7.45-18.32-6.8-35.01,1.8-45.8c6.26-7.85,16.03-11.54,26.16-9.87c10.88,1.8,20.52,9.48,26.91,21.09
			c1.93-1.86,3.92-2.63,5.58-2.89c3.89-0.61,7.77,1.27,10.62,5.18c4.45,6.09,6.66,17.75,1.46,29.54
			c10.44,42.33,12.98,87.09,7.57,133.03c-5.28,44.74-18.26,91.92-38.6,140.26c4.42,36.21-1.34,73.85-17.59,114.98
			c-0.2,1.8-0.75,8.9,1.82,16.94l34.37-22.72c3.96-2.63,8.99-3.28,13.43-1.71c6.22,2.22,16.58,7.93,30.65,22.56
			c7.54,7.84,15.51,13.77,22.54,19c13.98,10.4,26.05,19.39,22.67,36.14l0,0c-2.47,12.19-12.78,23.14-26.27,27.89
			c-9.89,3.49-29.65,6.44-52.85-11.55c-39.82,20.41-73.5,24.92-100.14,13.41c-26.82-11.59-46.82-39.57-59.45-83.17
			c-11.2-0.51-48.36-1.07-63.8,12.49c-0.18,0.16-24.5,22.59-50.03,63.47C344.88,822.74,335.15,832.08,319.53,832.08z M268.58,716.82
			c-2.07,0-4.11,0.2-6.07,0.62c-10.68,2.28-18.19,10.38-21.72,23.42c-9.34,34.56,43.57,72.1,67.27,79.82
			c22.67,7.39,31.74-8.26,32.11-8.93c0.04-0.07,0.09-0.16,0.13-0.22c26.3-42.14,50.79-64.68,51.81-65.62
			c21.25-18.66,71.93-14.85,74.08-14.68c1.97,0.16,3.64,1.53,4.17,3.44c11.78,42.58,30.29,69.6,55.03,80.29
			c24.51,10.59,56.39,5.7,94.76-14.53c1.69-0.89,3.74-0.67,5.21,0.55c20.68,17.2,37.8,14.83,46.15,11.89
			c10.27-3.62,18.37-12,20.17-20.87c2.1-10.43-4.7-16.03-19.06-26.71c-7.33-5.45-15.63-11.63-23.71-20.03
			c-13.48-14.01-22.7-18.68-27-20.21c-1.65-0.58-3.55-0.33-5.07,0.68l-39.19,25.91c-1.13,0.75-2.53,0.97-3.84,0.61
			s-2.4-1.26-2.99-2.48c-6.8-13.97-4.71-27.49-4.62-28.06c0.05-0.34,0.15-0.67,0.27-0.99c16.01-40.3,21.59-76.97,17.06-112.11
			c-0.11-0.83,0.01-1.67,0.33-2.44c41.04-97.02,51.36-187.91,30.66-270.13c-0.28-1.09-0.15-2.25,0.35-3.26
			c3.88-7.75,3.24-15.71,0.88-20.16c-1.09-2.07-2.15-2.63-2.35-2.65c-0.27,0.08-1.73,1.22-3.08,5.3c-0.63,1.91-2.41,3.2-4.42,3.23
			c-2.02-0.03-3.81-1.23-4.49-3.12c-4.72-13.14-13.49-21.97-23.46-23.62c-6.81-1.13-13.09,1.22-17.25,6.44
			c-6.44,8.08-6.57,21.39-0.38,36.53c0.1,0.22,0.17,0.45,0.24,0.68l0,0c1.35,5.07,32.19,124.54-28.62,210.61
			c-0.31,0.43-0.68,0.81-1.12,1.12c-25.03,17.8-54.54,27.21-85.35,27.21c-22.56,0-44.92-5.2-65.01-15.08
			c-17.9,51.57-10.81,105.78-10.74,106.34c0.33,2.4-1.22,4.66-3.57,5.22c-10.35,2.48-26.85,8.09-28.6,8.68
			c-22.09,9.39-31.33,48.98-31.42,49.38c-0.4,1.76-1.77,3.13-3.52,3.54s-3.59-0.21-4.73-1.61
			C290.83,722.17,279.24,716.82,268.58,716.82z"/>
	</g>
	<g>
		<path class="st0" d="M388.33,632.91l-24.62-4.92c-9.64,6.73-8.05,26.07,0.81,33.16c0,0,13.04,5.66,24.97,5.21"/>
	</g>
	<g>
		<path class="st1" d="M388.11,671.1c-12.37,0-24.92-5.39-25.47-5.63c-0.38-0.17-0.74-0.38-1.07-0.64
			c-5.84-4.68-9.43-13.6-9.12-22.72c0.26-7.82,3.38-14.37,8.56-17.99c1.05-0.74,2.36-1.01,3.62-0.76l24.62,4.93l-1.85,9.24
			l-22.36-4.47c-1.91,2.11-3.04,5.41-3.17,9.36c-0.19,5.79,1.9,11.7,5.13,14.66c2.59,1.04,13,4.93,22.3,4.57l0.36,9.42
			C389.15,671.09,388.63,671.1,388.11,671.1z"/>
	</g>
	<g>
		<path class="st0" d="M389.67,620.24c-1.97,13.8-4.87,46.67,7.39,70.32c1.77,3.42,4.89,5.96,8.58,7.07
			c20.01,6.02,42.09,7.9,66.24,5.64c0,0,18.1-2.09,31.37-7.42c4.54-1.82,7.89-5.81,8.79-10.62c4.04-21.44,4.02-43.99-2.25-68.27
			c-1.42-5.49-5.9-9.66-11.49-10.63c-15.18-2.63-47.39-7.25-78.09-5.47c-0.79,0.05-1.59,0.15-2.36,0.32
			c-7.84,1.76-14.95,4.78-21.49,8.78C392.71,612.21,390.27,615.99,389.67,620.24z"/>
	</g>
	<g>
		
			<ellipse transform="matrix(0.9974 -0.0722 0.0722 0.9974 -45.2128 34.8153)" class="st15" cx="458.97" cy="642.81" rx="9.07" ry="10.15"/>
	</g>
	<g>
		<path class="st1" d="M452.68,708.9c-17.26,0-33.47-2.26-48.4-6.75c-4.92-1.48-9.07-4.91-11.41-9.41
			c-12.96-24.99-9.82-59.49-7.87-73.16c0.81-5.7,4.06-10.66,8.91-13.63c7.23-4.42,14.94-7.57,22.92-9.35c1-0.22,2.05-0.37,3.12-0.43
			c30.78-1.79,62.81,2.7,79.17,5.53c7.38,1.28,13.37,6.81,15.25,14.1c6.06,23.46,6.81,46.46,2.31,70.32
			c-1.2,6.39-5.57,11.67-11.67,14.12c-13.7,5.51-31.83,7.64-32.59,7.73C465.7,708.59,459.12,708.9,452.68,708.9z M434.62,605.18
			c-4.7,0-9.43,0.12-14.12,0.39c-0.56,0.03-1.1,0.11-1.6,0.22c-7.06,1.58-13.62,4.27-20.06,8.2c-2.44,1.49-4.08,4.01-4.49,6.91l0,0
			c-1.82,12.77-4.8,44.91,6.91,67.49c1.17,2.25,3.27,3.98,5.76,4.73c19.33,5.82,41.01,7.66,64.44,5.46
			c0.07-0.01,17.54-2.08,30.06-7.1c3.1-1.25,5.31-3.91,5.92-7.12c4.24-22.47,3.52-44.13-2.18-66.22c-0.96-3.71-3.99-6.52-7.73-7.17
			C484.07,608.65,459.78,605.18,434.62,605.18z"/>
	</g>
	<g>
		<path class="st1" d="M481.99,703.69l-7.62-2.68c6.93-19.7,4.4-54.3,2.99-68.27c-0.3-2.99-2.69-5.41-5.69-5.76l-67.03-7.88
			c-5.38-0.63-10.34,2.69-11.8,7.91l-7.78-2.18c2.54-9.07,11.18-14.86,20.52-13.76l67.03,7.88c6.73,0.79,12.1,6.25,12.78,12.98
			C487.22,649.95,489.19,683.23,481.99,703.69z"/>
	</g>
	<g>
		<path class="st1" d="M447.33,704.36l-1.26-31.65c-0.18-4.57-3.43-8.4-7.91-9.33l-7.95-1.65c-8-1.66-13.89-8.51-14.33-16.67
			l-1.44-26.73l8.07-0.43l1.44,26.73c0.24,4.5,3.49,8.28,7.9,9.19l7.95,1.65c8.11,1.68,14.01,8.64,14.34,16.92l1.26,31.65
			L447.33,704.36z"/>
	</g>
	<g>
		<path class="st1" d="M459.11,655.42c-2.85,0-5.57-1.13-7.73-3.22c-2.28-2.21-3.67-5.26-3.91-8.57s0.7-6.52,2.64-9.04
			c2.01-2.6,4.83-4.16,7.96-4.39c3.13-0.23,6.15,0.91,8.51,3.19c2.28,2.21,3.68,5.26,3.91,8.57c0.24,3.31-0.7,6.52-2.64,9.04
			c-2.01,2.6-4.83,4.16-7.96,4.39C459.63,655.41,459.37,655.42,459.11,655.42z M458.84,635.13c-0.14,0-0.27,0-0.41,0.01
			c-1.7,0.12-3.26,1-4.4,2.47c-1.2,1.55-1.77,3.56-1.62,5.66s1.01,4,2.42,5.37c1.33,1.29,3,1.93,4.71,1.81c1.7-0.12,3.26-1,4.4-2.47
			c1.2-1.55,1.77-3.56,1.62-5.66l0,0c-0.15-2.1-1.01-4-2.42-5.37C461.91,635.77,460.39,635.13,458.84,635.13z"/>
	</g>
	<g>
		<path class="st0" d="M587.27,663.98h-0.01c-7.21,1.6-14.43,2.76-21.66,3.49c-16.93,1.72-33.96,1.11-51.08-1.76
			c-14.7-1.82-15.23-29.97-1.57-33.69c6.74,1.05,27.37,3.31,51.48,1.46c4.79-0.36,9.72-0.89,14.71-1.63l0.14-0.01
			c3.47-0.51,6.96-1.11,10.45-1.85h0.01C601.22,630.42,605.19,655.14,587.27,663.98z"/>
	</g>
	<g>
		<path class="st1" d="M546.67,673.13c-10.9,0-21.86-0.92-32.83-2.75c-8.58-1.12-14.62-8.77-15.39-19.53
			c-0.67-9.34,3.2-20.63,13.25-23.37c0.64-0.17,1.31-0.21,1.97-0.11c1.53,0.24,37.77,5.75,75.11-1.99c0.37-0.08,0.75-0.11,1.13-0.09
			c6.64,0.24,12.05,5.63,13.78,13.72c2.06,9.64-1.54,22.89-14.34,29.2c-0.34,0.17-0.7,0.29-1.07,0.37
			C574.6,671.61,560.68,673.13,546.67,673.13z M513.38,636.85c-4.09,1.77-5.91,8.01-5.53,13.33c0.33,4.64,2.43,10.26,7.25,10.86
			c0.07,0.01,0.13,0.02,0.2,0.03c23.7,3.98,47.37,3.46,70.36-1.56c7.93-4.18,10.15-12.27,8.81-18.53c-0.61-2.87-2.22-5.81-4.47-6.22
			C554.55,641.95,520.2,637.8,513.38,636.85z"/>
	</g>
	<g>
		<polygon class="st1" points="369.61,665.04 373.31,697.55 360.5,667.45 		"/>
	</g>
	<g>
		<path class="st1" d="M304.95,724.59c4.28,5.58,9.36,10.99,14.15,16.66c4.68,5.67,9.75,11.66,11.9,18.8
			c-3.59-6.44-9.47-10.91-15.15-15.39c-5.78-4.45-11.82-8.58-17.71-13.55L304.95,724.59L304.95,724.59z"/>
	</g>
	<g>
		<path class="st1" d="M579.35,745.76c2.27,8.43,5.02,16.89,9.51,24.5c-3.52-2.81-6.68-6.16-9.65-9.62
			c-3.01-3.56-5.77-7.1-8.44-10.98C570.77,749.66,579.35,745.76,579.35,745.76L579.35,745.76z"/>
	</g>
	<g>
		<path class="st1" d="M519.09,821.18l-0.12-8.08c15.21-0.24,28.27-5.87,37.78-16.3c10.63-11.66,15.92-28.66,14.53-46.64l8.06-0.62
			c1.57,20.19-4.49,39.41-16.61,52.71C551.67,814.36,536.58,820.9,519.09,821.18z"/>
	</g>
	<g>
		<polygon class="st1" points="619.04,801.25 642.72,784.4 625.67,807.95 		"/>
	</g>
	<g>
		<path class="st1" d="M309.44,828.18c-3.55,0-7.59-0.78-12.11-2.33l2.63-7.64c4.82,1.66,11.32,3.09,14.87,0.43
			c3.5-2.61,3.98-9.07,3.77-14.03c-0.49-11.54-34.65-54.56-62.04-59.48c-4.77-0.86-11.08-1.17-14.09,2.2
			c-3.41,3.83-2.1,11.52-1.31,14.16l-7.73,2.35c-0.17-0.56-4.13-13.84,2.99-21.86c4.41-4.97,11.67-6.59,21.57-4.81
			c18.82,3.38,37.88,21.62,45.2,29.3c11.4,11.96,23.08,28.29,23.48,37.79c0.43,10.05-1.93,17.06-7.01,20.85
			C316.93,827.15,313.51,828.18,309.44,828.18z"/>
	</g>
	<g>
		
			<rect x="239.42" y="756.03" transform="matrix(0.8863 -0.4632 0.4632 0.8863 -322.59 206.431)" class="st1" width="39.25" height="8.08"/>
	</g>
	<g>
		
			<rect x="253.8" y="772.98" transform="matrix(0.8863 -0.4632 0.4632 0.8863 -328.4975 216.255)" class="st1" width="44.59" height="8.08"/>
	</g>
	<g>
		
			<rect x="287.99" y="805.95" transform="matrix(0.8863 -0.4632 0.4632 0.8863 -340.544 233.145)" class="st1" width="32.94" height="8.08"/>
	</g>
	<g>
		
			<rect x="267.57" y="789.28" transform="matrix(0.8863 -0.4632 0.4632 0.8863 -334.4813 224.4897)" class="st1" width="44.59" height="8.08"/>
	</g>
	<g>
		<path class="st1" d="M380.93,769.32l-8.07-0.35c1.45-33.45-4.99-57.18-19.14-70.53c-13.29-12.54-28.62-11.15-29.27-11.08
			l-0.86-8.03c0.79-0.08,19.47-1.93,35.53,13.1C375.15,707.44,382.49,733.31,380.93,769.32z"/>
	</g>
	<g>
		<path class="st1" d="M532.58,544.76c-6.98,14.86-16.65,28.72-29.49,39.01c7.74-9.07,13.23-19.77,17.23-30.91
			c1.25-3.56,2.49-7.43,3.3-11.03L532.58,544.76L532.58,544.76z"/>
	</g>
	<g>
		<path class="st1" d="M594.06,500.42c-21.75,0-40.12-14.78-40.4-15l5.13-6.24l-2.56,3.12l2.56-3.13
			c1.47,1.2,36.25,29.02,63.28,0.35l5.88,5.54C617.07,496.59,605.13,500.42,594.06,500.42z"/>
	</g>
	<g>
		<polygon class="st1" points="461.11,735.91 465.88,715.39 470.53,735.94 		"/>
	</g>
	<g class="st2">
		<path class="st1" d="M655.14,744.82c-26.6-8.67-39.94,9.34-39.94,9.34s-22.6,30.65-43.04,29.33
			c-20.44-1.31-31.89-28.09-36.85-56.27c-4.95-28.18,22.6-56.97,22.6-56.97c2.9-0.74,5.45-1.68,7.68-2.77
			c21.84-10.65,13.69-35.63,13.69-35.63l-0.14,0.01l-14.71,1.63c1.24-16-10.35-37.73-10.35-37.73
			c77.67-106.88,46.57-259.91,46.57-259.91c17.34-7.74,10.24-29.84,10.24-29.84c7.47-4.53,16.47,12.36,8.21,28.88
			c21.67,86.11,9.59,177.43-30.89,273.12c0.94,7.36,1.45,14.68,1.52,21.98h0.01c11.48,0.42,15.44,25.14-2.48,33.98h-0.01
			c-3.02,19.59-8.69,39.09-16.41,58.48c0,0-2.02,12.46,4.21,25.25l39.17-25.91c2.74-1.82,6.17-2.29,9.26-1.2
			c5.6,1.99,15.27,7.29,28.82,21.38C653.25,742.96,654.19,743.9,655.14,744.82z"/>
	</g>
	<g class="st2">
		<path class="st1" d="M393.5,561.77c0,0,48.94,48.06,113.44,18.04c8.95-9.12,14.67-20.07,17.23-32.8
			C490.94,574.14,445.15,574.25,393.5,561.77z"/>
	</g>
	<g class="st2">
		<path class="st1" d="M554.82,670.87l-30.65,9.6c0,0-1.55,15.48-11.77,25.7c-5.57,5.57-25.48,9.13-46.56,10.07
			c-0.05,5.44-0.11,13.51-0.11,19.68c-2.4-0.17-51-3.59-70.43,13.47c0,0-24.75,22.57-51,64.64c0,0-10.76,19.92-37.7,11.13
			c-17.82-5.81-47.27-25.02-62.25-48.17c48.6,42.25,91.72,7.41,91.72,7.41s25.23-35.2,34.73-58.74
			c9.49-23.54,38.37-16.53,38.37-16.53c-17.09-9.41-19.68-27.43-19.68-27.43c79.78,12.98,88.06-56.43,88.06-56.43l25.54-15.18
			l6.71,6.89l5.04,13.03l9.33,3.31c-11.46,13.21,0,35.12,0,35.12L554.82,670.87z"/>
	</g>
	<g class="st2">
		<ellipse class="st1" cx="488.74" cy="905.67" rx="198.33" ry="28.07"/>
	</g>
	<g class="st2">
		<path class="st1" d="M343.29,526.53c0,0,23.79,38.54,3.15,45.97l18.37,18.58l2.89-7.31l10.17-31.14"/>
	</g>
</g>
</svg>
