<?xml version="1.0" encoding="utf-8"?>
<!-- Generator: Adobe Illustrator 25.0.0, SVG Export Plug-In . SVG Version: 6.00 Build 0)  -->
<svg version="1.1" id="Layer_1" xmlns="http://www.w3.org/2000/svg" xmlns:xlink="http://www.w3.org/1999/xlink" x="0px" y="0px"
	 viewBox="0 0 1000 1000" style="enable-background:new 0 0 1000 1000;" xml:space="preserve">
<style type="text/css">
	.st0{fill:#FFFFFF;}
	.st1{opacity:0.35;}
	.st2{fill:#371A45;}
	.st3{fill:#FFD522;}
	.st4{opacity:0.5;}
	.st5{fill:#32B1D1;}
	.st6{fill:#22A7F0;}
	.st7{opacity:0.6;}
	.st8{fill:#21102B;}
</style>
<g>
	<g>
		<path class="st0" d="M678.74,465.48c0,0,92.92-37.17,118.02-4.66c28.35,36.71,74.2,158.15,61.44,204.27
			c-8.26,29.83-62.81,45.65-62.81,45.65L678.74,465.48z"/>
	</g>
	<g class="st1">
		<path class="st2" d="M858.2,665.09c-8.26,29.84-62.81,45.65-62.81,45.65l-27.67-58.19c1.3-0.36,62.85-17.59,72.99-47.45
			c4.35-12.88,3.78-31.4-0.02-52.24C855.38,595.56,864.93,640.79,858.2,665.09z"/>
	</g>
	<g>
		<path class="st2" d="M792.24,717.74L670.78,462.37l5.79-2.31c0.97-0.39,24.04-9.55,50.63-14.83c37.35-7.41,62.31-3.36,74.19,12.02
			c14.61,18.92,33.52,59.25,47.06,100.35c9.25,28.07,23.54,79.57,15.38,109.05c-9.03,32.61-64.46,49.03-66.82,49.71L792.24,717.74z
			 M686.74,468.69l111.74,234.93c16.65-5.7,48.61-20.34,54.08-40.09c12.27-44.32-33.69-164.51-60.43-199.13
			C775.07,442.3,714.97,458.39,686.74,468.69z"/>
	</g>
	<g>
		<path class="st3" d="M209.38,147.46l39.51-79.8c3.13-6.33,12.17-6.32,15.28,0.02l39.3,79.9l88.1,12.92
			c6.99,1.03,9.77,9.62,4.7,14.54l-63.85,62.07l14.94,87.78c1.18,6.96-6.13,12.26-12.38,8.97l-78.76-41.54l-78.87,41.33
			c-6.26,3.28-13.56-2.04-12.35-9l15.17-87.74l-63.68-62.24c-5.05-4.94-2.25-13.52,4.74-14.53L209.38,147.46z"/>
	</g>
	<g class="st1">
		<path class="st2" d="M396.29,175.05l-63.85,62.07l14.93,87.78c1.19,6.97-6.12,12.26-12.37,8.97l-78.76-41.54l-78.87,41.34
			c-6.26,3.27-13.56-2.04-12.36-9.01l15.18-87.74l-63.69-62.24c-5.05-4.94-2.24-13.52,4.75-14.54l12.69-1.82
			c-2.93,2.72-3.41,7.68-0.12,10.88l30.88,30.18c32.08,29.33,23.08,37.82,19.31,59.68l-7.35,42.54c-1.07,6.15,5.38,10.84,10.91,7.95
			l38.23-20.04c19.65-10.3,43.11-10.27,62.73,0.08l38.19,20.14c5.52,2.92,11.98-1.77,10.94-7.91l-7.25-42.56
			c-3.72-21.87-13.56-32.28,19.46-59.64l30.95-30.09c3.16-3.08,2.86-7.77,0.22-10.57l10.55,1.55
			C398.58,161.54,401.36,170.12,396.29,175.05z"/>
	</g>
	<g>
		<path class="st2" d="M338.99,340.72c-2.29,0-4.59-0.55-6.72-1.67l-76.04-40.11l-76.15,39.9c-4.88,2.56-10.68,2.13-15.13-1.11
			c-4.45-3.25-6.64-8.63-5.7-14.06l14.64-84.71l-61.48-60.09c-3.94-3.85-5.33-9.5-3.62-14.74c1.71-5.24,6.16-8.98,11.61-9.77
			l85.09-12.25l38.15-77.04c2.44-4.93,7.38-7.99,12.88-7.99c0.01,0,0.01,0,0.02,0c5.51,0.01,10.45,3.08,12.88,8.03l37.94,77.14
			l85.06,12.47c5.45,0.8,9.89,4.55,11.59,9.8c1.7,5.24,0.29,10.89-3.66,14.73l-61.64,59.93l14.42,84.75
			c0.92,5.43-1.27,10.82-5.74,14.05C344.89,339.79,341.95,340.72,338.99,340.72z M256.25,285.72l81.48,42.97
			c1.28,0.68,2.31,0.16,2.82-0.2c0.5-0.36,1.31-1.19,1.07-2.61l-15.45-90.81l66.05-64.21c1.04-1.01,0.87-2.15,0.68-2.74
			c-0.19-0.59-0.72-1.61-2.15-1.82l-91.15-13.37l-40.66-82.66c-0.64-1.3-1.77-1.49-2.39-1.49l0,0c-0.62,0-1.76,0.19-2.4,1.49
			l-40.88,82.55l-91.19,13.12c-1.43,0.21-1.97,1.23-2.16,1.82c-0.19,0.59-0.36,1.73,0.67,2.74l65.88,64.39l-15.69,90.77
			c-0.25,1.42,0.56,2.25,1.06,2.62c0.5,0.36,1.53,0.88,2.81,0.21L256.25,285.72z M209.38,147.46h0.02H209.38z"/>
	</g>
	<g class="st4">
		
			<ellipse transform="matrix(0.9663 -0.2573 0.2573 0.9663 -25.4167 72.9255)" class="st0" cx="265.94" cy="133.58" rx="9.68" ry="33.28"/>
	</g>
	<g>
		<path class="st0" d="M844.53,898.85c-50.72,13.12-60.85-54.06-62.76-75.7c-24.3-1.57-45.59-13.59-63.77-32.5
			c-8.63-8.94-16.55-19.43-23.75-31.06c0,0-7.55,4.07-20.15,7.66c11.48,18.32,19.8,15.8,37.59,42.57
			c3.12,4.68,8.81,14.12,14.2,25.88c15.26,33.3,27.98,85.1-28.1,99.63c-53.5,13.84-62.61-59.38-63.98-76.07
			c-49.25-4.85-105.72-47.11-134.29-140.13c-24.09-78.5-26.63-146.44-26.72-169.39c0,0,0.02-0.02,0-0.03
			c-0.02-5.35,0.09-8.25,0.09-8.25s-62.04-25.35-123.74-151.16c0,0-10.72,1.8-22.69-0.64c-12.76-2.6-22.15-14.03-28.26-27.77
			c-7.37-16.64-9.94-36.67-7.81-48.6c4.7-26.35,20.41-26.35,20.41-26.35c3.8-8.25,11.4-14.97,23.77-19.18
			c31.95-10.88,48.88,14.04,48.88,14.04c13.17,20.38,26.21,38.5,38.75,54.5c30.45,38.87,57.91,65.25,76.9,81.41
			c0,0,27.7,76.68,90.69,72.44c47.41-3.19,80.42-21.67,100.62-37.75c0.64-0.52,1.28-1.03,1.89-1.55
			c15.44-12.67,22.75-23.47,22.75-23.47c2.8,10.9,6.73,24.19,11.41,38.54c0.25,0.8,0.52,1.58,0.77,2.4
			c3.96,12.04,8.39,24.77,13.09,37.4c13.59,36.71,29.23,72.67,41,89c20.96,29.06,24.36,105.55,24.36,105.55
			c0.52,3.24,1.89,6.83,3.98,10.72c0.22,0.42,0.45,0.85,0.7,1.27c9.08,16.31,29.42,37.67,48.09,61.09
			C871.94,790.28,920.4,879.21,844.53,898.85z"/>
	</g>
	<g class="st1">
		<path class="st2" d="M472.78,549.7c-0.02-5.35,0.09-8.25,0.09-8.25s-62.04-25.35-123.74-151.16c0,0-10.72,1.8-22.69-0.64
			c-12.76-2.6-22.15-14.03-28.26-27.77c10.1,7.03,23.51,12.4,37.42,6.56c28.51-11.96,25.36-47.17,25.36-47.17
			c18.33,35.57,8.14,57.35,8.14,57.35c30.54,70.25,82.54,108.26,98.08,129.64C477.26,522.1,475.37,539.31,472.78,549.7z"/>
	</g>
	<g class="st1">
		<path class="st2" d="M725.89,835.7c-9.41-10.04-28.66-35.13-54.31-40.17c-35.63-7-74.62-7.38-69.15-28.28
			c5.71-21.81,61.35-4.51,102.36-34.9c3.08-2.29,7.34,0.47,6.5,4.21c-2.86,12.85-4.21,32.96,6.72,54.09
			c-8.63-8.94-16.55-19.43-23.75-31.06c0,0-7.55,4.07-20.15,7.66c11.48,18.32,19.8,15.8,37.59,42.57
			C714.81,814.5,720.5,823.94,725.89,835.7z"/>
	</g>
	<g>
		<g>
			<path class="st0" d="M344.66,301.48c-0.19-0.7-0.4-1.42-0.63-2.15l0.98,1.81L344.66,301.48z"/>
		</g>
	</g>
	<g>
		<path class="st2" d="M349.13,396.15c-2.9,0-5.42-2.16-5.8-5.11c-0.41-3.2,1.86-6.13,5.06-6.54c6.86-0.87,11.52-3.49,14.25-8
			c5.34-8.82,3.86-25.63-4.19-47.33c-6.43-17.33-13.33-18.49-13.39-18.5c0.27,0.04,0.41,0.01,0.41,0.01l-0.18-11.7
			c2.38-0.06,14.85,1.05,24.14,26.11c9.58,25.84,10.67,45.17,3.23,57.46c-4.64,7.65-12.3,12.21-22.78,13.54
			C349.62,396.14,349.37,396.15,349.13,396.15z"/>
	</g>
	<g>
		<path class="st5" d="M606.84,499.58"/>
	</g>
	<g class="st1">
		<path class="st2" d="M844.54,898.84c-40.94,10.6-55.43-27.57-60.53-53.17c-0.08-0.43-0.16-0.85-0.24-1.26
			c-0.06-0.37-0.14-0.73-0.2-1.1c-0.81-4.32-1.32-8.21-1.64-11.32c-0.05-0.53-0.1-1.02-0.15-1.49c-0.08-0.72-0.14-1.38-0.18-1.99
			c-0.19-2.15-0.25-3.57-0.29-4.05c12.06-2.17,48.62-9.35,67.16-20.5c0,0,15.61,23.67-30.56,36.06
			c-9.14,2.45-14.3,11.81-10.92,20.27c3.63,9.08,9.36,17.56,18.43,21.02c34.69,13.21,53.57-28.15,48.35-50.22
			c-7.68-32.46-20.73-55.06-25.71-62.92c-1.92-3.04,4.4,1.65,12.87,8.53C876.87,799.76,916.25,880.27,844.54,898.84z"/>
	</g>
	<g class="st1">
		<path class="st2" d="M696.82,933.61c-40.94,10.6-55.43-27.57-60.53-53.17c-0.08-0.43-0.16-0.85-0.24-1.26
			c-0.06-0.37-0.14-0.73-0.2-1.1c-0.81-4.32-1.32-8.21-1.64-11.32c-0.05-0.53-0.1-1.02-0.15-1.49c-0.08-0.72-0.14-1.38-0.18-1.99
			c-0.19-2.15-0.25-3.57-0.29-4.05c12.06-2.17,31.59,5.51,71.25-19.72c0,0,4.9,17.97-37.4,31.12c-9.08,2.82-14.34,12.01-11.64,20.75
			c3.49,11.3,9.27,22.85,19.1,26.11c40.87,13.57,56.38-29.55,51.15-51.63c-7.68-32.46-20.73-55.06-25.71-62.92
			c-1.92-3.04,4.4,1.65,12.87,8.53C729.14,834.54,768.53,915.05,696.82,933.61z"/>
	</g>
	<g>
		<path class="st0" d="M470.8,528.09c-1.15,8.56-1.78,15.99-2.06,20.41C469.25,539.38,470.12,532.5,470.8,528.09z"/>
	</g>
	<g>
		<path class="st0" d="M525.84,438.14c-0.79-0.51-10.78-6.85-26.75-20.44L525.84,438.14z"/>
	</g>
	<g>
		<path class="st2" d="M525.87,444.03c-1.05,0-2.12-0.28-3.08-0.88c-2.87-1.79-71.2-45.05-144.27-158.18
			c-0.51-0.73-14.91-20.92-42.08-11.66c-10.27,3.5-17.14,8.98-20.43,16.29c-4.88,10.85-1.29,24.13,2.58,33.35
			c4.42,10.52,12.43,15.13,17.32,13.37c5.75-2.07,9-13.99,2.53-35.27c-0.94-3.09,0.81-6.36,3.9-7.3s6.36,0.8,7.3,3.9
			c9.32,30.67,1.07,45.77-9.76,49.67c-11.75,4.24-25.55-4.29-32.08-19.85c-6.84-16.29-7.69-31.05-2.46-42.67
			c4.67-10.39,13.87-17.98,27.33-22.56c28.62-9.75,48.88,6.39,55.6,16.28c71.59,110.82,140.02,154.28,140.7,154.7
			c2.74,1.71,3.58,5.32,1.87,8.06C529.74,443.05,527.83,444.03,525.87,444.03z"/>
	</g>
	<g>
		<path class="st2" d="M684.98,942.92c-9.25,0-17.63-2.64-25.04-7.9c-22.87-16.25-29.59-53.67-31.49-70.51
			c-26.05-3.72-51.39-16.8-73.59-38.02c-26.77-25.59-47.27-61.14-60.94-105.65c-26.03-84.8-27.1-158.35-26.95-175.73
			c-14.41-7.49-67.71-41.03-121.26-148.56c-4.58,0.35-12.21,0.51-20.42-1.17c-31.47-6.42-45.19-57.77-40.66-83.13
			c5.49-30.82,25.34-31.17,26.18-31.17c3.23,0,5.85,2.62,5.85,5.85c0,3.19-2.55,5.78-5.72,5.85c-0.67,0.04-11.14,1.06-14.79,21.53
			c-3.68,20.6,8.3,64.88,31.49,69.61c10.66,2.18,20.45,0.61,20.55,0.6l4.29-0.71l1.92,3.9C414.12,509.5,474.53,535.8,475.13,536.05
			l3.75,1.56l-0.13,4.07c-0.03,0.8-2.7,81.02,26.37,175.73c13.08,42.58,32.54,76.43,57.85,100.63
			c21.64,20.69,46.35,32.94,71.44,35.41l4.86,0.48l0.4,4.86c2.01,24.37,10.17,54.68,27.07,66.69c8.23,5.85,17.91,7.22,29.6,4.19
			c17.52-4.54,28.89-13.33,33.79-26.12c13.31-34.78-21.79-88.23-23.29-90.49c-9.12-13.74-15.37-19.15-21.41-24.39
			c-5.4-4.68-10.49-9.1-16.26-18.31l-4.13-6.6l7.49-2.13c11.74-3.34,18.91-7.14,18.98-7.17l4.84-2.59l2.9,4.66
			c23.75,38.33,51.64,58.79,82.9,60.8l5.01,0.32l0.44,5c1.06,11.91,6.12,51.92,26.85,66.55c7.96,5.62,17.33,6.93,28.63,4
			c18.4-4.76,30.1-14.28,34.77-28.28c10.26-30.76-14.33-75.84-23.96-87.91c-6.07-7.61-12.3-14.98-18.33-22.12
			c-18.66-22.08-33.39-39.52-35.65-53.69l-0.07-0.66c-0.03-0.75-3.57-75.08-23.27-102.39c-21.38-29.64-54.97-121.7-67.19-169.31
			c-0.8-3.13,1.08-6.32,4.21-7.12s6.32,1.08,7.12,4.21c11.72,45.66,45.06,137.24,65.34,165.37c21.21,29.4,25.14,101.86,25.45,108.35
			c1.96,10.97,17.03,28.81,32.98,47.68c6.08,7.2,12.37,14.64,18.54,22.37c11.09,13.91,37.84,63.18,25.91,98.91
			c-6.01,18-20.45,30.08-42.94,35.9c-14.63,3.79-27.52,1.84-38.31-5.77c-22.08-15.58-29.08-51.29-31.26-70.21
			c-31.58-3.85-60.58-24.97-84.35-61.45c-2.2,0.95-5.08,2.11-8.57,3.33c3.08,3.79,6.07,6.38,9.56,9.41
			c6.32,5.48,13.48,11.69,23.49,26.75c4.1,6.17,39.65,61.48,24.47,101.15c-6.33,16.54-20.39,27.73-41.78,33.27
			C694.29,942.28,689.53,942.92,684.98,942.92z"/>
	</g>
	<g>
		<path class="st0" d="M539.14,708.37c9.57-0.53,20.27-1.3,31.74-2.39c-6.78,1.14-13.03,2.11-18.62,2.92
			C547.79,709.54,543.34,709.34,539.14,708.37z"/>
	</g>
	<g class="st1">
		<path class="st2" d="M491.48,673.64c-1.96-31.4-7.18-59.78-13.89-84.6c2.52,14.63,4.43,30.13,5.44,46.49
			c1.2,19.18,4.53,38.75,10.38,57.41C492.52,686.51,491.89,680.05,491.48,673.64z"/>
	</g>
	<g>
		
			<ellipse transform="matrix(0.6774 -0.7356 0.7356 0.6774 -325.2672 575.9216)" class="st0" cx="494" cy="658.81" rx="25.27" ry="25.27"/>
	</g>
	<g class="st1">
		<path class="st2" d="M469.37,664.32c3.06,13.62,16.58,22.19,30.2,19.13c13.62-3.06,22.19-16.6,19.12-30.22
			c-0.85-3.76-2.49-7.16-4.74-10.01c-2.09,9.22-9.29,16.91-19.13,19.12c-9.84,2.21-19.64-1.66-25.45-9.1
			C468.56,656.79,468.52,660.56,469.37,664.32z"/>
	</g>
	<g>
		<path class="st2" d="M494.02,689.17c-13.89,0-26.46-9.61-29.64-23.72l0,0c-1.78-7.92-0.37-16.05,3.97-22.91
			s11.09-11.61,19.01-13.39s16.05-0.37,22.91,3.97c6.86,4.34,11.61,11.09,13.39,19c1.78,7.92,0.37,16.05-3.97,22.91
			c-4.34,6.86-11.09,11.61-19.01,13.39C498.45,688.92,496.22,689.17,494.02,689.17z M474.34,663.21
			c2.44,10.85,13.25,17.7,24.11,15.25c10.85-2.44,17.69-13.25,15.25-24.11c-1.18-5.26-4.34-9.74-8.89-12.62
			c-4.55-2.88-9.95-3.82-15.21-2.63c-5.26,1.18-9.74,4.34-12.62,8.89C474.1,652.55,473.16,657.95,474.34,663.21L474.34,663.21z"/>
	</g>
	<g>
		<path class="st0" d="M528.9,720.44l143-23.34c16.93-2.76,28.53-18.87,25.76-35.82l-12.42-76.09
			c-2.42-14.84-15.08-25.56-29.56-26.14c-2.05-0.1-4.14,0.04-6.25,0.38l-142.97,23.33c-16.95,2.76-28.55,18.87-25.76,35.82
			l9.82,60.27l2.58,15.83C495.84,711.62,511.97,723.2,528.9,720.44z"/>
	</g>
	<g class="st1">
		<path class="st2" d="M528.9,720.44l143-23.34c16.93-2.76,28.53-18.87,25.76-35.82l-12.42-76.09
			c-2.42-14.84-15.08-25.56-29.56-26.14c-7.24,6.72-11.83,11.01-11.83,11.01c3.01,62.22-9.42,95.51-85.06,109.13
			c-32.65,5.87-54.14,4.25-68.27-0.34l2.58,15.83C495.84,711.62,511.97,723.2,528.9,720.44z"/>
	</g>
	<g>
		<path class="st2" d="M523.86,725.96c-17.47,0-32.91-12.67-35.81-30.46l-12.42-76.11c-1.56-9.54,0.71-19.13,6.39-27.02
			c5.68-7.89,14.06-13.09,23.59-14.65l142.99-23.33c9.53-1.56,19.13,0.71,27.02,6.39c7.89,5.68,13.09,14.06,14.65,23.59l12.42,76.11
			c1.56,9.54-0.71,19.13-6.39,27.02s-14.06,13.09-23.59,14.65l-142.99,23.33C527.75,725.8,525.79,725.96,523.86,725.96z
			 M654.45,564.12c-1.4,0-2.81,0.11-4.21,0.34l-142.99,23.33c-6.84,1.12-12.86,4.86-16.95,10.54c-4.08,5.68-5.72,12.57-4.6,19.42
			l12.42,76.11c2.32,14.2,15.76,23.87,29.96,21.55l142.99-23.33c6.84-1.12,12.86-4.86,16.95-10.54c4.08-5.68,5.72-12.57,4.6-19.42
			l-12.42-76.11c-1.12-6.84-4.86-12.86-10.54-16.95C665.15,565.82,659.87,564.12,654.45,564.12z"/>
	</g>
	<g>
		<path class="st0" d="M523.07,720.81c1.92,0.08,3.85-0.04,5.83-0.37l143-23.34c12.4-2.03,21.95-11.21,25.06-22.67
			c1.14-4.16,1.43-8.63,0.68-13.15l-5.5-33.81l-1.82-11.15l-5.08-31.14c-2.76-16.95-18.89-28.52-35.82-25.76l-30.9,5.05
			c14.68,0.36,27.57,11.14,30.03,26.13l6.72,41.1l5.71,35.01c2.76,16.93-8.84,33.06-25.77,35.82L523.07,720.81z"/>
	</g>
	<g class="st1">
		<path class="st2" d="M523.07,720.81c1.92,0.08,3.85-0.04,5.83-0.37l143-23.34c16.93-2.76,28.53-18.87,25.74-35.81l-7.32-44.96
			c-2.3,8.53-7.17,19.34-17.34,22.05c-5.58,1.5-11.83-1.67-17.71-6.67l5.71,35.01c2.76,16.93-8.84,33.06-25.77,35.82L523.07,720.81z
			"/>
	</g>
	<g>
		<path class="st2" d="M524.09,725.94c-0.4,0-0.8-0.01-1.2-0.02l-0.64-10.14l112.15-18.29c6.84-1.11,12.86-4.85,16.94-10.53
			c4.09-5.68,5.72-12.58,4.6-19.42l-12.42-76.11c-2.02-12.36-12.58-21.55-25.11-21.87l-0.69-10.14l30.88-5.05
			c19.77-3.21,38.46,10.24,41.68,29.99l12.42,76.1c1.56,9.54-0.71,19.14-6.38,27.03c-5.68,7.89-14.05,13.09-23.59,14.64l-143,23.33
			C527.88,725.79,525.98,725.94,524.09,725.94z M639.08,566.28c7.54,5.47,12.92,13.79,14.51,23.51l12.42,76.1
			c1.56,9.53-0.71,19.13-6.39,27.03c-0.28,0.39-0.57,0.78-0.87,1.16l12.32-2.01c6.84-1.11,12.85-4.85,16.94-10.53
			c4.09-5.68,5.72-12.58,4.6-19.42l0,0l-12.42-76.1c-2.31-14.2-15.75-23.87-29.96-21.56L639.08,566.28z"/>
	</g>
	<g>
		<path class="st6" d="M598.48,638.48c0.48,2.81,8.27,24.84,8.27,24.84s7.19-1.22,16.02-2.71c11.03-1.86,18.04-14.8,15.66-28.88
			c-2.38-14.08-13.25-23.99-24.28-22.13c-7.44,1.26-16.02,2.71-16.02,2.71S597.71,633.9,598.48,638.48z"/>
	</g>
	<g class="st1">
		<path class="st2" d="M598.48,638.48c0.48,2.81,8.27,24.84,8.27,24.84s7.19-1.22,16.02-2.71c11.03-1.86,18.04-14.8,15.66-28.88
			c-2.38-14.08-13.25-23.99-24.28-22.13c-7.44,1.26-16.02,2.71-16.02,2.71S597.71,633.9,598.48,638.48z"/>
	</g>
	<g>
		<path class="st2" d="M610.63,666.97c-4.31,0-8.21-2.7-9.67-6.88c-6.36-18.23-6.68-20.15-6.81-20.87l0,0
			c-0.45-2.69-0.62-10.1-0.49-22.03c0.05-4.97,3.65-9.19,8.56-10.02l11.18-1.89c13.4-2.27,26.56,9.28,29.34,25.72
			c1.31,7.78,0.15,15.53-3.27,21.85c-3.61,6.67-9.29,10.96-15.98,12.09l-11.13,1.88C611.79,666.92,611.21,666.97,610.63,666.97z
			 M602.8,637.74c0.08,0.39,0.74,3.11,6.44,19.45c0.24,0.68,0.93,1.1,1.66,0.97l11.13-1.88c3.97-0.67,7.43-3.38,9.73-7.62
			c2.49-4.6,3.32-10.35,2.33-16.2c-1.97-11.68-10.6-19.98-19.23-18.53l-11.18,1.89c-0.72,0.12-1.24,0.73-1.25,1.46
			C602.32,628.02,602.46,635.67,602.8,637.74z"/>
	</g>
	<g>
		
			<ellipse transform="matrix(0.986 -0.1667 0.1667 0.986 -97.8954 109.3497)" class="st6" cx="602.42" cy="637.82" rx="20.25" ry="25.87"/>
	</g>
	<g class="st1">
		<path class="st2" d="M622.4,634.44c-1.24-7.32-4.78-13.49-9.43-17.49c0.37,1.26,0.7,2.54,0.92,3.88
			c2.38,14.09-4.63,27.02-15.66,28.88c-5.3,0.9-10.55-0.95-14.85-4.64c3.55,11.97,13.38,19.94,23.36,18.25
			C617.77,661.46,624.78,648.53,622.4,634.44z"/>
	</g>
	<g class="st7">
		<path class="st0" d="M589.27,648c-2.38-14.09,4.63-27.02,15.66-28.88c4.38-0.74,8.73,0.4,12.54,2.9c-4.74-6.95-12-10.94-19.34-9.7
			c-11.03,1.86-18.04,14.8-15.66,28.88c1.44,8.49,5.96,15.44,11.74,19.23C591.82,656.93,590.06,652.71,589.27,648z"/>
	</g>
	<g>
		<path class="st2" d="M604.1,667.93c-12.17,0-23.42-10.95-25.96-26.01c-1.31-7.78-0.15-15.53,3.27-21.85
			c3.61-6.67,9.29-10.96,15.98-12.09c13.4-2.27,26.56,9.28,29.34,25.72c1.31,7.78,0.15,15.53-3.27,21.85
			c-3.61,6.67-9.29,10.96-15.98,12.09C606.35,667.84,605.22,667.93,604.1,667.93z M600.83,616.47c-0.66,0-1.32,0.05-1.98,0.17
			c-3.97,0.67-7.43,3.38-9.73,7.62c-2.49,4.6-3.32,10.35-2.33,16.2c1.97,11.68,10.6,19.99,19.23,18.53
			c3.97-0.67,7.43-3.38,9.73-7.62c2.49-4.6,3.32-10.35,2.33-16.2C616.25,624.39,608.76,616.47,600.83,616.47z"/>
	</g>
	<g>
		<path class="st2" d="M573.25,716.89c-2.01,0-3.79-1.43-4.18-3.47l-9.17-48.87c-0.17-0.92-0.79-1.68-1.64-2.04l-19.97-8.43
			c-3.58-1.51-6.09-4.7-6.73-8.53l-10.85-65.06c-0.39-2.32,1.18-4.51,3.5-4.89c2.32-0.4,4.51,1.18,4.89,3.5l10.85,65.06
			c0.16,0.94,0.77,1.72,1.65,2.09l19.97,8.43c3.49,1.47,6,4.58,6.69,8.31l9.17,48.87c0.43,2.31-1.09,4.53-3.4,4.96
			C573.78,716.86,573.51,716.89,573.25,716.89z"/>
	</g>
	<g>
		<path class="st0" d="M771.6,565.2c0,0,13.73,6.11,18.26,20.4c5.23,16.53-2.75,26.18-2.75,26.18s-36.67,36.02-110.33,40.73
			c0,0-28.03-21.31-9.61-43.35C667.17,609.16,743.31,598.42,771.6,565.2z"/>
	</g>
	<g class="st1">
		<path class="st2" d="M788.89,608.83c-0.95,1.93-1.78,2.94-1.78,2.94s-20.99,20.63-63.14,32.7c-13.54,3.88-29.28,6.89-47.19,8.03
			c0,0-9.22-7.05-13.6-17.16c0.47,0.42,0.77,0.63,0.77,0.63c12.82-0.81,24.52-2.58,35.11-4.95c17.08-3.82,28.11-20.44,25.39-37.73
			c-2.95-18.78-8.46-39.74-18.74-54.34l34.61-33.24c11.9,32.13,25.35,63.67,36.42,81.99c1.58,2.63,3.12,4.98,4.59,7.01
			C784.14,598.66,786.67,603.46,788.89,608.83z"/>
	</g>
	<g class="st1">
		<path class="st2" d="M788.89,608.83c-2.22-5.37-4.74-10.18-7.58-14.11c-1.47-2.04-3.01-4.38-4.59-7.01
			c2.04-5.73,2.29-12.05,0.45-18.13c-0.05-0.17-0.11-0.33-0.16-0.5c-0.08-0.27-0.17-0.55-0.3-0.8c4.4,3.15,10.43,8.77,13.14,17.33
			C793.4,596.78,790.89,604.81,788.89,608.83z"/>
	</g>
	<g>
		<path class="st2" d="M681.35,657.23c-4.88,0-9.52-1.94-12.91-5.44c-7.06-7.29-17.74-21.98-9.95-38.52
			c2.47-5.25,7.4-8.99,13.17-10.01c14.51-2.56,63.87-12.66,89.65-34.96l0,0c7.19-6.22,18-5.7,24.61,1.18
			c4.15,4.32,7.11,9.22,8.81,14.58c4.3,13.6,0.77,23.34-1.71,27.94c-0.98,1.82-2.3,3.45-3.91,4.87
			c-6.53,5.74-42.34,34.67-106.12,40.29C682.44,657.2,681.89,657.23,681.35,657.23z M772.97,574.16c-1.77,0-3.55,0.61-4.98,1.85l0,0
			c-26.99,23.36-75.12,33.86-94.55,37.3c-2.52,0.45-4.65,2.05-5.71,4.3c-5.18,10.99,2.82,21.68,8.05,27.07
			c1.62,1.68,3.92,2.51,6.32,2.3c60.61-5.34,94.17-32.41,100.28-37.78c0.7-0.62,1.26-1.31,1.67-2.06c1.72-3.17,4.13-9.99,0.96-20
			c-1.22-3.85-3.39-7.42-6.44-10.59C777.04,574.97,775,574.16,772.97,574.16z M764.65,572.15h0.02H764.65z"/>
	</g>
	<g class="st1">
		<path class="st2" d="M809.65,711c-20.02,23.75-68.43,32.36-66.3-10.41c0.97-19.57-13.65-9.72-21.12-10.85
			c-7.45-1.14-12.67-6.04-7.14-22.65c1.72-5.21,4.96-14.2,8.88-22.61c42.15-12.07,63.14-32.7,63.14-32.7s0.83-1.02,1.78-2.94
			c14.25,34.27,16.78,91.45,16.78,91.45C806.19,703.52,807.57,707.1,809.65,711z"/>
	</g>
	<g>
		<path class="st0" d="M831.69,689.63c-3.68,9.17-11.8,17.19-21.34,22.64c-22.56,12.9-53.04,11.49-51.35-22.64
			c0.97-19.57-13.65-9.72-21.12-10.85c-7.45-1.14-12.67-6.04-7.14-22.65c2.27-6.84,7.14-20.23,12.74-30.23
			c0,0-1.16-49.6-39.08-83.99l-7.73-49.41l-6.28-40.09l-0.34-2.18c0,0,0.78,0.19,2.24,0.63c4.98,1.49,17.85,5.81,34.16,15.08
			c0.66,0.38,1.33,0.77,2,1.16c22.84,13.34,51.88,36.23,75.49,74.15C834.7,590.66,846.17,653.44,831.69,689.63z"/>
	</g>
	<g class="st1">
		<path class="st2" d="M832.58,687.27c-0.28,0.8-0.58,1.58-0.89,2.36c-12.35,30.87-75.1,48.56-72.69,0
			c0.97-19.57-13.65-9.72-21.12-10.85c-7.45-1.14-12.67-6.04-7.14-22.65c2.27-6.84,7.14-20.23,12.74-30.23
			c0,0-1.16-49.6-39.08-83.99l0,0c-1.41-8.99,9-15.05,16.08-9.35c41.18,33.14,36.49,84.56,36.49,84.56
			c0.88,13.23-9.61,24.38-10.32,31.64c-1.52,15.61,3.26,13.89,10.72,15.01c7.47,1.14,16.08-2.5,15.11,17.08
			C770.52,720.63,811.09,709.56,832.58,687.27z"/>
	</g>
	<g>
		<path class="st2" d="M705.73,540.46c7.11,4.13,13.64,9.52,18.8,16.02c2.8,3.1,4.9,6.69,7.24,10.12c2.06,3.59,4.17,7.19,5.85,10.98
			c3.49,7.52,6.17,15.4,8.04,23.43l1.31,6.05c0.36,2.03,0.75,4.06,1.05,6.11c0.29,2.05,0.6,4.09,0.81,6.17
			c0.24,2.1,0.4,4.08,0.5,6.43l0.06,1.52l-0.81,1.47c-4.71,8.56-8.49,18.16-11.8,27.74c-0.83,2.43-1.46,4.58-1.96,6.8
			c-0.46,2.17-0.63,4.28-0.45,5.87c0.01,0.43,0.15,0.7,0.19,1.06c0.12,0.25,0.17,0.58,0.3,0.75c0.17,0.45,0.44,0.63,0.76,0.92
			c0.31,0.28,0.91,0.53,1.64,0.76c0.37,0.11,0.78,0.21,1.24,0.28c0.27,0.06,0.34,0.05,0.43,0.07c0.11,0.01,0.27,0.01,0.43,0.01
			c1.5-0.02,4.04-0.6,6.83-1.09c1.42-0.24,2.98-0.47,4.8-0.49c1.8,0,3.95,0.14,6.3,1.2c2.35,1.03,4.43,3.12,5.49,5.14
			c1.1,2.04,1.53,3.92,1.8,5.63c0.28,1.74,0.32,3.32,0.31,4.85l-0.05,2.12l-0.01,1.73c-0.03,4.6,0.7,9.02,2.42,12.58
			c0.91,1.73,1.95,3.34,3.36,4.56c0.63,0.69,1.45,1.17,2.2,1.74c0.39,0.26,0.85,0.45,1.26,0.69c0.41,0.24,0.84,0.46,1.32,0.61
			c1.78,0.82,3.87,1.16,5.95,1.48c2.14,0.15,4.34,0.25,6.59-0.04c4.49-0.43,9.05-1.68,13.38-3.52c8.62-3.65,16.68-9.49,21.74-16.88
			c1.32-1.82,2.28-3.77,3.15-5.73l2.31-6.79l1.67-7.1l1.09-7.29c1.09-9.83,0.87-19.91-0.14-29.92c-0.43-5.02-1.32-10-2.11-14.99
			c-1.06-4.95-1.99-9.93-3.38-14.82c-1.18-4.94-2.82-9.75-4.3-14.6c-1.76-4.76-3.34-9.6-5.37-14.26c-1.85-4.74-4.06-9.31-6.21-13.91
			c-1.09-2.29-2.34-4.51-3.5-6.76l-1.77-3.37c-0.62-1.11-1.28-2.19-1.92-3.28c-1.3-2.18-2.55-4.38-3.88-6.54l-4.24-6.32l-4.24-6.33
			l-4.66-6.02c-1.56-2-3.08-4.04-4.68-6l-5.04-5.7l-2.52-2.85c-0.83-0.96-1.68-1.9-2.6-2.77l-5.39-5.36l-2.69-2.68l-2.85-2.52
			l-5.7-5.03c-1.91-1.67-3.96-3.15-5.94-4.74c-2.01-1.54-3.94-3.19-6.05-4.59l-6.23-4.35c-2.1-1.42-4.31-2.65-6.47-3.96
			c-1.09-0.63-2.17-1.3-3.28-1.9l-3.36-1.76c-2.23-1.18-4.42-2.43-6.68-3.55c-4.44-2.39-8.91-4.72-13.35-7.17
			c-4.4-2.54-8.86-5.11-13.16-8.23l-0.12-0.09c-0.92-0.66-1.12-1.94-0.46-2.86c0.37-0.51,0.93-0.8,1.5-0.84
			c2.91-0.22,5.63-0.01,8.35,0.35c1.35,0.19,2.69,0.44,4.03,0.7c1.32,0.3,2.63,0.65,3.93,1.01c2.63,0.69,5.13,1.68,7.64,2.66
			c1.26,0.47,2.51,0.98,3.72,1.57c1.21,0.58,2.44,1.12,3.64,1.73c2.44,1.14,4.74,2.53,7.05,3.89l3.45,2.07
			c1.14,0.71,2.24,1.47,3.36,2.21c2.23,1.49,4.5,2.9,6.71,4.41l6.57,4.62c2.23,1.48,4.27,3.22,6.39,4.85
			c2.08,1.67,4.25,3.25,6.27,5.01l6.02,5.31l3,2.66l2.84,2.83l5.68,5.66c0.97,0.92,1.86,1.91,2.74,2.92l2.66,3l5.31,6.01
			c1.69,2.07,3.29,4.21,4.93,6.31l4.9,6.34l4.47,6.65l4.46,6.65c1.4,2.27,2.73,4.6,4.09,6.89c0.67,1.16,1.37,2.3,2.02,3.46
			l1.86,3.55c1.22,2.37,2.53,4.71,3.67,7.12c2.26,4.83,4.58,9.64,6.52,14.62c2.13,4.89,3.8,9.97,5.64,14.98
			c1.56,5.11,3.28,10.16,4.52,15.37c1.45,5.14,2.45,10.41,3.56,15.64c0.85,5.3,1.78,10.57,2.25,15.94
			c1.07,10.7,1.32,21.55,0.12,32.44l-1.23,8.16l-1.91,8.11c-0.88,2.67-1.77,5.32-2.73,7.99c-1.22,2.81-2.61,5.53-4.34,7.94
			c-3.38,4.9-7.52,9.06-12.08,12.52c-4.56,3.47-9.53,6.32-14.79,8.53c-5.26,2.22-10.85,3.79-16.73,4.37c-2.92,0.36-5.96,0.28-9,0.03
			c-3.05-0.42-6.16-0.97-9.16-2.29c-6.04-2.33-11.4-7.4-14.17-13.23c-2.82-5.85-3.64-12.01-3.63-17.78l0.06-3.95
			c0.01-1.07-0.03-2.1-0.18-2.94c-0.12-0.86-0.34-1.54-0.5-1.8c-0.18-0.27-0.06-0.07-0.08-0.13c-0.02-0.04-0.54-0.16-1.32-0.15
			c-0.79,0.01-1.82,0.13-2.96,0.33c-2.34,0.36-4.88,1.11-8.6,1.25c-0.49,0-0.98,0-1.52-0.05c-0.57-0.05-1.14-0.12-1.51-0.2
			c-0.83-0.14-1.68-0.32-2.56-0.59c-1.74-0.54-3.61-1.28-5.35-2.62c-1.7-1.3-3.29-3.08-4.19-5.02c-0.52-0.96-0.79-1.92-1.12-2.88
			c-0.19-0.92-0.47-1.9-0.53-2.77c-0.39-3.59,0.02-6.73,0.61-9.65c0.62-2.87,1.48-5.71,2.34-8.21c3.51-10.09,7.34-19.97,12.67-29.68
			l-0.74,2.99c-0.08-1.59-0.25-3.56-0.48-5.38c-0.21-1.86-0.5-3.72-0.82-5.58c-0.33-1.86-0.74-3.71-1.11-5.56l-1.39-5.5
			c-1.98-7.3-4.64-14.39-7.69-21.25c-1.39-3.51-3.25-6.77-4.84-10.19l-2.79-4.9c-0.87-1.68-1.88-3.26-2.89-4.85
			c-3.76-6.6-8.3-12.63-12.53-19.49l-0.07-0.12c-0.58-0.94-0.29-2.16,0.65-2.74C704.32,540.08,705.11,540.1,705.73,540.46z"/>
	</g>
	<g>
		<path class="st2" d="M617.8,772.57c9.53-0.99,18.86-2.27,27.95-4.08c2.28-0.39,4.52-0.99,6.77-1.43l3.35-0.8
			c1.12-0.24,2.23-0.49,3.33-0.78c4.47-0.97,8.79-2.23,13.29-3.08l0.24-0.05c2.78-0.52,5.46,1.31,5.98,4.09
			c0.45,2.39-0.85,4.7-2.98,5.63c-4.58,2-9.4,3.41-14.29,4.24c-4.88,0.92-9.83,1.24-14.75,1.31c-4.92,0.08-9.83-0.16-14.68-0.73
			c-4.86-0.6-9.66-1.44-14.37-2.89c-0.39-0.12-0.61-0.54-0.49-0.93c0.09-0.29,0.34-0.49,0.63-0.52L617.8,772.57z"/>
	</g>
	<g>
		<path class="st2" d="M634.21,854.18l8.21-0.38c1.4-0.07,2.79-0.19,4.19-0.23c1.4-0.1,2.8-0.23,4.2-0.29
			c5.6-0.46,11.21-0.99,16.78-1.9c5.59-0.86,11.12-2.13,16.6-3.76l4.12-1.24c1.34-0.5,2.69-1,4.05-1.48l2.05-0.74l2-0.86l4.07-1.68
			l0.05-0.02c0.37-0.15,0.8,0.02,0.96,0.4c0.12,0.3,0.03,0.64-0.2,0.84c-1.13,0.97-2.27,1.95-3.43,2.89l-1.75,1.43l-1.85,1.28
			c-1.24,0.86-2.49,1.7-3.76,2.54l-3.94,2.25c-5.33,2.88-10.97,5.3-16.79,7.09c-5.81,1.82-11.78,3.27-17.85,3.98
			c-3.03,0.34-6.08,0.59-9.15,0.61c-3.1,0.04-6.05-0.07-9.36-0.56c-2.79-0.41-4.73-3-4.32-5.79c0.36-2.46,2.42-4.26,4.82-4.37
			L634.21,854.18z"/>
	</g>
	<g>
		<path class="st2" d="M782.25,818.08l3.91-0.19c1.36-0.04,2.74-0.18,4.12-0.24c2.76-0.23,5.53-0.44,8.3-0.76
			c5.53-0.67,11.12-1.34,16.64-2.58c5.51-1.23,11.06-2.61,16.48-4.52c2.77-0.82,5.41-1.96,8.16-2.95c2.72-1.04,5.36-2.28,8.13-3.36
			l0.06-0.02c0.38-0.15,0.8,0.04,0.95,0.42c0.12,0.3,0.02,0.63-0.21,0.83c-2.27,1.91-4.54,3.92-6.99,5.65
			c-2.45,1.73-4.93,3.48-7.56,4.96c-5.18,3.14-10.73,5.67-16.44,7.83c-5.72,2.16-11.67,3.78-17.76,4.72
			c-3.04,0.5-6.12,0.78-9.22,0.89c-1.56,0.04-3.1,0.05-4.68-0.03c-1.6-0.06-3.07-0.21-4.88-0.48c-2.78-0.42-4.7-3.03-4.27-5.81
			c0.37-2.44,2.42-4.21,4.79-4.33L782.25,818.08z"/>
	</g>
	<g>
		<path class="st2" d="M732.97,808.34c-2.35,0-4.25-1.9-4.25-4.25s1.9-4.25,4.25-4.25c0.85,0,85.49-0.67,100.85-52.43
			c0.67-2.25,3.03-3.54,5.29-2.87c2.25,0.67,3.54,3.04,2.87,5.29C824.81,807.67,736.71,808.34,732.97,808.34z"/>
	</g>
	<g>
		<path class="st2" d="M584.72,846.48c-2.35,0-4.25-1.9-4.25-4.25s1.9-4.25,4.25-4.25c0.8,0,80.63-0.61,109.72-47.75
			c1.23-2,3.85-2.62,5.85-1.39s2.62,3.85,1.39,5.85C670.09,845.89,588.19,846.48,584.72,846.48z"/>
	</g>
	<g>
		<path class="st2" d="M737.77,601.42c-2.5,0-4.81-1.61-5.59-4.13c-0.95-3.09,0.78-6.36,3.87-7.31c7.36-2.27,72.54-21.53,95.8-0.87
			c2.41,2.14,2.63,5.84,0.49,8.26c-2.15,2.41-5.84,2.63-8.26,0.49c-15.59-13.85-66.34-2.31-84.58,3.31
			C738.92,601.33,738.34,601.42,737.77,601.42z"/>
	</g>
	<g>
		<path class="st2" d="M377.37,446.54c-2.69,0-4.95-2.11-5.09-4.83c-0.15-2.82,2.01-5.22,4.82-5.37
			c63.14-3.4,70.18-61.98,70.45-64.48c0.3-2.8,2.81-4.84,5.61-4.53c2.8,0.3,4.83,2.8,4.54,5.6c-0.07,0.7-8.1,69.72-80.05,73.6
			C377.55,446.54,377.46,446.54,377.37,446.54z"/>
	</g>
	<g>
		<g>
			<path class="st0" d="M418.16,322.36c56.68,257.63,417.19,191.7,389.63-60.84C756.03-3.58,383.44,64.92,418.16,322.36z"/>
		</g>
		<g>
			<path class="st0" d="M418.16,322.36c56.68,257.63,417.19,191.7,389.63-60.84C756.03-3.58,383.44,64.92,418.16,322.36z"/>
		</g>
		<g class="st1">
			<path class="st2" d="M761.81,461.36c-0.45,0.47-0.9,0.92-1.37,1.37c-10.27,10.24-21.64,19.16-33.8,26.75
				c-103.76,64.93-265.2,32.81-301.56-132.47c-1.89-14.03-2.58-27.49-2.17-40.36c33.69,43.01,64.08,72.2,85.09,90.08
				c0,0,30.64,84.85,100.35,80.15c52.45-3.53,88.99-23.97,111.33-41.77l-0.38-2.41c0,0,0.87,0.21,2.48,0.69
				c17.08-14.01,25.17-25.97,25.17-25.97c3.1,12.06,7.45,26.76,12.63,42.65C760.32,460.5,761.07,460.93,761.81,461.36z"/>
		</g>
		<g>
			<path class="st0" d="M418.16,322.36c56.68,257.63,417.19,191.7,389.63-60.84C756.03-3.58,383.44,64.92,418.16,322.36z"/>
		</g>
		<g>
			<path class="st2" d="M609.74,492.05c-38.2,0-75.09-10.38-106.48-30.33c-45.95-29.2-77.36-76.95-90.81-138.1l-0.08-0.48
				c-8.32-61.65,5.69-117.06,40.51-160.24c31.06-38.52,76.41-64.39,127.69-72.85c51.18-8.44,102.05,1.61,143.23,28.29
				c46.44,30.09,77.47,79.21,89.74,142.05l0.07,0.49c6.61,60.56-8.22,114.86-42.9,157.02c-31.01,37.71-75.82,63.02-126.18,71.28
				C632.89,491.1,621.25,492.05,609.74,492.05z M423.93,321.34c28.3,128.12,130.21,170.83,218.7,156.31
				C729.1,463.46,815.82,390.06,802,262.4C776.28,131.28,670.2,87.13,582.46,101.6C493.86,116.21,406.49,191.2,423.93,321.34z"/>
		</g>
		<g class="st1">
			<path class="st2" d="M418.17,322.35c45.08,223.38,350.06,213.95,389.13-1.56c-34.52,62.53-58.43,57.56-104.85,79.83
				c-144.84,75.55-287-62.5-263.7-204.28C417.75,235.46,411.02,279.92,418.17,322.35z"/>
		</g>
		<g>
			<path class="st2" d="M432.87,370.7c142.12,182.88,385.26,28.82,294.31-152.41C612.97,21.48,345.64,151.85,432.87,370.7z"/>
		</g>
		<g>
			<path class="st8" d="M433.8,223.55c-77.89,194.3,194.02,320.74,294.38,154.79C597.52,447.78,448.66,338.38,433.8,223.55z"/>
		</g>
		<g>
			<path class="st2" d="M586.79,478.68c-37.08,0-72.57-11.25-101.33-32.37c-37-27.17-62.01-69.7-72.31-122.98l-0.01-0.04
				c-16.38-88.32,36.93-200.6,142.4-226.98l0.85-0.14c53.13-4,107.72,15.92,149.8,54.68c41.94,38.62,66.2,91.07,66.58,143.9
				c-0.95,51.16-19.5,96-53.64,129.81c-30.95,30.65-72.29,49.62-116.42,53.43C597.39,478.45,592.07,478.68,586.79,478.68z
				 M423.18,321.4c22.72,117.49,110.43,152.32,178.66,146.42c78.4-6.77,158.78-68.41,160.73-173.13
				c-0.36-49.89-23.42-99.63-63.29-136.34c-39.89-36.74-91.51-55.69-141.68-52.04C457.99,131.5,407.68,237.77,423.18,321.4z"/>
		</g>
		<g>
			<path class="st2" d="M585.07,459.39c-10.2,0-20.46-0.9-30.65-2.73c-47.85-8.58-91.65-36.93-126.66-81.98l-0.56-0.72l-0.34-0.85
				c-21.07-52.87-23.32-104.6-6.51-149.61c15.06-40.32,44.65-72.88,83.3-91.67c37.78-18.37,80.45-21.69,120.14-9.35
				c44.11,13.71,81.8,45.73,108.98,92.58l0.19,0.35c21.37,42.58,26.18,86.56,13.91,127.19c-11.11,36.79-35.84,68.8-69.64,90.12
				C649.39,450.26,617.49,459.39,585.07,459.39z M438.54,367.45c72.56,92.74,168.62,94.15,231.78,54.3
				c57.32-36.17,95.34-112.14,51.16-200.38c-56.69-97.51-147.39-109.41-212.17-77.91C442.75,175.82,395.16,257.58,438.54,367.45z"/>
		</g>
		<g>
			<path class="st0" d="M805.55,409.46c-45.65,81.04-130.71,42.11-94.93-39.65C755.34,283.12,846.27,324.72,805.55,409.46z"/>
		</g>
		<g class="st1">
			<path class="st2" d="M726.52,450.57c-25.58-11.48-32.31-50.68-13.81-84.95c1.89,44.09,65.58-2.97,75.24-19.75
				C848.55,388.63,773.06,472.67,726.52,450.57z"/>
		</g>
		<g>
			<path class="st2" d="M744.4,460.57c-7.85,0-15.2-1.76-21.58-4.94c-23.21-11.58-37.83-43.41-18.13-88.41l0.18-0.37
				c24.59-47.66,63.87-59.44,89.97-46.44c23.59,11.75,38.82,45.51,16.55,91.86l-0.19,0.37C791.84,446.98,766.2,460.57,744.4,460.57z
				 M716.46,372.6c-16.16,37.1-5.57,62.61,12.14,71.44c18.79,9.37,49.06,1.6,71.21-37.57c18.35-38.35,7.31-65.48-10.74-74.48
				C768.67,321.84,737.21,332.54,716.46,372.6z M805.55,409.46h0.02H805.55z"/>
		</g>
		<g>
			<path class="st0" d="M807.08,415.55c-37.06,65.64-101.28,37.55-72.35-28.59C771.05,315.75,840.81,346.35,807.08,415.55z"/>
		</g>
		<g>
			<path class="st2" d="M757.64,459.34c-5.89,0-11.37-1.3-16.14-3.68c-17.93-8.95-28.81-34.47-12.71-71.29l0.16-0.35
				c20.48-40.16,52.15-50.73,72.84-40.42c18.42,9.19,29.75,36.5,11.09,74.78l-0.18,0.35C796.3,447.81,775.17,459.34,757.64,459.34z
				 M740.58,389.73c-12.6,28.93-5.72,48.14,6.71,54.34c14.02,7,37.08-1.59,54.06-31.54c14.68-30.26,7.55-50.93-5.32-57.35
				C781.06,347.73,757.24,357.21,740.58,389.73z M807.08,415.55h0.02H807.08z"/>
		</g>
		<g class="st7">
			<path class="st0" d="M708.22,325.94c-23.4,31.39-59.5,5.35-43.84-25.2C686.3,263.33,729.34,293.34,708.22,325.94z"/>
		</g>
		<g class="st7">
			<path class="st0" d="M665.7,373.02c-9.64,11.49-25.65,0.4-16.33-13.05C659.02,348.48,675.02,359.57,665.7,373.02z"/>
		</g>
		<g class="st7">
			<path class="st0" d="M447.65,244.76c28.32-146.92,178.27-111.28,210.72-65.71C564.21,151.01,502.35,192.5,447.65,244.76z"/>
		</g>
		<g class="st1">
			<path class="st2" d="M725.29,401.46c2.43-10.32,7.7-20.01,14.67-28.07c-5.23,51.84,50.03,48.81,73.71,19.08
				C798,466.18,714.86,472.21,725.29,401.46z"/>
		</g>
	</g>
</g>
</svg>
