<?xml version="1.0" encoding="utf-8"?>
<!-- Generator: Adobe Illustrator 25.0.0, SVG Export Plug-In . SVG Version: 6.00 Build 0)  -->
<svg version="1.1" id="Layer_1" xmlns="http://www.w3.org/2000/svg" xmlns:xlink="http://www.w3.org/1999/xlink" x="0px" y="0px"
	 viewBox="0 0 1000 1000" style="enable-background:new 0 0 1000 1000;" xml:space="preserve">
<style type="text/css">
	.st0{fill:#FFFFFF;}
	.st1{fill:#371A45;}
	.st2{opacity:0.35;}
	.st3{fill:#22A7F0;}
	.st4{opacity:0.5;}
	.st5{fill:#111A28;}
	.st6{opacity:0.2;}
	.st7{fill:#390075;}
	.st8{fill:#00C10E;}
	.st9{fill:#FCF7FB;}
	.st10{opacity:0.7;}
	.st11{fill:#93603E;}
</style>
<g>
	<g>
		<g>
			<path class="st0" d="M623.63,546.6v255.25c0,42.93-35.13,78.04-78.04,78.04H287.53c-42.91,0-78.04-35.11-78.04-78.04V546.6
				c0-25.28,12.17-47.83,30.93-62.11c13.12-9.99,29.46-15.93,47.11-15.93h258.06c19.3,0,37.03,7.11,50.69,18.85
				C613,501.74,623.63,522.97,623.63,546.6z"/>
		</g>
		<g>
			<path class="st1" d="M545.58,468.55c42.92,0,78.04,35.12,78.04,78.04v255.26c0,42.92-35.12,78.04-78.04,78.04H287.53
				c-42.92,0-78.04-35.12-78.04-78.04V546.59c0-42.92,35.12-78.04,78.04-78.04H545.58 M545.58,455.32H287.53
				c-50.33,0-91.27,40.95-91.27,91.27v255.26c0,50.33,40.94,91.27,91.27,91.27h258.05c50.33,0,91.27-40.94,91.27-91.27V546.59
				C636.85,496.26,595.91,455.32,545.58,455.32L545.58,455.32z"/>
		</g>
		<g>
			<path class="st0" d="M514.68,459.42c96.12,33,103.22,109.12,169.71,153.3c28.78,19.13,58.85,14.45,94.75,4.82
				c19.14-5.13,28.32,13.84,29.58,46.31c1.75,45.24-13.82,77.25-107.98,79.09C591,745.1,572,615.18,572,615.18"/>
		</g>
		<g class="st2">
			<path class="st1" d="M700.74,742.96C590.99,745.1,572,615.19,572,615.19l-10.93-29.71c45.27,27.44,37.8,124.7,139.67,122.72
				c77.86-1.52,101.97-23.67,107.02-56.87c0.46,3.9,0.79,8.1,0.96,12.54C810.47,709.1,794.91,741.11,700.74,742.96z"/>
		</g>
		<g>
			<path class="st1" d="M698.12,749.6c-46.18,0-83.7-22.92-108.64-66.44c-18.87-32.92-23.82-65.65-24.02-67.02
				c-0.53-3.62,1.97-6.98,5.59-7.51c3.61-0.52,6.98,1.98,7.5,5.59c0.05,0.31,4.87,31.92,22.6,62.69
				c23.21,40.27,56.7,60.34,99.47,59.43c44.91-0.88,73.81-8.79,88.33-24.18c9.98-10.58,14.04-25.39,13.16-48.04
				c-1.06-27.44-7.51-36.17-11.26-38.94c-1.68-1.23-4.53-2.71-9.99-1.25c-34.37,9.22-67.89,15.72-100.13-5.7
				c-28.04-18.63-45.99-42.89-63.35-66.35c-25.61-34.61-49.81-67.31-104.85-86.21c-3.46-1.19-5.3-4.95-4.11-8.41s4.95-5.3,8.41-4.11
				c58.94,20.24,85.5,56.14,111.19,90.85c17.45,23.58,33.93,45.85,60.03,63.2c25.16,16.72,50.82,14.28,89.38,3.94
				c8-2.15,15.36-0.98,21.27,3.37c10.07,7.42,15.66,23.93,16.64,49.08c0.69,17.83-0.59,40.49-16.76,57.63
				c-17.33,18.37-48.37,27.37-97.7,28.33C699.95,749.59,699.03,749.6,698.12,749.6z"/>
		</g>
		<g>
			<path class="st0" d="M318.09,459.42c-96.12,33-110.02,111.75-175.45,157.5c-19.53,13.65-46.42,21.13-88.98,14.48
				c-19.58-3.06-42.85-5.79-46.88,26.46c-3.27,26.21,42.05,85.29,125.24,85.1c109.76-0.25,128.74-127.77,128.74-127.77
				L318.09,459.42z"/>
		</g>
		<g class="st2">
			<path class="st1" d="M273,591.96l-12.24,23.21c0,0-18.99,127.53-128.75,127.79c-83.18,0.19-128.5-58.89-125.23-85.11
				c0.22-1.77,0.5-3.43,0.83-5c8.67,42.01,56.73,67.65,126.49,67.5C237.09,720.13,216.8,615.84,273,591.96z"/>
		</g>
		<g>
			<path class="st1" d="M131.62,749.57c-63.52,0-99.18-32.55-111.58-46.57C6.01,687.16-1.4,669.97,0.22,657.04
				c1.58-12.64,6.15-21.89,13.58-27.49c12.18-9.18,28.77-6.58,40.88-4.68c36.27,5.67,63.01,1.43,84.17-13.36
				c25.06-17.52,42.18-39.87,60.3-63.54c27.93-36.48,56.82-74.2,116.79-94.79c3.45-1.19,7.22,0.65,8.41,4.11s-0.65,7.22-4.11,8.41
				c-56.19,19.29-83.84,55.4-110.58,90.32c-17.94,23.43-36.49,47.65-63.23,66.34c-23.8,16.64-54.48,21.75-93.79,15.59
				c-12.21-1.91-23.76-3.18-30.87,2.18c-4.53,3.41-7.28,9.48-8.41,18.56c-0.85,6.79,2.99,20.18,16.6,35.56
				c11.21,12.67,43.55,42.1,101.67,42.1c0.13,0,0.25,0,0.39,0c102.88-0.23,122.03-120.91,122.21-122.13
				c0.54-3.61,3.9-6.12,7.52-5.57c3.61,0.54,6.11,3.9,5.57,7.52c-0.2,1.35-5.15,33.51-24.03,66.13
				c-25.41,43.91-63.87,67.18-111.24,67.28C131.9,749.57,131.76,749.57,131.62,749.57z"/>
		</g>
		<g>
			<path class="st1" d="M238.91,681.2c-2.55,0-4.62-2.07-4.62-4.62c0-54.82-52.9-94.14-53.44-94.53c-2.06-1.5-2.51-4.39-1.01-6.45
				s4.39-2.51,6.45-1.01c2.34,1.7,57.23,42.41,57.23,101.99C243.53,679.13,241.46,681.2,238.91,681.2z"/>
		</g>
		<g>
			<path class="st0" d="M61,637.96c-17.37-20.07,1.08-32.62,19.63-22c16.85,9.65,31.91,21.28,51.02,15.76
				c0,0-1.45,12.13-16.79,25.45C99.5,670.48,61,637.96,61,637.96z"/>
		</g>
		<g>
			<path class="st1" d="M55.99,642.29c-3.48-3.58-6.79-7.86-8.46-13.89c-0.79-2.99-1.13-6.55-0.07-10.2
				c0.46-1.81,1.36-3.56,2.41-5.15c1.1-1.56,2.46-2.89,3.91-3.96c2.93-2.13,6.14-3.19,9.18-3.65c3.07-0.43,5.99-0.23,8.74,0.28
				c2.76,0.51,5.34,1.42,7.73,2.57c1.19,0.59,2.35,1.2,3.45,1.89c0.59,0.35,1.08,0.66,1.52,0.97l1.4,0.93
				c7.44,4.97,14.23,10.21,21.56,14.03c3.65,1.93,7.46,3.41,11.47,4.28c4.01,0.84,8.23,0.98,12.53,0.42h0.01
				c0.52-0.07,1,0.3,1.07,0.82c0.06,0.43-0.18,0.83-0.56,1c-4.14,1.84-8.78,2.9-13.51,2.95c-4.74,0.1-9.47-0.8-13.94-2.14
				c-8.96-2.79-16.94-7.21-24.65-11.04l-1.44-0.72c-0.49-0.26-0.96-0.48-1.34-0.64c-0.81-0.38-1.64-0.68-2.47-0.97
				c-1.65-0.56-3.31-0.87-4.89-1.03c-3.15-0.34-6.05,0.5-7.23,1.54c-0.57,0.55-0.83,0.92-0.99,1.53c-0.18,0.58-0.19,1.56,0.07,2.8
				c0.29,1.23,0.84,2.69,1.62,4.17c0.78,1.49,1.8,3.02,2.86,4.58l0.21,0.31c2.06,3.02,1.29,7.14-1.73,9.2
				C61.78,644.98,58.19,644.56,55.99,642.29z"/>
		</g>
		<g>
			<path class="st1" d="M139.74,703.56c-3.07,0.3-6.37,0.07-9.47-1.12c-3.09-1.19-5.85-3.18-8.14-5.41
				c-2.35-2.21-4.3-4.64-6.18-7.03l-5.5-7.07c-3.6-4.63-7.41-8.9-11.52-12.77c-4.11-3.91-8.58-7.24-13.33-10.37
				c-5-3.34-9.83-6.42-14.78-9.18c-4.94-2.75-9.98-5.12-15.11-7.05c-10.27-3.95-20.98-5.43-31.86-5.15h-0.18
				c-3.66,0.09-6.7-2.79-6.79-6.45c-0.09-3.38,2.38-6.24,5.64-6.72c12.9-1.93,26.47-0.01,38.39,4.94
				c12.02,4.77,22.45,12.43,31.68,19.94c4.94,3.85,9.59,8.31,13.66,13.1c4.14,4.76,7.58,10.03,10.71,15.26
				c3.1,5.24,5.77,10.59,9.02,15.1c1.64,2.25,3.53,4.19,5.84,5.58c2.32,1.35,5.03,2.19,7.92,2.5h0.01c0.52,0.06,0.9,0.53,0.84,1.05
				C140.55,703.17,140.18,703.52,139.74,703.56z"/>
		</g>
		<g>
			<path class="st0" d="M612.38,875.01H220.73c0,0-0.43-43.76,7.28-108.75c1.37-11.66,3.02-24.02,4.99-36.94
				c8.64-56.95,23.33-124.69,48.35-192.01c3.76-10.13,7.77-20.24,12-30.31c3.38-8,6.9-15.95,10.6-23.86
				c2.69-5.79,5.48-11.56,8.35-17.3h208.49c2.88,5.74,5.67,11.5,8.35,17.3c3.75,8,7.31,16.07,10.71,24.15
				c4.85,11.53,9.38,23.12,13.62,34.71c23.96,65.78,38.18,131.7,46.61,187.32c1.97,12.96,3.62,25.36,5.01,37.07
				C612.8,831.3,612.38,875.01,612.38,875.01z"/>
		</g>
		<g class="st2">
			<path class="st1" d="M612.38,875.01H220.73c0,0-0.43-43.76,7.28-108.75c1.37-11.66,3.02-24.02,4.99-36.94
				c3.72-24.52,8.57-51.06,14.88-78.68c20.46,71.47,86.36,125.89,167.09,125.89h3.5c80.51,0,146.23-54.13,166.89-125.33
				c6.25,27.42,11.04,53.76,14.73,78.11c1.97,12.96,3.62,25.36,5.01,37.07C612.8,831.3,612.38,875.01,612.38,875.01z"/>
		</g>
		<g>
			<path class="st1" d="M574.14,598.54c9.99,21.44,16.47,44.1,21.49,67c2.74,11.41,4.68,22.98,6.76,34.52
				c0.98,5.78,1.8,11.58,2.7,17.37l1.36,8.68l1.2,8.71l2.35,17.42l2.15,17.44c1.28,11.65,2.5,23.3,3.46,34.98
				c1.95,23.4,3.29,46.67,3.38,70.41l0.03,6.55h-6.64H413.22v-13.23h6.67v13.23H220.74h-6.64l0.03-6.55
				c0.09-23.85,1.45-47.24,3.41-70.75c1.98-23.46,4.63-46.87,8.11-70.16l1.26-8.74l1.44-8.71c0.98-5.8,1.87-11.62,2.93-17.42
				c2.23-11.56,4.24-23.16,6.56-34.72c1.15-5.78,2.15-11.59,3.56-17.31c1.38-5.73,2.94-11.42,4.56-17.09
				c1.56-5.68,3.53-11.26,5.79-16.75c2.21-5.5,4.63-10.93,7.6-16.18c0.62-1.09,2-1.47,3.09-0.85c0.75,0.42,1.16,1.21,1.15,2.01v0.06
				c-0.23,12.08-2.53,23.48-4.67,34.93c-1.13,5.71-2.32,11.4-3.69,17.05l-3.92,16.99c-5.4,22.63-9.1,45.64-12.57,68.64
				c-3.44,23.02-6.06,46.16-8.02,69.35c-1.94,23.14-3.28,46.54-3.37,69.51l-6.62-6.55h199.15v13.23h-6.67v-13.23h199.15l-6.62,6.55
				c-0.09-22.86-1.42-46.15-3.34-69.18c-1.97-23.07-4.46-46.12-8.03-69.01l-1.29-8.59l-1.48-8.56c-1.03-5.7-1.96-11.41-3.07-17.09
				c-2.28-11.35-4.34-22.74-6.69-34.07c-4.28-22.77-9.61-45.21-11.98-68.69l-0.01-0.05c-0.12-1.23,0.77-2.32,2-2.44
				C572.86,597.17,573.75,597.71,574.14,598.54z"/>
		</g>
		<g>
			<g class="st2">
				<path class="st1" d="M415.48,730.42c1.64,2.51,3.23,4.98,4.76,7.4C418.7,735.4,417.1,732.92,415.48,730.42z"/>
			</g>
			<g>
				<path class="st0" d="M323.05,731.81c-24.27,9.82-61.82,7.77-87.42,4.67c-15.36-1.86-26.13-16.03-23.87-31.33l0,0
					c2.06-13.96,14.35-24.12,28.45-23.46c23.95,1.12,59.87,1.65,82.61-3.4"/>
			</g>
			<g class="st2">
				<path class="st1" d="M323.06,731.8c-24.27,9.84-61.83,7.76-87.43,4.68c-15.36-1.86-26.13-16.04-23.87-31.33
					c0.45-3.12,1.43-6.05,2.82-8.73c4.04,7.72,11.7,13.41,21.04,14.54c25.56,3.1,63.05,5.15,87.32-4.62L323.06,731.8z"/>
			</g>
			<g>
				<path class="st1" d="M274.81,745.65c-14.05,0-28.02-1.16-39.97-2.61c-9.2-1.11-17.37-5.79-22.99-13.16
					c-5.63-7.38-7.99-16.51-6.63-25.71c2.57-17.41,17.72-29.96,35.31-29.1c24.95,1.17,59.23,1.55,80.87-3.25
					c3.44-0.76,11.99-0.8,17,15.34c5.07,16.32,4.5,43.74-12.86,50.76l0,0C311.28,743.71,292.98,745.65,274.81,745.65z M238.9,688.28
					c-10.31,0-19.07,7.51-20.6,17.84c-0.83,5.63,0.61,11.22,4.06,15.75c3.44,4.51,8.43,7.37,14.06,8.05
					c36.58,4.43,66.46,2.93,84.14-4.23c5.09-2.06,6.61-10.32,7.03-13.78c1.5-12.38-2.23-23.96-4.62-26.86
					c-23.08,4.83-57.8,4.46-83.08,3.27C239.57,688.29,239.23,688.28,238.9,688.28z M323.05,731.81h0.02H323.05z"/>
			</g>
			<g>
				<path class="st0" d="M596.07,736.47c-12.01,1.46-26.67,2.68-41.35,2.54c-1.01,0-2.01-0.02-3.02-0.05
					c-1.06-0.02-2.13-0.05-3.19-0.09c-0.72-0.02-1.42-0.05-2.11-0.08c-0.84-0.05-1.67-0.09-2.5-0.14c-1.06-0.06-2.11-0.14-3.16-0.21
					h-0.08c-1.04-0.08-2.1-0.17-3.14-0.28c-0.69-0.06-1.38-0.14-2.05-0.21c-0.58-0.05-1.16-0.12-1.73-0.18
					c-0.9-0.11-1.81-0.23-2.68-0.35c-0.84-0.12-1.67-0.24-2.48-0.38c-0.17-0.02-0.34-0.03-0.49-0.08c-0.97-0.14-1.91-0.31-2.85-0.49
					c-0.95-0.17-1.88-0.35-2.8-0.55c-0.08-0.02-0.15-0.03-0.23-0.05c-0.52-0.12-1.04-0.23-1.55-0.35c-0.57-0.12-1.13-0.26-1.7-0.41
					h-0.02c-1.73-0.43-3.43-0.92-5.09-1.44c-0.89-0.28-1.78-0.58-2.65-0.89c-0.87-0.31-1.73-0.64-2.56-0.98l0.11-25.69l0.12-27.82
					c5.82,1.3,12.52,2.22,19.64,2.86c20.71,1.88,45.15,1.36,62.97,0.54c0.43-0.02,0.86-0.03,1.3-0.03
					c13.54,0,25.16,9.96,27.15,23.49C622.21,720.45,611.42,734.62,596.07,736.47z"/>
			</g>
			<g class="st2">
				<path class="st1" d="M596.07,736.47c-12.01,1.46-26.67,2.68-41.35,2.54c-1.01,0-2.01-0.02-3.02-0.05
					c-1.06-0.02-2.13-0.05-3.19-0.09c-0.72-0.02-1.42-0.05-2.11-0.08c-0.84-0.05-1.67-0.09-2.5-0.14c-1.06-0.06-2.11-0.14-3.16-0.21
					h-0.08c-1.04-0.08-2.1-0.17-3.14-0.28c-0.69-0.06-1.38-0.14-2.05-0.21c-0.58-0.05-1.16-0.12-1.73-0.18
					c-0.9-0.11-1.81-0.23-2.68-0.35c-0.84-0.12-1.67-0.25-2.48-0.38c-0.17-0.02-0.34-0.03-0.49-0.08c-0.96-0.14-1.92-0.31-2.85-0.49
					c-0.95-0.17-1.88-0.35-2.8-0.55c-0.08-0.02-0.15-0.03-0.23-0.05c-0.52-0.12-1.04-0.23-1.55-0.35c-0.57-0.12-1.13-0.26-1.7-0.41
					h-0.02c-1.73-0.43-3.43-0.92-5.09-1.44c-0.89-0.28-1.78-0.58-2.65-0.89c-0.87-0.31-1.73-0.64-2.56-0.98l0.11-25.69l0.02-1.85
					c0.78,0.32,1.61,0.64,2.44,0.93c0.87,0.31,1.76,0.61,2.65,0.89c1.65,0.52,3.36,1.01,5.09,1.44h0.02
					c0.57,0.15,1.13,0.29,1.7,0.41c0.51,0.12,1.03,0.23,1.55,0.35l0.23,0.05c0.92,0.2,1.85,0.38,2.8,0.55
					c0.93,0.18,1.88,0.35,2.85,0.49c0.15,0.05,0.32,0.06,0.49,0.08c0.81,0.14,1.64,0.26,2.48,0.38c0.87,0.12,1.78,0.24,2.68,0.35
					c0.57,0.06,1.15,0.14,1.73,0.18c0.67,0.08,1.36,0.15,2.05,0.21c1.04,0.11,2.1,0.2,3.14,0.28h0.08c1.04,0.08,2.1,0.15,3.16,0.21
					c0.83,0.05,1.65,0.09,2.5,0.14c0.69,0.03,1.39,0.06,2.11,0.08c1.06,0.05,2.13,0.08,3.19,0.09c1.01,0.03,2.01,0.05,3.02,0.05
					c14.68,0.14,29.34-1.09,41.35-2.54c8.92-1.07,16.3-6.31,20.47-13.51c1.7,2.94,2.88,6.24,3.4,9.77
					C622.21,720.45,611.42,734.62,596.07,736.47z"/>
			</g>
			<g>
				<path class="st1" d="M556.9,745.65c-18.17,0-36.47-1.94-50.73-7.71l0,0c-17.36-7.03-17.94-34.45-12.86-50.76
					c5.02-16.14,13.56-16.11,17-15.34c21.64,4.8,55.92,4.41,80.87,3.25c17.57-0.89,32.73,11.69,35.31,29.1
					c1.36,9.19-1,18.33-6.63,25.71c-5.62,7.37-13.79,12.04-22.99,13.16C584.91,744.49,570.94,745.65,556.9,745.65z M511.14,725.67
					c17.68,7.16,47.56,8.66,84.14,4.23c5.63-0.68,10.62-3.54,14.06-8.05c3.45-4.52,4.89-10.11,4.06-15.74
					c-1.58-10.66-10.84-18.27-21.6-17.81c-25.28,1.18-60,1.56-83.08-3.28c-2.38,2.91-6.11,14.49-4.62,26.87
					C504.52,715.35,506.04,723.61,511.14,725.67L511.14,725.67z"/>
			</g>
			<g>
				<path class="st0" d="M518.03,660.61v85.76c0,15.91-13.02,28.94-28.94,28.94H331.16c-15.89,0-28.91-13.02-28.91-28.94v-85.76
					c0-15.91,13.02-28.91,28.91-28.91H489.1c9.37,0,17.73,4.51,23.03,11.46C515.83,648.01,518.03,654.06,518.03,660.61z"/>
			</g>
			<g class="st2">
				<path class="st1" d="M518.03,660.61v85.76c0,15.9-13.02,28.92-28.94,28.92H331.16c-15.9,0-28.91-13.01-28.91-28.91v-32.1
					c16.92,32.9,74.41,45.83,121.71,41.04c10.56-1.07,18.12-11.11,15.6-21.42c-0.75-3.08-1.16-6.34-1.16-9.72
					c0-18.71,12.39-33.87,27.68-33.87c14.78,0,26.89,14.19,27.67,32.05c18.95-24.77,19.98-57.93,18.38-79.2
					C515.83,648.02,518.03,654.07,518.03,660.61z"/>
			</g>
			<g>
				<path class="st1" d="M489.11,781.91H331.17c-19.59,0-35.54-15.94-35.54-35.53v-85.77c0-19.59,15.94-35.54,35.54-35.54h157.94
					c19.59,0,35.54,15.94,35.54,35.54v85.77C524.64,765.97,508.7,781.91,489.11,781.91z M331.17,638.3c-12.3,0-22.3,10.01-22.3,22.3
					v85.77c0,12.3,10.01,22.3,22.3,22.3h157.94c12.3,0,22.3-10,22.3-22.3V660.6c0-12.3-10-22.3-22.3-22.3H331.17z"/>
			</g>
			<g>
				<circle class="st3" cx="466.09" cy="703.49" r="24.94"/>
			</g>
			<g>
				<path class="st0" d="M491.03,703.5c0,1.35-0.1,2.68-0.32,3.97c-1.9-11.89-12.2-20.97-24.62-20.97
					c-12.42,0-22.72,9.08-24.62,20.97c-0.22-1.3-0.32-2.62-0.32-3.97c0-13.77,11.17-24.94,24.94-24.94
					C479.86,678.55,491.03,689.72,491.03,703.5z"/>
			</g>
			<g class="st2">
				<path class="st1" d="M491.02,703.49c0,13.77-11.16,24.94-24.94,24.94s-24.94-11.16-24.94-24.94c0-3.19,0.6-6.22,1.71-9.02
					c3.59,9.3,12.64,15.89,23.23,15.89s19.63-6.59,23.23-15.89C490.42,697.26,491.02,700.3,491.02,703.49z"/>
			</g>
			<g>
				<path class="st1" d="M466.09,733.4c-16.49,0-29.9-13.42-29.9-29.9c0-16.49,13.41-29.9,29.9-29.9s29.9,13.41,29.9,29.9
					C495.99,719.98,482.58,733.4,466.09,733.4z M466.09,683.52c-11.02,0-19.98,8.96-19.98,19.98c0,11.02,8.96,19.98,19.98,19.98
					c11.02,0,19.98-8.96,19.98-19.98C486.07,692.48,477.1,683.52,466.09,683.52z"/>
			</g>
			<g>
				<path class="st1" d="M395.41,780.84c-3.06,0-5.54-2.48-5.54-5.54v-41.38c0-10.65-5.08-20.82-13.58-27.23
					c-11.27-8.49-18-21.97-18-36.09v-38.91c0-3.06,2.48-5.54,5.54-5.54s5.54,2.48,5.54,5.54v38.91c0,10.65,5.08,20.83,13.58,27.23
					c11.27,8.49,18,21.98,18,36.09v41.38C400.95,778.36,398.47,780.84,395.41,780.84z"/>
			</g>
		</g>
		<g class="st2">
			<path class="st1" d="M596.28,487.4c-46.79,58.82-116.51,93.76-192.25,88.23c-65.9-4.81-123.71-39.36-163.62-91.14
				c13.12-9.99,29.46-15.93,47.11-15.93h258.06C564.89,468.56,582.61,475.67,596.28,487.4z"/>
		</g>
		<g>
			<g>
				<path class="st0" d="M674.36,358.61L674.36,358.61c-2.93,0.02-5.31-2.34-5.33-5.27l-0.86-152.56c-0.02-2.93,2.34-5.31,5.27-5.33
					l0,0c30.69-0.17,55.7,24.56,55.88,55.25l0.29,52.02C729.78,333.42,705.04,358.44,674.36,358.61z"/>
				<path class="st1" d="M674.33,359.86c-1.73,0-3.36-0.67-4.6-1.89c-1.24-1.23-1.93-2.87-1.94-4.61l-0.86-152.56
					c-0.01-1.75,0.66-3.39,1.89-4.64c1.23-1.24,2.87-1.93,4.61-1.94c15.14-0.09,29.47,5.74,40.26,16.41
					c10.79,10.67,16.78,24.9,16.86,40.08l0.29,52.02c0.09,15.17-5.74,29.47-16.41,40.26s-24.9,16.78-40.08,16.86l0,0
					C674.35,359.86,674.34,359.86,674.33,359.86z M673.76,196.71c-0.1,0-0.21,0-0.31,0c-1.08,0.01-2.1,0.43-2.86,1.2
					s-1.18,1.79-1.17,2.87l0.86,152.56c0.01,1.08,0.43,2.1,1.2,2.86c0.76,0.76,1.78,1.17,2.85,1.17c0.01,0,0.02,0,0.02,0l0,0
					c14.51-0.08,28.12-5.81,38.32-16.12c10.2-10.32,15.77-23.99,15.69-38.5l-0.29-52.02c-0.08-14.51-5.81-28.12-16.12-38.32
					C701.7,202.27,688.15,196.71,673.76,196.71z"/>
			</g>
			<g class="st2">
				<path class="st1" d="M729.47,278.34l0.14,24.4c0.17,30.68-24.57,55.7-55.26,55.88c-2.92,0.02-5.31-2.35-5.33-5.28l-0.24-40.56
					c0.83,1.84,2.69,3.11,4.84,3.12l3.62-0.03C701.49,315.74,722.04,300.08,729.47,278.34z"/>
			</g>
			<g>
				<path class="st1" d="M674.33,365.54c-3.24,0-6.29-1.25-8.59-3.53c-2.32-2.3-3.61-5.36-3.63-8.62l-0.86-152.56
					c-0.02-3.27,1.24-6.34,3.53-8.66c2.3-2.32,5.36-3.61,8.62-3.63c16.75-0.13,32.42,6.32,44.29,18.05s18.46,27.39,18.55,44.09
					l0.29,52.02c0.09,16.69-6.32,32.42-18.05,44.29c-11.74,11.87-27.39,18.46-44.09,18.55l0,0
					C674.37,365.54,674.35,365.54,674.33,365.54z M675.11,202.41l0.84,149.24c12.38-0.47,23.93-5.55,32.68-14.4
					c9.13-9.24,14.12-21.48,14.05-34.47l-0.29-52.02c-0.07-12.99-5.2-25.18-14.44-34.31C699.1,207.69,687.49,202.74,675.11,202.41z"
					/>
			</g>
			<g>
				<path class="st0" d="M169.88,198.29L169.88,198.29c2.93-0.02,5.31,2.34,5.33,5.27l0.86,152.56c0.02,2.93-2.34,5.31-5.27,5.33
					l0,0c-30.69,0.17-55.7-24.56-55.88-55.25l-0.29-52.02C114.46,223.48,139.2,198.46,169.88,198.29z"/>
				<path class="st1" d="M170.48,362.69c-31.18,0-56.63-25.27-56.8-56.49l-0.29-52.02c-0.18-31.32,25.17-56.95,56.49-57.13l0,0
					c1.81,0.04,3.39,0.66,4.64,1.89c1.24,1.23,1.93,2.87,1.94,4.61l0.86,152.56c0.01,1.75-0.66,3.39-1.89,4.64
					c-1.23,1.24-2.87,1.93-4.61,1.94C170.7,362.69,170.59,362.69,170.48,362.69z M169.89,199.54
					c-29.95,0.17-54.18,24.67-54.01,54.62l0.29,52.02c0.17,29.85,24.51,54.01,54.31,54.01c0.1,0,0.21,0,0.31,0
					c1.08-0.01,2.1-0.43,2.86-1.2c0.76-0.77,1.18-1.79,1.17-2.87l-0.86-152.56c-0.01-1.08-0.43-2.1-1.2-2.86
					C171.99,199.95,170.96,199.48,169.89,199.54L169.89,199.54z"/>
			</g>
			<g class="st2">
				<path class="st1" d="M175.84,313.79l0.23,42.32c0.02,2.92-2.35,5.31-5.28,5.33c-16.11,0.08-30.67-6.69-40.88-17.59
					c-9.22-9.85-14.9-23.08-14.99-37.65l-0.12-21.92c8.82,19.18,28.3,32.47,50.8,32.35l5.57-0.03
					C173.21,316.58,174.93,315.45,175.84,313.79z"/>
			</g>
			<g>
				<path class="st1" d="M170.48,368.37c-34.3,0-62.29-27.8-62.49-62.14l-0.29-52.02c-0.19-34.46,27.68-62.65,62.14-62.84l0,0
					c3.28-0.01,6.34,1.24,8.66,3.53c2.32,2.3,3.61,5.36,3.63,8.62L183,356.08c0.02,3.27-1.24,6.34-3.53,8.66
					c-2.3,2.32-5.36,3.61-8.62,3.63C170.72,368.37,170.6,368.37,170.48,368.37z M168.29,205.26c-26.06,1.01-46.88,22.6-46.73,48.87
					l0.29,52.02c0.15,26.27,21.21,47.63,47.28,48.34L168.29,205.26z"/>
			</g>
			<g>
				<circle class="st0" cx="422.15" cy="278.45" r="259.97"/>
				<path class="st1" d="M422.52,539.69c-5.79,0-11.6-0.19-17.43-0.57c-143.73-9.41-253.01-134-243.6-277.72
					c9.41-143.73,133.98-253,277.72-243.6c143.73,9.41,253.01,134,243.6,277.72c-4.56,69.62-35.96,133.31-88.41,179.32
					C546.34,516.99,485.87,539.69,422.52,539.69z M421.98,19.72c-135.03,0-249.06,105.19-258,241.84
					c-9.32,142.36,98.92,265.76,241.28,275.08c5.72,0.37,11.42,0.56,17.07,0.56c135.03,0.01,249.06-105.2,258-241.84
					C689.65,153,581.41,29.6,439.05,20.28C433.33,19.9,427.63,19.72,421.98,19.72z"/>
			</g>
			<g class="st2">
				<path class="st1" d="M681.44,259.36c0.88,11.84,0.94,23.88,0.14,36.08c-9.4,143.27-133.14,251.81-276.41,242.44
					c-143.27-9.4-251.81-133.14-242.44-276.41c0.27-4.12,0.63-8.24,1.1-12.29c9.22,127.43,111.21,231.75,242.3,240.33
					C545.27,498.62,665.98,396.5,681.44,259.36z"/>
			</g>
			<g>
				<path class="st1" d="M422.33,545.36c-5.84,0-11.71-0.19-17.61-0.58c-146.86-9.61-258.51-136.91-248.9-283.77
					C165.43,114.16,292.7,2.51,439.59,12.12c146.86,9.61,258.51,136.91,248.9,283.77C679.26,436.84,561.62,545.36,422.33,545.36z
					 M421.98,25.4c-132.07,0-243.59,102.88-252.34,236.52c-9.11,139.23,96.74,259.92,235.98,269.04c5.59,0.36,11.17,0.55,16.7,0.55
					c132.07,0.01,243.59-102.88,252.34-236.53c9.11-139.23-96.74-259.92-235.98-269.03C433.09,25.58,427.51,25.4,421.98,25.4z"/>
			</g>
			<g>
				<path class="st1" d="M680.31,302.04c-2.56,50.81-21.42,97.15-51.59,134.76C606.1,465,516.59,511.83,409.2,507.4
					c-99.58-4.11-187.47-61.74-207.14-92.06c-26.24-40.45-40.36-88.45-37.81-139.26c6.76-134.46,125.09-184.38,267.6-177.21
					C574.35,106.04,687.07,167.59,680.31,302.04z"/>
			</g>
			<g>
				<path class="st1" d="M423.9,514.63c-4.95,0-9.94-0.1-15-0.31c-103.24-4.26-191.99-63.34-212.67-95.21
					c-28.01-43.16-41.46-92.74-38.92-143.38c3.32-66.02,32.36-115.59,86.3-147.34c47.03-27.68,112.23-40.3,188.57-36.45
					c76.33,3.84,139.94,22.92,183.96,55.19c50.48,37,74.4,89.24,71.08,155.26l0,0c-2.55,50.63-20.91,98.61-53.11,138.75
					C612.78,467.74,530.55,514.63,423.9,514.63z M407.13,105.18c-83.55,0-228.44,21.75-235.97,171.26
					c-2.4,47.7,10.29,94.43,36.7,135.14c18.75,28.9,104.52,84.9,201.62,88.91c107.64,4.46,193.68-42.89,213.83-68.01
					c30.36-37.85,47.68-83.07,50.08-130.77c3.07-61.07-18.94-109.31-65.43-143.38c-41.83-30.66-102.85-48.82-176.46-52.52
					C424.23,105.42,416.02,105.18,407.13,105.18z M680.31,302.04h0.02H680.31z"/>
			</g>
			<g class="st4">
				
					<ellipse transform="matrix(0.2275 -0.9738 0.9738 0.2275 189.2501 797.6567)" class="st0" cx="597.37" cy="279.55" rx="46.01" ry="33.34"/>
			</g>
			<g class="st4">
				
					<ellipse transform="matrix(0.3599 -0.933 0.933 0.3599 9.5027 750.9288)" class="st0" cx="552.02" cy="368.54" rx="21.12" ry="18.12"/>
			</g>
			<g class="st2">
				<path class="st5" d="M636.43,174.08c30.03,31.69,46.58,73.95,43.87,127.95c-2.56,50.82-21.43,97.16-51.58,134.77
					c-22.63,28.2-112.14,75.03-219.53,70.6c-37.92-1.56-74.13-10.88-105.55-23.52c132.13,2.62,241.18-54.9,269.23-89.87
					c38.3-47.73,62.24-106.56,65.47-171.03C639.22,205.75,638.52,189.46,636.43,174.08z"/>
			</g>
			<g>
				<path class="st1" d="M664.05,189.79c-1.67,0-3.35-0.62-4.66-1.86l-0.69-0.62l-0.39-0.68c-40.63-63.49-123.33-102.89-226.9-108.1
					c-104.14-5.23-190.35,26.81-236.53,87.92l-0.49,0.58c-2.49,2.79-6.73,2.97-9.51,0.48c-2.71-2.43-2.96-6.59-0.68-9.38
					c48.95-64.64,139.28-98.58,247.89-93.12c107.83,5.43,194.33,46.97,237.42,114c1.9,2.59,1.74,6.25-0.55,8.66
					C667.63,189.08,665.84,189.79,664.05,189.79z"/>
			</g>
			<g class="st4">
				<path class="st0" d="M218.17,358.98c0,0-34.97-134.74,39.17-184s176.98-43.87,174.24-37.4c0,0-115.24,21.84-164.32,109.61
					C229.42,314.88,218.17,358.98,218.17,358.98z"/>
			</g>
		</g>
		<g>
			<path class="st0" d="M429.23,942.92c0,0-162.86,18.46-235.25-43.74c-98.9-84.98-14.1-191.47,59.37-163.1
				c63.96,24.7,90.27,44.12,203.88,62.74c95.2,15.6,176.98,113.34,108.67,170.07C517.67,1008.94,429.23,942.92,429.23,942.92z"/>
		</g>
		<g class="st2">
			<path class="st1" d="M565.89,968.88c-48.23,40.06-136.66-25.96-136.66-25.96s-162.86,18.45-235.26-43.75
				c-28.51-24.5-41.75-50.79-44.39-75.11c4.93,5.68,10.59,11.33,17.05,16.86c72.4,62.21,235.26,43.75,235.26,43.75
				s88.43,66.03,136.66,25.98c18.86-15.66,26.29-34.45,25.13-53.78C595.38,892.69,604.07,937.19,565.89,968.88z"/>
		</g>
		<g>
			<path class="st1" d="M527.28,988.45c-42.85,0-89.25-31.13-99.88-38.68c-22,2.2-168.17,14.2-237.73-45.57
				c-56.34-48.41-54.66-102.02-34.29-136.05c21.68-36.24,63.89-52.33,100.36-38.24c14.18,5.48,26.44,10.66,38.3,15.67
				c41.02,17.34,76.45,32.32,164.27,46.71c63.24,10.37,123.27,57.11,136.67,106.42c7.81,28.75-1.01,55.48-24.84,75.27
				C557.5,984.46,542.62,988.45,527.28,988.45z M431.09,936.05l2.1,1.56c0.65,0.49,51.05,37.57,94.05,37.57
				c12.59,0,24.55-3.18,34.44-11.39c19.89-16.52,26.99-37.82,20.53-61.61c-12.15-44.71-67.51-87.24-126.04-96.84
				c-89.38-14.65-125.48-29.91-167.28-47.58c-11.76-4.97-23.93-10.11-37.91-15.52c-30.45-11.75-65.87,1.99-84.24,32.7
				c-17.59,29.41-18.54,76.17,31.56,119.22c69.4,59.63,228.59,42.37,230.19,42.19L431.09,936.05z"/>
		</g>
		<g>
			<path class="st1" d="M277.11,940.76c-1.65,0-3.25-0.89-4.08-2.45c-1.2-2.25-0.35-5.05,1.9-6.25
				c68.35-36.43,49.14-163.36,48.94-164.63c-0.4-2.52,1.32-4.89,3.84-5.29c2.52-0.4,4.89,1.32,5.28,3.84
				c0.87,5.48,20.37,134.74-53.72,174.23C278.59,940.58,277.84,940.76,277.11,940.76z"/>
		</g>
		<g>
			<path class="st0" d="M397.45,942.92c0,0,162.86,18.46,235.25-43.74c98.9-84.98,14.1-191.47-59.37-163.1
				c-63.96,24.7-90.27,44.12-203.88,62.74c-95.2,15.6-176.98,113.34-108.67,170.07C309.02,1008.94,397.45,942.92,397.45,942.92z"/>
		</g>
		<g class="st2">
			<path class="st1" d="M632.7,899.18c-72.38,62.2-235.24,43.75-235.24,43.75s-88.45,66.01-136.68,25.96
				c-23.43-19.46-29.21-43.76-22.8-67.9c3.49,11.79,6.91,29.92,19.19,39.45c37.45,29.07,78.88,16.21,104.84-6.82
				c19.71-17.48,16.49-31.8,29.14-38.91c14.19-7.98,34.32,21.52,78.63,23.83c83.35,4.34,140.21-20.36,167.03-47.76
				c23.33-23.83,34.45-51.43,38.97-73.37C682.31,828.18,672.04,865.38,632.7,899.18z"/>
		</g>
		<g>
			<path class="st1" d="M299.41,988.45c-15.34,0-30.22-3.99-42.85-14.47c-23.83-19.79-32.65-46.52-24.84-75.27
				c13.4-49.31,73.43-96.06,136.67-106.42c87.82-14.39,123.25-29.37,164.27-46.71c11.86-5.01,24.12-10.2,38.3-15.67
				c36.47-14.09,78.68,2,100.36,38.24c20.36,34.03,22.04,87.64-34.29,136.05c-69.56,59.77-215.73,47.77-237.73,45.57
				C388.66,957.32,342.26,988.45,299.41,988.45z M598.21,738.07c-7.58,0-15.18,1.35-22.49,4.17c-13.98,5.4-26.15,10.54-37.91,15.52
				c-41.8,17.67-77.9,32.94-167.28,47.58c-58.53,9.59-113.89,52.13-126.04,96.84c-6.46,23.79,0.64,45.09,20.53,61.61
				c43.65,36.25,127.64-25.55,128.48-26.18l2.1-1.56l2.6,0.29c1.6,0.18,160.85,17.4,230.2-42.19
				c50.1-43.05,49.16-89.81,31.56-119.22C646,751.61,622.19,738.07,598.21,738.07z"/>
		</g>
		<g>
			<path class="st1" d="M549.58,940.76c-0.73,0-1.48-0.18-2.17-0.54c-74.1-39.49-54.59-168.75-53.72-174.23
				c0.4-2.52,2.77-4.25,5.28-3.84c2.52,0.4,4.24,2.76,3.84,5.28c-0.2,1.28-19.35,128.24,48.94,164.64c2.25,1.2,3.1,4,1.9,6.25
				C552.83,939.87,551.23,940.76,549.58,940.76z"/>
		</g>
		<g>
			<g class="st6">
				<path class="st7" d="M831.09,711.32v1.21h-3.48C828.78,712.16,829.94,711.75,831.09,711.32z"/>
			</g>
			<g>
				<path class="st8" d="M746.23,659.72c0,19.37,7.85,36.89,20.53,49.59c12.7,12.68,30.22,20.53,49.59,20.53h67.24L859.62,589.6
					h-43.27C777.63,589.6,746.23,621,746.23,659.72z M766.79,659.72c0-23.42,26.16-42.4,49.56-42.4h19.89l14.49,84.8h-34.38
					c-11.7,0-22.29-4.75-29.98-12.42C778.7,682.03,766.79,671.44,766.79,659.72z"/>
			</g>
			<g class="st2">
				<path class="st1" d="M746.23,659.71c0,19.38,7.85,36.9,20.53,49.59c12.7,12.69,30.22,20.54,49.59,20.54h67.24l-2.24-13.1h-65.01
					c-19.36,0-36.88-7.85-49.59-20.54c-11.22-11.24-18.66-26.28-20.22-43.03C746.33,655.32,746.23,657.51,746.23,659.71z
					 M848.5,689.02h2.24l-14.5-84.8h-19.89c-23.39,0-33.71,12.4-47.59,36.41c-1.12,1.94-2.3,10.41-1.96,12.54
					c3.14-20.3,28.38-35.84,49.55-35.84h19.89L848.5,689.02z"/>
			</g>
			<g>
				<path class="st1" d="M891.43,736.46h-75.08c-20.48,0-39.75-7.98-54.26-22.47c-14.5-14.52-22.48-33.79-22.48-54.27
					c0-42.31,34.42-76.74,76.74-76.74h48.85L891.43,736.46z M816.35,596.22c-35.02,0-63.51,28.49-63.51,63.51
					c0,16.95,6.6,32.9,18.6,44.91c12,11.99,27.96,18.59,44.91,18.59h59.39l-21.71-127.01H816.35z M858.57,708.74h-42.22
					c-22.58,0-56.17-13.05-56.17-49.01c0-30.68,28.56-49.01,56.17-49.01h25.47L858.57,708.74z M816.35,623.94
					c-20.82,0-42.94,12.54-42.94,35.78c0,35.37,42.51,35.78,42.94,35.78h26.53l-12.23-71.57h-14.3V623.94z"/>
			</g>
			<g>
				<path class="st8" d="M850.29,727.49c6.52,13.77,19.52,23.49,34.63,25.46c8.33,1.09,16.71,1.63,25.09,1.63
					c8.4,0,16.78-0.54,25.11-1.63c15.18-1.98,28.17-11.8,34.71-25.64c15.5-32.81,23.55-68.67,23.55-105.02
					c0-5.22-0.15-10.42-0.49-15.64l-2.48-39.34c0,8.38-35.99,15.17-80.4,15.17c-44.39,0-80.38-6.79-80.38-15.17l-2.5,39.34
					C824.48,648.37,832.52,689.94,850.29,727.49z"/>
			</g>
			<g>
				<g>
					<path class="st9" d="M931.94,672.85c-2.9-5.81-7.27-10.45-11.79-15.02c-2.38-2.39-4.47-4.92-6.23-7.6
						c-2.39-3.66-4.16-7.61-5.14-11.91c-0.25-1.08-0.45-2.18-0.58-3.3c-0.2-1.49-0.3-3.02-0.3-4.58c-0.01-1.64,0.47-2.38,2.1-2.73
						c3.01-0.65,5.91-0.61,8.69,0.05l0,0c2.04,0.48,4.01,1.3,5.92,2.41c13.97,8.19,22.4,26.89,19.28,42.8
						c-1.12,5.73-3.38,10.91-8.46,14.75C935.49,682.3,934.24,677.45,931.94,672.85z"/>
				</g>
				<g>
					<path class="st9" d="M901.29,631.92c0.15,7.64,2.2,14.22,5.65,20.08c2.72,4.63,6.3,8.81,10.48,12.68c2.16,2,4,4.32,5.65,6.77
						c3.62,5.35,5.93,11.12,5.79,17.74c-0.04,1.76-0.69,2.53-2.37,2.89c-5.31,1.15-10.27,0.15-14.86-2.53
						c-9.33-5.46-16.05-15.71-18.55-26.68c-1.23-5.39-1.45-10.95-0.45-16.21c0.01-0.05,0.01-0.09,0.02-0.14
						c0.22-1.14,0.5-2.27,0.84-3.38C894.85,638.74,897.12,634.85,901.29,631.92z"/>
				</g>
			</g>
			<g class="st10">
				<path class="st0" d="M993.38,622.28c0,36.36-8.06,72.22-23.55,105.03c-2.55,5.39-6.07,10.17-10.34,14.11
					c14.27-31.71,21.68-66.11,21.68-100.96c0-5.23-0.15-10.42-0.48-15.63l-1.37-21.57c-0.45-7.21-7.26-12.39-14.31-10.77
					c-16.46,3.8-44.87,5.18-65.04,1.94c-19.1-3.08-37.22-9.76-53.08-17.72c14.74,3.51,37.53,5.77,63.12,5.77
					c44.41,0,80.4-6.8,80.4-15.18l2.48,39.35C993.23,611.88,993.38,617.07,993.38,622.28z"/>
			</g>
			<g class="st2">
				<path class="st1" d="M850.81,728.58c6.26,13.06,18.56,22.24,32.91,24.2c8.72,1.19,17.51,1.78,26.28,1.78
					c8.8,0,17.59-0.59,26.32-1.79c14.07-1.92,26.38-10.69,32.55-23.48c0.03-0.07,0.06-0.13,0.09-0.2c-0.12,0.22-0.26,0.46-0.39,0.68
					c-15.93,4.12-32.24,6.18-48.56,6.18c-0.16,0-0.33,0-0.49,0c-30.37-0.08-57.52-19.37-67.94-47.89
					c-11.63-31.83-16.62-65.88-14.47-100.04l0.89-14c-5.36-2.03-8.37-4.32-8.37-6.74l-2.51,39.34
					C824.45,648.77,832.67,690.74,850.81,728.58z"/>
			</g>
			<g>
				<path class="st0" d="M829.63,567.31c0,8.38,35.99,15.17,80.38,15.17c44.41,0,80.4-6.79,80.4-15.17s-35.99-15.19-80.4-15.19
					C865.62,552.11,829.63,558.93,829.63,567.31z"/>
			</g>
			<g>
				<path class="st0" d="M829.63,567.3c0,2.77,3.92,5.36,10.76,7.6c13.9,4.53,39.87,7.58,69.62,7.58s55.74-3.05,69.66-7.58
					c6.84-2.24,10.76-4.82,10.76-7.6c0-8.37-36-15.19-80.42-15.19C865.61,552.11,829.63,558.93,829.63,567.3z"/>
			</g>
			<g>
				<path class="st11" d="M841.51,574.89c13.9,4.53,39.87,7.58,69.62,7.58c29.76,0,55.74-3.05,69.66-7.58
					c-13.92-4.55-39.9-7.6-69.66-7.6C881.38,567.29,855.41,570.34,841.51,574.89z"/>
			</g>
			<g>
				<path class="st1" d="M910.01,761.19c-9,0-18.1-0.62-27.03-1.83c-16.59-2.25-30.87-12.75-38.2-28.07
					c-18.59-38.84-26.98-82.08-24.26-125.07l2.5-39.34l13.22,0.42c0-1.01-0.41-1.7-0.56-1.87c3.15,3.52,28.95,10.42,74.33,10.42
					c45.39,0,71.2-6.9,74.35-10.42c-0.15,0.16-0.56,0.85-0.56,1.87l13.22-0.42l2.48,39.34c0.34,5.19,0.5,10.44,0.5,16.06
					c0,37.77-8.67,75.72-25.09,109.73c-7.18,14.87-21.32,25.09-37.84,27.34C928.13,760.58,919.02,761.19,910.01,761.19z
					 M835.44,580.16l-1.71,26.91c-2.58,40.73,5.37,81.71,22.99,118.51l0,0c5.4,11.29,15.89,19.01,28.05,20.67
					c16.7,2.27,33.83,2.27,50.52,0c12.11-1.65,22.47-9.12,27.71-19.98c15.55-32.23,23.77-68.19,23.77-103.98
					c0-5.33-0.16-10.3-0.47-15.21l-1.7-26.92c-4.3,1.67-9.78,3.11-16.5,4.38c-15.58,2.94-36.2,4.56-58.08,4.56
					c-21.87,0-42.49-1.62-58.07-4.56C845.21,583.27,839.74,581.83,835.44,580.16z"/>
			</g>
			<g>
				<path class="st1" d="M910.01,589.1c-21.87,0-42.49-1.62-58.07-4.56c-20.01-3.78-28.93-9.09-28.93-17.23s8.92-13.46,28.93-17.24
					c15.58-2.95,36.2-4.57,58.07-4.57s42.5,1.62,58.09,4.57c20.01,3.78,28.93,9.1,28.93,17.24s-8.92,13.45-28.94,17.23
					C952.52,587.48,931.89,589.1,910.01,589.1z M838.82,567.31c8.58,3.65,32.93,8.56,71.19,8.56c38.28,0,62.63-4.91,71.21-8.56
					c-8.58-3.66-32.94-8.58-71.21-8.58C871.75,558.73,847.4,563.65,838.82,567.31z"/>
			</g>
		</g>
		<g>
			<path class="st0" d="M716.62,614.09c-5.8,19.82,0.58,38.54,12.03,43.35c24.09,10.14,41.52-36.86,41.52-36.86
				s-8.1-33.96-23.97-33.4C734.93,587.59,721.87,596.16,716.62,614.09z"/>
		</g>
		<g class="st2">
			<path class="st1" d="M770.17,620.58c0,0-17.43,47.01-41.52,36.86c-11.46-4.81-17.85-23.53-12.04-43.35
				c1.17-4.02,2.75-7.58,4.6-10.67c-0.52,14.45,5.32,26.52,14.19,30.25c13.86,5.84,25.51-7.24,32.91-19.4
				C769.56,617.99,770.17,620.58,770.17,620.58z"/>
		</g>
		<g>
			<path class="st1" d="M735.48,665.87c-3.22,0-6.43-0.66-9.55-1.97c-15.57-6.55-22.61-29.29-16.03-51.77l0,0
				c6.69-22.87,23.6-31.49,36.05-31.94c20.55-0.66,29.45,32.17,31.02,38.77l0.49,2.06l-0.74,1.99c-1.23,3.31-12.54,32.61-31.3,40.73
				C742.17,665.16,738.82,665.87,735.48,665.87z M723.33,616.06c-4.85,16.56,0.34,31.7,8.03,34.94c2.86,1.2,5.56,1.18,8.49-0.09
				c10.4-4.49,19.44-22.18,22.97-30.77c-3.13-11.41-10.21-26.21-16.38-25.96C738.04,594.48,727.64,601.36,723.33,616.06
				L723.33,616.06z"/>
		</g>
		<g>
			<path class="st0" d="M813.22,610.45c0,0-22.22-36.39-53.61-18.16c-24.4,14.17-20.76,67.05-18.27,79.02
				c8.91,42.87,40.03,67.66,63.68,30.35C806.15,699.87,817.8,656.58,813.22,610.45z"/>
		</g>
		<g class="st2">
			<path class="st1" d="M805.02,701.66c-23.65,37.32-54.76,12.53-63.68-30.34c-1.22-5.88-2.71-21.62-1.03-37.81
				c0.31,3.1,0.68,5.6,1.03,7.28c8.92,42.88,38.86,46.44,63.68,30.35c1.27-0.82,7-23.81,8.78-53.45
				C816.6,661.02,806.11,699.96,805.02,701.66z"/>
		</g>
		<g>
			<path class="st1" d="M779.22,726.9c-1.82,0-3.46-0.18-4.86-0.43c-18.12-3.3-33.77-24.38-39.87-53.72
				c-2.26-10.86-7.58-69.55,21.61-86.5c29.51-17.14,54.18,5.96,63.09,20.56l0.83,1.36l0.16,1.59c4.54,45.68-6.61,91.48-9.25,95.65
				C799.7,723.13,787.53,726.9,779.22,726.9z M777.19,594.28c-4.37,0-9.09,1.17-14.07,4.06c-19.95,11.58-17.4,59.67-14.93,71.55
				c4.78,23,16.57,40.6,28.67,42.8c9.35,1.7,17.03-6.7,21.92-14.28c1.87-5.46,11.35-44.35,7.62-85.57
				C803.36,608.41,792.4,594.28,777.19,594.28z M799.11,697.91c-0.03,0.04-0.06,0.09-0.09,0.15
				C799.05,698.01,799.08,697.96,799.11,697.91z"/>
		</g>
		<g>
			<path class="st1" d="M634.7,728.77c-2.26,0-4.24-1.66-4.57-3.96c-13.33-93.11,34.19-126.21,36.22-127.57
				c2.12-1.42,4.99-0.86,6.41,1.26c1.42,2.11,0.86,4.98-1.25,6.4c-0.5,0.34-44.69,31.66-32.24,118.6c0.36,2.53-1.39,4.87-3.92,5.23
				C635.14,728.75,634.92,728.77,634.7,728.77z"/>
		</g>
	</g>
	<g class="st10">
		<g>
			<path class="st0" d="M901.48,393.24l-13.08,0.84c-4.16,0.34-8.04,2.34-10.61,5.39c-2.59,3.03-3.89,6.98-3.59,10.8
				c0.26,3.82,2.12,7.38,4.94,9.75c2.84,2.39,6.38,3.61,10.09,3.4l13.1-0.44c8.74-0.33,17.47-0.48,26.21-0.71
				c8.73-0.19,17.47-0.48,26.21-0.56l3.28-0.05c0.59,0,1.41,0.04,2.11,0.07c0.72,0.08,1.45,0.18,2.16,0.31
				c2.86,0.57,5.6,1.8,7.95,3.55c4.75,3.44,7.76,9.25,7.91,15.19c0.24,5.95-2.52,11.97-7.11,15.76c-2.3,1.9-5.03,3.29-7.93,4.02
				c-1.45,0.39-2.94,0.56-4.43,0.62c-0.41,0.02-0.67,0.02-0.94,0.02l-0.82,0.01l-1.64,0.01l-26.21,0.11
				c-17.47,0.03-34.94-0.03-52.41-0.18l-13.1-0.15l-0.82-0.01l-0.55,0.02c-0.34-0.01-0.68,0.04-1.01,0.08
				c-0.67,0.08-1.32,0.28-1.95,0.52c-1.24,0.53-2.4,1.33-3.29,2.37c-0.87,1.05-1.52,2.29-1.82,3.63c-0.28,1.34-0.25,2.78,0.1,4.11
				c0.72,2.69,2.89,4.97,5.58,5.97c1.41,0.54,2.54,0.57,5.04,0.61l6.55,0.16l13.1,0.32c8.74,0.17,17.47,0.54,26.2,0.82
				c5.27,0.04,10.62,2.79,13.51,7.18c3,4.34,3.6,10.1,1.66,14.81c-1.86,4.74-6.11,8.34-10.9,9.34c-1.19,0.28-2.41,0.38-3.61,0.36
				c-1.17-0.02-2.2-0.1-3.31-0.15l-6.55-0.34l0.91-0.91l-0.91,14.58l-0.91-14.58c-0.03-0.47,0.33-0.87,0.8-0.9h0.01l0.1-0.01
				l6.55-0.34c1.08-0.06,2.22-0.1,3.24-0.19c0.98-0.09,1.94-0.26,2.85-0.59c3.67-1.21,6.6-4.21,7.62-7.74
				c1.09-3.5,0.26-7.42-1.98-10.09c-2.21-2.74-5.6-4.23-9.08-4.02c-8.73,0.27-17.47,0.64-26.2,0.82l-13.1,0.32l-6.55,0.16
				c-1.14,0.01-2.01,0.09-3.62,0.01c-1.45-0.08-2.9-0.34-4.3-0.77c-5.64-1.68-10.3-6.3-12.06-12.02c-0.87-2.86-1.05-5.9-0.52-8.85
				c0.55-2.95,1.86-5.75,3.71-8.11c1.86-2.35,4.31-4.22,7.06-5.46c1.38-0.6,2.83-1.07,4.31-1.32c0.74-0.13,1.49-0.24,2.24-0.27
				l1.08-0.05l0.82-0.01l13.1-0.15c17.47-0.15,34.94-0.22,52.41-0.18l26.21,0.11l1.64,0.01l0.82,0.01c0.28,0,0.56,0.01,0.7-0.01
				c0.69-0.02,1.38-0.08,2.05-0.25c1.33-0.32,2.6-0.92,3.69-1.78c2.13-1.76,3.55-4.39,3.51-7.22c0.01-2.79-1.27-5.59-3.56-7.36
				c-1.13-0.89-2.45-1.54-3.86-1.88l-1.08-0.19l-1.17-0.07l-3.28-0.05c-8.74-0.09-17.47-0.38-26.21-0.57
				c-8.74-0.23-17.47-0.38-26.21-0.71l-13.1-0.44c-5.04-0.06-10.25-2.14-13.75-5.8c-3.57-3.59-5.59-8.6-5.49-13.53
				c0.03-4.93,2.15-9.74,5.64-12.99c3.45-3.29,8.15-5.09,12.74-4.94C892.76,392.66,897.1,392.93,901.48,393.24z"/>
		</g>
	</g>
</g>
</svg>
