<?xml version="1.0" encoding="utf-8"?>
<!-- Generator: Adobe Illustrator 25.0.0, SVG Export Plug-In . SVG Version: 6.00 Build 0)  -->
<svg version="1.1" id="Layer_1" xmlns="http://www.w3.org/2000/svg" xmlns:xlink="http://www.w3.org/1999/xlink" x="0px" y="0px"
	 viewBox="0 0 1000 1000" style="enable-background:new 0 0 1000 1000;" xml:space="preserve">
<style type="text/css">
	.st0{opacity:0.3;}
	.st1{fill:#371A45;}
	.st2{fill:#FFFFFF;}
	.st3{opacity:0.35;}
	.st4{fill:url(#SVGID_1_);}
	.st5{fill:url(#SVGID_2_);}
	.st6{fill:none;stroke:#293856;stroke-width:32.8772;stroke-linecap:round;stroke-linejoin:round;stroke-miterlimit:10;}
	.st7{fill:#32B1D1;}
	.st8{fill:url(#SVGID_3_);}
	.st9{fill:url(#SVGID_4_);}
	.st10{fill:url(#SVGID_5_);}
	.st11{opacity:0.7;}
	.st12{fill:#EC1C24;}
	.st13{fill:#220F2D;}
</style>
<g>
	<g class="st0">
		<ellipse class="st1" cx="552.4" cy="859.8" rx="219.47" ry="39.66"/>
	</g>
	<g>
		<g>
			<path class="st2" d="M475.81,433.2l-20.66,65.45c-31.69,8.95-110.99-5.28-165.68-42.98c-23.59-16.25-42.59-36.86-51.24-61.86
				c-25.3-73.13,40.11-77.58,65.3-61.7c19.59,12.35,34.04,28.79,51.7,45.02C380.56,400.44,412.53,423.34,475.81,433.2z"/>
		</g>
		<g class="st3">
			<path class="st1" d="M462.2,476.33l-7.05,22.32c-31.69,8.95-110.99-5.28-165.68-42.98c-23.59-16.25-42.59-36.86-51.24-61.86
				c-9.38-27.12-6.29-44.79,2.6-55.48c-0.52,8.95,1.11,19.81,5.62,32.85c0.13,0.38,0.27,0.77,0.43,1.17
				c7.15,18.67,31.25,23.66,45.7,9.84c2.79-2.67,4.68-4.01,4.68-2.76c0.15,24.97-7.78,44.6,0.43,53.61
				C341.9,481.51,429.76,484.61,462.2,476.33z"/>
		</g>
		<g>
			
				<linearGradient id="SVGID_1_" gradientUnits="userSpaceOnUse" x1="289.4695" y1="560.8284" x2="475.8095" y2="560.8284" gradientTransform="matrix(1 0 0 -1 0 1000)">
				<stop  offset="0" style="stop-color:#E1641E"/>
				<stop  offset="1.065558e-08" style="stop-color:#E76518"/>
				<stop  offset="0.1768" style="stop-color:#E04C2D"/>
				<stop  offset="0.3045" style="stop-color:#DC3F38"/>
				<stop  offset="0.5674" style="stop-color:#934E5A"/>
				<stop  offset="0.8525" style="stop-color:#475E7E"/>
			</linearGradient>
			<path class="st4" d="M475.81,433.19l-9.52,30.15l-11.14,35.3c-5.48,1.55-12.38,2.4-20.32,2.56
				c-38.04,0.77-100.12-14.36-145.36-45.54c37.08-18.41,56.53-54.71,65.75-78.54c11.82,10.87,25.09,21.65,42.3,31.08
				c15.59,8.52,34.44,15.92,58.37,21.24C462.16,430.85,468.79,432.1,475.81,433.19z"/>
		</g>
		<g class="st3">
			<path class="st1" d="M475.81,433.19l-20.66,65.45c-31.69,8.95-110.99-5.28-165.68-42.98c5.83-2.89,11.22-6.23,16.21-9.89
				c28.31,16.2,60.87,26.92,89.5,32.19c33.13,6.1,65.61-13.45,75.75-45.57l0,0C472.53,432.67,474.15,432.94,475.81,433.19z"/>
		</g>
		<g>
			<path class="st1" d="M431.7,505.67c-30.45,0-71.96-9.53-107.54-25.65c-13.64-6.17-26.15-13.17-37.18-20.79
				c-26.77-18.44-44.56-39.97-52.87-64c-13.02-37.63-2.34-56.17,8.9-65.09c17.36-13.77,46.5-12,62.82-1.7
				c14.72,9.29,26.38,20.59,38.73,32.56c4.39,4.26,8.94,8.66,13.65,12.99c9.01,8.29,17.04,14.79,25.28,20.47
				c25.48,17.59,55.02,28.53,92.97,34.44c2.37,0.37,4,2.59,3.63,4.96s-2.57,4-4.96,3.63c-39.29-6.12-69.98-17.52-96.57-35.88
				c-8.58-5.91-16.92-12.66-26.23-21.23c-4.8-4.41-9.38-8.85-13.82-13.15c-12.02-11.64-23.37-22.64-37.32-31.45
				c-13.52-8.53-38.52-10.15-52.78,1.16c-12.97,10.29-15.08,29.46-6.09,55.44c7.68,22.24,24.37,42.32,49.59,59.69
				c10.61,7.33,22.66,14.06,35.83,20.03c49.37,22.37,102.94,28.94,126.22,22.36c2.31-0.65,4.71,0.69,5.36,3s-0.69,4.71-3,5.36
				C449.53,504.75,441.14,505.67,431.7,505.67z"/>
		</g>
		<g>
			<path class="st2" d="M383.26,403.23c-8.96,33.16-32.09,57.34-52.57,73.05c-3.37,2.58-7.91,3.05-11.73,1.21
				c-6.07-2.92-12.03-6.05-17.82-9.4c-7.11-4.11-7.5-14.27-0.74-18.93c7.77-5.37,15.52-11.89,22.65-19.81
				c13.97-15.53,22.8-30.35,28.32-42.24c3.12-6.71,11.71-8.68,17.4-3.95c3.27,2.72,6.68,5.42,10.25,8.06
				C382.74,393.99,384.47,398.74,383.26,403.23z"/>
		</g>
		<g class="st3">
			<path class="st1" d="M376.31,422.03c-11.15,23.68-29.24,41.67-45.62,54.25c-3.37,2.59-7.91,3.05-11.74,1.21
				c-6.06-2.93-12.03-6.06-17.82-9.4c-7.1-4.1-7.49-14.26-0.75-18.93c2.61-1.79,5.22-3.74,7.8-5.82c0.91,2.02,2.44,3.81,4.57,5.05
				c5.79,3.34,11.76,6.47,17.82,9.39c3.83,1.84,8.37,1.38,11.74-1.21C353.79,447.76,366.12,436.27,376.31,422.03z"/>
		</g>
		<g>
			<path class="st1" d="M323.85,482.96c-2.3,0-4.62-0.51-6.78-1.56c-6.26-3.01-12.35-6.23-18.11-9.55
				c-4.63-2.67-7.52-7.47-7.74-12.83c-0.22-5.37,2.29-10.39,6.7-13.44c8.18-5.65,15.54-12.09,21.89-19.15
				c11.64-12.94,20.94-26.79,27.61-41.16c2.06-4.44,5.98-7.61,10.75-8.68c4.74-1.07,9.62,0.11,13.37,3.22
				c3.41,2.84,6.7,5.43,10.06,7.91c5.24,3.89,7.54,10.41,5.86,16.63l0,0c-9.54,35.29-34.7,60.46-54.13,75.37
				C330.54,481.86,327.21,482.96,323.85,482.96z M361.6,384.91c-0.51,0-1.02,0.06-1.52,0.17c-2.12,0.48-3.86,1.88-4.78,3.86
				c-7.04,15.16-16.81,29.73-29.03,43.32c-6.8,7.56-14.68,14.45-23.41,20.48c-1.97,1.36-3.05,3.53-2.95,5.94
				c0.1,2.4,1.34,4.46,3.4,5.65c5.57,3.22,11.47,6.33,17.53,9.24c2.37,1.14,5.12,0.85,7.2-0.74c18.36-14.09,42.12-37.79,51.02-70.74
				l0,0c0.74-2.74-0.3-5.64-2.64-7.38c-3.48-2.58-6.9-5.27-10.44-8.21C364.73,385.46,363.19,384.91,361.6,384.91z M383.26,403.23
				h0.01H383.26z"/>
		</g>
		<g>
			<path class="st2" d="M731.93,642.29c-25,32.59-90.09,21.29-90.09,21.29l-0.57-220.24l-0.12-44.48c0,0,37.13,0.99,65.35,12.64
				c13.6,5.61,25.11,13.7,29.42,25.35C750.92,477.32,752.47,615.51,731.93,642.29z"/>
		</g>
		<g class="st3">
			<path class="st1" d="M747.15,528.75c0.87,48.29-3.69,98.5-15.23,113.54c-25,32.59-90.1,21.3-90.1,21.3l-0.67-264.71
				c0,0,0.69,0.01,1.96,0.09l0.52,206.39c0,0,65.1,11.3,90.1-21.3C740.5,575.22,744.87,554.29,747.15,528.75z"/>
		</g>
		<g>
			<path class="st1" d="M667.45,669.88c-14.38,0-25.27-1.82-26.36-2.01c-2.37-0.41-3.95-2.66-3.54-5.02
				c0.41-2.37,2.67-3.95,5.02-3.54c0.62,0.11,62.81,10.45,85.9-19.66c19.03-24.81,18.61-160.14,3.37-201.27
				c-12.1-32.65-90.02-35.14-90.81-35.16c-2.4-0.07-4.29-2.06-4.23-4.46s2.09-4.25,4.46-4.23c3.45,0.09,84.59,2.69,98.73,40.83
				c7.26,19.6,11.92,63.56,11.6,109.38c-0.17,23.99-2.09,81.78-16.22,100.2C719.49,665.64,689.4,669.88,667.45,669.88z"/>
		</g>
		<g>
			<path class="st2" d="M742.38,549.05l-44.36,3.33c-3.96,0.3-7.22,3.22-7.93,7.13c-2.59,14.31-6.85,47.68,7.07,58.69
				c11.55,9.14,30.31,8.07,41.31-1.23c12.3-10.41,13.5-43.13,13.3-59.33C751.7,552.61,747.4,548.68,742.38,549.05z"/>
		</g>
		<g class="st3">
			<path class="st1" d="M690.09,559.52c-2.6,14.31-6.85,47.67,7.07,58.69c11.56,9.15,30.31,8.07,41.31-1.23
				c7.56-6.41,10.92-21.25,12.35-35.49c-2,7.12-5.14,12.9-9.04,16.69c-22.36,21.72-39.05-3.89-39.05-3.89s-2.9,6.22-5.21,6.57
				c-9.65,1.47-7.66-28.75-6.26-44.36C690.69,557.39,690.28,558.41,690.09,559.52z"/>
		</g>
		<g>
			<path class="st1" d="M716.7,628.9c-8.09,0-16.09-2.41-22.24-7.28c-15.24-12.06-11.96-44.57-8.65-62.88
				c1.06-5.85,5.95-10.25,11.88-10.69l44.36-3.33l0,0c3.58-0.27,7.16,0.97,9.81,3.4c2.65,2.43,4.19,5.88,4.24,9.48
				c0.28,22.64-2.07,51.9-14.84,62.7C734.51,626.01,725.55,628.9,716.7,628.9z M742.7,553.39l-44.36,3.33
				c-1.99,0.15-3.63,1.62-3.98,3.57c-4.97,27.48-2.92,47.86,5.49,54.51c9.65,7.64,26.05,7.11,35.8-1.14
				c7.71-6.53,12.11-27.45,11.76-55.96c-0.02-1.22-0.52-2.35-1.42-3.17C745.09,553.7,743.93,553.3,742.7,553.39L742.7,553.39z"/>
		</g>
		<g>
			<path class="st1" d="M706.68,585.17c0.49,5.57,0.47,10.87,0.83,16.14c0.34,5.25,0.93,10.43,2.22,15.3
				c1.28,4.85,3.29,9.39,6.33,12.8c3.01,3.44,7.03,5.61,11.54,6.69h0.02c2.34,0.56,3.78,2.9,3.22,5.24
				c-0.56,2.34-2.9,3.78-5.24,3.22c-0.09-0.02-0.19-0.05-0.28-0.08c-2.91-0.9-5.77-2.17-8.37-3.89c-2.61-1.71-4.93-3.88-6.81-6.32
				c-3.79-4.9-5.78-10.63-6.88-16.19c-1.1-5.59-1.35-11.15-1.36-16.6c-0.02-5.44,0.33-10.86,0.2-16v-0.06
				c-0.03-1.27,0.97-2.33,2.24-2.36C705.55,583.04,706.57,583.97,706.68,585.17z"/>
		</g>
		<g>
			<path class="st1" d="M716.18,435.25c-4.09,0.32-8.24,0.8-12.34,1.36c-4.11,0.56-8.2,1.22-12.27,1.99
				c-4.07,0.75-8.11,1.61-12.11,2.58c-4.01,0.94-7.96,2.07-11.87,3.24l-0.07,0.02c-2.3,0.69-4.73-0.62-5.42-2.93
				c-0.69-2.3,0.62-4.73,2.93-5.42c0.14-0.04,0.28-0.08,0.41-0.1c4.21-0.82,8.42-1.59,12.64-2.15c4.22-0.59,8.44-1.06,12.67-1.42
				c4.22-0.37,8.45-0.63,12.67-0.79c4.23-0.16,8.43-0.23,12.71-0.14c1.03,0.02,1.86,0.88,1.83,1.91c-0.02,0.97-0.77,1.75-1.72,1.83
				L716.18,435.25z"/>
		</g>
		<g class="st3">
			<path class="st1" d="M706.5,411.51c-19.45,14.78-41.66,25.59-65.23,31.84l-0.12-44.48C641.15,398.87,678.28,399.85,706.5,411.51z
				"/>
		</g>
		<g>
			<path class="st2" d="M554.64,823.61c-18.97,43.96-100.2,36.72-120.7,18.53c-21-18.66,16.97-41.94,16.97-41.94
				c-7.94-13.48-12.27-32.69-14.44-52.94c-2.47-22.97-2.17-47.27-1.22-66.02c0.97-19.33,2.62-32.77,2.62-32.77l119.73-64.8
				c-0.08,24.37-4.16,45.21-7.81,61.91c-7.77,35.5-7.27,62.8-4.13,85.11c1.53,10.83,3.67,20.48,5.8,29.31
				C557.48,784.94,563.34,803.43,554.64,823.61z"/>
		</g>
		<g>
			
				<linearGradient id="SVGID_2_" gradientUnits="userSpaceOnUse" x1="434.5431" y1="326.5525" x2="557.5895" y2="326.5525" gradientTransform="matrix(1 0 0 -1 0 1000)">
				<stop  offset="0" style="stop-color:#E1641E"/>
				<stop  offset="1.065558e-08" style="stop-color:#E76518"/>
				<stop  offset="0.1768" style="stop-color:#E04C2D"/>
				<stop  offset="0.3045" style="stop-color:#DC3F38"/>
				<stop  offset="0.5674" style="stop-color:#934E5A"/>
				<stop  offset="0.8525" style="stop-color:#475E7E"/>
			</linearGradient>
			<path class="st5" d="M545.66,730.68c1.53,10.83,3.67,20.48,5.8,29.31c-53.75,9.43-94.89-3.78-115-12.74
				c-2.47-22.97-2.17-47.27-1.22-66.02c0.97-19.33,2.62-32.77,2.62-32.77l119.73-64.8c-0.08,24.37-4.16,45.21-7.81,61.91
				C542.02,681.07,542.52,708.38,545.66,730.68z"/>
		</g>
		<g class="st3">
			<path class="st1" d="M548.2,653.25c-0.48,2.52-0.92,4.99-1.32,7.43C547.28,658.24,547.72,655.77,548.2,653.25z"/>
		</g>
		<g>
			<path class="st1" d="M487.91,860.72c-24.25,0-47.1-6.67-56.85-15.34c-5.7-5.06-8.29-10.94-7.72-17.46
				c1.15-13.07,15.05-24.36,21.84-29.13c-24.05-47.02-12.15-146.53-11.62-150.85c0.29-2.38,2.45-4.08,4.84-3.78
				c2.38,0.29,4.08,2.46,3.78,4.84c-0.13,1.06-12.71,106.23,12.47,149c1.2,2.04,0.55,4.67-1.47,5.91
				c-5.59,3.44-20.29,14.59-21.18,24.79c-0.32,3.68,1.26,7.02,4.83,10.19c11.6,10.3,46.08,17.05,74.86,10.66
				c13.64-3.03,31.46-10.29,38.96-27.66c7.37-17.07,3.51-32.73-1.83-54.41c-7.11-28.89-15.97-64.85-3.28-122.82
				c3.96-18.09,7.63-38,7.71-61c0.01-2.4,1.95-4.33,4.35-4.33c0.01,0,0.01,0,0.01,0c2.4,0.01,4.34,1.96,4.33,4.36
				c-0.08,23.82-3.85,44.27-7.91,62.83c-12.25,55.99-3.67,90.86,3.23,118.88c5.53,22.45,9.89,40.18,1.37,59.94
				c-7.09,16.42-22.67,27.73-45.06,32.7C505.18,859.89,496.46,860.72,487.91,860.72z"/>
		</g>
		<g>
			<path class="st1" d="M521.61,766.03c-26.4,0-62.41-2.94-86.81-16.65c-1.57-0.88-2.13-2.87-1.24-4.44
				c0.88-1.57,2.87-2.13,4.44-1.24c39.96,22.46,116.24,14.3,117,14.21c1.79-0.19,3.4,1.09,3.6,2.88c0.2,1.79-1.09,3.4-2.88,3.6
				C554.38,764.53,540.44,766.03,521.61,766.03z"/>
		</g>
		<g>
			<path class="st6" d="M535.06,676.94"/>
		</g>
		<g>
			<path class="st7" d="M507.96,479.12"/>
		</g>
		<g class="st3">
			<path class="st1" d="M433.45,542.53c-2.82,25.37-4.46,47.36-4.8,65.71C428.19,591.14,429.85,569.1,433.45,542.53z"/>
		</g>
		<g class="st3">
			<path class="st1" d="M685.32,574.12c-0.12-9.86-0.72-20.44-1.82-31.64C684.87,553.87,685.47,564.46,685.32,574.12z"/>
		</g>
		<g>
			<path class="st2" d="M529.61,712.86c43.04,3.02,75.74-10.32,86.93-15.3c28.74-12.78,50.83-35.98,61.64-66.61
				c16.68-47.28,4.69-151.83-40.63-270.52l-147.29-9.37c-67.02,128.07-81.9,268.16-54.28,314.24c2.78,4.65,5.85,9.13,9.68,13.09
				c15.79,16.3,40.76,25.9,60.97,30.72"/>
		</g>
		<g>
			
				<linearGradient id="SVGID_3_" gradientUnits="userSpaceOnUse" x1="422.8424" y1="467.8311" x2="685.3406" y2="467.8311" gradientTransform="matrix(1 0 0 -1 0 1000)">
				<stop  offset="0" style="stop-color:#E1641E"/>
				<stop  offset="1.065558e-08" style="stop-color:#E76518"/>
				<stop  offset="0.1768" style="stop-color:#E04C2D"/>
				<stop  offset="0.3045" style="stop-color:#DC3F38"/>
				<stop  offset="0.5674" style="stop-color:#934E5A"/>
				<stop  offset="0.8525" style="stop-color:#475E7E"/>
			</linearGradient>
			<path class="st8" d="M684.89,593.27c-0.9,14.89-3.16,27.58-6.71,37.68c-10.8,30.61-32.9,53.82-61.64,66.6
				c-11.19,4.98-43.89,18.33-86.93,15.3l-22.98-3.75c-20.21-4.81-45.18-14.42-60.97-30.72c-3.83-3.96-6.89-8.45-9.67-13.1
				c-16.76-27.96-17.87-90.55-1.17-164.07c3.51-15.45,6.02-30.77,11.13-46.97c2.52-7.99,7.01-16.67,9.94-24.78
				c9.36-26.03,20.79-52.47,34.37-78.41l147.29,9.38c8.96,23.48,16.63,46.42,23.02,68.45c0.01,0.02,0.01,0.04,0.01,0.05
				C679.6,494.51,687.38,552.22,684.89,593.27z"/>
		</g>
		<g>
			<path class="st1" d="M443.85,471.64c0.19,1.58,0.21,3.12,0.17,4.63c-0.02,1.52-0.15,3-0.31,4.48c-0.27,2.96-0.87,5.83-1.44,8.71
				c-1.11,5.76-2.63,11.41-4.04,17.1c-1.43,5.68-2.57,11.43-3.62,17.19c-1.08,5.76-2.02,11.53-2.91,17.32
				c-3.4,23.13-5.32,46.56-4.18,69.75c0.6,11.57,1.95,23.11,4.9,34.08c1.49,5.46,3.35,10.81,5.89,15.65
				c1.26,2.34,2.77,4.85,4.34,7.15c1.57,2.32,3.24,4.51,5.05,6.51c7.49,8.05,17.17,14.38,27.43,19.32c2.57,1.24,5.19,2.41,7.85,3.48
				c2.65,1.09,5.42,1.91,8.16,2.76c2.74,0.87,5.44,1.82,8.1,3.01c1.32,0.61,2.64,1.25,3.93,2.07c1.28,0.82,2.57,1.66,3.79,2.85
				l0.05,0.05c0.65,0.63,0.66,1.68,0.03,2.33c-0.21,0.22-0.48,0.37-0.75,0.44c-3.27,0.88-6.38,0.81-9.4,0.38
				c-3.01-0.47-5.94-1.28-8.78-2.35c-2.84-1.08-5.61-2.33-8.42-3.47c-2.81-1.15-5.59-2.37-8.34-3.7
				c-10.96-5.3-21.46-12.03-30.1-21.31c-2.15-2.37-4.06-4.89-5.8-7.47c-1.75-2.59-3.3-5.13-4.84-7.99
				c-2.95-5.62-4.98-11.51-6.59-17.42c-3.18-11.86-4.56-23.91-5.19-35.91c-1.18-24.02,0.81-47.91,4.27-71.47
				c0.9-5.89,1.86-11.77,2.96-17.62c0.53-2.93,1.1-5.85,1.69-8.77l1.7-8.76c1.1-5.85,2.32-11.68,4.06-17.38
				c1.68-5.71,3.8-11.31,7.55-16.41c0.51-0.69,1.47-0.84,2.16-0.33c0.36,0.26,0.57,0.65,0.62,1.05L443.85,471.64z"/>
		</g>
		<g>
			<path class="st1" d="M542.34,717.65c-4.25,0-8.59-0.15-13.04-0.46c-2.39-0.17-4.2-2.25-4.03-4.64s2.22-4.2,4.64-4.03
				c36.61,2.57,66.35-6.71,84.86-14.94c28.07-12.49,49.13-35.24,59.31-64.08c14.61-41.42,7.97-139.24-39.6-264.92l-144.5-9.2
				c-2.39-0.15-4.21-2.22-4.06-4.61c0.15-2.39,2.22-4.21,4.61-4.06l147.29,9.37c1.7,0.11,3.18,1.2,3.78,2.79
				c42.64,111.69,58.98,221.61,40.67,273.52c-10.98,31.11-33.7,55.66-63.97,69.13C601.15,709.16,574.77,717.65,542.34,717.65z"/>
		</g>
		<g>
			<path class="st1" d="M542.34,717.65c-4.24,0-8.58-0.15-13.03-0.46c-2.4-0.17-4.2-2.25-4.03-4.64s2.23-4.2,4.64-4.03
				c36.61,2.57,66.35-6.71,84.85-14.94c28.07-12.49,49.13-35.24,59.3-64.08c16.11-45.66,3.98-140.24-30.9-240.93
				c-0.79-2.27,0.42-4.74,2.68-5.53c2.27-0.79,4.74,0.42,5.53,2.68c35.5,102.45,47.62,199.27,30.9,246.68
				c-10.98,31.11-33.7,55.66-63.97,69.13C601.15,709.16,574.76,717.65,542.34,717.65z"/>
		</g>
		<g>
			<path class="st1" d="M509.73,802.12c-4.8-1.57-9.73-2.7-14.63-3.37c-4.9-0.72-9.8-0.93-14.61-0.71c-2.41,0-4.79,0.43-7.15,0.64
				c-2.34,0.46-4.7,0.73-6.98,1.36c-1.14,0.32-2.32,0.46-3.44,0.83c-1.12,0.36-2.25,0.7-3.39,1.01c-1.15,0.29-2.25,0.73-3.36,1.13
				c-1.12,0.4-2.25,0.77-3.4,1.12l-0.41,0.12c-2.3,0.69-4.72-0.62-5.4-2.92c-0.6-2.01,0.33-4.12,2.11-5.07
				c4.79-2.57,9.99-4.57,15.4-5.46c2.68-0.61,5.43-0.71,8.14-0.92c1.36-0.05,2.73,0.02,4.08,0.05c1.36,0,2.71,0.13,4.05,0.28
				c5.38,0.52,10.65,1.7,15.63,3.52c4.98,1.83,9.73,4.16,13.98,7.31c0.28,0.21,0.34,0.6,0.13,0.87c-0.16,0.22-0.45,0.3-0.69,0.22
				L509.73,802.12z"/>
		</g>
		<g class="st3">
			<path class="st1" d="M685.32,574.12c-0.23,16.59-57.16-69.31-57.16-57.92c0,25,8.25,62.45,6.17,96.61
				c-0.53,8.78-1.36,17.11-2.19,24.56c-1.84,16.65-6.34,28.92-15.6,32.3c-9.89,3.61-36.57,12.57-72.32,12.9
				c-4.72,0.04-9.59-0.06-14.61-0.35c-21.01-1.2-69.91-10.61-90.27-34.55c-1.22-1.44-2.36-2.92-3.36-4.46
				c-4.49-6.9-6.89-18.68-7.33-34.97c-0.53,27.44,1.81,46.73,7.33,57.06c0.08,0.14,0.17,0.28,0.24,0.42
				c-0.35,4.52-0.7,9.75-0.99,15.52c0.23,0.52,0.49,1.02,0.74,1.5c12.47,23.36,42.69,36.62,67.27,42.96
				c11.59,2.99,20.76,11.98,23.77,23.56c7.14,27.46,20.23,41.52,13.54,61.87c-13.68,41.56-84.25,29.2-111.94,12.88
				c-2.07,5.92-1.3,12.26,5.32,18.14c20.49,18.19,101.72,25.43,120.7-18.53c11.8-27.33-3.14-51.54-8.98-92.92
				c-0.35-2.47-0.66-5-0.94-7.62c-0.07-0.6-0.13-1.22-0.19-1.83c-0.07-0.66-0.13-1.31-0.19-1.99c-0.07-0.75-0.13-1.52-0.2-2.3
				c-0.08-1.16-0.16-2.35-0.24-3.54c0-0.04,0-0.09-0.01-0.13c35.91-0.34,62.73-11.32,72.64-15.73
				c28.74-12.78,50.83-35.98,61.63-66.6C683.18,616.77,685.61,597.44,685.32,574.12z"/>
		</g>
		<g>
			<path class="st2" d="M671.31,839.98c-18.98,43.97-100.21,36.73-120.7,18.54c-21-18.66,16.96-41.94,16.96-41.94
				c-13.38-15.64-19.72-37.15-22.33-58.41c-4.75-38.63,2.81-76.4,2.81-76.4l126.21-81.73c-0.08,24.38-4.15,45.22-7.81,61.93
				c-9.24,42.22-6.78,72.86-2.07,97.29C670.95,793.44,681.91,815.45,671.31,839.98z"/>
		</g>
		<g>
			
				<linearGradient id="SVGID_4_" gradientUnits="userSpaceOnUse" x1="543.682" y1="314.7586" x2="674.2695" y2="314.7586" gradientTransform="matrix(1 0 0 -1 0 1000)">
				<stop  offset="0" style="stop-color:#E1641E"/>
				<stop  offset="1.065558e-08" style="stop-color:#E76518"/>
				<stop  offset="0.1768" style="stop-color:#E04C2D"/>
				<stop  offset="0.3045" style="stop-color:#DC3F38"/>
				<stop  offset="0.5674" style="stop-color:#934E5A"/>
				<stop  offset="0.8525" style="stop-color:#475E7E"/>
			</linearGradient>
			<path class="st9" d="M666.46,661.97c-9.24,42.22-6.78,72.86-2.07,97.29c-72.64,25.44-117.95-0.41-119.14-1.08
				c-4.75-38.63,2.81-76.4,2.81-76.4l48.01-37.5l78.2-44.23C674.18,624.42,670.11,645.26,666.46,661.97z"/>
		</g>
		<g class="st3">
			<path class="st1" d="M666.45,661.97c-9.24,42.22-6.78,72.86-2.07,97.29c-72.64,25.44-117.95-0.41-119.14-1.08
				c-0.33-2.6-0.58-5.2-0.79-7.77c0.2,0.06,0.4,0.11,0.6,0.17c46.09,12.65,92.69-19.66,96.53-67.31
				c0.89-11.07,2.64-23.11,5.52-36.28c2.24-10.2,4.61-21.92,6.15-35.05l21.01-11.89C674.18,624.42,670.11,645.26,666.45,661.97z"/>
		</g>
		<g class="st3">
			<path class="st1" d="M666.45,662.22c-22.17,101.31,23.01,135.95,4.85,178.03c-18.97,43.96-100.2,36.73-120.7,18.53
				c-5.5-4.89-6.96-10.09-6.1-15.12c27.56,14.55,96.66,17.05,113.96-23.05c6.25-14.48-31.51-42.62-31.76-74.08
				c-0.21-26.37,7.17-53.3,14.9-74.15c6.22-16.78,10.04-69.02,43.63-87.32c-0.48,17.89-2.72,33.02-6.69,44.76
				c-1.94,0.62-4.12,1.25-6.53,1.88C670.51,643.01,668.42,653.22,666.45,662.22z"/>
		</g>
		<g>
			<path class="st1" d="M549.48,682.31c0.07,11.73-0.51,23.25-0.91,34.74c-0.27,11.49-0.36,22.97,0.49,34.36
				c0.4,5.7,1.14,11.36,2.16,16.94c1.01,5.59,2.34,11.11,4.1,16.45c1.77,5.33,3.77,10.59,6.41,15.48c2.6,4.9,5.64,9.53,9.16,13.73
				c1.56,1.86,1.31,4.62-0.54,6.18c-0.15,0.12-0.3,0.23-0.46,0.34l-0.03,0.02c-1.66,1.05-3.48,2.34-5.16,3.62
				c-1.7,1.3-3.34,2.66-4.91,4.08c-3.11,2.85-6,5.92-8.1,9.25c-2.1,3.3-3.37,6.83-2.99,9.91c0.36,3.06,2.27,6.02,5.23,8.46
				c2.88,2.39,6.63,4.33,10.52,5.9c3.91,1.57,8.04,2.8,12.24,3.8c8.42,1.94,17.13,2.93,25.83,3.09c4.35,0.05,8.69-0.11,13.01-0.49
				c4.3-0.45,8.6-1.03,12.79-1.99c8.37-1.87,16.47-4.87,23.4-9.47c3.43-2.33,6.59-4.99,9.26-8.06c2.62-3.11,4.76-6.57,6.42-10.28
				c3.25-7.66,4.49-15.92,3.83-24.4c-0.59-8.48-2.61-17.09-4.71-25.78c-2.13-8.7-4.36-17.52-6.11-26.48
				c-1.77-8.96-3.1-18.05-3.84-27.2c-0.74-9.15-0.88-18.35-0.47-27.5c0.41-9.16,1.36-18.27,2.7-27.32c1.39-9,3.38-18.05,5.19-26.7
				c1.8-8.73,2.81-17.55,4.05-26.29c1.25-8.77,2.34-17.48,4.79-26.39v-0.01c0.22-0.8,1.04-1.27,1.84-1.05
				c0.53,0.15,0.92,0.57,1.05,1.07c2.36,9.08,2.33,18.35,1.46,27.46c-0.83,9.13-2.9,18.06-4.69,26.96
				c-1.89,8.96-3.75,17.5-5.12,26.28c-1.3,8.76-2.21,17.56-2.61,26.38c-0.84,17.65,0.67,35.29,4.15,52.65
				c1.69,8.7,3.88,17.33,6.02,26.11c2.12,8.78,4.26,17.76,4.94,27.26c0.36,4.73,0.22,9.6-0.53,14.4c-0.74,4.8-2.09,9.54-3.98,14
				c-2,4.51-4.63,8.76-7.82,12.53c-3.24,3.73-7.01,6.9-11.02,9.62c-8.1,5.37-17.18,8.67-26.33,10.72
				c-4.59,1.05-9.23,1.67-13.87,2.15c-4.65,0.41-9.3,0.58-13.95,0.52c-9.29-0.17-18.56-1.22-27.67-3.32
				c-4.55-1.09-9.07-2.43-13.51-4.21c-4.43-1.81-8.82-3.97-12.88-7.32c-0.52-0.39-0.99-0.86-1.46-1.32c-0.47-0.47-0.95-0.9-1.4-1.41
				c-0.87-1.04-1.76-2.07-2.48-3.29c-1.5-2.36-2.59-5.18-2.92-8.11c-0.34-2.94,0.09-5.84,0.91-8.44c0.83-2.61,2.03-4.95,3.38-7.1
				c2.73-4.3,6.09-7.8,9.6-11.03c1.77-1.6,3.59-3.11,5.47-4.54c1.91-1.44,3.74-2.76,5.89-4.12l-1.03,6.53
				c-3.99-4.75-7.39-9.93-10.25-15.35c-2.91-5.4-5.08-11.1-6.98-16.85c-1.91-5.75-3.26-11.62-4.41-17.51
				c-0.61-2.94-1.04-5.9-1.5-8.86c-0.37-2.97-0.78-5.93-1.06-8.9c-1.26-11.87-1.4-23.81-0.49-35.64c0.44-5.92,1.13-11.81,2.26-17.63
				c1.16-5.82,2.54-11.58,4.78-17.2c0.3-0.76,1.16-1.12,1.91-0.82c0.57,0.23,0.92,0.78,0.93,1.36L549.48,682.31z"/>
		</g>
		<g>
			<path class="st1" d="M604.14,773.13c-19.35,0-40.76-2.9-60.3-12.02c-1.63-0.76-2.34-2.7-1.58-4.33s2.7-2.34,4.33-1.58
				c50.33,23.49,116.24,3.05,116.9,2.84c1.72-0.54,3.55,0.41,4.09,2.12c0.54,1.72-0.41,3.55-2.12,4.09
				C663.71,764.81,636.89,773.13,604.14,773.13z"/>
		</g>
		<g>
			<path class="st1" d="M633.05,825.18c-0.83,0-1.67-0.24-2.41-0.73c-1.1-0.73-26.92-17.37-61.46-3.57
				c-2.23,0.89-4.76-0.19-5.65-2.42s0.2-4.76,2.42-5.65c38.95-15.55,68.28,3.59,69.51,4.42c2,1.33,2.53,4.03,1.2,6.03
				C635.83,824.5,634.46,825.18,633.05,825.18z"/>
		</g>
		<g>
			<path class="st2" d="M727.92,614.3c-0.9,55.97-25.89,62.8-57.49,62.65c-26.38-0.14-28.14-20.35-28.14-20.35
				s-9.68-2.46-12.39-13.5c-2.45-9.96,7.91-25.09,11.09-29.44c0.58-0.78,0.92-1.21,0.92-1.21s1.08-6.6,1.1-17.98
				c0-2.21-0.03-4.61-0.13-7.18c-0.66-17.36-3.92-42.45-14.72-71.09l26.07-94.3c46.22,49.79,66.87,96.75,72.45,163.08
				c0.26,3.01,0.49,6.06,0.68,9.15c0.09,1.48,0.17,2.97,0.26,4.48C727.91,604.23,728.01,609.45,727.92,614.3z"/>
		</g>
		<g class="st3">
			<path class="st1" d="M727.92,614.3c-0.9,55.97-25.89,62.8-57.49,62.65c-26.38-0.14-28.14-20.35-28.14-20.35
				s-9.68-2.46-12.39-13.5c-0.86-3.51-0.14-7.66,1.31-11.76c3.67,7.87,12.06,2.61,12.06,2.61s0.78,27.34,27.17,27.48
				c30.81,0.15,55.34-6.34,57.37-58.57C727.95,606.88,727.99,610.69,727.92,614.3z"/>
		</g>
		<g>
			
				<linearGradient id="SVGID_5_" gradientUnits="userSpaceOnUse" x1="628.1595" y1="491.8123" x2="727.3595" y2="491.8123" gradientTransform="matrix(1 0 0 -1 0 1000)">
				<stop  offset="0" style="stop-color:#E1641E"/>
				<stop  offset="1.065558e-08" style="stop-color:#E76518"/>
				<stop  offset="0.1768" style="stop-color:#E04C2D"/>
				<stop  offset="0.3045" style="stop-color:#DC3F38"/>
				<stop  offset="0.5674" style="stop-color:#934E5A"/>
				<stop  offset="0.8525" style="stop-color:#475E7E"/>
			</linearGradient>
			<path class="st10" d="M727.36,594.14c-30.64-1.82-67.9-0.44-84.35,0.34c0.01-17.21-2.45-45.39-14.85-78.27l8.45-44.06
				l17.62-50.25C702.55,473.95,722.92,522.91,727.36,594.14z"/>
		</g>
		<g class="st11">
			<path class="st2" d="M727.36,594.13c-30.64-1.82-67.9-0.44-84.35,0.34c0-2.88-0.07-6.07-0.24-9.53
				c18.94-0.68,47.12-1.22,71.21,0.21c-4.06-65.1-21.42-111.6-61.28-158.85l1.54-4.39C702.55,473.95,722.92,522.91,727.36,594.13z"
				/>
		</g>
		<g>
			<path class="st1" d="M637.98,578.38c-0.9-5.13-1.52-10.27-2.24-15.41c-0.72-5.14-1.36-10.3-2.19-15.46
				c-0.82-5.16-1.73-10.32-2.76-15.49c-1-5.18-2.13-10.35-3.21-15.59c-0.07-0.34,0.15-0.67,0.48-0.74c0.27-0.06,0.55,0.08,0.68,0.31
				c2.64,4.68,4.92,9.56,7.01,14.52c2.05,4.98,3.88,10.06,5.44,15.23c1.55,5.17,2.94,10.42,3.87,15.75s1.58,10.73,1.59,16.16
				c0,2.41-1.95,4.36-4.36,4.36c-2.15,0-3.94-1.56-4.3-3.61L637.98,578.38z"/>
		</g>
		<g>
			<path class="st1" d="M671.54,681.29c-0.38,0-0.75,0-1.13,0c-23.72-0.12-30.2-15.09-31.89-21.48c-3.8-1.73-10.5-6.06-12.85-15.67
				c-2.99-12.21,8.72-28.94,12.1-33.42c0.4-3.13,1.43-13.2,0.53-27.85c-0.15-2.4,1.68-4.46,4.07-4.6c2.4-0.14,4.46,1.68,4.6,4.07
				c1.15,18.82-0.7,30.35-0.77,30.83c-0.12,0.72-0.42,1.41-0.87,1.98c-5.25,6.68-12.94,19.9-11.22,26.93
				c2.02,8.24,8.99,10.25,9.28,10.33c1.75,0.48,3.06,2.02,3.22,3.83c0.17,1.63,2.3,16.27,23.83,16.37
				c14.94,0.08,30.08-1.28,39.88-11.55c10.33-10.84,14.57-31.18,12.94-62.2c-3.84-73.35-24.09-122.12-72.24-173.98
				c-1.63-1.76-1.53-4.51,0.23-6.14c1.76-1.64,4.51-1.53,6.14,0.23c49.69,53.52,70.59,103.83,74.55,179.44
				c1.78,34-3.09,55.82-15.33,68.66C704.82,679.42,688.05,681.29,671.54,681.29z"/>
		</g>
		<g>
			<path class="st1" d="M645.68,632.7l0.93,23.41v0.08c0.1,2.41-1.78,4.44-4.19,4.53c-2.41,0.1-4.44-1.78-4.53-4.19
				c-0.01-0.23,0-0.49,0.03-0.71l2.91-23.36c0.17-1.33,1.38-2.28,2.71-2.11c1.2,0.15,2.08,1.15,2.13,2.32L645.68,632.7z"/>
		</g>
		<g>
			<path class="st2" d="M298.16,386.16c-5.11-17.42,12.55-31.66,12.55-31.66s-15.93-28.64-3.51-36.41
				c6.66-4.16,25.12,15.45,29.41,28.29s4.3,25.19,4.3,25.19"/>
		</g>
		<g>
			<path class="st1" d="M297.47,386.36c-0.36-0.7-0.71-1.42-1.04-2.16c-0.16-0.37-0.34-0.74-0.48-1.13
				c-0.12-0.39-0.22-0.78-0.32-1.18c-0.18-0.79-0.44-1.6-0.56-2.42l-0.21-2.49c-0.1-3.34,0.48-6.74,1.6-9.89
				c1.14-3.15,2.75-6.08,4.64-8.77c0.95-1.34,1.97-2.63,3.06-3.87c0.52-0.63,1.12-1.21,1.69-1.81c0.62-0.6,1.15-1.13,1.93-1.8
				l-1.15,5.93c-2.4-4.31-4.22-8.55-5.73-13.14c-1.46-4.58-2.66-9.33-2.78-14.66c-0.04-2.65,0.28-5.55,1.53-8.48
				c0.27-0.73,0.75-1.44,1.14-2.14c0.51-0.66,0.96-1.37,1.58-1.94l0.91-0.88l0.99-0.75c0.45-0.39,1.92-1.25,3-1.44
				c2.35-0.55,4.21-0.13,5.72,0.32c1.52,0.48,2.82,1.09,3.99,1.76c2.37,1.32,4.34,2.85,6.24,4.44c3.75,3.2,7.01,6.73,9.89,10.6
				c1.45,1.92,2.78,3.95,4,6.08c1.23,2.12,2.32,4.36,3.19,6.81c0.21,0.6,0.43,1.27,0.6,1.85l0.48,1.73
				c0.31,1.16,0.55,2.33,0.79,3.49c0.43,2.34,0.72,4.7,0.85,7.05c0.2,4.72-0.02,9.44-1.37,14.08c-0.12,0.4-0.53,0.63-0.93,0.51
				c-0.24-0.07-0.42-0.25-0.5-0.47l-0.01-0.04c-1.53-4.39-2.78-8.68-4.11-12.86c-0.67-2.09-1.31-4.16-2.01-6.19
				c-0.34-1.02-0.69-2.03-1.05-3.03l-0.54-1.5c-0.18-0.49-0.36-0.88-0.55-1.33c-0.8-1.75-1.81-3.53-2.9-5.29
				c-1.1-1.75-2.32-3.46-3.58-5.15c-2.56-3.34-5.36-6.58-8.38-9.36c-1.51-1.37-3.09-2.67-4.64-3.6c-0.77-0.49-1.53-0.85-2.16-1.07
				c-0.62-0.24-1.08-0.22-0.94-0.24c0.02-0.02,0.06-0.04,0.14-0.07c0.01,0,0.1-0.1,0.02-0.03l-0.18,0.13l-0.37,0.25
				c-0.1,0.11-0.2,0.21-0.31,0.31c-0.24,0.17-0.36,0.46-0.58,0.66c-0.13,0.3-0.35,0.5-0.45,0.85c-0.57,1.22-0.83,2.91-0.76,4.77
				c0.12,3.73,1.28,7.83,2.75,11.77c0.75,1.98,1.58,3.96,2.46,5.91c0.85,1.94,1.85,3.95,2.74,5.72l0.13,0.26
				c1,1.99,0.42,4.36-1.28,5.67c-0.37,0.29-0.94,0.78-1.41,1.2l-1.46,1.39c-0.98,0.93-1.92,1.93-2.79,2.96
				c-1.79,2.04-3.38,4.21-4.8,6.49c-1.39,2.3-2.44,4.73-3.26,7.33c-0.79,2.62-1.01,5.39-1.08,8.43v0.09
				c-0.01,0.41-0.34,0.73-0.75,0.72C297.83,386.76,297.59,386.6,297.47,386.36z"/>
		</g>
		<g class="st3">
			<path class="st1" d="M727.92,614.3c-1.11,0.47-2.34,0.65-3.64,0.52c-21.92-2.24-53.54-2.49-79-0.28
				c-1.54,0.13-3.02-0.2-4.29-0.87c0.58-0.78,0.92-1.21,0.92-1.21s1.08-6.6,1.1-17.98c0-2.21-0.03-4.61-0.13-7.18
				c25.74-3.4,58.57-4.45,81.13-2.98c0.94,0.06,1.85,0.29,2.67,0.68c0.26,3.01,0.49,6.06,0.68,9.15c0.09,1.48,0.17,2.97,0.26,4.48
				C727.91,604.23,728.01,609.45,727.92,614.3z"/>
		</g>
		<g>
			<path class="st2" d="M724.28,594.21c-21.92-2.24-53.54-2.49-79-0.28c-4.35,0.38-8.16-2.91-8.36-7.27
				c-0.16-3.59-0.42-7.46-0.82-11.57c-0.39-4.13,2.51-7.84,6.62-8.39c25.77-3.42,58.68-4.47,81.29-3.01
				c3.68,0.24,6.66,3.08,7.11,6.75c0.61,5.05,1.14,10.19,1.58,15.44C733.1,590.69,729.08,594.7,724.28,594.21z"/>
		</g>
		<g class="st3">
			<path class="st1" d="M724.28,594.22c-21.92-2.24-53.54-2.49-79-0.28c-4.35,0.37-8.17-2.91-8.36-7.28
				c-0.08-1.89-0.2-3.86-0.35-5.9c25.21-2.09,56.06-1.79,77.57,0.4c4.8,0.49,8.82-3.52,8.43-8.33c-0.27-3.12-0.56-6.21-0.87-9.26
				c0.78,0.05,1.56,0.09,2.32,0.14c3.68,0.24,6.67,3.09,7.11,6.75c0.62,5.05,1.14,10.2,1.57,15.44
				C733.1,590.7,729.08,594.71,724.28,594.22z"/>
		</g>
		<g>
			<path class="st1" d="M725.07,598.6c-0.41,0-0.82-0.02-1.23-0.06l0,0c-22.36-2.29-53.78-2.4-78.18-0.28
				c-3.25,0.28-6.55-0.79-9.01-2.94c-2.48-2.17-3.92-5.18-4.07-8.46c-0.17-3.72-0.44-7.54-0.8-11.35
				c-0.62-6.5,3.94-12.25,10.38-13.11c25.3-3.36,58.31-4.58,82.15-3.04c5.76,0.37,10.45,4.81,11.14,10.56
				c0.62,5.1,1.15,10.35,1.59,15.61c0.3,3.6-1,7.11-3.57,9.64C731.2,597.38,728.2,598.6,725.07,598.6z M724.72,589.89
				c1.34,0.13,2.23-0.52,2.65-0.93c0.72-0.71,1.09-1.7,1-2.71c-0.43-5.15-0.96-10.3-1.56-15.29c-0.19-1.59-1.49-2.83-3.08-2.93
				c-23.33-1.51-55.65-0.32-80.44,2.98c-1.78,0.24-3.04,1.85-2.87,3.67c0.38,3.96,0.66,7.92,0.83,11.78
				c0.04,0.9,0.44,1.72,1.12,2.32c0.7,0.61,1.6,0.91,2.52,0.82C669.79,587.44,701.87,587.55,724.72,589.89L724.72,589.89z"/>
		</g>
		<g>
			<path class="st2" d="M647.28,387.15c-28.76,24.9-149.98,155.33-149.98,155.33l-34.9-130.36c8.01-20.38,17.28-40.88,27.85-61.08
				l147.29,9.38C640.99,369.43,644.23,378.34,647.28,387.15z"/>
		</g>
		<g>
			<path class="st2" d="M647.28,387.15c-28.76,24.9-149.98,155.33-149.98,155.33l-34.9-130.36c8.01-20.38,17.28-40.88,27.85-61.08
				l147.29,9.38C640.99,369.43,644.23,378.34,647.28,387.15z"/>
		</g>
		<g>
			<path class="st1" d="M497.3,546.83c-0.35,0-0.7-0.04-1.05-0.13c-1.54-0.38-2.74-1.57-3.15-3.09l-34.9-130.36
				c-0.24-0.9-0.19-1.85,0.15-2.71c8.27-21.05,17.7-41.74,28.05-61.5c0.8-1.52,2.44-2.43,4.13-2.32l147.29,9.38
				c1.7,0.11,3.18,1.2,3.78,2.79c3.38,8.84,6.67,17.88,9.78,26.85c0.58,1.68,0.08,3.54-1.26,4.71
				c-28.26,24.47-148.43,153.7-149.64,155.01C499.65,546.34,498.5,546.83,497.3,546.83z M466.98,412.39l32.5,121.39
				c23.37-25.08,114.37-122.37,142.75-147.95c-2.49-7.1-5.08-14.22-7.73-21.24l-141.68-9.02
				C483.34,373.88,474.65,392.97,466.98,412.39z"/>
		</g>
		<g>
			<path class="st1" d="M497.3,546.83c-0.35,0-0.7-0.04-1.05-0.13c-1.54-0.38-2.74-1.57-3.15-3.09l-34.9-130.36
				c-0.24-0.9-0.19-1.85,0.15-2.71c8.27-21.05,17.7-41.74,28.05-61.5c0.8-1.52,2.44-2.43,4.13-2.32l147.29,9.38
				c1.7,0.11,3.18,1.2,3.78,2.79c3.38,8.84,6.67,17.88,9.78,26.85c0.58,1.68,0.08,3.54-1.26,4.71
				c-6.56,5.68-18.67,17.53-35.98,35.22c-45.65,46.63-112.99,119.06-113.66,119.79C499.65,546.34,498.5,546.83,497.3,546.83z
				 M466.98,412.39l32.5,121.39c16.91-18.13,70.26-75.17,108.47-114.2c15.71-16.05,27.22-27.38,34.28-33.74
				c-2.49-7.1-5.08-14.22-7.73-21.24l-141.68-9.02C483.34,373.88,474.65,392.97,466.98,412.39z"/>
		</g>
		<g>
			<path class="st12" d="M503.62,436.28l-8.12,10.79c-1.53,2.03-1.83,4.73-0.79,7.05l5.65,12.59c1.08,2.4,3.42,3.99,6.05,4.11
				l9.04,0.41c2.11,0.1,4.16-0.77,5.55-2.36l9.55-10.84c2.11-2.4,2.32-5.92,0.52-8.55l-8.87-12.95c-1.3-1.9-3.45-3.03-5.76-3.03
				h-7.24C507,433.5,504.94,434.53,503.62,436.28z"/>
		</g>
		<g>
			<path class="st1" d="M515.77,475.59c-0.17,0-0.35,0-0.52-0.01l-9.04-0.41c-4.3-0.19-8.06-2.75-9.82-6.68l-5.65-12.59
				c-1.69-3.76-1.2-8.15,1.28-11.44l8.12-10.79l0,0c2.13-2.83,5.51-4.51,9.05-4.51h7.24c3.74,0,7.23,1.84,9.34,4.92l8.87,12.95
				c2.93,4.28,2.59,9.99-0.84,13.88l-9.55,10.84C522.09,474.21,519.02,475.59,515.77,475.59z M507.09,438.89l-8.12,10.79
				c-0.58,0.76-0.69,1.78-0.3,2.66l5.65,12.59c0.41,0.91,1.28,1.51,2.28,1.55l9.04,0.41c0.8,0.05,1.57-0.29,2.1-0.89l9.55-10.84
				c0.8-0.91,0.88-2.23,0.2-3.23l-8.87-12.95c-0.49-0.72-1.3-1.14-2.17-1.14h-7.24C508.37,437.84,507.58,438.24,507.09,438.89
				L507.09,438.89z"/>
		</g>
		<g>
			<path class="st1" d="M501.41,712.12c-2.02,0-3.82-1.41-4.25-3.46c-18.46-88.67-4.27-166.2-4.13-166.98
				c0.45-2.36,2.72-3.91,5.08-3.47s3.91,2.72,3.47,5.07c-0.14,0.76-14,76.69,4.09,163.6c0.49,2.35-1.02,4.65-3.37,5.14
				C502,712.09,501.7,712.12,501.41,712.12z"/>
		</g>
		<g>
			<g class="st3">
				<path class="st1" d="M660.57,428.88c0,0,0,0.01-0.01,0.01c-4.08,4-8.34,7.77-12.75,11.3c-33.47,26.86-75.6,40.31-117.9,38.38
					c-3.34-0.16-6.69-0.41-10.05-0.75c-9.18-0.97-18.34-2.65-27.4-5.1c-7.49-2.03-14.93-4.57-22.21-7.64
					c-1.33-0.56-2.65-1.13-3.96-1.74c-6.3-2.82-12.49-6.06-18.55-9.72c-0.77-0.45-1.53-0.91-2.28-1.39
					c-2.66-1.68-5.27-3.39-7.8-5.16c-5.2-3.64-10.15-7.51-14.85-11.6c-9.5-8.29-17.96-17.43-25.29-27.27
					c15.59,8.52,34.44,15.92,58.37,21.24c9.36-26.03,20.79-52.47,34.37-78.41l147.29,9.38
					C646.51,383.91,654.18,406.85,660.57,428.88z"/>
			</g>
			<g>
				<path class="st2" d="M373.1,339.26c9.86,27.59,26.65,52.83,49.7,72.91c4.7,4.09,9.65,7.97,14.85,11.6
					c2.53,1.77,5.14,3.49,7.8,5.16c8.04,5.01,16.33,9.28,24.8,12.84c7.29,3.08,14.72,5.62,22.22,7.65c9.05,2.46,18.21,4.14,27.4,5.1
					c3.35,0.34,6.7,0.59,10.05,0.75c61.28,2.8,122.23-26.69,156.95-82.47c51.17-82.16,26.03-190.24-56.12-241.41
					c-15.83-9.84-32.63-16.89-49.79-21.2c-2-0.52-4.03-0.99-6.06-1.41c-5.42-1.17-10.87-2.07-16.33-2.71
					c-12.63-1.48-25.31-1.55-37.82-0.29c-12.5,1.25-24.84,3.84-36.77,7.71c-3.79,1.23-7.55,2.58-11.26,4.08
					c-5.56,2.24-11.02,4.75-16.36,7.57c-26.62,13.98-49.98,35.02-67.02,62.39C359.9,234.79,355.72,290.61,373.1,339.26z"/>
				<path class="st1" d="M537.92,455.89c-2.67,0-5.34-0.06-8.03-0.18c-3.35-0.16-6.73-0.41-10.07-0.75
					c-9.31-0.97-18.55-2.69-27.47-5.11c-7.62-2.06-15.11-4.64-22.27-7.67c-8.55-3.59-16.91-7.92-24.86-12.87
					c-2.92-1.84-5.47-3.53-7.82-5.18c-5.11-3.57-10.12-7.48-14.89-11.63c-22.52-19.61-39.75-44.88-49.83-73.09
					c-18.18-50.88-12.25-106.33,16.27-152.12c16.49-26.49,39.72-48.12,67.19-62.55c5.2-2.75,10.71-5.3,16.4-7.59
					c3.65-1.47,7.44-2.84,11.29-4.09c11.96-3.88,24.36-6.48,36.86-7.73c12.62-1.27,25.38-1.17,37.91,0.29
					c5.45,0.64,10.96,1.55,16.37,2.72c2.17,0.45,4.15,0.91,6.08,1.42c17.51,4.4,34.3,11.55,49.91,21.25
					c82.23,51.22,107.47,159.78,56.26,242.01C655.1,424.65,598.44,455.89,537.92,455.89z M538.34,105.33
					c-5.86,0-11.71,0.29-17.55,0.88c-12.44,1.24-24.79,3.83-36.68,7.69c-3.83,1.24-7.61,2.61-11.23,4.07
					c-5.66,2.28-11.15,4.82-16.32,7.55c-27.33,14.36-50.45,35.88-66.86,62.24c-28.38,45.56-34.28,100.73-16.19,151.36
					c10.03,28.07,27.17,53.21,49.58,72.72c4.75,4.13,9.73,8.02,14.82,11.57c2.33,1.64,4.88,3.32,7.78,5.15
					c7.91,4.92,16.23,9.23,24.73,12.8c7.12,3.01,14.58,5.58,22.16,7.63c8.87,2.41,18.07,4.12,27.33,5.09
					c3.32,0.34,6.69,0.59,10.02,0.75c2.66,0.12,5.33,0.18,7.99,0.18c60.23,0,116.6-31.08,148.57-82.45
					c50.95-81.82,25.84-189.84-55.98-240.81c-15.53-9.66-32.24-16.77-49.66-21.15c-1.91-0.5-3.89-0.96-6.04-1.41
					c-5.39-1.16-10.87-2.07-16.29-2.71C551.83,105.72,545.09,105.33,538.34,105.33z"/>
			</g>
			<g class="st3">
				<path class="st1" d="M686.86,372.79c-34.72,55.79-95.68,85.28-156.96,82.47c-3.35-0.16-6.7-0.4-10.04-0.75
					c-9.19-0.96-18.35-2.65-27.4-5.1c-7.49-2.04-14.93-4.57-22.22-7.65c-8.47-3.55-16.76-7.83-24.81-12.84
					c-2.65-1.68-5.26-3.39-7.8-5.16c-5.2-3.64-10.14-7.52-14.85-11.61c-23.06-20.08-39.85-45.31-49.71-72.91
					c-5.42-15.15-8.74-31.02-9.86-47.1c10.01,26.11,26.3,49.96,48.3,69.11c4.7,4.1,9.64,7.97,14.85,11.61
					c2.52,1.77,5.13,3.48,7.8,5.16c8.05,5.01,16.33,9.28,24.79,12.84c7.3,3.08,14.72,5.61,22.22,7.65c9.05,2.45,18.22,4.14,27.4,5.1
					c3.36,0.34,6.7,0.59,10.05,0.74c61.28,2.81,122.23-26.68,156.96-82.47c20.27-32.54,28.55-69.15,26.08-104.67
					C720.68,266.77,717.07,324.3,686.86,372.79z"/>
			</g>
			<g>
				<path class="st1" d="M537.92,458.82c-2.71,0-5.43-0.06-8.16-0.19c-3.4-0.16-6.84-0.42-10.23-0.76
					c-9.48-0.99-18.87-2.74-27.94-5.2c-7.75-2.1-15.37-4.72-22.65-7.8c-8.68-3.65-17.19-8.05-25.27-13.08
					c-2.97-1.87-5.57-3.59-7.95-5.27c-5.19-3.62-10.28-7.6-15.13-11.81c-22.9-19.94-40.42-45.64-50.67-74.31
					c-18.48-51.73-12.45-108.1,16.55-154.65c16.76-26.93,40.39-48.92,68.32-63.6c5.28-2.79,10.89-5.39,16.67-7.72
					c3.71-1.49,7.57-2.89,11.48-4.16c12.15-3.94,24.76-6.59,37.48-7.86c12.83-1.29,25.79-1.19,38.54,0.3
					c5.54,0.65,11.15,1.58,16.65,2.77c2.19,0.46,4.23,0.93,6.2,1.45c17.78,4.46,34.85,11.73,50.71,21.6
					c83.61,52.07,109.26,162.45,57.2,246.05C657.05,427.06,599.45,458.82,537.92,458.82z M538.34,108.26
					c-5.76,0-11.52,0.29-17.25,0.87c-12.24,1.22-24.37,3.76-36.07,7.56c-3.76,1.22-7.48,2.56-11.04,4
					c-5.56,2.24-10.96,4.74-16.04,7.43c-26.88,14.12-49.61,35.28-65.74,61.2c-27.9,44.8-33.71,99.05-15.92,148.83l0,0
					c9.86,27.59,26.71,52.32,48.74,71.5c4.66,4.06,9.57,7.89,14.57,11.38c2.3,1.62,4.81,3.27,7.66,5.08
					c7.76,4.83,15.94,9.07,24.3,12.58c7.01,2.96,14.34,5.49,21.79,7.51c8.72,2.37,17.76,4.05,26.87,5c3.26,0.33,6.58,0.58,9.86,0.73
					c2.62,0.12,5.24,0.18,7.85,0.18c59.21,0,114.64-30.56,146.08-81.06c50.1-80.45,25.41-186.66-55.04-236.77
					c-15.27-9.49-31.7-16.49-48.83-20.79c-1.89-0.49-3.82-0.94-5.92-1.38c-5.32-1.15-10.71-2.04-16.04-2.67
					C551.61,108.64,544.98,108.26,538.34,108.26z"/>
			</g>
			<g>
				<path class="st1" d="M537.92,459.8c-2.73,0-5.46-0.06-8.2-0.19c-3.42-0.16-6.88-0.42-10.29-0.77c-9.53-1-18.98-2.76-28.1-5.23
					c-7.79-2.11-15.45-4.75-22.77-7.84c-8.73-3.67-17.28-8.09-25.4-13.15c-2.99-1.88-5.6-3.61-8-5.3
					c-5.21-3.64-10.33-7.64-15.21-11.87c-23.03-20.05-40.64-45.89-50.94-74.72l0,0c-18.58-52.01-12.52-108.69,16.64-155.5
					c16.86-27.08,40.61-49.19,68.69-63.94c5.3-2.81,10.95-5.42,16.76-7.76c3.73-1.5,7.61-2.91,11.54-4.18
					c12.22-3.97,24.9-6.62,37.68-7.9c12.9-1.3,25.93-1.2,38.75,0.3c5.57,0.65,11.21,1.59,16.74,2.78c2.2,0.46,4.25,0.94,6.24,1.46
					c17.87,4.49,35.03,11.8,50.98,21.71c84.06,52.36,109.86,163.34,57.51,247.4C657.71,427.86,599.78,459.8,537.92,459.8z
					 M538.34,109.23c-5.72,0-11.45,0.29-17.15,0.86c-12.17,1.21-24.24,3.74-35.87,7.52c-3.74,1.21-7.44,2.55-10.98,3.97
					c-5.53,2.23-10.9,4.71-15.95,7.38c-26.73,14.04-49.33,35.08-65.37,60.85c-27.74,44.55-33.51,98.48-15.83,147.98l0,0
					c9.8,27.44,26.56,52.02,48.47,71.09c4.64,4.03,9.51,7.84,14.49,11.31c2.29,1.61,4.78,3.26,7.63,5.05
					c7.71,4.8,15.85,9.01,24.16,12.51c6.97,2.95,14.26,5.46,21.67,7.46c8.67,2.35,17.66,4.03,26.71,4.97
					c3.24,0.33,6.54,0.57,9.8,0.73c2.61,0.12,5.21,0.18,7.81,0.18c58.87,0,113.99-30.39,145.25-80.6
					c49.82-79.99,25.26-185.6-54.73-235.42c-15.18-9.44-31.52-16.4-48.55-20.67c-1.88-0.49-3.8-0.94-5.88-1.37
					c-5.29-1.14-10.65-2.03-15.95-2.65C551.53,109.62,544.94,109.23,538.34,109.23z"/>
			</g>
			<g>
				<path class="st1" d="M393.51,379.27c90.52,86.58,236.36,57.35,262.55-63.92c17.82-82.5-49.2-163.64-129.54-175.68
					c-58.47-8.76-119.38,8.26-157.79,95.29c0,0-11.05,41.15-4.01,70.77c7.04,29.62,18.89,57.24,18.89,57.24L393.51,379.27z"/>
			</g>
			<g>
				<path class="st13" d="M656.05,315.35c-26.19,121.26-172.03,150.49-262.54,63.92l-2-3.31c108.57,37.17,230.15-12.49,258.91-134.6
					C658.97,264.56,661.54,289.89,656.05,315.35z"/>
			</g>
			<g>
				<path class="st1" d="M514.29,451.45c-14.96,0-30.12-1.8-45.08-5.46c-0.22-0.05-0.44-0.13-0.65-0.21
					c-8.74-3.67-17.29-8.1-25.41-13.15c-2.99-1.88-5.6-3.61-8-5.3c-5.21-3.64-10.33-7.64-15.21-11.87
					c-23.03-20.05-40.64-45.89-50.94-74.72l0,0c-18.58-52.01-12.52-108.69,16.64-155.5c16.86-27.08,40.61-49.19,68.69-63.94
					c0.27-0.14,0.55-0.25,0.83-0.33c22.25-6.32,47.13-7.48,73.95-3.46c47.77,7.16,93.49,36.31,122.28,77.98
					c26.46,38.29,36.02,82.58,26.92,124.7c-9.89,45.78-34.88,82.35-72.27,105.75C579.18,442.73,547.21,451.45,514.29,451.45z
					 M471.61,437.63c45.51,11.03,92.81,4.09,129.83-19.08c35.35-22.12,59-56.77,68.39-100.21c8.59-39.75-0.49-81.63-25.57-117.93
					c-27.45-39.73-70.97-67.52-116.42-74.33c-25.42-3.81-48.92-2.76-69.86,3.11c-26.54,14.03-49,34.99-64.96,60.63
					c-27.74,44.55-33.51,98.48-15.83,147.98l0,0c9.8,27.44,26.56,52.02,48.47,71.09c4.64,4.03,9.51,7.84,14.49,11.31
					c2.29,1.61,4.78,3.26,7.63,5.05C455.38,430,463.41,434.16,471.61,437.63z"/>
			</g>
			<g>
				<path class="st1" d="M514.06,433.52c-44.27,0-88.85-17.92-123.55-51.11c-0.28-0.26-0.51-0.56-0.71-0.89l-9.9-16.3
					c-0.11-0.17-0.2-0.36-0.28-0.54c-0.49-1.14-12.08-28.3-19.12-57.95c-7.21-30.34,3.58-71.18,4.04-72.9
					c0.06-0.21,0.13-0.42,0.22-0.63c33.56-76.03,88.19-108.95,162.41-97.83c42.63,6.39,83.42,32.4,109.11,69.58
					c23.62,34.17,32.15,73.71,24.02,111.32c-11.73,54.31-48,94.51-99.52,110.31C545.56,431.24,529.82,433.52,514.06,433.52z
					 M396.92,376.52c44.76,42.55,106.52,58.54,161.31,41.75c48.42-14.84,82.52-52.69,93.57-103.83
					c7.61-35.24-0.44-72.36-22.68-104.54c-24.35-35.24-62.95-59.88-103.25-65.92c-69.75-10.45-121.23,20.64-153.03,92.42
					c-0.97,3.8-10.29,41.46-3.9,68.33c6.5,27.34,17.3,53.32,18.54,56.26L396.92,376.52z"/>
			</g>
			<g>
				
					<ellipse transform="matrix(0.144 -0.9896 0.9896 0.144 275.1174 953.0615)" class="st2" cx="688.45" cy="317.51" rx="62.67" ry="45.54"/>
				<path class="st1" d="M684.2,384.23c-0.57,0-1.14-0.01-1.72-0.04c-10.94-0.5-20.91-5.56-28.82-14.64
					c-11.6-13.32-17.13-33.18-15.16-54.51c3.38-36.65,28.41-65.46,55.88-64.2c10.94,0.5,20.91,5.56,28.82,14.64
					c11.6,13.32,17.13,33.18,15.16,54.51C735.05,355.88,710.95,384.23,684.2,384.23z M692.63,259.5
					c-22.32,0-42.56,24.89-45.47,56.35c-1.72,18.69,3.16,36.63,13.06,48c6.31,7.25,14.15,11.28,22.66,11.67
					c22.86,1.05,43.87-24.22,46.83-56.31l4.33,0.4l-4.33-0.4c1.72-18.69-3.16-36.63-13.06-48c-6.31-7.25-14.15-11.28-22.66-11.67
					C693.54,259.51,693.09,259.5,692.63,259.5z"/>
			</g>
			<g>
				
					<ellipse transform="matrix(0.1778 -0.9841 0.9841 0.1778 258.7751 957.8216)" class="st2" cx="702.58" cy="324.05" rx="49.74" ry="37.11"/>
				<path class="st1" d="M698.62,373.95c-5.48,0-10.77-1.59-15.62-4.74c-17.94-11.64-23.79-41.34-13.05-66.21
					c6.02-13.93,16.14-23.93,27.78-27.45c8.57-2.59,17.01-1.42,24.44,3.4c17.94,11.64,23.79,41.34,13.05,66.21
					c-6.02,13.93-16.14,23.93-27.78,27.45C704.46,373.5,701.51,373.95,698.62,373.95z M706.52,275.11c-2.81,0-5.67,0.43-8.54,1.3
					c-11.38,3.44-21.3,13.26-27.21,26.94c-10.58,24.48-4.88,53.68,12.71,65.09c7.19,4.66,15.37,5.8,23.68,3.29
					c11.38-3.44,21.3-13.26,27.21-26.94c10.58-24.48,4.88-53.68-12.71-65.09C716.96,276.65,711.83,275.11,706.52,275.11z"/>
			</g>
			<g class="st3">
				<path class="st1" d="M665.73,341.83c-1.45-9.31-0.35-19.05,2.7-28.02c5.09,20.96,22.8,30.95,41.14,22.43
					c11.85-5.5,21.24-17.47,25.95-31.34c0.33,1.32,0.59,2.7,0.82,4.11c3.67,23.71-9.15,50.29-28.65,59.35
					C688.19,377.42,669.41,365.53,665.73,341.83z"/>
			</g>
			<g>
				<path class="st1" d="M698.86,377.97c-0.34,0-0.69-0.01-1.03-0.02c-8.13-0.3-15.57-4.07-21.53-10.88
					c-9.37-10.72-13.93-27.9-12.19-45.98c2.91-30.26,22.52-54.23,43.83-53.43c8.13,0.31,15.57,4.07,21.53,10.88
					c9.37,10.72,13.93,27.9,12.19,45.98l-4.33-0.42l4.33,0.42C738.8,354.28,719.72,377.97,698.86,377.97z M706.86,276.33
					c-16.45,0-31.66,20.22-34.1,45.59c-1.52,15.74,2.25,30.47,10.08,39.42c4.34,4.96,9.64,7.7,15.32,7.92
					c0.25,0.01,0.5,0.01,0.75,0.01c16.45,0,31.66-20.22,34.1-45.59l0,0c1.51-15.74-2.25-30.47-10.08-39.42
					c-4.34-4.96-9.64-7.7-15.31-7.91C707.36,276.34,707.11,276.33,706.86,276.33z"/>
			</g>
			<g class="st11">
				<path class="st2" d="M563.21,176.35c0,0-79.33-6.76-129.33,32c-0.05,0.04-0.11,0.08-0.16,0.12
					c-10.52,8.17-18.63,19.03-23.58,31.4c-6.54,16.35-8.65,28.57-10.1,39.41c-4.38,32.95-0.27,49.21-0.27,49.21
					c-16.43-19.9-24.36-41.07-20.99-68.55c0.34-2.71,0.79-5.49,1.34-8.33c0.12-0.65,0.26-1.3,0.41-1.95
					c-0.01-0.01-0.01-0.02,0.01-0.04c1.52-5.67,3.81-13.05,7.08-21.16c9.85-24.45,28.61-55.57,62.4-66.67
					C513.22,141.03,566.38,173.27,563.21,176.35z"/>
			</g>
			<g class="st11">
				
					<ellipse transform="matrix(0.9917 -0.1289 0.1289 0.9917 -29.0995 80.9764)" class="st2" cx="611.07" cy="265.31" rx="23.43" ry="27.3"/>
			</g>
			<g class="st11">
				
					<ellipse transform="matrix(0.9772 -0.2122 0.2122 0.9772 -52.6624 138.1822)" class="st2" cx="617.43" cy="314.43" rx="9.67" ry="11.27"/>
			</g>
		</g>
		<g>
			<path class="st1" d="M496.7,550.47c-1.24,0-2.45-0.53-3.29-1.51l-37.6-43.66c-0.99-1.14-1.31-2.72-0.85-4.16l4.55-14.27
				l-11.66-6.36c-1.4-0.76-2.26-2.23-2.26-3.82v-45.07c0-2.4,1.95-4.35,4.35-4.35s4.35,1.95,4.35,4.35v42.49l12.54,6.85
				c1.83,1,2.69,3.15,2.06,5.14l-4.9,15.37l34.09,39.58l71.83-24.73l2.84-22.3c0.21-1.65,1.35-3.04,2.93-3.57l48.3-16.18l2.18-43.98
				c0.12-2.4,2.16-4.26,4.56-4.13c2.4,0.12,4.25,2.16,4.13,4.56l-2.33,46.94c-0.09,1.79-1.26,3.34-2.96,3.91l-48.53,16.25
				l-2.84,22.27c-0.21,1.64-1.33,3.02-2.9,3.56l-77.17,26.57C497.65,550.39,497.17,550.47,496.7,550.47z"/>
		</g>
		<g>
			<polygon class="st12" points="520.03,469.77 524.32,513.58 497.3,542.48 487.46,505.72 501.2,468.1 			"/>
		</g>
		<g>
			<path class="st1" d="M497.3,546.83c-0.35,0-0.7-0.04-1.05-0.13c-1.53-0.38-2.74-1.57-3.14-3.09l-9.84-36.76
				c-0.23-0.86-0.19-1.78,0.11-2.61l13.73-37.63c0.68-1.85,2.5-3.01,4.47-2.84l18.83,1.68c2.08,0.19,3.74,1.83,3.94,3.91l4.29,43.8
				c0.12,1.24-0.3,2.48-1.15,3.39l-27.02,28.9C499.65,546.34,498.49,546.83,497.3,546.83z M492.02,505.92l7.46,27.87l20.33-21.75
				l-3.75-38.26l-11.92-1.06L492.02,505.92z"/>
		</g>
		<g>
			<path class="st1" d="M532.29,488.24c-1.33,0-2.63-0.61-3.48-1.74l-11.29-15.02c-1.44-1.92-1.06-4.64,0.86-6.09
				c1.92-1.44,4.64-1.06,6.09,0.86l9.08,12.08l36.02-18.63c2.13-1.1,4.76-0.27,5.86,1.86c1.1,2.13,0.27,4.76-1.86,5.86l-39.28,20.31
				C533.65,488.08,532.96,488.24,532.29,488.24z"/>
		</g>
		<g>
			<path class="st1" d="M489.74,480.92c-1.16,0-2.31-0.47-3.16-1.36l-14.07-14.89c-1.65-1.75-1.57-4.5,0.17-6.14
				c1.75-1.65,4.5-1.57,6.14,0.17l11.64,12.32l7.78-4.81c2.04-1.26,4.72-0.63,5.98,1.41s0.63,4.72-1.41,5.98l-10.8,6.67
				C491.32,480.7,490.53,480.92,489.74,480.92z"/>
		</g>
		<g>
			
				<ellipse transform="matrix(0.3162 -0.9487 0.9487 0.3162 -189.8097 871.3082)" class="st1" cx="509.54" cy="567.33" rx="6.8" ry="6.8"/>
		</g>
		<g>
			
				<ellipse transform="matrix(0.1602 -0.9871 0.9871 0.1602 -168.1765 1010.0876)" class="st1" cx="509.52" cy="603.88" rx="6.8" ry="6.8"/>
		</g>
		<g>
			
				<ellipse transform="matrix(0.1602 -0.9871 0.9871 0.1602 -204.4915 1042.9244)" class="st1" cx="510.66" cy="641.64" rx="6.8" ry="6.8"/>
		</g>
	</g>
</g>
</svg>
