<?xml version="1.0" encoding="utf-8"?>
<!-- Generator: Adobe Illustrator 25.0.0, SVG Export Plug-In . SVG Version: 6.00 Build 0)  -->
<svg version="1.1" id="Layer_1" xmlns="http://www.w3.org/2000/svg" xmlns:xlink="http://www.w3.org/1999/xlink" x="0px" y="0px"
	 viewBox="0 0 1000 1000" style="enable-background:new 0 0 1000 1000;" xml:space="preserve">
<style type="text/css">
	.st0{fill:#0DAEFF;}
	.st1{fill:#68DD50;}
	.st2{fill:#1E6021;}
	.st3{opacity:0.6;}
	.st4{fill:#FFFFFF;}
	.st5{fill:#371A45;}
	.st6{opacity:0.2;}
	.st7{fill:url(#SVGID_1_);}
	.st8{fill:#220F2D;}
	.st9{opacity:0.5;}
</style>
<g>
	<g>
		<g>
			<g>
				<ellipse class="st0" cx="682.36" cy="189.34" rx="149.48" ry="145.48"/>
			</g>
			<g>
				<path class="st1" d="M602.63,85.32c2.62,5.27,2.57,11.46,1.84,17.29c-0.73,5.84-2.08,11.65-1.87,17.52
					c0.04,1.22,0.17,2.47,0.75,3.54c1.65,3.05,5.86,3.19,9.32,3.39c9.64,0.56,19.31,5.09,24.65,13.13c0.63,0.95,1.21,2.08,0.9,3.17
					c-0.23,0.81-0.91,1.4-1.59,1.89c-3.03,2.19-6.66,3.36-9.86,5.29s-6.13,5.02-6.18,8.76c-0.05,3.59,2.55,6.75,2.77,10.33
					c0.55,8.91-12.6,12.71-14.79,21.36c-1.4,5.55,2.43,11.32,7.38,14.19c4.95,2.88,10.81,3.6,16.45,4.63
					c6.34,1.16,12.6,2.77,18.72,4.83c4.78,1.61,9.69,3.63,12.91,7.52c6.17,7.42,4.06,18.31,4.18,27.96
					c0.03,2.03,0.18,4.12,1.06,5.95c0.97,2.03,2.72,3.56,4.31,5.15c6.17,6.19,10.54,15.25,8.06,23.63
					c-1.04,3.52-3.2,6.62-4.44,10.08c-5.34,14.93,4.82,28.65,9.99,41.83c-11.4,1.81-23.2-2.02-32.63-8.68
					c-9.43-6.66-16.71-15.94-22.79-25.75c-2.49-4.02-4.85-8.21-8.31-11.42c-2.45-2.28-5.42-4.02-7.5-6.64
					c-3.51-4.39-3.95-10.42-4.01-16.04c-0.09-8.64,0.4-17.28,1.44-25.85c0.31-2.58,0.66-5.28-0.3-7.69
					c-1.85-4.62-7.49-6.17-11.35-9.31c-5.57-4.54-8.87-13.41-16.06-13.33c-9.66,0.12-11.17,15.88-20.25,19.2
					c-5.12,1.87-10.64-0.95-15.36-3.68c-3-1.74-6-3.48-9-5.21c-2.06-1.19-4.17-2.43-5.67-4.28c-1.72-2.12-2.47-4.84-3.04-7.51
					c-6.47-30.41,6.04-61.3,18.29-89.88c2.49-5.8,4.99-11.63,8.36-16.97C565.92,92.81,592.24,64.4,602.63,85.32z"/>
				<path class="st2" d="M681.52,342.05c-10.01,0-20.56-3.5-29.77-10c-8.71-6.15-16.6-15.04-24.11-27.16l-0.91-1.48
					c-2.07-3.38-4.02-6.57-6.58-8.94c-0.77-0.72-1.66-1.41-2.6-2.15c-1.75-1.38-3.74-2.94-5.4-5.02c-4.34-5.43-5-12.35-5.06-19.01
					c-0.09-8.81,0.41-17.72,1.48-26.48c0.25-2.07,0.5-4.08,0.01-5.3c-0.62-1.54-2.67-2.75-5.06-4.15c-1.61-0.95-3.28-1.92-4.85-3.21
					c-2.31-1.88-4.13-4.17-5.89-6.38c-2.92-3.66-4.91-5.92-7.05-5.86c-2.37,0.03-4.19,2.71-6.91,7.12
					c-2.8,4.54-5.97,9.68-11.73,11.79c-7.65,2.8-15.33-1.64-19.46-4.03l-9-5.21c-2.19-1.27-4.92-2.85-7-5.42
					c-2.36-2.92-3.33-6.31-4.01-9.55c-6.5-30.57,4.57-60.11,18.58-92.8c2.52-5.89,5.14-11.98,8.72-17.65
					c5.77-9.13,23.33-28.9,38.02-28.14c4.21,0.22,10.06,2.15,14.03,10.16c3.45,6.93,2.97,14.76,2.31,20.05
					c-0.21,1.71-0.48,3.43-0.74,5.14c-0.63,4.05-1.22,7.87-1.09,11.61c0.04,1.03,0.13,1.34,0.17,1.42c0.57,0.57,3.66,0.75,4.98,0.82
					l0.35,0.02c11.9,0.69,22.52,6.4,28.41,15.3c0.62,0.93,2.5,3.77,1.52,7.19c-0.66,2.29-2.26,3.65-3.41,4.49
					c-2.1,1.52-4.29,2.56-6.41,3.56c-1.36,0.65-2.65,1.26-3.8,1.95c-2.31,1.39-3.82,3.22-3.84,4.67c-0.01,0.92,0.5,2.2,1.04,3.56
					c0.74,1.84,1.57,3.93,1.72,6.41c0.44,7.18-4.72,11.79-8.87,15.49c-2.79,2.49-5.42,4.84-6.06,7.36
					c-0.84,3.31,2.01,7.01,5.12,8.81c3.56,2.07,7.97,2.84,12.65,3.65c0.75,0.13,1.5,0.26,2.24,0.4c6.55,1.19,13.07,2.88,19.39,5
					c5.48,1.84,11.11,4.21,15.1,9.01c6.04,7.27,5.71,16.68,5.42,24.97c-0.07,2.1-0.14,4.09-0.12,6.02c0.02,1.37,0.1,2.91,0.58,3.93
					c0.45,0.95,1.5,1.97,2.6,3.06l0.77,0.76c6.6,6.62,12.5,17.56,9.28,28.44c-0.69,2.34-1.71,4.36-2.69,6.31
					c-0.71,1.4-1.37,2.73-1.83,4.02c-3.45,9.64,1.02,19.06,5.74,29.04c1.45,3.07,2.96,6.24,4.19,9.39c0.54,1.37,0.42,2.9-0.31,4.18
					c-0.73,1.27-2,2.15-3.45,2.38C685.84,341.88,683.69,342.04,681.52,342.05z M585.78,207.21c7,0,11.2,5.27,14.58,9.52
					c1.51,1.89,2.93,3.68,4.43,4.9c1,0.81,2.28,1.56,3.63,2.36c3.26,1.91,7.31,4.29,9.15,8.92c1.41,3.53,0.97,7.09,0.62,9.96
					c-1.03,8.46-1.51,16.94-1.42,25.33c0.06,5.7,0.58,10.1,2.95,13.06c0.96,1.2,2.34,2.29,3.81,3.44c1.05,0.83,2.14,1.68,3.2,2.67
					c3.53,3.28,5.93,7.19,8.25,10.98l0.88,1.44c6.91,11.15,13.73,18.88,21.46,24.35c7.09,5.01,15.05,7.85,22.6,8.19
					c-0.39-0.84-0.8-1.69-1.21-2.56c-5.12-10.79-10.92-23.03-6.11-36.46c0.66-1.85,1.5-3.51,2.3-5.11c0.83-1.65,1.61-3.21,2.06-4.71
					c2.02-6.8-2.21-14.18-6.84-18.83l-0.69-0.68c-1.58-1.55-3.37-3.31-4.57-5.81c-1.29-2.71-1.5-5.55-1.53-7.98
					c-0.03-2.16,0.05-4.36,0.12-6.48c0.25-7.21,0.49-14.01-3.19-18.44c-2.44-2.94-6.6-4.63-10.73-6.02
					c-5.88-1.98-11.95-3.54-18.04-4.65c-0.72-0.13-1.44-0.26-2.16-0.38c-5.3-0.93-10.79-1.88-15.85-4.82
					c-6.13-3.56-11.77-11.21-9.65-19.58c1.37-5.4,5.42-9.02,9-12.22c3.61-3.22,5.79-5.34,5.65-7.66c-0.06-0.92-0.54-2.13-1.05-3.4
					c-0.79-1.98-1.77-4.44-1.73-7.29c0.07-4.94,3.18-9.63,8.54-12.85c1.56-0.94,3.12-1.68,4.64-2.4c1.35-0.64,2.65-1.26,3.79-1.95
					c-4.29-5.8-11.96-9.66-20.3-10.14l-0.34-0.02c-4.02-0.23-10.08-0.57-12.96-5.91c-1.06-1.95-1.26-3.96-1.33-5.67
					c-0.17-4.67,0.53-9.13,1.2-13.45c0.25-1.62,0.5-3.23,0.7-4.85c0.8-6.42,0.36-11.04-1.37-14.54l0,0
					c-2.05-4.13-4.32-4.71-5.84-4.79c-9.05-0.44-24.1,15.37-29.32,23.64c-3.17,5.02-5.63,10.75-8,16.29
					c-13.35,31.14-23.91,59.18-18.01,86.96c0.44,2.06,0.99,4.14,2.06,5.46c0.95,1.18,2.67,2.17,4.33,3.13l9,5.21
					c3.81,2.21,8.14,4.47,11.26,3.32c2.6-0.95,4.65-4.27,6.81-7.77c3.2-5.18,7.17-11.63,15.05-11.73
					C585.67,207.21,585.73,207.21,585.78,207.21z M633.55,143.34h0.02H633.55z"/>
			</g>
			<g>
				<path class="st1" d="M647.68,86.18c8.45,3.85,17.86,6.93,23.59,14.23c2.08,2.65,3.59,5.77,6,8.13c1.99,1.94,5.49,3.16,7.37,1.11
					c2.06-2.25,0.12-6.07,1.36-8.86c1.39-3.11,5.72-3.26,9.06-2.64c3.35,0.62,7.35,1.33,9.7-1.13c0.9-0.94,1.36-2.21,1.83-3.43
					c3.97-10.49,10.67-21.52,21.63-23.89c8.38-1.81,16.8,1.99,25.11,4.1c1.81,0.46,3.77,0.84,5.52,0.19
					c1.76-0.65,3.12-2.7,2.36-4.42c-0.4-0.9-1.26-1.5-2.07-2.05c-8.3-5.57-16.7-11.19-26.09-14.59c-7.89-2.86-16.27-4.08-24.59-5.12
					c-8.22-1.03-16.46-1.9-24.71-2.61c-13.87-1.2-40.29-4.15-51.25,7.17C620.2,65.08,636.4,81.05,647.68,86.18z"/>
				<path class="st2" d="M682.09,115.56c-2.86,0-5.91-1.31-8.2-3.55c-1.86-1.82-3.23-3.9-4.44-5.73c-0.68-1.03-1.32-2.01-2-2.87
					c-4.01-5.1-10.49-7.9-17.36-10.87c-1.49-0.64-2.97-1.28-4.42-1.95l0,0C638,87.1,625.8,77.67,623.59,66.02
					c-1.18-6.24,0.7-12.13,5.43-17.01c12.06-12.44,37.76-10.16,53.12-8.8l2.03,0.18c8.28,0.72,16.66,1.6,24.89,2.63
					c8.36,1.04,17.23,2.32,25.64,5.37c10,3.62,18.71,9.47,27.14,15.12c1.06,0.71,2.83,1.9,3.81,4.12c0.84,1.91,0.83,4.06-0.01,6.06
					c-0.94,2.21-2.85,4.03-5.11,4.86c-2.97,1.09-5.91,0.59-8.4-0.04c-2-0.51-3.99-1.1-5.91-1.68c-6.04-1.81-11.74-3.52-16.99-2.38
					c-9.19,1.99-14.92,12.44-18.12,20.87c-0.56,1.48-1.29,3.41-2.85,5.05c-4.18,4.4-10.39,3.25-14.09,2.56
					c-1.97-0.37-3.29-0.18-3.78,0c-0.03,0.38,0.01,1.16,0.04,1.71c0.12,2.21,0.29,5.54-2.23,8.29c-1.5,1.63-3.58,2.57-5.87,2.63
					C682.26,115.56,682.18,115.56,682.09,115.56z M649.69,81.77c1.4,0.64,2.82,1.25,4.25,1.87c7.68,3.32,15.62,6.74,21.14,13.78
					c0.93,1.18,1.71,2.38,2.47,3.53c1.02,1.56,1.99,3.03,3.1,4.11c0.04,0.03,0.07,0.07,0.11,0.1c0-0.01,0-0.01,0-0.02
					c-0.09-1.7-0.21-4.03,0.82-6.34c2.09-4.68,7.46-6.7,14.37-5.42c3.14,0.58,4.93,0.68,5.3,0.29c0.21-0.22,0.55-1.12,0.77-1.72
					c5.92-15.6,14.37-24.66,25.17-26.99c7.69-1.66,14.87,0.49,21.82,2.57c0.85,0.26,1.69,0.51,2.51,0.74
					c-6.42-4.21-13.06-8.22-20.12-10.78c-7.47-2.71-15.73-3.89-23.54-4.86c-8.11-1.01-16.37-1.89-24.53-2.59l-2.05-0.18
					c-12.74-1.13-36.46-3.23-45.3,5.89c-2.55,2.63-3.46,5.32-2.87,8.46C634.42,71.08,642.56,78.52,649.69,81.77L649.69,81.77z"/>
			</g>
			<g>
				<path class="st1" d="M779.78,96.29c-3.57,3.37-8.95,4.04-12.9,6.96c-7.09,5.24-7.78,16.19-14.68,21.68
					c-6.44,5.12-17.05,4.46-21.4,11.45c-1.48,2.38-1.91,5.27-1.98,8.07c-0.16,5.95,1.46,12.45,6.24,16
					c8.92,6.61,23.03-0.5,32.14,5.85c4.02,2.8,6.08,7.69,6.92,12.52c1.05,6.1,0.16,13.04-4.36,17.26c-3.67,3.43-8.92,4.39-13.79,5.6
					c-5.49,1.36-11.02,3.28-15.3,6.98c-4.29,3.7-7.13,9.49-6.01,15.04c1.59,7.91,9.98,12.27,14.72,18.81
					c10.42,14.35,1.33,35,6.52,51.96c1.39,4.55,4.38,9.19,9.04,10.12c5.29,1.06,10.1-2.99,13.98-6.73
					c9.82-9.48,19.64-18.95,29.46-28.43c2.08-2.01,4.32-4.41,4.14-7.29c-0.19-3.05-2.97-5.17-5.3-7.15
					c-7.32-6.23-12.44-16.01-10.37-25.4c1.46-6.61,6.22-12.18,7.4-18.85c1.33-7.49-2.05-14.92-5.21-21.85
					c-0.95-2.08-1.9-4.39-1.24-6.57c1.07-3.55,5.71-4.59,9.35-3.9c3.64,0.69,7.14,2.48,10.84,2.21c6.26-0.45,10.69-6.84,11.41-13.08
					c0.71-6.24-1.28-12.42-2.74-18.53c-1.54-6.42-2.51-12.99-4.63-19.24c-4.12-12.13-12.32-22.23-21.43-31.02
					c-2.56-2.47-10.81-12.39-14.35-12.46C781.39,86.19,783.41,92.86,779.78,96.29z"/>
				<path class="st2" d="M766.66,309.59c-0.87,0-1.76-0.08-2.67-0.26c-5.83-1.16-10.47-6.07-12.73-13.46
					c-2.44-7.98-2.06-16.33-1.68-24.41c0.46-9.89,0.89-19.22-4.12-26.12c-1.45-1.99-3.4-3.85-5.47-5.81
					c-4.1-3.9-8.76-8.32-10.08-14.88c-1.39-6.89,1.52-14.43,7.59-19.67c5.38-4.64,12.07-6.72,17.31-8.02l1.56-0.38
					c3.98-0.96,7.73-1.86,10.09-4.06c2.76-2.58,3.84-7.39,2.89-12.89c-0.43-2.52-1.65-7.09-4.91-9.36c-3.2-2.23-8-2.1-13.07-1.96
					c-6.25,0.17-13.34,0.37-19.19-3.97c-5.44-4.04-8.43-11.33-8.2-20.02c0.07-2.76,0.44-6.85,2.72-10.51
					c3.44-5.52,9.24-7.41,14.36-9.07c3.13-1.02,6.09-1.98,8.14-3.61c2.51-1.99,4.11-5.39,5.8-8.99c2.07-4.4,4.42-9.4,9.01-12.79
					c2.26-1.67,4.76-2.7,6.96-3.62c2.16-0.89,4.19-1.73,5.5-2.97l0,0c0.53-0.5,0.85-1.81,1.17-3.07c0.62-2.48,2.05-8.26,8.5-8.26
					c0.07,0,0.14,0,0.22,0c4.11,0.08,8.25,3.78,15.44,11.53c0.91,0.98,1.67,1.8,2.18,2.29c11.64,11.23,18.83,21.7,22.65,32.95
					c1.52,4.47,2.47,9.03,3.39,13.44c0.43,2.08,0.87,4.16,1.36,6.23c0.23,0.95,0.47,1.91,0.71,2.86c1.39,5.52,2.83,11.22,2.13,17.35
					c-0.91,7.93-6.78,16.71-15.87,17.37c-3.28,0.24-6.21-0.64-8.79-1.41c-1.17-0.35-2.27-0.68-3.3-0.88
					c-1.96-0.37-3.57,0.23-3.81,0.55c-0.11,0.36,0.23,1.42,1.02,3.14c3.36,7.36,7.17,15.7,5.57,24.71
					c-0.74,4.15-2.5,7.69-4.21,11.11c-1.37,2.75-2.66,5.34-3.24,7.94c-1.81,8.2,3.6,16.26,8.77,20.66l0.5,0.42
					c2.62,2.21,6.2,5.22,6.5,10.12c0.34,5.34-3.53,9.08-5.61,11.08l-29.46,28.43C779.4,304.12,773.73,309.59,766.66,309.59z
					 M754.92,158.54c5.08,0,10.42,0.54,15.06,3.77c5.84,4.07,8.07,10.77,8.92,15.67c1.53,8.86-0.6,16.74-5.83,21.63
					c-4.22,3.94-9.65,5.25-14.44,6.4l-1.5,0.36c-4.18,1.03-9.48,2.65-13.3,5.94c-3.32,2.87-5.1,7.05-4.42,10.41
					c0.72,3.56,3.74,6.44,7.25,9.77c2.29,2.18,4.67,4.44,6.64,7.15c7.01,9.65,6.47,21.15,5.96,32.27
					c-0.35,7.58-0.68,14.75,1.27,21.12c0.9,2.94,2.78,6.27,5.36,6.78c2.9,0.58,6.53-2.44,9.67-5.47l29.46-28.43
					c2.25-2.17,2.69-3.1,2.67-3.5c-0.05-0.76-1.94-2.36-3.08-3.32l-0.53-0.45c-9.52-8.1-14.21-19.93-11.96-30.14
					c0.83-3.76,2.45-7.02,4.02-10.17c1.46-2.93,2.85-5.71,3.34-8.48c1.07-6.03-1.94-12.62-4.84-18.99c-0.94-2.07-2.7-5.92-1.47-9.99
					c1.9-6.26,8.94-8.39,14.89-7.26c1.52,0.29,2.92,0.71,4.28,1.11c2.04,0.61,3.8,1.14,5.3,1.03c3.7-0.27,6.48-4.78,6.94-8.8
					c0.5-4.37-0.67-8.98-1.9-13.87c-0.25-0.99-0.5-1.99-0.74-2.98c-0.52-2.16-0.97-4.33-1.43-6.5c-0.9-4.31-1.75-8.39-3.08-12.3
					c-3.3-9.72-9.72-18.97-20.2-29.09c-0.65-0.63-1.49-1.53-2.55-2.67c-1.58-1.7-5.24-5.65-7.63-7.55V92
					c-0.56,2.25-1.32,5.33-3.92,7.79l0,0c-2.61,2.46-5.71,3.74-8.44,4.88c-1.85,0.77-3.6,1.49-4.9,2.45c-2.62,1.94-4.26,5.43-6,9.12
					c-2,4.24-4.26,9.05-8.54,12.45c-3.42,2.72-7.54,4.06-11.18,5.24c-4.05,1.32-7.55,2.45-9.12,4.97c-0.79,1.26-1.18,3.05-1.25,5.64
					c-0.14,5.4,1.46,9.88,4.28,11.97c3.16,2.34,8.01,2.21,13.14,2.07C752.35,158.58,753.63,158.54,754.92,158.54z M779.78,96.29
					h0.01H779.78z M785.52,91.04L785.52,91.04L785.52,91.04z"/>
			</g>
			<g class="st3">
				<path class="st4" d="M537.7,206.82c0-80.35,66.92-145.48,149.48-145.48c65.95,0,121.88,41.58,141.73,99.26
					C815.2,94.03,754.8,43.87,682.36,43.87c-82.56,0-149.48,65.13-149.48,145.48c0,16.16,2.75,31.69,7.75,46.22
					C538.72,226.27,537.7,216.66,537.7,206.82z"/>
			</g>
			<g>
				<path class="st5" d="M682.36,342.9c-86.88,0-157.56-68.89-157.56-153.56S595.48,35.78,682.36,35.78s157.56,68.89,157.56,153.56
					S769.24,342.9,682.36,342.9z M682.36,51.95c-77.97,0-141.4,61.64-141.4,137.4s63.43,137.4,141.4,137.4s141.4-61.64,141.4-137.4
					S760.33,51.95,682.36,51.95z"/>
			</g>
			<g class="st6">
				<path class="st5" d="M682.36,274.81c-71.98,0-132.07-49.53-146.28-115.47c-2.09,9.68-3.2,19.72-3.2,30.01
					c0,80.35,66.92,145.48,149.48,145.48c82.55,0,149.48-65.13,149.48-145.48c0-10.29-1.11-20.32-3.2-30.01
					C814.43,225.28,754.34,274.81,682.36,274.81z"/>
			</g>
			<g class="st3">
				
					<ellipse transform="matrix(0.4175 -0.9087 0.9087 0.4175 333.9326 742.3215)" class="st4" cx="745.96" cy="110.7" rx="13.76" ry="33.18"/>
			</g>
		</g>
		<g>
			<path class="st4" d="M868.58,271.2c-20.07,32.89-50.6,51.99-88.88,55.83c-5.3,0.47-6.38-7.23-1.11-8.2
				c16.52-2.56,32.7-7.99,46.41-17.5c13.68-9.36,24.36-22.32,32.47-36.75C861.99,257.15,872.98,263.62,868.58,271.2L868.58,271.2z"
				/>
		</g>
		<g>
			<path class="st4" d="M861.92,234.82c-3.41,9.61-7.16,19.42-12.56,28.66c-5.37,9.28-12.73,17.82-21.89,23.6
				c-2,1.28-4.67,0.69-5.95-1.31c-1.23-1.92-0.73-4.46,1.08-5.78c3.73-2.78,7.04-6.05,9.9-9.7c2.87-3.65,5.29-7.68,7.38-11.93
				c4.19-8.51,7.05-17.84,9.69-27.41C852.22,222.5,864.59,226.35,861.92,234.82L861.92,234.82z"/>
		</g>
		<g>
			<path class="st4" d="M511.38,169.11c2.04,17.24,8.37,33.74,20.96,45.92c12.63,12.43,29.58,19.84,46.38,25.45
				c1.74,0.58,2.68,2.46,2.1,4.2c-0.56,1.68-2.33,2.61-4.02,2.16c-9.03-2.45-17.99-5.37-26.67-9.27
				c-28.88-12.52-46.28-35.52-51.53-66.48C497.31,162.41,509.97,160.41,511.38,169.11L511.38,169.11z"/>
		</g>
		<g>
			<path class="st4" d="M524.96,247.08c9.1,9.27,18.37,18.01,29.14,23.92c5.36,2.96,11.07,5.17,17.04,6.51
				c5.98,1.35,12.21,1.82,18.48,1.59c2.44-0.09,4.5,1.83,4.58,4.27c0.08,2.36-1.71,4.36-4.04,4.57c-6.9,0.6-13.96,0.46-20.92-0.74
				c-20.87-3.31-38.31-16.86-53.26-30.82C509.72,250.26,518.58,241.03,524.96,247.08L524.96,247.08z"/>
		</g>
	</g>
	<g>
		<g>
			
				<linearGradient id="SVGID_1_" gradientUnits="userSpaceOnUse" x1="136.8574" y1="346.0569" x2="756.522" y2="346.0569" gradientTransform="matrix(1 0 0 -1 0 1000)">
				<stop  offset="0" style="stop-color:#E1641E"/>
				<stop  offset="1.065558e-08" style="stop-color:#E76518"/>
				<stop  offset="0.1768" style="stop-color:#E04C2D"/>
				<stop  offset="0.3045" style="stop-color:#DC3F38"/>
				<stop  offset="0.5674" style="stop-color:#934E5A"/>
				<stop  offset="0.8525" style="stop-color:#475E7E"/>
			</linearGradient>
			<path class="st7" d="M756.31,450.65c-2.44,18.98-8.84,36.58-18.02,53.24c-36.22,111.43-89.95,150-156.65,134.48l24.38,58.04
				c80.42-16.68,102.96,28.9,94.96,162.67c11.15,8.31,20.98,20.61,21.13,34.03c0.06,7.03-2.96,13.4-7.84,17.91
				c-3.81,3.51-8.76,5.88-14.22,6.51c-58.14,6.79-107.17,5.75-110.19-24.91l-4.07,1.1l-4.99,1.36l-3.85,1.03l-2.41,0.66l-4.07,1.1
				c3.64,44.05-45.03,63.35-90.52,38.39l-58.47,15.36c-62.99,16.65-116.49-1.99-128.25-40.78c-7.65-25.25,2.39-59.01,38.97-97.15
				l-14.71-26.41c-6.55,27.95-13.74,52.31-21.79,71.87c-14.82,36.01-32.57,55.75-54.59,51.66c-4.11-0.78-8.37-0.02-12.03,2.02
				c-14.29,8-28.24,7.11-33.86,0.87c-2.28-2.54-3.2-5.96-2.2-10.04h-43.71c-3.38,0-6.74-0.92-9.42-2.97
				c-4.3-3.28-4.2-7.5,1.41-12.92c17.96-12.2,33.18-25.43,44.39-40.15c7.26-9.54,12.01-20.75,14.24-32.52
				c19.2-101.28,34.22-179.37,61.18-229.37c16.65-30.92,37.86-51.11,67.44-59.37l145.2-33.27c15.66,1.49,32.05,3.86,49.15,7.1
				c27.9,5.27,57.69,12.82,89.31,22.55l40.41-63.83c-12.59-30.03-1.7-46.89,18.86-58.34c-5.38-74.5,36.09-59.95,35.56,1.47
				c14.03-5.35,29.24,3.57,46.1,32.64C755.94,439.51,757.02,445.12,756.31,450.65z"/>
		</g>
		<g class="st6">
			<g>
				<path d="M675.17,361.26c8.54-3.26,17.52-1.21,27.04,7.43c-7.13-20.14-20.32-25.03-27.04-8.74
					C675.17,360.39,675.18,360.82,675.17,361.26z"/>
			</g>
			<g>
				<path class="st5" d="M753.14,434.69c-10.16-17.51-19.72-27.7-28.78-31.87c0.34,2.32,0.39,4.68,0.08,7.03
					c-2.45,18.97-8.84,36.59-18.02,53.25c-12.97,69.86-51.96,123.12-102.02,133.88c-10.39,2.24-24.59,3.35-42.18-0.61
					c8.56,18.99,17.13,37.97,25.69,56.96l0,0l0,0l-6.27-14.94c66.7,15.51,120.42-23.06,156.65-134.49
					c9.18-16.66,15.57-34.27,18.02-53.25C757.03,445.13,755.93,439.51,753.14,434.69z"/>
			</g>
		</g>
		<g class="st6">
			<path class="st5" d="M522.9,500.21c-4.38,9.78-9.67,19.28-15.87,28.37c-3.7,5.41-7.71,10.67-12.04,15.74
				c-2.1,2.47-4.32,4.9-6.58,7.32c-6.87,7.23-14.18,13.79-21.87,19.67c-6.63,5.08-13.53,9.65-20.64,13.72
				c-8.6,4.93-17.51,9.12-26.65,12.58c-3.33,1.24-6.69,2.39-10.07,3.46c-48.69,15.26-102.61,10.31-148.06-15.32
				c16.65-30.92,37.86-51.11,67.44-59.37l145.2-33.27C489.41,494.6,505.8,496.97,522.9,500.21z"/>
		</g>
		<g class="st6">
			<g>
				<path class="st4" d="M335.09,768.24l-18.01,5.2c-1.07-12.66-3.93-27.19-7.82-42.79l13.82-3.99L335.09,768.24z"/>
			</g>
			<g>
				<path class="st4" d="M563.24,702.34l30.53-8.82c5.03-1.45,7.86-6.37,6.12-10.6l-8.19-19.84c-2.93-7.09-11.59-10.64-20.01-8.21
					l-20.45,5.91L563.24,702.34z"/>
			</g>
			<g>
				<path class="st4" d="M320.5,717.73l21.3,73.75c4.21,14.56,21.13,22.47,37.8,17.65l167.79-48.46
					c16.67-4.81,26.77-20.52,22.57-35.09l-21.3-73.75c-4.21-14.56-21.13-22.47-37.8-17.65l-167.79,48.46
					C326.4,687.46,316.29,703.17,320.5,717.73z"/>
			</g>
		</g>
		<g class="st6">
			<path class="st5" d="M314.87,778.49c-5.04,26.33-11.36,53.2-19.17,80.67c-14.82,36.01-32.57,55.75-54.59,51.66
				c-4.11-0.78-8.37-0.02-12.03,2.02c-14.29,8-28.24,7.11-33.86,0.87c61.07-48.49,93.41-123.17,95.46-225.39L314.87,778.49z"/>
		</g>
		<g class="st6">
			<path class="st5" d="M588.48,778.15c-0.36,2.35-0.66,4.75-0.99,7.13c-12.16,56.95-119.75,3.43-175.16,50.57
				c55.74-17.41,100.23-10.39,133.34,21.54c-73.94-3.88-126.83,89.49-252.44,53.46c11.75,38.79,65.25,57.43,128.25,40.78
				l58.47-15.36c45.49,24.96,94.16,5.66,90.52-38.39l4.07-1.1l6.26-1.7l0,0l4.99-1.36l4.07-1.1c3.02,30.66,52.05,31.7,110.19,24.91
				c5.46-0.63,10.41-3.01,14.22-6.51C641.74,894.58,591.42,858.16,588.48,778.15z"/>
		</g>
		<g>
			<path class="st5" d="M376.52,964.22c-37.9,0-69.15-13.64-83.77-38.46c-5.66-9.61-8.43-20.23-8.39-31.54
				c-11.92,16.6-26.48,26.29-44.43,22.95c-2.59-0.48-5.31-0.02-7.69,1.31c-14.39,8.05-30.18,8.79-39.32,1.85
				c-3.5-2.66-5.69-6.18-6.46-10.18h-37.14c-5.05,0-9.67-1.49-13.35-4.31c-4.32-3.3-5.4-7.07-5.55-9.64
				c-0.25-4.4,1.84-8.67,6.4-13.07c0.26-0.26,0.55-0.49,0.85-0.69c18.68-12.69,32.7-25.36,42.87-38.72
				c6.43-8.45,10.94-18.76,13.04-29.82c30.92-163.1,51.34-270.86,133.23-293.76c0.1-0.03,0.2-0.05,0.3-0.08l145.19-33.25
				c0.67-0.15,1.37-0.2,2.06-0.13c39.75,3.79,85.16,13.35,135.03,28.45l36.01-56.88c-10.15-26.75-3.79-46.83,19.39-61.22
				c-1.39-26.62,3.21-44.65,13.09-50.96c4.75-3.03,10.43-3.13,15.59-0.28c11.19,6.19,18.68,24.74,19.88,48.35
				c15.31-0.83,30.52,11.67,45.39,37.3c3.47,5.98,4.89,13.09,4,20.02c-2.41,18.69-8.46,36.69-18.48,55
				c-17.98,55.07-41.11,94.52-68.75,117.26c-24.06,19.79-52.01,27.57-83.25,23.2l17.7,42.15c30.86-5.56,52.78-1.68,68.69,12.08
				c25.18,21.77,33.89,68.19,29,154.92c13.22,10.77,20.8,24.09,20.94,36.97c0.17,15.76-11.78,29.05-27.79,30.92
				c-56.88,6.64-89.53,3.74-105.88-9.43c-4.74-3.82-8.06-8.47-9.91-13.89l-7.89,2.14c-0.13,17.41-8.02,32.33-22.13,41.49
				c-20.3,13.17-49.16,12.7-75.84-1.1l-56.01,14.71C406.98,962.16,391.25,964.22,376.52,964.22z M317.49,780.84
				c2.32,0,4.49,1.25,5.65,3.32l14.71,26.4c1.38,2.48,0.98,5.57-0.98,7.62c-36.41,37.95-48.43,74.77-32.97,101.02
				c17.05,28.95,64.73,39.72,115.93,26.19l58.47-15.36c1.6-0.42,3.3-0.21,4.75,0.59c22.79,12.5,48.26,13.61,64.89,2.82
				c11.61-7.53,17.32-19.97,16.08-35.01c-0.26-3.11,1.74-5.96,4.75-6.77l19.4-5.25c1.84-0.5,3.8-0.16,5.36,0.92
				c1.56,1.08,2.58,2.79,2.76,4.69c0.51,5.15,2.71,9.22,6.73,12.46c19.42,15.64,77.26,8.88,96.27,6.66
				c9.27-1.08,16.45-8.96,16.36-17.94c-0.1-9.54-7.03-20.35-18.52-28.9c-1.75-1.3-2.72-3.4-2.59-5.57
				c4.98-83.33-2.53-128.9-24.35-147.77c-13.5-11.68-33.47-14.28-62.85-8.18c-3.03,0.62-6.08-0.98-7.28-3.83l-24.37-58.05
				c-0.94-2.24-0.55-4.82,1.02-6.67c1.56-1.86,4.04-2.68,6.41-2.13c66.76,15.52,115.5-27.06,149.04-130.19
				c0.13-0.39,0.29-0.76,0.49-1.12c9.4-17.05,15.05-33.72,17.27-50.95c0.53-4.13-0.31-8.35-2.36-11.88
				c-14-24.13-26.86-34.16-38.2-29.83c-2,0.76-4.24,0.49-5.99-0.73c-1.75-1.22-2.79-3.23-2.77-5.36
				c0.24-27.18-8.08-41.96-13.38-44.89c-1.39-0.77-1.93-0.42-2.36-0.14c-3.56,2.27-9.02,13.93-6.9,43.16
				c0.18,2.51-1.11,4.89-3.3,6.12c-21.08,11.73-25.88,26.74-16.04,50.18c0.82,1.95,0.63,4.17-0.5,5.96l-40.41,63.83
				c-1.56,2.47-4.58,3.57-7.37,2.72c-50.46-15.54-96.26-25.38-136.15-29.28l-144.02,32.99c-74.04,20.84-93.87,125.42-123.86,283.68
				c-2.47,13.02-7.81,25.2-15.45,35.24c-10.94,14.37-25.8,27.87-45.41,41.25c-1.21,1.21-1.73,2.04-1.95,2.47
				c0.09,0.08,0.2,0.18,0.35,0.29c1.39,1.06,3.34,1.65,5.5,1.65h43.71c1.98,0,3.86,0.91,5.08,2.47c1.23,1.56,1.67,3.6,1.2,5.53
				c-0.67,2.77,0.35,3.99,1.44,4.82c4.13,3.14,14.36,3.21,25.18-2.84c5.01-2.8,10.82-3.78,16.37-2.74
				c26.13,4.88,49.31-35.04,68.89-118.63c0.61-2.6,2.75-4.56,5.4-4.93C316.89,780.86,317.19,780.84,317.49,780.84z M319.86,804.84
				c-1.58,6.21-3.28,12.53-5.1,18.82c2.95-3.64,6.12-7.29,9.49-10.95L319.86,804.84z"/>
		</g>
		<g>
			<path class="st5" d="M564.37,900.07c-14.28-38.81-39.91-63.52-82.37-66.2c-28.9-1.99-58.81,4.5-86.91,12.31
				c-9.55,2.78-19.16,5.4-29.45,6.29c-1.28,0.11-2.4-0.83-2.52-2.1c-0.08-0.88,0.36-1.7,1.05-2.15c8.7-5.65,18.18-9.28,27.87-12.25
				c9.67-3.04,19.44-5.85,29.37-8.24c30.16-7.08,62.64-11.19,92.68-0.7c31.41,10.33,52.3,38.38,62.45,68.69
				C579.08,903.79,567.55,907.96,564.37,900.07L564.37,900.07z"/>
		</g>
		<g>
			<path class="st5" d="M583.45,893.5c-4.4-41.77-5.75-84.85,5.17-125.84c0.47-1.75,2.28-2.79,4.03-2.31
				c1.7,0.46,2.73,2.18,2.35,3.88c-8.57,40.33-5.09,82.08,1.26,122.55C597.37,900.44,584.7,902.21,583.45,893.5L583.45,893.5z"/>
		</g>
		<g>
			<path class="st5" d="M609.37,701.96c-15.77,8.25-29.99,19.59-38.63,35.29c-2.9,5.19-5.19,10.77-6.9,16.57
				c-0.36,1.24-1.66,1.95-2.9,1.58c-1.15-0.34-1.85-1.49-1.64-2.65c1.11-6.26,2.87-12.47,5.38-18.44
				c7.43-18.13,22.04-32.72,38.03-43.45C610.34,686.1,617.2,697.43,609.37,701.96L609.37,701.96z"/>
		</g>
		<g>
			<path class="st5" d="M311.38,789.18c-6.89-21.34-13.42-42.8-18.82-64.62c-3.95-16.48-7.71-33.32-8.34-50.41
				c-0.19-5.71-0.08-11.57,0.83-17.31c0.25-1.59,1.74-2.67,3.33-2.42c1.36,0.21,2.35,1.34,2.45,2.66
				c2.1,21.79,7.86,43.15,13.78,64.29c6.13,21.39,13.01,42.61,19.15,64.05C325.84,793.52,314.22,797.14,311.38,789.18L311.38,789.18
				z"/>
		</g>
		<g>
			<path class="st5" d="M328.26,808.58c10.36-6.32,21.8-11.11,33.61-12.95c1.39-0.22,2.69,0.74,2.91,2.13
				c0.19,1.2-0.5,2.34-1.58,2.76c-10.34,4.17-19.3,10.7-27.06,18.31C328.91,825.23,320.21,813.93,328.26,808.58L328.26,808.58z"/>
		</g>
		<g>
			<path class="st5" d="M188.11,899.48L212.98,876c2.44-2.29,6.14,0.9,4.27,3.65l-19.31,28.24
				C192.19,915.47,181.51,906.37,188.11,899.48L188.11,899.48z"/>
		</g>
		<g>
			<path class="st5" d="M312.89,812.36c-1.38,0-2.78-0.44-3.96-1.36c-24.63-19.1-63.25-28.69-101.32-36.21
				c-3.5-0.69-5.78-4.09-5.09-7.59s4.1-5.78,7.59-5.09c45.8,9.04,81.47,19.08,106.74,38.68c2.82,2.19,3.34,6.25,1.15,9.07
				C316.73,811.5,314.82,812.36,312.89,812.36z"/>
		</g>
		<g>
			<path class="st5" d="M415.12,950.46c7.83-37.18-0.61-75.94-18.74-109.11c-2.82-5.49,5.09-9.98,8.33-4.65
				c9.91,17.24,17.71,35.96,21.9,55.72c4.24,19.72,4.69,40.4,1.23,60.39c-0.6,3.53-3.95,5.91-7.48,5.29
				C416.77,957.5,414.39,954.02,415.12,950.46L415.12,950.46z"/>
		</g>
		<g>
			<path class="st5" d="M474.06,933.58c8.79-16.68,14.65-36.09,8.42-54.53c-1.29-4.01,4.4-6.27,6.22-2.47
				c9.16,19.77,4.99,43.02-2.89,62.39C482.19,947.2,470.19,941.72,474.06,933.58L474.06,933.58z"/>
		</g>
		<g>
			<path class="st5" d="M699.39,865.36c-13.49-4.63-28.05-5.73-42.22-3.2c-3.85,0.63-5.23-4.85-1.56-6.13
				c14.94-5.02,31.34-6.11,46.95-3.2C711.61,854.8,708.29,867.94,699.39,865.36L699.39,865.36z"/>
		</g>
		<g>
			<path class="st5" d="M700.44,801.12c-27.67-8.43-57.2-12.77-85.6-6.17c-9.37,2.18-18.48,5.55-27.03,10.1
				c-1.47,0.79-3.31,0.23-4.09-1.24c-0.75-1.42-0.26-3.17,1.1-3.99c8.72-5.31,18.18-9.46,28.03-12.36
				c29.61-8.76,61.51-5.99,91.03,1.2C712.33,791.01,708.97,803.43,700.44,801.12L700.44,801.12z"/>
		</g>
		<g>
			<path class="st5" d="M575.37,639.94c-1.83-8.9-4.62-17.6-8.47-25.87c-3.84-8.28-8.73-16.12-14.43-23.45
				c-1.41-1.81-1.09-4.42,0.73-5.83c1.71-1.33,4.16-1.09,5.6,0.47c6.63,7.24,12.6,15.24,17.52,23.93
				c4.93,8.68,8.79,18.02,11.59,27.63C590.1,645.44,577.49,648.6,575.37,639.94L575.37,639.94z"/>
		</g>
		<g>
			<path class="st5" d="M617.66,526.24l-15.95,19.42c-2.65,3.2-7.73-0.09-5.92-3.8l10.99-22.6
				C611.42,510.83,623.39,518.48,617.66,526.24L617.66,526.24z"/>
		</g>
		<g>
			<path class="st5" d="M709.74,577.4c-0.16,0-0.33-0.01-0.5-0.02c-43.19-3.28-75.72-23.77-96.67-60.91
				c-1.75-3.11-0.66-7.05,2.45-8.81s7.05-0.65,8.81,2.45c18.96,33.62,47.22,51.4,86.39,54.37c3.56,0.27,6.23,3.37,5.96,6.94
				C715.92,574.82,713.09,577.4,709.74,577.4z"/>
		</g>
		<g>
			<path class="st5" d="M694.43,448.03c-6.65,0-14.74-3.92-23.41-11.45c-2.7-2.34-2.98-6.43-0.64-9.12c2.34-2.7,6.43-2.98,9.12-0.64
				c9.11,7.91,14.2,8.55,15.4,8.26c0.14-0.44,0.27-1.66-0.35-3.75c-1.97-6.67-9.83-16.73-25.99-24.96c-3.18-1.62-4.45-5.51-2.83-8.7
				c1.62-3.18,5.51-4.45,8.69-2.83c23.59,12.01,33.83,28.63,33.51,39.77c-0.16,5.72-2.97,10.18-7.69,12.26
				C698.46,447.64,696.51,448.03,694.43,448.03z"/>
		</g>
		<g>
			<path class="st5" d="M729.97,468.86c-8.52,0-14.65-3.42-17.89-5.81c-16.43-12.1-21.15-39.4-10.99-63.5
				c1.39-3.29,5.18-4.84,8.47-3.45c3.29,1.39,4.83,5.18,3.45,8.47c-8.56,20.31-3.16,40.77,6.75,48.07
				c8.31,6.12,19.81,3.65,32.4-6.94c2.73-2.3,6.81-1.95,9.11,0.78c2.3,2.73,1.95,6.81-0.78,9.11
				C748.43,465.73,738.11,468.86,729.97,468.86z"/>
		</g>
	</g>
	<g>
		<g>
			<path class="st4" d="M547.39,399.95c-2.58,30.53-12.89,60.56-31.02,87.07c-3.7,5.4-7.7,10.65-12.04,15.73
				c-2.1,2.48-4.31,4.91-6.57,7.32c-6.87,7.23-14.18,13.79-21.88,19.67c-6.62,5.09-13.53,9.66-20.65,13.74
				c-8.59,4.93-17.51,9.11-26.64,12.56c-3.34,1.25-6.69,2.41-10.07,3.47c-61.93,19.4-132.29,6.11-182.98-40.83
				c-74.68-69.13-78.35-185.08-8.23-258.97c13.52-14.22,28.78-25.88,45.17-34.88c1.9-1.07,3.85-2.09,5.81-3.06
				c5.23-2.65,10.56-5.04,15.97-7.16c12.52-4.91,25.47-8.41,38.61-10.52c13.13-2.12,26.46-2.85,39.71-2.16
				c4.21,0.21,8.42,0.57,12.63,1.07c6.3,0.76,12.56,1.82,18.79,3.22c31.03,6.92,60.65,21.84,85.53,44.88
				C532.49,290.87,551.94,346.12,547.39,399.95z"/>
			<path class="st5" d="M362.35,568.63c-46.6,0-92.29-17.26-127.17-49.56c-36.19-33.5-57-78.94-58.58-127.95
				c-1.59-49.1,16.28-95.89,50.33-131.77c13.33-14.03,28.57-25.79,45.3-34.98c1.82-1.02,3.73-2.03,5.83-3.07
				c5.22-2.64,10.61-5.06,16.01-7.18c12.43-4.87,25.46-8.42,38.72-10.55c13.13-2.12,26.52-2.85,39.82-2.17
				c4.28,0.22,8.54,0.58,12.66,1.07c6.44,0.77,12.78,1.86,18.85,3.23c32.03,7.14,61.69,22.71,85.77,45.01
				c41.64,38.54,62.79,92.95,58.03,149.28c-2.64,31.23-13.4,61.42-31.11,87.32c-3.75,5.48-7.82,10.79-12.07,15.78
				c-1.94,2.28-4.09,4.68-6.59,7.34c-6.79,7.15-14.17,13.78-21.94,19.73c-6.51,5-13.47,9.63-20.7,13.78
				c-8.48,4.86-17.46,9.1-26.72,12.6c-3.31,1.24-6.71,2.41-10.1,3.48C400.19,565.81,381.19,568.63,362.35,568.63z M362.92,202.21
				c-10.04,0-20.08,0.8-29.97,2.4c-13.19,2.12-26.14,5.65-38.5,10.49c-5.37,2.11-10.73,4.51-15.92,7.14
				c-2.08,1.04-3.98,2.04-5.79,3.05c-16.64,9.13-31.79,20.83-45.05,34.78c-33.85,35.67-51.62,82.19-50.04,131.01
				c1.58,48.73,22.26,93.91,58.24,127.22c48.71,45.11,118.62,60.71,182.46,40.71c3.37-1.07,6.75-2.23,10.05-3.46
				c9.2-3.48,18.13-7.69,26.56-12.53c7.19-4.12,14.12-8.73,20.59-13.7c7.73-5.91,15.07-12.51,21.82-19.61
				c2.48-2.64,4.63-5.03,6.55-7.3c4.24-4.96,8.28-10.24,12.01-15.69c17.61-25.75,28.31-55.77,30.93-86.82l0.52,0.04l-0.52-0.04
				c4.73-56-16.29-110.09-57.7-148.42c-23.94-22.17-53.43-37.65-85.28-44.75c-6.04-1.36-12.34-2.44-18.74-3.21
				c-4.1-0.49-8.34-0.85-12.59-1.07C369.35,202.29,366.13,202.21,362.92,202.21z"/>
		</g>
		<g class="st6">
			<path class="st5" d="M235.54,518.68c50.68,46.95,121.06,60.24,182.98,40.83c3.38-1.06,6.74-2.22,10.07-3.47
				c9.14-3.45,18.05-7.64,26.64-12.56c7.11-4.08,14.03-8.65,20.65-13.74c7.7-5.88,15.01-12.44,21.89-19.67
				c2.25-2.42,4.46-4.85,6.57-7.32c4.33-5.08,8.33-10.34,12.03-15.74c18.13-26.51,28.45-56.54,31.03-87.07
				c1.42-16.77,0.51-33.69-2.72-50.23c-3.14,29.08-13.32,57.57-30.62,82.86c-3.69,5.41-7.7,10.66-12.03,15.74
				c-2.1,2.47-4.3,4.9-6.57,7.32c-6.87,7.24-14.18,13.79-21.87,19.67c-6.63,5.08-13.53,9.65-20.65,13.74
				c-8.59,4.92-17.51,9.11-26.64,12.56c-3.34,1.25-6.7,2.41-10.08,3.47c-61.92,19.41-132.29,6.12-182.98-40.83
				c-29.58-27.38-48.01-62.11-55.13-98.65C172.12,420.76,191.45,477.88,235.54,518.68z"/>
		</g>
		<g>
			<path class="st5" d="M362.35,572.16c-47.48,0-94.02-17.58-129.57-50.49c-36.89-34.15-58.09-80.47-59.71-130.43
				c-1.62-50.05,16.6-97.74,51.29-134.31c13.58-14.29,29.11-26.28,46.16-35.64c1.85-1.04,3.8-2.07,5.96-3.14
				c5.3-2.68,10.79-5.14,16.29-7.3c12.66-4.97,25.94-8.58,39.44-10.75c13.37-2.16,27.01-2.91,40.56-2.21
				c4.36,0.22,8.7,0.59,12.9,1.09c6.56,0.79,13.02,1.9,19.21,3.29c32.63,7.28,62.85,23.14,87.39,45.86
				c42.45,39.29,64,94.75,59.15,152.16l0,0c-2.69,31.83-13.66,62.61-31.72,89.02c-3.82,5.59-7.96,10.99-12.3,16.08
				c-1.97,2.32-4.16,4.76-6.7,7.47c-6.93,7.3-14.45,14.06-22.37,20.12c-6.62,5.09-13.72,9.81-21.09,14.03
				c-8.64,4.95-17.8,9.27-27.22,12.83c-3.38,1.27-6.84,2.46-10.29,3.55C400.91,569.28,381.55,572.16,362.35,572.16z M362.92,205.73
				c-9.85,0-19.7,0.79-29.4,2.36c-12.94,2.08-25.65,5.54-37.77,10.29c-5.27,2.07-10.52,4.42-15.62,7c-2.05,1.02-3.9,1.99-5.66,2.98
				c-16.35,8.97-31.21,20.45-44.22,34.14c-33.19,34.98-50.62,80.6-49.07,128.46c1.55,47.78,21.83,92.08,57.12,124.74
				c47.79,44.26,116.38,59.56,179.01,39.94c3.31-1.04,6.63-2.19,9.87-3.4c9.01-3.41,17.78-7.54,26.04-12.28
				c7.05-4.04,13.85-8.56,20.19-13.44c7.59-5.8,14.79-12.27,21.41-19.25c2.43-2.59,4.53-4.93,6.42-7.16
				c4.16-4.87,8.12-10.05,11.79-15.4c17.26-25.25,27.75-54.68,30.33-85.12c4.64-54.91-15.98-107.95-56.58-145.53
				c-23.48-21.75-52.41-36.93-83.66-43.9c-5.93-1.34-12.11-2.4-18.4-3.16c-4.02-0.48-8.17-0.83-12.35-1.05
				C369.22,205.81,366.07,205.73,362.92,205.73z M547.39,399.95h0.01H547.39z"/>
		</g>
		<g>
			<path class="st5" d="M362.36,575.38c-48.28,0-95.61-17.88-131.76-51.35c-37.52-34.74-59.1-81.86-60.74-132.69
				c-1.65-50.91,16.88-99.44,52.18-136.63c13.81-14.53,29.61-26.73,46.94-36.25c1.87-1.05,3.87-2.11,6.07-3.2
				c5.37-2.72,10.95-5.22,16.55-7.42c12.88-5.05,26.37-8.73,40.11-10.93c13.59-2.2,27.47-2.95,41.24-2.25
				c4.43,0.23,8.84,0.6,13.12,1.11c6.67,0.8,13.24,1.93,19.53,3.35c33.18,7.4,63.91,23.53,88.87,46.64
				c43.18,39.96,65.11,96.39,60.17,154.8l0,0c-2.74,32.38-13.9,63.7-32.27,90.56c-3.89,5.68-8.1,11.18-12.52,16.35
				c-2,2.35-4.22,4.83-6.8,7.58c-7.06,7.43-14.71,14.31-22.76,20.47c-6.73,5.17-13.95,9.98-21.45,14.27
				c-8.78,5.04-18.1,9.43-27.68,13.05c-3.44,1.29-6.95,2.5-10.46,3.61C401.56,572.45,381.88,575.38,362.36,575.38z M362.92,208.95
				c-9.68,0-19.36,0.78-28.89,2.32c-12.72,2.04-25.2,5.44-37.11,10.11c-5.17,2.03-10.34,4.34-15.34,6.88
				c-2.02,1.01-3.82,1.95-5.53,2.92c-16.08,8.83-30.68,20.1-43.46,33.55c-32.59,34.35-49.71,79.14-48.19,126.14
				c1.52,46.91,21.44,90.41,56.08,122.48c46.94,43.47,114.33,58.5,175.86,39.22c3.25-1.03,6.51-2.15,9.7-3.34
				c8.84-3.34,17.45-7.4,25.57-12.06c6.93-3.97,13.6-8.41,19.83-13.2c7.46-5.7,14.53-12.06,21.03-18.91
				c2.38-2.53,4.45-4.84,6.3-7.02c4.09-4.79,7.99-9.88,11.58-15.13c16.95-24.79,27.25-53.69,29.78-83.57
				c4.56-53.91-15.69-105.99-55.56-142.9c-23.07-21.36-51.48-36.27-82.17-43.12c-5.83-1.32-11.91-2.36-18.08-3.1
				c-3.95-0.47-8.03-0.82-12.13-1.03C369.11,209.03,366.02,208.95,362.92,208.95z M547.39,399.95h0.01H547.39z"/>
		</g>
		<g>
			<path class="st5" d="M537.39,445.87c-69.06,111.92-226.19,121.85-285.95,6.47c-40.66-78.5,5.84-178.57,84.74-212.45
				c57.43-24.66,124.37-23.95,187.32,53.55c0,0,22.49,38.57,23.34,70.38c0.85,31.82-3.76,62.92-3.76,62.92L537.39,445.87z"/>
		</g>
		<g>
			<path class="st8" d="M251.44,452.34c59.76,115.37,216.89,105.44,285.95-6.47l1.15-3.88c-100.96,66.91-238.83,49.65-301.45-65.89
				C234.64,401.84,238.9,428.11,251.44,452.34z"/>
		</g>
		<g>
			<path class="st5" d="M383.99,558.63c-17.82,0-35.43-2.55-52.22-7.71c-44.44-13.67-79.83-43.88-102.36-87.35
				c-20.7-39.97-23.1-87.17-6.73-132.9c18.05-50.46,57.14-92.75,104.56-113.12c26.42-11.35,52.29-16.92,76.83-16.55l0.54,0.01
				l0.52,0.12c32.84,7.33,63.26,23.28,87.94,46.15c42.71,39.53,64.41,95.35,59.52,153.12l0,0c-2.71,32.03-13.75,63.01-31.92,89.58
				c-3.85,5.62-8.01,11.06-12.38,16.18c-1.98,2.33-4.18,4.79-6.73,7.51c-6.98,7.35-14.54,14.15-22.51,20.24l-0.69,0.45
				C448.69,550.39,416.01,558.63,383.99,558.63z M401.82,211.43c-22.46,0-46.14,5.29-70.44,15.72
				c-44.8,19.24-81.75,59.25-98.84,107.03c-15.37,42.97-13.18,87.21,6.17,124.57c21.2,40.93,54.45,69.34,96.15,82.17
				c44.18,13.6,94.52,7.91,138.18-15.58c7.41-5.69,14.45-12.04,20.93-18.87c2.41-2.57,4.5-4.9,6.38-7.11
				c4.14-4.84,8.07-9.99,11.71-15.3c17.15-25.08,27.57-54.32,30.13-84.56c4.61-54.54-15.87-107.24-56.2-144.57
				c-23.2-21.49-51.75-36.52-82.59-43.5C402.86,211.44,402.34,211.43,401.82,211.43z M547.39,399.95h0.01H547.39z"/>
		</g>
		<g>
			<path class="st4" d="M172.82,477.72c12.61,33.9,43.46,54.93,68.91,46.97c25.45-7.97,35.86-41.92,23.25-75.82
				c-0.07-0.21-0.16-0.44-0.25-0.65c-12.75-33.52-43.39-54.23-68.66-46.32c-19.66,6.15-30.34,27.81-28.38,52.98
				C168.27,462.29,169.95,470.01,172.82,477.72z"/>
		</g>
		<g class="st6">
			<path class="st5" d="M172.82,477.72c12.61,33.9,43.46,54.93,68.91,46.97c25.45-7.97,35.86-41.92,23.25-75.82
				c-0.07-0.21-0.16-0.44-0.25-0.65c-1.5,4.36-4.58,9.14-10.91,9.84c-11.09,1.21-37.74-14.79-37.74-14.79s-21.01,4.9-48.38,11.61
				C168.27,462.29,169.95,470.01,172.82,477.72z"/>
		</g>
		<g>
			<path class="st5" d="M230.71,531.57c-24.89,0-51.23-20.94-62.79-52.03c-7.83-21.05-7.62-42.72,0.58-59.44
				c5.7-11.63,14.69-19.64,26.01-23.19c28.01-8.78,61.83,13.71,75.38,50.13c7.83,21.05,7.62,42.72-0.58,59.45
				c-5.7,11.63-14.69,19.64-26.01,23.18C239.2,530.95,234.97,531.57,230.71,531.57z M207.35,405.43c-3.31,0-6.57,0.47-9.73,1.46
				c-8.51,2.67-15.34,8.82-19.74,17.81c-6.84,13.96-6.9,33.1-0.17,51.2c11.64,31.29,39.65,50.93,62.46,43.79
				c8.51-2.67,15.34-8.82,19.74-17.81c6.84-13.96,6.9-33.1,0.17-51.2C250.06,423.74,227.88,405.43,207.35,405.43z"/>
		</g>
		<g>
			
				<ellipse transform="matrix(0.8985 -0.439 0.439 0.8985 -187.0376 138.6173)" class="st4" cx="206.22" cy="473.74" rx="39.22" ry="52.08"/>
			<path class="st5" d="M215.58,524.15c-0.39,0-0.79-0.01-1.18-0.02c-12.86-0.43-25.94-7.8-35.87-20.23l0,0
				c-17.78-22.24-19.86-53.86-4.65-70.49c6.31-6.9,14.65-10.39,24.17-10.06c12.86,0.43,25.94,7.8,35.88,20.23
				c17.78,22.24,19.86,53.86,4.65,70.49C232.52,520.68,224.59,524.15,215.58,524.15z M179.37,503.21
				c9.74,12.18,22.51,19.4,35.06,19.82c9.19,0.29,17.24-3.05,23.33-9.71c14.86-16.25,12.76-47.24-4.7-69.07
				c-9.74-12.18-22.52-19.41-35.06-19.82c-9.2-0.31-17.24,3.05-23.33,9.71C159.81,450.39,161.92,481.38,179.37,503.21z"/>
		</g>
		<g class="st6">
			<path class="st5" d="M248.73,481.7c-1.05-9.8-4.83-19.34-10.38-27.56c0.49,22.54-14.91,37.42-35.98,33.78
				c-13.62-2.35-26.47-11.9-35.07-24.63c0.02,1.42,0.13,2.89,0.28,4.37c2.69,24.94,23.03,48.31,45.45,52.18
				C235.44,523.72,251.42,506.63,248.73,481.7z"/>
		</g>
		<g>
			<path class="st5" d="M216.52,528.89c-19.82,0-40.82-17.52-50.75-43.89l0,0c-6.72-17.86-6.76-36.58-0.11-50.09
				c4.32-8.77,11.08-14.77,19.55-17.35c22.2-6.76,48.6,11.92,60.12,42.51c6.72,17.86,6.76,36.58,0.11,50.1
				c-4.32,8.77-11.08,14.77-19.55,17.35C222.83,528.45,219.69,528.89,216.52,528.89z M194.36,426.67c-2.09,0-4.13,0.29-6.1,0.89
				c-5.64,1.72-10.21,5.86-13.22,11.97c-5.4,10.97-5.21,26.59,0.51,41.79l0,0c8.15,21.65,25.89,37.08,41.19,37.08
				c2.09,0,4.13-0.29,6.1-0.89c5.64-1.72,10.21-5.85,13.22-11.97c5.4-10.97,5.21-26.59-0.51-41.79
				C227.4,442.1,209.65,426.67,194.36,426.67z"/>
		</g>
		<g class="st9">
			<path class="st4" d="M309.43,292.07c0,0,76.63-27.33,136.22-2.58c0.06,0.03,0.13,0.05,0.19,0.08
				c12.54,5.22,23.41,13.7,31.55,24.47c10.76,14.24,16.06,25.62,20.33,35.81c12.98,31,13.19,47.94,13.19,47.94
				c11.01-23.71,13.29-46.43,2.74-72.36c-1.05-2.55-2.22-5.15-3.51-7.77c-0.3-0.61-0.6-1.2-0.92-1.79c0.01-0.01,0-0.02-0.02-0.03
				c-3-5.14-7.19-11.74-12.55-18.79c-16.16-21.29-42.87-46.74-79.18-48.74C349.55,244.55,305.48,289.9,309.43,292.07z"/>
		</g>
		<g class="st9">
			
				<ellipse transform="matrix(0.9907 -0.1358 0.1358 0.9907 -50.2771 42.1556)" class="st4" cx="283.84" cy="389.58" rx="24.8" ry="28.54"/>
		</g>
		<g class="st9">
			
				<ellipse transform="matrix(0.999 -0.0442 0.0442 0.999 -19.2068 13.28)" class="st4" cx="290.7" cy="440.96" rx="10.24" ry="11.78"/>
		</g>
	</g>
</g>
</svg>
