<?xml version="1.0" encoding="utf-8"?>
<!-- Generator: Adobe Illustrator 25.0.0, SVG Export Plug-In . SVG Version: 6.00 Build 0)  -->
<svg version="1.1" id="Layer_1" xmlns="http://www.w3.org/2000/svg" xmlns:xlink="http://www.w3.org/1999/xlink" x="0px" y="0px"
	 viewBox="0 0 1000 1000" style="enable-background:new 0 0 1000 1000;" xml:space="preserve">
<style type="text/css">
	.st0{fill:#EC0411;}
	.st1{opacity:0.5;}
	.st2{fill:#FFFFFF;}
	.st3{opacity:0.25;}
	.st4{fill:#371A45;}
	.st5{opacity:0.35;}
	.st6{fill:#FCD629;}
	.st7{opacity:0.3;}
	.st8{fill:#421861;}
	.st9{fill:#0AA9EF;}
	.st10{opacity:0.4;}
	.st11{fill:#111A28;}
	.st12{fill:#FFDA00;}
</style>
<g>
	<g>
		<path class="st0" d="M328.44,507.88c-27.37,35.2-27.27,171.26-36.87,272.09c-5.79,60.73-32,103.58-22.12,118.3
			c21.19,31.56,78.53-8.84,184.97-8.84h-0.04c106.45,0,154.26,41.74,175.45,10.18c9.02-13.43-10.01-45.55-12.79-98.59
			c-5.32-101.61-8.6-252.04-45.04-298.81L328.44,507.88z"/>
	</g>
	<g class="st1">
		<path class="st2" d="M629.83,899.61c-21.18,31.56-68.99-10.16-175.42-10.18c-106.43,0-163.77,40.4-184.96,8.83
			c-9.88-14.71,16.32-57.56,22.12-118.29c7-73.42,8.84-165.52,19.89-223.76c-4.98,60.73-1.97,152.01-9.48,213.16
			c-9.11,74.13-29.87,105.68-23.63,116.94c20.02,36.11,74.64-10.08,175.82-10.09c101.17,0,146.63,47.67,166.77,11.63
			c8.57-15.34-8.3-34.57-10.94-95.14c-2.64-60.62-5.97-153.93-12.33-220.15c13.04,66.41,15.73,158.89,19.37,228.47
			C619.81,854.07,638.84,886.17,629.83,899.61z"/>
	</g>
	<g class="st3">
		<path class="st4" d="M341.82,529.82c-24.35,31.32-24.26,152.37-32.81,242.08c-5.15,54.03-28.47,92.15-19.68,105.25
			c18.85,28.08,69.86-7.86,164.57-7.86h-0.04c94.71,0,137.24,37.14,156.09,9.06c8.02-11.95-8.91-40.52-11.38-87.72
			c-4.73-90.4-7.65-224.24-40.07-265.85"/>
	</g>
	<g>
		<path class="st4" d="M605.85,916.13c-11.16,0-24.69-3.21-40.88-7.05c-26.51-6.29-62.83-14.91-110.56-14.91
			c-46.4,0-82.9,7.66-112.23,13.82c-37.96,7.97-63.03,13.23-76.67-7.08c-6.36-9.47-1.76-24.81,5.21-48.01
			c5.96-19.84,13.37-44.53,16.12-73.38c2.5-26.22,4.37-55.33,6.18-83.49c5.42-84.28,10.54-163.88,31.67-191.05
			c1.61-2.07,4.58-2.44,6.65-0.83c2.07,1.61,2.44,4.58,0.83,6.65c-19.34,24.87-24.6,106.71-29.69,185.84
			c-1.82,28.23-3.69,57.42-6.2,83.78c-2.84,29.78-10.4,54.97-16.48,75.2c-5.52,18.38-10.29,34.25-6.42,40
			c9.64,14.36,28.5,11.13,66.85,3.08c29.75-6.24,66.77-14.01,114.15-14.02l0,0l0,0l0,0c0.02,0,0.03,0,0.04,0
			c48.84,0.01,85.77,8.77,112.74,15.17c33.97,8.06,49.39,11.04,58.73-2.89c3.56-5.3,0.57-17.53-3.21-33.02
			c-4.02-16.47-9.03-36.96-10.37-62.68c-0.55-10.46-1.07-21.43-1.62-32.75c-4.75-99.18-10.66-222.61-42.43-263.4
			c-1.61-2.06-1.24-5.04,0.83-6.65c2.06-1.61,5.04-1.24,6.65,0.83c33.61,43.15,39.61,168.25,44.42,268.77
			c0.54,11.31,1.07,22.27,1.61,32.71c1.3,24.82,6.19,44.84,10.11,60.92c4.67,19.14,7.76,31.79,1.88,40.56
			C626.87,912.52,617.68,916.13,605.85,916.13z"/>
	</g>
	<g>
		<path class="st2" d="M566.25,507.87c0,0,41.31,86.97,90.43,106.49c34.63,13.76,78.51,14.38,78.51,14.38v74.66
			c0,0-55.91,19.18-102.13,5.47c-38.35-11.38-57.53-55.61-57.53-55.61"/>
	</g>
	<g class="st5">
		<path class="st4" d="M735.19,628.08v74.66c0,0-55.91,19.18-102.13,5.47c-38.35-11.39-57.53-55.61-57.53-55.61l9.79-38.39
			c0,0,11.2,47.42,46.91,65.44c55.11,27.82,65.05-19.14,65.05-19.14l16.79-33.87C726.62,627.96,735.19,628.08,735.19,628.08z"/>
	</g>
	<g>
		<path class="st4" d="M670.58,718.58c-12.76,0-26.12-1.39-38.88-5.17c-40.01-11.87-59.71-56.38-60.52-58.27
			c-1.04-2.4,0.06-5.19,2.46-6.23c2.4-1.04,5.19,0.06,6.23,2.46c0.18,0.42,18.81,42.35,54.52,52.95c38.09,11.3,83.71-0.71,96.05-4.4
			v-66.6c-12.38-0.56-46.74-3.12-75.52-14.56c-50.27-19.98-91.24-105.24-92.96-108.86c-1.12-2.36-0.12-5.19,2.25-6.31
			c2.36-1.12,5.19-0.12,6.31,2.25c0.41,0.85,41.09,85.52,87.9,104.12c33.39,13.27,76.4,14.04,76.83,14.05l4.67,0.07l0,82.71
			l-3.2,1.1C735.02,708.47,705,718.58,670.58,718.58z"/>
	</g>
	<g>
		<circle class="st6" cx="726.63" cy="353.21" r="13.98"/>
	</g>
	<g>
		<path class="st6" d="M740.61,353.21c0,2.33-0.57,4.54-1.59,6.48c-2.33,4.45-7,7.5-12.39,7.5c-5.39,0-10.06-3.04-12.39-7.5
			c-1.02-1.94-1.59-4.15-1.59-6.48c0-7.72,6.26-13.98,13.98-13.98S740.61,345.49,740.61,353.21z"/>
	</g>
	<g class="st5">
		<path class="st4" d="M739.02,359.69c-2.33,4.45-7,7.5-12.39,7.5c-5.39,0-10.06-3.04-12.39-7.5c2.33-4.45,7-7.5,12.39-7.5
			C732.02,352.19,736.69,355.24,739.02,359.69z"/>
	</g>
	<g>
		<path class="st4" d="M726.62,371.17c-9.9,0-17.96-8.06-17.96-17.96c0-9.9,8.06-17.96,17.96-17.96s17.96,8.06,17.96,17.96
			C744.58,363.11,736.53,371.17,726.62,371.17z M726.62,343.2c-5.52,0-10.01,4.49-10.01,10.01s4.49,10.01,10.01,10.01
			s10.01-4.49,10.01-10.01S732.14,343.2,726.62,343.2z"/>
	</g>
	<g>
		<path class="st2" d="M314.15,643.71c0.11,0.11,0.22,0.22,0.31,0.32c60.37,61.67,24.79,126.51-22.13,116.94
			c-46.99-9.58-32.7-54.17-32.7-54.17c-119.25-75.91,54.51-169.36,54.51-169.36c32.83-18.12,66.62-29.58,66.62-29.58l-21.22,64.86
			l-16.85,51.54C319.92,634.16,314.15,643.71,314.15,643.71z"/>
	</g>
	<g class="st5">
		<path class="st4" d="M347.72,582.34l-5.03,41.93c-22.78,9.88-28.55,19.43-28.55,19.43c0.11,0.11,0.22,0.22,0.31,0.32
			c-6.11-5.04-14.3-10.79-22.9-14.02c0,0,15.86-8.71,21.15-14.93c22.81-26.85,16.94-42.79,38.39-40.06
			C354.47,575.45,349.95,577.73,347.72,582.34z"/>
	</g>
	<g>
		<path class="st4" d="M301.38,766.63c-3.29,0-6.63-0.33-9.99-1.02c-15.43-3.15-26.45-10.19-32.74-20.94
			c-7.91-13.5-5.92-28.91-4.44-35.74c-28.13-18.71-41.95-40.23-41.08-63.99c2.17-59.05,94.83-109.55,98.77-111.67
			c32.78-18.09,67-29.77,67.34-29.88c2.48-0.84,5.17,0.49,6.01,2.97c0.84,2.48-0.49,5.17-2.97,6.01
			c-0.33,0.11-33.79,11.54-65.85,29.23c-0.96,0.52-91.87,50.07-93.84,103.7c-0.77,20.95,12.55,40.3,39.58,57.51l3.08,1.96
			l-1.12,3.48c-0.05,0.17-5.47,17.78,2.71,31.69c4.88,8.29,13.77,13.81,26.42,16.39c17.41,3.54,33.61-4.19,42.29-20.19
			c10.81-19.92,9.97-53.79-24.8-89.12l-2.59-2.63l1.91-3.15c0.59-0.97,6.35-9.8,26.27-19.29c2.36-1.13,5.19-0.12,6.32,2.24
			c1.13,2.36,0.12,5.19-2.24,6.32c-10.98,5.23-16.97,10.11-19.9,13c35.4,37.92,35.46,74.86,23.37,97.15
			C334.99,757.09,318.95,766.63,301.38,766.63z"/>
	</g>
	<g>
		<path class="st4" d="M261.62,703.09c1.84,1.12,3.76,2.34,5.64,3.54l5.69,3.63l5.75,3.62c1.93,1.21,3.88,2.38,5.89,3.6
			c-2.34-0.05-4.66-0.38-6.97-0.77c-2.3-0.41-4.57-0.94-6.81-1.56c-2.22-0.65-4.47-1.27-6.65-2.06c-2.2-0.77-4.33-1.56-6.5-2.55
			L261.62,703.09z"/>
	</g>
	<g class="st7">
		<path class="st8" d="M292.33,760.97c-46.44-9.47-33.02-53.12-32.71-54.16l0.01-0.01c0,0,8.06,43.21,50.04,31.36
			c26.84-7.59,24.57-45.43,19.45-71.7c0.45-1.04,0.82-2.12,1.12-3.21c0,0,0,0,0.01,0C367.32,718.37,334.38,769.55,292.33,760.97z"/>
	</g>
	<g>
		<path class="st4" d="M228.27,682.04c-1.96,0-3.55-1.59-3.55-3.54c-0.03-13.28,11.02-27.06,28.15-35.1
			c19.48-9.14,49.07-11.57,73.73,9.03c1.51,1.26,1.71,3.5,0.45,5.01c-1.26,1.51-3.5,1.71-5.01,0.45
			c-22.09-18.45-48.66-16.26-66.15-8.05c-14.65,6.87-24.09,18.12-24.07,28.65C231.83,680.44,230.24,682.04,228.27,682.04
			C228.28,682.04,228.27,682.04,228.27,682.04z"/>
	</g>
	<g>
		<path class="st4" d="M312.93,647.03c-1.5-1.6-3.19-3.24-4.86-4.81c-1.68-1.58-3.41-3.12-5.17-4.62c-3.54-2.98-7.24-5.8-11.33-8.15
			c4.6,1.03,9.12,2.69,13.53,4.55c2.2,0.94,4.38,1.94,6.54,3c2.17,1.07,4.27,2.13,6.47,3.37L312.93,647.03z"/>
	</g>
	<g>
		<path class="st2" d="M617.36,948.04c-0.08,0.75-0.18,1.47-0.32,2.18c-3.84,21.64-30.42,29.37-78.27,23.42
			c-21.68-2.7-51.63-5.9-59.53-22.36c-15.77-32.84,0.32-107.61-1.54-150.2v-0.07c0,0-8.71,1.03-19.51,1.03
			c-10.8,0-19.51-1.03-19.51-1.03c-0.01,0.34-0.02,0.7-0.04,1.04c-1.61,42.63,14.13,116.62-1.52,149.23
			c-7.9,16.46-37.85,19.65-59.53,22.36c-47.91,5.95-74.49-1.79-78.3-23.49c-0.12-0.69-0.23-1.39-0.3-2.11
			c-2.76-26.44,35.92-38.73,35.92-38.73s-8.43-64.42-13.99-115.07c-2.61-23.8-2.97-50.22-1.85-77.41
			c0.6-14.45,1.62-29.12,2.96-43.74c3.32-36.58,8.57-72.8,13.97-104.31c0.52-3.04,1.04-6.05,1.56-9c1.36-7.69,2.72-15.05,4.05-22.01
			c4.87-25.57,9.34-45.85,11.99-57.43c1.59-6.92,2.54-10.75,2.54-10.75H560.2c0,0,0.84,3.41,2.26,9.62
			c2.45,10.6,6.62,29.39,11.27,53.31c1.74,9.05,3.57,18.85,5.4,29.2c0.86,4.94,1.73,10,2.59,15.19
			c4.89,29.52,9.55,62.67,12.59,96.13c1.33,14.6,2.36,29.25,2.95,43.68c1.14,27.24,0.78,53.69-1.84,77.53
			c-5.57,50.65-13.99,115.07-13.99,115.07S620.12,921.6,617.36,948.04z"/>
	</g>
	<g class="st5">
		<path class="st4" d="M390.11,781.42c0,0,36.02,5.79,63.84,5.79s72.35-5.79,72.35-5.79s-26.73,20.48-69.36,19.6
			C413.25,800.12,390.11,781.42,390.11,781.42z"/>
	</g>
	<g>
		<path class="st4" d="M588.53,610.62c2.85,12.23,5.11,24.58,7.02,36.98c1.94,12.4,3.4,24.87,4.57,37.38
			c2.38,25.01,3.32,50.2,2.58,75.43c-0.43,12.59-1.36,25.28-2.87,37.78l-4.63,37.24l-9.06,74.5l-3.26-5.13
			c2.11,0.7,3.88,1.41,5.76,2.21c1.85,0.79,3.67,1.64,5.46,2.54c3.59,1.83,7.08,3.89,10.4,6.29c3.33,2.39,6.48,5.16,9.3,8.37
			c2.76,3.25,5.21,7,6.71,11.27c1.49,4.25,2.06,8.93,1.51,13.38c-0.29,2.25-0.7,4.33-1.4,6.51c-0.73,2.14-1.63,4.24-2.84,6.19
			c-2.39,3.91-5.73,7.16-9.38,9.55c-3.64,2.45-7.58,4.1-11.52,5.37c-7.91,2.49-15.9,3.38-23.77,3.73c-7.88,0.32-15.69,0-23.43-0.65
			c-3.87-0.31-7.72-0.75-11.56-1.2l-11.4-1.45c-7.64-1.05-15.35-2.29-23.05-4.39c-3.85-1.04-7.69-2.33-11.48-4.02
			c-3.77-1.71-7.51-3.85-10.87-6.82c-1.66-1.5-3.22-3.22-4.53-5.15c-0.67-0.96-1.24-1.99-1.78-3.05l-1.27-2.9
			c-1.54-3.87-2.7-7.81-3.52-11.74c-3.18-15.77-2.96-31.36-2.39-46.74c0.65-15.39,2.04-30.62,3.25-45.79
			c0.61-7.58,1.18-15.14,1.57-22.67c0.19-3.76,0.34-7.52,0.4-11.26c0.08-3.79,0.02-7.32-0.11-11.35l5.3,4.71
			c-3.44,0.38-6.7,0.61-10.05,0.79c-3.33,0.18-6.67,0.27-10.02,0.27c-3.35,0-6.69-0.09-10.02-0.27c-3.35-0.18-6.61-0.41-10.05-0.79
			l5.29-4.53c-0.55,14.84,0.68,29.95,1.86,45.11c1.21,15.16,2.6,30.4,3.25,45.79c0.56,15.38,0.78,30.97-2.39,46.74
			c-0.82,3.93-1.97,7.87-3.52,11.75l-1.27,2.9c-0.54,1.05-1.11,2.09-1.78,3.05c-1.32,1.93-2.87,3.65-4.53,5.15
			c-3.36,2.97-7.1,5.11-10.87,6.82c-3.78,1.69-7.63,2.97-11.48,4.02c-7.7,2.09-15.41,3.33-23.05,4.39l-11.4,1.45
			c-3.84,0.46-7.69,0.9-11.56,1.2c-7.74,0.65-15.54,0.97-23.43,0.65c-7.87-0.35-15.86-1.23-23.77-3.73
			c-3.93-1.27-7.87-2.92-11.52-5.37c-3.65-2.39-6.98-5.64-9.38-9.55c-1.2-1.95-2.12-4.05-2.84-6.19c-0.69-2.16-1.12-4.29-1.4-6.5
			c-0.55-4.46,0.02-9.13,1.52-13.39c1.5-4.27,3.95-8.01,6.71-11.26c2.82-3.21,5.97-5.98,9.3-8.37c3.33-2.4,6.82-4.46,10.41-6.29
			c1.8-0.9,3.62-1.75,5.46-2.54c1.88-0.8,3.65-1.5,5.76-2.21l-3.26,5.13l-9.83-80.78l-2.46-20.19c-0.78-6.75-1.74-13.4-2.29-20.29
			c-1.25-13.67-1.87-27.35-1.88-41.01c-0.05-13.66,0.35-27.3,1.01-40.91c0.77-13.6,1.48-27.22,2.85-40.76
			c1.24-13.56,2.99-27.06,5.22-40.48c2.28-13.41,4.99-26.76,8.77-39.89c0.24-0.84,1.12-1.33,1.97-1.09
			c0.72,0.21,1.18,0.88,1.15,1.59c-0.48,13.63-1.69,27.11-2.98,40.56c-1.34,13.45-2.63,26.88-4.06,40.29
			c-1.31,13.42-2.58,26.85-3.35,40.3c-0.86,13.45-1.11,26.91-1.1,40.35c0.01,13.44,0.62,26.86,1.84,40.18
			c0.52,6.63,1.5,13.4,2.28,20.11l2.45,20.16l9.81,80.64l0.47,3.89l-3.74,1.24c-1.51,0.5-3.28,1.19-4.91,1.89
			c-1.66,0.71-3.29,1.47-4.9,2.28c-3.21,1.63-6.29,3.46-9.15,5.52c-2.86,2.05-5.46,4.36-7.67,6.88c-2.16,2.54-3.93,5.31-4.96,8.24
			c-1.01,2.93-1.41,6.01-1.03,9.13c0.2,1.57,0.53,3.19,1,4.66c0.51,1.46,1.11,2.88,1.92,4.17c3.15,5.23,9.06,8.76,15.69,10.83
			c6.65,2.11,13.95,2.98,21.28,3.29c7.35,0.3,14.8,0,22.25-0.62c3.73-0.29,7.45-0.72,11.18-1.16l11.28-1.44
			c7.45-1.02,14.82-2.23,21.84-4.14c6.96-1.9,13.78-4.56,18.53-8.76c1.16-1.05,2.17-2.19,3-3.4c0.42-0.6,0.77-1.24,1.1-1.88
			l1.02-2.34c1.27-3.2,2.29-6.6,3.02-10.13c2.88-14.18,2.77-29.35,2.2-44.37c-0.63-15.07-2.01-30.21-3.23-45.43
			c-1.18-15.22-2.45-30.56-1.88-46.21l0.19-5.09l5.11,0.56c3.03,0.33,6.28,0.57,9.43,0.74c3.18,0.17,6.35,0.25,9.52,0.26
			c3.17-0.01,6.35-0.09,9.52-0.26c3.15-0.17,6.4-0.41,9.43-0.74l5.11-0.56l0.18,5.27c0.12,3.58,0.2,7.68,0.11,11.51
			c-0.06,3.88-0.21,7.74-0.41,11.59c-0.4,7.69-0.98,15.33-1.59,22.94c-1.22,15.22-2.59,30.36-3.23,45.43
			c-0.58,15.02-0.69,30.19,2.19,44.37c0.73,3.53,1.75,6.92,3.02,10.13l1.02,2.34c0.34,0.64,0.68,1.28,1.1,1.88
			c0.83,1.21,1.84,2.35,3,3.4c4.76,4.2,11.58,6.85,18.53,8.76c7.02,1.91,14.39,3.12,21.84,4.14l11.28,1.44
			c3.73,0.44,7.45,0.87,11.18,1.17c7.45,0.63,14.9,0.92,22.25,0.62c7.33-0.31,14.63-1.18,21.28-3.29
			c6.63-2.07,12.53-5.6,15.69-10.83c0.81-1.29,1.41-2.71,1.92-4.17c0.47-1.45,0.8-3.13,1-4.65c0.38-3.13-0.02-6.2-1.03-9.13
			c-1.03-2.94-2.8-5.7-4.95-8.24c-2.22-2.52-4.81-4.83-7.67-6.88c-2.85-2.06-5.94-3.89-9.15-5.52c-1.61-0.81-3.24-1.57-4.9-2.28
			c-1.62-0.7-3.4-1.39-4.91-1.89l-3.74-1.24l0.47-3.89l9.04-74.38l4.42-37.2c1.41-12.33,2.12-24.61,2.42-37
			c0.34-12.37,0.18-24.78-0.24-37.18c-0.35-12.4-0.97-24.82-1.8-37.23c-0.39-6.2-0.82-12.41-1.29-18.62l-1.36-18.64
			c-0.93-12.43-1.87-24.88-2.54-37.4c-0.05-0.87,0.62-1.62,1.5-1.67C587.68,609.35,588.36,609.88,588.53,610.62z"/>
	</g>
	<g>
		<path class="st4" d="M560.2,474.33H356.15c-2.62,0-4.74-2.12-4.74-4.74c0-2.62,2.12-4.74,4.74-4.74H560.2
			c2.62,0,4.74,2.12,4.74,4.74C564.94,472.2,562.82,474.33,560.2,474.33z"/>
	</g>
	<g class="st5">
		<path class="st4" d="M437.12,951.29c-7.9,16.46-37.85,19.65-59.52,22.35c-47.92,5.96-74.5-1.78-78.3-23.49
			c39.22,14.87,108.37,6.38,120.19-12.49c15.31-24.42,17.79-48.83-6.02-79.26c-23.8-30.42-25.64-78.43-25.64-78.43
			c11.38,7.99,34.78,16.67,50.81,22.09C437.03,844.68,452.77,918.68,437.12,951.29z"/>
	</g>
	<g class="st5">
		<path class="st4" d="M617.04,950.22c-3.83,21.65-30.42,29.37-78.27,23.42c-21.67-2.7-51.63-5.89-59.54-22.35
			c-15.77-32.85,0.33-107.61-1.54-150.2c13.26-3.96,37.81-12.05,50.74-21.13c0,0,6.52,36.85-21.22,75.89
			c-22.37,31.5-24,56.56-8.69,80.97C509.38,954.14,573.92,961.25,617.04,950.22z"/>
	</g>
	<g>
		<path class="st4" d="M540.04,877.75c-16.97,0-38.89-3.17-66.85-12.29c-2.49-0.81-3.85-3.49-3.04-5.97
			c0.81-2.49,3.48-3.85,5.97-3.04c82.63,26.95,107.89-0.83,108.13-1.11c1.7-1.96,4.68-2.22,6.66-0.54c1.98,1.68,2.27,4.61,0.62,6.61
			C590.76,862.36,577.44,877.75,540.04,877.75z"/>
	</g>
	<g>
		<path class="st4" d="M372.05,879.76c-17.79,0-34.89-3.18-45.84-12.84c-1.96-1.73-2.15-4.73-0.42-6.69
			c1.73-1.96,4.73-2.15,6.69-0.42c27.45,24.2,107.18-0.71,107.98-0.96c2.49-0.79,5.16,0.59,5.95,3.08s-0.59,5.16-3.08,5.95
			C441.06,868.61,405.35,879.76,372.05,879.76z"/>
	</g>
	<g>
		<path class="st4" d="M437.91,805.7c-2.58-0.39-4.83-0.88-7.18-1.47c-2.32-0.6-4.61-1.26-6.87-2.01
			c-4.53-1.47-8.96-3.24-13.26-5.29c-2.16-0.99-4.27-2.09-6.37-3.21c-2.05-1.21-4.14-2.33-6.13-3.64c-4.05-2.45-7.76-5.6-10.5-9.77
			c-0.13-0.2-0.07-0.46,0.12-0.59c0.1-0.06,0.21-0.08,0.31-0.06l0.02,0c4.92,0.96,9,2.81,13.15,4.61c4.11,1.85,8.33,3.44,12.56,4.92
			c2.12,0.74,4.26,1.41,6.39,2.11l6.44,1.89c2.16,0.58,4.31,1.16,6.47,1.69c2.13,0.52,4.38,1.05,6.35,1.47l0.17,0.04
			c2.56,0.54,4.2,3.06,3.65,5.62C442.73,804.46,440.37,806.06,437.91,805.7z"/>
	</g>
	<g>
		<path class="st4" d="M476.83,796.34c1.97-0.42,4.22-0.95,6.35-1.47c2.16-0.53,4.31-1.11,6.47-1.69l6.44-1.89
			c2.13-0.7,4.27-1.37,6.39-2.11c4.24-1.48,8.45-3.07,12.56-4.92c4.15-1.8,8.23-3.65,13.15-4.61l0.01,0
			c0.23-0.04,0.45,0.11,0.5,0.34c0.02,0.11,0,0.22-0.06,0.31c-2.74,4.18-6.45,7.32-10.5,9.77c-1.99,1.31-4.08,2.43-6.13,3.64
			c-2.09,1.12-4.21,2.22-6.37,3.21c-4.29,2.05-8.72,3.82-13.26,5.29c-2.26,0.75-4.56,1.41-6.87,2.01c-2.35,0.59-4.6,1.08-7.18,1.47
			c-2.59,0.39-5-1.39-5.39-3.98c-0.37-2.49,1.26-4.82,3.69-5.34L476.83,796.34z"/>
	</g>
	<g>
		<path class="st4" d="M334.11,904.64c3.16-0.57,6.07-0.92,9.11-1.17c3.01-0.25,6.02-0.4,9.04-0.42c3.02-0.04,6.04,0,9.05,0.22
			c3.02,0.13,6.03,0.49,9.03,0.86c6.01,0.84,11.95,2.23,17.75,4.11c5.75,1.98,11.33,4.98,15.46,9.62c0.15,0.17,0.14,0.43-0.03,0.58
			c-0.1,0.09-0.23,0.12-0.35,0.1l-0.02,0c-6.02-1.23-11.33-2.67-16.83-3.95c-5.53-1.13-11.14-1.77-16.78-2.13
			c-2.84-0.07-5.66-0.22-8.49-0.18c-1.42-0.02-2.83,0.01-4.25,0.07c-1.42,0.04-2.83,0.05-4.25,0.15c-2.83,0.15-5.67,0.32-8.49,0.59
			c-2.79,0.24-5.71,0.55-8.32,0.9l-0.16,0.02c-2.59,0.34-4.98-1.48-5.32-4.07C329.92,907.41,331.64,905.09,334.11,904.64z"/>
	</g>
	<g>
		<path class="st4" d="M580.64,913.98c-2.62-0.35-5.53-0.66-8.32-0.9c-2.82-0.27-5.66-0.44-8.49-0.59c-1.42-0.1-2.83-0.11-4.25-0.15
			c-1.42-0.06-2.84-0.09-4.25-0.07c-2.84-0.03-5.66,0.11-8.49,0.18c-5.64,0.36-11.25,1-16.78,2.13c-5.5,1.29-10.81,2.73-16.83,3.95
			l-0.02,0c-0.22,0.05-0.44-0.1-0.49-0.32c-0.03-0.13,0.01-0.26,0.1-0.36c4.13-4.64,9.71-7.64,15.46-9.62
			c5.79-1.88,11.74-3.27,17.75-4.11c3-0.36,6.02-0.73,9.03-0.86c3.02-0.22,6.04-0.26,9.05-0.22c3.02,0.02,6.03,0.17,9.04,0.42
			c3.04,0.25,5.95,0.6,9.11,1.17c2.57,0.46,4.29,2.93,3.82,5.5c-0.45,2.5-2.78,4.18-5.27,3.86L580.64,913.98z"/>
	</g>
	<g>
		<g class="st5">
			<path class="st4" d="M457.32,697.1c1.2,1.84,2.36,3.64,3.48,5.41C459.67,700.74,458.51,698.93,457.32,697.1z"/>
		</g>
		<g class="st5">
			<path class="st4" d="M597.27,716.71c-8.86,0.98-19.23,1.74-29.61,1.65c-0.79,0-1.6-0.01-2.39-0.04
				c-0.83-0.01-1.68-0.05-2.52-0.08c-0.57,0-1.14-0.02-1.67-0.05c-0.68-0.04-1.33-0.08-1.98-0.12c-0.84-0.05-1.68-0.11-2.51-0.17
				h-0.06c-0.82-0.07-1.66-0.13-2.49-0.23c-0.55-0.05-1.09-0.11-1.62-0.17c-0.46-0.04-0.92-0.09-1.37-0.15
				c-0.71-0.07-1.43-0.18-2.13-0.26c-0.66-0.11-1.32-0.2-1.97-0.31c-0.12-0.01-0.26-0.04-0.38-0.07c-0.77-0.09-1.52-0.24-2.26-0.38
				c-0.76-0.13-1.49-0.28-2.22-0.44c-0.07-0.01-0.12-0.02-0.19-0.04c-0.4-0.09-0.82-0.19-1.23-0.28c-0.45-0.09-0.9-0.21-1.34-0.32
				h-0.02c-0.24-0.07-0.49-0.13-0.71-0.2v9.12c0,12.61-10.33,22.92-22.94,22.92H390.47c-12.59,0-22.92-10.32-22.92-22.92v-7.29
				c-15.73,2.39-33.94,1.49-48.47-0.07c0.6-14.45,1.62-29.12,2.96-43.74c13.47,0.54,30.64,0.76,45.5-0.53V656.2
				c0-12.61,10.33-22.9,22.92-22.9h125.19c7.42,0,14.05,3.57,18.24,9.07c2.94,3.85,4.69,8.65,4.69,13.83v15.33
				c2.65,0.39,5.43,0.71,8.3,0.97c15.47,1.41,33.56,1.13,47.42,0.53C595.65,687.63,596.68,702.28,597.27,716.71z"/>
		</g>
		<g>
			<path class="st2" d="M389.73,698.11c-17.74,7.18-45.2,5.68-63.92,3.41c-11.23-1.36-19.11-11.72-17.46-22.91l0,0
				c1.51-10.21,10.5-17.63,20.81-17.15c17.51,0.82,43.78,1.2,60.41-2.48"/>
		</g>
		<g class="st5">
			<path class="st4" d="M389.73,698.11c-17.75,7.18-45.2,5.67-63.93,3.41c-11.22-1.36-19.11-11.72-17.45-22.91
				c0.32-2.14,0.96-4.17,1.88-6.02c2.91,5.83,8.6,10.14,15.57,10.98c18.71,2.27,46.11,3.77,63.86-3.39L389.73,698.11z"/>
		</g>
		<g>
			<path class="st4" d="M354.46,708.14c-10.27,0-20.48-0.85-29.22-1.91c-6.7-0.81-12.65-4.21-16.74-9.58
				c-4.1-5.38-5.82-12.03-4.83-18.72c1.87-12.68,12.92-21.76,25.72-21.19c18.25,0.86,43.32,1.14,59.16-2.38
				c2.49-0.55,8.67-0.57,12.32,11.15c3.7,11.9,3.29,31.89-9.35,37C381.1,706.72,367.73,708.14,354.46,708.14z M328.2,666.18
				c-7.59,0-14.04,5.53-15.16,13.13c-0.61,4.14,0.45,8.26,2.99,11.59c2.53,3.32,6.21,5.42,10.35,5.92
				c26.77,3.24,48.63,2.14,61.58-3.1l0,0c3.82-1.55,4.93-7.74,5.22-10.33c1.05-9.1-1.72-17.54-3.45-19.6
				c-16.87,3.54-42.28,3.27-60.79,2.4C328.69,666.19,328.45,666.18,328.2,666.18z"/>
		</g>
		<g>
			<path class="st2" d="M589.37,701.53c-8.78,1.06-19.5,1.96-30.23,1.86c-0.74,0-1.47-0.01-2.21-0.03
				c-0.77-0.01-1.56-0.03-2.33-0.07c-0.53-0.01-1.04-0.03-1.55-0.06c-0.62-0.03-1.22-0.07-1.83-0.1c-0.77-0.04-1.55-0.1-2.31-0.16
				h-0.06c-0.76-0.06-1.53-0.12-2.3-0.2c-0.5-0.04-1.01-0.1-1.5-0.16c-0.43-0.03-0.85-0.09-1.27-0.13
				c-0.66-0.08-1.32-0.17-1.96-0.26c-0.62-0.09-1.22-0.18-1.81-0.28c-0.12-0.01-0.25-0.02-0.36-0.06c-0.71-0.1-1.4-0.22-2.08-0.36
				c-0.69-0.12-1.38-0.26-2.05-0.4c-0.06-0.01-0.11-0.02-0.17-0.03c-0.38-0.09-0.76-0.17-1.13-0.26c-0.41-0.09-0.83-0.19-1.24-0.3
				h-0.01c-1.27-0.31-2.51-0.67-3.72-1.05c-0.65-0.2-1.3-0.43-1.94-0.65c-0.64-0.22-1.27-0.47-1.87-0.72l0.08-18.79l0.09-20.34
				c4.26,0.95,9.15,1.62,14.36,2.09c15.15,1.38,33.01,1,46.04,0.39c0.31-0.01,0.63-0.02,0.95-0.02c9.9,0,18.39,7.28,19.85,17.17
				C608.48,689.81,600.6,700.17,589.37,701.53z"/>
		</g>
		<g class="st5">
			<path class="st4" d="M589.37,701.53c-8.78,1.07-19.5,1.95-30.23,1.86c-0.73,0-1.47-0.01-2.2-0.04c-0.77-0.01-1.55-0.04-2.33-0.07
				c-0.52,0-1.04-0.02-1.54-0.05c-0.62-0.04-1.22-0.07-1.82-0.11c-0.77-0.05-1.55-0.09-2.31-0.15h-0.06
				c-0.76-0.06-1.53-0.12-2.3-0.2c-0.5-0.05-1.01-0.11-1.49-0.15c-0.43-0.04-0.85-0.09-1.27-0.14c-0.66-0.07-1.33-0.17-1.97-0.25
				c-0.62-0.09-1.22-0.18-1.81-0.28c-0.12-0.01-0.25-0.02-0.36-0.06c-0.71-0.09-1.4-0.23-2.09-0.36c-0.7-0.12-1.37-0.26-2.05-0.4
				c-0.06-0.01-0.11-0.02-0.17-0.04c-0.38-0.08-0.76-0.17-1.14-0.26c-0.41-0.08-0.83-0.19-1.24-0.3h-0.01
				c-1.26-0.32-2.5-0.68-3.71-1.05c-0.65-0.2-1.3-0.43-1.94-0.65c-0.64-0.23-1.27-0.47-1.87-0.71l0.08-17.91
				c0.58,0.24,1.17,0.47,1.79,0.69c0.64,0.23,1.29,0.45,1.94,0.65c1.21,0.38,2.45,0.73,3.71,1.05h0.01c0.41,0.11,0.83,0.21,1.24,0.3
				c0.38,0.09,0.76,0.17,1.14,0.26c0.06,0.01,0.11,0.02,0.17,0.04c0.68,0.14,1.35,0.27,2.05,0.4c0.69,0.13,1.37,0.25,2.09,0.36
				c0.11,0.04,0.24,0.05,0.36,0.06c0.59,0.09,1.2,0.19,1.81,0.27c0.64,0.09,1.3,0.18,1.97,0.26c0.41,0.05,0.84,0.11,1.27,0.13
				c0.49,0.06,1,0.12,1.49,0.17c0.77,0.07,1.54,0.14,2.3,0.2h0.06c0.76,0.05,1.54,0.11,2.31,0.15c0.6,0.04,1.21,0.07,1.82,0.09
				c0.5,0.02,1.02,0.05,1.54,0.06c0.78,0.04,1.56,0.06,2.33,0.07c0.73,0.02,1.47,0.04,2.2,0.04c10.73,0.09,21.45-0.79,30.23-1.86
				c6.97-0.85,12.66-5.17,15.58-10.99c0.92,1.85,1.58,3.87,1.88,6.02C608.49,689.81,600.6,700.18,589.37,701.53z"/>
		</g>
		<g>
			<path class="st4" d="M560.73,708.14c-13.28,0-26.64-1.42-37.05-5.63c-12.63-5.11-13.05-25.1-9.35-37
				c3.64-11.72,9.83-11.7,12.32-11.15c15.84,3.51,40.91,3.23,59.16,2.38c12.79-0.58,23.84,8.51,25.72,21.19
				c0.99,6.7-0.73,13.35-4.83,18.72c-4.1,5.37-10.04,8.77-16.74,9.58C581.2,707.29,570.99,708.14,560.73,708.14z M525.46,663.8
				c-1.74,2.06-4.5,10.49-3.46,19.6c0.3,2.59,1.4,8.78,5.22,10.33l0,0c12.94,5.24,34.81,6.34,61.58,3.1
				c4.14-0.5,7.82-2.6,10.35-5.92c2.54-3.33,3.6-7.44,2.99-11.59c-1.16-7.85-8.01-13.51-15.9-13.11
				C567.74,667.07,542.33,667.34,525.46,663.8z"/>
		</g>
		<g>
			<path class="st2" d="M532.31,646.05v62.71c0,11.63-9.52,21.16-21.16,21.16H395.67c-11.62,0-21.14-9.52-21.14-21.16v-62.71
				c0-11.63,9.52-21.14,21.14-21.14h115.48c6.85,0,12.96,3.3,16.84,8.38C530.7,636.84,532.31,641.27,532.31,646.05z"/>
		</g>
		<g class="st5">
			<path class="st4" d="M532.31,646.05v62.71c0,11.63-9.52,21.15-21.16,21.15H395.66c-11.63,0-21.14-9.51-21.14-21.14v-23.47
				c12.37,24.05,54.41,33.51,88.99,30.01c7.73-0.78,13.25-8.12,11.41-15.67c-0.55-2.25-0.85-4.64-0.85-7.11
				c0-13.68,9.06-24.77,20.24-24.77c10.81,0,19.66,10.37,20.23,23.44c13.86-18.11,14.61-42.36,13.44-57.92
				C530.7,636.84,532.31,641.27,532.31,646.05z"/>
		</g>
		<g>
			<path class="st4" d="M509.94,734.65H396.89c-14.94,0-27.1-12.16-27.1-27.1v-60.28c0-14.94,12.16-27.1,27.1-27.1h113.05
				c14.94,0,27.1,12.16,27.1,27.1v60.28C537.04,722.49,524.88,734.65,509.94,734.65z M396.89,629.64c-9.72,0-17.62,7.91-17.62,17.62
				v60.28c0,9.72,7.91,17.62,17.62,17.62h113.05c9.72,0,17.62-7.91,17.62-17.62v-60.28c0-9.72-7.91-17.62-17.62-17.62H396.89z"/>
		</g>
		<g>
			
				<ellipse transform="matrix(0.7071 -0.7071 0.7071 0.7071 -334.2155 547.9499)" class="st9" cx="494.33" cy="677.41" rx="18.24" ry="18.24"/>
		</g>
		<g>
			<path class="st2" d="M512.57,677.41c0,0.99-0.08,1.96-0.24,2.91c-1.39-8.69-8.92-15.33-18-15.33c-9.08,0-16.62,6.64-18,15.33
				c-0.16-0.95-0.24-1.92-0.24-2.91c0-10.07,8.17-18.24,18.24-18.24C504.4,659.17,512.57,667.34,512.57,677.41z"/>
		</g>
		<g class="st5">
			<path class="st4" d="M512.56,677.41c0,10.07-8.16,18.23-18.23,18.23s-18.23-8.16-18.23-18.23c0-2.33,0.44-4.55,1.25-6.6
				c2.63,6.8,9.24,11.62,16.98,11.62c7.74,0,14.36-4.82,16.98-11.62C512.12,672.85,512.56,675.08,512.56,677.41z"/>
		</g>
		<g>
			<path class="st4" d="M494.33,699.2c-12.02,0-21.79-9.78-21.79-21.79c0-12.02,9.78-21.79,21.79-21.79s21.79,9.77,21.79,21.79
				C516.12,689.42,506.34,699.2,494.33,699.2z M494.33,662.73c-8.1,0-14.68,6.59-14.68,14.68c0,8.1,6.59,14.68,14.68,14.68
				c8.1,0,14.68-6.59,14.68-14.68C509.01,669.31,502.42,662.73,494.33,662.73z"/>
		</g>
		<g>
			<path class="st4" d="M442.65,734.65c-2.62,0-4.74-2.12-4.74-4.74v-34c0-5.23-2.49-10.23-6.67-13.37l-5.98-4.5
				c-6.54-4.92-10.45-12.75-10.45-20.94V624.9c0-2.62,2.12-4.74,4.74-4.74c2.62,0,4.74,2.12,4.74,4.74v32.19
				c0,5.23,2.49,10.23,6.67,13.37l5.98,4.5c6.54,4.93,10.45,12.75,10.45,20.94v34C447.38,732.53,445.26,734.65,442.65,734.65z"/>
		</g>
	</g>
	<g>
		<path class="st6" d="M735.19,469.58v497.43c0,4.73-3.84,8.57-8.57,8.57s-8.57-3.84-8.57-8.57V469.58H735.19z"/>
	</g>
	<g>
		<path class="st4" d="M726.62,980.32c-7.34,0-13.3-5.97-13.3-13.3V464.85h26.61v502.17C739.93,974.35,733.96,980.32,726.62,980.32z
			 M722.8,474.33v492.69c0,2.11,1.72,3.83,3.83,3.83c2.11,0,3.83-1.72,3.83-3.83V474.33H722.8z"/>
	</g>
	<g class="st5">
		<rect x="718.06" y="469.58" class="st4" width="17.13" height="19.19"/>
	</g>
	<g>
		<path class="st0" d="M716.8,473.44h19.65c7.77,0,14.78-4.75,17.57-12.01c1.13-2.93,2.61-6.33,4.58-10.11
			c7.5-14.5,23.11-41.09,16.37-60.27c-5.09-14.47-23.77-23.5-36.36-28.08c-7.73-2.81-16.22-2.81-23.95,0
			c-12.59,4.58-31.27,13.61-36.36,28.08c-6.74,19.17,8.87,45.77,16.37,60.27c1.96,3.79,3.45,7.19,4.58,10.11
			C702.02,468.69,709.03,473.44,716.8,473.44L716.8,473.44z"/>
	</g>
	<g class="st1">
		<path class="st2" d="M776.22,407.1c-0.27-1.73-0.68-3.42-1.26-5.06c-5.09-14.48-23.77-23.5-36.36-28.09
			c-7.74-2.81-16.23-2.81-23.95,0c-12.59,4.58-31.28,13.61-36.36,28.09c-0.58,1.63-0.98,3.33-1.26,5.06
			c-0.73-5.63-0.49-11.09,1.26-16.05c5.08-14.47,23.77-23.5,36.36-28.08c7.72-2.82,16.22-2.82,23.95,0
			c12.59,4.57,31.26,13.61,36.36,28.08C776.7,396.01,776.95,401.48,776.22,407.1z"/>
	</g>
	<g>
		<path class="st4" d="M736.45,478.18H716.8c-9.69,0-18.53-6.05-21.99-15.04c-1.2-3.13-2.67-6.37-4.36-9.64
			c-0.64-1.23-1.33-2.54-2.06-3.93c-8.53-16.17-21.42-40.6-14.57-60.08c5.57-15.82,24.39-25.57,39.21-30.96
			c8.77-3.19,18.43-3.19,27.2,0c14.82,5.39,33.64,15.14,39.21,30.96c6.85,19.49-6.04,43.92-14.57,60.09
			c-0.73,1.39-1.43,2.7-2.06,3.93c-1.69,3.26-3.16,6.5-4.36,9.64C754.98,472.13,746.14,478.18,736.45,478.18z M726.62,365.6
			c-3.51,0-7.02,0.61-10.36,1.82c-10.56,3.84-28.95,12.22-33.51,25.2c-5.48,15.58,6.72,38.7,14.01,52.52c0.75,1.41,1.45,2.75,2.1,4
			c1.85,3.57,3.46,7.14,4.79,10.59c2.06,5.37,7.35,8.97,13.15,8.97h19.65c5.8,0,11.08-3.6,13.15-8.97
			c1.33-3.46,2.94-7.02,4.79-10.59c0.65-1.25,1.35-2.58,2.1-4c7.29-13.81,19.49-36.94,14.01-52.52
			c-4.56-12.98-22.95-21.36-33.51-25.2C733.64,366.21,730.13,365.6,726.62,365.6z"/>
	</g>
	<g>
		<path class="st4" d="M736.45,478.17h-19.64c-9.7,0-18.54-6.04-21.99-15.04c-1.25-3.21-2.72-6.46-4.37-9.63
			c-0.63-1.22-1.32-2.53-2.05-3.91c-8.53-16.17-21.43-40.62-14.57-60.11c5.22-14.87,22.29-24.32,35.7-29.62
			c1.18-0.48,2.38-0.93,3.53-1.35c8.74-3.19,18.4-3.19,27.18,0.01c1.13,0.4,2.33,0.86,3.56,1.36c13.34,5.28,30.41,14.72,35.65,29.6
			c6.86,19.51-6.06,43.97-14.6,60.15c-0.72,1.37-1.4,2.66-2.03,3.87c-1.7,3.3-3.17,6.54-4.36,9.64
			C754.97,472.13,746.13,478.17,736.45,478.17z M726.62,365.6c-3.51,0-7.01,0.61-10.34,1.83c-1.05,0.38-2.13,0.78-3.22,1.23
			c-16.4,6.49-27.14,15-30.29,23.97c-5.48,15.59,6.72,38.72,14.02,52.55c0.74,1.4,1.44,2.73,2.08,3.97
			c1.8,3.48,3.42,7.04,4.79,10.58c2.07,5.38,7.35,8.98,13.15,8.98h19.64c5.8,0,11.08-3.6,13.15-8.97c1.31-3.42,2.92-6.98,4.78-10.58
			l0-0.01c0.64-1.23,1.33-2.54,2.06-3.93c7.31-13.83,19.53-36.98,14.04-52.58c-3.16-8.98-13.9-17.48-30.24-23.95
			c-1.14-0.47-2.22-0.87-3.24-1.24C733.65,366.21,730.13,365.6,726.62,365.6z"/>
	</g>
	<g>
		<path class="st6" d="M758.59,451.32c-1.95,3.79-3.45,7.19-4.57,10.12c-2.8,7.25-9.8,12-17.57,12h-19.64
			c-7.77,0-14.79-4.75-17.57-12c-1.14-2.93-2.62-6.33-4.58-10.12c-7.5-14.49-23.1-41.1-16.36-60.27
			c4.64-13.22,20.64-21.91,32.97-26.79c-6.66,8.26-19.22,26.57-16.5,44.39c2.07,13.62,14.81,40.54,18.22,47.59
			c0.51,1.05,1.58,1.72,2.76,1.72h0.01c1.74,0,3.14-1.45,3.06-3.19c-0.64-15.15-2.74-79.7,7.82-93.91
			c10.56,14.22,8.46,78.76,7.82,93.91c-0.08,1.74,1.31,3.19,3.06,3.19c1.18,0,2.25-0.66,2.76-1.72
			c3.41-7.05,16.16-33.97,18.23-47.59c2.71-17.82-9.84-36.13-16.5-44.39c12.33,4.88,28.31,13.56,32.97,26.79
			C781.7,410.22,766.1,436.83,758.59,451.32z"/>
	</g>
	<g class="st5">
		<path class="st4" d="M758.59,451.32c-1.95,3.79-3.45,7.19-4.57,10.12c-2.8,7.25-9.8,12-17.57,12h-19.64
			c-7.77,0-14.79-4.75-17.57-12c-1.14-2.93-2.62-6.33-4.58-10.12c-7.5-14.49-23.1-41.1-16.36-60.27c0.92-2.63,2.3-5.09,4.02-7.37
			c-6.1,17.56,8.16,41.89,15.02,55.15c1.8,3.47,3.16,6.59,4.19,9.26c2.56,6.65,8.98,10.99,16.1,10.99h18.01
			c7.12,0,13.53-4.35,16.1-10.99c1.03-2.68,2.39-5.79,4.18-9.26c6.87-13.26,21.12-37.57,15.05-55.12c1.71,2.27,3.08,4.72,4,7.35
			C781.7,410.22,766.1,436.83,758.59,451.32z"/>
	</g>
	<g>
		<path class="st4" d="M736.45,476.62h-19.64c-9.06,0-17.31-5.64-20.54-14.04c-1.27-3.27-2.76-6.56-4.44-9.79
			c-0.63-1.22-1.33-2.53-2.06-3.92c-8.41-15.93-21.11-40.01-14.48-58.87c5.03-14.32,21.7-23.5,34.8-28.69
			c1.34-0.53,2.88-0.09,3.73,1.07c0.86,1.16,0.82,2.76-0.09,3.88c-5.62,6.97-18.41,25-15.83,41.92
			c1.56,10.26,10.16,30.56,17.75,46.3c-1.05-24.17-2.2-81.21,8.42-95.51c0.6-0.81,1.55-1.28,2.55-1.28s1.95,0.48,2.55,1.28
			c10.61,14.29,9.47,71.22,8.46,95.52c3.77-7.94,15.76-33.48,17.71-46.31c2.58-16.91-10.22-34.95-15.84-41.92
			c-0.91-1.12-0.94-2.72-0.09-3.88c0.86-1.16,2.39-1.6,3.73-1.07c13.09,5.18,29.76,14.36,34.8,28.69
			c6.64,18.87-6.09,42.96-14.51,58.91c-0.72,1.37-1.41,2.66-2.03,3.87c-1.73,3.35-3.22,6.65-4.43,9.8
			C753.75,470.97,745.49,476.62,736.45,476.62z M701.72,372.15c-8.92,4.78-17.41,11.37-20.42,19.96
			c-5.71,16.23,6.7,39.74,14.11,53.79c0.74,1.4,1.44,2.72,2.08,3.96c1.78,3.43,3.37,6.94,4.72,10.43c2.29,5.97,8.16,9.97,14.6,9.97
			h19.64c6.43,0,12.3-4,14.6-9.97c1.29-3.36,2.88-6.87,4.71-10.43c0,0,0,0,0-0.01c0.64-1.23,1.33-2.54,2.06-3.92
			c7.42-14.06,19.85-37.58,14.14-53.83c-3.02-8.58-11.51-15.18-20.43-19.96c6.29,10.02,12.16,23.49,10.1,36.98
			c-2.11,13.88-14.7,40.63-18.51,48.5c-1.04,2.16-3.2,3.51-5.62,3.51c-1.7,0-3.35-0.71-4.52-1.94c-1.17-1.22-1.79-2.89-1.71-4.58
			c1.33-31.45,0.74-70.39-4.64-86.51c-5.38,16.13-5.97,55.06-4.64,86.53c0.08,1.67-0.54,3.34-1.71,4.57
			c-1.17,1.23-2.82,1.93-4.52,1.93c-2.43,0-4.59-1.35-5.64-3.51c-3.8-7.86-16.39-34.6-18.5-48.49
			C689.56,395.64,695.42,382.17,701.72,372.15z"/>
	</g>
	<g>
		<path class="st2" d="M706.5,661.18c0,0-14.25,5.69-17.33-2.26c-3.08-7.96-6.26-41.04-0.39-45.61
			c13.29-10.35,31.59,8.38,31.59,8.38L706.5,661.18z"/>
	</g>
	<g>
		<path class="st2" d="M720.37,621.68l-2.74,7.78l-11.14,31.71c0,0-8.14,3.26-13.45,1.4c-1.72-0.59-3.13-1.72-3.89-3.66
			c-3.08-7.95-6.25-41.04-0.38-45.61C702.07,602.96,720.37,621.68,720.37,621.68z"/>
	</g>
	<g class="st5">
		<path class="st4" d="M717.64,629.46l-11.14,31.71c0,0-8.14,3.26-13.45,1.4c-1.78-12.85-2.27-31.16,1.99-34.47
			C702.35,622.4,711.17,625.5,717.64,629.46z"/>
	</g>
	<g>
		<path class="st4" d="M696.89,667.88c-2.14,0-4.32-0.31-6.27-1.16c-2.76-1.2-4.79-3.31-5.86-6.09c-2.48-6.41-8.29-43.74,1.12-51.06
			c16.44-12.8,37.02,7.92,37.89,8.81l2.06,2.1l-15.56,44.31l-2,0.8C707.49,665.89,702.3,667.88,696.89,667.88z M706.5,661.18h0.02
			H706.5z M691.83,616.94c-3.01,4.3-1.32,32.33,1.76,40.27c0.16,0.42,0.37,0.63,0.8,0.82c1.86,0.81,5.56,0.24,8.41-0.59l12.07-34.38
			C710.32,619.16,699.44,611.22,691.83,616.94z"/>
	</g>
	<g class="st5">
		<path class="st4" d="M735.19,637.95v86.57c-5,1.56-10.96,2.18-17.13,0.84V642.2C724.39,638.99,730.93,637.69,735.19,637.95z"/>
	</g>
	<g>
		<path class="st2" d="M738.86,615.13c-6.48-3.8-38.76,3.82-39.55,31.59c-0.66,23.38-7.19,40.32,7.36,50.06
			c12.07,8.08,20.22,14.15,28.52,10.04C743.48,702.7,779.95,639.27,738.86,615.13z"/>
	</g>
	<g class="st5">
		<path class="st4" d="M758.02,651.46c-0.5,25.49-17.5,52.7-22.83,55.35c-8.29,4.11-16.44-1.95-28.52-10.03
			c-10.29-6.9-10.05-17.38-8.78-31.21c1.03,5.33,3.53,9.77,8.78,13.28c12.07,8.08,17.31,10.8,25.83,7.17
			C742.37,681.8,753.21,667.75,758.02,651.46z"/>
	</g>
	<g>
		<path class="st4" d="M729.65,712.91c-7.46,0-14.84-4.96-23.58-10.84l-2.03-1.36c-13.39-8.96-12.08-22.72-10.56-38.66
			c0.47-4.91,0.95-9.99,1.1-15.47c0.38-13.45,7.43-24.64,19.86-31.52c9.72-5.38,21.5-7.14,26.82-4.02h0
			c14.71,8.64,22.13,23.01,21.47,41.55c-0.91,25.54-17.41,54.48-25.44,58.46C734.7,712.35,732.17,712.91,729.65,712.91z
			 M734.2,618.93c-3.59,0-10.25,1.32-16.72,5.33c-5.94,3.69-13.1,10.61-13.44,22.59c-0.16,5.8-0.68,11.27-1.14,16.1
			c-1.55,16.26-1.92,24.32,6.4,29.89l2.04,1.37c10.76,7.24,16.62,10.89,21.74,8.36c3.94-2.45,20.49-28.79,20.21-52.84
			c-0.16-13.76-5.81-24.02-16.8-30.49C736.06,619.04,735.26,618.93,734.2,618.93z M736.51,619.24h0.02H736.51z M736.46,619.22
			L736.46,619.22C736.46,619.22,736.46,619.22,736.46,619.22L736.46,619.22z"/>
	</g>
	<g>
		<path class="st0" d="M612.1,578.9c-10.18,2.27-20.65,1-30.38-1.99c-5.03-1.54-9.86-3.53-14.35-5.71
			c-16.09-7.83-27.75-18.14-28.31-18.98l34.66-19.7l14.13-8.03c1.46,4.12,3.79,9.77,6.46,15.86
			C601.9,557.77,612.1,578.9,612.1,578.9z"/>
	</g>
	<g>
		<path class="st4" d="M601.19,584.81c-33.03,0-64.44-27.52-66.07-29.97l-2.82-4.23l58.13-33.05l1.89,5.33
			c5.5,15.5,23.86,53.56,24.05,53.94l2.6,5.38l-5.83,1.31C609.17,584.41,605.17,584.81,601.19,584.81z M547.19,553.05
			c10.2,7.99,34.81,23.91,57.88,22.12c-4.75-9.98-14.38-30.53-19.68-43.83L547.19,553.05z"/>
	</g>
	<g>
		<path class="st0" d="M358.44,552.22c-0.4,0.62-8.78,4.09-20.87,7.56c-2.91,0.84-6.04,1.67-9.32,2.46
			c-17.25,4.17-38.82,7.23-56.14,3.35c0,0,1.93-1.99,4.95-5.24c7.95-8.58,23.5-25.9,31.58-38.7c1.99-3.16,3.52-6.04,4.37-8.46
			l28.61,24.57L358.44,552.22z"/>
	</g>
	<g>
		<path class="st4" d="M289.94,572.11c-6.46,0-12.87-0.55-18.87-1.89l-8.24-1.84l5.87-6.07c0.02-0.02,1.91-1.98,4.88-5.18
			c19.07-20.55,32.15-37.57,34.97-45.52l2.31-6.51l53.86,46.26l-2.33,3.49c-3.01,4.51-33.23,12.06-33.53,12.13
			C317.99,569.58,303.83,572.11,289.94,572.11z M281.72,562.28c24.48,2.2,54.93-6.59,67.95-11.36l-35.04-30.1
			C307.54,533.41,291.95,551.19,281.72,562.28z M355.68,548.4L355.68,548.4L355.68,548.4z"/>
	</g>
	<g class="st5">
		<path class="st4" d="M594.32,540.35c-0.3,0.66-0.62,1.33-0.95,1.98c-3.85,7.52-8.68,13.94-14.24,19.39
			c-3.64,3.55-7.58,6.71-11.75,9.48c-24.32,16.17-56.58,19.63-82.18,18.01c-22.15-1.42-29.46-15.91-31.79-27.19
			c0.01,0,0-0.01,0-0.01v-0.01c-0.36-1.79-0.59-3.49-0.76-5.06c-0.47-4.9-0.12-8.36-0.12-8.36s0.31-0.24,0.88-0.68h0.01
			c8.42-6.65,74.84-58.5,98.96-67.28c3.29-1.2,6.69-1.63,10.08-1.41c2.45,10.6,6.62,29.39,11.27,53.31l14.13-8.03
			C589.32,528.61,591.65,534.26,594.32,540.35z"/>
	</g>
	<g class="st5">
		<path class="st4" d="M454.17,556.96c-0.15,1.55-0.39,3.25-0.75,5.04c0,0.01,0,0.01-0.01,0.02c-2.32,11.28-9.63,25.77-31.79,27.19
			c-26.82,1.71-60.96-2.18-85.62-20.42c-2.71-1.99-5.31-4.17-7.76-6.54c-5.79-5.56-10.82-12.16-14.8-19.91
			c-3.52-6.87-4.96-13.91-4.81-20.67c1.99-3.16,3.52-6.04,4.37-8.46l28.61,24.57c4.87-25.57,9.34-45.85,11.99-57.43
			c0.28,0.08,0.56,0.18,0.84,0.28c24.12,8.78,90.54,60.63,98.96,67.28h0.01c0.57,0.44,0.88,0.68,0.88,0.68
			S454.67,552.04,454.17,556.96z"/>
	</g>
	<g>
		<path class="st2" d="M593.44,526.82c-20.76,40.52-70.48,48.54-106.69,46.23c-21.86-1.4-29.07-15.71-31.35-26.83
			c-0.36-1.77-0.59-3.45-0.75-4.99c-0.47-4.83-0.12-8.25-0.12-8.25s0.3-0.24,0.86-0.68c8.26-6.5,73.81-57.7,97.61-66.36
			c12.47-4.54,26.53,2.06,35.6,13.86C598.02,492.07,602.08,509.95,593.44,526.82z"/>
	</g>
	<g class="st5">
		<path class="st4" d="M593.44,526.82c-20.76,40.52-70.48,48.54-106.69,46.23c-21.86-1.4-29.07-15.71-31.35-26.83
			c-0.36-1.77-0.59-3.45-0.75-4.99c-0.47-4.83-0.12-8.25-0.12-8.25s0.25-0.2,0.75-0.58c0.04,0.21,0.07,0.43,0.12,0.64
			c2.27,11.12,9.49,25.44,31.35,26.83c36.22,2.31,85.94-5.71,106.69-46.23c2.18-4.25,3.55-8.58,4.23-12.85
			C598.98,509.13,597.9,518.11,593.44,526.82z"/>
	</g>
	<g>
		<path class="st4" d="M498.12,578.14c-4.41,0-8.35-0.16-11.66-0.37c-11.74-0.75-20.93-4.97-27.33-12.56
			c-11.21-13.29-9.39-31.94-9.3-32.73l0.21-1.98l1.56-1.24c3.01-2.38,73.95-58.37,99.8-67.76c12.85-4.67,27.71,0.22,38.78,12.76
			c13.65,15.47,16.59,36.95,7.49,54.72C575.94,571.37,527.06,578.14,498.12,578.14z M459.15,535.37
			c-0.09,4.45,0.44,15.75,7.25,23.77c4.67,5.51,11.62,8.59,20.65,9.17c23.23,1.48,79.7,0.2,102.17-43.66
			c8.89-17.35,2.24-34.61-6.16-44.13c-8.31-9.41-19.46-13.38-28.43-10.12C532.31,478.52,470.19,526.73,459.15,535.37z"/>
	</g>
	<g>
		<path class="st2" d="M456.15,541.25c-0.15,1.53-0.39,3.2-0.75,4.96c-2.29,11.12-9.49,25.44-31.36,26.83
			c-36.2,2.31-85.93-5.71-106.68-46.23c-9.43-18.41-3.74-38.01,7.53-50.21c9.02-9.75,21.61-14.77,32.9-10.66
			c23.8,8.66,89.35,59.85,97.61,66.36c0.57,0.44,0.86,0.68,0.86,0.68S456.63,536.4,456.15,541.25z"/>
	</g>
	<g class="st5">
		<path class="st4" d="M456.15,541.25c-0.15,1.53-0.39,3.2-0.75,4.96c-2.29,11.12-9.49,25.44-31.36,26.83
			c-36.2,2.31-85.93-5.71-106.68-46.23c-4.49-8.76-5.56-17.78-4.22-26.16c0.69,4.24,2.05,8.53,4.22,12.76
			c20.76,40.52,70.48,48.54,106.68,46.23c21.87-1.4,29.07-15.71,31.36-26.83c0.04-0.15,0.06-0.31,0.08-0.45
			c0.52,0.4,0.78,0.62,0.78,0.62S456.63,536.4,456.15,541.25z"/>
	</g>
	<g>
		<path class="st4" d="M412.68,578.14c-28.94,0-77.83-6.77-99.54-49.16c-9.1-17.77-6.16-39.25,7.49-54.72
			c11.07-12.54,25.93-17.43,38.78-12.76c25.85,9.4,96.79,65.39,99.8,67.76l1.56,1.24l0.21,1.98c0.08,0.79,1.91,19.45-9.3,32.73
			c-6.4,7.58-15.6,11.81-27.33,12.56C421.03,577.98,417.09,578.14,412.68,578.14z M349.64,469.28c-7.46,0-15.52,4.02-21.9,11.25
			c-8.4,9.51-15.05,26.78-6.16,44.13c22.46,43.86,78.93,45.14,102.17,43.66c9.04-0.58,15.98-3.66,20.65-9.17
			c6.81-8.03,7.33-19.32,7.25-23.77c-11.04-8.64-73.15-56.85-95.48-64.97C354.09,469.65,351.89,469.28,349.64,469.28z"/>
	</g>
	<g>
		<g>
			<path class="st2" d="M625.6,399.17L625.6,399.17c-1.9,0.14-3.56-1.28-3.7-3.18l-7.41-99.14c-0.14-1.9,1.28-3.56,3.18-3.7l0,0
				c19.94-1.49,37.32,13.47,38.81,33.41l2.53,33.81C660.5,380.3,645.54,397.68,625.6,399.17z"/>
			<path class="st4" d="M625.34,400.03c-2.23,0-4.12-1.73-4.29-3.98l-7.41-99.14c-0.09-1.15,0.28-2.26,1.03-3.13
				c0.75-0.87,1.79-1.4,2.94-1.48c20.35-1.53,38.19,13.82,39.72,34.2l2.52,33.81c0.74,9.87-2.41,19.44-8.87,26.94
				c-6.46,7.5-15.45,12.04-25.32,12.78l0,0C625.56,400.02,625.45,400.03,625.34,400.03z M620.4,293.89c-0.88,0-1.76,0.03-2.66,0.1
				c-0.69,0.05-1.32,0.37-1.78,0.9c-0.45,0.53-0.67,1.2-0.62,1.89l7.41,99.14c0.11,1.43,1.36,2.5,2.79,2.4l0,0
				c9.42-0.7,18-5.03,24.16-12.19c6.16-7.16,9.17-16.28,8.46-25.7l-2.52-33.81C654.25,308.07,638.71,293.89,620.4,293.89z"/>
		</g>
		<g class="st5">
			<path class="st4" d="M657.83,344.51l1.19,15.86c1.49,19.94-13.47,37.31-33.42,38.81c-1.9,0.14-3.56-1.29-3.7-3.19l-1.98-26.35
				c0.62,1.16,1.89,1.9,3.28,1.81l2.35-0.18C641.32,370.08,653.97,358.98,657.83,344.51z"/>
		</g>
		<g>
			<path class="st4" d="M625.33,403.92c-1.96,0-3.83-0.69-5.33-1.98c-1.66-1.43-2.66-3.41-2.82-5.6l-7.41-99.14
				c-0.16-2.18,0.53-4.3,1.96-5.95c1.43-1.66,3.41-2.66,5.6-2.82c22.52-1.68,42.2,15.27,43.88,37.78l2.52,33.81
				c0.81,10.91-2.67,21.48-9.8,29.77c-7.14,8.29-17.07,13.3-27.98,14.12l0,0C625.75,403.91,625.54,403.92,625.33,403.92z
				 M625.25,394.44C625.25,394.44,625.25,394.44,625.25,394.44L625.25,394.44C625.25,394.44,625.25,394.44,625.25,394.44z
				 M619.32,297.8l7.21,96.52c7.88-0.91,15.02-4.68,20.22-10.73c5.48-6.37,8.16-14.5,7.53-22.88l-2.52-33.81
				C650.5,310.04,636.09,297.26,619.32,297.8z"/>
		</g>
		<g>
			<path class="st2" d="M290.45,317.59L290.45,317.59c1.9-0.14,3.56,1.28,3.7,3.18l7.41,99.14c0.14,1.9-1.28,3.56-3.18,3.7h0
				c-19.94,1.49-37.32-13.47-38.81-33.41l-2.53-33.81C255.55,336.45,270.51,319.08,290.45,317.59z"/>
			<path class="st4" d="M295.61,424.57c-8.86,0-17.34-3.14-24.12-8.98c-7.5-6.46-12.04-15.45-12.78-25.32l-2.52-33.81
				c-0.74-9.87,2.41-19.44,8.87-26.94c6.46-7.5,15.45-12.04,25.32-12.78l0,0c2.36-0.19,4.43,1.6,4.61,3.97l7.41,99.14
				c0.09,1.15-0.28,2.26-1.03,3.13c-0.75,0.87-1.79,1.4-2.94,1.48C297.49,424.53,296.55,424.57,295.61,424.57z M290.51,318.44
				c-9.42,0.7-18,5.03-24.16,12.19c-6.16,7.16-9.17,16.29-8.47,25.7l2.52,33.81c0.7,9.42,5.03,18,12.19,24.16
				c7.16,6.16,16.29,9.17,25.7,8.47c0.69-0.05,1.32-0.37,1.78-0.9c0.45-0.53,0.67-1.2,0.62-1.89l-7.41-99.14
				C293.19,319.41,291.95,318.34,290.51,318.44L290.51,318.44z"/>
		</g>
		<g class="st5">
			<path class="st4" d="M299.51,392.41l2.05,27.5c0.14,1.9-1.29,3.56-3.19,3.7c-10.47,0.78-20.24-2.97-27.37-9.6
				c-6.44-5.99-10.72-14.34-11.43-23.8l-1.06-14.25c6.59,12.08,19.86,19.84,34.48,18.75l3.62-0.27
				C297.92,394.34,298.99,393.53,299.51,392.41z"/>
		</g>
		<g>
			<path class="st4" d="M295.64,428.45c-21.21,0-39.2-16.41-40.8-37.9l-2.52-33.81c-0.81-10.91,2.67-21.48,9.8-29.77
				c7.14-8.29,17.07-13.3,27.98-14.12h0c4.5-0.33,8.44,3.05,8.78,7.56l7.41,99.14c0.16,2.18-0.53,4.3-1.96,5.95
				c-1.43,1.66-3.41,2.66-5.6,2.82C297.69,428.41,296.66,428.45,295.64,428.45z M289.52,322.44c-7.88,0.91-15.02,4.68-20.22,10.73
				c-5.48,6.37-8.16,14.5-7.53,22.88l2.52,33.81c0.63,8.38,4.48,16.02,10.85,21.5c6.04,5.2,13.68,7.87,21.59,7.6L289.52,322.44z"/>
		</g>
		<g class="st5">
			<path class="st4" d="M588.61,479.81c-31.01,41.15-82.34,61.29-133.33,60.47c-50.48-0.81-100.62-22.16-130.39-63.67
				c9.02-9.75,21.61-14.77,32.9-10.66c23.8,8.66,89.35,59.85,97.61,66.36c8.26-6.5,73.81-57.7,97.61-66.36
				C565.48,461.41,579.53,468.01,588.61,479.81z"/>
		</g>
		<g>
			<circle class="st2" cx="458.05" cy="358.38" r="169.41"/>
			<path class="st4" d="M458.03,528.64c-45.25,0-87.82-17.54-119.95-49.44c-32.27-32.04-50.14-74.74-50.3-120.21
				c-0.16-45.48,17.4-88.3,49.44-120.57c32.04-32.27,74.74-50.14,120.22-50.3c0.2,0,0.42,0,0.62,0
				c93.61,0,169.92,75.97,170.25,169.66c0.16,45.48-17.4,88.3-49.44,120.57c-32.04,32.27-74.74,50.14-120.22,50.3
				C458.44,528.64,458.23,528.64,458.03,528.64z M458.05,189.82c-0.2,0-0.41,0-0.61,0c-45.02,0.16-87.29,17.84-119.01,49.79
				c-31.72,31.95-49.11,74.34-48.94,119.37c0.16,45.02,17.84,87.29,49.79,119.01c31.95,31.72,74.4,49.14,119.37,48.94
				c45.02-0.16,87.29-17.84,119.01-49.79c31.72-31.95,49.11-74.34,48.94-119.37l0,0C626.27,265.04,550.72,189.82,458.05,189.82z"/>
		</g>
		<g class="st5">
			<path class="st4" d="M625.75,334.33c1.11,7.66,1.68,15.48,1.71,23.45c0.32,93.56-75.25,169.68-168.81,170.02
				c-93.56,0.32-169.68-75.25-170.02-168.81c-0.01-2.69,0.04-5.38,0.16-8.04c11.72,82.43,82.7,145.67,168.31,145.36
				C547.97,495.98,621.86,424.18,625.75,334.33z"/>
		</g>
		<g>
			<path class="st4" d="M458.03,532.53c-46.28,0-89.83-17.94-122.68-50.57c-33.01-32.77-51.28-76.44-51.45-122.96
				c-0.34-96.03,77.5-174.43,173.53-174.77c0.2,0,0.43,0,0.63,0c95.75,0,173.8,77.71,174.14,173.53
				c0.17,46.52-17.79,90.31-50.57,123.32c-32.78,33.01-76.44,51.28-122.96,51.45C458.45,532.53,458.24,532.53,458.03,532.53z
				 M458.05,193.7c-0.2,0-0.4,0-0.6,0c-90.8,0.32-164.41,74.46-164.08,165.26c0.16,43.99,17.43,85.28,48.65,116.27
				c31.21,30.99,72.63,48.02,116.61,47.82c43.99-0.16,85.28-17.43,116.27-48.65c30.99-31.21,47.97-72.63,47.82-116.61v0
				C622.39,267.19,548.58,193.7,458.05,193.7z"/>
		</g>
		<g>
			<path class="st4" d="M626.93,362.13c0.62,33.15-9.57,64.12-27.49,89.92C586,471.39,529.91,505.86,459.9,507.8
				c-64.92,1.8-124.64-31.72-138.8-50.55c-18.88-25.12-30.21-55.69-30.83-88.83c-1.64-87.71,73.04-125.48,166.01-127.22
				S625.29,274.41,626.93,362.13z"/>
		</g>
		<g>
			<path class="st4" d="M454.76,512.61c-65.24,0-122.94-33.2-137.45-52.51c-20.17-26.84-31.16-58.51-31.78-91.59
				c-0.81-43.15,15.88-76.74,49.59-99.85c29.37-20.13,71.24-31.27,121.07-32.2c49.84-0.93,92.09,8.63,122.19,27.65
				c34.55,21.83,52.48,54.78,53.28,97.93l0,0c0.62,33.08-9.18,65.14-28.34,92.72c-13.29,19.13-68.97,55.72-143.3,57.78
				C458.27,512.58,456.51,512.61,454.76,512.61z M462.82,245.87c-2.14,0-4.28,0.02-6.45,0.06
				c-49.19,0.92-163.37,14.68-161.36,122.39c0.58,31.07,10.91,60.84,29.88,86.08c13.46,17.91,71.62,50.42,134.88,48.66
				c70.08-1.94,123.83-36.51,135.78-53.71c18.01-25.93,27.23-56.06,26.65-87.13l0,0c-0.74-39.76-17.18-70.07-48.87-90.09
				C546.08,254.91,507.98,245.87,462.82,245.87z"/>
		</g>
		<g class="st10">
			<g>
				
					<ellipse transform="matrix(0.1599 -0.9871 0.9871 0.1599 133.8275 859.7119)" class="st6" cx="572" cy="351.23" rx="29.98" ry="21.72"/>
			</g>
		</g>
		<g class="st10">
			<g>
				
					<ellipse transform="matrix(0.2948 -0.9556 0.9556 0.2948 -7.4268 812.1505)" class="st6" cx="546.5" cy="411.11" rx="13.76" ry="11.81"/>
			</g>
		</g>
		<g class="st5">
			<path class="st11" d="M592.66,280.91c20.94,19.25,33.6,45.98,34.27,81.21c0.62,33.15-9.57,64.12-27.48,89.93
				c-13.44,19.35-69.54,53.81-139.55,55.75c-24.72,0.69-48.68-3.75-69.67-10.55c86.01-4.22,154.33-46.52,170.99-70.51
				c22.75-32.75,35.68-72.07,34.89-114.13C595.9,301.37,594.71,290.81,592.66,280.91z"/>
		</g>
		<g>
			<path class="st4" d="M301.55,298.12c-1.1,0-2.2-0.38-3.1-1.16c-1.86-1.62-2.16-4.37-0.75-6.33
				c28.99-44.3,86.28-70.46,157.22-71.78c70.52-1.3,128.75,21.9,159.81,63.7c1.33,1.7,1.37,4.15-0.04,5.9
				c-1.64,2.03-4.6,2.37-6.64,0.74l-0.48-0.38l-0.39-0.51c-29.2-39.36-84.66-61.18-152.09-59.96
				c-67.83,1.27-122.34,25.92-149.55,67.63l-0.41,0.54C304.2,297.57,302.88,298.12,301.55,298.12z M301.39,293.24l0.17,0.15
				L301.39,293.24z"/>
		</g>
		<g class="st10">
			<g>
				<path class="st6" d="M329.05,419.89c0,0-28.78-86.02,17.21-121.37s113.08-36.47,111.6-32.13c0,0-73.94,19.37-101.91,78.63
					C334.38,390.71,329.05,419.89,329.05,419.89z"/>
			</g>
		</g>
	</g>
	<g>
		<path class="st6" d="M499.68,193.03L488.61,92.86c7.11-1.64,12.94-7.34,14.35-14.98c1.9-10.26-4.88-20.12-15.14-22.02
			c-10.26-1.9-20.12,4.88-22.02,15.14c-1.45,7.86,2.18,15.47,8.57,19.46l-43.16,89.66"/>
	</g>
	<g class="st5">
		<path class="st4" d="M499.68,193.03L488.61,92.86c7.11-1.64,12.94-7.34,14.35-14.98c1.9-10.26-4.88-20.12-15.14-22.02
			c-10.26-1.9-20.12,4.88-22.02,15.14c-1.45,7.86,2.18,15.47,8.57,19.46l-43.16,89.66"/>
	</g>
	<g>
		<path class="st4" d="M499.67,197.77c-2.38,0-4.44-1.79-4.7-4.22L483.43,89.19l4.11-0.95c5.51-1.27,9.73-5.67,10.75-11.22
			c0.69-3.72-0.11-7.48-2.26-10.6c-2.14-3.12-5.37-5.21-9.09-5.9c-7.67-1.42-15.07,3.67-16.49,11.34
			c-1.06,5.76,1.46,11.48,6.43,14.58l3.6,2.25l-45,93.49c-1.14,2.36-3.97,3.35-6.33,2.22c-2.36-1.14-3.35-3.97-2.22-6.33
			l41.48-86.18c-5.98-5.44-8.8-13.57-7.29-21.75c2.37-12.81,14.72-21.31,27.54-18.94c6.21,1.15,11.6,4.65,15.17,9.85
			c3.58,5.2,4.91,11.48,3.77,17.69c-1.45,7.84-6.72,14.32-13.88,17.4l10.65,96.36c0.29,2.6-1.59,4.94-4.19,5.23
			C500.02,197.76,499.84,197.77,499.67,197.77z"/>
	</g>
	<g>
		<path class="st6" d="M578.73,224.86L598.28,126c7.28,0.58,14.55-3.11,18.19-9.97c4.89-9.22,1.39-20.65-7.82-25.55
			c-9.22-4.89-20.65-1.39-25.55,7.82c-3.75,7.06-2.57,15.41,2.33,21.14l-68.11,72.54"/>
	</g>
	<g class="st5">
		<path class="st4" d="M578.73,224.86L598.28,126c7.28,0.58,14.55-3.11,18.19-9.97c4.89-9.22,1.39-20.65-7.82-25.55
			c-9.22-4.89-20.65-1.39-25.55,7.82c-3.75,7.06-2.57,15.41,2.33,21.14l-68.11,72.54"/>
	</g>
	<g>
		<path class="st4" d="M578.74,229.6c-0.31,0-0.61-0.03-0.92-0.09c-2.57-0.51-4.24-3-3.73-5.57l20.37-103l4.2,0.33
			c5.62,0.44,10.98-2.48,13.63-7.47c3.66-6.89,1.03-15.48-5.86-19.14c-3.34-1.77-7.17-2.14-10.78-1.03
			c-3.62,1.11-6.58,3.56-8.36,6.89c-2.75,5.17-2.06,11.39,1.74,15.84l2.76,3.23l-71.02,75.63c-1.79,1.91-4.79,2-6.7,0.21
			c-1.91-1.79-2-4.79-0.21-6.7l65.47-69.72c-4.07-6.98-4.32-15.59-0.42-22.93c2.96-5.58,7.92-9.66,13.95-11.51
			c6.04-1.85,12.43-1.23,18.01,1.73c11.51,6.11,15.9,20.45,9.79,31.96c-3.74,7.05-10.71,11.63-18.47,12.43l-18.81,95.1
			C582.93,228.04,580.95,229.6,578.74,229.6z"/>
	</g>
	<g>
		<path class="st6" d="M663.98,132.19c-2.61,9.28-11.71,14.97-21,13.56l-49.99,101.64l-4.96-0.45
			c-29.62-2.66-58.84-8.13-87.29-16.31c-28.44-8.17-56.11-19.05-82.61-32.53l5.61-114.07c-9.08-3.42-14.19-13.28-11.51-22.79
			c1.69-5.95,6.03-10.43,11.39-12.51c3.68-1.42,7.84-1.71,11.94-0.56c10.03,2.84,15.88,13.27,13.05,23.31
			c-1.54,5.44-5.29,9.64-10.02,11.91l9.67,42.34c3.12,13.66,15.64,20.6,27.42,19.19c7.07-0.84,13.87-4.7,18.22-11.92l51.19-85.32
			c-6-4.56-8.92-12.47-6.75-20.17c2.83-10.04,13.27-15.89,23.31-13.07c10.05,2.84,15.89,13.28,13.06,23.32
			c-2.1,7.47-8.42,12.62-15.66,13.6l1.84,100.76c0.41,22.55,28.2,32.99,43.35,16.27l26.79-29.57c-3.65-4.59-5.11-10.81-3.41-16.88
			c2.84-10.05,13.28-15.89,23.31-13.07C660.96,111.7,666.81,122.14,663.98,132.19z"/>
	</g>
	<g class="st5">
		<path class="st4" d="M560.99,221.61c34.52-3.23,72.09-55.75,72.09-55.75l-40.09,81.53l-4.96-0.45
			c-29.62-2.67-58.83-8.14-87.29-16.31c-28.43-8.17-56.11-19.05-82.61-32.53l0.3-6.02C479.74,217.02,526.36,224.86,560.99,221.61z"
			/>
	</g>
	<g class="st1">
		<path class="st2" d="M477.15,144.69c6.54-1.16,12.7-4.98,16.74-11.69l51.19-85.32c-6.01-4.56-8.93-12.47-6.75-20.16
			c2.76-9.83,12.82-15.65,22.66-13.23c-6.39,1.58-11.78,6.44-13.67,13.23c-2.18,7.69,0.75,15.6,6.74,20.16L502.87,133
			c-4.34,7.23-11.14,11.09-18.21,11.92C482.16,145.22,479.63,145.14,477.15,144.69z"/>
	</g>
	<g class="st1">
		<path class="st2" d="M475.67,144.92l-0.17,4.32l-12.64,0.89c-11.95,0.84-22.53-7.65-24.32-19.5l-7.84-52.34
			c0,0,10.67-3.22,8.65-15.3c-2.04-12.22-17.21-10.44-17.21-10.44l1.46-3.81c3.68-1.42,7.84-1.71,11.94-0.56
			c10.03,2.84,15.88,13.27,13.05,23.31c-1.54,5.44-5.29,9.64-10.02,11.91l9.67,42.34C451.37,139.39,463.9,146.34,475.67,144.92z"/>
	</g>
	<g class="st1">
		<path class="st2" d="M568.41,169.29l-2.14,3.63l9.9,7.37c9.36,6.97,22.5,5.57,30.19-3.2l33.94-38.79c0,0-7.06-8.25,0.95-17.09
			c8.1-8.95,19.6,0.48,19.6,0.48l0.81-3.9c-2.27-3.1-5.53-5.52-9.49-6.73c-9.72-2.95-20,2.53-22.96,12.25
			c-1.6,5.27-0.73,10.69,1.95,15.03l-30.18,29.63C591.24,177.53,577.32,176.64,568.41,169.29z"/>
	</g>
	<g>
		<path class="st6" d="M448.79,70.75l-3.73-16.31C448.67,58.85,450.22,64.83,448.79,70.75z"/>
	</g>
	<g>
		<path class="st4" d="M595.81,252.4l-8.2-0.74c-60.1-5.39-117.84-21.99-171.62-49.33l-2.74-1.39l5.6-113.97
			c-9.31-5.25-14.15-16.46-11.18-27.01c1.71-6.08,5.69-11.12,11.2-14.21c5.51-3.09,11.89-3.84,17.96-2.13
			c6.08,1.71,11.12,5.69,14.21,11.2c3.08,5.51,3.84,11.89,2.13,17.96c-1.49,5.28-4.76,9.83-9.19,12.94l8.9,38.97
			c2.24,9.79,9.98,14.39,16.48,15.42c6.5,1.04,15.29-0.93,20.46-9.54l49.21-82.02c-5.46-5.96-7.52-14.32-5.27-22.33
			c3.54-12.54,16.62-19.87,29.16-16.34c12.54,3.54,19.87,16.62,16.34,29.16c-2.16,7.68-8.01,13.64-15.42,16.06l1.77,96.93
			c0.18,10.1,6.88,16.18,13.08,18.51c6.2,2.32,15.24,2.14,22.02-5.34l24.33-26.85c-2.91-5.37-3.67-11.74-1.99-17.7
			c3.54-12.54,16.62-19.87,29.16-16.34c12.54,3.54,19.87,16.62,16.34,29.16l0,0c-2.9,10.28-12.31,17.21-22.71,17.22L595.81,252.4z
			 M423.02,195.26c51.92,25.98,107.57,41.77,165.44,46.96l1.72,0.15l50.09-101.84l3.43,0.52c7.03,1.07,13.79-3.3,15.72-10.15l0,0
			c1.03-3.64,0.57-7.46-1.28-10.76c-1.85-3.3-4.87-5.68-8.51-6.71c-7.52-2.11-15.35,2.27-17.46,9.78
			c-1.23,4.36-0.28,9.09,2.55,12.65l2.5,3.15l-29.48,32.54c-8.34,9.21-20.75,12.22-32.38,7.85c-11.63-4.36-19-14.79-19.22-27.21
			l-1.92-104.98l4.18-0.57c5.6-0.76,10.21-4.76,11.74-10.19c2.12-7.51-2.27-15.35-9.78-17.46c-3.64-1.03-7.46-0.57-10.76,1.28
			c-3.3,1.85-5.68,4.87-6.71,8.51c-1.59,5.63,0.4,11.57,5.06,15.11l3.38,2.57l-53.38,88.97c-6.35,10.59-17.88,15.96-30.08,14.02
			c-12.2-1.94-21.48-10.63-24.23-22.67l-10.51-46.03l3.41-1.64c3.67-1.76,6.4-5.01,7.51-8.92c2.12-7.51-2.27-15.35-9.78-17.46
			c-7.52-2.11-15.35,2.27-17.46,9.78c-1.98,7.01,1.81,14.51,8.62,17.08l3.23,1.22L423.02,195.26z M663.98,132.19h0.02H663.98z"/>
	</g>
	<g>
		<polygon class="st0" points="509.33,197.27 500.36,168.3 524.58,150.05 533.56,179.02 		"/>
	</g>
	<g class="st10">
		<polygon class="st2" points="500.36,168.3 524.58,150.05 516.96,173.23 		"/>
	</g>
	<g>
		<path class="st4" d="M506.8,205.11l-11.96-38.59l32.27-24.31l11.96,38.59L506.8,205.11z M505.87,170.08l5.99,19.35l16.18-12.19
			l-5.99-19.35L505.87,170.08z"/>
	</g>
	<g>
		<path class="st12" d="M463.41,547.45l3.07,10.59c0.69,2.39,2.84,4.05,5.32,4.13l11.02,0.35c5.55,0.18,7.63,7.35,3.04,10.47
			l-9.12,6.2c-2.05,1.4-2.98,3.96-2.29,6.34l3.07,10.59c1.55,5.33-4.64,9.53-9.02,6.13l-8.71-6.76c-1.96-1.52-4.68-1.61-6.74-0.21
			l-9.12,6.2c-4.6,3.12-10.5-1.46-8.61-6.69l3.74-10.38c0.84-2.34,0.08-4.95-1.88-6.47l-8.71-6.76c-4.39-3.41-1.85-10.44,3.7-10.26
			l11.02,0.35c2.48,0.08,4.73-1.45,5.58-3.79l3.74-10.38C454.4,541.88,461.87,542.12,463.41,547.45z"/>
	</g>
	<g>
		<path class="st12" d="M463.41,547.45l3.07,10.59c0.69,2.39,2.84,4.05,5.32,4.13l11.02,0.35c5.55,0.18,7.63,7.35,3.04,10.47
			l-9.12,6.2c-2.05,1.4-2.98,3.96-2.29,6.34l3.07,10.59c1.55,5.33-4.64,9.53-9.02,6.13l-8.71-6.76c-1.96-1.52-4.68-1.61-6.74-0.21
			l-9.12,6.2c-4.6,3.12-10.5-1.46-8.61-6.69l3.74-10.38c0.84-2.34,0.08-4.95-1.88-6.47l-8.71-6.76c-4.39-3.41-1.85-10.44,3.7-10.26
			l11.02,0.35c2.48,0.08,4.73-1.45,5.58-3.79l3.74-10.38C454.4,541.88,461.87,542.12,463.41,547.45z"/>
	</g>
	<g class="st5">
		<path class="st4" d="M463.41,547.45l3.07,10.59c0.69,2.39,2.84,4.05,5.32,4.13l11.02,0.35c5.55,0.18,7.63,7.35,3.04,10.47
			l-9.12,6.2c-2.05,1.4-2.98,3.96-2.29,6.34l3.07,10.59c1.55,5.33-4.64,9.53-9.02,6.13l-8.71-6.76c-1.96-1.52-4.68-1.61-6.74-0.21
			l-9.12,6.2c-4.6,3.12-10.5-1.46-8.61-6.69l3.74-10.38c0.84-2.34,0.08-4.95-1.88-6.47l-8.71-6.76c-4.39-3.41-1.85-10.44,3.7-10.26
			l11.02,0.35c2.48,0.08,4.73-1.45,5.58-3.79l3.74-10.38C454.4,541.88,461.87,542.12,463.41,547.45z"/>
	</g>
	<g>
		<path class="st12" d="M460.47,549.6l3.45,11.88c0.33,1.15,1.37,1.96,2.57,1.99l12.36,0.39c2.68,0.09,3.68,3.55,1.47,5.05
			l-10.23,6.95c-0.99,0.67-1.44,1.91-1.1,3.06l3.45,11.88c0.75,2.57-2.24,4.6-4.35,2.96l-9.77-7.59c-0.95-0.73-2.26-0.78-3.25-0.1
			l-10.23,6.95c-2.22,1.51-5.07-0.71-4.16-3.23l4.19-11.64c0.41-1.13,0.04-2.39-0.91-3.12l-9.77-7.59
			c-2.12-1.64-0.89-5.04,1.78-4.95l12.36,0.39c1.2,0.04,2.28-0.7,2.69-1.83l4.19-11.64C456.12,546.91,459.73,547.02,460.47,549.6z"
			/>
	</g>
	<g class="st10">
		<path class="st2" d="M478.75,568.53l-12.67-0.4c-0.97-0.03-1.82-0.65-2.14-1.56l-3.9-10.92c-0.72-2.01-3.52-2.11-4.38-0.15
			l-4.68,10.68c-0.39,0.88-1.27,1.44-2.23,1.41l-12.98-0.42c-2.39-0.08-3.24-3.42-1.06-4.41c0.37-0.17,0.8-0.26,1.27-0.25
			l12.36,0.39c1.2,0.04,2.29-0.7,2.69-1.82l4.19-11.63c0.91-2.52,4.51-2.41,5.26,0.17l3.45,11.88c0.33,1.15,1.37,1.95,2.57,1.99
			l12.36,0.39c0.47,0.02,0.89,0.14,1.25,0.33C482.2,565.33,481.14,568.6,478.75,568.53z"/>
	</g>
	<g>
		<path class="st4" d="M472.02,608.24c-2.25,0-4.49-0.75-6.41-2.24l-8.71-6.76c-0.34-0.27-0.81-0.28-1.17-0.04l-9.12,6.2
			c-3.83,2.6-8.65,2.44-12.31-0.39c-3.65-2.83-5-7.48-3.43-11.82l3.74-10.38c0.15-0.41,0.02-0.86-0.32-1.12l-8.71-6.76
			c-3.65-2.83-5-7.48-3.43-11.82c1.57-4.35,5.53-7.07,10.19-6.92l11.02,0.35c0.43-0.01,0.82-0.25,0.97-0.66l3.74-10.38
			c1.57-4.35,5.56-7.06,10.18-6.92c4.62,0.15,8.44,3.11,9.72,7.55l3.07,10.59c0.12,0.41,0.49,0.7,0.92,0.72l11.02,0.35
			c4.62,0.15,8.44,3.11,9.72,7.55c1.29,4.44-0.35,8.99-4.18,11.58l-9.12,6.2c-0.36,0.24-0.52,0.68-0.4,1.1l3.07,10.59
			c1.29,4.44-0.35,8.98-4.18,11.58C476.1,607.63,474.05,608.24,472.02,608.24z M456.29,589.55c2.27,0,4.53,0.74,6.42,2.21l8.71,6.76
			c0.16,0.12,0.57,0.44,1.17,0.04c0.6-0.41,0.45-0.91,0.4-1.1l-3.07-10.59c-1.27-4.37,0.41-9.02,4.18-11.58l9.12-6.2
			c0.16-0.11,0.6-0.41,0.4-1.1c-0.2-0.69-0.73-0.71-0.92-0.72l-11.02-0.35c-4.55-0.15-8.46-3.18-9.72-7.55l-3.07-10.59
			c-0.05-0.19-0.2-0.69-0.92-0.72c-0.74-0.01-0.9,0.47-0.97,0.66l-3.74,10.38c-1.54,4.28-5.64,7.05-10.19,6.92l-11.02-0.35
			c-0.2-0.01-0.72-0.02-0.97,0.66c-0.25,0.68,0.17,1,0.33,1.12l8.71,6.76c3.6,2.79,4.97,7.54,3.43,11.82l-3.74,10.38
			c-0.07,0.19-0.25,0.68,0.33,1.12c0.57,0.44,1.01,0.15,1.17,0.04l9.12-6.2C452.19,590.15,454.24,589.55,456.29,589.55z"/>
	</g>
	<g class="st1">
		<path class="st2" d="M746.23,386.53c0,0,5.26,7.41,4.93,19.29c-0.21,7.67-4.53,14.92-5.97,14.12c-1.62-0.9-0.42-6.89-1.56-22.67
			C743.2,391.23,740.47,377.47,746.23,386.53z"/>
	</g>
	<g class="st1">
		<path class="st2" d="M707.76,386.53c0,0-5.26,7.41-4.93,19.29c0.21,7.67,4.53,14.92,5.97,14.12c1.62-0.9,0.42-6.89,1.56-22.67
			C710.8,391.23,713.52,377.47,707.76,386.53z"/>
	</g>
</g>
</svg>
